<svg width="70" height="79" viewBox="0 0 70 79" fill="none" xmlns="http://www.w3.org/2000/svg">
    <g clip-path="url(#o0trroroqa)">
        <path d="M55.743 6.798s-34.63 3.98-47.332 6.282c0 0-.994 5.578 1.656 7.46 9.563-1.744 29.524-5.085 46.079-5.854-.72-3.385-.396-7.888-.396-7.888h-.007z" fill="#8ED4F9"/>
        <path d="M4.3 13.662s-3.94.995-3.925 3.87c0 0-.46 4.424 3.925 3.778 0 0 29.055-5.876 51.724-6.922 0 0 5.955-3.036 7.698-4.285a.352.352 0 0 0-.065-.61c-1.664-.748-6.899-3.058-8.036-2.993 0 0-45.496 5.237-51.321 7.169v-.007z" stroke="#222" stroke-miterlimit="10"/>
        <path d="M55.627 6.5s-.317 4.51.396 7.888M8.296 12.783s-.994 5.578 1.656 7.46" stroke="#222" stroke-miterlimit="10"/>
        <path d="M8.238 16.894s32.08-6.29 47.317-6.45" stroke="#222" stroke-miterlimit="10"/>
        <path d="M62.057 8.781s-.374 1.424.368 2.143l1.447-1.242-1.815-.9zM27.73 42.024s4.79-2.353 5.567-6.464c0 0 2.218 5.012 7.424 4.888l.483.843.806-.574s1.016-4.83-1.857-7.002l.266-.632s4.55.908 4.248-4.045c0 0-.777-3.385-5.206-3.385 0 0-4.608-.602-2.815 5.07l-.44.545s-2.052-.581-3.031.181c0 0-6.884-.16-6.006 9.5" fill="#222"/>
        <path d="M28.854 42.024s-2.398-1.65-3.19.203c0 0-1.52 3.181 2.433 3.181 0 0 1.397 4.024.757 7.968L27.42 54.66s-7.029 4.59-9.42-2.418c0 0-4.63-12.798 1.758-32.285 0 0 .835-2.091 1.915-2.418 0 0 2.038-1.33.044-2.215 0 0-2.636-.487-5.668 4.59l-4.868.203s-13.94 43.884 9.369 56.202c0 0 25.542 10.146 38.071-12.079 0 0 9.577-17.228-3.19-49.831 0 0-2.311-.647-3.83.4 0 0-.282.566-1.319-.764 0 0-4.19-4.706-4.788-1.852 0 0-.483.4.677 1.49 0 0 2.232 1.125 3.19 4.989 0 0 6.387 32.044-1.196 35.262 0 0-3.434-.726-4.709-.567 0 0-2.952-2.513-1.836-8.425 0 0 2.398.756 2.513-2.563.115-3.32-3.053-1.75-3.47-1.148" fill="#fff"/>
        <path d="M28.854 42.024s-2.398-1.65-3.19.203c0 0-1.52 3.181 2.433 3.181 0 0 1.397 4.024.757 7.968L27.42 54.66s-7.029 4.59-9.42-2.418c0 0-4.63-12.798 1.758-32.285 0 0 .835-2.091 1.915-2.418 0 0 2.038-1.33.044-2.215 0 0-2.636-.487-5.668 4.59l-4.868.203s-13.94 43.884 9.369 56.202c0 0 25.542 10.146 38.071-12.079 0 0 9.577-17.228-3.19-49.831 0 0-2.311-.647-3.83.4 0 0-.282.566-1.319-.764 0 0-4.19-4.706-4.788-1.852 0 0-.483.4.677 1.49 0 0 2.232 1.125 3.19 4.989 0 0 6.387 32.044-1.196 35.262 0 0-3.434-.726-4.709-.567 0 0-2.952-2.513-1.836-8.425 0 0 2.398.756 2.513-2.563.115-3.32-3.053-1.75-3.47-1.148" stroke="#222" stroke-miterlimit="10"/>
        <path d="M50.465 25.181s6.409-.16 8.173-1.402M9.11 28.37s5.523.587 8.439 0M27.422 54.669l7.979 4.103 8.057-5.396" stroke="#222" stroke-miterlimit="10"/>
        <path d="M35.4 58.772s2.874 4.51 5.984 1.852c0 0 5.984-3.624 6.784-6.682M23.03 56.136s5.587 4.554 7.74 5.33c2.153.778 4.054-1.771 4.508-2.621M31.525 29.851c1.059.102 1.657 1.612 1.657 1.612s.302-1.43.655-1.852" stroke="#222" stroke-miterlimit="10"/>
        <path d="M35.342 42.133s-.166-.88.735-1.053c0 0 1.008-.124 1.087.827M30.56 42.46s-.072-.893.842-.966c0 0 1.016-.014.994.944M32.44 45.772s.424 1.27 2.102 1.177c0 0 1.728-.03 2.045-1.482" stroke="#222" stroke-miterlimit="10" stroke-linecap="round"/>
        <path d="M52.365 6.943s-2.873-4.198-7.677-2.172c0 0-3.607 1.765-3.276 4.235 0 0 .123 1.264 1.736.443l.482-.632s-.18 1.09 1.375.908c0 0 .987-.182 1.196-.908 0 0-.238.951.777.93 0 0 .836.29 1.11-.741 0 0 1.108-2.339 2.541-2.005l1.736-.058z" fill="#fff" stroke="#222" stroke-linejoin="round"/>
        <path d="M46.201 8.817s.511-1.329 1.404-1.96M43.63 8.818s0-1.511 2.067-2.63" stroke="#222" stroke-linecap="round" stroke-linejoin="round"/>
        <path d="M14.107 11.919s1.692-3.624 5.667-2.68c0 0 3.017.9 3.075 2.854 0 0 .064.995-1.29.567l-.453-.429s.28.821-.95.88c0 0-.785-.015-1.045-.553 0 0 .31.705-.482.82 0 0-.612.335-.95-.428 0 0-1.153-1.67-2.226-1.22l-1.353.182.007.007z" fill="#fff" stroke="#222" stroke-linejoin="round"/>
        <path d="M19.119 12.573s-.562-.966-1.34-1.337M21.113 12.239s-.195-1.17-1.937-1.765" stroke="#222" stroke-linecap="round" stroke-linejoin="round"/>
        <path d="M59.76 4.67c.079-.24.137-2.818.857-3.704z" fill="#fff"/>
        <path d="M59.76 4.67c.079-.24.137-2.818.857-3.704" stroke="#222" stroke-miterlimit="10" stroke-linecap="round"/>
        <path d="M62.281 5.368c.08-.24 1.793-4.119 2.513-5.005z" fill="#fff"/>
        <path d="M62.281 5.368c.08-.24 1.793-4.119 2.513-5.005" stroke="#222" stroke-miterlimit="10" stroke-linecap="round"/>
        <path d="M65.283 6.072c.08-.24 3.637-3.857 4.357-4.743z" fill="#fff"/>
        <path d="M65.283 6.072c.08-.24 3.637-3.857 4.357-4.743" stroke="#222" stroke-miterlimit="10" stroke-linecap="round"/>
    </g>
    <defs>
        <clipPath id="o0trroroqa">
            <path fill="#fff" d="M0 0h70v79H0z"/>
        </clipPath>
    </defs>
</svg>
