<svg width="107" height="141" viewBox="0 0 107 141" fill="none" xmlns="http://www.w3.org/2000/svg">
    <g clip-path="url(#gpijgh6ura)">
        <path d="M.16 127.238s17.67-5.94 21.27-18.45c0 0 2.5-19.08 1.25-27.84 0 0-6.4-.96-5.3-8.62 0 0-.13-5.6 5.3-6.54 3.61-.34 4.1 3.1 4.1 3.1l.36-5.65h57.03v4.15c.79-1.5 2.92-1.09 2.92-1.09 8.17 1.63 5.8 9.18 5.8 9.18s-.94 6.26-6.72 5.79c0 0-4.69 30.02 20.02 45.98" fill="#fff"/>
        <path d="M.16 127.238s17.67-5.94 21.27-18.45c0 0 2.5-19.08 1.25-27.84 0 0-6.4-.96-5.3-8.62 0 0-.13-5.6 5.3-6.54 3.61-.34 4.1 3.1 4.1 3.1l.36-5.65h57.03v4.15c.79-1.5 2.92-1.09 2.92-1.09 8.17 1.63 5.8 9.18 5.8 9.18s-.94 6.26-6.72 5.79c0 0-4.69 30.02 20.02 45.98" stroke="#222" stroke-linejoin="round"/>
        <path d="M22.68 80.95s2.7.24 4.46-1.63z" fill="#fff"/>
        <path d="M22.68 80.95s2.7.24 4.46-1.63" stroke="#222" stroke-miterlimit="10" stroke-linecap="round"/>
        <path d="M86.17 81.26s-2.44.02-4-1.65z" fill="#fff"/>
        <path d="M86.17 81.26s-2.44.02-4-1.65" stroke="#222" stroke-miterlimit="10" stroke-linecap="round"/>
        <path d="M18.63 114.441s36.64 20.79 75.94 1.8z" fill="#fff"/>
        <path d="M18.63 114.441s36.64 20.79 75.94 1.8" stroke="#222" stroke-miterlimit="10" stroke-linecap="round"/>
        <path d="M55.65 68.878c15.751 0 28.52-2.53 28.52-5.65 0-3.12-12.769-5.65-28.52-5.65s-28.52 2.53-28.52 5.65c0 3.12 12.769 5.65 28.52 5.65z" fill="#fff" stroke="#222" stroke-linejoin="round"/>
        <path d="M47.92 88.469s1.74 6.79 6.74 6.77c0 0 6.44.9 7.46-6.05" stroke="#222" stroke-miterlimit="10" stroke-linecap="round"/>
        <path d="M42.51 79.578a2.25 2.25 0 1 0 0-4.5 2.25 2.25 0 0 0 0 4.5z" fill="#222"/>
        <path d="M61.31 53.221s-5.72-16.86 15.02-16.76c0 0 3.17 20.13-15.02 16.76z" fill="#2FB163" stroke="#222" stroke-linejoin="round"/>
        <path d="M67.64 80.14a2.25 2.25 0 1 0 0-4.5 2.25 2.25 0 0 0 0 4.5z" fill="#222"/>
        <path d="M53.5 61.268s1.06-13.98-18.45-11.22c0 0 1.45 17.22 18.45 11.22z" fill="#2FB163" stroke="#222" stroke-linejoin="round"/>
        <path d="M57.12 68.88v-11.3s14.3-11 16.04-17.54" stroke="#222" stroke-linecap="round" stroke-linejoin="round"/>
        <path d="M52.11 46.25s5.01-11.94-14.2-13.57c0 0-3.17 15.6 14.2 13.57z" fill="#2FB163" stroke="#222" stroke-linejoin="round"/>
        <path d="M39.75 52.809s9.3 3.31 17.37 12.36M40.98 36.46s14.51 9.84 16.14 21.12" stroke="#222" stroke-linecap="round" stroke-linejoin="round"/>
        <path d="M84.17 40.548s18.18-3.95 20.76-5.72z" fill="#fff"/>
        <path d="M84.17 40.548s18.18-3.95 20.76-5.72" stroke="#222" stroke-linecap="round" stroke-linejoin="round"/>
        <path d="M84.17 47.912s18.09-.14 22.02 2.32z" fill="#fff"/>
        <path d="M84.17 47.912s18.09-.14 22.02 2.32" stroke="#222" stroke-linecap="round" stroke-linejoin="round"/>
        <path d="M80.28 53.602s8.72 2.99 10.22 5.39z" fill="#fff"/>
        <path d="M80.28 53.602s8.72 2.99 10.22 5.39" stroke="#222" stroke-linecap="round" stroke-linejoin="round"/>
        <path d="M23.81 38.67S5.63 34.72 3.05 32.95z" fill="#fff"/>
        <path d="M23.81 38.67S5.63 34.72 3.05 32.95" stroke="#222" stroke-linecap="round" stroke-linejoin="round"/>
        <path d="M23.81 46.029s-18.09-.14-22.02 2.32z" fill="#fff"/>
        <path d="M23.81 46.029s-18.09-.14-22.02 2.32" stroke="#222" stroke-linecap="round" stroke-linejoin="round"/>
        <path d="M27.7 51.719s-8.72 2.99-10.22 5.39z" fill="#fff"/>
        <path d="M27.7 51.719s-8.72 2.99-10.22 5.39" stroke="#222" stroke-linecap="round" stroke-linejoin="round"/>
        <path d="M27.7 28.83s15.82 1.23 25-13.76c0 0 7.98 23.98 31.47 15.8 0 0 0-28.74-31.47-25.34 0 0-22.55-2.32-25 23.29v.01z" fill="#222"/>
        <path d="M50.24 2.129s2.81 3.41 2.46 4.29z" fill="#fff"/>
        <path d="M50.24 2.129s2.81 3.41 2.46 4.29M53.47.5s-.52 2.67 0 5.49c0 0 1.23-4.29 3.22-5.24M28.31 28.488s32.35 6.47 49.38 2.93" stroke="#222" stroke-linecap="round" stroke-linejoin="round"/>
        <path d="M87.39 72.172s1.13 1.5-.14 3.58z" fill="#fff"/>
        <path d="M87.39 72.172s1.13 1.5-.14 3.58" stroke="#222" stroke-miterlimit="10" stroke-linecap="round"/>
        <path d="M22.81 75.668s-1.44-1.21-.68-3.52z" fill="#fff"/>
        <path d="M22.81 75.668s-1.44-1.21-.68-3.52" stroke="#222" stroke-miterlimit="10" stroke-linecap="round"/>
    </g>
    <defs>
        <clipPath id="gpijgh6ura">
            <path fill="#fff" d="M0 0h106.68v140.36H0z"/>
        </clipPath>
    </defs>
</svg>
