<svg width="154" height="124" viewBox="0 0 154 124" fill="none" xmlns="http://www.w3.org/2000/svg">
    <g clip-path="url(#uh5esc949a)">
        <path d="M25.84 122.681s15.99-5.38 19.25-16.7c0 0 2.26-17.27 1.13-25.19 0 0-6.94-.57-5.94-7.5 0 0 1.34-6.79 6.26-7.64l3.15-10.26 49.68 2.97 6.6 8.49s5.78 2.76 3.8 8.99c0 0-.85 5.66-6.09 5.24 0 0-4.25 27.18 18.12 41.61" fill="#fff"/>
        <path d="M25.84 122.681s15.99-5.38 19.25-16.7c0 0 2.26-17.27 1.13-25.19 0 0-6.94-.57-5.94-7.5 0 0 1.34-6.79 6.26-7.64l3.15-10.26 49.68 2.97 6.6 8.49s5.78 2.76 3.8 8.99c0 0-.85 5.66-6.09 5.24 0 0-4.25 27.18 18.12 41.61" stroke="#222" stroke-miterlimit="10"/>
        <path d="M118.41 60.31a5.824 5.824 0 0 0 4.83 2.57c3.03 0 5.49-2.32 5.78-5.27.02-.19.06-.37.06-.56 0 .19-.04.38-.06.56 1.04.38 2.16.59 3.34.59 5.43 0 9.83-4.4 9.83-9.83a9.829 9.829 0 0 0-17.9-5.61c0-.08.02-.15.02-.22a5.83 5.83 0 0 0-5.83-5.83c-2.34 0-4.35 1.39-5.28 3.38.25-.74.39-1.52.39-2.33 0-4.96-5-8.98-11.16-8.98-3.14 0-5.97 1.05-8 2.73-3.69-.3-4.4-6.12-8.56-6.12-4.87 0-8.81 3.56-8.81 7.96v2.38c0-4.4-3.94-7.96-8.81-7.96-2.89 0-5.45 1.27-7.06 3.21-1.61-1.95-4.17-3.21-7.06-3.21-4.16 0-7.63 2.6-8.56 6.1-1.51-2.43-4.38-4.07-7.68-4.07-4.78 0-8.66 3.44-8.8 7.72a9.576 9.576 0 0 0-3.85-.81c-4.87 0-8.81 3.56-8.81 7.96s3.94 7.96 8.81 7.96c.89 0 1.74-.12 2.55-.34-.49.99-.77 2.09-.77 3.24 0 4.4 3.94 7.96 8.81 7.96 2.02 0 3.88-.62 5.37-1.66.66 3.8 4.3 6.72 8.69 6.72 3.92 0 7.23-2.31 8.38-5.5 1.99 2.49 5.45 4.14 9.39 4.14 3.94 0 7.3-1.59 9.3-4.01 1.34 2.62 4.65 4.48 8.54 4.48 3.55 0 6.63-1.55 8.15-3.83 2.19 3.15 6.59 5.31 11.67 5.31 6.81 0 12.41-3.87 13.09-8.82" fill="#89CCEF"/>
        <path d="M118.41 60.31a5.824 5.824 0 0 0 4.83 2.57c3.03 0 5.49-2.32 5.78-5.27m0 0c.02-.19.06-.37.06-.56 0 .19-.04.38-.06.56zm0 0c1.04.38 2.16.59 3.34.59 5.43 0 9.83-4.4 9.83-9.83a9.829 9.829 0 0 0-17.9-5.61c0-.08.02-.15.02-.22a5.83 5.83 0 0 0-5.83-5.83c-2.34 0-4.35 1.39-5.28 3.38.25-.74.39-1.52.39-2.33 0-4.96-5-8.98-11.16-8.98-3.14 0-5.97 1.05-8 2.73-3.69-.3-4.4-6.12-8.56-6.12-4.87 0-8.81 3.56-8.81 7.96v2.38c0-4.4-3.94-7.96-8.81-7.96-2.89 0-5.45 1.27-7.06 3.21-1.61-1.95-4.17-3.21-7.06-3.21-4.16 0-7.63 2.6-8.56 6.1m0 0c-.16.6-.25 1.22-.25 1.86m.25-1.86c-1.51-2.43-4.38-4.07-7.68-4.07-4.78 0-8.66 3.44-8.8 7.72m0 0c0 .08-.01.16-.01.24m.01-.24a9.576 9.576 0 0 0-3.85-.81c-4.87 0-8.81 3.56-8.81 7.96s3.94 7.96 8.81 7.96c.89 0 1.74-.12 2.55-.34-.49.99-.77 2.09-.77 3.24 0 4.4 3.94 7.96 8.81 7.96 2.02 0 3.88-.62 5.37-1.66.66 3.8 4.3 6.72 8.69 6.72 3.92 0 7.23-2.31 8.38-5.5 1.99 2.49 5.45 4.14 9.39 4.14 3.94 0 7.3-1.59 9.3-4.01 1.34 2.62 4.65 4.48 8.54 4.48 3.55 0 6.63-1.55 8.15-3.83 2.19 3.15 6.59 5.31 11.67 5.31 6.81 0 12.41-3.87 13.09-8.82" stroke="#222" stroke-miterlimit="10"/>
        <path d="M49.35 44.36s1.13-18.58 16.84-19.99v-1.84S55.72 19.56 59.25 8.8c0 0 2.97-11.4 18.54-8.25 0 0 14.84 2.3 9.97 15.33 0 0-1.62 5.35-7 6.07l.66 1.43s14.91.28 19.29 17.27v6.24l-6.81 2.6-6.33-1.65-17.22-3.96-13.91 3.01-7.11-2.52.02-.01z" fill="#222"/>
        <path d="M56.46 46.88c-.5-3.93-4.05-6.97-8.36-6.97-4.65 0-8.42 3.55-8.42 7.93" fill="#89CCEF"/>
        <path d="M56.46 46.88c-.5-3.93-4.05-6.97-8.36-6.97-4.65 0-8.42 3.55-8.42 7.93" stroke="#222" stroke-miterlimit="10"/>
        <path d="M93.92 51.551c0-4.38-3.14-7.93-7.02-7.93-2.32 0-4.37 1.27-5.65 3.23" fill="#89CCEF"/>
        <path d="M93.92 51.551c0-4.38-3.14-7.93-7.02-7.93-2.32 0-4.37 1.27-5.65 3.23" stroke="#222" stroke-miterlimit="10"/>
        <path d="M110.4 49.478a8.241 8.241 0 0 0-16.48 0" fill="#89CCEF"/>
        <path d="M110.4 49.478a8.241 8.241 0 0 0-16.48 0" stroke="#222" stroke-miterlimit="10"/>
        <path d="M81.25 46.861c-1.27-5.34-6.33-9.33-12.39-9.33-6.06 0-11.14 4.01-12.4 9.36" fill="#89CCEF"/>
        <path d="M81.25 46.861c-1.27-5.34-6.33-9.33-12.39-9.33-6.06 0-11.14 4.01-12.4 9.36" stroke="#222" stroke-miterlimit="10"/>
        <path d="M46.22 80.789s2.44.22 4.03-1.48z" fill="#fff"/>
        <path d="M46.22 80.789s2.44.22 4.03-1.48" stroke="#222" stroke-miterlimit="10" stroke-linecap="round"/>
        <path d="M103.69 81.07s-2.21.02-3.62-1.5z" fill="#fff"/>
        <path d="M103.69 81.07s-2.21.02-3.62-1.5" stroke="#222" stroke-miterlimit="10" stroke-linecap="round"/>
        <path d="M104.71 72.621s.6 1.59-1.03 3.08z" fill="#fff"/>
        <path d="M104.71 72.621s.6 1.59-1.03 3.08" stroke="#222" stroke-miterlimit="10" stroke-linecap="round"/>
        <path d="M45.37 72.621s-.96 1.59.85 2.55z" fill="#fff"/>
        <path d="M45.37 72.621s-.96 1.59.85 2.55" stroke="#222" stroke-miterlimit="10" stroke-linecap="round"/>
        <path d="M42.56 111.109s33.16 18.81 68.73 1.63z" fill="#fff"/>
        <path d="M42.56 111.109s33.16 18.81 68.73 1.63M62.66 70.36s.99 4.53 5.94.99M81.34 71.531s2.83 3.72 6.09 0M70.44 81.68s-.28 8.07 4.67 8.07c0 0 5.52 0 4.53-8.07" stroke="#222" stroke-miterlimit="10" stroke-linecap="round"/>
        <path d="M126.08 8.26s-7.43-2.12-7.64 4.25c0 0 .25 8.92 9.36 5.94l2.97-1.49s15.48 6.37 21.95-4.67c0 0 3.54-6.79-6.24-8.7 0 0-5.88-.21-6.24 4.03 0 0-1.42-5.74-8.21-4.04 0 0-6.37 0-5.94 4.67l-.01.01zM10.37 70.47S3.36 66.22.82 72.59c0 0-2.55 6.37 6.79 5.52l2.76-.64s10.4 4.67 15.92-1.27c0 0 4.67-8.49-5.31-11.25 0 0-7.86-2.12-10.62 5.52h.01z" fill="#fff" stroke="#222" stroke-linejoin="round"/>
    </g>
    <defs>
        <clipPath id="uh5esc949a">
            <path fill="#fff" d="M0 0h153.84v123.16H0z"/>
        </clipPath>
    </defs>
</svg>
