<svg width="117" height="136" viewBox="0 0 117 136" fill="none" xmlns="http://www.w3.org/2000/svg">
    <g clip-path="url(#z9vyrnaxza)">
        <path d="M73.783 24.723s.351-3.67 3.678-2.822c0 0 4.816.988 2.05 9.11 0 0-1.947 5.153-5.735 3.459 0 0-1.52 13.346 2.076 14.085 0 0 21.216 5.402 25.361 17.792l-12.64 37.387-26.548 12.499-4.457.529s-9.024 28.277-39.398 15.677c0 0-24.422-10.549-16.14-48.223 0 0 4.989-22.634 25.91-34.712 0 0 4.458-2.332 5.627-6.778 1.169-4.447 1.38-8.9 3.506-10.913 0 0-6.054-.528-4.675-6.676 0 0 .888-6.918 6.125-6.638l12.67-13.486 9.772-.528 8.922 1.904 5.097 11.76-1.201 6.568v.006z" fill="#fff" stroke="#222" stroke-miterlimit="10"/>
        <path d="M39.73 21.831c-.057.217 2.548-5.58 7.076-7.765 0 0 5.806-3.109 7.006-6.778 0 0 .569 7.905 9.554 7.275 0 0 3.398-.427 4.605-1.345 0 0-3.826-.566-3.117-3.815 0 0 .92-1.835 2.76-.35 0 0 7.574 5.083 6.156 14.76 0 0 .639-1.555 1.91-2.046 0 0 3.116-21.538-17.985-21.748 0 0-16.707-1.057-19.185 18.5 0 0 1.7 1.554 1.2 3.319l.02-.007z" fill="#222"/>
        <path d="M30.33 47.777s24.734 20.162 45.528.778" stroke="#222" stroke-miterlimit="10"/>
        <path d="M73.783 34.47s-1.98-.427-1.98-2.013M37.074 31.82l2.126-1.268M75.865 26.832s2.459 1.956-.237 4.051M37.074 27.87s-2.574-1.796-.013-4.064M54.738 33.463s-.07 4.115 4.528 4.186c0 0 3.609-.07 4.458-3.886" stroke="#222" stroke-miterlimit="10" stroke-linecap="round"/>
        <path d="M51.411 26.067c.783 0 1.418-.633 1.418-1.414 0-.78-.635-1.414-1.418-1.414-.783 0-1.418.633-1.418 1.414 0 .781.635 1.414 1.418 1.414zM66.56 27.252c.783 0 1.417-.633 1.417-1.414 0-.781-.634-1.414-1.417-1.414s-1.418.633-1.418 1.414c0 .781.635 1.414 1.418 1.414z" fill="#222"/>
        <path d="M57.568 116.768s.568-16.983 10.403-17.97l5.148-1.415-.639-9.16s-8.072-9.53-19.536-3.918c0 0-7.543 4.663-9.874 12.39 0 0-9.394 19.754-11.732 7.205 0 0-.798-3.338 0-5.561" stroke="#222" stroke-miterlimit="10" stroke-linecap="round"/>
        <path d="M41.135 100.358s1.955 11.524 17.122 11.021M61.744 94.988s5.007-1.274 11.381.427M57.855 89.197s7.76-3.37 14.957 3.682" stroke="#222" stroke-miterlimit="10" stroke-linecap="round"/>
        <path d="M73.617 81.687c-3.992 13.842-17.742 35.157-17.742 35.157s2.83 2.459 5.307 2.287l16.145-12.326-3.716-25.118" fill="#fff"/>
        <path d="M73.617 81.687c-3.992 13.842-17.742 35.157-17.742 35.157s2.83 2.459 5.307 2.287l16.145-12.326-3.716-25.118" stroke="#222" stroke-linecap="round" stroke-linejoin="round"/>
        <path d="M77.04 68.761s-1.31 5.16-3.238 12.225l-1.143 4.16c-3.979 14.295-9.67 33.119-12.607 35.444 0 0 1.558 3.109 7.504 1.128 0 0 11.751-40.248 9.484-52.963v.006z" fill="#fff" stroke="#222" stroke-linecap="round" stroke-linejoin="round"/>
        <path d="M77.04 68.761s34.972-3.956 38.938-3.67c0 0-10.193 51.409-12.179 53.384 0 0-21.803 5.511-37.24 4.944 0 0 8.923-51.69 10.481-54.658z" fill="#FF84B0" stroke="#222" stroke-miterlimit="10"/>
        <path d="M78.77 68.36c0-1.656 1.348-3 3.009-3a3.005 3.005 0 0 1 3.008 3c0 1.656-1.348 3-3.008 3M84.787 67.748c0-1.656 1.347-3 3.008-3a3.005 3.005 0 0 1 3.008 3c0 1.657-1.348 3-3.008 3M90.803 67.028c0-1.656 1.347-3 3.008-3a3.005 3.005 0 0 1 3.008 3c0 1.657-1.348 3-3.008 3" stroke="#222" stroke-linecap="round" stroke-linejoin="round"/>
        <path d="M96.691 66.366c0-1.656 1.348-3 3.008-3a3.005 3.005 0 0 1 3.008 3c0 1.656-1.347 3-3.008 3M102.707 65.36c0-1.657 1.348-3 3.008-3a3.005 3.005 0 0 1 3.008 3c0 1.656-1.347 3-3.008 3M108.723 65.073c0-1.656 1.348-3 3.008-3a3.005 3.005 0 0 1 3.008 3c0 1.656-1.347 3-3.008 3" stroke="#222" stroke-linecap="round" stroke-linejoin="round"/>
        <path d="M111.757 88.114s.319 7.944-9.452 10.065c0 0-8.852.778-7.39 4.555 0 0 .486 1.274 2.185 1.166 0 0-2.919 1.166-1.967 3.338 0 0 1.117 1.854 3.666 1.484 0 0-2.28.956-.958 2.81 0 0 .798 1.586 4.834 1.006 0 0 14.868-.637 13.961-16.047 0 0 .038-5.242-4.886-8.37l.007-.007z" fill="#fff" stroke="#222" stroke-linecap="round" stroke-linejoin="round"/>
        <path d="M98.799 108.716s4.987 0 8.391-2.491M97.1 103.9s6.904-.21 8.922-2.332" stroke="#222" stroke-linecap="round" stroke-linejoin="round"/>
        <path d="M71.56 86.458c-.178-.21-12.46-11.575-12.46-11.575a2.86 2.86 0 0 0-2.49 2.415l5.179 5.236" stroke="#222" stroke-miterlimit="10" stroke-linecap="round"/>
        <path d="m59.107 74.883-2.836-2.446c-.434-.376-1.054-.478-1.565-.23-.255.122-.517.3-.74.561-.486.56-.416 1.408.102 1.937l2.548 2.599s.16-2.128 2.49-2.415v-.006z" fill="#FF84B0" stroke="#222" stroke-linejoin="round"/>
    </g>
    <defs>
        <clipPath id="z9vyrnaxza">
            <path fill="#fff" d="M0 0h117v136H0z"/>
        </clipPath>
    </defs>
</svg>
