<svg width="233" height="255" viewBox="0 0 233 255" fill="none" xmlns="http://www.w3.org/2000/svg">
<path d="M205.292 53.5808C219.49 53.5808 231 42.0341 231 27.7904C231 13.5468 219.49 2 205.292 2C191.093 2 179.583 13.5468 179.583 27.7904C179.583 42.0341 191.093 53.5808 205.292 53.5808Z" stroke="#E2E2E2" stroke-width="4" stroke-miterlimit="10"/>
<path d="M198.087 27.7905H65.5467C61.5678 27.7905 58.3422 31.0264 58.3422 35.018V167.981C58.3422 171.973 61.5678 175.209 65.5467 175.209H198.087C202.066 175.209 205.292 171.973 205.292 167.981V35.018C205.292 31.0264 202.066 27.7905 198.087 27.7905Z" fill="#FFA127"/>
<path d="M146.814 128.977C151.887 128.977 156 124.851 156 119.761C156 114.672 151.887 110.546 146.814 110.546C141.741 110.546 137.628 114.672 137.628 119.761C137.628 124.851 141.741 128.977 146.814 128.977Z" fill="white"/>
<path d="M140.318 113.245C136.728 116.846 136.728 122.677 140.318 126.278C141.483 127.447 142.888 128.23 144.377 128.639C146.406 128.435 148.363 127.543 149.924 125.989C153.515 122.387 153.515 116.557 149.924 112.955C148.76 111.787 147.355 111.004 145.866 110.594C143.837 110.799 141.879 111.691 140.318 113.245Z" fill="black"/>
<path d="M116.819 128.977C121.893 128.977 126.005 124.851 126.005 119.761C126.005 114.672 121.893 110.546 116.819 110.546C111.746 110.546 107.634 114.672 107.634 119.761C107.634 124.851 111.746 128.977 116.819 128.977Z" fill="white"/>
<path d="M110.335 113.245C106.745 116.846 106.745 122.677 110.335 126.278C111.5 127.447 112.905 128.23 114.394 128.639C116.423 128.435 118.38 127.543 119.941 125.989C123.531 122.387 123.531 116.557 119.941 112.955C118.776 111.787 117.372 111.004 115.883 110.594C113.853 110.799 111.896 111.691 110.335 113.245Z" fill="black"/>
<path d="M132.766 134.217C131.469 134.217 130.412 135.12 130.412 136.228C130.412 137.336 131.469 138.24 132.766 138.24" stroke="black" stroke-width="2" stroke-linecap="round" stroke-linejoin="round"/>
<path d="M132.766 138.252C131.469 138.252 130.412 139.155 130.412 140.264C130.412 141.372 131.469 142.275 132.766 142.275" stroke="black" stroke-width="2" stroke-linecap="round" stroke-linejoin="round"/>
<path d="M49.9956 133C77.5942 133 100 155.47 100 183.147V249.74C100 252.642 97.6484 255 94.7548 255H5.24521C2.3516 255 0 252.642 0 249.74V183.147C0 155.47 22.4058 133 50.0044 133H49.9956Z" fill="#275CE1"/>
<path d="M28.0431 178.862C28.0431 181.1 28.8969 183.329 30.6133 185.024C34.0025 188.381 39.4653 188.337 42.8109 184.937C44.4663 183.25 45.294 181.056 45.294 178.862H28.0431Z" fill="white"/>
<path d="M28.0431 178.862C28.0431 181.1 28.8969 183.329 30.6133 185.024C31.7198 186.117 33.0441 186.842 34.4381 187.218C36.3375 187.008 38.1846 186.169 39.6308 184.692C41.2253 183.066 42.0443 180.969 42.1052 178.862H28.0518H28.0431Z" fill="black"/>
<path d="M56.3416 178.862C56.3416 181.1 57.1954 183.329 58.9118 185.024C62.301 188.381 67.7638 188.337 71.1094 184.937C72.7648 183.25 73.5925 181.056 73.5925 178.862H56.3416Z" fill="white"/>
<path d="M56.3416 178.862C56.3416 181.1 57.1954 183.329 58.9118 185.024C60.0183 186.117 61.3426 186.842 62.7366 187.218C64.636 187.008 66.483 186.169 67.9293 184.692C69.5237 183.066 70.3427 180.969 70.4037 178.862H56.3503H56.3416Z" fill="black"/>
<path d="M47.5594 199.402C49.7811 197.025 53.7105 197.086 56.333 199.551" stroke="black" stroke-width="2" stroke-linecap="round" stroke-linejoin="round"/>
<path d="M87 226L94.829 233.419C95.1706 233.743 95.7223 233.743 96.0638 233.419L103.219 226.639C103.56 226.315 104.112 226.315 104.453 226.639L111.608 233.419C111.95 233.743 112.501 233.743 112.843 233.419L119.998 226.639C120.339 226.315 120.891 226.315 121.232 226.639L129 234" stroke="#E2E2E2" stroke-width="4" stroke-miterlimit="10"/>
</svg>
