<svg width="160" height="96" viewBox="0 0 160 96" fill="none" xmlns="http://www.w3.org/2000/svg">
    <g clip-path="url(#7nin4d93aa)">
        <path d="M128.899 33.592a.54.54 0 0 1 .521-.44c2.671-.055 17.195-.364 20.034-.473 2.464-.092 5.748-.565 7.034-.755a.543.543 0 0 1 .619.467l2.616 20.276a.541.541 0 0 1-.532.614c-3.62.022-22.243.272-27.632 2.782a.535.535 0 0 1-.755-.408c-.543-3.444-2.703-17.728-1.905-22.063zM87.995 16.962c-.787-.272 11.914-10.687 17.222-12.023a.542.542 0 0 1 .581.206c1.683 2.369 13.162 18.488 14.416 19.493.782.625 1.259 1.217 1.525 1.614a.536.536 0 0 1-.152.75l-16.543 10.98a.539.539 0 0 1-.744-.142c-2.046-2.966-13.917-20.058-16.305-20.884v.006zM67.88 40.22a.535.535 0 0 1 .478-.554c2.127-.26 10.632-1.293 12.603-1.592 1.77-.266 5.07-.934 6.41-1.212a.545.545 0 0 1 .651.484l2.095 22.509a.537.537 0 0 1-.493.592c-2.595.2-13.754 1.228-18.835 4.487a.539.539 0 0 1-.836-.396c-.39-4.042-1.932-20.097-2.068-24.318h-.005z" fill="#fff" stroke="#000" stroke-miterlimit="10"/>
        <path d="M51.271.695a.535.535 0 0 1 .716-.385c2.6.978 12.463 4.634 15.893 5.183 3.604.576 9.276 2.27 10.796 3.325a.533.533 0 0 1 .179.64l-9.803 24.21a.544.544 0 0 1-.662.315c-3.42-1.06-24.235-7.584-26.276-10.42a.506.506 0 0 1-.032-.511c.977-2.168 8.331-18.543 9.2-22.351L51.27.695z" fill="#FFB6BF" stroke="#222" stroke-miterlimit="10"/>
        <path d="M.272 25.09c-.158-.202 18.362-2.168 22.2-3.01a.54.54 0 0 1 .645.429c.505 2.798 2.752 14.946 3.87 16.94 1.118 1.993 2.443 9.04 2.795 10.99a.542.542 0 0 1-.396.625c-2.79.717-16.837 4.243-22.612 4.205a.532.532 0 0 1-.532-.445c-.624-3.613-4.966-28.48-5.97-29.735z" fill="#fff" stroke="#000" stroke-miterlimit="10"/>
        <path d="M133.208 92.659s0-38.753 1.173-44.534c0 0-.092-1.988 2.166-1.624 0 0 1.986.364 1.715 4.878 0 0 .407 3.206 2.165 4.966 1.759 1.76 3.881 4.379 3.024 6.64" fill="#fff"/>
        <path d="M133.208 92.659s0-38.753 1.173-44.534c0 0-.092-1.988 2.166-1.624 0 0 1.986.364 1.715 4.878 0 0 .407 3.206 2.165 4.966 1.759 1.76 3.881 4.379 3.024 6.64" stroke="#000" stroke-linecap="round" stroke-linejoin="round"/>
        <path d="M149.991 89.59s.076-23.879 4.152-36.222M149.275 53.553s-.874 3.727-.815 4.96M144.46 53.846s-.353 2.407-.239 3.249M136.938 39.302s8.543.543 13.835-.63M141.421 45.175s8.391-1.293 9.716-.57M105.5 16.326s3.701 5.509 4.874 6.145M97.922 16.326s7.491 11.023 8.305 11.654M100.805 32.847s-4.956 2.358-1.482 8.182c0 0 4.83 7.004 4.407 15.794 0 0-2.828 32.641-3.126 33.603" stroke="#000" stroke-miterlimit="10" stroke-linecap="round"/>
        <path d="M120.811 92.659s-4.152-26.556-.722-38.813c0 0 3.127-9.97 1.021-18.401 0 0-.907-3.825-3.702-5.678 0 0-1.634-.858-2.03.375 0 0-1.487-2.032-3.023-2.168 0 0-2.301-.429-2.481 2.032 0 0-2.708-1.537-4.581-.494 0 0-2.773 1.266-1.78 3.14 0 0 .543.972 3.045.386 0 0 1.976-.74 3.018 1.934 0 0 .819 3.488-2.882 5.498 0 0-2.052.924-3.496-.788 0 0-2.317-2.504-.423-4.031" fill="#fff"/>
        <path d="M120.811 92.659s-4.152-26.556-.722-38.813c0 0 3.127-9.97 1.021-18.401 0 0-.907-3.825-3.702-5.678 0 0-1.634-.858-2.03.375 0 0-1.487-2.032-3.023-2.168 0 0-2.301-.429-2.481 2.032 0 0-2.708-1.537-4.581-.494 0 0-2.773 1.266-1.78 3.14 0 0 .543.972 3.045.386 0 0 1.976-.74 3.018 1.934 0 0 .819 3.488-2.882 5.498 0 0-2.052.924-3.496-.788 0 0-2.317-2.504-.423-4.031" stroke="#000" stroke-linecap="round" stroke-linejoin="round"/>
        <path d="M109.88 30.012s5.281 2.124 2.692 11.153M115.384 30.147s3.685 3.374 1.579 11.746" stroke="#000" stroke-miterlimit="10" stroke-linecap="round"/>
        <path d="M87.273 95.728s.543-15.625 1.623-20.145.744-19.993-.939-21.737c0 0-.597-1.054-1.71-.57 0 0-.96.151-.814 3.433 0 0-.781-4.428-2.795-5.542 0 0-1.351-.603-1.867.392 0 0-.299 1.385 0 3.46 0 0-.96-2.591-2.318-3.189 0 0-1.112-.483-1.655.332 0 0-.364-.3 0 1.744 0 0 1.216 6.867-.163 10.387 0 0-1.764 2.896-2.546-.934" fill="#fff"/>
        <path d="M87.273 95.728s.543-15.625 1.623-20.145.744-19.993-.939-21.737c0 0-.597-1.054-1.71-.57 0 0-.96.151-.814 3.433 0 0-.781-4.428-2.795-5.542 0 0-1.351-.603-1.867.392 0 0-.299 1.385 0 3.46 0 0-.96-2.591-2.318-3.189 0 0-1.112-.483-1.655.332 0 0-.364-.3 0 1.744 0 0 1.216 6.867-.163 10.387 0 0-1.764 2.896-2.546-.934M70.778 64.94s2.866 3.466-.428 27.719" stroke="#000" stroke-linecap="round" stroke-linejoin="round"/>
        <path d="M85.439 56.709s.542 5.237.27 8.04M80.776 55.02s1.384 4.063.332 10.36M74.095 47.853s7.398-.994 9.564-1.896M55.233 7.112l6.226 2.26M54.153 11.54s12.202 3.07 13.727 5.237M63.896 32.847S46.657 59.865 52.975 93.832" stroke="#000" stroke-linecap="round" stroke-linejoin="round"/>
        <path d="M60.764 31.522s-1.466 2.825-3.545 2.238c0 0-1.166-.95.522-4.65 0 0 2.138-5.645 3.989-6.954 0 0 1.02-1.011 0-2.065 0 0-1.145-1.478-4.483 2.14 0 0 .9-2.167 1.503-2.678 0 0 .51-1.326-.662-1.809 0 0-2.377-1.146-5.232 4.004 0 0 .363-2.407.51-2.83 0 0 .092-.875-.874-1.114 0 0-1.086-.451-2.046.994 0 0-14.438 15.69-17.239 69.346" fill="#fff"/>
        <path d="M60.764 31.522s-1.466 2.825-3.545 2.238c0 0-1.166-.95.522-4.65 0 0 2.138-5.645 3.989-6.954 0 0 1.02-1.011 0-2.065 0 0-1.145-1.478-4.483 2.14 0 0 .9-2.167 1.503-2.678 0 0 .51-1.326-.662-1.809 0 0-2.377-1.146-5.232 4.004 0 0 .363-2.407.51-2.83 0 0 .092-.875-.874-1.114 0 0-1.086-.451-2.046.994 0 0-14.438 15.69-17.239 69.346" stroke="#000" stroke-linecap="round" stroke-linejoin="round"/>
        <path d="M57.247 22.232s-3.458 4.308-4.06 9.274M52.856 21.748s-2.318 3.917-3.583 8.883M18.112 30.088S21.12 41.11 21.06 44.724M11.556 31.506s2.285 8.519 2.106 10.029M9.927 88.443S6.752 62.24 8.125 55.226" stroke="#000" stroke-linecap="round" stroke-linejoin="round"/>
        <path d="M17.211 61.283s.603-4.395 3.854-6.682c0 0 2.226-2.168 2.285-5.601 0 0 .543-4.097 3.37-3.043 0 0 1.684-.152 0 10.209 0 0-1.812 7.106.75 34.988" fill="#fff"/>
        <path d="M17.211 61.283s.603-4.395 3.854-6.682c0 0 2.226-2.168 2.285-5.601 0 0 .543-4.097 3.37-3.043 0 0 1.684-.152 0 10.209 0 0-1.812 7.106.75 34.988M12.864 54.65s-.19.674 0 2.059M17.212 53.862s-.24 1.092 0 1.82" stroke="#000" stroke-linecap="round" stroke-linejoin="round"/>
    </g>
    <defs>
        <clipPath id="7nin4d93aa">
            <path fill="#fff" d="M0 0h160v96H0z"/>
        </clipPath>
    </defs>
</svg>
