<svg width="260" height="280" viewBox="0 0 260 280" fill="none" xmlns="http://www.w3.org/2000/svg">
<g clip-path="url(#clip0_2507_58325)">
<path d="M111.681 86.9531L158.012 87.4724L148.417 99.7536L121.975 100.831L111.681 86.9531Z" fill="#2B4B81"/>
<path d="M202 280H63L82.2371 230H181.944L202 280Z" fill="#0175DA"/>
<path d="M114.156 100.094C114.156 108.584 118.845 115.958 125.674 119.606C123.388 120.294 120.956 120.658 118.437 120.658C104.022 120.658 92.2427 108.584 92.2427 93.7194C92.2427 78.8547 104.022 67.0149 118.437 67.2616C127.203 67.4174 134.92 72.0131 139.565 78.9196C138.225 78.621 136.827 78.4523 135.4 78.4393C123.708 78.2705 114.156 87.9683 114.156 100.094Z" fill="#111111"/>
<path d="M203.252 116.738C155.494 92.1493 113.559 92.7854 58.0396 115.959L82.5054 230.488H182.505L203.252 116.738Z" fill="#D2F4FF"/>
<path d="M148.242 7.55581C148.242 7.55581 142.535 -0.0387974 129.94 0.000149284C110.647 0.0520782 97.3969 20.6029 96.6252 38.6742C95.8389 56.7455 99.3625 58.8097 99.3625 58.8097L129.911 26.7825L169.894 51.6694C176.053 34.1694 164.652 6.01092 148.242 7.55581Z" fill="#111111"/>
<path d="M152.005 25C151.153 21.7689 147.931 16.8885 142.959 15.4481C135.646 13.3329 131.411 19.3929 131.411 19.3929L131.57 19.4578C116.727 20.3921 105.005 32.9663 105.005 48.7457V55.0263C105.005 71.753 118.331 88.83 134.432 88.9987C150.373 89.1674 163.005 72.6873 163.005 56.2591V50.0953C163.005 40.0515 159.333 30.6188 152.005 25Z" fill="#FBCBB5"/>
<path d="M145.432 48.617C145.753 47.0072 147.296 46.0075 148.854 46.384C150.412 46.7605 151.417 48.3573 151.097 49.9671C150.776 51.5769 149.247 52.5765 147.675 52.213C146.102 51.8366 145.098 50.2397 145.418 48.6299L145.432 48.617Z" fill="#111111"/>
<path d="M118.481 47.9703C118.815 46.3475 120.373 45.3349 121.96 45.7114C123.548 46.0879 124.567 47.7107 124.247 49.3205C123.912 50.9432 122.368 51.9559 120.767 51.5794C119.179 51.2029 118.146 49.5931 118.481 47.9703Z" fill="#111111"/>
<path d="M135.473 50.5664C135.473 50.5664 132.08 55.214 132.677 56.5123C133.26 57.8105 136.201 59.5501 136.594 59.4463" stroke="#E49F7F" stroke-width="1.76" stroke-linecap="round" stroke-linejoin="round"/>
<path d="M145.039 41.1933C145.039 41.1933 149.072 39.921 152.159 42.0761" stroke="#111111" stroke-width="1.76" stroke-linecap="round" stroke-linejoin="round"/>
<path d="M124.727 40.6506C124.727 40.6506 120.621 39.1446 117.491 41.1569" stroke="#111111" stroke-width="1.76" stroke-linecap="round" stroke-linejoin="round"/>
<path d="M156.005 111.888L134.013 127L112.005 111.746C116.215 97.241 117.187 81.573 115.715 65L152.384 65.6464C151.692 81.1334 153.017 96.5559 156.005 111.888Z" fill="#FBCBB5"/>
<path d="M174.005 53.697C174.005 58.9299 169.775 63.0901 164.535 62.9985C159.296 62.9069 155.005 58.5636 155.005 53.3045C155.005 48.0454 159.281 43.8722 164.535 44.003C169.79 44.1338 174.005 48.4641 174.005 53.697Z" fill="#FBCBB5"/>
<path d="M115.005 52.6998C115.005 57.9271 110.778 62.0885 105.534 61.9986C100.276 61.9087 96.0054 57.5675 96.0054 52.3017C96.0054 47.0358 100.276 42.8745 105.534 43.0029C110.793 43.1313 115.005 47.4725 115.005 52.6998Z" fill="#FBCBB5"/>
<path d="M144.981 14.7712C144.981 14.7712 143.962 37.8017 126.125 35.3221C126.125 35.3221 140.118 25.3258 137.278 14.0312L144.981 14.7583V14.7712Z" fill="#111111"/>
<path d="M134.005 16.8791C130.742 18.8811 116.005 42.9994 106.005 42.9994C94.0054 43 117.875 6.4659 134.005 16.8791Z" fill="#111111"/>
<path d="M152.005 25C154.005 30.4998 154.564 45.7537 164.005 44C173.377 42.2717 157.505 25.0002 152.005 25Z" fill="#111111"/>
<path d="M144.001 65H126.005C126.005 65 125.997 73 135.853 73C135.853 73 144.005 72.6004 144.005 65H144.001Z" fill="#E49F7F"/>
<path d="M111.681 86.9531L133.056 115.865L125.572 144.036L99.0132 103.09L111.681 86.9531Z" fill="#D2F4FF"/>
<path d="M158.012 87.7461L135.545 115.866L142.986 143.933L170.214 103.805L158.012 87.7461Z" fill="#D2F4FF"/>
<path d="M203.252 116.734L253.909 184.32C257.316 188.864 256.486 194.952 251.943 198.626L224.263 221.047L189.085 177.803L203.252 116.734Z" fill="#D2F4FF"/>
<path d="M248.478 191.551C236.261 178.309 213.197 179.205 202.335 193.356L177.116 226.188C172.923 231.601 173.098 239.235 177.524 244.129L193.832 262.239L210.518 252.827L204.607 237.171L254.127 197.679L248.478 191.564V191.551Z" fill="#FBCBB5"/>
<path d="M200.209 255.582L205.276 267.941C206.499 270.927 204.563 274.445 201.418 274.913C199.19 275.237 197.122 273.874 196.496 271.654L193.817 262.255L200.209 255.595V255.582Z" fill="#FBCBB5"/>
<path d="M204.461 251.052L212.935 267.877C214.158 270.863 212.222 274.368 209.091 274.823C206.878 275.147 204.825 273.784 204.199 271.564L198.098 257.686L204.476 251.039L204.461 251.052Z" fill="#FBCBB5"/>
<path d="M204.737 237.286L217.594 265.782C218.803 268.755 216.881 272.261 213.765 272.715C211.552 273.039 209.513 271.676 208.887 269.469L202.801 255.604L204.737 237.273V237.286Z" fill="#FBCBB5"/>
<path d="M174.321 233.914C172.588 241.093 176.082 253.53 178.165 259.943C178.936 262.319 181.266 263.695 183.654 263.189C186.129 262.67 187.92 260.32 187.833 257.723L187.6 250.765L174.306 233.927L174.321 233.914Z" fill="#FBCBB5"/>
<path d="M58.025 115.957L9.24707 189.073L49.8857 217.128L73.0054 186L58.025 115.957Z" fill="#D2F4FF"/>
<path d="M115.059 128.769C115.059 128.769 98.4454 121.148 96.4798 120.863C94.5141 120.577 91.5728 121.719 91.5728 121.719C91.5728 121.719 91.3836 111.918 88.85 105.621C86.3165 99.3121 76.8667 100.208 76.8667 100.208C76.8667 100.208 77.4345 110.529 76.8667 119.993C76.2988 129.457 51.9535 149.735 51.9535 149.735C50.8032 183.281 63.1651 189.967 63.1651 189.967L77.1433 172.766C85.2681 173.778 95.8245 170.273 97.6883 167.417L98.3581 167.741C98.9842 168.131 99.7122 168.468 100.484 168.741L105.536 171.13C108.186 172.389 111.361 171.195 112.627 168.481C113.574 166.469 113.195 164.171 111.856 162.613C113.326 162.068 114.593 160.952 115.321 159.394C116.661 156.525 115.685 153.175 113.166 151.514C114.812 151.033 116.253 149.865 117.054 148.177C118.423 145.256 117.374 141.803 114.724 140.18C116.078 139.609 117.229 138.557 117.913 137.103C119.369 134.001 118.088 130.275 115.045 128.795L115.059 128.769Z" fill="#FBCBB5"/>
<path d="M76.5318 172.713L51.8953 149.734L16.979 181.138L45.5054 220.498C46.146 219.537 47.0029 219.683 47.5417 218.644L76.5172 172.713H76.5318Z" fill="#FBCBB5"/>
<path d="M16.1782 179.931C10.0046 185.488 5.84024 192.913 4.38418 201.027H4.36962C1.80695 215.295 12.9021 227.965 27.3608 227.407C37.7716 227.005 47.3088 221.552 53.0456 213.01L24.405 172.531L16.1782 179.931Z" fill="#D2F4FF"/>
</g>
<defs>
<clipPath id="clip0_2507_58325">
<rect width="260" height="280" fill="white"/>
</clipPath>
</defs>
</svg>
