<svg width="136" height="82" viewBox="0 0 136 82" fill="none" xmlns="http://www.w3.org/2000/svg">
    <g clip-path="url(#m0oxny27ma)">
        <path d="M109.564 28.693a.459.459 0 0 1 .443-.376c2.27-.046 14.616-.31 17.029-.403 2.094-.08 4.885-.483 5.979-.645a.461.461 0 0 1 .526.399l2.224 17.319a.462.462 0 0 1-.453.524c-3.077.018-18.906.232-23.487 2.376a.455.455 0 0 1-.642-.348c-.461-2.942-2.297-15.142-1.619-18.846zM74.796 14.488c-.67-.232 10.127-9.128 14.639-10.27a.46.46 0 0 1 .493.177c1.43 2.023 11.188 15.792 12.254 16.65.665.534 1.071 1.04 1.297 1.378a.46.46 0 0 1-.13.64l-14.062 9.38a.456.456 0 0 1-.632-.121c-1.74-2.534-11.83-17.133-13.86-17.839v.005zM57.698 34.355a.457.457 0 0 1 .406-.474c1.808-.222 9.038-1.104 10.713-1.36 1.504-.227 4.309-.798 5.448-1.034a.464.464 0 0 1 .554.413l1.78 19.226a.458.458 0 0 1-.419.506c-2.205.171-11.69 1.049-16.01 3.833a.458.458 0 0 1-.71-.339c-.332-3.453-1.642-17.166-1.758-20.771h-.004z" fill="#fff" stroke="#000" stroke-miterlimit="10"/>
        <path d="M43.58.594a.454.454 0 0 1 .61-.33c2.21.836 10.592 3.96 13.508 4.428 3.063.492 7.884 1.94 9.176 2.84.176.12.231.353.153.547l-8.333 20.68a.462.462 0 0 1-.563.268c-2.906-.905-20.6-6.478-22.334-8.9a.434.434 0 0 1-.028-.437C36.6 17.84 42.851 3.852 43.59.6L43.58.594z" fill="#FDC728" stroke="#222" stroke-miterlimit="10"/>
        <path d="M.23 21.43C.098 21.26 15.84 19.58 19.1 18.86a.459.459 0 0 1 .55.366c.428 2.39 2.338 12.766 3.289 14.47.95 1.703 2.076 7.721 2.376 9.388a.463.463 0 0 1-.337.533c-2.371.613-14.311 3.625-19.22 3.592a.453.453 0 0 1-.452-.38C4.776 43.741 1.084 22.501.23 21.43z" fill="#fff" stroke="#000" stroke-miterlimit="10"/>
        <path d="M113.227 79.146s0-33.102.997-38.04c0 0-.079-1.698 1.841-1.387 0 0 1.688.311 1.458 4.167 0 0 .346 2.738 1.84 4.242 1.495 1.504 3.299 3.74 2.57 5.67" fill="#fff"/>
        <path d="M113.227 79.146s0-33.102.997-38.04c0 0-.079-1.698 1.841-1.387 0 0 1.688.311 1.458 4.167 0 0 .346 2.738 1.84 4.242 1.495 1.504 3.299 3.74 2.57 5.67" stroke="#000" stroke-linecap="round" stroke-linejoin="round"/>
        <path d="M127.492 76.524s.065-20.395 3.53-30.939M126.883 45.743s-.742 3.183-.692 4.237M122.791 45.993s-.3 2.056-.203 2.775M116.397 33.57s7.262.465 11.76-.538M120.208 38.587s7.132-1.105 8.258-.487M89.675 13.945s3.146 4.706 4.143 5.249M83.234 13.945s6.367 9.416 7.059 9.954M85.684 28.057s-4.212 2.014-1.26 6.989c0 0 4.107 5.982 3.747 13.49 0 0-2.404 27.881-2.658 28.703" stroke="#000" stroke-miterlimit="10" stroke-linecap="round"/>
        <path d="M102.69 79.146s-3.53-22.683-.614-33.153c0 0 2.658-8.515.868-15.718 0 0-.771-3.266-3.147-4.849 0 0-1.389-.733-1.725.32 0 0-1.265-1.735-2.57-1.851 0 0-1.956-.367-2.109 1.735 0 0-2.302-1.313-3.894-.422 0 0-2.357 1.081-1.513 2.682 0 0 .462.83 2.588.33 0 0 1.68-.631 2.566 1.652 0 0 .696 2.98-2.45 4.696 0 0-1.744.789-2.971-.673 0 0-1.97-2.14-.36-3.443" fill="#fff"/>
        <path d="M102.69 79.146s-3.53-22.683-.614-33.153c0 0 2.658-8.515.868-15.718 0 0-.771-3.266-3.147-4.849 0 0-1.389-.733-1.725.32 0 0-1.265-1.735-2.57-1.851 0 0-1.956-.367-2.109 1.735 0 0-2.302-1.313-3.894-.422 0 0-2.357 1.081-1.513 2.682 0 0 .462.83 2.588.33 0 0 1.68-.631 2.566 1.652 0 0 .696 2.98-2.45 4.696 0 0-1.744.789-2.971-.673 0 0-1.97-2.14-.36-3.443" stroke="#000" stroke-linecap="round" stroke-linejoin="round"/>
        <path d="M93.398 25.635s4.489 1.814 2.288 9.527M98.076 25.751s3.133 2.882 1.343 10.033" stroke="#000" stroke-miterlimit="10" stroke-linecap="round"/>
        <path d="M74.182 81.768s.462-13.346 1.38-17.207c.918-3.861.632-17.078-.798-18.568 0 0-.508-.9-1.454-.487 0 0-.816.13-.692 2.933 0 0-.664-3.782-2.376-4.733 0 0-1.148-.516-1.587.334 0 0-.254 1.183 0 2.956 0 0-.816-2.214-1.97-2.724 0 0-.946-.413-1.407.283 0 0-.31-.255 0 1.49 0 0 1.033 5.865-.138 8.872 0 0-1.5 2.474-2.164-.798" fill="#fff"/>
        <path d="M74.182 81.768s.462-13.346 1.38-17.207c.918-3.861.632-17.078-.798-18.568 0 0-.508-.9-1.454-.487 0 0-.816.13-.692 2.933 0 0-.664-3.782-2.376-4.733 0 0-1.148-.516-1.587.334 0 0-.254 1.183 0 2.956 0 0-.816-2.214-1.97-2.724 0 0-.946-.413-1.407.283 0 0-.31-.255 0 1.49 0 0 1.033 5.865-.138 8.872 0 0-1.5 2.474-2.164-.798M60.162 55.47s2.436 2.96-.365 23.676" stroke="#000" stroke-linecap="round" stroke-linejoin="round"/>
        <path d="M72.623 48.439s.461 4.474.23 6.868M68.66 46.996s1.176 3.47.281 8.85M62.98 40.874s6.289-.849 8.13-1.62M46.948 6.075l5.292 1.93M46.03 9.857s10.371 2.622 11.668 4.474M54.311 28.057S39.66 51.135 45.03 80.148" stroke="#000" stroke-linecap="round" stroke-linejoin="round"/>
        <path d="M51.65 26.925s-1.246 2.413-3.013 1.912c0 0-.992-.812.443-3.972 0 0 1.817-4.822 3.39-5.94 0 0 .868-.864 0-1.764 0 0-.973-1.262-3.81 1.828 0 0 .766-1.851 1.278-2.287 0 0 .433-1.133-.563-1.546 0 0-2.02-.979-4.448 3.42 0 0 .31-2.055.434-2.417 0 0 .079-.747-.743-.952 0 0-.922-.385-1.74.85 0 0-12.271 13.402-14.652 59.233" fill="#fff"/>
        <path d="M51.65 26.925s-1.246 2.413-3.013 1.912c0 0-.992-.812.443-3.972 0 0 1.817-4.822 3.39-5.94 0 0 .868-.864 0-1.764 0 0-.973-1.262-3.81 1.828 0 0 .766-1.851 1.278-2.287 0 0 .433-1.133-.563-1.546 0 0-2.02-.979-4.448 3.42 0 0 .31-2.055.434-2.417 0 0 .079-.747-.743-.952 0 0-.922-.385-1.74.85 0 0-12.271 13.402-14.652 59.233" stroke="#000" stroke-linecap="round" stroke-linejoin="round"/>
        <path d="M48.66 18.99s-2.94 3.68-3.451 7.92M44.927 18.577s-1.97 3.346-3.045 7.587M15.396 25.7s2.555 9.416 2.505 12.502M9.822 26.911s1.943 7.277 1.79 8.567M8.438 75.545S5.74 53.163 6.907 47.172" stroke="#000" stroke-linecap="round" stroke-linejoin="round"/>
        <path d="M14.63 52.346s.512-3.754 3.275-5.708c0 0 1.892-1.851 1.943-4.784 0 0 .461-3.5 2.865-2.599 0 0 1.43-.13 0 8.72 0 0-1.541 6.07.636 29.885" fill="#fff"/>
        <path d="M14.63 52.346s.512-3.754 3.275-5.708c0 0 1.892-1.851 1.943-4.784 0 0 .461-3.5 2.865-2.599 0 0 1.43-.13 0 8.72 0 0-1.541 6.07.636 29.885M10.934 46.68s-.161.576 0 1.759M14.63 46.007s-.203.933 0 1.555" stroke="#000" stroke-linecap="round" stroke-linejoin="round"/>
    </g>
    <defs>
        <clipPath id="m0oxny27ma">
            <path fill="#fff" d="M0 0h136v82H0z"/>
        </clipPath>
    </defs>
</svg>
