<svg width="184" height="128" viewBox="0 0 184 128" fill="none" xmlns="http://www.w3.org/2000/svg">
    <g clip-path="url(#0z2dghsjsa)">
        <path d="M37.315 114.094s21.12-1.733 24.406-13.152c0 0 2.288-17.4 1.144-25.39 0 0-6.994-.57-5.998-7.556 0 0 1.357-6.848 6.32-7.705l3.184-10.34 29.897-10.258 20.235 13.253 6.662 8.562s5.841 2.783 3.838 9.059c0 0-.858 5.704-6.145 5.28 0 0-4.281 27.39 18.279 41.933" fill="#fff"/>
        <path d="M37.315 114.094s21.12-1.733 24.406-13.152c0 0 2.288-17.4 1.144-25.39 0 0-6.994-.57-5.998-7.556 0 0 1.357-6.848 6.32-7.705l3.184-10.34 29.897-10.258 20.235 13.253 6.662 8.562s5.841 2.783 3.838 9.059c0 0-.858 5.704-6.145 5.28 0 0-4.281 27.39 18.279 41.933" stroke="#222" stroke-miterlimit="10" stroke-linecap="round"/>
        <path d="m113.273 55.7 7.677-2.93v-7.023c-4.945-19.123-21.748-19.436-21.748-19.436l-.748-1.613c6.063-.81 7.89-6.838 7.89-6.838C111.834 3.216 95.114.617 95.114.617c-17.55-3.548-20.9 9.29-20.9 9.29-3.986 12.11 7.816 15.455 7.816 15.455v2.073C64.323 29.03 63.05 49.941 63.05 49.941l8.009 2.838 3.1 6.451c11.11-3.695 16.563-11.879 16.563-11.879s10.897 10.432 22.551 8.359" fill="#222"/>
        <path d="M62.856 75.561s2.464.221 4.069-1.493l-4.07 1.493z" fill="#fff"/>
        <path d="M62.856 75.561s2.464.221 4.069-1.493" stroke="#222" stroke-miterlimit="10" stroke-linecap="round"/>
        <path d="M120.84 75.847s-2.233.019-3.654-1.511l3.654 1.511z" fill="#fff"/>
        <path d="M120.84 75.847s-2.233.019-3.654-1.511" stroke="#222" stroke-miterlimit="10" stroke-linecap="round"/>
        <path d="M121.882 67.332s.609 1.604-1.033 3.106l1.033-3.106z" fill="#fff"/>
        <path d="M121.882 67.332s.609 1.604-1.033 3.106" stroke="#222" stroke-miterlimit="10" stroke-linecap="round"/>
        <path d="M62.007 67.332s-.96 1.604.858 2.571l-.858-2.571z" fill="#fff"/>
        <path d="M62.007 67.332s-.96 1.604.858 2.571" stroke="#222" stroke-miterlimit="10" stroke-linecap="round"/>
        <path d="M59.165 106.112s33.458 18.957 69.352 1.641l-69.352-1.641z" fill="#fff"/>
        <path d="M59.165 106.112s33.458 18.957 69.352 1.641M88.932 83.247s-.185 5.3 3.073 5.3c0 0 3.635 0 2.98-5.3" stroke="#222" stroke-miterlimit="10" stroke-linecap="round"/>
        <path d="M79.77 70.004a1.955 1.955 0 1 0 0-3.907 1.955 1.955 0 1 0 0 3.907zM105.052 70.004a1.955 1.955 0 1 0-1.956-1.954c0 1.08.876 1.954 1.956 1.954z" fill="#222"/>
        <path d="M33.818 127.539c3.525-6.027 2.519-27.924 2.519-27.924-.877-37.564 26.916-54.521 26.916-54.521 9.18-5.023 11.57 1.594 11.57 1.594 7.715-1.088 5.952 5.944 5.952 5.944 8.969 1.088 8.305 9.216 8.305 9.216-.674 4.608-4.19 1.926-4.19 1.926-.655-3.336-4.53-4.1-4.53-4.1-5.37-1.337-7.465 5.612-7.465 5.612-2.344 10.045 7.299 9.133 7.299 9.133 4.189-.166 4.78-5.779 4.78-5.779.922-4.018 3.349-1.926 3.349-1.926 2.934 2.682.415 10.138.415 10.138-2.519 7.87-15.677 5.778-15.677 5.778-11.239-1.336-12.41 5.189-12.41 5.189-4.024 9.88 2.205 32.974 2.205 32.974" fill="#fff"/>
        <path d="M33.818 127.539c3.525-6.027 2.519-27.924 2.519-27.924-.877-37.564 26.916-54.521 26.916-54.521 9.18-5.023 11.57 1.594 11.57 1.594 7.715-1.088 5.952 5.944 5.952 5.944 8.969 1.088 8.305 9.216 8.305 9.216-.674 4.608-4.19 1.926-4.19 1.926-.655-3.336-4.53-4.1-4.53-4.1-5.37-1.337-7.465 5.612-7.465 5.612-2.344 10.045 7.299 9.133 7.299 9.133 4.189-.166 4.78-5.779 4.78-5.779.922-4.018 3.349-1.926 3.349-1.926 2.934 2.682.415 10.138.415 10.138-2.519 7.87-15.677 5.778-15.677 5.778-11.239-1.336-12.41 5.189-12.41 5.189-4.024 9.88 2.205 32.974 2.205 32.974" stroke="#222" stroke-miterlimit="10" stroke-linecap="round"/>
        <path d="M36.337 99.606s18.316 3.142 22.745 0" stroke="#222" stroke-miterlimit="10" stroke-linecap="round"/>
        <path d="M80.775 52.623s-8.969-1.88-13.25 8.921M74.823 46.679s-11.192 3.806-16.6 15.62" stroke="#222" stroke-linecap="round" stroke-linejoin="round"/>
        <path d="M149.739 127.539c-3.524-6.027-2.519-27.924-2.519-27.924.877-37.564-26.915-54.521-26.915-54.521-9.182-5.023-11.571 1.594-11.571 1.594-7.714-1.088-5.952 5.944-5.952 5.944-8.969 1.088-8.304 9.216-8.304 9.216.673 4.608 4.189 1.926 4.189 1.926.655-3.336 4.53-4.1 4.53-4.1 5.371-1.337 7.465 5.612 7.465 5.612 2.344 10.045-7.299 9.133-7.299 9.133-4.189-.166-4.78-5.779-4.78-5.779-.922-4.018-3.349-1.926-3.349-1.926-2.934 2.682-.415 10.138-.415 10.138 2.519 7.87 15.677 5.778 15.677 5.778 11.239-1.336 12.411 5.189 12.411 5.189 4.023 9.88-2.067 34.569-2.067 34.569" fill="#fff"/>
        <path d="M149.739 127.539c-3.524-6.027-2.519-27.924-2.519-27.924.877-37.564-26.915-54.521-26.915-54.521-9.182-5.023-11.571 1.594-11.571 1.594-7.714-1.088-5.952 5.944-5.952 5.944-8.969 1.088-8.304 9.216-8.304 9.216.673 4.608 4.189 1.926 4.189 1.926.655-3.336 4.53-4.1 4.53-4.1 5.371-1.337 7.465 5.612 7.465 5.612 2.344 10.045-7.299 9.133-7.299 9.133-4.189-.166-4.78-5.779-4.78-5.779-.922-4.018-3.349-1.926-3.349-1.926-2.934 2.682-.415 10.138-.415 10.138 2.519 7.87 15.677 5.778 15.677 5.778 11.239-1.336 12.411 5.189 12.411 5.189 4.023 9.88-2.067 34.569-2.067 34.569" stroke="#222" stroke-miterlimit="10" stroke-linecap="round"/>
        <path d="M147.229 99.606s-18.316 3.142-22.745 0" stroke="#222" stroke-miterlimit="10" stroke-linecap="round"/>
        <path d="M102.782 52.623s8.969-1.88 13.25 8.921M108.743 46.679s11.192 3.806 16.6 15.62M137.633 48.438s2.851-11.593 7.216-13.916M144.166 54.493s8.72-5.382 14.754-6.055M147.229 64.687s9.855-2.341 12.54 0" stroke="#222" stroke-linecap="round" stroke-linejoin="round"/>
        <path d="M152.886 28.422a3.44 3.44 0 0 0 3.442-3.438 3.44 3.44 0 0 0-3.442-3.437 3.44 3.44 0 0 0-3.442 3.437 3.44 3.44 0 0 0 3.442 3.438z" fill="#FF8F28"/>
        <path d="M180.558 55.94A3.44 3.44 0 0 0 184 52.504a3.44 3.44 0 0 0-3.442-3.438 3.44 3.44 0 0 0-3.442 3.438 3.44 3.44 0 0 0 3.442 3.438z" fill="#F8485E"/>
        <path d="M170.169 76.197a3.44 3.44 0 0 0 3.442-3.437 3.44 3.44 0 0 0-3.442-3.438 3.44 3.44 0 0 0-3.442 3.438 3.44 3.44 0 0 0 3.442 3.437z" fill="#F1BE28"/>
        <path d="M46.367 48.291s-2.851-11.594-7.216-13.916M39.834 54.346s-8.72-5.382-14.754-6.055M36.77 64.54s-9.854-2.341-12.54 0" stroke="#222" stroke-linecap="round" stroke-linejoin="round"/>
        <path d="M31.105 28.283a3.44 3.44 0 0 0 3.442-3.437 3.44 3.44 0 0 0-3.442-3.438 3.44 3.44 0 0 0-3.442 3.438 3.44 3.44 0 0 0 3.442 3.437z" fill="#F8485E"/>
        <path d="M3.442 55.793a3.44 3.44 0 0 0 3.442-3.438 3.44 3.44 0 0 0-3.442-3.437A3.44 3.44 0 0 0 0 52.356a3.44 3.44 0 0 0 3.442 3.437z" fill="#F1BE28"/>
        <path d="M13.831 76.05a3.44 3.44 0 0 0 3.442-3.438 3.44 3.44 0 0 0-3.442-3.437 3.44 3.44 0 0 0-3.441 3.437 3.44 3.44 0 0 0 3.441 3.438z" fill="#FF8F28"/>
    </g>
    <defs>
        <clipPath id="0z2dghsjsa">
            <path fill="#fff" d="M0 0h184v128H0z"/>
        </clipPath>
    </defs>
</svg>
