<svg width="71" height="64" viewBox="0 0 71 64" fill="none" xmlns="http://www.w3.org/2000/svg">
<g clip-path="url(#clip0_132_4993)">
<path d="M50.8575 61.03V19.2744C50.8575 9.26408 43.2309 0.727075 33.2434 0.0454919C22.2441 -0.711823 13 8.0868 13 18.9302V63.9973H47.884C49.5221 63.9973 50.8575 65.6359 50.8575 63.9973V61.03Z" fill="#5180F8"/>
<path d="M24.2013 28.0689C26.3948 28.0689 28.1729 26.2904 28.1729 24.0965C28.1729 21.9026 26.3948 20.124 24.2013 20.124C22.0079 20.124 20.2297 21.9026 20.2297 24.0965C20.2297 26.2904 22.0079 28.0689 24.2013 28.0689Z" fill="white"/>
<path d="M24.6488 20.1514C23.988 22.7675 24.0155 25.4526 24.6763 28.0412C26.6449 27.8071 28.1799 26.1342 28.1799 24.0963C28.1799 22.0584 26.638 20.3717 24.6557 20.1514H24.6488Z" fill="#111111"/>
<path d="M38.2292 28.0689C40.4226 28.0689 42.2008 26.2904 42.2008 24.0965C42.2008 21.9026 40.4226 20.124 38.2292 20.124C36.0357 20.124 34.2576 21.9026 34.2576 24.0965C34.2576 26.2904 36.0357 28.0689 38.2292 28.0689Z" fill="white"/>
<path d="M38.6766 20.1514C38.0158 22.7675 38.0434 25.4526 38.7042 28.0412C40.6727 27.8071 42.2077 26.1342 42.2077 24.0963C42.2077 22.0584 40.6659 20.3717 38.6835 20.1514H38.6766Z" fill="#111111"/>
<path d="M32.1376 29.9139C32.1376 30.5817 31.6971 31.1256 31.1465 31.1256C30.5958 31.1256 30.1553 30.5817 30.1553 29.9139C30.1553 29.246 30.5958 28.7021 31.1465 28.7021C31.6971 28.7021 32.1376 29.246 32.1376 29.9139Z" fill="#111111"/>
<path d="M69.1621 32.9777C64.1787 26.9536 56.7517 24.0414 49.6207 21.3357C49.2009 24.2204 48.7053 27.2014 48.2854 30.0792C49.8754 30.6782 51.8784 31.5181 53.3583 32.3718C53.9984 32.7436 56.0359 33.6937 56.4764 34.3064C56.9169 34.9192 56.9444 36.3512 55.437 35.9588C55.4301 35.9588 55.4164 35.9656 55.4026 35.9725V44.2204C59.2641 45.1429 63.4903 44.5371 67.049 42.4992C69.0795 41.3357 71.0756 39.3322 70.993 36.902C70.9379 35.3942 70.0775 34.0861 69.1552 32.9708L69.1621 32.9777Z" fill="#5180F8"/>
<path d="M25.1648 39.9725L24.5109 39.9862C25.0272 39.8967 25.4677 39.346 25.3438 38.8158C25.2336 38.3408 24.5591 38.0172 24.0153 38.0447C24.2356 37.8451 24.4008 37.494 24.4352 37.2117C24.4903 36.7573 24.1805 36.3098 23.7606 36.1308C23.3752 35.9725 23.0517 36.0413 22.7213 36.1515C22.9553 36.062 23.1687 35.9518 23.3477 35.7797C23.4991 35.6351 23.6161 35.4355 23.6092 35.2289C23.6023 34.9466 23.3614 34.7057 23.093 34.6162C22.4391 34.389 21.5374 34.6437 20.9041 34.8227C20.4636 34.9466 19.1489 35.2151 18.8805 35.5938C19.4105 34.8571 19.734 33.9759 19.8166 33.074C19.8441 32.7711 19.8304 32.42 19.5963 32.2203C19.1902 31.8761 18.4399 32.1652 18.2197 32.6472C17.6002 33.9966 16.0721 35.821 13.3877 36.7435C12.5892 37.0189 11.4879 37.2805 10.6 36.9776C9.84286 36.716 9.3748 36.1859 9.4987 35.3253C9.6226 34.4647 10.951 33.3563 11.5774 32.8881C11.7495 32.7573 13.8626 31.5181 13.8764 31.6145C13.5322 28.9225 12.7544 25.7281 12.9403 23.7246C8.28037 26.0447 2.98721 30.4785 0.867191 35.3184C0.220172 36.7986 -0.151519 38.4372 0.0618592 40.0344C0.62628 44.2616 4.99022 45.673 8.71402 45.6041C14.3307 45.5009 19.7409 43.6076 25.034 41.7418C25.4883 41.5835 26.0183 41.3356 26.0803 40.8537C26.1422 40.3787 25.6466 39.9793 25.1717 39.9518L25.1648 39.9725Z" fill="#5180F8"/>
<path d="M56.504 36.2204C53.7851 35.9519 51.0181 36.1929 48.3887 36.9295C48.1409 36.9984 47.8931 37.0741 47.7004 37.2393C47.5076 37.4046 47.3906 37.68 47.4801 37.9209C47.5834 38.1825 47.8862 38.2927 48.1684 38.3271C48.4438 38.3615 48.7397 38.3478 48.9875 38.4786C48.4231 38.5818 48.0858 38.8503 47.6384 39.2083C47.487 39.3323 47.3424 39.47 47.2874 39.6627C47.1772 40.0552 47.5627 40.4476 47.9688 40.4958C48.3749 40.5509 48.7673 40.3719 49.139 40.1997C48.5126 40.3512 47.8449 40.8469 47.7417 41.4803C47.6866 41.8245 47.8724 42.1894 48.1822 42.3478C48.4919 42.5061 48.898 42.4373 49.139 42.1894C48.6778 42.2101 48.2786 42.7815 48.4162 43.2221C48.5539 43.6627 48.9944 43.945 49.4418 44.0483C49.8892 44.1447 50.3573 44.0896 50.8116 44.0621C52.4498 43.9519 54.852 44.5922 56.676 44.4682L56.504 36.2273V36.2204Z" fill="#5180F8"/>
<path d="M26.0941 40.186C25.8738 39.9243 25.5228 39.7453 25.1786 39.7316C25.4539 39.4493 25.6604 39.1051 25.5847 38.7608C25.4746 38.2996 24.9859 37.9622 24.4765 37.8452C24.5798 37.6593 24.6555 37.4459 24.6761 37.2462C24.745 36.7023 24.3939 36.1447 23.8502 35.9175C23.7744 35.883 23.6987 35.8624 23.623 35.8417C23.7744 35.649 23.8502 35.4424 23.8433 35.229C23.8295 34.809 23.4922 34.5061 23.1618 34.3959C22.4391 34.1412 21.5168 34.4028 20.8284 34.5956C20.7527 34.6163 20.6564 34.6438 20.5462 34.6713C20.1883 34.7608 19.8373 34.8572 19.5413 34.9605C19.8235 34.3822 19.9956 33.7557 20.0575 33.1085C20.0713 32.9226 20.1264 32.365 19.7547 32.0483C19.5344 31.8555 19.2315 31.7935 18.9011 31.8624C18.5088 31.9519 18.1509 32.2204 17.9995 32.5577C17.6897 33.2324 16.437 35.5044 13.1881 36.5715C13.1675 36.5784 13.1468 36.5922 13.1262 36.6059C12.2589 36.8607 11.1163 37.0052 10.3041 36.5577C8.72093 35.6834 10.4004 33.9416 11.2264 33.2393C11.4673 33.0397 11.1232 32.6954 10.8822 32.8951C9.88418 33.7419 8.38365 35.3873 9.65016 36.6748C10.5587 37.5904 12.2795 37.3908 13.3877 37.0397C13.429 37.0259 13.4566 37.0052 13.4841 36.9846C16.8087 35.8417 18.1165 33.4734 18.44 32.7643C18.5295 32.5646 18.7566 32.3994 19.0044 32.3443C19.1076 32.3237 19.3004 32.303 19.438 32.42C19.5619 32.5233 19.6032 32.7367 19.5757 33.0672C19.4931 33.9278 19.1834 34.7608 18.6809 35.4631C18.6052 35.5732 18.6258 35.7247 18.736 35.8004C18.8461 35.8762 18.9975 35.8555 19.0732 35.7453C19.2453 35.5044 20.2434 35.2496 20.6632 35.1464C20.7803 35.1188 20.8835 35.0913 20.9799 35.0638C21.4135 34.9398 23.2789 34.3615 23.3614 35.2221C23.3683 35.3185 23.327 35.4149 23.272 35.4906C23.0104 35.8693 22.5561 35.945 22.1431 36.0758C21.6613 36.2342 21.1932 36.42 20.6839 36.4889C20.381 36.5302 20.3741 37.019 20.6839 36.9777C21.5581 36.8607 22.3772 36.3374 23.2513 36.2961C23.9121 36.2617 24.3733 36.9915 24.0842 37.5836C23.9052 37.9484 23.5611 37.9897 23.21 38.0861C22.5974 38.2651 21.9848 38.4923 21.4066 38.7746C21.1244 38.9123 21.3722 39.3323 21.6544 39.1946C22.1294 38.9605 22.6249 38.7815 23.1343 38.6231C23.7056 38.4441 24.3113 38.1274 24.862 38.5405C24.9377 38.5956 25.0065 38.6644 25.0478 38.7539C25.2268 39.1464 24.7519 39.5663 24.4628 39.7522C24.1324 39.9657 23.74 40.0483 23.3683 40.1722C22.9691 40.3099 22.563 40.4545 22.1362 40.5095C21.8334 40.5509 21.8265 41.0397 22.1362 40.9984C22.9966 40.8813 23.8433 40.5233 24.683 40.2892C25.0341 40.1928 25.4539 40.186 25.7155 40.5027C25.7774 40.5784 25.8463 40.7023 25.8325 40.8469C25.7843 41.198 25.3094 41.4046 24.9446 41.5354C21.0487 42.9123 17.022 44.3305 12.844 44.9984C12.7132 45.019 12.6237 45.1429 12.6443 45.2806C12.665 45.3977 12.7682 45.4872 12.8852 45.4872C12.899 45.4872 12.9128 45.4872 12.9265 45.4872C17.1459 44.8125 21.3791 43.3185 25.1098 42.0035C25.4126 41.8934 26.2249 41.6111 26.3143 40.9157C26.3487 40.6679 26.2662 40.4063 26.0872 40.1997L26.0941 40.186Z" fill="#111111"/>
<path d="M56.6623 44.2202C55.7468 44.2822 54.673 44.1445 53.6337 44.0137C52.9316 43.9242 52.2295 43.8485 51.5274 43.8209C50.8666 43.8003 50.1508 43.9517 49.4969 43.8072C49.1803 43.7383 48.7673 43.5249 48.6503 43.1462C48.3681 42.2443 50.9492 41.8588 51.4242 41.7349C51.727 41.6523 51.5963 41.1841 51.2934 41.2667C50.4192 41.5008 49.5933 41.728 48.7604 42.0791C47.9138 42.4371 47.8449 41.3838 48.313 40.9294C48.6365 40.6127 49.1803 40.4406 49.607 40.3166C50.1233 40.1652 50.667 40.1858 51.197 40.2065C51.5137 40.2134 51.5137 39.7314 51.197 39.7177C50.3504 39.6901 49.2285 39.7796 48.4644 40.2134C48.1822 40.3786 47.4044 40.1858 47.5283 39.7314C47.666 39.2357 48.5745 38.8089 49.0357 38.7194C49.0426 38.7194 49.0495 38.7125 49.0564 38.7056C49.724 38.6092 50.3986 38.5128 51.08 38.4922C51.3898 38.4853 51.3966 37.9965 51.08 38.0034C50.5913 38.0171 50.1026 38.0722 49.6208 38.1342C49.0908 38.203 48.6571 38.1342 48.1271 38.0516C48.0101 38.0309 47.8931 38.0103 47.7967 37.9345C47.6178 37.7899 47.721 37.5421 47.8656 37.4182C48.017 37.2874 48.2235 37.2254 48.4644 37.1566C51.0869 36.4268 53.7851 36.1858 56.4902 36.4543C56.6279 36.4681 56.7449 36.3717 56.7586 36.234C56.7724 36.1032 56.676 35.9793 56.5384 35.9655C53.7713 35.6901 51.0112 35.9311 48.3336 36.6815C48.0514 36.7641 47.7761 36.8467 47.5558 37.0395C47.2667 37.2874 47.1428 37.6798 47.2667 37.9896C47.3838 38.2925 47.6866 38.4853 48.1203 38.5473C47.9138 38.6781 47.721 38.8295 47.5008 39.0085C47.3356 39.1393 47.1428 39.3252 47.0671 39.5869C47.0052 39.8072 47.0465 40.0412 47.1841 40.2478C47.3356 40.475 47.5834 40.6471 47.8518 40.7091C47.6797 40.9156 47.5558 41.1634 47.5077 41.4251C47.4319 41.8726 47.6728 42.3476 48.079 42.5473C48.1271 42.5748 48.1822 42.5955 48.2373 42.6092C48.1409 42.8295 48.1271 43.0636 48.1891 43.2702C48.3681 43.8416 48.9256 44.1583 49.3936 44.2616C50.0957 44.413 50.8047 44.2684 51.5137 44.2684C52.202 44.2684 52.8972 44.3855 53.5717 44.4681C54.4528 44.5782 55.3614 44.6953 56.1873 44.6953C56.3594 44.6953 56.5315 44.6953 56.6898 44.6815C56.8275 44.6746 56.9238 44.5576 56.917 44.4199C56.9101 44.2822 56.7999 44.1721 56.6554 44.1927L56.6623 44.2202Z" fill="#111111"/>
</g>
<defs>
<clipPath id="clip0_132_4993">
<rect width="71" height="64" fill="white"/>
</clipPath>
</defs>
</svg>
