<svg width="32" height="32" viewBox="0 0 32 32" fill="none" xmlns="http://www.w3.org/2000/svg">
    <path d="M14.627 2a1.29 1.29 0 0 0-1.287 1.286v.116c-3.64.617-6.417 3.768-6.417 7.575v6.444L3 23.195v1.35h23.15v-1.491l-3.82-5.633v-6.444c0-3.807-2.777-6.958-6.417-7.575v-.116A1.29 1.29 0 0 0 14.627 2zM10.948 26.463a3.847 3.847 0 0 0 3.627 2.572c1.685 0 3.087-1.08 3.627-2.572H10.948z" fill="#FF5C01"/>
    <circle cx="22.31" cy="9.242" r="5.828" fill="#FFB73E" stroke="#fff" stroke-width="2"/>
</svg>
