<svg width="24" height="24" viewBox="0 0 24 24" fill="none" xmlns="http://www.w3.org/2000/svg">
    <rect width="24" height="24" rx="4" fill="#3C9C5A"/>
    <path d="M4.693 16.292a1 1 0 1 0 1.414 1.414l-1.414-1.414zM8.4 14l.707-.707a1 1 0 0 0-1.414 0L8.4 14zm2.4 2.4-.707.707a1 1 0 0 0 1.414 0L10.8 16.4zm5.4-5.4.707-.707a1 1 0 0 0-1.414 0L16.2 11zm3.493 4.907a1 1 0 0 0 1.414-1.414l-1.414 1.414zm-13.586 1.8 3-3-1.414-1.414-3 3 1.414 1.414zm1.586-3 2.4 2.4 1.414-1.414-2.4-2.4-1.414 1.414zm3.814 2.4 5.4-5.4-1.414-1.414-5.4 5.4 1.414 1.414zm3.986-5.4 4.2 4.2 1.414-1.414-4.2-4.2-1.414 1.414zM9.8 8a.8.8 0 0 1-.8.8v2A2.8 2.8 0 0 0 11.8 8h-2zm-.8.8a.8.8 0 0 1-.8-.8h-2A2.8 2.8 0 0 0 9 10.8v-2zM8.2 8a.8.8 0 0 1 .8-.8v-2A2.8 2.8 0 0 0 6.2 8h2zm.8-.8a.8.8 0 0 1 .8.8h2A2.8 2.8 0 0 0 9 5.2v2z" fill="#fff"/>
</svg>
