<svg width="24" height="24" viewBox="0 0 24 24" fill="none" xmlns="http://www.w3.org/2000/svg">
    <rect width="24" height="24" rx="4" fill="#57B8EA"/>
    <path d="M9.177 1.412h1.411c.424 0 .706.282.706.706s-.282.706-.706.706H9.177c-.424 0-.706-.282-.706-.706s.282-.706.706-.706zm0 2.824h1.411c.424 0 .706.282.706.706 0 .423-.282.705-.706.705H9.177c-.424 0-.706-.282-.706-.705 0-.424.282-.706.706-.706zm0 2.823h1.411c.424 0 .706.283.706.706 0 .424-.282.706-.706.706H9.177c-.424 0-.706-.282-.706-.706 0-.423.282-.706.706-.706zm6.353 7.059a2.832 2.832 0 0 1-2.824 2.824h-1.412a2.832 2.832 0 0 1-2.823-2.824V9.883h7.059v4.235zm-.706-7.059h-1.412c-.424 0-.706-.282-.706-.706 0-.423.282-.706.706-.706h1.412c.423 0 .706.283.706.706 0 .424-.283.706-.706.706zm0-2.823h-1.412c-.424 0-.706-.283-.706-.706 0-.424.282-.706.706-.706h1.412c.423 0 .706.282.706.706 0 .423-.283.706-.706.706z" fill="#fff"/>
</svg>
