<svg width="17" height="17" viewBox="0 0 17 17" fill="none" xmlns="http://www.w3.org/2000/svg">
    <path d="m15.5 8.456-5.957 5.597c-.849.797-2 1.245-3.202 1.246a4.686 4.686 0 0 1-3.204-1.242c-.85-.796-1.328-1.877-1.328-3.004-.001-1.126.475-2.207 1.324-3.005l5.966-5.605a2.812 2.812 0 0 1 1.923-.745c.72.001 1.412.27 1.92.75.51.478.796 1.126.795 1.803-.001.676-.288 1.324-.799 1.801L6.981 11.65a.94.94 0 0 1-.643.25.94.94 0 0 1-.643-.25.827.827 0 0 1-.266-.603c0-.226.096-.443.266-.603l5.967-5.588a.852.852 0 0 0 .197-.277.807.807 0 0 0 0-.653.852.852 0 0 0-.197-.276.916.916 0 0 0-.295-.185.961.961 0 0 0-.99.185L4.418 9.246a2.462 2.462 0 0 0-.729 1.782c.012.66.298 1.29.795 1.756a2.808 2.808 0 0 0 1.873.746 2.82 2.82 0 0 0 1.9-.683l5.966-5.589c.85-.797 1.328-1.879 1.328-3.006 0-1.128-.478-2.21-1.328-3.007A4.689 4.689 0 0 0 11.019 0a4.689 4.689 0 0 0-3.205 1.245L1.856 6.851C.668 7.966 0 9.478 0 11.055s.668 3.089 1.856 4.204C3.045 16.374 4.657 17 6.338 17s3.293-.626 4.482-1.741l5.966-5.606A.817.817 0 0 0 17 9.067a.826.826 0 0 0-.269-.567.936.936 0 0 0-.607-.244.942.942 0 0 0-.622.208v-.008z" fill="#545454"/>
</svg>
