<svg width="65" height="65" viewBox="0 0 65 65" fill="none" xmlns="http://www.w3.org/2000/svg">
<g clip-path="url(#clip0_56_2224)">
<path d="M14.1977 18.2194L18.1584 18.289H18.8287L18.8374 17.6274L18.9071 13.6667C19.0551 6.01501 25.4445 -0.139403 33.1049 -0.000123174C40.7652 0.139156 46.9197 6.5286 46.7804 14.189L46.7107 18.1497V18.82L47.3723 18.8287L51.3331 18.8984C58.9935 19.0376 65.1479 25.4271 65.0086 33.0875C64.8693 40.7478 58.4799 46.9022 50.8195 46.763L46.8587 46.6933H46.1884L46.1797 47.3549L46.1101 51.3157C45.9708 58.976 39.5814 65.1305 31.921 64.9912C24.2606 64.8519 18.1062 58.4624 18.2455 50.8021L18.3151 46.8413V46.171L17.6536 46.1623L13.6928 46.0927C6.01501 45.9447 -0.139403 39.5553 -0.00012321 31.8949C0.139156 24.2345 6.5286 18.0801 14.189 18.2194H14.1977Z" fill="#7460F0"/>
<path d="M41.2181 37.3269C38.6675 37.2834 36.6393 35.1681 36.6828 32.6175C36.7263 30.067 38.8416 28.0387 41.3922 28.0822C43.9428 28.1258 45.971 30.2411 45.9275 32.7916C45.884 35.3422 43.7687 37.3704 41.2181 37.3269V37.3269Z" fill="white"/>
<path d="M44.6307 29.5534C44.6307 29.5534 44.6307 29.5098 44.6307 29.4924C43.8125 28.6394 42.6634 28.1083 41.3925 28.0822C38.8419 28.0387 36.7353 30.067 36.6831 32.6175C36.657 33.8884 37.1532 35.0549 37.9714 35.908C37.9889 35.908 38.015 35.908 38.0324 35.908C41.6101 35.9776 44.5611 33.1311 44.6307 29.5534V29.5534Z" fill="black"/>
<path d="M22.9554 36.9788C20.4049 36.9352 18.3766 34.8199 18.4201 32.2694C18.4636 29.7188 20.579 27.6906 23.1295 27.7341C25.6801 27.7776 27.7083 29.8929 27.6648 32.4435C27.6213 34.994 25.506 37.0223 22.9554 36.9788Z" fill="white"/>
<path d="M26.3676 29.214C26.3676 29.214 26.3676 29.1705 26.3676 29.1531C25.5493 28.3 24.4002 27.769 23.1293 27.7429C20.5788 27.6994 18.4722 29.7276 18.4199 32.2782C18.3938 33.5491 18.89 34.7156 19.7083 35.5686C19.7257 35.5686 19.7518 35.5686 19.7692 35.5686C23.3469 35.6383 26.2979 32.7918 26.3676 29.214Z" fill="black"/>
<path d="M33.6188 36.8829C33.0443 37.6054 31.9997 37.6489 31.3904 36.9438C30.7549 36.2039 29.7016 37.2746 30.3284 38.0058C31.4252 39.2855 33.6275 39.2768 34.6808 37.9449C35.2815 37.1963 34.2195 36.1256 33.6188 36.8829Z" fill="black"/>
</g>
<defs>
<clipPath id="clip0_56_2224">
<rect width="65" height="65" fill="white"/>
</clipPath>
</defs>
</svg>
