<svg width="109" height="65" viewBox="0 0 109 65" fill="none" xmlns="http://www.w3.org/2000/svg">
<g clip-path="url(#clip0_146_4733)">
<path d="M72.8575 61.03V19.2744C72.8575 9.26408 65.2309 0.727075 55.2434 0.0454919C44.2441 -0.711823 35 8.0868 35 18.9302V63.9973H69.884C73 64 72.8575 64.1386 72.8575 62.5V61.03Z" fill="#5180F8"/>
<path d="M46.2012 28.0689C48.3947 28.0689 50.1728 26.2904 50.1728 24.0965C50.1728 21.9026 48.3947 20.124 46.2012 20.124C44.0078 20.124 42.2296 21.9026 42.2296 24.0965C42.2296 26.2904 44.0078 28.0689 46.2012 28.0689Z" fill="white"/>
<path d="M46.6487 20.1514C45.9879 22.7675 46.0154 25.4526 46.6762 28.0412C48.6448 27.8071 50.1797 26.1342 50.1797 24.0963C50.1797 22.0584 48.6379 20.3717 46.6555 20.1514H46.6487Z" fill="#111111"/>
<path d="M60.2292 28.0689C62.4226 28.0689 64.2008 26.2904 64.2008 24.0965C64.2008 21.9026 62.4226 20.124 60.2292 20.124C58.0357 20.124 56.2576 21.9026 56.2576 24.0965C56.2576 26.2904 58.0357 28.0689 60.2292 28.0689Z" fill="white"/>
<path d="M28.5 64V45.3525C28.5 39.5186 22.9611 34.506 15.6455 34.0367C7.43382 33.5108 0.5 38.7054 0.5 45.1259V64H28.4949H28.5Z" fill="#E6E6E6"/>
<path d="M108.5 64V45.3525C108.5 39.5186 103.159 34.506 96.1045 34.0367C88.1862 33.5108 81.5 38.7054 81.5 45.1259V64H108.495H108.5Z" fill="#E6E6E6"/>
<path d="M60.6766 20.1514C60.0158 22.7675 60.0434 25.4526 60.7042 28.0412C62.6727 27.8071 64.2077 26.1342 64.2077 24.0963C64.2077 22.0584 62.6659 20.3717 60.6835 20.1514H60.6766Z" fill="#111111"/>
<path d="M54.1376 29.9139C54.1376 30.5817 53.6971 31.1256 53.1465 31.1256C52.5958 31.1256 52.1553 30.5817 52.1553 29.9139C52.1553 29.246 52.5958 28.7021 53.1465 28.7021C53.6971 28.7021 54.1376 29.246 54.1376 29.9139Z" fill="#111111"/>
<path d="M91.1622 32.9774C86.1788 26.9534 78.7518 24.0411 71.6209 21.3354C71.201 24.2201 70.7054 27.2012 70.2855 30.079C71.8755 30.678 73.8785 31.5179 75.3584 32.3716C75.9986 32.7434 78.036 33.6935 78.4765 34.3062C78.917 34.9189 78.9446 36.3509 77.4371 35.9585C77.4303 35.9585 77.4165 35.9654 77.4027 35.9723V44.2201C81.2642 45.1427 85.4905 44.5368 89.0491 42.499C91.0796 41.3354 93.0757 39.332 92.9931 36.9017C92.9381 35.394 92.0777 34.0859 91.1553 32.9706L91.1622 32.9774Z" fill="#5180F8"/>
<path d="M47.1649 39.9725L46.511 39.9862C47.0273 39.8967 47.4678 39.346 47.3439 38.8158C47.2338 38.3408 46.5592 38.0172 46.0154 38.0447C46.2357 37.8451 46.4009 37.494 46.4353 37.2117C46.4904 36.7573 46.1806 36.3098 45.7608 36.1308C45.3753 35.9725 45.0518 36.0413 44.7214 36.1515C44.9554 36.062 45.1688 35.9518 45.3478 35.7797C45.4992 35.6351 45.6162 35.4355 45.6093 35.2289C45.6025 34.9466 45.3615 34.7057 45.0931 34.6162C44.4392 34.389 43.5375 34.6437 42.9042 34.8227C42.4637 34.9466 41.149 35.2151 40.8806 35.5938C41.4106 34.8571 41.7341 33.9759 41.8167 33.074C41.8442 32.7711 41.8305 32.42 41.5964 32.2203C41.1903 31.8761 40.4401 32.1652 40.2198 32.6472C39.6003 33.9966 38.0723 35.821 35.3878 36.7435C34.5894 37.0189 33.4881 37.2805 32.6001 36.9776C31.843 36.716 31.3749 36.1859 31.4988 35.3253C31.6227 34.4647 32.9512 33.3563 33.5775 32.8881C33.7496 32.7573 35.8628 31.5181 35.8765 31.6145C35.5324 28.9225 34.7546 25.7281 34.9404 23.7246C30.2805 26.0447 24.9873 30.4785 22.8673 35.3184C22.2203 36.7986 21.8486 38.4372 22.062 40.0344C22.6264 44.2616 26.9903 45.673 30.7141 45.6041C36.3308 45.5009 41.741 43.6076 47.0342 41.7418C47.4884 41.5835 48.0185 41.3356 48.0804 40.8537C48.1423 40.3787 47.6468 39.9793 47.1718 39.9518L47.1649 39.9725Z" fill="#5180F8"/>
<path d="M78.5041 36.2202C75.7852 35.9517 73.0182 36.1926 70.3888 36.9293C70.141 36.9981 69.8932 37.0739 69.7005 37.2391C69.5078 37.4043 69.3907 37.6797 69.4802 37.9207C69.5835 38.1823 69.8863 38.2924 70.1685 38.3269C70.4439 38.3613 70.7398 38.3475 70.9876 38.4783C70.4232 38.5816 70.0859 38.8501 69.6385 39.2081C69.4871 39.332 69.3426 39.4697 69.2875 39.6625C69.1774 40.0549 69.5628 40.4473 69.9689 40.4955C70.375 40.5506 70.7674 40.3716 71.1391 40.1995C70.5127 40.351 69.845 40.8467 69.7418 41.4801C69.6867 41.8243 69.8726 42.1892 70.1823 42.3475C70.4921 42.5059 70.8982 42.437 71.1391 42.1892C70.6779 42.2098 70.2787 42.7813 70.4163 43.2219C70.554 43.6625 70.9945 43.9448 71.4419 44.048C71.8893 44.1444 72.3574 44.0893 72.8117 44.0618C74.4499 43.9517 76.8521 44.5919 78.6762 44.468L78.5041 36.227V36.2202Z" fill="#5180F8"/>
<path d="M48.0941 40.1857C47.8738 39.9241 47.5228 39.7451 47.1786 39.7313C47.4539 39.4491 47.6604 39.1048 47.5847 38.7606C47.4746 38.2993 46.9859 37.962 46.4765 37.8449C46.5798 37.659 46.6555 37.4456 46.6761 37.246C46.745 36.7021 46.3939 36.1444 45.8502 35.9172C45.7744 35.8828 45.6987 35.8621 45.623 35.8415C45.7744 35.6487 45.8502 35.4422 45.8433 35.2287C45.8295 34.8088 45.4922 34.5059 45.1618 34.3957C44.4391 34.141 43.5168 34.4026 42.8284 34.5954C42.7527 34.616 42.6564 34.6435 42.5462 34.6711C42.1883 34.7606 41.8373 34.857 41.5413 34.9602C41.8235 34.3819 41.9956 33.7554 42.0575 33.1083C42.0713 32.9224 42.1264 32.3647 41.7547 32.048C41.5344 31.8553 41.2315 31.7933 40.9011 31.8621C40.5088 31.9516 40.1509 32.2201 39.9995 32.5575C39.6897 33.2322 38.437 35.5041 35.1881 36.5713C35.1675 36.5781 35.1468 36.5919 35.1262 36.6057C34.2589 36.8604 33.1163 37.005 32.3041 36.5575C30.7209 35.6831 32.4004 33.9413 33.2264 33.2391C33.4673 33.0394 33.1232 32.6952 32.8822 32.8948C31.8842 33.7417 30.3837 35.3871 31.6502 36.6745C32.5587 37.5902 34.2795 37.3905 35.3877 37.0394C35.429 37.0256 35.4566 37.005 35.4841 36.9843C38.8087 35.8415 40.1165 33.4732 40.44 32.764C40.5295 32.5644 40.7566 32.3991 41.0044 32.3441C41.1076 32.3234 41.3004 32.3028 41.438 32.4198C41.5619 32.5231 41.6032 32.7365 41.5757 33.067C41.4931 33.9275 41.1834 34.7606 40.6809 35.4628C40.6052 35.573 40.6258 35.7244 40.736 35.8002C40.8461 35.8759 40.9975 35.8553 41.0732 35.7451C41.2453 35.5041 42.2434 35.2494 42.6632 35.1461C42.7803 35.1186 42.8835 35.0911 42.9799 35.0635C43.4135 34.9396 45.2789 34.3613 45.3614 35.2219C45.3683 35.3182 45.327 35.4146 45.272 35.4904C45.0104 35.869 44.5561 35.9448 44.1431 36.0756C43.6613 36.2339 43.1932 36.4198 42.6839 36.4886C42.381 36.53 42.3741 37.0188 42.6839 36.9775C43.5581 36.8604 44.3772 36.3372 45.2513 36.2959C45.9121 36.2615 46.3733 36.9912 46.0842 37.5833C45.9052 37.9482 45.5611 37.9895 45.21 38.0859C44.5974 38.2649 43.9848 38.4921 43.4066 38.7744C43.1244 38.9121 43.3722 39.332 43.6544 39.1943C44.1294 38.9602 44.6249 38.7812 45.1343 38.6229C45.7056 38.4439 46.3113 38.1272 46.862 38.5403C46.9377 38.5954 47.0065 38.6642 47.0478 38.7537C47.2268 39.1461 46.7519 39.5661 46.4628 39.752C46.1324 39.9654 45.74 40.048 45.3683 40.1719C44.9691 40.3096 44.563 40.4542 44.1362 40.5093C43.8334 40.5506 43.8265 41.0394 44.1362 40.9981C44.9966 40.8811 45.8433 40.5231 46.683 40.289C47.0341 40.1926 47.4539 40.1857 47.7155 40.5024C47.7774 40.5781 47.8463 40.7021 47.8325 40.8466C47.7843 41.1978 47.3094 41.4043 46.9446 41.5351C43.0487 42.9121 39.022 44.3303 34.844 44.9981C34.7132 45.0188 34.6237 45.1427 34.6443 45.2804C34.665 45.3974 34.7682 45.4869 34.8852 45.4869C34.899 45.4869 34.9128 45.4869 34.9265 45.4869C39.1459 44.8122 43.3791 43.3182 47.1098 42.0033C47.4126 41.8931 48.2249 41.6108 48.3143 40.9155C48.3487 40.6676 48.2662 40.406 48.0872 40.1995L48.0941 40.1857Z" fill="#111111"/>
<path d="M78.6623 44.2205C77.7468 44.2825 76.673 44.1448 75.6337 44.0139C74.9316 43.9244 74.2295 43.8487 73.5274 43.8212C72.8666 43.8005 72.1508 43.952 71.4969 43.8074C71.1803 43.7386 70.7673 43.5251 70.6503 43.1465C70.3681 42.2446 72.9492 41.859 73.4242 41.7351C73.727 41.6525 73.5963 41.1843 73.2934 41.267C72.4192 41.501 71.5933 41.7282 70.7604 42.0793C69.9138 42.4374 69.8449 41.384 70.313 40.9296C70.6365 40.6129 71.1803 40.4408 71.607 40.3169C72.1233 40.1654 72.667 40.1861 73.197 40.2067C73.5137 40.2136 73.5137 39.7317 73.197 39.7179C72.3504 39.6904 71.2285 39.7799 70.4644 40.2136C70.1822 40.3788 69.4044 40.1861 69.5283 39.7317C69.666 39.236 70.5745 38.8091 71.0357 38.7196C71.0426 38.7196 71.0495 38.7127 71.0564 38.7059C71.724 38.6095 72.3986 38.5131 73.08 38.4924C73.3898 38.4855 73.3966 37.9967 73.08 38.0036C72.5913 38.0174 72.1026 38.0725 71.6208 38.1344C71.0908 38.2033 70.6571 38.1344 70.1271 38.0518C70.0101 38.0312 69.8931 38.0105 69.7967 37.9348C69.6178 37.7902 69.721 37.5423 69.8656 37.4184C70.017 37.2876 70.2235 37.2257 70.4644 37.1568C73.0869 36.427 75.7851 36.1861 78.4902 36.4546C78.6279 36.4683 78.7449 36.372 78.7586 36.2343C78.7724 36.1034 78.676 35.9795 78.5384 35.9658C75.7713 35.6904 73.0112 35.9313 70.3336 36.6818C70.0514 36.7644 69.7761 36.847 69.5558 37.0398C69.2667 37.2876 69.1428 37.68 69.2667 37.9899C69.3838 38.2928 69.6866 38.4855 70.1203 38.5475C69.9138 38.6783 69.721 38.8298 69.5008 39.0088C69.3356 39.1396 69.1428 39.3255 69.0671 39.5871C69.0052 39.8074 69.0465 40.0415 69.1841 40.248C69.3356 40.4752 69.5834 40.6473 69.8518 40.7093C69.6797 40.9158 69.5558 41.1637 69.5077 41.4253C69.4319 41.8728 69.6728 42.3479 70.079 42.5475C70.1271 42.575 70.1822 42.5957 70.2373 42.6095C70.1409 42.8298 70.1271 43.0639 70.1891 43.2704C70.3681 43.8418 70.9256 44.1585 71.3936 44.2618C72.0957 44.4133 72.8047 44.2687 73.5137 44.2687C74.202 44.2687 74.8972 44.3857 75.5717 44.4683C76.4528 44.5785 77.3614 44.6955 78.1873 44.6955C78.3594 44.6955 78.5315 44.6955 78.6898 44.6818C78.8275 44.6749 78.9238 44.5578 78.917 44.4201C78.9101 44.2824 78.7999 44.1723 78.6554 44.193L78.6623 44.2205Z" fill="#111111"/>
</g>
<defs>
<clipPath id="clip0_146_4733">
<rect width="109" height="65" fill="white"/>
</clipPath>
</defs>
</svg>
