<svg width="104" height="100" viewBox="0 0 104 100" fill="none" xmlns="http://www.w3.org/2000/svg">
    <g clip-path="url(#0cncnmkkaa)">
        <path d="M.527 99.475V67.331c0-2.875 2.342-5.194 5.221-5.194h92.493c2.89 0 5.221 2.33 5.221 5.194v32.144" fill="#fff"/>
        <path d="M.527 99.475V67.331c0-2.875 2.342-5.194 5.221-5.194h92.493c2.89 0 5.221 2.33 5.221 5.194v32.144M.527 69.115h102.946" stroke="#111" stroke-miterlimit="10" stroke-linecap="round"/>
        <path d="M6.002 66.65a.736.736 0 0 0 .738-.735.736.736 0 0 0-.738-.734.736.736 0 0 0-.739.734c0 .406.33.735.739.735zM8.512 66.65a.736.736 0 0 0 .738-.735.736.736 0 0 0-.738-.734.736.736 0 0 0-.738.734c0 .406.33.735.738.735zM11.265 66.65a.736.736 0 0 0 .738-.735.736.736 0 0 0-.738-.734.736.736 0 0 0-.738.734c0 .406.33.735.738.735z" fill="#111"/>
        <path d="M17.14 76.64h19.967c.822 0 1.487.66 1.487 1.48v21.355H15.653V78.12c0-.818.664-1.48 1.487-1.48z" fill="#FDC728"/>
        <path d="M24.376 85.35h5.611M21.137 89.968h12.099" stroke="#111" stroke-miterlimit="10" stroke-linecap="round"/>
        <path d="M43.973 86.977H63.94c.823 0 1.487.66 1.487 1.48v11.018H42.475V88.456c0-.818.665-1.48 1.488-1.48h.01z" fill="#FDC728"/>
        <path d="M50.86 93.231h6.319" stroke="#111" stroke-miterlimit="10" stroke-linecap="round"/>
        <path d="M70.722 79.547H90.69c.823 0 1.487.661 1.487 1.48v18.448H69.224V81.028c0-.819.665-1.48 1.488-1.48h.01z" fill="#FDC728"/>
        <path d="M77.958 92.161h5.611M74.71 88.058h12.108" stroke="#111" stroke-miterlimit="10" stroke-linecap="round"/>
        <path d="M47.908 14.608s8.069-3.316 10.262-7.42c0 0-.348 3.317 3.597 3.138 0 0 2.806.525 4.293-2.182 0 0 1.319 3.84 3.766 5.142 0 0 1.402 2.707 1.054 3.746l1.667-.703s3.597-14.828-8.238-14.136c0 0-4.388-4.628-10.61-.524 0 0-7.184 5.142-5.78 12.908l-.011.031z" fill="#111"/>
        <path d="M70.005 17.053s1.93-1.574 3.765 0c0 0 2.458 2.35 0 6.108 0 0-1.93 2.875-3.765 1.133 0 0-.876 10.557-12.626 11.953 0 0-8.765 2.099-14.207-12.824 0 0 1.93-.703 3.596-.703l.264-1.133s-3.249-1.312-2.721-4.534c0 0 .79-4.974 4.736-2.267" stroke="#111" stroke-miterlimit="10" stroke-linecap="round"/>
        <path d="M71.64 19.268s.443 1.248-.222 2.161M47.39 19.225s-.484-1.228.127-2.172" stroke="#111" stroke-miterlimit="10" stroke-linecap="round"/>
        <path d="M56.557 18.428c.57 0 1.033-.46 1.033-1.029 0-.568-.463-1.028-1.033-1.028-.571 0-1.034.46-1.034 1.029 0 .568.463 1.028 1.034 1.028zM65.395 19.162c.571 0 1.034-.46 1.034-1.028 0-.568-.463-1.029-1.034-1.029-.57 0-1.033.46-1.033 1.029 0 .568.463 1.028 1.034 1.028z" fill="#111"/>
        <path d="M57.78 25.48s1.888 1.68 3.66.462" stroke="#111" stroke-miterlimit="10" stroke-linecap="round"/>
        <path d="M43.172 23.424s-27.793 3.578-34.375 24.43c0 0-5.612 17.358 14.998 18.24h8.86s7.721.524 9.736 4.89c0 0 .876 2.97.791 4.271 0 0 .443 1.543 2.015 1.312 0 0 1.34-.231 1.34-1.05 0 0 .115 1.512 1.518 1.46 0 0 1.108.23 1.224-1.575 0 0 .369.976 1.698 1.333 0 0 1.223.525 1.466-2.036 0 0 1.814-12.1-6.255-16.109 0 0-9.936-6.632-21.106-8.784" fill="#fff"/>
        <path d="M43.172 23.424s-27.793 3.578-34.375 24.43c0 0-5.612 17.358 14.998 18.24h8.86s7.721.524 9.736 4.89c0 0 .876 2.97.791 4.271 0 0 .443 1.543 2.015 1.312 0 0 1.34-.231 1.34-1.05 0 0 .115 1.512 1.518 1.46 0 0 1.108.23 1.224-1.575 0 0 .369.976 1.698 1.333 0 0 1.223.525 1.466-2.036 0 0 1.814-12.1-6.255-16.109 0 0-9.936-6.632-21.106-8.784" stroke="#111" stroke-linecap="round" stroke-linejoin="round"/>
        <path d="M49.29 75.392s1.107-5.762-1.056-7.85M46.536 75.506s.707-3.253-1.107-5.698M38.657 54.434s-5.158 2.928-6.001 11.648" stroke="#111" stroke-linecap="round" stroke-linejoin="round"/>
        <path d="M72.589 24.379s20.484 5.845 23.648 19.803c0 0 4.388 14.303-6.666 18.49 0 0-7.014 2.446-14.208 4.104 0 0-7.014 1.459-8.68 5.877 0 0-.612 2.287-.444 4.313 0 0 .264 2.288-2.194 1.5 0 0-.79 2.792-2.985-.262 0 0-2.11 3.232-3.86-.703 0 0-2.71-5.5.57-12.215 0 0 4.25-8.816 20.905-14.398" fill="#fff"/>
        <path d="M72.589 24.379s20.484 5.845 23.648 19.803c0 0 4.388 14.303-6.666 18.49 0 0-7.014 2.446-14.208 4.104 0 0-7.014 1.459-8.68 5.877 0 0-.612 2.287-.444 4.313 0 0 .264 2.288-2.194 1.5 0 0-.79 2.792-2.985-.262 0 0-2.11 3.232-3.86-.703 0 0-2.71-5.5.57-12.215 0 0 4.25-8.816 20.905-14.398" stroke="#111" stroke-linecap="round" stroke-linejoin="round"/>
        <path d="M67.431 56.092s5.38 1.878 7.922 10.694" stroke="#111" stroke-linejoin="round"/>
        <path d="M61.06 78.214s-2.383-2.445-.664-7.241M64.045 78.476s-1.318-1.395-.527-4.974M39.353 24.157s.496 9.466 10.664 16.97c0 0 2.553 2.906 6.54-4.786M57.38 36.248s.706 5.582 4.471 5.929c0 0 12.352-5.971 13.016-17.032" stroke="#111" stroke-linecap="round" stroke-linejoin="round"/>
    </g>
    <defs>
        <clipPath id="0cncnmkkaa">
            <path fill="#fff" d="M0 0h104v100H0z"/>
        </clipPath>
    </defs>
</svg>
