<svg width="80" height="80" viewBox="0 0 80 80" fill="none" xmlns="http://www.w3.org/2000/svg">
<path d="M57.2048 19.3372C57.0035 19.5779 56.7847 19.8142 56.5615 20.0418C51.9796 24.6237 44.5443 24.6237 39.958 20.0418C35.376 15.4598 35.376 8.02456 39.958 3.43822C40.1855 3.21066 40.4175 2.99622 40.6582 2.79491C45.2664 -1.13498 52.2028 -0.920542 56.5615 3.43822C60.9203 7.79699 61.1347 14.7246 57.2048 19.3372Z" fill="url(#paint0_linear_2471_34636)"/>
<path d="M56.5217 20.0695L41.7176 34.916C40.7388 35.8976 39.1483 35.8976 38.1695 34.916L23.5663 20.2666C19.07 15.7575 18.738 8.41747 23.0682 3.75054C27.6169 -1.14426 35.2681 -1.24943 39.9435 3.44379L56.5217 20.0695Z" fill="url(#paint1_linear_2471_34636)"/>
<path fill-rule="evenodd" clip-rule="evenodd" d="M44.5732 32.0344C44.5732 29.5596 46.4993 27.5577 48.8803 27.5577H48.8997C51.2807 27.5577 53.2067 29.5596 53.2067 32.0344V66.0869H40.3436L35.959 57.5964L25.7866 39.036C24.6057 36.8832 25.322 34.1469 27.3933 32.9196C29.4645 31.6923 32.0972 32.4368 33.278 34.5896L35.959 39.4786V16.6505C35.959 14.1757 37.8851 12.1738 40.2661 12.1738C42.6471 12.1738 44.5732 14.1757 44.5732 16.6505V32.0344ZM70.4352 32.0344V42.6087C70.4352 47.7815 69.4789 52.9097 67.6143 57.7348L64.3946 66.0668H53.2069V32.0344C53.2069 29.5597 55.133 27.5577 57.514 27.5577C59.895 27.5577 61.8211 29.5597 61.8211 32.0344C61.8211 29.5597 63.7472 27.5577 66.1282 27.5577C68.5091 27.5577 70.4352 29.5597 70.4352 32.0344Z" fill="url(#paint2_linear_2471_34636)"/>
<path d="M37.3916 65.8615L37.3916 73.2693C37.3916 74.5854 38.5159 75.6523 39.9027 75.6523L64.4457 75.6523C65.8326 75.6523 66.9568 74.5854 66.9568 73.2693L66.9568 65.8615C66.9568 64.5453 65.8326 63.4784 64.4457 63.4784L39.9027 63.4784C38.5159 63.4784 37.3916 64.5453 37.3916 65.8615Z" fill="url(#paint3_linear_2471_34636)"/>
<path d="M34.7832 71.6078L34.7832 77.9574C34.7832 79.0855 36.1059 80 37.7375 80L66.6116 80C68.2431 80 69.5658 79.0855 69.5658 77.9574L69.5658 71.6078C69.5658 70.4797 68.2431 69.5652 66.6116 69.5652L37.7375 69.5652C36.1059 69.5652 34.7832 70.4797 34.7832 71.6078Z" fill="url(#paint4_linear_2471_34636)"/>
<defs>
<linearGradient id="paint0_linear_2471_34636" x1="36.5215" y1="0" x2="60.8827" y2="22.5233" gradientUnits="userSpaceOnUse">
<stop stop-color="#FF5C01"/>
<stop offset="1" stop-color="#FFA901"/>
</linearGradient>
<linearGradient id="paint1_linear_2471_34636" x1="20" y1="0" x2="57.0521" y2="35.0922" gradientUnits="userSpaceOnUse">
<stop stop-color="#FF5C01"/>
<stop offset="1" stop-color="#FFA901"/>
</linearGradient>
<linearGradient id="paint2_linear_2471_34636" x1="29.5767" y1="51.4588" x2="60.8585" y2="47.7385" gradientUnits="userSpaceOnUse">
<stop stop-color="#F4B8B3"/>
<stop offset="0.05" stop-color="#F4BAB5"/>
<stop offset="0.59" stop-color="#FCCAC4"/>
<stop offset="1" stop-color="#FFD0CA"/>
</linearGradient>
<linearGradient id="paint3_linear_2471_34636" x1="66.537" y1="68.9418" x2="53.0408" y2="83.3189" gradientUnits="userSpaceOnUse">
<stop stop-color="#DDDDDD"/>
<stop offset="1" stop-color="#EEEEEE"/>
</linearGradient>
<linearGradient id="paint4_linear_2471_34636" x1="34.7832" y1="80" x2="39.9555" y2="61.3523" gradientUnits="userSpaceOnUse">
<stop stop-color="#0C82E9"/>
<stop offset="1" stop-color="#4DC3F5"/>
</linearGradient>
</defs>
</svg>
