<svg width="80" height="80" viewBox="0 0 80 80" fill="none" xmlns="http://www.w3.org/2000/svg">
<path d="M5.21777 12.6958C5.21777 10.4867 7.00863 8.6958 9.21777 8.6958H23.9733C25.296 8.6958 26.5331 9.34964 27.2782 10.4425L32.7225 18.4274C33.4676 19.5202 34.7047 20.1741 36.0274 20.1741C39.9864 20.1741 48.67 20.1741 54.783 20.1741C58.6392 20.1741 63.7877 20.1741 67.3062 20.1741C69.5154 20.1741 71.3047 21.9649 71.3047 24.1741V62.0871C71.3047 64.2962 69.5139 66.0871 67.3047 66.0871H9.21778C7.00864 66.0871 5.21777 64.2962 5.21777 62.0871V12.6958Z" fill="url(#paint0_linear_2471_34857)"/>
<rect x="10.4346" y="14.7827" width="55.6522" height="43.4783" rx="4" fill="url(#paint1_linear_2471_34857)"/>
<rect x="3.47852" y="26.0874" width="69.5652" height="46.9565" rx="4" fill="url(#paint2_linear_2471_34857)"/>
<circle cx="64.3475" cy="64.348" r="15.6522" fill="url(#paint3_linear_2471_34857)"/>
<circle cx="62.608" cy="62.609" r="5.21739" stroke="white" stroke-width="2.5"/>
<path d="M69.5499 71.3191C70.038 71.8073 70.8295 71.8073 71.3176 71.3191C71.8058 70.831 71.8058 70.0395 71.3176 69.5513L69.5499 71.3191ZM65.2021 66.9713L69.5499 71.3191L71.3176 69.5513L66.9698 65.2035L65.2021 66.9713Z" fill="white"/>
<defs>
<linearGradient id="paint0_linear_2471_34857" x1="5.21777" y1="8.6958" x2="59.4579" y2="68.7519" gradientUnits="userSpaceOnUse">
<stop stop-color="#FFCC48"/>
<stop offset="1" stop-color="#FFE248"/>
</linearGradient>
<linearGradient id="paint1_linear_2471_34857" x1="41.1112" y1="81.7747" x2="20.717" y2="22.2624" gradientUnits="userSpaceOnUse">
<stop stop-color="#DDDDDD"/>
<stop offset="1" stop-color="#F8F8F8"/>
</linearGradient>
<linearGradient id="paint2_linear_2471_34857" x1="3.47852" y1="26.0874" x2="45.4335" y2="85.8524" gradientUnits="userSpaceOnUse">
<stop stop-color="#FFCC48"/>
<stop offset="1" stop-color="#FFE248"/>
</linearGradient>
<linearGradient id="paint3_linear_2471_34857" x1="48.6953" y1="48.6958" x2="81.1769" y2="78.7268" gradientUnits="userSpaceOnUse">
<stop stop-color="#0C82E9"/>
<stop offset="1" stop-color="#4DC3F5"/>
</linearGradient>
</defs>
</svg>
