<svg width="58" height="58" viewBox="0 0 58 58" fill="none" xmlns="http://www.w3.org/2000/svg">
<path d="M18 38C18 26.9543 26.9543 18 38 18C49.0457 18 58 26.9543 58 38V50C58 54.4183 54.4183 58 50 58H26C21.5817 58 18 54.4183 18 50V38Z" fill="url(#paint0_linear_2840_9390)"/>
<path d="M27 11C27 4.92487 31.9249 0 38 0C44.0751 0 49 4.92487 49 11C49 17.0751 44.0751 22 38 22C31.9249 22 27 17.0751 27 11Z" fill="url(#paint1_linear_2840_9390)"/>
<path d="M15 58C23.2843 58 30 51.2843 30 43C30 34.7157 23.2843 28 15 28C6.71573 28 0 34.7157 0 43C0 51.2843 6.71573 58 15 58Z" fill="url(#paint2_linear_2840_9390)"/>
<path d="M7 43.5556L11.6154 48L22 38" stroke="white" stroke-width="3" stroke-linecap="round" stroke-linejoin="round"/>
<defs>
<linearGradient id="paint0_linear_2840_9390" x1="18" y1="18" x2="55.9708" y2="54.5104" gradientUnits="userSpaceOnUse">
<stop stop-color="#FFCC48"/>
<stop offset="1" stop-color="#FFE248"/>
</linearGradient>
<linearGradient id="paint1_linear_2840_9390" x1="37.7518" y1="29.3146" x2="25.3734" y2="1.09472" gradientUnits="userSpaceOnUse">
<stop stop-color="#DDDDDD"/>
<stop offset="1" stop-color="#F8F8F8"/>
</linearGradient>
<linearGradient id="paint2_linear_2840_9390" x1="0" y1="28" x2="31.1282" y2="56.7798" gradientUnits="userSpaceOnUse">
<stop stop-color="#FF5C01"/>
<stop offset="1" stop-color="#FFA901"/>
</linearGradient>
</defs>
</svg>
