<svg width="80" height="80" viewBox="0 0 80 80" fill="none" xmlns="http://www.w3.org/2000/svg">
<rect x="9.56543" y="7.82617" width="60.8696" height="43.4783" rx="8" fill="url(#paint0_linear_2471_34797)"/>
<circle cx="29.5648" cy="29.5652" r="2.6087" fill="url(#paint1_linear_2471_34797)"/>
<circle cx="39.9993" cy="29.5652" r="2.6087" fill="url(#paint2_linear_2471_34797)"/>
<circle cx="50.4339" cy="29.5652" r="2.6087" fill="url(#paint3_linear_2471_34797)"/>
<path d="M24.3415 42.7247C24.4707 40.1542 22.5595 37.8755 19.9188 37.7154C17.6567 37.5742 15.6531 39.2314 15.0991 41.4724L13.0309 49.7961L10.7688 45.1823L15.7824 24.9944C16.4379 22.3486 15.1268 19.4955 12.6062 18.5728C9.71622 17.5182 6.63236 19.2413 5.89372 22.2073L0.436939 44.1842C-0.403273 47.5833 -0.0247124 51.1802 1.50798 54.3158L11.9599 75.6523L22.9473 70.0498L23.4089 60.8599L24.323 42.7247L24.3415 42.7247Z" fill="url(#paint4_linear_2471_34797)"/>
<path d="M5.21777 68.4091L5.21777 73.9131L26.0873 73.9131L26.0873 68.4091C26.0873 67.6082 25.2858 66.9565 24.3007 66.9565L7.00438 66.9565C6.01933 66.9565 5.21777 67.6082 5.21777 68.4091Z" fill="url(#paint5_linear_2471_34797)"/>
<path d="M27.8262 73.0065L27.8262 78.2978C27.8262 79.2379 26.9003 80 25.7582 80L5.54632 80C4.40421 80 3.47835 79.2379 3.47835 78.2978L3.47835 73.0065C3.47835 72.0664 4.40421 71.3043 5.54632 71.3043L25.7582 71.3043C26.9003 71.3043 27.8262 72.0664 27.8262 73.0065Z" fill="url(#paint6_linear_2471_34797)"/>
<path d="M55.6585 42.7247C55.5293 40.1542 57.4405 37.8755 60.0812 37.7154C62.3433 37.5742 64.3469 39.2314 64.9009 41.4724L66.9691 49.7961L69.2312 45.1823L64.2176 24.9944C63.5621 22.3486 64.8732 19.4955 67.3938 18.5728C70.2838 17.5182 73.3676 19.2413 74.1063 22.2073L79.5631 44.1842C80.4033 47.5833 80.0247 51.1802 78.492 54.3158L68.0401 75.6523L57.0527 70.0498L56.5911 60.8599L55.677 42.7247L55.6585 42.7247Z" fill="url(#paint7_linear_2471_34797)"/>
<path d="M74.7822 68.4091L74.7822 73.9131L53.9127 73.9131L53.9127 68.4091C53.9127 67.6082 54.7142 66.9565 55.6993 66.9565L72.9956 66.9565C73.9807 66.9565 74.7822 67.6082 74.7822 68.4091Z" fill="url(#paint8_linear_2471_34797)"/>
<path d="M52.1738 73.0065L52.1738 78.2978C52.1738 79.2379 53.0997 80 54.2418 80L74.4537 80C75.5958 80 76.5217 79.2379 76.5217 78.2978L76.5217 73.0065C76.5217 72.0664 75.5958 71.3043 74.4537 71.3043L54.2418 71.3043C53.0997 71.3043 52.1738 72.0664 52.1738 73.0065Z" fill="url(#paint9_linear_2471_34797)"/>
<defs>
<linearGradient id="paint0_linear_2471_34797" x1="9.56543" y1="7.82617" x2="53.3518" y2="64.5024" gradientUnits="userSpaceOnUse">
<stop stop-color="#FF5C01"/>
<stop offset="1" stop-color="#FFA901"/>
</linearGradient>
<linearGradient id="paint1_linear_2471_34797" x1="29.832" y1="34.9956" x2="26.8964" y2="28.3031" gradientUnits="userSpaceOnUse">
<stop stop-color="#DDDDDD"/>
<stop offset="1" stop-color="#F8F8F8"/>
</linearGradient>
<linearGradient id="paint2_linear_2471_34797" x1="40.2666" y1="34.9956" x2="37.331" y2="28.3031" gradientUnits="userSpaceOnUse">
<stop stop-color="#DDDDDD"/>
<stop offset="1" stop-color="#F8F8F8"/>
</linearGradient>
<linearGradient id="paint3_linear_2471_34797" x1="50.7011" y1="34.9956" x2="47.7655" y2="28.3031" gradientUnits="userSpaceOnUse">
<stop stop-color="#DDDDDD"/>
<stop offset="1" stop-color="#F8F8F8"/>
</linearGradient>
<linearGradient id="paint4_linear_2471_34797" x1="6.60604" y1="70.1198" x2="18.7122" y2="33.9009" gradientUnits="userSpaceOnUse">
<stop stop-color="#F4B8B3"/>
<stop offset="0.05" stop-color="#F4BAB5"/>
<stop offset="0.59" stop-color="#FCCAC4"/>
<stop offset="1" stop-color="#FFD0CA"/>
</linearGradient>
<linearGradient id="paint5_linear_2471_34797" x1="25.791" y1="70.7911" x2="18.3458" y2="60.9939" gradientUnits="userSpaceOnUse">
<stop stop-color="#DDDDDD"/>
<stop offset="1" stop-color="#EEEEEE"/>
</linearGradient>
<linearGradient id="paint6_linear_2471_34797" x1="27.8262" y1="80" x2="22.8435" y2="64.91" gradientUnits="userSpaceOnUse">
<stop stop-color="#0C82E9"/>
<stop offset="1" stop-color="#4DC3F5"/>
</linearGradient>
<linearGradient id="paint7_linear_2471_34797" x1="73.394" y1="70.1198" x2="61.2878" y2="33.9009" gradientUnits="userSpaceOnUse">
<stop stop-color="#F4B8B3"/>
<stop offset="0.05" stop-color="#F4BAB5"/>
<stop offset="0.59" stop-color="#FCCAC4"/>
<stop offset="1" stop-color="#FFD0CA"/>
</linearGradient>
<linearGradient id="paint8_linear_2471_34797" x1="54.209" y1="70.7911" x2="61.6542" y2="60.9939" gradientUnits="userSpaceOnUse">
<stop stop-color="#DDDDDD"/>
<stop offset="1" stop-color="#EEEEEE"/>
</linearGradient>
<linearGradient id="paint9_linear_2471_34797" x1="52.1738" y1="80" x2="57.1565" y2="64.91" gradientUnits="userSpaceOnUse">
<stop stop-color="#0C82E9"/>
<stop offset="1" stop-color="#4DC3F5"/>
</linearGradient>
</defs>
</svg>
