<svg width="86" height="90" viewBox="0 0 86 90" fill="none" xmlns="http://www.w3.org/2000/svg">
<path d="M29.2555 69.8246C30.6632 67.5761 29.983 64.6112 27.7364 63.2023C25.4897 61.7935 22.5273 62.4742 21.1196 64.7227L11.0379 80.8265C9.63018 83.0751 10.3103 86.04 12.557 87.4488C14.8036 88.8577 17.766 88.177 19.1737 85.9285L29.2555 69.8246Z" fill="url(#paint0_linear_2471_34873)"/>
<path d="M66.85 85.9163C68.2577 88.1649 71.2201 88.8456 73.4667 87.4367C75.7134 86.0279 76.3935 83.0629 74.9858 80.8144L64.9041 64.7106C63.4964 62.4621 60.534 61.7814 58.2873 63.1902C56.0406 64.5991 55.3605 67.564 56.7682 69.8125L66.85 85.9163Z" fill="url(#paint1_linear_2471_34873)"/>
<path d="M18 46C27.9411 46 36 37.9411 36 28C36 18.0589 27.9411 10 18 10C8.05887 10 0 18.0589 0 28C0 37.9411 8.05887 46 18 46Z" fill="url(#paint2_linear_2471_34873)"/>
<path d="M68 46C77.9411 46 86 37.9411 86 28C86 18.0589 77.9411 10 68 10C58.0589 10 50 18.0589 50 28C50 37.9411 58.0589 46 68 46Z" fill="url(#paint3_linear_2471_34873)"/>
<path d="M50.6016 0H35.3984C33.5203 0 32 1.56809 32 3.50515C32 5.44221 33.5203 7.01031 35.3984 7.01031H39.6016V17H46.3984V7.01031H50.6016C52.4797 7.01031 54 5.44221 54 3.50515C54 1.56809 52.4797 0 50.6016 0Z" fill="url(#paint4_linear_2471_34873)"/>
<path d="M43 84C62.33 84 78 68.33 78 49C78 29.67 62.33 14 43 14C23.67 14 8 29.67 8 49C8 68.33 23.67 84 43 84Z" fill="url(#paint5_linear_2471_34873)"/>
<path d="M26.8609 46C24.7286 46 23 47.7909 23 50C23 52.2091 24.7286 54 26.8609 54H43.1391C45.2714 54 47 52.2091 47 50C47 47.7909 45.2714 46 43.1391 46H26.8609Z" fill="url(#paint6_linear_2471_34873)"/>
<path d="M47 29.601C47 27.6122 45.2091 26 43 26C40.7909 26 39 27.6122 39 29.601V50.399C39 52.3878 40.7909 54 43 54C45.2091 54 47 52.3878 47 50.399V29.601Z" fill="url(#paint7_linear_2471_34873)"/>
<defs>
<linearGradient id="paint0_linear_2471_34873" x1="27.7364" y1="63.2023" x2="12.5388" y2="87.4374" gradientUnits="userSpaceOnUse">
<stop stop-color="#F8E54B"/>
<stop offset="0.99" stop-color="#EBAF34"/>
</linearGradient>
<linearGradient id="paint1_linear_2471_34873" x1="58.2903" y1="63.1774" x2="73.4879" y2="87.4125" gradientUnits="userSpaceOnUse">
<stop stop-color="#F8E54B"/>
<stop offset="0.99" stop-color="#EBAF34"/>
</linearGradient>
<linearGradient id="paint2_linear_2471_34873" x1="0" y1="10" x2="37.3538" y2="44.5357" gradientUnits="userSpaceOnUse">
<stop stop-color="#FF5C01"/>
<stop offset="1" stop-color="#FFA901"/>
</linearGradient>
<linearGradient id="paint3_linear_2471_34873" x1="50" y1="10" x2="87.3538" y2="44.5357" gradientUnits="userSpaceOnUse">
<stop stop-color="#FF5C01"/>
<stop offset="1" stop-color="#FFA901"/>
</linearGradient>
<linearGradient id="paint4_linear_2471_34873" x1="32" y1="0" x2="47.7716" y2="19.6253" gradientUnits="userSpaceOnUse">
<stop stop-color="#F8B91A"/>
<stop offset="1" stop-color="#FFE248"/>
</linearGradient>
<linearGradient id="paint5_linear_2471_34873" x1="8" y1="14" x2="80.6324" y2="81.1528" gradientUnits="userSpaceOnUse">
<stop stop-color="#0C82E9"/>
<stop offset="1" stop-color="#4DC3F5"/>
</linearGradient>
<linearGradient id="paint6_linear_2471_34873" x1="23" y1="50" x2="47" y2="50" gradientUnits="userSpaceOnUse">
<stop stop-color="white"/>
<stop offset="0.15" stop-color="white" stop-opacity="0.95"/>
<stop offset="0.42" stop-color="white" stop-opacity="0.83"/>
<stop offset="0.77" stop-color="white" stop-opacity="0.64"/>
<stop offset="1" stop-color="white" stop-opacity="0.5"/>
</linearGradient>
<linearGradient id="paint7_linear_2471_34873" x1="43" y1="26" x2="43" y2="54" gradientUnits="userSpaceOnUse">
<stop stop-color="white"/>
<stop offset="0.15" stop-color="white" stop-opacity="0.95"/>
<stop offset="0.42" stop-color="white" stop-opacity="0.83"/>
<stop offset="0.77" stop-color="white" stop-opacity="0.64"/>
<stop offset="1" stop-color="white" stop-opacity="0.5"/>
</linearGradient>
</defs>
</svg>
