<svg width="109" height="65" viewBox="0 0 109 65" fill="none" xmlns="http://www.w3.org/2000/svg">
<g clip-path="url(#clip0_140_13263)">
<path d="M72.8575 61.03V19.2744C72.8575 9.26408 65.2309 0.727075 55.2434 0.0454919C44.2441 -0.711823 35 8.0868 35 18.9302V63.9973H69.884C73 64 72.8575 64.1386 72.8575 62.5V61.03Z" fill="#5180F8"/>
<path d="M46.2011 28.068C48.3945 28.068 50.1727 26.2894 50.1727 24.0955C50.1727 21.9016 48.3945 20.123 46.2011 20.123C44.0076 20.123 42.2295 21.9016 42.2295 24.0955C42.2295 26.2894 44.0076 28.068 46.2011 28.068Z" fill="white"/>
<path d="M46.6485 20.1523C45.9878 22.7685 46.0153 25.4535 46.6761 28.0422C48.6447 27.8081 50.1796 26.1351 50.1796 24.0973C50.1796 22.0594 48.6378 20.3727 46.6554 20.1523H46.6485Z" fill="#111111"/>
<path d="M60.2294 28.068C62.4229 28.068 64.201 26.2894 64.201 24.0955C64.201 21.9016 62.4229 20.123 60.2294 20.123C58.036 20.123 56.2578 21.9016 56.2578 24.0955C56.2578 26.2894 58.036 28.068 60.2294 28.068Z" fill="white"/>
<path d="M28.5 64V45.3525C28.5 39.5186 22.9611 34.506 15.6455 34.0367C7.43382 33.5108 0.5 38.7054 0.5 45.1259V64H28.4949H28.5Z" fill="#E6E6E6"/>
<path d="M108.5 64V45.3525C108.5 39.5186 103.159 34.506 96.1045 34.0367C88.1862 33.5108 81.5 38.7054 81.5 45.1259V64H108.495H108.5Z" fill="#E6E6E6"/>
<path d="M60.6764 20.1523C60.0156 22.7685 60.0431 25.4535 60.7039 28.0422C62.6725 27.8081 64.2074 26.1351 64.2074 24.0973C64.2074 22.0594 62.6656 20.3727 60.6833 20.1523H60.6764Z" fill="#111111"/>
<path d="M54.1376 29.9148C54.1376 30.5826 53.6971 31.1265 53.1465 31.1265C52.5958 31.1265 52.1553 30.5826 52.1553 29.9148C52.1553 29.247 52.5958 28.7031 53.1465 28.7031C53.6971 28.7031 54.1376 29.247 54.1376 29.9148Z" fill="#111111"/>
<path d="M91.1623 32.9779C86.1789 26.9538 78.752 24.0416 71.621 21.3359C71.2011 24.2206 70.7055 27.2017 70.2856 30.0795C71.8757 30.6784 73.8787 31.5184 75.3585 32.3721C75.9987 32.7439 78.0361 33.6939 78.4766 34.3067C78.9172 34.9194 78.9447 36.3514 77.4373 35.959C77.4304 35.959 77.4166 35.9659 77.4029 35.9728V44.2206C81.2643 45.1432 85.4906 44.5373 89.0492 42.4994C91.0797 41.3359 93.0759 39.3325 92.9933 36.9022C92.9382 35.3945 92.0778 34.0864 91.1554 32.971L91.1623 32.9779Z" fill="#5180F8"/>
<path d="M47.1648 39.9725L46.5109 39.9862C47.0272 39.8967 47.4677 39.346 47.3438 38.8158C47.2336 38.3408 46.5591 38.0172 46.0153 38.0447C46.2356 37.8451 46.4008 37.494 46.4352 37.2117C46.4903 36.7573 46.1805 36.3098 45.7606 36.1308C45.3752 35.9725 45.0517 36.0413 44.7213 36.1515C44.9553 36.062 45.1687 35.9518 45.3477 35.7797C45.4991 35.6351 45.6161 35.4355 45.6092 35.2289C45.6023 34.9466 45.3614 34.7057 45.093 34.6162C44.4391 34.389 43.5374 34.6437 42.9041 34.8227C42.4636 34.9466 41.1489 35.2151 40.8805 35.5938C41.4105 34.8571 41.734 33.9759 41.8166 33.074C41.8441 32.7711 41.8304 32.42 41.5963 32.2203C41.1902 31.8761 40.4399 32.1652 40.2197 32.6472C39.6002 33.9966 38.0721 35.821 35.3877 36.7435C34.5892 37.0189 33.4879 37.2805 32.6 36.9776C31.8429 36.716 31.3748 36.1859 31.4987 35.3253C31.6226 34.4647 32.951 33.3563 33.5774 32.8881C33.7495 32.7573 35.8626 31.5181 35.8764 31.6145C35.5322 28.9225 34.7544 25.7281 34.9403 23.7246C30.2804 26.0447 24.9872 30.4785 22.8672 35.3184C22.2202 36.7986 21.8485 38.4372 22.0619 40.0344C22.6263 44.2616 26.9902 45.673 30.714 45.6041C36.3307 45.5009 41.7409 43.6076 47.034 41.7418C47.4883 41.5835 48.0183 41.3356 48.0803 40.8537C48.1422 40.3787 47.6466 39.9793 47.1717 39.9518L47.1648 39.9725Z" fill="#5180F8"/>
<path d="M78.5042 36.2197C75.7853 35.9512 73.0183 36.1921 70.3889 36.9288C70.1411 36.9976 69.8933 37.0734 69.7006 37.2386C69.5079 37.4038 69.3909 37.6792 69.4804 37.9202C69.5836 38.1818 69.8865 38.292 70.1687 38.3264C70.444 38.3608 70.74 38.347 70.9878 38.4778C70.4233 38.5811 70.0861 38.8496 69.6387 39.2076C69.4872 39.3315 69.3427 39.4692 69.2876 39.662C69.1775 40.0544 69.563 40.4469 69.9691 40.4951C70.3752 40.5501 70.7675 40.3711 71.1392 40.199C70.5128 40.3505 69.8452 40.8462 69.7419 41.4796C69.6868 41.8238 69.8727 42.1887 70.1824 42.347C70.4922 42.5054 70.8983 42.4365 71.1392 42.1887C70.678 42.2093 70.2788 42.7808 70.4165 43.2214C70.5541 43.662 70.9947 43.9443 71.4421 44.0475C71.8895 44.1439 72.3575 44.0889 72.8118 44.0613C74.45 43.9512 76.8522 44.5914 78.6763 44.4675L78.5042 36.2265V36.2197Z" fill="#5180F8"/>
<path d="M48.0941 40.1867C47.8738 39.9251 47.5228 39.7461 47.1786 39.7323C47.4539 39.45 47.6604 39.1058 47.5847 38.7616C47.4746 38.3003 46.9859 37.9629 46.4765 37.8459C46.5798 37.66 46.6555 37.4466 46.6761 37.2469C46.745 36.703 46.3939 36.1454 45.8502 35.9182C45.7744 35.8838 45.6987 35.8631 45.623 35.8425C45.7744 35.6497 45.8502 35.4431 45.8433 35.2297C45.8295 34.8098 45.4922 34.5068 45.1618 34.3967C44.4391 34.1419 43.5168 34.4036 42.8284 34.5963C42.7527 34.617 42.6564 34.6445 42.5462 34.6721C42.1883 34.7616 41.8373 34.858 41.5413 34.9612C41.8235 34.3829 41.9956 33.7564 42.0575 33.1092C42.0713 32.9234 42.1264 32.3657 41.7547 32.049C41.5344 31.8562 41.2315 31.7943 40.9011 31.8631C40.5088 31.9526 40.1509 32.2211 39.9995 32.5585C39.6897 33.2332 38.437 35.5051 35.1881 36.5722C35.1675 36.5791 35.1468 36.5929 35.1262 36.6067C34.2589 36.8614 33.1163 37.006 32.3041 36.5585C30.7209 35.6841 32.4004 33.9423 33.2264 33.2401C33.4673 33.0404 33.1232 32.6962 32.8822 32.8958C31.8842 33.7426 30.3837 35.3881 31.6502 36.6755C32.5587 37.5912 34.2795 37.3915 35.3877 37.0404C35.429 37.0266 35.4566 37.006 35.4841 36.9853C38.8087 35.8425 40.1165 33.4741 40.44 32.765C40.5295 32.5654 40.7566 32.4001 41.0044 32.345C41.1076 32.3244 41.3004 32.3037 41.438 32.4208C41.5619 32.524 41.6032 32.7375 41.5757 33.0679C41.4931 33.9285 41.1834 34.7616 40.6809 35.4638C40.6052 35.574 40.6258 35.7254 40.736 35.8012C40.8461 35.8769 40.9975 35.8562 41.0732 35.7461C41.2453 35.5051 42.2434 35.2504 42.6632 35.1471C42.7803 35.1196 42.8835 35.092 42.9799 35.0645C43.4135 34.9406 45.2789 34.3623 45.3614 35.2228C45.3683 35.3192 45.327 35.4156 45.272 35.4913C45.0104 35.87 44.5561 35.9457 44.1431 36.0765C43.6613 36.2349 43.1932 36.4208 42.6839 36.4896C42.381 36.5309 42.3741 37.0197 42.6839 36.9784C43.5581 36.8614 44.3772 36.3382 45.2513 36.2969C45.9121 36.2624 46.3733 36.9922 46.0842 37.5843C45.9052 37.9492 45.5611 37.9905 45.21 38.0869C44.5974 38.2659 43.9848 38.4931 43.4066 38.7753C43.1244 38.913 43.3722 39.333 43.6544 39.1953C44.1294 38.9612 44.6249 38.7822 45.1343 38.6239C45.7056 38.4449 46.3113 38.1282 46.862 38.5413C46.9377 38.5963 47.0065 38.6652 47.0478 38.7547C47.2268 39.1471 46.7519 39.5671 46.4628 39.753C46.1324 39.9664 45.74 40.049 45.3683 40.1729C44.9691 40.3106 44.563 40.4552 44.1362 40.5103C43.8334 40.5516 43.8265 41.0404 44.1362 40.9991C44.9966 40.882 45.8433 40.524 46.683 40.29C47.0341 40.1936 47.4539 40.1867 47.7155 40.5034C47.7774 40.5791 47.8463 40.703 47.8325 40.8476C47.7843 41.1987 47.3094 41.4053 46.9446 41.5361C43.0487 42.913 39.022 44.3313 34.844 44.9991C34.7132 45.0197 34.6237 45.1437 34.6443 45.2814C34.665 45.3984 34.7682 45.4879 34.8852 45.4879C34.899 45.4879 34.9128 45.4879 34.9265 45.4879C39.1459 44.8132 43.3791 43.3192 47.1098 42.0042C47.4126 41.8941 48.2249 41.6118 48.3143 40.9165C48.3487 40.6686 48.2662 40.407 48.0872 40.2005L48.0941 40.1867Z" fill="#111111"/>
<path d="M78.6623 44.2205C77.7468 44.2825 76.673 44.1448 75.6337 44.0139C74.9316 43.9244 74.2295 43.8487 73.5274 43.8212C72.8666 43.8005 72.1508 43.952 71.4969 43.8074C71.1803 43.7386 70.7673 43.5251 70.6503 43.1465C70.3681 42.2446 72.9492 41.859 73.4242 41.7351C73.727 41.6525 73.5963 41.1843 73.2934 41.267C72.4192 41.501 71.5933 41.7282 70.7604 42.0793C69.9138 42.4374 69.8449 41.384 70.313 40.9296C70.6365 40.6129 71.1803 40.4408 71.607 40.3169C72.1233 40.1654 72.667 40.1861 73.197 40.2067C73.5137 40.2136 73.5137 39.7317 73.197 39.7179C72.3504 39.6904 71.2285 39.7799 70.4644 40.2136C70.1822 40.3788 69.4044 40.1861 69.5283 39.7317C69.666 39.236 70.5745 38.8091 71.0357 38.7196C71.0426 38.7196 71.0495 38.7127 71.0564 38.7059C71.724 38.6095 72.3986 38.5131 73.08 38.4924C73.3898 38.4855 73.3966 37.9967 73.08 38.0036C72.5913 38.0174 72.1026 38.0725 71.6208 38.1344C71.0908 38.2033 70.6571 38.1344 70.1271 38.0518C70.0101 38.0312 69.8931 38.0105 69.7967 37.9348C69.6178 37.7902 69.721 37.5423 69.8656 37.4184C70.017 37.2876 70.2235 37.2257 70.4644 37.1568C73.0869 36.427 75.7851 36.1861 78.4902 36.4546C78.6279 36.4683 78.7449 36.372 78.7586 36.2343C78.7724 36.1034 78.676 35.9795 78.5384 35.9658C75.7713 35.6904 73.0112 35.9313 70.3336 36.6818C70.0514 36.7644 69.7761 36.847 69.5558 37.0398C69.2667 37.2876 69.1428 37.68 69.2667 37.9899C69.3838 38.2928 69.6866 38.4855 70.1203 38.5475C69.9138 38.6783 69.721 38.8298 69.5008 39.0088C69.3356 39.1396 69.1428 39.3255 69.0671 39.5871C69.0052 39.8074 69.0465 40.0415 69.1841 40.248C69.3356 40.4752 69.5834 40.6473 69.8518 40.7093C69.6797 40.9158 69.5558 41.1637 69.5077 41.4253C69.4319 41.8728 69.6728 42.3479 70.079 42.5475C70.1271 42.575 70.1822 42.5957 70.2373 42.6095C70.1409 42.8298 70.1271 43.0639 70.1891 43.2704C70.3681 43.8418 70.9256 44.1585 71.3936 44.2618C72.0957 44.4133 72.8047 44.2687 73.5137 44.2687C74.202 44.2687 74.8972 44.3857 75.5717 44.4683C76.4528 44.5785 77.3614 44.6955 78.1873 44.6955C78.3594 44.6955 78.5315 44.6955 78.6898 44.6818C78.8275 44.6749 78.9238 44.5578 78.917 44.4201C78.9101 44.2824 78.7999 44.1723 78.6554 44.193L78.6623 44.2205Z" fill="#111111"/>
</g>
<defs>
<clipPath id="clip0_140_13263">
<rect width="109" height="65" fill="white"/>
</clipPath>
</defs>
</svg>
