<svg width="48" height="48" viewBox="0 0 48 48" fill="none" xmlns="http://www.w3.org/2000/svg">
    <rect x=".5" y=".5" width="47" height="47" rx="23.5" fill="#535353"/>
    <path d="m19.08 21 4.065-9c.809 0 1.584.316 2.156.879.571.562.893 1.325.893 2.121v4h5.75a2.06 2.06 0 0 1 .856.175c.269.119.508.294.701.512a1.99 1.99 0 0 1 .476 1.613l-1.402 9c-.074.477-.32.912-.693 1.224a2.052 2.052 0 0 1-1.34.476H19.081m0-11v11m0-11h-3.049a2.05 2.05 0 0 0-1.437.586A1.984 1.984 0 0 0 14 23v7c0 .53.214 1.04.595 1.414a2.05 2.05 0 0 0 1.437.586h3.049" stroke="#fff" stroke-width="2" stroke-linecap="round" stroke-linejoin="round"/>
    <rect x=".5" y=".5" width="47" height="47" rx="23.5" stroke="#F1F1F1"/>
</svg>
