<svg width="1200" height="292" viewBox="0 0 1200 292" fill="none" xmlns="http://www.w3.org/2000/svg">
<rect x="34.25" y="-83.75" width="0.5" height="458.5" stroke="#F1F1F1" stroke-width="0.5"/>
<rect x="21.25" y="-83.75" width="0.5" height="458.5" stroke="#F1F1F1" stroke-width="0.5"/>
<rect x="8.25" y="-83.75" width="0.5" height="458.5" stroke="#F1F1F1" stroke-width="0.5"/>
<rect x="47.25" y="-83.75" width="0.5" height="458.5" stroke="#F1F1F1" stroke-width="0.5"/>
<rect x="60.25" y="-83.75" width="0.5" height="458.5" stroke="#F1F1F1" stroke-width="0.5"/>
<rect x="73.25" y="-83.75" width="0.5" height="458.5" stroke="#F1F1F1" stroke-width="0.5"/>
<rect x="86.25" y="-83.75" width="0.5" height="458.5" stroke="#F1F1F1" stroke-width="0.5"/>
<rect x="99.25" y="-83.75" width="0.5" height="458.5" stroke="#F1F1F1" stroke-width="0.5"/>
<rect x="112.25" y="-83.75" width="0.5" height="458.5" stroke="#F1F1F1" stroke-width="0.5"/>
<rect x="125.25" y="-83.75" width="0.5" height="458.5" stroke="#F1F1F1" stroke-width="0.5"/>
<rect x="138.25" y="-83.75" width="0.5" height="458.5" stroke="#F1F1F1" stroke-width="0.5"/>
<rect x="151.25" y="-83.75" width="0.5" height="458.5" stroke="#F1F1F1" stroke-width="0.5"/>
<rect x="164.25" y="-83.75" width="0.5" height="458.5" stroke="#F1F1F1" stroke-width="0.5"/>
<rect x="177.25" y="-83.75" width="0.5" height="458.5" stroke="#F1F1F1" stroke-width="0.5"/>
<rect x="190.25" y="-83.75" width="0.5" height="458.5" stroke="#F1F1F1" stroke-width="0.5"/>
<rect x="203.25" y="-83.75" width="0.5" height="458.5" stroke="#F1F1F1" stroke-width="0.5"/>
<rect x="216.25" y="-83.75" width="0.5" height="458.5" stroke="#F1F1F1" stroke-width="0.5"/>
<rect x="229.25" y="-83.75" width="0.5" height="458.5" stroke="#F1F1F1" stroke-width="0.5"/>
<rect x="242.25" y="-83.75" width="0.5" height="458.5" stroke="#F1F1F1" stroke-width="0.5"/>
<rect x="255.25" y="-83.75" width="0.5" height="458.5" stroke="#F1F1F1" stroke-width="0.5"/>
<rect x="268.25" y="-83.75" width="0.5" height="458.5" stroke="#F1F1F1" stroke-width="0.5"/>
<rect x="281.25" y="-83.75" width="0.5" height="458.5" stroke="#F1F1F1" stroke-width="0.5"/>
<rect x="294.25" y="-83.75" width="0.5" height="458.5" stroke="#F1F1F1" stroke-width="0.5"/>
<rect x="307.25" y="-83.75" width="0.5" height="458.5" stroke="#F1F1F1" stroke-width="0.5"/>
<rect x="320.25" y="-83.75" width="0.5" height="458.5" stroke="#F1F1F1" stroke-width="0.5"/>
<rect x="333.25" y="-83.75" width="0.5" height="458.5" stroke="#F1F1F1" stroke-width="0.5"/>
<rect x="346.25" y="-83.75" width="0.5" height="458.5" stroke="#F1F1F1" stroke-width="0.5"/>
<rect x="359.25" y="-83.75" width="0.5" height="458.5" stroke="#F1F1F1" stroke-width="0.5"/>
<rect x="372.25" y="-83.75" width="0.5" height="458.5" stroke="#F1F1F1" stroke-width="0.5"/>
<rect x="385.25" y="-83.75" width="0.5" height="458.5" stroke="#F1F1F1" stroke-width="0.5"/>
<rect x="398.25" y="-83.75" width="0.5" height="458.5" stroke="#F1F1F1" stroke-width="0.5"/>
<rect x="411.25" y="-83.75" width="0.5" height="458.5" stroke="#F1F1F1" stroke-width="0.5"/>
<rect x="424.25" y="-83.75" width="0.5" height="458.5" stroke="#F1F1F1" stroke-width="0.5"/>
<rect x="437.25" y="-83.75" width="0.5" height="458.5" stroke="#F1F1F1" stroke-width="0.5"/>
<rect x="450.25" y="-83.75" width="0.5" height="458.5" stroke="#F1F1F1" stroke-width="0.5"/>
<rect x="463.25" y="-83.75" width="0.5" height="458.5" stroke="#F1F1F1" stroke-width="0.5"/>
<rect x="476.25" y="-83.75" width="0.5" height="458.5" stroke="#F1F1F1" stroke-width="0.5"/>
<rect x="489.25" y="-83.75" width="0.5" height="458.5" stroke="#F1F1F1" stroke-width="0.5"/>
<rect x="502.25" y="-83.75" width="0.5" height="458.5" stroke="#F1F1F1" stroke-width="0.5"/>
<rect x="515.25" y="-83.75" width="0.5" height="458.5" stroke="#F1F1F1" stroke-width="0.5"/>
<rect x="528.25" y="-83.75" width="0.5" height="458.5" stroke="#F1F1F1" stroke-width="0.5"/>
<rect x="541.25" y="-83.75" width="0.5" height="458.5" stroke="#F1F1F1" stroke-width="0.5"/>
<rect x="554.25" y="-83.75" width="0.5" height="458.5" stroke="#F1F1F1" stroke-width="0.5"/>
<rect x="567.25" y="-83.75" width="0.5" height="458.5" stroke="#F1F1F1" stroke-width="0.5"/>
<rect x="580.25" y="-83.75" width="0.5" height="458.5" stroke="#F1F1F1" stroke-width="0.5"/>
<rect x="593.25" y="-83.75" width="0.5" height="458.5" stroke="#F1F1F1" stroke-width="0.5"/>
<rect x="606.25" y="-83.75" width="0.5" height="458.5" stroke="#F1F1F1" stroke-width="0.5"/>
<rect x="619.25" y="-83.75" width="0.5" height="458.5" stroke="#F1F1F1" stroke-width="0.5"/>
<rect x="632.25" y="-83.75" width="0.5" height="458.5" stroke="#F1F1F1" stroke-width="0.5"/>
<rect x="645.25" y="-83.75" width="0.5" height="458.5" stroke="#F1F1F1" stroke-width="0.5"/>
<rect x="658.25" y="-83.75" width="0.5" height="458.5" stroke="#F1F1F1" stroke-width="0.5"/>
<rect x="671.25" y="-83.75" width="0.5" height="458.5" stroke="#F1F1F1" stroke-width="0.5"/>
<rect x="684.25" y="-83.75" width="0.5" height="458.5" stroke="#F1F1F1" stroke-width="0.5"/>
<rect x="697.25" y="-83.75" width="0.5" height="458.5" stroke="#F1F1F1" stroke-width="0.5"/>
<rect x="710.25" y="-83.75" width="0.5" height="458.5" stroke="#F1F1F1" stroke-width="0.5"/>
<rect x="723.25" y="-83.75" width="0.5" height="458.5" stroke="#F1F1F1" stroke-width="0.5"/>
<rect x="736.25" y="-83.75" width="0.5" height="458.5" stroke="#F1F1F1" stroke-width="0.5"/>
<rect x="749.25" y="-83.75" width="0.5" height="458.5" stroke="#F1F1F1" stroke-width="0.5"/>
<rect x="762.25" y="-83.75" width="0.5" height="458.5" stroke="#F1F1F1" stroke-width="0.5"/>
<rect x="775.25" y="-83.75" width="0.5" height="458.5" stroke="#F1F1F1" stroke-width="0.5"/>
<rect x="788.25" y="-83.75" width="0.5" height="458.5" stroke="#F1F1F1" stroke-width="0.5"/>
<rect x="801.25" y="-83.75" width="0.5" height="458.5" stroke="#F1F1F1" stroke-width="0.5"/>
<rect x="814.25" y="-83.75" width="0.5" height="458.5" stroke="#F1F1F1" stroke-width="0.5"/>
<rect x="827.25" y="-83.75" width="0.5" height="458.5" stroke="#F1F1F1" stroke-width="0.5"/>
<rect x="840.25" y="-83.75" width="0.5" height="458.5" stroke="#F1F1F1" stroke-width="0.5"/>
<rect x="853.25" y="-83.75" width="0.5" height="458.5" stroke="#F1F1F1" stroke-width="0.5"/>
<rect x="866.25" y="-83.75" width="0.5" height="458.5" stroke="#F1F1F1" stroke-width="0.5"/>
<rect x="879.25" y="-83.75" width="0.5" height="458.5" stroke="#F1F1F1" stroke-width="0.5"/>
<rect x="892.25" y="-83.75" width="0.5" height="458.5" stroke="#F1F1F1" stroke-width="0.5"/>
<rect x="905.25" y="-83.75" width="0.5" height="458.5" stroke="#F1F1F1" stroke-width="0.5"/>
<rect x="918.25" y="-83.75" width="0.5" height="458.5" stroke="#F1F1F1" stroke-width="0.5"/>
<rect x="931.25" y="-83.75" width="0.5" height="458.5" stroke="#F1F1F1" stroke-width="0.5"/>
<rect x="944.25" y="-83.75" width="0.5" height="458.5" stroke="#F1F1F1" stroke-width="0.5"/>
<rect x="957.25" y="-83.75" width="0.5" height="458.5" stroke="#F1F1F1" stroke-width="0.5"/>
<rect x="970.25" y="-83.75" width="0.5" height="458.5" stroke="#F1F1F1" stroke-width="0.5"/>
<rect x="983.25" y="-83.75" width="0.5" height="458.5" stroke="#F1F1F1" stroke-width="0.5"/>
<rect x="996.25" y="-83.75" width="0.5" height="458.5" stroke="#F1F1F1" stroke-width="0.5"/>
<rect x="1009.25" y="-83.75" width="0.5" height="458.5" stroke="#F1F1F1" stroke-width="0.5"/>
<rect x="1022.25" y="-83.75" width="0.5" height="458.5" stroke="#F1F1F1" stroke-width="0.5"/>
<rect x="1035.25" y="-83.75" width="0.5" height="458.5" stroke="#F1F1F1" stroke-width="0.5"/>
<rect x="1048.25" y="-83.75" width="0.5" height="458.5" stroke="#F1F1F1" stroke-width="0.5"/>
<rect x="1061.25" y="-83.75" width="0.5" height="458.5" stroke="#F1F1F1" stroke-width="0.5"/>
<rect x="1074.25" y="-83.75" width="0.5" height="458.5" stroke="#F1F1F1" stroke-width="0.5"/>
<rect x="1087.25" y="-83.75" width="0.5" height="458.5" stroke="#F1F1F1" stroke-width="0.5"/>
<rect x="1100.25" y="-83.75" width="0.5" height="458.5" stroke="#F1F1F1" stroke-width="0.5"/>
<rect x="1113.25" y="-83.75" width="0.5" height="458.5" stroke="#F1F1F1" stroke-width="0.5"/>
<rect x="1126.25" y="-83.75" width="0.5" height="458.5" stroke="#F1F1F1" stroke-width="0.5"/>
<rect x="1139.25" y="-83.75" width="0.5" height="458.5" stroke="#F1F1F1" stroke-width="0.5"/>
<rect x="1152.25" y="-83.75" width="0.5" height="458.5" stroke="#F1F1F1" stroke-width="0.5"/>
<rect x="1165.25" y="-83.75" width="0.5" height="458.5" stroke="#F1F1F1" stroke-width="0.5"/>
<rect x="1178.25" y="-83.75" width="0.5" height="458.5" stroke="#F1F1F1" stroke-width="0.5"/>
<rect x="1191.25" y="-83.75" width="0.5" height="458.5" stroke="#F1F1F1" stroke-width="0.5"/>
<rect x="1267.75" y="9.25001" width="0.500029" height="1322.5" transform="rotate(90 1267.75 9.25001)" stroke="#F1F1F1" stroke-width="0.500029"/>
<rect x="1267.75" y="22.25" width="0.500029" height="1322.5" transform="rotate(90 1267.75 22.25)" stroke="#F1F1F1" stroke-width="0.500029"/>
<rect x="1267.75" y="35.25" width="0.500029" height="1322.5" transform="rotate(90 1267.75 35.25)" stroke="#F1F1F1" stroke-width="0.500029"/>
<rect x="1267.75" y="48.25" width="0.500029" height="1322.5" transform="rotate(90 1267.75 48.25)" stroke="#F1F1F1" stroke-width="0.500029"/>
<rect x="1267.75" y="61.25" width="0.500029" height="1322.5" transform="rotate(90 1267.75 61.25)" stroke="#F1F1F1" stroke-width="0.500029"/>
<rect x="1267.75" y="74.25" width="0.500029" height="1322.5" transform="rotate(90 1267.75 74.25)" stroke="#F1F1F1" stroke-width="0.500029"/>
<rect x="1267.75" y="87.25" width="0.500029" height="1322.5" transform="rotate(90 1267.75 87.25)" stroke="#F1F1F1" stroke-width="0.500029"/>
<rect x="1267.75" y="100.25" width="0.500029" height="1322.5" transform="rotate(90 1267.75 100.25)" stroke="#F1F1F1" stroke-width="0.500029"/>
<rect x="1267.75" y="113.25" width="0.500029" height="1322.5" transform="rotate(90 1267.75 113.25)" stroke="#F1F1F1" stroke-width="0.500029"/>
<rect x="1267.75" y="126.25" width="0.500029" height="1322.5" transform="rotate(90 1267.75 126.25)" stroke="#F1F1F1" stroke-width="0.500029"/>
<rect x="1267.75" y="139.25" width="0.500029" height="1322.5" transform="rotate(90 1267.75 139.25)" stroke="#F1F1F1" stroke-width="0.500029"/>
<rect x="1267.75" y="152.25" width="0.500029" height="1322.5" transform="rotate(90 1267.75 152.25)" stroke="#F1F1F1" stroke-width="0.500029"/>
<rect x="1267.75" y="165.25" width="0.500029" height="1322.5" transform="rotate(90 1267.75 165.25)" stroke="#F1F1F1" stroke-width="0.500029"/>
<rect x="1267.75" y="178.25" width="0.500029" height="1322.5" transform="rotate(90 1267.75 178.25)" stroke="#F1F1F1" stroke-width="0.500029"/>
<rect x="1267.75" y="191.25" width="0.500029" height="1322.5" transform="rotate(90 1267.75 191.25)" stroke="#F1F1F1" stroke-width="0.500029"/>
<rect x="1267.75" y="204.25" width="0.500029" height="1322.5" transform="rotate(90 1267.75 204.25)" stroke="#F1F1F1" stroke-width="0.500029"/>
<rect x="1267.75" y="217.25" width="0.500029" height="1322.5" transform="rotate(90 1267.75 217.25)" stroke="#F1F1F1" stroke-width="0.500029"/>
<rect x="1267.75" y="230.25" width="0.500029" height="1322.5" transform="rotate(90 1267.75 230.25)" stroke="#F1F1F1" stroke-width="0.500029"/>
<rect x="1267.75" y="243.25" width="0.500029" height="1322.5" transform="rotate(90 1267.75 243.25)" stroke="#F1F1F1" stroke-width="0.500029"/>
<rect x="1267.75" y="256.25" width="0.500029" height="1322.5" transform="rotate(90 1267.75 256.25)" stroke="#F1F1F1" stroke-width="0.500029"/>
<rect x="1267.75" y="269.25" width="0.500029" height="1322.5" transform="rotate(90 1267.75 269.25)" stroke="#F1F1F1" stroke-width="0.500029"/>
<rect x="1267.75" y="282.25" width="0.500029" height="1322.5" transform="rotate(90 1267.75 282.25)" stroke="#F1F1F1" stroke-width="0.500029"/>
</svg>
