<svg width="151" height="99" viewBox="0 0 151 99" fill="none" xmlns="http://www.w3.org/2000/svg">
<g clip-path="url(#clip0_297_12844)">
<path d="M120.765 0H31.5457C28.6315 0 26.269 2.34414 26.269 5.23579V93.7642C26.269 96.6559 28.6315 99 31.5457 99H120.765C123.679 99 126.042 96.6559 126.042 93.7642V5.23579C126.042 2.34414 123.679 0 120.765 0Z" fill="#FFA127"/>
<path d="M87.1442 53.056C90.8598 53.056 93.8719 50.0672 93.8719 46.3803C93.8719 42.6935 90.8598 39.7047 87.1442 39.7047C83.4286 39.7047 80.4165 42.6935 80.4165 46.3803C80.4165 50.0672 83.4286 53.056 87.1442 53.056Z" fill="white"/>
<path d="M82.3862 41.6681C79.7567 44.2772 79.7567 48.5008 82.3862 51.1099C83.2393 51.9564 84.2682 52.5236 85.3587 52.8203C86.845 52.672 88.2785 52.0262 89.4217 50.9005C92.0513 48.2914 92.0513 44.0678 89.4217 41.4586C88.5687 40.6122 87.5397 40.045 86.4492 39.7483C84.963 39.8966 83.5295 40.5424 82.3862 41.6681Z" fill="black"/>
<path d="M65.1755 53.056C68.8911 53.056 71.9032 50.0672 71.9032 46.3803C71.9032 42.6935 68.8911 39.7047 65.1755 39.7047C61.4599 39.7047 58.4478 42.6935 58.4478 46.3803C58.4478 50.0672 61.4599 53.056 65.1755 53.056Z" fill="white"/>
<path d="M60.4267 41.6681C57.7972 44.2772 57.7972 48.5008 60.4267 51.1099C61.2798 51.9564 62.3087 52.5236 63.3992 52.8203C64.8855 52.672 66.319 52.0262 67.4623 50.9005C70.0918 48.2914 70.0918 44.0678 67.4623 41.4586C66.6092 40.6122 65.5803 40.045 64.4898 39.7483C63.0035 39.8966 61.57 40.5424 60.4267 41.6681Z" fill="black"/>
<path d="M76.8546 56.8606C75.9048 56.8606 75.1309 57.5151 75.1309 58.3179C75.1309 59.1207 75.9048 59.7752 76.8546 59.7752" stroke="black" stroke-width="2" stroke-linecap="round" stroke-linejoin="round"/>
<path d="M76.8546 59.7839C75.9048 59.7839 75.1309 60.4384 75.1309 61.2412C75.1309 62.044 75.9048 62.6985 76.8546 62.6985" stroke="black" stroke-width="2" stroke-linecap="round" stroke-linejoin="round"/>
<path d="M138.415 45.7258C138.583 46.0487 138.363 46.4327 138.002 46.4589L118.54 47.7067L121.609 70.6133L149.593 53.1519C150.912 52.4626 151.387 50.822 150.64 49.548L141.625 34.0762C141.511 33.8842 141.573 33.6399 141.757 33.5177L144.105 32.0168C145.389 31.1965 146.005 29.6694 145.644 28.2034L144.862 24.7478C144.413 22.8978 142.566 21.7285 140.684 22.1124L137.474 23.116L134.115 20.3497C133.543 19.9396 132.752 19.9832 132.233 20.4632C131.784 20.8733 131.644 21.5191 131.872 22.0775L138.389 45.7346L138.415 45.7258Z" fill="#FFA127"/>
<path d="M12.5846 45.7258C12.4175 46.0487 12.6374 46.4327 12.9979 46.4589L32.46 47.7067L29.3907 70.6133L1.3981 53.1519C0.078941 52.4626 -0.395957 50.822 0.351568 49.548L9.36584 34.0762C9.48016 33.8842 9.4186 33.6399 9.23392 33.5177L6.88581 32.0168C5.60183 31.1965 4.98622 29.6694 5.34679 28.2034L6.12949 24.7478C6.57801 22.8978 8.42483 21.7285 10.3068 22.1124L13.5168 23.116L16.8763 20.3497C17.4479 19.9396 18.2394 19.9832 18.7583 20.4632C19.2068 20.8733 19.3475 21.5191 19.1188 22.0775L12.6022 45.7346L12.5846 45.7258Z" fill="#FFA127"/>
</g>
<defs>
<clipPath id="clip0_297_12844">
<rect width="151" height="99" fill="white"/>
</clipPath>
</defs>
</svg>
