<svg width="191" height="151" viewBox="0 0 191 151" fill="none" xmlns="http://www.w3.org/2000/svg">
    <g clip-path="url(#4x2ibrqp3a)">
        <path d="m109.84 35.029-61.8 106.885c-2.336 4.038.586 9.086 5.256 9.086h123.602c4.671 0 7.593-5.048 5.257-9.086L120.344 35.029c-2.335-4.039-8.168-4.039-10.504 0z" fill="#F8485E"/>
        <path d="M127.714 106.976c4.272 0 7.734-3.458 7.734-7.723s-3.462-7.723-7.734-7.723c-4.271 0-7.734 3.458-7.734 7.723s3.463 7.723 7.734 7.723z" fill="#fff"/>
        <path d="M133.184 93.792a7.74 7.74 0 0 0-10.939 0 7.673 7.673 0 0 0-1.981 3.412 7.694 7.694 0 0 0 2.224 4.664 7.74 7.74 0 0 0 10.939 0 7.687 7.687 0 0 0 1.981-3.412 7.692 7.692 0 0 0-2.224-4.664z" fill="#000"/>
        <path d="M102.47 106.976c4.272 0 7.734-3.458 7.734-7.723s-3.462-7.723-7.734-7.723c-4.271 0-7.734 3.458-7.734 7.723s3.463 7.723 7.734 7.723z" fill="#fff"/>
        <path d="M107.94 93.792a7.74 7.74 0 0 0-10.939 0 7.676 7.676 0 0 0-1.982 3.412 7.693 7.693 0 0 0 2.225 4.664 7.74 7.74 0 0 0 10.938 0 7.68 7.68 0 0 0 1.982-3.412 7.692 7.692 0 0 0-2.224-4.664z" fill="#000"/>
        <path d="M122.761 115.344c-1.598 2.615-4.984 4.18-8.664 3.705" stroke="#000" stroke-width="2" stroke-linecap="round" stroke-linejoin="round"/>
        <path d="m179.253 139.027-3.831-6.844a1.653 1.653 0 0 1-.162-1.03l2.77-15.475c.354-1.969-1.304-3.715-3.296-3.483l-24.213 2.907.567-20.745 36.546 7.713a2.975 2.975 0 0 1 2.235 3.785l-9.544 25.904s2.982 3.018.172 7.581c-.263.434-1.011.142-1.244-.313zM77.327 93.61l-20.816 9.237a.686.686 0 0 1-.94-.636l-1.709-31.406c0-.918-1.101-1.393-1.769-.757l-2.699 4.32-8.29-3.906a1.967 1.967 0 0 0-1.314-.131l-.314.08c-.87.223-1.486 1-1.486 1.898 0 .667.344 1.282.9 1.646l4.68 3.008s-5.58 8.662 3.964 9.53l-1.294 24.571a3.515 3.515 0 0 0 3.457 3.695l39.843.565L77.317 93.59l.01.02z" fill="#F8485E"/>
        <path d="M40.769 8.542h-.478v-.084h.478A4.234 4.234 0 0 0 45 4.23 4.234 4.234 0 0 0 40.769 0a4.234 4.234 0 0 0-4.23 4.23v.4h-.077v-.4A4.234 4.234 0 0 0 32.23 0 4.234 4.234 0 0 0 28 4.23a4.234 4.234 0 0 0 4.231 4.228h.402v.084h-.402A4.234 4.234 0 0 0 28 12.77 4.234 4.234 0 0 0 32.231 17a4.234 4.234 0 0 0 4.23-4.23v-.484h.077v.485A4.234 4.234 0 0 0 40.77 17 4.234 4.234 0 0 0 45 12.77a4.234 4.234 0 0 0-4.231-4.228z" fill="#E2E2E2"/>
        <g clip-path="url(#3x8y11006b)">
            <path d="M21.031 56.068h-.787v-.136h.787c3.844 0 6.969-3.124 6.969-6.966S24.875 42 21.031 42c-3.843 0-6.968 3.124-6.968 6.966v.661h-.126v-.661c0-3.842-3.125-6.966-6.968-6.966C3.125 42 0 45.124 0 48.966s3.125 6.966 6.969 6.966h.661v.136H6.97C3.125 56.068 0 59.192 0 63.034S3.125 70 6.969 70c3.843 0 6.968-3.124 6.968-6.966v-.798h.126v.798c0 3.842 3.125 6.966 6.968 6.966C24.875 70 28 66.876 28 63.034s-3.125-6.966-6.969-6.966z" fill="#E2E2E2"/>
        </g>
    </g>
    <defs>
        <clipPath id="4x2ibrqp3a">
            <path fill="#fff" d="M0 0h191v151H0z"/>
        </clipPath>
        <clipPath id="3x8y11006b">
            <path fill="#fff" transform="translate(0 42)" d="M0 0h28v28H0z"/>
        </clipPath>
    </defs>
</svg>
