<svg width="14" height="12" viewBox="0 0 14 12" fill="none" xmlns="http://www.w3.org/2000/svg">
<path d="M11.6667 0.666626H2.33337C1.80294 0.666626 1.29423 0.87734 0.919161 1.25241C0.544088 1.62749 0.333374 2.13619 0.333374 2.66663V9.33329C0.333374 9.86372 0.544088 10.3724 0.919161 10.7475C1.29423 11.1226 1.80294 11.3333 2.33337 11.3333H11.6667C12.1971 11.3333 12.7058 11.1226 13.0809 10.7475C13.456 10.3724 13.6667 9.86372 13.6667 9.33329V2.66663C13.6667 2.13619 13.456 1.62749 13.0809 1.25241C12.7058 0.87734 12.1971 0.666626 11.6667 0.666626ZM2.33337 1.99996H11.6667C11.8435 1.99996 12.0131 2.0702 12.1381 2.19522C12.2631 2.32025 12.3334 2.48981 12.3334 2.66663L7.00004 5.91996L1.66671 2.66663C1.66671 2.48981 1.73695 2.32025 1.86197 2.19522C1.98699 2.0702 2.15656 1.99996 2.33337 1.99996ZM12.3334 9.33329C12.3334 9.5101 12.2631 9.67967 12.1381 9.8047C12.0131 9.92972 11.8435 9.99996 11.6667 9.99996H2.33337C2.15656 9.99996 1.98699 9.92972 1.86197 9.8047C1.73695 9.67967 1.66671 9.5101 1.66671 9.33329V4.18663L6.65337 7.23329C6.75472 7.2918 6.86968 7.32261 6.98671 7.32261C7.10373 7.32261 7.21869 7.2918 7.32004 7.23329L12.3334 4.18663V9.33329Z" fill="#111111"/>
</svg>
