<svg width="92" height="103" viewBox="0 0 92 103" fill="none" xmlns="http://www.w3.org/2000/svg">
    <g clip-path="url(#9c4qnrgwqa)">
        <path d="m70.623 91.654 2.215-4.165a.946.946 0 0 1 .47-.414l8.666-3.617c1.1-.463 1.45-1.87.692-2.8l-9.22-11.351 8.925-10.175 9.508 24.795c.368.986-.18 2.083-1.185 2.363l-16.075 3.556s-.565 2.49-3.755 2.545c-.307 0-.397-.463-.24-.73v-.007zM21.058 92.306l-2.035-4.257a.99.99 0 0 0-.45-.438l-8.505-3.988c-1.083-.506-1.372-1.93-.577-2.826l9.689-10.942-8.311-11.375L.144 83.66a1.801 1.801 0 0 0 1.09 2.41l15.912 4.25s.457 2.516 3.64 2.71c.302.019.416-.45.272-.718v-.006z" fill="#2DD5C1"/>
        <path d="M45.606 102.006c20.743 0 37.56-17.014 37.56-38.003S66.348 26 45.605 26c-20.744 0-37.56 17.014-37.56 38.003s16.816 38.003 37.56 38.003z" fill="#2DD5C1"/>
        <path d="M45.606 102.006c20.744 0 37.56-17.014 37.56-38.003S66.35 26 45.606 26c-20.743 0-37.56 17.014-37.56 38.003s16.817 38.003 37.56 38.003z" fill="#2DD5C1"/>
        <path d="M53.117 67.376c2.542 0 4.604-2.085 4.604-4.658 0-2.573-2.062-4.658-4.604-4.658-2.543 0-4.604 2.085-4.604 4.658 0 2.573 2.06 4.658 4.604 4.658z" fill="#fff"/>
        <path d="M53.117 58.06c-2.54 0-4.604 2.082-4.604 4.658 0 .834.222 1.62.602 2.302a4.55 4.55 0 0 0 2.9 1.041c2.54 0 4.604-2.082 4.604-4.658a4.73 4.73 0 0 0-.602-2.302 4.55 4.55 0 0 0-2.9-1.041z" fill="#000"/>
        <path d="M38.09 67.376c2.542 0 4.603-2.085 4.603-4.658 0-2.573-2.061-4.658-4.604-4.658-2.542 0-4.604 2.085-4.604 4.658 0 2.573 2.062 4.658 4.604 4.658z" fill="#fff"/>
        <path d="M38.09 58.06c-2.54 0-4.605 2.082-4.605 4.658 0 .834.223 1.62.602 2.302a4.55 4.55 0 0 0 2.9 1.041c2.54 0 4.605-2.082 4.605-4.658 0-.834-.223-1.62-.602-2.302a4.55 4.55 0 0 0-2.9-1.041z" fill="#000"/>
        <path d="M30.115 70.3c3.497 3.3 9.178 5.455 15.593 5.455 6.416 0 12.097-2.15 15.593-5.456" stroke="#000" stroke-width="2" stroke-linecap="round" stroke-linejoin="round"/>
        <g clip-path="url(#cdupma5tub)">
            <path d="M48.769 8.542h-.478v-.084h.478A4.234 4.234 0 0 0 53 4.23 4.234 4.234 0 0 0 48.769 0a4.234 4.234 0 0 0-4.23 4.23v.4h-.077v-.4A4.234 4.234 0 0 0 40.23 0 4.234 4.234 0 0 0 36 4.23a4.234 4.234 0 0 0 4.231 4.228h.402v.084h-.402A4.234 4.234 0 0 0 36 12.77 4.234 4.234 0 0 0 40.231 17a4.234 4.234 0 0 0 4.23-4.23v-.484h.077v.485A4.234 4.234 0 0 0 48.77 17 4.234 4.234 0 0 0 53 12.77a4.234 4.234 0 0 0-4.231-4.228z" fill="#E2E2E2"/>
        </g>
    </g>
    <defs>
        <clipPath id="9c4qnrgwqa">
            <path fill="#fff" d="M0 0h92v103H0z"/>
        </clipPath>
        <clipPath id="cdupma5tub">
            <path fill="#fff" transform="translate(36)" d="M0 0h17v17H0z"/>
        </clipPath>
    </defs>
</svg>
