<svg width="92" height="83" viewBox="0 0 92 83" fill="none" xmlns="http://www.w3.org/2000/svg">
<g clip-path="url(#clip0_370_8116)">
<path d="M65.7696 79.1522V25.0004C65.7696 12.0183 55.8873 0.946832 42.9458 0.0629036C28.6931 -0.919239 16.7148 10.4915 16.7148 24.554V83.0004H61.9166C64.0393 83.0004 65.7607 81.2772 65.7607 79.1522H65.7696Z" fill="#DEDEDE"/>
<path d="M31.3611 36.4022C34.2034 36.4022 36.5074 34.0957 36.5074 31.2504C36.5074 28.4052 34.2034 26.0986 31.3611 26.0986C28.5189 26.0986 26.2148 28.4052 26.2148 31.2504C26.2148 34.0957 28.5189 36.4022 31.3611 36.4022Z" fill="white"/>
<path d="M31.941 26.1338C31.0848 29.5266 31.1205 33.0088 31.9767 36.3659C34.5275 36.0624 36.5165 33.8927 36.5165 31.2499C36.5165 28.607 34.5186 26.4195 31.9499 26.1338H31.941Z" fill="#999999"/>
<path d="M49.5369 36.4022C52.3791 36.4022 54.6832 34.0957 54.6832 31.2504C54.6832 28.4052 52.3791 26.0986 49.5369 26.0986C46.6947 26.0986 44.3906 28.4052 44.3906 31.2504C44.3906 34.0957 46.6947 36.4022 49.5369 36.4022Z" fill="white"/>
<path d="M50.1168 26.1338C49.2606 29.5266 49.2962 33.0088 50.1525 36.3659C52.7033 36.0624 54.6923 33.8927 54.6923 31.2499C54.6923 28.607 52.6944 26.4195 50.1257 26.1338H50.1168Z" fill="#999999"/>
<path d="M41.6429 38.7951C41.6429 39.6611 41.0721 40.3665 40.3586 40.3665C39.645 40.3665 39.0742 39.6611 39.0742 38.7951C39.0742 37.929 39.645 37.2236 40.3586 37.2236C41.0721 37.2236 41.6429 37.929 41.6429 38.7951Z" fill="#999999"/>
<path d="M89.6179 42.7681C83.1605 34.9556 73.5368 31.1789 64.2967 27.6699C63.7526 31.411 63.1105 35.2771 62.5664 39.0092C64.6267 39.786 67.2221 40.8753 69.1397 41.9824C69.9692 42.4646 72.6093 43.6967 73.1801 44.4914C73.7509 45.286 73.7866 47.1431 71.8333 46.6342C71.8244 46.6342 71.8065 46.6431 71.7887 46.6521V57.3485C76.7923 58.5449 82.2686 57.7592 86.8797 55.1164C89.5109 53.6074 92.0974 51.0092 91.9904 47.8574C91.919 45.9021 90.8041 44.2056 89.609 42.7592L89.6179 42.7681Z" fill="#DEDEDE"/>
<path d="M32.6099 51.839L31.7626 51.8569C32.4316 51.7408 33.0024 51.0265 32.8418 50.339C32.6991 49.7229 31.8251 49.3033 31.1205 49.339C31.4059 49.0801 31.6199 48.6247 31.6645 48.2586C31.7359 47.6694 31.3345 47.089 30.7905 46.8569C30.291 46.6515 29.8718 46.7408 29.4437 46.8836C29.7469 46.7676 30.0234 46.6247 30.2553 46.4015C30.4515 46.214 30.6032 45.9551 30.5942 45.6872C30.5853 45.3211 30.2731 45.0086 29.9253 44.8926C29.078 44.5979 27.9096 44.9283 27.089 45.1604C26.5182 45.3212 24.8147 45.6694 24.4668 46.1604C25.1536 45.2051 25.5728 44.0622 25.6798 42.8926C25.7155 42.4997 25.6977 42.0444 25.3944 41.7854C24.8682 41.339 23.896 41.714 23.6106 42.339C22.8079 44.089 20.8279 46.4551 17.3494 47.6515C16.3148 48.0086 14.8878 48.3479 13.7372 47.9551C12.7561 47.6158 12.1496 46.9283 12.3102 45.8122C12.4707 44.6962 14.1921 43.2587 15.0037 42.6515C15.2267 42.4819 17.9649 40.8747 17.9827 40.9997C17.5367 37.5086 16.5289 33.3658 16.7697 30.7676C10.7315 33.7765 3.87276 39.5265 1.12569 45.8033C0.287302 47.7229 -0.194327 49.8479 0.0821637 51.9194C0.813526 57.4015 6.4682 59.2319 11.2934 59.1426C18.5714 59.0086 25.5817 56.5533 32.4405 54.1337C33.0291 53.9283 33.7159 53.6069 33.7962 52.9819C33.8764 52.3658 33.2343 51.8479 32.6189 51.8122L32.6099 51.839Z" fill="#DEDEDE"/>
<path d="M73.2173 46.9729C69.6943 46.6247 66.1088 46.9372 62.7018 47.8926C62.3807 47.9819 62.0596 48.0801 61.8099 48.2944C61.5601 48.5086 61.4085 48.8658 61.5244 49.1783C61.6582 49.5176 62.0507 49.6604 62.4163 49.7051C62.7731 49.7497 63.1566 49.7319 63.4777 49.9015C62.7463 50.0354 62.3093 50.3836 61.7296 50.8479C61.5334 51.0086 61.3461 51.1872 61.2747 51.4372C61.132 51.9461 61.6315 52.4551 62.1577 52.5176C62.6839 52.589 63.1923 52.3569 63.6739 52.1336C62.8623 52.3301 61.9972 52.9729 61.8634 53.7944C61.792 54.2408 62.0328 54.714 62.4342 54.9194C62.8355 55.1247 63.3618 55.0354 63.6739 54.714C63.0764 54.7408 62.559 55.4819 62.7374 56.0533C62.9158 56.6247 63.4866 56.9908 64.0664 57.1247C64.6461 57.2497 65.2526 57.1783 65.8413 57.1426C67.964 56.9997 71.0767 57.8301 73.4403 57.6694L73.2173 46.9819V46.9729Z" fill="#DEDEDE"/>
<path d="M33.8112 52.116C33.5258 51.7767 33.0709 51.5446 32.625 51.5267C32.9817 51.1607 33.2493 50.7142 33.1512 50.2678C33.0085 49.6696 32.3752 49.2321 31.7152 49.0803C31.849 48.8392 31.9471 48.5624 31.9739 48.3035C32.0631 47.5982 31.6082 46.8749 30.9036 46.5803C30.8055 46.5357 30.7074 46.5089 30.6093 46.4821C30.8055 46.2321 30.9036 45.9642 30.8947 45.6874C30.8768 45.1428 30.4398 44.7499 30.0117 44.6071C29.0752 44.2767 27.88 44.616 26.9881 44.866C26.89 44.8928 26.7652 44.9285 26.6225 44.9642C26.1587 45.0803 25.7038 45.2053 25.3203 45.3392C25.686 44.5892 25.9089 43.7767 25.9892 42.9374C26.007 42.6964 26.0784 41.9732 25.5968 41.5624C25.3114 41.3124 24.9189 41.2321 24.4908 41.3214C23.9824 41.4374 23.5186 41.7857 23.3224 42.2232C22.9211 43.0982 21.2978 46.0446 17.088 47.4285C17.0612 47.4374 17.0345 47.4553 17.0077 47.4732C15.8839 47.8035 14.4034 47.991 13.3509 47.4107C11.2995 46.2767 13.4758 44.0178 14.5461 43.1071C14.8582 42.8482 14.4123 42.4017 14.1001 42.6607C12.8068 43.7589 10.8625 45.8928 12.5036 47.5625C13.6809 48.75 15.9107 48.491 17.3466 48.0357C17.4002 48.0178 17.4358 47.991 17.4715 47.9642C21.7794 46.4821 23.474 43.4107 23.8932 42.491C24.0092 42.2321 24.3035 42.0178 24.6246 41.9464C24.7584 41.9196 25.0081 41.8928 25.1865 42.0446C25.347 42.1785 25.4005 42.4553 25.3649 42.8839C25.2578 43.9999 24.8565 45.0803 24.2054 45.991C24.1073 46.1339 24.134 46.3303 24.2767 46.4285C24.4195 46.5267 24.6157 46.4999 24.7138 46.3571C24.9368 46.0446 26.23 45.7142 26.7741 45.5803C26.9257 45.5446 27.0595 45.5089 27.1844 45.4732C27.7463 45.3124 30.1633 44.5624 30.2703 45.6785C30.2793 45.8035 30.2258 45.9285 30.1544 46.0267C29.8155 46.5178 29.2268 46.616 28.6917 46.7857C28.0673 46.991 27.4608 47.2321 26.8008 47.3214C26.4084 47.3749 26.3995 48.0089 26.8008 47.9553C27.9336 47.8035 28.9949 47.125 30.1276 47.0714C30.9839 47.0267 31.5815 47.9732 31.2069 48.741C30.975 49.2142 30.529 49.2678 30.0741 49.3928C29.2803 49.6249 28.4865 49.9196 27.7373 50.2857C27.3717 50.4642 27.6927 51.0089 28.0584 50.8303C28.6738 50.5267 29.316 50.2946 29.976 50.0892C30.7163 49.8571 31.5012 49.4464 32.2147 49.9821C32.3128 50.0535 32.402 50.1428 32.4555 50.2589C32.6874 50.7678 32.072 51.3125 31.6974 51.5535C31.2693 51.8303 30.7609 51.9374 30.2793 52.0982C29.762 52.2767 29.2357 52.4642 28.6828 52.5357C28.2903 52.5892 28.2814 53.2232 28.6828 53.1696C29.7976 53.0178 30.8947 52.5535 31.9828 52.25C32.4377 52.125 32.9817 52.116 33.3207 52.5267C33.4009 52.625 33.4901 52.7857 33.4723 52.9732C33.4099 53.4285 32.7944 53.6964 32.3217 53.866C27.2736 55.6517 22.0559 57.491 16.642 58.3571C16.4726 58.3839 16.3566 58.5446 16.3834 58.7232C16.4101 58.8749 16.5439 58.991 16.6956 58.991C16.7134 58.991 16.7312 58.991 16.7491 58.991C22.2164 58.116 27.7017 56.1785 32.5358 54.4732C32.9282 54.3303 33.9807 53.9642 34.0966 53.0625C34.1412 52.741 34.0342 52.4017 33.8023 52.1339L33.8112 52.116Z" fill="#999999"/>
<path d="M73.4226 57.3484C72.2364 57.4287 70.845 57.2502 69.4983 57.0805C68.5885 56.9645 67.6788 56.8662 66.769 56.8305C65.9128 56.8037 64.9852 57.0002 64.1379 56.8127C63.7276 56.7234 63.1925 56.4466 63.0409 55.9555C62.6752 54.7859 66.0198 54.2859 66.6353 54.1252C67.0277 54.018 66.8582 53.4109 66.4658 53.518C65.3331 53.8216 64.2628 54.1162 63.1836 54.5716C62.0865 55.0359 61.9973 53.6698 62.6038 53.0805C63.023 52.6698 63.7276 52.4466 64.2806 52.2859C64.9496 52.0895 65.6542 52.1162 66.3409 52.143C66.7512 52.152 66.7512 51.527 66.3409 51.5091C65.2439 51.4734 63.7901 51.5895 62.8001 52.152C62.4344 52.3662 61.4265 52.1162 61.5871 51.527C61.7655 50.8841 62.9428 50.3305 63.5403 50.2145C63.5493 50.2145 63.5582 50.2055 63.5671 50.1966C64.4322 50.0716 65.3063 49.9466 66.1893 49.9198C66.5907 49.9109 66.5996 49.277 66.1893 49.2859C65.556 49.3037 64.9228 49.3752 64.2985 49.4555C63.6117 49.5448 63.0498 49.4555 62.363 49.3484C62.2114 49.3216 62.0598 49.2948 61.9349 49.1966C61.703 49.0091 61.8368 48.6877 62.0241 48.527C62.2203 48.3573 62.4879 48.277 62.8001 48.1877C66.1982 47.2412 69.6945 46.9287 73.1997 47.277C73.3781 47.2948 73.5297 47.1698 73.5475 46.9912C73.5654 46.8216 73.4405 46.6609 73.2621 46.643C69.6766 46.2859 66.1001 46.5984 62.6306 47.5716C62.2649 47.6787 61.9082 47.7859 61.6227 48.0359C61.2481 48.3573 61.0876 48.8662 61.2481 49.268C61.3998 49.6609 61.7922 49.9109 62.3541 49.9912C62.0865 50.1609 61.8368 50.3573 61.5514 50.5895C61.3373 50.7591 61.0876 51.0002 60.9895 51.3395C60.9092 51.6252 60.9627 51.9287 61.1411 52.1966C61.3373 52.4912 61.6584 52.7145 62.0063 52.7948C61.7833 53.0627 61.6227 53.3841 61.5603 53.7234C61.4622 54.3037 61.7744 54.9198 62.3006 55.1787C62.363 55.2145 62.4344 55.2412 62.5057 55.2591C62.3809 55.5448 62.363 55.8484 62.4433 56.1162C62.6752 56.8573 63.3976 57.268 64.0041 57.402C64.9139 57.5984 65.8325 57.4109 66.7512 57.4109C67.6431 57.4109 68.5439 57.5627 69.418 57.6698C70.5596 57.8127 71.7369 57.9645 72.8072 57.9645C73.0302 57.9645 73.2532 57.9645 73.4583 57.9466C73.6367 57.9377 73.7616 57.7859 73.7527 57.6073C73.7437 57.4287 73.601 57.2859 73.4137 57.3127L73.4226 57.3484Z" fill="#999999"/>
<path d="M72.024 14.3766L74.8985 15.1468C75.3768 13.3618 75.6708 13.1921 76.9778 12.6726C78.4193 12.1147 80.8387 10.8746 81.4971 8.41733C82.3978 5.05591 80.1365 2.08956 77.1923 1.30068C74.8509 0.673302 72.0606 1.81399 70.6198 4.4095L73.2153 5.85037C74.0736 4.31624 75.2166 3.85227 76.4221 4.17527C78.1608 4.64115 79.0946 5.88523 78.6225 7.64708C78.3181 8.78301 77.1022 9.42623 75.8834 9.89475C74.2718 10.5313 72.8377 11.3397 72.024 14.3766ZM71.0024 18.0037C70.7787 18.8383 71.1318 19.6534 72.1286 19.9205C73.1023 20.1814 73.8156 19.652 74.0392 18.8175C74.2691 17.9597 73.916 17.1446 72.9424 16.8837C71.9455 16.6166 71.2322 17.146 71.0024 18.0037Z" fill="#999999"/>
<path d="M79.3965 20.3129L80.7994 21.7158C81.6706 20.8446 81.8969 20.8446 82.8246 20.9804C83.8428 21.1388 85.653 21.2293 86.8523 20.03C88.4927 18.3896 88.176 15.9232 86.7391 14.4863C85.5964 13.3436 83.6052 13.0721 81.9082 14.0903L82.9264 15.7874C83.9333 15.1878 84.7479 15.3009 85.3362 15.8892C86.1848 16.7377 86.3092 17.7673 85.4494 18.6271C84.895 19.1815 83.9786 19.1476 83.1187 19.0118C81.9761 18.8421 80.8786 18.8308 79.3965 20.3129ZM77.5976 22.0665C77.1904 22.4738 77.1225 23.0621 77.609 23.5486C78.0841 24.0238 78.6724 23.9559 79.0797 23.5486C79.4983 23.13 79.5662 22.5417 79.0911 22.0665C78.6046 21.58 78.0163 21.6479 77.5976 22.0665Z" fill="#999999"/>
</g>
<defs>
<clipPath id="clip0_370_8116">
<rect width="92" height="83" fill="white"/>
</clipPath>
</defs>
</svg>
