<svg width="124" height="120" viewBox="0 0 124 120" fill="none" xmlns="http://www.w3.org/2000/svg">
<circle cx="60" cy="60" r="59.5" fill="#F8F8F8" stroke="#DEDEDE"/>
<path d="M59.4999 57.1027C65.3677 57.1027 70.1245 52.3459 70.1245 46.4781C70.1245 40.6103 65.3677 35.8535 59.4999 35.8535C53.6321 35.8535 48.8753 40.6103 48.8753 46.4781C48.8753 52.3459 53.6321 57.1027 59.4999 57.1027Z" fill="#D7D7D7"/>
<path d="M67.4994 62.251H51.5006C45.6922 62.251 41 66.9432 41 72.7515V80.751H78V72.7515C78 66.9638 73.2872 62.251 67.4994 62.251Z" fill="#D7D7D7"/>
<circle cx="104" cy="100" r="20" fill="#555555"/>
<path d="M104 94L104 106M110 100L98 100" stroke="white" stroke-width="2" stroke-linecap="round"/>
</svg>
