<svg width="48" height="48" viewBox="0 0 48 48" fill="none" xmlns="http://www.w3.org/2000/svg">
    <g clip-path="url(#y7fes6vh6a)">
        <path d="M24 48c13.255 0 24-10.745 24-24S37.255 0 24 0 0 10.745 0 24s10.745 24 24 24z" fill="#CCC"/>
        <path d="M24 23.417a5.169 5.169 0 1 0 0-10.338 5.169 5.169 0 0 0 0 10.338zM27.892 25.92h-7.784A5.103 5.103 0 0 0 15 31.03v3.892h18v-3.892a5.116 5.116 0 0 0-5.108-5.108z" fill="#fff"/>
    </g>
    <defs>
        <clipPath id="y7fes6vh6a">
            <path fill="#fff" d="M0 0h48v48H0z"/>
        </clipPath>
    </defs>
</svg>
