<svg width="13" height="12" viewBox="0 0 13 12" fill="none" xmlns="http://www.w3.org/2000/svg">
    <path d="m5.378 2.128.486-.7A1 1 0 0 1 6.685 1h.381a1 1 0 0 1 .82.426l.479.684m-2.987.018a.845.845 0 0 1-.768.347m.768-.347a.845.845 0 0 1-.768.347m0 0-.869-.055a1 1 0 0 0-.835.364l-.235.286a1 1 0 0 0-.178.943l.244.75m0 0c.044.144.05.298.018.444m-.018-.444a.87.87 0 0 1 .018.446m0-.002a.843.843 0 0 1-.204.39m.204-.39v.002m-.204.388-.56.603a1 1 0 0 0-.24.915l.076.313a1 1 0 0 0 .627.705l.77.282a.873.873 0 0 1 .359.257M2.55 5.597a.827.827 0 0 0 .204-.389m.828 3.464c.092.114.155.25.18.398m-.18-.398c.093.114.156.25.18.398m-.18-.398-.002-.001a.922.922 0 0 0-.019-.022m.2.421.132.806a1 1 0 0 0 .566.747l.342.159a1 1 0 0 0 .91-.035l.733-.41m0 0a.878.878 0 0 1 .429-.112m-.429.111a.849.849 0 0 1 .429-.111m0 0a.889.889 0 0 1 .43.111m-.43-.111c.148 0 .297.037.43.111m0 0 .778.422a1 1 0 0 0 .907.023l.341-.163a1 1 0 0 0 .558-.754l.116-.775m0 0a.846.846 0 0 1 .178-.4m-.178.4a.832.832 0 0 1 .178-.4m0 0a.863.863 0 0 1 .355-.26m-.355.26a.847.847 0 0 1 .355-.26m0 0 .785-.307a1 1 0 0 0 .61-.708l.076-.33a1 1 0 0 0-.24-.901l-.57-.616m0 0a.868.868 0 0 1-.212-.383m.213.383a.877.877 0 0 1-.213-.383m0 0a.8.8 0 0 1 .011-.43l.243-.779a1 1 0 0 0-.182-.933l-.22-.267a1 1 0 0 0-.846-.363l-.853.063m0 0a.88.88 0 0 1-.435-.08m.435.08a.868.868 0 0 1-.435-.08m0 0a.868.868 0 0 1-.34-.285m.34.284a.857.857 0 0 1-.34-.284M2.755 5.21l.001-.003m5.813.8c0 .932-.773 1.688-1.726 1.688-.954 0-1.727-.756-1.727-1.689 0-.932.773-1.688 1.727-1.688.953 0 1.726.756 1.726 1.688z" stroke="#fff" stroke-width="1.5"/>
</svg>
