<svg width="30" height="30" viewBox="0 0 30 30" fill="none" xmlns="http://www.w3.org/2000/svg">
    <rect width="30" height="30" rx="4" fill="#FF5C01"/>
    <g clip-path="url(#k55pvumnaa)">
        <path d="M22.5 7.333H10.833a1.667 1.667 0 0 0 0 3.333H22.5v10.833a.833.833 0 0 1-.833.834H10.833A3.333 3.333 0 0 1 7.5 18.999V9a3.333 3.333 0 0 1 3.333-3.333h10.834a.833.833 0 0 1 .833.833v.834zm-.833 2.5H10.833a.833.833 0 0 1 0-1.667h10.834v1.667z" fill="#fff"/>
    </g>
    <defs>
        <clipPath id="k55pvumnaa">
            <path fill="#fff" transform="translate(5 4)" d="M0 0h20v20H0z"/>
        </clipPath>
    </defs>
</svg>
