<svg width="33" height="33" viewBox="0 0 33 33" fill="none" xmlns="http://www.w3.org/2000/svg">
<path fill-rule="evenodd" clip-rule="evenodd" d="M23.1739 6.39401L31.0038 15.1773C31.1052 15.2901 31.1857 15.4243 31.2406 15.5721C31.2925 15.7119 31.3206 15.8613 31.3235 16.0125C31.3236 16.02 31.3237 16.0276 31.3237 16.0352C31.3237 16.0357 31.3237 16.0362 31.3237 16.0368C31.3237 16.0374 31.3237 16.038 31.3237 16.0387C31.3237 16.1988 31.2955 16.3574 31.2406 16.5052C31.1857 16.6531 31.1052 16.7872 31.0038 16.9L23.1739 25.6833C23.0729 25.7958 22.953 25.8847 22.8213 25.9451C22.6895 26.0055 22.5484 26.0361 22.4061 26.0351C22.2637 26.0361 22.1226 26.0055 21.9909 25.9451C21.8591 25.8847 21.7393 25.7958 21.6382 25.6833C21.4368 25.456 21.3237 25.1485 21.3237 24.828C21.3237 24.5075 21.4368 24.2001 21.6382 23.9728L27.8228 17.0352H2.32373C1.77145 17.0352 1.32373 16.5874 1.32373 16.0352C1.32373 15.4829 1.77145 15.0352 2.32373 15.0352H27.8165L21.6382 8.10457C21.4368 7.87727 21.3237 7.56979 21.3237 7.24929C21.3237 6.92879 21.4368 6.62131 21.6382 6.39401C21.7388 6.2803 21.8584 6.19005 21.9902 6.12846C22.1219 6.06687 22.2633 6.03516 22.4061 6.03516C22.5488 6.03516 22.6902 6.06687 22.822 6.12846C22.9538 6.19005 23.0734 6.2803 23.1739 6.39401Z" fill="#111111"/>
</svg>
