<svg width="8" height="17" viewBox="0 0 8 17" fill="none" xmlns="http://www.w3.org/2000/svg">
<g clip-path="url(#clip0_38_16113)">
<path d="M8 0H0V17H8V0Z" fill="#676767"/>
<path fill-rule="evenodd" clip-rule="evenodd" d="M8 -152C3.58172 -152 0 -148.418 0 -144V1.0164C3.90902 1.2737 7 4.52588 7 8.5C7 12.4741 3.90902 15.7263 0 15.9836V59C0 63.4183 3.58175 67 8.00002 67H788.074C792.493 67 796.074 63.4183 796.074 59V-144C796.074 -148.418 792.493 -152 788.074 -152H8ZM534.5 1C538.642 1 542 4.35786 542 8.5C542 12.6421 538.642 16 534.5 16C530.358 16 527 12.6421 527 8.5C527 4.35786 530.358 1 534.5 1Z" fill="white"/>
<mask id="mask0_38_16113" style="mask-type:luminance" maskUnits="userSpaceOnUse" x="0" y="-152" width="797" height="219">
<path fill-rule="evenodd" clip-rule="evenodd" d="M8 -152C3.58172 -152 0 -148.418 0 -144V1.0164C3.90902 1.2737 7 4.52588 7 8.5C7 12.4741 3.90902 15.7263 0 15.9836V59C0 63.4183 3.58175 67 8.00002 67H788.074C792.493 67 796.074 63.4183 796.074 59V-144C796.074 -148.418 792.493 -152 788.074 -152H8ZM534.5 1C538.642 1 542 4.35786 542 8.5C542 12.6421 538.642 16 534.5 16C530.358 16 527 12.6421 527 8.5C527 4.35786 530.358 1 534.5 1Z" fill="#DEDEDE"/>
</mask>
<g mask="url(#mask0_38_16113)">
<path d="M0 1.0164H-1V1.95274L-0.0656785 2.01424L0 1.0164ZM0 15.9836L-0.0656785 14.9858L-1 15.0473V15.9836H0ZM1 -144C1 -147.866 4.13401 -151 8 -151V-153C3.02944 -153 -1 -148.971 -1 -144H1ZM1 1.0164V-144H-1V1.0164H1ZM8 8.5C8 3.9956 4.49686 0.310233 0.0656785 0.0185699L-0.0656785 2.01424C3.32118 2.23717 6 5.05616 6 8.5H8ZM0.0656785 16.9814C4.49686 16.6898 8 13.0044 8 8.5H6C6 11.9438 3.32118 14.7628 -0.0656785 14.9858L0.0656785 16.9814ZM1 59V15.9836H-1V59H1ZM8.00002 66C4.13403 66 1 62.866 1 59H-1C-1 63.9706 3.02946 68 8.00002 68V66ZM788.074 66H8.00002V68H788.074V66ZM795.074 59C795.074 62.866 791.94 66 788.074 66V68C793.045 68 797.074 63.9706 797.074 59H795.074ZM795.074 -144V59H797.074V-144H795.074ZM788.074 -151C791.94 -151 795.074 -147.866 795.074 -144H797.074C797.074 -148.971 793.045 -153 788.074 -153V-151ZM8 -151H788.074V-153H8V-151ZM543 8.5C543 3.80558 539.194 0 534.5 0V2C538.09 2 541 4.91015 541 8.5H543ZM534.5 17C539.194 17 543 13.1944 543 8.5H541C541 12.0899 538.09 15 534.5 15V17ZM526 8.5C526 13.1944 529.806 17 534.5 17V15C530.91 15 528 12.0899 528 8.5H526ZM534.5 0C529.806 0 526 3.80558 526 8.5H528C528 4.91015 530.91 2 534.5 2V0Z" fill="#DEDEDE"/>
</g>
<path d="M7 8.5C7 4.35786 3.64214 1 -0.5 1C-4.64214 1 -8 4.35786 -8 8.5C-8 12.6421 -4.64214 16 -0.5 16C3.64214 16 7 12.6421 7 8.5Z" fill="white"/>
</g>
<defs>
<clipPath id="clip0_38_16113">
<rect width="8" height="17" fill="white"/>
</clipPath>
</defs>
</svg>
