<svg width="24" height="24" viewBox="0 0 24 24" fill="none" xmlns="http://www.w3.org/2000/svg">
<path d="M2.7875 3.79327H6.36617V2H1V7.37981H2.7875V3.79327ZM2.7875 16.6147H1V21.9982H6.36617V20.2049H2.7875V16.6147ZM12.8195 19.6421C12.3025 19.5814 11.8368 19.9529 11.7763 20.4697C11.7653 20.5452 11.6535 21.1613 11.2208 21.8271C11.1842 21.8841 11.1402 21.943 11.098 22H13.2558C13.5675 21.2864 13.6353 20.7567 13.6445 20.6905C13.705 20.1736 13.3347 19.7046 12.8195 19.6439V19.6421ZM11.1952 14.8674C11.2062 13.773 11.4133 12.732 12.44 11.485C12.7737 11.0859 12.7223 10.49 12.3227 10.1552C11.9248 9.81865 11.3308 9.87199 10.9972 10.2729C9.668 11.8455 9.30317 13.488 9.31233 14.8674C9.31967 16.1714 9.57633 17.275 9.56717 18.0622C9.5635 18.568 9.4865 18.8953 9.2885 19.1915C9.08867 19.4857 8.7 19.826 7.8695 20.1607C7.3855 20.352 7.15083 20.9038 7.34333 21.3857C7.49 21.7554 7.84383 21.9816 8.21783 21.9816C8.33333 21.9816 8.4525 21.9595 8.56617 21.9136C9.613 21.496 10.3702 20.9553 10.845 20.2527C11.3235 19.552 11.4518 18.7666 11.45 18.0622C11.4408 16.9457 11.1897 15.901 11.1952 14.8674ZM15.718 8.30679C15.19 8.30679 14.6473 8.37852 14.0992 8.53301C13.5987 8.67464 13.3053 9.19514 13.4465 9.69726C13.5877 10.1994 14.1065 10.4918 14.607 10.3502C14.992 10.2417 15.3587 10.1939 15.718 10.1939C17.126 10.1865 18.5157 10.9792 19.909 12.1398C20.9577 13.0079 21.9715 14.0508 23 14.9759V12.3973C22.4005 11.8289 21.7717 11.2404 21.108 10.6868C19.5937 9.43241 17.841 8.31414 15.7162 8.30495L15.718 8.30679ZM23 8.01986V2H17.6338V3.79327H21.2125V6.69928C19.5387 5.6877 17.6008 5.08074 15.6025 5.07706C13.76 5.07706 11.8662 5.60677 10.1703 6.80964C7.0005 9.02961 5.994 12.1784 6.01783 15.2481C6.01783 16.1916 6.104 17.1389 6.236 18.0769C6.30933 18.5919 6.786 18.9524 7.29933 18.8788C7.8145 18.8052 8.172 18.327 8.09867 17.8102C7.974 16.9365 7.89883 16.0776 7.89883 15.2481C7.92267 12.5205 8.64133 10.227 11.2538 8.35277C12.6288 7.38164 14.1083 6.96781 15.6007 6.96597C17.8135 6.9623 20.0483 7.91135 21.7112 9.3993C22.1273 9.76899 22.56 10.1332 22.9982 10.4955V8.0217L23 8.01986ZM17.6925 16.0813C17.3735 15.6711 16.7813 15.5976 16.3725 15.9176C15.9618 16.2376 15.8903 16.8317 16.2093 17.2419C16.6493 17.8065 17.8795 19.2797 19.3462 20.661C19.8503 21.1337 20.3802 21.5898 20.9228 21.9982H23V21.1264C22.8955 21.0675 22.791 21.005 22.6828 20.9351C20.7047 19.6862 18.2498 16.8115 17.6925 16.0813ZM19.7715 13.8337C18.8805 13.0061 18.226 12.377 17.522 12.0386C16.9353 11.7738 16.3615 11.6377 15.8097 11.6377C14.772 11.6248 13.8682 12.1674 13.3512 12.9178C12.8232 13.6682 12.594 14.5878 12.5922 15.5387C12.5922 16.0408 12.66 16.5521 12.7938 17.0579C13.1917 18.4852 14.3118 20.2766 15.8738 22H18.5303C18.446 21.9228 18.3617 21.8473 18.2792 21.7683C16.3377 19.9584 14.8912 17.6962 14.6107 16.5687C14.519 16.2229 14.4732 15.8716 14.4732 15.5387C14.4713 14.9042 14.6418 14.3469 14.8838 14.014C15.1368 13.6811 15.3715 13.5376 15.8078 13.5247C16.0443 13.5247 16.3578 13.5836 16.7502 13.762C16.8987 13.8061 17.6632 14.4186 18.4772 15.2077C19.3168 16.004 20.3178 17.0009 21.3335 17.9518C21.9018 18.4815 22.4812 18.9432 22.9963 19.3552V16.9145C22.868 16.8023 22.7397 16.6882 22.6168 16.5705C21.6287 15.6472 20.635 14.6559 19.7678 13.8356L19.7715 13.8337Z" fill="#1B2574"/>
</svg>
