<svg width="182" height="148" viewBox="0 0 182 148" fill="none" xmlns="http://www.w3.org/2000/svg">
    <g clip-path="url(#df3v6qg91a)">
        <path d="M128.027 1.017c-1.081-.565-1.543-.8-1.936-1.017.122.06 1.134.565 2.729 1.086.898.296 1.823.608 2.712.904.951.39 1.962.851 2.895 1.416 1.535.93 2.345 1.851 2.616 2.52l2.337 1.59c1.438.895 3.173 2.338 4.952 3.737.907.686 1.744 1.442 2.529 2.163.785.713 1.508 1.382 2.145 1.956a20.633 20.633 0 0 1 1.456 1.442l.532.556c-.314-.825-.55-1.833-.802-2.754-.619-2.572-3.706-5.544-3.035-5.397.384 0 2.014.704 3.776 1.825.872.574 1.796 1.217 2.476 2.042.671.826 1.168 1.756 1.308 2.737.288 2.008-.715 3.398-1.508 3.876 0 0 .183.191.479.513l1.169 1.416c.941 1.182 2.328 2.677 3.452 4.38 1.169 1.65 2.398 3.267 3.148 4.605l1.317 2.164c0-.939.096-2.042.322-3.172.323-1.538-.035-3.267-.392-4.58-.358-1.337-.663-2.258-.253-2.18.392.095 2.006 1.077 3.479 2.624 1.395 1.59 2.546 3.797 1.979 6.013-.645 2.32-2.432 3.676-3.557 4.093 0 0 .471.903 1.168 2.25.75 1.339 1.5 3.224 2.311 5.092.854 1.834 1.439 3.79 1.953 5.232.244.712.454 1.312.602 1.737.148.418.2.66.2.66.323-.946.724-2.006 1.352-3.11.793-1.46 1.107-3.346 1.221-4.78.087-1.433.078-2.458.488-2.285.41.157 1.927 1.452 2.825 3.398.942 1.92 1.552 4.388.052 6.543-1.465 2.199-3.758 3.163-5.118 3.354 0 0 .253.982.645 2.46l1.029 5.5c.27 2.007.462 4.032.645 5.553.105.756.096 1.39.122 1.833.018.435.035.695.035.695 1.02-1.364 2.756-3.302 2.241-2.72 2.424-2.485 3.096-7.081 3.802-6.569.427.243 1.404 1.903 1.874 4.006.218 1.06.341 2.225.061 3.345-.279 1.121-.854 2.208-1.857 3.085-2.058 1.808-4.595 2.199-6.007 2.086 0 0 .078 1.017-.018 2.528-.078 1.53-.061 3.563-.27 5.588-.236 2.016-.419 4.05-.654 5.552-.279 1.495-.471 2.503-.471 2.503a16.229 16.229 0 0 1 2.816-2.138c2.956-1.86 4.683-6.178 5.302-5.509.314.33.889 2.164.802 4.328a8.778 8.778 0 0 1-.201 1.633 7.358 7.358 0 0 1-.636 1.6c-.558 1.024-1.36 1.954-2.529 2.571-2.354 1.295-4.865 1.112-6.173.67 0 0-.253.981-.645 2.458-.192.739-.428 1.6-.672 2.52-.235.921-.61 1.869-.933 2.833-.331.965-.654 1.921-.967 2.833-.323.895-.707 1.694-.994 2.398-.602 1.399-.995 2.338-.995 2.338.803-.548 1.832-1.078 3-1.512 3.27-1.13 5.816-4.953 6.26-4.163.184.383.288 2.286-.383 4.302-.75 1.99-2.197 4.101-4.595 4.84-2.529.712-4.648.095-5.677-.565 0 0-.47.895-1.168 2.251a24.155 24.155 0 0 1-1.273 2.259c-.506.808-1.029 1.677-1.552 2.537-.506.887-1.09 1.721-1.648 2.485-.558.765-1.064 1.495-1.509 2.112-.854 1.26-1.517 2.016-1.517 2.016.872-.365 1.866-.73 2.965-.982 1.482-.339 3.104-1.225 4.386-1.946 1.255-.73 2.092-1.321 2.162-.921.018.191-.078.738-.331 1.442s-.733 1.547-1.343 2.39c-.619.842-1.386 1.685-2.284 2.372a7.15 7.15 0 0 1-3.131 1.277c-2.31.33-3.836-.452-4.481-1.156l-.436.531c-.279.356-.698.825-1.221 1.364-1.073 1.086-2.398 2.615-3.889 3.997-1.5 1.356-2.947 2.772-4.133 3.719l-1.979 1.582a12.3 12.3 0 0 1 2.72-.713c2.607-.417 6.496-2.563 6.313-1.912-.096.331-1.177 1.669-2.799 2.911-1.587 1.269-3.889 2.242-5.763 2.468-1.919.235-2.826-.33-3.009-.808 0 0-.845.574-2.118 1.443-.628.425-1.361.947-2.172 1.459-.828.478-1.717.991-2.589 1.512-.898.496-1.744 1.06-2.616 1.478-.872.417-1.674.808-2.354 1.138l-2.294 1.121s1.866-1.043 3.715-2.086c.462-.269.933-.521 1.36-.764.419-.27.811-.522 1.142-.739l1.116-.73c-.296-.174-.226-.808.698-2.294 1.683-3.024 5.798-6.726 6.418-6.847.566-.183-1.683 3.215-2.939 5.24a12.006 12.006 0 0 1-1.578 2.198s.802-.608 2.014-1.503c.602-.461 1.308-.982 2.067-1.547.741-.565 1.482-1.251 2.249-1.903.759-.652 1.535-1.303 2.241-1.912.671-.651 1.308-1.268 1.84-1.79 1.072-1.043 1.787-1.755 1.787-1.755-.689-.461-1.351-1.686-1.36-3.815.009-4.049 3.854-7.673 4.648-7.803.671-.174-.628 3.597-.689 6.413a10.304 10.304 0 0 1-.506 2.928l1.657-1.868c.994-1.121 2.171-2.746 3.426-4.301 1.204-1.59 2.259-3.302 3.122-4.519.436-.617.759-1.156.968-1.538.226-.374.34-.591.34-.591-1.029-.434-2.538-1.851-3.375-4.066-.409-1.078-.427-2.086-.331-3.05a6.837 6.837 0 0 1 .794-2.633 9.156 9.156 0 0 1 1.342-1.886c.41-.478.785-.791.968-.843.366-.13.523.8.689 2.129.122 1.303.279 3.015.828 4.51.428 1.13.654 2.259.654 3.206 0 0 .532-.851 1.169-2.207.331-.669.715-1.451 1.133-2.285.419-.834.855-1.729 1.212-2.668.715-1.851 1.587-3.649 2.014-5.092.463-1.408.785-2.364.785-2.364-1.308-.243-3.453-1.39-4.961-3.388-1.535-1.956-1.561-3.972-.994-5.596.479-1.634 1.421-2.911 1.822-3.12.706-.391 1.482 3.458 3.375 6.126.758 1.025 1.316 2.086 1.656 3.033l.611-2.416c.183-.73.418-1.555.619-2.468.157-.92.34-1.903.514-2.885.175-.982.375-1.955.506-2.876.105-.93.192-1.79.279-2.537.157-1.486.27-2.468.27-2.468-1.421.052-3.871-.565-5.999-2.164-2.058-1.538-2.31-3.493-2.171-5.187.131-1.695.889-3.172 1.23-3.459.34-.27.837.478 1.604 1.582.75 1.086 1.866 2.528 3.121 3.606.994.808 1.797 1.72 2.372 2.563 0 0 .044-.99.096-2.485.096-1.495-.096-3.484-.131-5.466l-.052-1.486c-.052-.495-.096-.973-.148-1.433-.096-.93-.192-1.79-.271-2.529-.087-.747-.148-1.364-.191-1.79-.053-.434-.105-.67-.105-.67-1.343.366-3.941.34-6.261-.746-2.24-1.043-2.851-2.903-3.095-4.606-.183-1.712.27-3.345.514-3.684.524-.704 2.424 2.555 5.494 4.032a11.561 11.561 0 0 1 2.781 1.972l-.453-2.442c-.375-1.45-.872-3.371-1.36-5.309-.62-1.886-1.256-3.78-1.727-5.196-.235-.704-.506-1.269-.663-1.677a20.558 20.558 0 0 0-.252-.635c-1.116.635-3.436 1.13-5.703.496-2.119-.643-3.235-2.294-3.732-3.997-.453-1.721-.593-3.329-.453-3.72.131-.373.811.148 1.874.87 1.003.738 2.329 1.711 3.828 2.154 1.125.34 2.215.809 3.008 1.347 0 0-.087-.234-.279-.617-.191-.39-.47-.947-.802-1.625-.689-1.32-1.482-3.163-2.537-4.857-1.02-1.712-1.979-3.467-2.869-4.675-.837-1.243-1.404-2.068-1.404-2.068-.749.747-2.528 1.512-4.551 1.155-2.014-.321-3.235-1.929-4.124-3.536-.925-1.538-1.448-3.12-1.457-3.467-.008-.365.672.104 1.718.73 1.047.617 2.468 1.364 3.758 1.685 1.02.226 2.006.565 2.843.948l-1.535-1.964c-.881-1.217-2.284-2.66-3.601-4.163-1.282-1.538-2.816-2.85-3.871-3.919-.532-.53-.986-.973-1.3-1.268-.34-.287-.523-.452-.523-.452-.314.6-1.447 1.303-3.139.904-.802-.2-1.587-.687-2.293-1.321a22.714 22.714 0 0 1-2.075-2.016c-1.256-1.408-2.232-2.79-2.424-2.998-.279-.573 2.746 1.99 5.04 2.529.889.2 1.735.564 2.528.895 0 0-.287-.252-.741-.643-.436-.391-1.064-.87-1.691-1.321-1.256-.939-2.52-1.868-2.52-1.868-.646-.278-2.738-1.72-4.874-3.32-1.169-.92-2.799-1.633-3.985-2.294l-.035.018zM50.276 3.093c-2.39 1.173-4.7 2.373-5.11 2.998 0 0-1.307.895-2.615 1.782-.654.434-1.308.895-1.762 1.268-.462.374-.767.617-.767.617.506-.704.985-1.555 1.5-2.294.654-.99 1.866-2.068 2.851-2.833.977-.79 1.779-1.199 1.447-1.164-.33.017-1.979.521-3.845 1.347-.933.426-1.953.886-2.781 1.503-.829.635-1.518 1.356-1.919 2.146-.81 1.643-.27 2.842.288 3.233 0 0-.192.156-.55.434-.322.296-.793.73-1.36 1.243-1.107 1.043-2.685 2.338-4.037 3.858-1.395 1.486-2.85 2.911-3.775 4.136-.977 1.174-1.63 1.956-1.63 1.956.2-.895.34-1.956.383-3.042.018-1.45.733-2.998 1.36-4.162.61-1.173 1.108-1.973.715-1.92-.366.06-2.023.842-3.705 2.137-1.605 1.321-3.13 3.259-3.087 5.362.105 2.224 1.5 3.675 2.424 4.136 0 0-.593.825-1.474 2.068-.933 1.216-1.953 2.98-3.025 4.718-1.116 1.712-1.962 3.563-2.686 4.91-.34.686-.645 1.251-.846 1.642-.2.391-.287.643-.287.643-.157-.99-.358-2.094-.742-3.258-.496-1.512-.453-3.363-.296-4.762.192-1.382.384-2.346-.035-2.242-.392.122-2.049 1.2-3.235 2.954-1.23 1.738-2.24 4.032-1.212 6.309 1.02 2.337 3.043 3.554 4.282 3.884 0 0-.428.93-.986 2.346-.497 1.452-1.16 3.372-1.822 5.31a683.445 683.445 0 0 1-1.439 5.422c-.314 1.495-.48 2.503-.48 2.503-.418-.93-1.063-1.999-1.83-3.068-1.954-2.772-1.823-7.369-2.616-6.96-.41.2-1.648 1.677-2.442 3.693-.846 1.99-.941 4.562.715 6.57C5.58 60.6 8.04 61.33 9.435 61.373c0 0-.062.252-.114.695-.052.452-.122 1.078-.2 1.834-.079.756-.184 1.642-.288 2.607-.053.469-.105.964-.157 1.46-.018.503-.044 1.016-.053 1.511-.043 2.042-.235 4.076-.13 5.605l.087 2.555a16.78 16.78 0 0 0-2.555-2.564c-2.764-2.242-3.714-6.76-4.456-6.178-.366.287-1.238 2.025-1.508 4.162-.253 2.138.358 4.667 2.468 6.222 2.197 1.625 4.865 1.773 6.225 1.503 0 0 .105 1.017.28 2.53.086.755.182 1.641.287 2.597.14.947.358 1.947.532 2.946.192 1.008.375 2.007.558 2.946.218.938.462 1.79.654 2.528.384 1.486.645 2.468.645 2.468-.758-.651-1.77-1.338-2.947-1.929-3.217-1.547-5.188-5.709-5.764-4.988-.252.365-.706 2.25-.374 4.371.418 2.094 1.508 4.432 3.906 5.466 2.546 1.043 4.944.643 6.138.087 0 0 .332.964.829 2.415.453 1.46 1.36 3.302 2.136 5.188.375.947.837 1.86 1.282 2.703.427.842.837 1.642 1.186 2.32.67 1.381 1.229 2.233 1.229 2.233-.89-.461-1.91-.939-3.087-1.312-1.543-.478-3.104-1.556-4.325-2.425-1.177-.895-1.961-1.59-2.118-1.181-.079.199-.079.764.034 1.529.131.756.454 1.677.899 2.633.47.938 1.107 1.912 1.91 2.711a6.489 6.489 0 0 0 3.077 1.642c2.485.556 4.395-.191 5.258-.903 0 0 .13.217.366.599.227.383.558.921 1.02 1.538.898 1.225 2.014 2.937 3.288 4.527 1.307 1.556 2.546 3.181 3.592 4.293 1.046 1.112 1.744 1.851 1.744 1.851a13.173 13.173 0 0 0-2.965-.852c-2.842-.504-6.513-3.163-6.505-2.415.01.373.76 1.972 2.154 3.519.663.791 1.544 1.503 2.529 2.059.968.565 2.014.974 3.06 1.104 2.171.278 3.497-.521 3.924-1.173 0 0 .75.695 1.866 1.72.567.513 1.22 1.113 1.927 1.756.75.599 1.543 1.225 2.337 1.859.802.635 1.578 1.278 2.345 1.834.794.53 1.517 1.034 2.154 1.46 1.256.869 2.093 1.433 2.093 1.433a12.997 12.997 0 0 0-2.608-.79c-1.185-.252-2.868-.696-4.089-1.182-1.247-.461-2.162-.782-2.005-.504.174.252 1.351 1.486 3.156 2.416 1.796.938 4.011 1.859 5.798 2.024 1.832.217 2.425-.035 2.433-.365 0 0 .462.27 1.16.669.34.191.75.426 1.177.687.453.226.933.46 1.404.695L56.17 148s-.889-.504-2.214-1.251c-.663-.374-1.448-.809-2.285-1.278-.837-.452-1.657-1.06-2.52-1.59-.854-.556-1.718-1.112-2.511-1.625-.785-.547-1.482-1.103-2.101-1.547-1.212-.903-2.023-1.512-2.023-1.512.453-.356.61-1.242.096-3.084-1.02-3.546-5.005-7.178-5.72-7.265-.61-.174 1.281 3.389 2.031 5.84.28.903.698 1.764 1.143 2.476 0 0-.759-.643-1.893-1.625-1.133-.973-2.52-2.424-3.95-3.797-1.42-1.399-2.676-2.955-3.696-4.05a15.422 15.422 0 0 1-1.169-1.381c-.27-.339-.418-.548-.418-.548.828-.478 1.848-1.868 2.17-4.032.158-1.06.01-2.042-.243-2.989-.236-.964-.663-1.825-1.151-2.563-.471-.739-1.038-1.321-1.5-1.773-.436-.452-.828-.73-.994-.764-.34-.096-.358.842-.27 2.146.104 1.295.252 2.98.034 4.449-.174 1.103-.174 2.181.01 3.041 0 0-.646-.756-1.448-2.016-.419-.617-.907-1.338-1.439-2.103-.523-.764-1.081-1.59-1.552-2.467-.976-1.738-2.066-3.398-2.685-4.762a955.49 955.49 0 0 0-1.09-2.225c1.16-.408 2.92-1.729 4.02-3.867 1.133-2.103.897-4.145.147-5.7-.627-1.582-1.717-2.746-2.1-2.894-.376-.147-.585.748-.908 2.06-.148.643-.366 1.408-.575 2.181-.2.756-.462 1.547-.829 2.259a11.736 11.736 0 0 0-1.08 3.111l-.934-2.294c-.279-.695-.645-1.477-.941-2.364-.288-.877-.602-1.824-.907-2.763-.297-.938-.663-1.868-.88-2.763-.236-.904-.454-1.738-.629-2.468-.366-1.442-.61-2.39-.61-2.39 1.36-.147 3.653-1.103 5.476-2.945.88-.904 1.351-1.851 1.534-2.772.096-.47.122-.93.096-1.382 0-.452-.043-.886-.13-1.312-.332-1.668-1.265-3.024-1.64-3.25-.723-.47-1.648 3.276-3.993 5.787-.837.921-1.483 1.886-1.91 2.79l-.453-2.433c-.218-1.478-.384-3.45-.61-5.414-.192-1.964-.175-3.954-.254-5.431-.087-1.486-.008-2.476-.008-2.476 1.404.173 3.976-.218 6.147-1.6 1.064-.668 1.692-1.485 2.058-2.346.366-.868.55-1.763.523-2.624-.017-1.712-.724-3.258-.985-3.554-.672-.625-2.189 2.842-5.101 4.727-1.108.695-1.901 1.504-2.529 2.277 0 0 0-.252.018-.687.017-.434.008-1.06.104-1.79.175-1.477.384-3.44.61-5.404.358-1.955.698-3.893.968-5.362l.61-2.398c1.274.478 3.768.669 6.043-.226 2.154-.886 3.13-2.624 3.384-4.345.235-1.738.113-3.345-.105-3.719-.2-.365-.872.226-1.883 1.034-.977.834-2.233 1.947-3.759 2.555-1.116.469-2.153 1.043-2.903 1.65 0 0 .043-.242.192-.65.14-.418.331-1.009.566-1.713.497-1.399 1.03-3.31 1.84-5.127.759-1.824 1.465-3.684 2.171-4.996.663-1.338 1.108-2.224 1.108-2.224.994.695 3.095 1.312 5.249.825 2.188-.452 3.27-2.129 3.924-3.789.714-1.616.941-3.267.871-3.64-.078-.383-.758.121-1.796.79-.523.34-1.133.73-1.813 1.06-.663.34-1.326.67-2.05.852a13.653 13.653 0 0 0-2.894 1.138s.505-.869 1.255-2.146c.698-1.32 1.875-2.928 2.982-4.58 1.064-1.685 2.38-3.18 3.279-4.379.462-.59.837-1.078 1.107-1.434.288-.321.462-.512.462-.512.576.703 2.12 1.503 4.011 1.173.924-.157 1.718-.626 2.39-1.27.67-.65 1.342-1.355 1.84-2.137 1.045-1.512 1.726-3.041 1.83-3.345.105-.695-2.729 1.903-5.31 2.363-.968.157-1.84.522-2.66.87 0 0 .193-.2.515-.566.323-.364.785-.895 1.395-1.46.602-.59 1.3-1.268 2.05-1.998.74-.739 1.543-1.53 2.406-2.224 1.7-1.443 3.366-2.946 4.743-3.902 1.352-1 2.25-1.677 2.25-1.677.671-.06 1.848-.382 3.34-1.295.906-.556 1.743-1.225 2.528-1.885.741-.557 1.5-1.121 2.25-1.678 1.342-.99 2.345-1.555 2.45-1.616-.846.435-3.314 1.695-6.051 3.094l-.018.008z" fill="url(#zkrtxtgvub)"/>
    </g>
    <defs>
        <linearGradient id="zkrtxtgvub" x1="90.996" y1="-27.876" x2="90.996" y2="172.348" gradientUnits="userSpaceOnUse">
            <stop stop-color="#FFEAC4"/>
            <stop offset=".25" stop-color="#FCCEA2"/>
            <stop offset=".58" stop-color="#DDA922"/>
            <stop offset="1" stop-color="#E6A361"/>
        </linearGradient>
        <clipPath id="df3v6qg91a">
            <path fill="#fff" d="M0 0h182v148H0z"/>
        </clipPath>
    </defs>
</svg>
