<svg width="947" height="358" viewBox="0 0 947 358" fill="none" xmlns="http://www.w3.org/2000/svg">
    <path fill-rule="evenodd" clip-rule="evenodd" d="M0 65C0 29.102 29.102 0 65 0h248.281l343.455 228H882c35.898 0 65 29.101 65 65 0 35.898-29.102 65-65 65H617.514L274.059 130H65c-35.898 0-65-29.101-65-65z" fill="#FAFAFA"/>
    <path fill-rule="evenodd" clip-rule="evenodd" d="M0 293c0 35.899 29.102 65 65 65h248.281l343.455-228H882c35.898 0 65-29.101 65-65 0-35.898-29.102-65-65-65H617.514L274.059 228H65c-35.898 0-65 29.101-65 65z" fill="#FAFAFA"/>
</svg>
