<svg width="113" height="113" viewBox="0 0 113 113" fill="none" xmlns="http://www.w3.org/2000/svg">
<g opacity="0.5">
<path d="M86.0073 114.574C70.2468 114.574 57.4258 101.753 57.4258 85.9927C57.4258 70.2321 70.2468 57.4111 86.0073 57.4111C101.768 57.4111 114.589 70.2321 114.589 85.9927C114.589 101.753 101.768 114.574 86.0073 114.574ZM86.0073 68.4518C76.3329 68.4518 68.4665 76.3183 68.4665 85.9927C68.4665 95.6671 76.3329 103.534 86.0073 103.534C95.6817 103.534 103.548 95.6671 103.548 85.9927C103.548 76.3183 95.6817 68.4518 86.0073 68.4518Z" fill="#1E9951"/>
<path d="M93.5008 172H78.4992C71.3642 172 65.554 166.19 65.554 159.055V153.038C61.2206 151.727 57.0389 149.988 53.0505 147.862L48.7998 152.113C43.7487 157.164 35.5372 157.164 30.4999 152.113L19.887 141.5C14.8359 136.449 14.8359 128.238 19.887 123.2L24.1377 118.95C22.0124 114.961 20.2735 110.779 18.9624 106.446H12.9452C5.81016 106.446 0 100.636 0 93.5008V78.4992C0 71.3642 5.81016 65.554 12.9452 65.554H18.9624C20.2873 61.2206 22.0124 57.0389 24.1377 53.0505L19.887 48.7998C17.4443 46.3571 16.0918 43.1001 16.0918 39.6498C16.0918 36.1996 17.4443 32.9426 19.887 30.4999L30.4999 19.887C35.551 14.8359 43.7625 14.8359 48.7998 19.887L53.0505 24.1377C57.0389 22.0124 61.2206 20.2735 65.554 18.9624V12.9452C65.554 5.81016 71.3642 0 78.4992 0H93.5008C100.636 0 106.446 5.81016 106.446 12.9452V18.9624C110.779 20.2735 114.961 22.0124 118.95 24.1377L123.2 19.887C128.251 14.8359 136.463 14.8359 141.5 19.887L152.113 30.4999C157.164 35.551 157.164 43.7487 152.113 48.7998L147.862 53.0505C149.988 57.0389 151.727 61.2206 153.038 65.554H159.055C166.19 65.554 172 71.3642 172 78.4992V93.5008C172 100.636 166.19 106.446 159.055 106.446H153.038C151.713 110.779 149.988 114.961 147.862 118.95L152.113 123.2C157.164 128.251 157.164 136.463 152.113 141.5L141.5 152.113C136.449 157.164 128.238 157.164 123.2 152.113L118.95 147.862C114.961 149.988 110.779 151.727 106.446 153.038V159.055C106.446 166.19 100.636 172 93.5008 172ZM52.1258 135.455C53.1195 135.455 54.1269 135.731 55.024 136.283C60.3787 139.582 66.2027 141.997 72.3303 143.446C74.8144 144.039 76.5809 146.261 76.5809 148.815V159.055C76.5809 160.104 77.4366 160.959 78.4854 160.959H93.487C94.5358 160.959 95.3915 160.104 95.3915 159.055V148.815C95.3915 146.261 97.1442 144.026 99.6421 143.446C105.784 141.997 111.607 139.582 116.962 136.283C119.143 134.945 121.958 135.262 123.766 137.084L131.011 144.329C131.757 145.075 132.957 145.075 133.703 144.329L144.316 133.716C145.061 132.971 145.061 131.771 144.316 131.025L137.07 123.78C135.262 121.972 134.931 119.157 136.27 116.976C139.568 111.621 141.983 105.797 143.432 99.6559C144.026 97.1718 146.248 95.4053 148.801 95.4053H159.041C160.09 95.4053 160.946 94.5496 160.946 93.5008V78.4992C160.946 77.4504 160.09 76.5947 159.041 76.5947H148.801C146.248 76.5947 144.026 74.842 143.432 72.3441C141.983 66.2027 139.568 60.3787 136.27 55.0378C134.931 52.8573 135.248 50.0419 137.07 48.234L144.316 40.9885C145.061 40.2433 145.061 39.0426 144.316 38.2974L133.703 27.6845C132.957 26.9393 131.757 26.9393 131.011 27.6845L123.766 34.93C121.958 36.7379 119.143 37.0691 116.962 35.7304C111.607 32.432 105.784 30.0168 99.6421 28.5678C97.158 27.9743 95.3915 25.7524 95.3915 23.1992V12.959C95.3915 11.9101 94.5358 11.0545 93.487 11.0545H78.4854C77.4366 11.0545 76.5809 11.9101 76.5809 12.959V23.1992C76.5809 25.7524 74.8282 27.9743 72.3303 28.5678C66.1889 30.0168 60.3649 32.432 55.024 35.7304C52.8435 37.0829 50.0281 36.7517 48.2202 34.93L40.9747 27.6845C40.2295 26.9393 39.0288 26.9393 38.2836 27.6845L27.6707 38.2974C27.1877 38.7804 27.1187 39.3462 27.1187 39.636C27.1187 39.9259 27.1877 40.4917 27.6707 40.9747L34.9162 48.2202C36.7241 50.0281 37.0553 52.8435 35.7166 55.024C32.4182 60.3787 30.0031 66.2027 28.554 72.3303C27.9605 74.8144 25.7386 76.5809 23.1854 76.5809H12.9452C11.8963 76.5809 11.0407 77.4366 11.0407 78.4854V93.487C11.0407 94.5358 11.8963 95.3915 12.9452 95.3915H23.1854C25.7386 95.3915 27.9605 97.1442 28.554 99.6421C30.0031 105.784 32.4182 111.607 35.7166 116.962C37.0553 119.143 36.7379 121.958 34.9162 123.766L27.6707 131.011C26.9255 131.757 26.9255 132.957 27.6707 133.703L38.2836 144.316C39.0288 145.061 40.2295 145.061 40.9747 144.316L48.2202 137.07C49.2828 136.007 50.7043 135.455 52.1258 135.455Z" fill="#1E9951"/>
</g>
</svg>
