<svg width="191" height="128" viewBox="0 0 191 128" fill="none" xmlns="http://www.w3.org/2000/svg">
    <path d="M134.224 127 137 91H69l3.701 35.534 61.523.466z" fill="#FAFAFA"/>
    <path d="M34.957 95.24C32.744 88.997 30.07 80.573 28 73.647c3.176-1.136 1.72-.757 4.64-2.263l4.482-2.835c1.776-1.216 3.734-2.883 5.485-4.22 2.157-1.651 4.092-4.422 4.092-4.422l5.405 8.44s2.722-6.104 5.77-8.995c3.05-2.892 6.83-7.047 10.484-8.924 3.646-1.876 9.218-5.17 16.78-6.177 7.563-1.006 13.199-1.675 18.906-.942 5.708.741 12.474.137 19.041 2.352 6.567 2.214 14.989 7.312 18.643 9.93 3.646 2.617 10.881 9.06 13.795 14.432 2.913 5.371 6.034 10.067 8.024 19.73 1.99 9.665 1.99 13.088-.335 17.582-2.324 4.494-4.179 6.579-8.891 7.852-4.713 1.272-12.601 1.812-15.722 1.812h-4.441l1.791-25.771-67.129-.065 2.054 21.342s-4.116 2.279-9.154 2.416c-5.04.137-10.11-.564-13.398-2.682-4.577-2.955-10.738-9.591-13.365-17.009v.008z" fill="#fff"/>
    <path d="M72.574 70.897c.889-6.845 2.358-19.309 4.546-24.615 2.414-.881 5.127-1.635 8.17-2.036 7.671-1.002 13.387-1.667 19.177-.937 5.789.737 12.651.136 19.312 2.34a46.912 46.912 0 0 1 4.393 1.731c1.195 4.497 1.937 8.673 2.971 15.246 1.211 7.71 3.125 24.447 2.826 26.354-1.542.441-4.748 1.363-7 2.02L71 90.944c.137-2.733.71-13.338 1.582-20.038l-.008-.009z" fill="#7D79E7"/>
    <path d="M113 46.636 103.416 80 91 45" fill="#fff"/>
    <path d="m104.69 53.13 1.732 2.132-1.809 3.913L107 69.913 104.074 79l-3.496-9.697 1.316-10.128L100 55.35 101.402 53h3.249" fill="#7D79E7"/>
    <path d="M4.05 48.08h-.406c-1.118-1.84.023-4.114 2.141-4.195.47-.016 1.235.064 2.197.217-.258-1.181.547-3.142 2.994-3.101 2.329.04 11.786 2.434 19.118 6.942l.18-.225c-.665-2.274-.563-4.572 1.477-5.512 2.103-.964 5.51 2.82 8.191 6.926C42.452 52.908 44.57 58.5 46 60.26c-.82 1.648-4.049 4.902-7.66 7.714C31.61 73.22 27.632 74 27.632 74c-2.376-3.535-4.9-6.484-6.347-7.93-2.767-2.772-7.011-5.32-10.513-6.01-3.283-.643-6.276-1.808-5.768-4.46.125-.675.61-1.133 1.32-1.43l-.03-.105c-1.751-.104-4.385-1.133-4.292-3.358.047-1.013.485-2.242 2.064-2.644l-.016.016zM93.183 8c-1.15 1.19-3.251 3.103-4.625 5.968-1.366 2.865-2.972 6.754-2.46 9.476.519 2.722 1.35 5.953 3.466 7.429 2.126 1.476 3.148 1.762 3.148 1.762L91.274 44.88s4.37 4.223 6.679 4.73c2.301.508 7.973.699 10.601-.563 2.629-1.27 4.993-2.992 4.993-2.992l-1.19-18.373s2.237-.349 3.188-1.277c.95-.93 1.486-2.008 1.454-3.834-.04-1.825-2.421-3.65-3.651-3.928-1.231-.278-2.597.357-3.148.619-.224-1.064-1.454-8.841-1.454-8.841s-4.178.436-6.679.135c-2.508-.31-6.503-1.286-8.875-2.556h-.008z" fill="#FFE8E0"/>
    <path d="M107.675 10.092c-4.54.662-13.01.438-16.675-.528.398-5.76 7.462-8.892 13.542-8.537 6.079.364 11.041 3.463 12.682 7.487 1.641 4.025.469 9.47-1.555 12.619-2.024 3.148-4.438 5.346-6.587 5.867 1.133-4.702.703-11.544.703-11.544l-3.188 1.867s.375-3.718 1.094-7.222l-.016-.009z" fill="#181334"/>
    <path d="M116.024 20.979c.591.765.959 1.735.975 2.788.048 2.55-1.919 4.671-4.406 4.72-.096 0-.232.042-.375.1l1.319 19.31c-2.487 1.907-6.397 4.087-11.674 4.103-5.278.016-9.475-3.71-10.539-5.486l1.144-12.829s-.672-.197-1.816-.806c-6.14-3.281-5.972-13.323-.847-20.798.584-.847 1-1.357 1.663-2.081" stroke="#111" stroke-width=".7" stroke-linecap="round" stroke-linejoin="round"/>
    <path d="M107.675 10.092c-4.54.662-13.01.438-16.675-.528.398-5.76 7.462-8.892 13.542-8.537 6.079.364 11.041 3.463 12.682 7.487 1.641 4.025.469 9.47-1.555 12.619-2.024 3.148-4.438 5.346-6.587 5.867 1.133-4.702.703-11.544.703-11.544l-3.188 1.867s.375-3.718 1.094-7.222l-.016-.009zM92 32.633c4.061.891 10.609.087 14-1.633" stroke="#111" stroke-width=".7" stroke-linecap="round" stroke-linejoin="round"/>
    <path d="M100.126 18.112c-.183.795-.165 1.618.04 1.835.209.218.525-.255.708-1.06.183-.803.165-1.626-.04-1.834-.205-.218-.525.255-.708 1.06zM93.252 14.112c-.365.804-.33 1.627.08 1.835.419.218 1.05-.255 1.416-1.06.365-.803.33-1.626-.08-1.834-.41-.218-1.05.255-1.416 1.05v.01z" fill="#111"/>
    <path d="M97 15c-.61 1.17-2 2.605-2.82 3.137-.82.533-1.343 1.362-1.134 2.183.2.829 1.477 1.68 1.477 1.68M97 25.733c-2.005.917-5.568-.655-7-2.733M100 15.056c1.193-.296 2.841.62 3 1.944M97 13c-.857-1.697-3.458-2.665-5-1.469M134.224 127 137 91H69l3.701 35.534 61.523.466zM134 123H72" stroke="#111" stroke-width=".7" stroke-linecap="round" stroke-linejoin="round"/>
    <path d="M102 109.5c0 1.385.899 2.5 2 2.5s2-1.124 2-2.5-.899-2.5-2-2.5-2 1.115-2 2.5zM113 44c14.584 1.398 24.737 7.988 33.07 15.156 11.686 10.053 16.428 24.035 18.08 31.894 2.73 13.026-1.397 21.094-8.381 23.61-7.264 2.611-16.803 2.434-21.64 2.242M91 44c-10.588.578-20.138 4.81-25.915 9.424C59.978 57.507 55.472 62.144 53 68M113 46.636 103.416 80 91 45" stroke="#111" stroke-width=".7" stroke-linecap="round" stroke-linejoin="round"/>
    <path d="M109 59.529 102.098 52 97 60" stroke="#111" stroke-width=".7" stroke-linecap="round" stroke-linejoin="round"/>
    <path d="M106.373 57 105 59.995 107 70M100 55l1 3.43-.672 10.57M105 54h-4M105 59h-4M77 47c-2.664 6.384-6.196 35.119-5.992 44M128 48c2.723 7.085 5.115 38.47 4.996 41M143 87c-4.611.878-14.187 3.13-17 4M64 86c-2.121-3.214-13.545-19.05-17.262-25.783-1.79-3.246-3.255-5.938-3.919-7.165-2.744-5.105-8.023-12.182-10.914-10.9-2.186.97-2.218 3.407-1.449 5.755" stroke="#111" stroke-width=".7" stroke-linecap="round" stroke-linejoin="round"/>
    <path d="M33 49c-7.678-5.19-20.116-7.957-22.873-8-2.517-.035-3.345 1.688-3.08 2.733M19.775 54.82c-2.1-.589-14.95-3.83-15.718.08-.517 2.67 2.576 3.832 5.96 4.477 3.62.686 8.005 3.25 10.864 6.033 1.495 1.452 4.104 4.411 6.56 7.96 2.059 6.871 4.603 15.775 7.018 21.743 3.61 8.945 11.017 17.413 18.553 19.3 5.59 1.396 13.247.129 17.988-1.984" stroke="#111" stroke-width=".7" stroke-linecap="round" stroke-linejoin="round"/>
    <path d="M46 60c-1.32 3.273-13.247 12.524-18 14M51 68c-3.456 3.447-15.612 10.878-21 13M22 51.683c-2.985-1.452-11.265-3.07-15.738-3.62-3.413-.416-4.204 1.312-4.26 2.647-.095 2.238 2.74 3.235 4.505 3.29" stroke="#111" stroke-width=".7" stroke-linecap="round" stroke-linejoin="round"/>
    <path d="M24 47c-1.56 1.914-4.324 7.297-5 11M23 48c-2.985-1.914-14.876-5.102-17.45-4.998-2.088.087-3.225 2.53-2.12 4.513" stroke="#111" stroke-width=".7" stroke-linecap="round" stroke-linejoin="round"/>
    <path d="M4.825 122h18.358L25 100H3l1.825 22zM1 100h27l-1.84-5H2.84L1 100z" fill="#fff"/>
    <path d="M4.825 122h18.358L25 100H3l1.825 22zM1 100h27l-1.84-5H2.84L1 100z" stroke="#111" stroke-width=".7" stroke-linecap="round" stroke-linejoin="round"/>
    <path d="M1 100h27l-1.84-5H2.84L1 100z" fill="#181334"/>
    <path d="M1 100h27l-1.84-5H2.84L1 100z" stroke="#111" stroke-width=".7" stroke-linecap="round" stroke-linejoin="round"/>
    <path d="M28 106.58 26.871 116H2.965L2 106l26 .58z" fill="#FFCB81"/>
    <path d="M28 106.58 26.871 116H2.965L2 106l26 .58z" stroke="#111" stroke-width=".7" stroke-linecap="round" stroke-linejoin="round"/>
    <g clip-path="url(#mws9tcsvca)">
        <path d="M128.563 113.956c1.995 1.715 3.417 3.307 3.417 5.576 0 2.269-.228 3.798-1.253 4.469-1.025.671-2.224 1.348-2.224 1.348l32.401.245 3.075-5.694-1.822-4.043-3.016-1.529-30.578-.372z" fill="#fff"/>
        <path d="M184.494 113.172h-24.806v.029a6.137 6.137 0 0 0-.529-.029h-31.922l-.078 2.112h30.684c.656 0 1.28.161 1.84.441 0 0 2.574 1.249 2.511 4.297-.064 3.048-2.511 4.263-2.511 4.263-.56.28-1.18.441-1.84.441h-30.479l-.127 2.112h31.918c.178 0 .355-.014.528-.029v.029h24.807c3.508 0 6.351-3.057 6.351-6.831 0-3.773-2.843-6.835-6.347-6.835z" fill="#FFA3A2"/>
        <path d="M178.166 113.162s4.255 2.161 4.656 5.116c.397 2.949.087 4.856-1.503 6.38-1.595 1.524-3.663 2.072-3.663 2.072l3.59.094s1.54-.216 3.216-1.598c1.973-1.622 2.401-4.15 2.224-5.998-.164-1.725-.998-3.582-2.934-5.023-.629-.47-1.29-.71-1.964-1.038-1.253.068-3.617 0-3.617 0l-.005-.005z" fill="#fff"/>
        <path d="M159.683 113.172h24.807c3.508 0 6.351 3.057 6.351 6.83 0 3.774-2.843 6.831-6.351 6.831h-24.807" stroke="#111" stroke-width=".7" stroke-linecap="round" stroke-linejoin="round"/>
        <path d="M127.364 124.721h30.479c2.423 0 4.387-2.112 4.387-4.719 0-2.606-1.964-4.718-4.387-4.718h-30.684l.078-2.112h31.918c3.508 0 6.351 3.057 6.351 6.83 0 3.774-2.843 6.831-6.351 6.831h-31.918l.127-2.107v-.005zM131.925 118.067h26.879M131.998 121.517h20.706" stroke="#111" stroke-width=".7" stroke-linecap="round" stroke-linejoin="round"/>
        <path d="M129.797 115.288c1.189.613 2.274 2.338 2.274 4.504 0 2.166-.415 3.949-2.583 4.895M180.358 113.172c3.508 0 6.35 3.057 6.35 6.83" stroke="#111" stroke-width=".7" stroke-linecap="round" stroke-linejoin="round"/>
        <path d="M180.358 126.814c3.508 0 6.35-3.058 6.35-6.831M176.512 113.172c3.508 0 6.351 3.057 6.351 6.83" stroke="#111" stroke-width=".7" stroke-linecap="round" stroke-linejoin="round"/>
        <path d="M176.512 126.814c3.508 0 6.351-3.058 6.351-6.831" stroke="#111" stroke-width=".7" stroke-linecap="round" stroke-linejoin="round"/>
    </g>
    <defs>
        <clipPath id="mws9tcsvca">
            <path fill="#fff" transform="translate(127 113)" d="M0 0h64v14H0z"/>
        </clipPath>
    </defs>
</svg>
