<svg width="412" height="392" viewBox="0 0 412 392" fill="none" xmlns="http://www.w3.org/2000/svg">
<g filter="url(#filter0_d_2_17586)">
<rect x="12" y="8" width="380" height="360" rx="16" fill="#0C82E9"/>
</g>
<g clip-path="url(#clip0_2_17586)">
<mask id="mask0_2_17586" style="mask-type:alpha" maskUnits="userSpaceOnUse" x="12" y="8" width="380" height="360">
<rect x="12" y="8" width="380" height="360" rx="16" fill="#586DD5"/>
</mask>
<g mask="url(#mask0_2_17586)">
<path d="M112.153 199.702C110.484 182.367 127.619 171.036 143.017 168.695L143.273 170.205C128.778 173.597 113.908 183.401 113.686 199.668" fill="#111111"/>
<path d="M185.855 109.159C199.533 106.157 214.829 118.624 219.922 131.548C225.015 144.473 213.807 152.802 213.807 152.802L185.855 109.159Z" fill="#111111"/>
<path d="M222 189.459C211.712 193.953 201.305 185.218 197.064 176.381C195.65 173.396 194.781 170.156 195.224 166.611L196.706 166.17C204.814 174.753 207.522 187.898 221.694 187.949" fill="#111111"/>
<path d="M124.281 127.004C127.364 90.7562 196.535 78.2723 212.001 132.584L146.151 179.382C146.151 179.382 121.198 163.268 124.281 127.021" fill="#111111"/>
<path d="M112 227.384C128.233 227.621 164.854 207.369 151.176 172.597L143.171 169.459C127.313 175.684 114.555 189.084 116.65 203.162" fill="#111111"/>
<path d="M212.175 137.341C210.935 128.14 205.277 115.489 196.459 112.914C193.078 111.935 189.34 111.128 185.262 110.716C163.429 108.365 147.968 127.367 142.276 131.041L141.868 146.078C141.239 146.078 140.594 146.147 139.965 146.301C134.392 147.709 131.334 154.764 133.135 162.077C134.936 169.389 140.9 174.196 146.489 172.805C146.54 172.805 146.591 172.754 146.642 172.754C148.987 189.679 142.887 206.313 140.271 213.008L170.344 211.943L197.359 229.35L189.918 208.201C188.269 201.283 189.51 192.855 189.357 192.237C214.52 184.804 214.588 155.107 212.192 137.341H212.175Z" fill="#F5C7B6"/>
<path d="M180.49 150.107C182.372 150.107 183.897 148.588 183.897 146.715C183.897 144.841 182.372 143.322 180.49 143.322C178.609 143.322 177.083 144.841 177.083 146.715C177.083 148.588 178.609 150.107 180.49 150.107Z" fill="#111111"/>
<path d="M207.862 148.748C209.744 148.748 211.269 147.229 211.269 145.355C211.269 143.482 209.744 141.963 207.862 141.963C205.981 141.963 204.456 143.482 204.456 145.355C204.456 147.229 205.981 148.748 207.862 148.748Z" fill="#111111"/>
<path d="M197.745 146.814C197.745 146.814 202.463 151.683 201.833 153.158C201.202 154.634 197.847 156.669 197.387 156.568" stroke="#E49F7F" stroke-width="1.6" stroke-linecap="round" stroke-linejoin="round"/>
<path d="M211.03 136.994C211.03 136.994 207.658 135.078 204.694 136.994" stroke="#111111" stroke-width="1.6" stroke-linecap="round" stroke-linejoin="round"/>
<path d="M183.76 137.08C183.76 137.08 179.468 135.384 175.533 138.827" stroke="#111111" stroke-width="1.6" stroke-linecap="round" stroke-linejoin="round"/>
<path d="M205.794 163.645C205.842 167.657 201.854 170.962 196.884 171.023C191.914 171.084 187.843 167.877 187.795 163.865C187.795 163.658 187.795 163.462 187.819 163.255C190.573 163.609 193.603 163.792 196.8 163.743C199.986 163.706 203.016 163.45 205.758 163.023C205.782 163.231 205.794 163.426 205.794 163.633V163.645Z" fill="#E49F7F"/>
<path d="M186.111 108.463C188.666 107.31 190.71 108.463 192.465 110.058C195.377 112.415 197.285 115.994 197.847 119.607C198.631 125.188 196.859 131.548 191.937 134.669C191.579 134.873 191.119 134.771 190.898 134.415C190.71 134.11 190.778 133.753 191 133.516C195.003 128.224 194.849 119.862 190.302 115.045C188.547 113.06 186.605 112.992 185.583 109.871C185.345 109.345 185.566 108.701 186.094 108.48" fill="#111111"/>
<path d="M135.318 115.894L140.445 146.256C164.258 171.614 172.195 134.23 177.39 122.153C177.39 122.153 181.665 109.635 189.313 109.635C164.275 98.7798 135.301 115.894 135.301 115.894" fill="#111111"/>
<path d="M189.937 207.007L221.011 231.889L217.96 369.789H70.6102L114.427 224.68L144 201C144 201 165.093 213 178 213C190.5 213 189.937 207.007 189.937 207.007Z" fill="#FFE248"/>
<path d="M224.509 235.596L276.685 356.847L227.383 392.852L201.311 307.254L145.349 350.365L108.048 302.064L199.002 231.97C207.002 225.812 218.529 227.439 224.488 235.596H224.509Z" fill="#FFE248"/>
<path d="M219 284L218 370" stroke="#DDBF1E" stroke-width="1.6" stroke-miterlimit="10" stroke-linecap="round"/>
<path d="M263.179 332.444C266.252 332.176 269.035 330.199 270.169 327.109C271.736 322.866 269.551 318.17 265.303 316.625L246.106 309.581C244.56 309.025 242.889 308.922 241.302 309.313L218.62 314.957C214.228 316.048 211.568 320.477 212.661 324.864C213.753 329.251 218.187 331.909 222.579 330.817L242.827 325.791L259.674 331.97C260.829 332.403 262.025 332.547 263.179 332.444Z" fill="#FBCBB5"/>
<path d="M255.364 351.684C257.261 351.684 259.158 351.025 260.705 349.707C264.128 346.761 264.519 341.591 261.571 338.172L249.859 324.598C248.003 322.456 245.157 321.426 242.353 321.859L219.279 325.566C214.826 326.287 211.774 330.469 212.495 334.938C213.217 339.408 217.403 342.436 221.878 341.715L240.435 338.728L249.158 348.842C250.766 350.716 253.055 351.684 255.364 351.684Z" fill="#FBCBB5"/>
<path d="M255.364 351.684C257.261 351.684 259.158 351.025 260.705 349.707C264.128 346.761 264.519 341.591 261.571 338.172L249.859 324.598C248.003 322.456 245.157 321.426 242.353 321.859L219.279 325.566C214.826 326.287 211.774 330.469 212.495 334.938C213.217 339.408 217.403 342.436 221.878 341.715L240.435 338.728L249.158 348.842C250.766 350.716 253.055 351.684 255.364 351.684Z" stroke="#E49F7F" stroke-width="1.6" stroke-miterlimit="10"/>
<path d="M244.683 361.158C244.91 361.158 245.158 361.158 245.384 361.117C249.88 360.726 253.22 356.771 252.828 352.281L251.797 340.314C251.612 338.048 250.477 335.968 248.684 334.567C246.89 333.166 244.601 332.59 242.353 332.94L219.28 336.647C214.826 337.368 211.774 341.55 212.496 346.019C213.217 350.468 217.403 353.517 221.878 352.796L236.25 350.489L236.518 353.681C236.889 357.945 240.456 361.158 244.663 361.158H244.683Z" fill="#FBCBB5"/>
<path d="M242.353 332.939L219.279 336.647" stroke="#E49F7F" stroke-width="1.6" stroke-miterlimit="10"/>
<path d="M252.828 352.281L251.797 340.314C251.611 338.048 250.477 335.968 248.683 334.567C246.889 333.166 244.601 332.59 242.353 332.94" stroke="#E49F7F" stroke-width="1.6" stroke-miterlimit="10"/>
<path d="M171.338 321.941L183.648 323.63L225.919 313.27L240.827 346.02C240.827 346.02 229.074 368.78 185.937 368.78H171.524L172.431 324.021L171.338 321.962V321.941Z" fill="#FBCBB5"/>
<path d="M39.5363 315.842L114.428 224.678L165.379 272.464L126.985 314.689L179.916 321.939L180.535 323.113C180.844 323.69 181.009 324.349 180.989 325.008L180.102 368.757H64.3626C36.9794 368.757 22.0094 336.852 39.5569 315.842H39.5363Z" fill="#FFE248"/>
<path d="M165.379 272.465L126.985 314.69L179.916 321.94L181.009 324L180.102 368.758H64.3419" stroke="#DDBF1E" stroke-width="1.6" stroke-miterlimit="10" stroke-linecap="round"/>
<path d="M174 361.621H325.046V370.019H174V361.621Z" fill="#F85851"/>
<path d="M234.443 368.419H323.049L351.809 274.894C352.715 271.938 350.286 269.02 346.93 269.02H268.823C266.559 269.02 264.562 270.394 263.965 272.39L234.443 368.419Z" fill="#F85851"/>
<path d="M339.251 277.379H273.743C272.035 277.379 270.553 278.415 270.1 279.902L254.948 329.065" stroke="#D0140C" stroke-width="1.6" stroke-linecap="round" stroke-linejoin="round"/>
<path d="M325.581 358.986H243.295" stroke="#D0140C" stroke-width="1.6" stroke-linecap="round" stroke-linejoin="round"/>
<path opacity="0.5" d="M307.79 314C307.79 318.944 303.659 323 298.501 323C293.344 323 289.212 318.944 289.212 314C289.212 309.056 293.344 305 298.501 305C303.659 305 307.79 309.056 307.79 314Z" stroke="white" stroke-width="2"/>
</g>
<rect x="280" y="200" width="72" height="36" rx="18" fill="white"/>
<path d="M294 252C298.093 250.104 301.504 240.543 301.163 236H316C311.907 245.007 299.628 250.42 294 252Z" fill="white"/>
<circle cx="304" cy="218" r="3" fill="#111111"/>
<circle cx="316" cy="218" r="3" fill="#111111"/>
<circle cx="328" cy="218" r="3" fill="#111111"/>
</g>
<defs>
<filter id="filter0_d_2_17586" x="0" y="0" width="412" height="392" filterUnits="userSpaceOnUse" color-interpolation-filters="sRGB">
<feFlood flood-opacity="0" result="BackgroundImageFix"/>
<feColorMatrix in="SourceAlpha" type="matrix" values="0 0 0 0 0 0 0 0 0 0 0 0 0 0 0 0 0 0 127 0" result="hardAlpha"/>
<feOffset dx="4" dy="8"/>
<feGaussianBlur stdDeviation="8"/>
<feComposite in2="hardAlpha" operator="out"/>
<feColorMatrix type="matrix" values="0 0 0 0 0 0 0 0 0 0 0 0 0 0 0 0 0 0 0.04 0"/>
<feBlend mode="normal" in2="BackgroundImageFix" result="effect1_dropShadow_2_17586"/>
<feBlend mode="normal" in="SourceGraphic" in2="effect1_dropShadow_2_17586" result="shape"/>
</filter>
<clipPath id="clip0_2_17586">
<rect width="360" height="360" fill="white" transform="translate(12 8)"/>
</clipPath>
</defs>
</svg>
