<svg width="72" height="72" viewBox="0 0 72 72" fill="none" xmlns="http://www.w3.org/2000/svg">
<mask id="mask0_2047_70753" style="mask-type:alpha" maskUnits="userSpaceOnUse" x="0" y="0" width="72" height="72">
<rect width="72" height="72" fill="black"/>
</mask>
<g mask="url(#mask0_2047_70753)">
<path d="M30.7528 60.4326C33.5393 63.5882 38.4607 63.5882 41.2472 60.4326L63.7246 34.977C67.7152 30.4577 64.5065 23.3438 58.4774 23.3438H13.5226C7.49354 23.3438 4.28479 30.4577 8.27539 34.977L30.7528 60.4326Z" fill="url(#paint0_linear_2047_70753)"/>
<path d="M31.0414 13.8002C33.038 9.63958 38.962 9.63958 40.9586 13.8002L61.0121 55.5892C62.7642 59.2403 60.1032 63.4688 56.0535 63.4688H15.9465C11.8968 63.4688 9.2358 59.2403 10.9879 55.5892L31.0414 13.8002Z" stroke="#111111" stroke-width="3"/>
</g>
<defs>
<linearGradient id="paint0_linear_2047_70753" x1="36" y1="9" x2="36" y2="66.375" gradientUnits="userSpaceOnUse">
<stop stop-color="#2699FE"/>
<stop offset="1" stop-color="#3DEB82"/>
</linearGradient>
</defs>
</svg>
