<svg width="218" height="140" viewBox="0 0 218 140" fill="none" xmlns="http://www.w3.org/2000/svg">
<g clip-path="url(#clip0_2215_7291)">
<g style="mix-blend-mode:multiply" opacity="0.2">
<circle cx="109" cy="70" r="64" stroke="#999999" stroke-width="3" stroke-miterlimit="10"/>
</g>
<circle cx="109" cy="6" r="6" fill="url(#paint0_linear_2215_7291)"/>
<circle cx="109" cy="134" r="6" fill="url(#paint1_linear_2215_7291)"/>
<g clip-path="url(#clip1_2215_7291)">
<circle cx="45" cy="70" r="45" fill="#C9DDFD"/>
<mask id="mask0_2215_7291" style="mask-type:alpha" maskUnits="userSpaceOnUse" x="0" y="25" width="90" height="90">
<circle cx="45" cy="70" r="45" fill="#C9DDFD"/>
</mask>
<g mask="url(#mask0_2215_7291)">
</g>
<mask id="mask1_2215_7291" style="mask-type:alpha" maskUnits="userSpaceOnUse" x="0" y="25" width="90" height="90">
<circle cx="45" cy="70" r="45" fill="#C9DDFD"/>
</mask>
<g mask="url(#mask1_2215_7291)">
<path d="M17.8712 79.1892C17.8712 79.1892 17.2692 88.6707 13.7208 93.276C13.7208 93.276 4.29279 109.112 18.2023 119.065C18.2023 119.065 30.1453 123.67 39.6502 126.075L42.5365 82.042L17.8712 79.1892Z" fill="url(#paint2_linear_2215_7291)"/>
<path d="M74.483 60.8623C74.483 60.8623 78.3526 78.822 89.63 91.2533C89.63 91.2533 99.9409 100.668 96.1517 116.296C96.1517 116.296 91.9243 134.527 74.8877 135.888C74.8877 135.888 48.0386 137.022 39.6875 128.139L50.286 51.8691L74.483 60.8657V60.8623Z" fill="url(#paint3_linear_2215_7291)"/>
<path d="M27.8678 95.5159V89.623H55.1082V95.5159C55.4594 105.048 55.4159 109.452 60.5831 113.144C65.8439 115.827 73.4826 116.415 73.4826 116.415C69.8706 130.903 38.7606 131.98 38.7606 131.98C19.8712 132.415 14.1689 117.004 14.1689 117.004C18.8813 116.195 24.8879 114.315 26.4531 111.599C29.9948 105.452 27.8678 95.5159 27.8678 95.5159Z" fill="url(#paint4_radial_2215_7291)"/>
<path d="M68.3086 78.125C68.8705 81.8942 65.3856 87.0848 60.496 86.8306C56.8171 86.5396 55.4492 84.2152 54.884 80.4427C54.3188 76.6668 56.8205 74.0615 60.6699 73.105C65.0344 72.2522 67.7434 74.3525 68.3086 78.1284V78.125Z" fill="url(#paint5_radial_2215_7291)"/>
<path d="M18.0218 67.8148C14.5502 78.8816 18.5234 91.2426 29.7072 96.965C42.5365 100.727 53.4327 95.9382 60.2386 83.5304C60.2386 83.5304 64.0914 75.8515 63.9276 71.0322C64.7102 65.3299 63.1048 51.7247 50.717 47.2766C38.3325 42.8285 24.5902 49.5341 20.0251 62.253L18.0251 67.8182L18.0218 67.8148Z" fill="url(#paint6_radial_2215_7291)"/>
<path d="M42.6103 48.4896C42.6103 48.4896 37.2291 46.3023 29.6138 50.416C23.8613 53.7236 20.838 59.8172 20.4233 61.1984C20.4233 61.1984 17.0086 42.3024 35.1087 38.9077C43.53 34.8877 54.9379 35.6971 65.5531 45.3057C65.5531 45.3057 80.0379 56.2687 73.941 79.8771C73.941 79.8771 69.0447 78.2818 60.9044 71.3689C56.4395 67.1281 53.5967 64.1683 52.366 61.9944C50.3125 58.8373 42.6136 48.4862 42.6136 48.4862L42.6103 48.4896Z" fill="url(#paint7_linear_2215_7291)"/>
<path d="M30.7942 66.9255C29.9547 68.5676 29.7039 70.0827 31.9647 70.8619C33.7741 71.4873 34.9614 70.2967 35.3092 68.484C35.6637 66.6245 35.3861 64.9857 34.1386 64.5577C32.8945 64.1262 31.6571 65.2466 30.7942 66.9289V66.9255Z" fill="url(#paint8_radial_2215_7291)"/>
<path d="M30.1749 64.3643C29.8939 64.3643 29.6297 64.1971 29.516 63.9195C29.4993 63.8827 29.2418 63.3008 28.6163 63.2305C28.5796 63.2272 28.5428 63.2171 28.506 63.2071C28.4826 63.2004 27.7267 63.0131 27.3087 63.575C27.0746 63.8894 26.6297 63.9563 26.3154 63.7222C26.001 63.488 25.9341 63.0432 26.1682 62.7289C26.9475 61.6754 28.1883 61.6586 28.8404 61.8225C29.9943 61.983 30.6364 62.8794 30.8404 63.3911C30.9842 63.7556 30.8036 64.167 30.4391 64.3108C30.3521 64.3442 30.2652 64.3609 30.1782 64.3609L30.1749 64.3643Z" fill="#2D1713"/>
<path d="M43.7773 68.2519C43.493 68.2519 43.2255 68.0814 43.1151 67.8004C42.7405 66.8406 41.8174 66.5964 41.7773 66.5864C41.7539 66.5797 41.7238 66.573 41.7004 66.563C40.6603 66.1784 39.8844 66.6299 39.8777 66.6332C39.5432 66.8372 39.1051 66.7336 38.9011 66.3991C38.6971 66.0647 38.8008 65.6265 39.1352 65.4225C39.1887 65.3891 40.483 64.6132 42.1619 65.2185C42.4529 65.2988 43.8442 65.7603 44.4395 67.282C44.5833 67.6466 44.4027 68.0579 44.0382 68.2018C43.9545 68.2352 43.8642 68.2519 43.7806 68.2519H43.7773Z" fill="#2D1713"/>
<path d="M26.9545 72.6472C26.9545 72.6472 36.038 74.2526 37.9075 74.5335C37.9075 74.5335 39.3356 74.6305 39.4259 75.6907C39.4259 75.6907 39.5329 76.7709 38.2085 78.1422C38.2085 78.1422 35.5831 81.1455 30.4762 80.1488C30.4762 80.1488 25.6133 79.2191 25.5665 73.9917C25.5665 73.9917 25.4026 72.363 26.9511 72.6439L26.9545 72.6472Z" fill="url(#paint9_linear_2215_7291)"/>
<path d="M26.7245 72.6169C26.7245 72.6169 26.1693 73.6671 27.2362 73.9848C27.2362 73.9848 33.7846 76.1554 38.0755 75.8142C38.0755 75.8142 38.7912 75.6604 38.7377 74.8209C38.7377 74.8209 38.6708 74.6069 37.9116 74.5366C35.925 74.2122 28.6074 72.8745 26.7245 72.6203V72.6169Z" fill="#F3ECE4"/>
<path d="M27.3896 78.4772C27.3896 78.4772 29.7508 76.9388 32.6805 77.3602C32.6805 77.3602 36.0317 77.7415 37.734 78.5876C37.734 78.5876 35.7541 80.5107 32.1254 80.3468C32.1254 80.3468 29.1154 80.3836 27.3896 78.4772Z" fill="url(#paint10_radial_2215_7291)"/>
<path opacity="0.5" d="M26.6702 62.6245C26.6702 62.6245 27.436 61.7081 28.7905 62.2198C28.7905 62.2198 27.2488 62.3001 26.9812 62.9021C26.9812 62.9021 26.7371 63.0659 26.62 62.9221C26.62 62.9221 26.5096 62.7716 26.6702 62.6245Z" fill="white"/>
<path opacity="0.5" d="M39.5 65.5227C39.5 65.5227 40.9549 64.7201 42.4063 65.6666C42.4063 65.6666 40.5167 65.205 39.7442 65.8639C39.7442 65.8639 39.4699 65.9709 39.3863 65.8037C39.3863 65.8037 39.3127 65.6331 39.5 65.5227Z" fill="white"/>
</g>
</g>
<circle cx="173" cy="70" r="45" fill="#C9DDFD"/>
<g clip-path="url(#clip2_2215_7291)">
<mask id="mask2_2215_7291" style="mask-type:alpha" maskUnits="userSpaceOnUse" x="128" y="25" width="90" height="90">
<circle cx="173" cy="70" r="45" fill="#C9DDFD"/>
</mask>
<g mask="url(#mask2_2215_7291)">
<path d="M185.433 94.6504V89.0996H159.766V94.6504C160.724 103.336 158.209 109.86 154.055 112.93C149.927 115.985 145.145 117.373 145.145 117.373C148.55 131.025 175.171 129.013 175.171 129.013C192.971 129.423 198.347 117.373 198.347 117.373C193.904 116.609 191.543 114.058 189.507 111.922C184.076 106.211 185.438 94.6504 185.438 94.6504H185.433Z" fill="url(#paint11_radial_2215_7291)"/>
<path d="M200.369 71.5648C202.046 74.6846 200.628 80.3153 196.271 81.6331C192.961 82.5316 191.034 80.9292 189.357 77.8094C187.675 74.6846 189.042 71.6197 192.112 69.5731C195.662 67.4566 198.692 68.4449 200.369 71.5697V71.5648Z" fill="url(#paint12_radial_2215_7291)"/>
<path d="M145.075 71.5648C143.398 74.6846 144.816 80.3153 149.174 81.6331C152.483 82.5316 154.405 80.9292 156.087 77.8094C157.769 74.6846 156.402 71.6197 153.332 69.5731C149.783 67.4566 146.758 68.4449 145.075 71.5697V71.5648Z" fill="url(#paint13_radial_2215_7291)"/>
<path d="M195.157 74.0902C195.157 86.8241 187.221 100.062 172.71 100.062C158.473 100.062 150.257 86.8241 150.257 74.0902V68.5194C150.257 55.7855 160.31 45.4626 172.71 45.4626C185.109 45.4626 195.157 55.7855 195.157 68.5194V74.0902Z" fill="url(#paint14_radial_2215_7291)"/>
<path d="M165.736 57.9417C165.736 57.9417 172.75 51.3826 177.582 51.742C181.43 51.6871 182.778 53.2994 183.277 54.0332C187.365 59.9634 193.495 65.01 194.838 67.0067C195.202 69.5275 197.294 68.4443 198.013 64.8004C198.013 64.8004 200.683 47.3842 189.472 42.5023C184.121 37.1412 173.718 35.7285 164.658 38.1296C163.35 38.474 144.387 40.4208 147.192 64.8203C147.192 64.8203 147.716 70.6956 150.581 66.7471C152.568 66.852 154.949 66.193 156.806 64.5957C162.906 61.5058 165.726 57.9417 165.726 57.9417H165.736Z" fill="url(#paint15_linear_2215_7291)"/>
<path d="M167.373 72.3078C167.373 73.5657 166.639 74.594 165.736 74.594C164.832 74.594 164.094 73.5707 164.094 72.3078C164.094 71.0449 164.827 70.0216 165.736 70.0216C166.644 70.0216 167.373 71.0449 167.373 72.3078Z" fill="url(#paint16_radial_2215_7291)"/>
<path opacity="0.3" d="M165.736 71.6387C165.736 72.0081 165.496 72.3126 165.202 72.3126C164.907 72.3126 164.663 72.0131 164.663 71.6387C164.663 71.2643 164.902 70.9648 165.202 70.9648C165.501 70.9648 165.736 71.2643 165.736 71.6387Z" fill="white"/>
<path d="M181.43 72.3078C181.43 73.5657 180.696 74.594 179.793 74.594C178.889 74.594 178.151 73.5707 178.151 72.3078C178.151 71.0449 178.889 70.0216 179.793 70.0216C180.696 70.0216 181.43 71.0449 181.43 72.3078Z" fill="url(#paint17_radial_2215_7291)"/>
<path opacity="0.3" d="M179.793 71.6387C179.793 72.0081 179.548 72.3126 179.259 72.3126C178.969 72.3126 178.719 72.0131 178.719 71.6387C178.719 71.2643 178.954 70.9648 179.259 70.9648C179.563 70.9648 179.793 71.2643 179.793 71.6387Z" fill="white"/>
<path d="M174.981 75.8358C175.225 77.7676 174.981 79.3699 172.729 79.3699C170.927 79.3699 170.234 77.7676 170.478 75.8358C170.733 73.8491 171.486 72.3066 172.729 72.3066C173.972 72.3066 174.726 73.8491 174.981 75.8358Z" fill="url(#paint18_radial_2215_7291)"/>
<path d="M172.939 84.3585H172.929C169.56 84.3585 168.052 82.7412 167.992 82.6713C167.808 82.4667 167.823 82.1522 168.027 81.9675C168.232 81.7828 168.546 81.7978 168.731 81.9974C168.786 82.0573 170.044 83.3602 172.934 83.3602H172.944C173.748 83.3602 175.959 83.1256 176.718 82.0474C176.878 81.8227 177.187 81.7678 177.412 81.9276C177.636 82.0873 177.691 82.3968 177.532 82.6214C176.329 84.3236 173.164 84.3535 172.934 84.3535L172.939 84.3585Z" fill="#C65750"/>
<path d="M234.637 135.602C228.592 124.271 218.459 119.135 215.773 117.877C213.921 116.724 196.42 110.005 196.42 110.005C194.638 109.151 192.916 108.243 192.147 107.594C192.147 107.594 183.057 111.003 173.099 111.393C163.14 111.003 154.05 107.594 154.05 107.594C153.287 108.238 151.565 109.146 149.778 110.005C149.778 110.005 132.277 116.724 130.425 117.877C127.734 119.135 117.606 124.276 111.561 135.602C111.561 135.602 93.99 172.267 94 192.318C94 192.318 95.5624 210.968 114.875 224.695L125.438 215.34V203.355C124.799 202.067 124.195 200.705 123.706 199.322C123.706 199.322 121.704 196.956 125.438 188.115V203.35C123.656 207.913 125.438 210.823 125.438 210.823V241.272H169.779C171.067 241.272 172.165 241.153 173.104 240.943C174.042 241.153 175.141 241.272 176.428 241.272H220.77V215.335L231.332 224.69C250.645 210.963 252.208 192.313 252.208 192.313C252.218 172.262 234.647 135.597 234.647 135.597L234.637 135.602ZM222.492 199.322C222.008 200.705 221.404 202.067 220.765 203.355V188.12C224.499 196.961 222.492 199.327 222.492 199.327V199.322Z" fill="url(#paint19_linear_2215_7291)"/>
<path d="M171.037 111.854H174.552L178.755 116.965C178.755 116.965 177.122 120.484 176.334 122.077H169.31C169.31 122.077 167.129 118.557 166.949 116.965L171.037 111.854Z" fill="url(#paint20_linear_2215_7291)"/>
<path d="M172.665 111.559C172.665 111.559 176.294 117.439 177.527 119.536C177.527 119.536 179.569 123.409 182.938 120.444C182.938 120.444 190.82 113.506 193.211 109.907L187.406 102.943C187.406 102.943 175.166 110.506 172.665 111.559Z" fill="url(#paint21_linear_2215_7291)"/>
<path d="M172.665 111.559C172.665 111.559 169.041 117.439 167.808 119.536C167.808 119.536 165.766 123.409 162.397 120.444C162.397 120.444 154.52 113.506 152.124 109.907L157.929 102.943C157.929 102.943 170.169 110.506 172.67 111.559H172.665Z" fill="url(#paint22_linear_2215_7291)"/>
<path d="M182.434 78.9231C180.532 78.9231 178.979 78.4888 178.914 78.4738C174.377 76.4572 174.627 70.7067 174.632 70.6468C174.482 68.8448 175.365 68.146 175.405 68.116C177.252 67.1077 179.494 66.6035 182.104 66.6035C185.568 66.6035 188.494 67.512 188.524 67.522L188.568 67.542C190.086 68.3906 189.692 70.8964 189.672 71.0012C188.928 77.1361 186.487 78.0745 186.167 78.1693C185.149 78.6685 183.896 78.9231 182.439 78.9231H182.434ZM179.084 78.0046C179.084 78.0046 180.622 78.4239 182.434 78.4239C183.821 78.4239 185.009 78.1843 185.963 77.7101L186.013 77.6901C186.013 77.6901 188.439 76.9763 189.172 70.9263C189.172 70.8914 189.527 68.6801 188.339 67.9862C188.049 67.9014 185.314 67.0977 182.094 67.0977C179.573 67.0977 177.412 67.5769 175.67 68.5303C175.67 68.5303 174.996 69.0894 175.121 70.6368C175.121 70.7267 174.886 76.1377 179.074 78.0046H179.084Z" fill="#2A2F38"/>
<path d="M186.596 67.3105C186.596 67.3105 194.948 67.4952 196.5 67.5551C196.5 67.5551 197.169 67.4254 196.79 68.0992L189.626 69.9112C189.626 69.9112 189.487 67.3455 186.596 67.3105Z" fill="#2A2F38"/>
<path d="M158.802 67.3105C158.802 67.3105 150.451 67.4952 148.899 67.5551C148.899 67.5551 148.23 67.4254 148.614 68.0992L155.777 69.9112C155.777 69.9112 155.922 67.3455 158.807 67.3105H158.802Z" fill="#2A2F38"/>
<path d="M162.821 78.9231C161.364 78.9231 160.111 78.6685 159.092 78.1693C158.773 78.0745 156.332 77.1361 155.583 70.9912C155.568 70.8964 155.174 68.3906 156.691 67.542L156.736 67.522C156.766 67.512 159.691 66.6035 163.156 66.6035C165.761 66.6035 168.003 67.1077 169.82 68.096C169.89 68.146 170.778 68.8448 170.623 70.6818C170.623 70.7067 170.878 76.4572 166.375 78.4639C166.276 78.4938 164.723 78.9281 162.821 78.9281V78.9231ZM156.911 67.9912C155.728 68.6801 156.072 70.8964 156.077 70.9214C156.811 76.9763 159.217 77.6901 159.242 77.6951L159.292 77.7151C160.246 78.1893 161.434 78.4289 162.821 78.4289C164.653 78.4289 166.191 77.9996 166.206 77.9996C170.364 76.1477 170.129 70.7367 170.124 70.6818C170.254 69.1044 169.575 68.5453 169.545 68.5203C167.838 67.5919 165.677 67.1127 163.156 67.1127C159.936 67.1127 157.201 67.9113 156.911 68.0012V67.9912Z" fill="#2A2F38"/>
<path d="M174.876 69.9113H170.134V68.873H175.146L174.876 69.9113Z" fill="#2A2F38"/>
</g>
</g>
</g>
<defs>
<linearGradient id="paint0_linear_2215_7291" x1="103" y1="0" x2="115" y2="12" gradientUnits="userSpaceOnUse">
<stop stop-color="#2699FE"/>
<stop offset="1" stop-color="#3DEB82"/>
</linearGradient>
<linearGradient id="paint1_linear_2215_7291" x1="103" y1="128" x2="115" y2="140" gradientUnits="userSpaceOnUse">
<stop stop-color="#2699FE"/>
<stop offset="1" stop-color="#3DEB82"/>
</linearGradient>
<linearGradient id="paint2_linear_2215_7291" x1="-1.79403" y1="103.577" x2="33.9245" y2="102.48" gradientUnits="userSpaceOnUse">
<stop stop-color="#482934"/>
<stop offset="0.37" stop-color="#684334"/>
<stop offset="0.54" stop-color="#684334"/>
<stop offset="0.85" stop-color="#4C2C30"/>
<stop offset="0.99" stop-color="#462530"/>
</linearGradient>
<linearGradient id="paint3_linear_2215_7291" x1="103.272" y1="96.7565" x2="54.9411" y2="93.6138" gradientUnits="userSpaceOnUse">
<stop stop-color="#482934"/>
<stop offset="0.31" stop-color="#684334"/>
<stop offset="0.53" stop-color="#684334"/>
<stop offset="0.77" stop-color="#4C2C30"/>
<stop offset="0.99" stop-color="#462530"/>
</linearGradient>
<radialGradient id="paint4_radial_2215_7291" cx="0" cy="0" r="1" gradientUnits="userSpaceOnUse" gradientTransform="translate(40.7939 109.717) rotate(-89.85) scale(30.0063 23.705)">
<stop stop-color="#F6DCDB"/>
<stop offset="0.39" stop-color="#EDBDC7"/>
<stop offset="0.7" stop-color="#E4AEAD"/>
<stop offset="0.87" stop-color="#D598A9"/>
<stop offset="0.97" stop-color="#BA7F8C"/>
</radialGradient>
<radialGradient id="paint5_radial_2215_7291" cx="0" cy="0" r="1" gradientUnits="userSpaceOnUse" gradientTransform="translate(70.0038 76.6495) rotate(-15.28) scale(7.41382 6.65731)">
<stop stop-color="#BA7F8C"/>
<stop offset="0.28" stop-color="#D598A9"/>
<stop offset="0.5" stop-color="#E4AEAD"/>
<stop offset="0.63" stop-color="#EDBDC7"/>
<stop offset="0.82" stop-color="#F6DCDB"/>
<stop offset="1" stop-color="#D598A9"/>
</radialGradient>
<radialGradient id="paint6_radial_2215_7291" cx="0" cy="0" r="1" gradientUnits="userSpaceOnUse" gradientTransform="translate(40.1244 67.3945) rotate(-160.25) scale(26.5011 30.8724)">
<stop offset="0.2" stop-color="#F6DCDB"/>
<stop offset="0.42" stop-color="#EDBDC7"/>
<stop offset="0.62" stop-color="#E4AEAD"/>
<stop offset="0.8" stop-color="#D598A9"/>
<stop offset="0.97" stop-color="#BA7F8C"/>
</radialGradient>
<linearGradient id="paint7_linear_2215_7291" x1="23.2651" y1="44.6146" x2="93.6623" y2="69.9037" gradientUnits="userSpaceOnUse">
<stop stop-color="#482934"/>
<stop offset="0.37" stop-color="#684334"/>
<stop offset="0.69" stop-color="#684334"/>
<stop offset="1" stop-color="#4C2C30"/>
</linearGradient>
<radialGradient id="paint8_radial_2215_7291" cx="0" cy="0" r="1" gradientUnits="userSpaceOnUse" gradientTransform="translate(33.9026 65.5726) rotate(-160.97) scale(3.60745 4.98348)">
<stop offset="0.17" stop-color="#F6D9D6"/>
<stop offset="0.48" stop-color="#EDB4B3"/>
<stop offset="0.68" stop-color="#E4A6A5"/>
<stop offset="0.87" stop-color="#D09392"/>
<stop offset="1" stop-color="#C17E70"/>
</radialGradient>
<linearGradient id="paint9_linear_2215_7291" x1="38.9808" y1="78.2291" x2="25.1833" y2="75.6495" gradientUnits="userSpaceOnUse">
<stop stop-color="#250000"/>
<stop offset="0.48" stop-color="#2D0F0A"/>
<stop offset="1" stop-color="#53383A"/>
</linearGradient>
<radialGradient id="paint10_radial_2215_7291" cx="0" cy="0" r="1" gradientUnits="userSpaceOnUse" gradientTransform="translate(31.6671 78.7074) rotate(-178) scale(4.59526 1.65429)">
<stop offset="0.23" stop-color="#D22224"/>
<stop offset="0.73" stop-color="#E22F31"/>
<stop offset="1" stop-color="#5D1C1B"/>
</radialGradient>
<radialGradient id="paint11_radial_2215_7291" cx="0" cy="0" r="1" gradientUnits="userSpaceOnUse" gradientTransform="translate(171.811 114.776) rotate(-90.15) scale(25.4828 23.9538)">
<stop stop-color="#F6DCDB"/>
<stop offset="0.39" stop-color="#EDBDC7"/>
<stop offset="0.7" stop-color="#E4AEAD"/>
<stop offset="0.87" stop-color="#D598A9"/>
<stop offset="0.97" stop-color="#BA7F8C"/>
</radialGradient>
<radialGradient id="paint12_radial_2215_7291" cx="0" cy="0" r="1" gradientUnits="userSpaceOnUse" gradientTransform="translate(191.738 77.2702) rotate(-35.03) scale(6.88778 6.18495)">
<stop stop-color="#BA7F8C"/>
<stop offset="0.28" stop-color="#D598A9"/>
<stop offset="0.5" stop-color="#E4AEAD"/>
<stop offset="0.63" stop-color="#EDBDC7"/>
<stop offset="0.82" stop-color="#F6DCDB"/>
<stop offset="1" stop-color="#D598A9"/>
</radialGradient>
<radialGradient id="paint13_radial_2215_7291" cx="0" cy="0" r="1" gradientUnits="userSpaceOnUse" gradientTransform="translate(165.533 86.4898) rotate(-144.97) scale(6.88779 6.18495)">
<stop stop-color="#BA7F8C"/>
<stop offset="0.28" stop-color="#D598A9"/>
<stop offset="0.5" stop-color="#E4AEAD"/>
<stop offset="0.63" stop-color="#EDBDC7"/>
<stop offset="0.82" stop-color="#F6DCDB"/>
<stop offset="1" stop-color="#D598A9"/>
</radialGradient>
<radialGradient id="paint14_radial_2215_7291" cx="0" cy="0" r="1" gradientUnits="userSpaceOnUse" gradientTransform="translate(172.66 69.7449) scale(23.0381 29.2133)">
<stop offset="0.2" stop-color="#F6DCDB"/>
<stop offset="0.39" stop-color="#EDBDC7"/>
<stop offset="0.7" stop-color="#E4AEAD"/>
<stop offset="0.87" stop-color="#D598A9"/>
<stop offset="0.97" stop-color="#BA7F8C"/>
</radialGradient>
<linearGradient id="paint15_linear_2215_7291" x1="198.292" y1="52.6904" x2="146.912" y2="52.6904" gradientUnits="userSpaceOnUse">
<stop stop-color="#482934"/>
<stop offset="0.37" stop-color="#684334"/>
<stop offset="0.6" stop-color="#684334"/>
<stop offset="0.81" stop-color="#4C2C30"/>
<stop offset="0.99" stop-color="#462530"/>
</linearGradient>
<radialGradient id="paint16_radial_2215_7291" cx="0" cy="0" r="1" gradientUnits="userSpaceOnUse" gradientTransform="translate(163.934 72.5085) scale(2.04701 2.55876)">
<stop stop-color="#584D4E"/>
<stop offset="0.51" stop-color="#362122"/>
<stop offset="1" stop-color="#07070B"/>
</radialGradient>
<radialGradient id="paint17_radial_2215_7291" cx="0" cy="0" r="1" gradientUnits="userSpaceOnUse" gradientTransform="translate(178.07 264.514) scale(2.047 2.55876)">
<stop stop-color="#584D4E"/>
<stop offset="0.51" stop-color="#362122"/>
<stop offset="1" stop-color="#07070B"/>
</radialGradient>
<radialGradient id="paint18_radial_2215_7291" cx="0" cy="0" r="1" gradientUnits="userSpaceOnUse" gradientTransform="translate(172.776 75.6265) scale(3.39907 5.29133)">
<stop offset="0.17" stop-color="#F6D9D6"/>
<stop offset="0.48" stop-color="#EDB4B3"/>
<stop offset="0.68" stop-color="#E4A6A5"/>
<stop offset="0.87" stop-color="#D09392"/>
<stop offset="1" stop-color="#C17E70"/>
</radialGradient>
<linearGradient id="paint19_linear_2215_7291" x1="93.995" y1="174.433" x2="252.198" y2="174.433" gradientUnits="userSpaceOnUse">
<stop stop-color="#F9F3F8"/>
<stop offset="0.28" stop-color="#F5F7F7"/>
<stop offset="0.56" stop-color="#F5F7F7"/>
<stop offset="0.72" stop-color="#E4E2E8"/>
<stop offset="1" stop-color="#D3CFD5"/>
</linearGradient>
<linearGradient id="paint20_linear_2215_7291" x1="166.949" y1="116.965" x2="178.75" y2="116.965" gradientUnits="userSpaceOnUse">
<stop stop-color="#E78184"/>
<stop offset="0.51" stop-color="#E26E69"/>
<stop offset="1" stop-color="#D85645"/>
</linearGradient>
<linearGradient id="paint21_linear_2215_7291" x1="180.492" y1="107.416" x2="186.807" y2="116.895" gradientUnits="userSpaceOnUse">
<stop stop-color="white"/>
<stop offset="1" stop-color="#EAE3EB"/>
</linearGradient>
<linearGradient id="paint22_linear_2215_7291" x1="164.838" y1="107.416" x2="158.518" y2="116.895" gradientUnits="userSpaceOnUse">
<stop stop-color="white"/>
<stop offset="1" stop-color="#EAE3EB"/>
</linearGradient>
<clipPath id="clip0_2215_7291">
<rect width="218" height="140" fill="white"/>
</clipPath>
<clipPath id="clip1_2215_7291">
<rect width="90" height="90" fill="white" transform="translate(0 25)"/>
</clipPath>
<clipPath id="clip2_2215_7291">
<rect width="90" height="90" fill="white" transform="translate(128 25)"/>
</clipPath>
</defs>
</svg>
