<svg width="620" height="432" viewBox="0 0 620 432" fill="none" xmlns="http://www.w3.org/2000/svg">
<g clip-path="url(#clip0_2158_11491)">
<ellipse cx="310" cy="420" rx="300" ry="20" fill="#E0EDFE"/>
<rect x="50" width="220" height="420" rx="32" fill="white"/>
<path fill-rule="evenodd" clip-rule="evenodd" d="M100 10H84C70.7452 10 60 20.7452 60 34V386C60 399.255 70.7452 410 84 410H236C249.255 410 260 399.255 260 386V34C260 20.7452 249.255 10 236 10H220V14C220 20.6274 214.627 26 208 26H112C105.373 26 100 20.6274 100 14V10Z" fill="url(#paint0_linear_2158_11491)"/>
<rect x="130.75" y="10.75" width="41.5" height="4.5" rx="2.25" fill="#111111" stroke="#111111" stroke-width="1.5"/>
<circle cx="185" cy="13" r="3.25" fill="#111111" stroke="#111111" stroke-width="1.5"/>
<mask id="mask0_2158_11491" style="mask-type:alpha" maskUnits="userSpaceOnUse" x="8" y="10" width="292" height="400">
<path d="M55.9389 28.9779C58.3075 17.9091 68.0881 10 79.4076 10H241.011C252.14 10 261.808 17.6496 264.368 28.4794L285.602 118.314C285.867 119.437 286.051 120.577 286.152 121.725L299.788 276.261C300.538 284.768 296.712 293.033 289.74 297.965L270.141 311.827C263.781 316.326 260 323.631 260 331.421V386C260 399.255 249.255 410 236 410H92C74.3269 410 60 395.673 60 378V366.776C60 358.789 56.0268 351.326 49.401 346.866L18.599 326.134C11.9732 321.674 8 314.211 8 306.224V255.539C8 253.851 8.1781 252.168 8.53133 250.517L55.9389 28.9779Z" fill="white"/>
</mask>
<g mask="url(#mask0_2158_11491)">
<path d="M70.9998 171C84.1673 159.476 97.7168 155.956 102.538 154C100.98 192.752 106.092 222.482 104.533 261.235L97.5506 270.838C102.738 275.959 109.687 291.644 118 302.848L97.5505 361C70.9998 351 51.0004 337.2 38.1972 327.923C10.5002 307.854 9.01957 287.91 16.9998 261.235C24.9801 234.559 48.3999 190.779 70.9998 171Z" fill="#262E3A"/>
<path d="M246.486 291.6C245.235 279.806 242.087 260.323 242.331 258.422C199.678 288.994 103.907 299.002 103.907 299.002L96.471 299.275C69.7321 353.161 41 550.999 30.3438 626.754C55.4151 634.991 76.5797 642.796 115.279 648.397L165.564 414.636L169.316 632.137C200.239 629.776 229.81 642.865 261.005 631.604C261.781 574.81 261.724 435.084 246.5 291.6H246.486Z" fill="#2C495D"/>
<path d="M164 441.999L171.966 391.633L189.188 379.969" stroke="#111111" stroke-miterlimit="10" stroke-linecap="round"/>
<path d="M137.609 44.2852C108.728 42.3843 87.9842 82.6907 110.511 105.155H110.525C137.051 96.8101 166 63 168 54C169.6 46.8 168.667 42.6667 168 41.5C167.667 42.4284 166.5 44.7281 164.5 46.5C160.5 50.0437 154 49 148.5 46.5C144.1 44.5 139.406 44.1901 137.609 44.2852Z" fill="#302725"/>
<path d="M152 56.4995C170 42.9995 187.5 64.4995 180 77.4995C174.163 70.7602 157.779 62.7204 152 56.4995Z" fill="#302725"/>
<path d="M147.929 59.0369C157.75 54.3503 169.553 57.9341 174.88 67.9047C175.081 68.2723 175.253 68.6399 175.44 69.0075C186.266 92.0884 184.902 127.866 162.158 131.802C163.5 143 168 152 168 152L159 165.5L122.5 158.176C122.5 158.176 117.604 93.3137 118.035 89.4541C118.121 88.6883 118.48 87.9838 118.839 87.3252C125.645 74.6437 136.471 64.52 147.943 59.0369H147.929Z" fill="#FBCBB5"/>
<path d="M104.689 105.187C103.093 98.6923 106.931 92.169 113.256 90.5994C119.596 89.0297 126.022 93.0186 127.632 99.5131C129.228 106.008 125.39 112.531 119.064 114.101C112.725 115.67 106.299 111.681 104.689 105.187Z" fill="#FBCBB5"/>
<path d="M111.474 101.355L117.914 104.74" stroke="#D28F70" stroke-linecap="round" stroke-linejoin="round"/>
<path d="M152.002 85.8745C152.045 83.7 153.554 81.9576 155.366 82.0008C157.177 82.044 158.615 83.844 158.557 86.0185C158.514 88.1929 157.004 89.9353 155.193 89.8921C153.382 89.8489 151.944 88.0489 152.002 85.8745Z" fill="black"/>
<path d="M155.493 78.2235C155.493 78.2235 153 76.9999 151 78.2235" stroke="#111111" stroke-linecap="round"/>
<path d="M169 76.4988C169 76.4988 171 74.4988 173.5 75.4987" stroke="#111111" stroke-linecap="round"/>
<path d="M170.011 84.4331C170.055 82.2586 171.564 80.5162 173.375 80.5594C175.187 80.6026 176.624 82.4026 176.567 84.5771C176.509 86.7515 175.014 88.4939 173.203 88.4507C171.392 88.4075 169.954 86.6075 170.011 84.4331Z" fill="black"/>
<path d="M165.861 88.0625C171.353 90.8561 172.287 95.1042 166.264 96.8754" stroke="#D28F70" stroke-linecap="round" stroke-linejoin="round"/>
<path d="M172.228 102.576C170.296 103.349 169.5 104.049 166 104.402C165.171 104.485 161 104.402 159.849 104.402C157.097 104.402 156.424 105.325 157.095 106.992C157.765 108.659 161 111.999 166.5 111.999C172 111.999 174.297 108.149 175.004 105.187C175.711 102.225 174.16 101.803 172.228 102.576Z" fill="#46152C"/>
<path d="M142.11 86.4524C141.872 84.0341 143.64 81.8808 146.058 81.643L157.041 80.5631C159.459 80.3253 161.612 82.093 161.85 84.5114L161.899 85.0089C162.407 90.1755 158.631 94.7756 153.464 95.2836L152.433 95.385C147.267 95.893 142.667 92.1165 142.159 86.9499L142.11 86.4524Z" stroke="#111111" stroke-width="1.2"/>
<path d="M166.35 84.0696C166.112 81.6512 167.88 79.498 170.298 79.2602L181.281 78.1803C183.699 77.9425 185.853 79.7102 186.09 82.1286L186.139 82.6261C186.647 87.7927 182.871 92.3928 177.704 92.9008L176.674 93.0021C171.507 93.5102 166.907 89.7337 166.399 84.5671L166.35 84.0696Z" stroke="#111111" stroke-width="1.2"/>
<path d="M162.003 85.592C162.997 84.3818 164.649 84.2193 166.41 85.1586" stroke="black" stroke-linecap="round"/>
<path d="M123 91.999C130 89.499 141.5 87.499 141.5 87.499" stroke="black" stroke-linecap="round"/>
<path d="M165.5 58.0014C151 57.0014 128 69.5014 129.5 90.5014C124.5 93.5014 124.5 101.001 124.5 101.001H120C115 85.0014 116.418 65.432 129.5 58.0014C135.193 54.1998 152.537 51.9958 158 54.5014L165.5 58.0014Z" fill="#302725"/>
<path d="M151.697 150.244L159 165.998L143.402 163.392L151.697 150.244Z" fill="#DEDEDE"/>
<path d="M156.922 149.008L158 165.998L165.317 157.706L156.922 149.008Z" fill="#DEDEDE"/>
<path d="M97.1613 157.012C100.361 155.012 106.161 152.179 108.661 151.012L135.661 161.012L153.661 171.012L166.661 157.012C169.494 151.846 179 142.601 181 143.001C184.5 144.001 194.5 146.501 194.5 148.501C194.5 150.501 174.495 205.846 162.161 232.012C139.161 207.846 93.9613 159.012 97.1613 157.012Z" fill="white"/>
<path d="M143 169.5L145 161.5L167 157L172 161.5L164.5 173L180.5 198C180.5 204.5 176.837 228.958 175.5 232.5L152 209L155.5 175L143 169.5Z" fill="#FFBD3E"/>
<path d="M120.5 131L151.595 150.551L143 175L108.496 151.271L120.5 131Z" fill="white"/>
<path d="M173 166L157.065 149.109L162.5 134L181 143L173 166Z" fill="white"/>
<path d="M77.5001 178.5C81.0001 162 101 154.5 105 152.5C118.6 161.3 154.333 194.5 170.5 210C172.1 206.4 181 176 181 143C189.5 144.5 207 151.5 217 157.5C229.5 165 231.5 206 231.5 223.5C231.5 241 246.5 302.5 250 312C253.5 321.5 257.5 328.5 246.5 337C235.5 345.5 207 355 170.5 358.5C134 362 88.9807 349.721 84.5 343C80.5 337 81 332.5 82 319.5C83 306.5 77.5001 286.5 71.5001 251.5C65.5001 216.5 74.0001 195 77.5001 178.5Z" fill="#262E3A"/>
<path d="M228.746 164C209.976 152.038 193 145.5 185 144L228.746 212.977L222.49 238.096C210.393 240.489 185.123 249.859 174 254.245L177.65 307.475C192.596 310.067 226.452 314.293 242.303 310.465C262.116 305.681 282.971 290.729 289.228 282.355C295.485 273.982 296.528 257.833 286.621 238.096C276.715 218.359 252.209 178.952 228.746 164Z" fill="#262E3A"/>
<path d="M128.677 184.849L101.674 316.504L200.029 341.484L227.032 209.829L128.677 184.849Z" fill="#E0EDFE"/>
<path d="M118.082 201.566L105.829 332.41L206.254 343.489L218.507 212.644L118.082 201.566Z" fill="#262E3A"/>
<path d="M107.301 204.343L94.8203 337.617L201.489 349.384L213.969 216.11L107.301 204.343Z" fill="#EDF5FF"/>
<path d="M149.5 259.499C154.7 259.499 161.666 260.499 164.5 258.999L165.5 306.999C160.5 308.166 147.2 311.499 134 311.499C117.5 311.499 104.5 309.499 100.5 307.499C96.5 305.499 95 304.499 95 300.499C95 297.299 96.6662 294.499 97.4993 293.499C94.9993 291.499 92.9993 287.999 93.9993 283.999C94.7993 280.799 97.3329 278.333 98.4997 277.499C96.9997 275.999 95.4997 273.499 95.9997 270.499C96.4997 267.499 96.9997 263.999 103 262.499C107.8 261.299 114.333 260.999 117 261.499C117.166 260.999 109 254.999 111.5 246.999C113.5 243.499 122.705 245.386 129.5 247.999C136 250.499 143.5 253.999 149.5 259.499Z" fill="#FBCBB5"/>
<path d="M98.5 277.5C100 276 103.2 275.5 106 275.5M97.5 293.5C100 291 103.2 291 106 291" stroke="#D28F70" stroke-linecap="round" stroke-linejoin="round"/>
<path d="M169.5 255.5L156 257.5V312L183.5 314L169.5 255.5Z" fill="white"/>
<path d="M243.76 313.464C263.706 308.673 282.5 293.5 288.5 283C295.974 269.921 245.16 246.584 223.814 238C211.637 240.395 178.198 250.778 167 255.17L170.674 314.469C185.721 317.064 227.804 317.296 243.76 313.464Z" fill="#262E3A"/>
</g>
<rect x="350" width="220" height="420" rx="32" fill="white"/>
<path fill-rule="evenodd" clip-rule="evenodd" d="M400 10H384C370.745 10 360 20.7452 360 34V386C360 399.255 370.745 410 384 410H536C549.255 410 560 399.255 560 386V34C560 20.7452 549.255 10 536 10H520V14C520 20.6274 514.627 26 508 26H412C405.373 26 400 20.6274 400 14V10Z" fill="url(#paint1_linear_2158_11491)"/>
<rect x="430.75" y="10.75" width="41.5" height="4.5" rx="2.25" fill="#111111" stroke="#111111" stroke-width="1.5"/>
<circle cx="485" cy="13" r="3.25" fill="#111111" stroke="#111111" stroke-width="1.5"/>
<mask id="mask1_2158_11491" style="mask-type:alpha" maskUnits="userSpaceOnUse" x="284" y="10" width="311" height="400">
<path d="M354.796 26.9603C357.889 16.8808 367.197 10 377.741 10H538.708C550.857 10 561.089 19.0782 562.537 31.1405L594.476 297.3C595.429 305.238 592.366 313.129 586.308 318.346L568.339 333.819C563.045 338.378 560 345.018 560 352.005V386C560 399.255 549.255 410 536 410H384C370.745 410 360 399.255 360 386V325.597C360 316.112 354.414 307.518 345.747 303.665L298.436 282.638C287.343 277.708 281.678 265.272 285.239 253.667L354.796 26.9603Z" fill="white"/>
</mask>
<g mask="url(#mask1_2158_11491)">
<path d="M383.658 331.713C384.814 320.795 387.725 302.76 387.499 301C426.93 329.3 515.468 338.565 515.468 338.565L518.644 338.818C543.363 388.7 602.53 581.658 626 641.965C602.822 649.59 586.954 656.815 551.178 662L458.467 445.607L454.999 646.948C426.412 644.762 399.075 656.879 370.235 646.455C369.518 593.88 369.571 464.536 383.645 331.713H383.658Z" fill="#2C495E"/>
<path d="M319.031 187.402L322.971 172.351C324.212 158.896 327.946 120.742 345.306 128.649C346.625 124.145 352.422 123.787 356.224 125.266C360.105 118.509 369.479 125.198 374.474 128.968C379.341 132.603 382.616 135.329 384.287 141.573C384.854 149.007 383.212 155.512 377.357 158.596C374.61 171.626 369.166 178.702 362.402 182.027L360.33 194.381L319.022 187.402H319.031Z" fill="#FBCBB5"/>
<path d="M391.668 277C391.668 277 352.716 290.147 324.535 285.072C296.355 279.997 300.489 221.37 317.009 185.855L364.357 194.874L363.917 210.331L416.975 187.992L391.668 262.607V277Z" fill="white"/>
<path d="M364 210.5C364 210.5 361.5 217.5 363 224.5" stroke="#CCCCCC" stroke-miterlimit="10" stroke-linecap="round"/>
<path d="M524.056 187.944C484.781 172.178 439.641 174.749 416.974 187.982C409.232 197.156 392.97 237.499 388.578 257.349C386 268.999 375.25 320.499 385 329.499C398 341.499 503 351.999 520 343.499C502.894 305.433 514 210.999 524.056 187.953V187.944Z" fill="#262E3A"/>
<path d="M474.5 183C470 193.5 448.5 231 448.5 231C448.5 231 439 214.5 430.5 182.5C436 188 448.5 196.5 448.5 196.5C448.5 196.5 462.5 188.5 474.5 183Z" fill="white"/>
<path d="M488.759 136.779C509.565 112.712 485.9 74.0478 457.238 78.0768C442.701 77.5941 427.01 83.5214 423.423 96.2052C446.711 106.826 469.131 120.501 488.745 136.78L488.759 136.779Z" fill="#302725"/>
<path d="M440.505 93.281C420.305 76.4821 403.328 94.4463 417.304 115.172C422.626 108.02 435.201 99.9118 440.505 93.281Z" fill="#302725"/>
<path d="M447.575 93.1859C437.444 89.5177 425.908 93.7511 421.282 103.494C421.106 103.854 420.96 104.211 420.799 104.569C411.592 127.012 415.017 159.989 438 161.998C438.5 169.998 435.508 187.548 435.508 187.548L444.486 198.03L481.327 187.649C481.327 187.649 480.234 123.083 479.536 119.496C479.397 118.784 478.99 118.15 478.586 117.559C470.909 106.172 459.397 97.4797 447.561 93.1869L447.575 93.1859Z" fill="#FBCBB5"/>
<path d="M494.568 136.38C495.679 129.785 491.369 123.563 484.946 122.465C478.507 121.368 472.393 125.821 471.267 132.416C470.156 139.011 474.466 145.233 480.89 146.331C487.328 147.428 493.442 142.975 494.568 136.38Z" fill="#FBCBB5"/>
<path d="M487.518 133.059L481.346 136.909" stroke="#D28F70" stroke-linecap="round" stroke-linejoin="round"/>
<path d="M453.974 117.489C453.77 115.324 452.136 113.698 450.333 113.874C448.53 114.051 447.229 115.953 447.447 118.117C447.651 120.282 449.285 121.908 451.088 121.731C452.891 121.555 454.192 119.653 453.974 117.489Z" fill="#111111"/>
<path d="M427.89 120.509C427.686 118.343 426.052 116.717 424.249 116.894C422.446 117.071 421.145 118.972 421.363 121.136C421.581 123.301 423.201 124.928 425.004 124.751C426.807 124.574 428.108 122.673 427.89 120.509Z" fill="#111111"/>
<path d="M426.937 135.978C426.573 139.038 428.252 142.09 431.271 144.321C433.147 145.713 435.225 146.714 436.952 147.063C443.44 148.055 448.545 142.637 450.856 137.051C451.26 136.083 451.59 135.091 451.822 134.135C452.147 131.314 449.86 131.484 449.155 131.536C447.367 131.668 442.784 133.512 442.784 133.512C437.394 135.204 431.308 134.068 428.892 134.144C427.871 134.176 427.05 134.974 426.923 135.979L426.937 135.978Z" fill="#46152C"/>
<path d="M431.272 144.317C433.148 145.709 435.226 146.71 436.953 147.058C443.441 148.051 448.546 142.633 450.857 137.047C447.131 135.98 443.081 135.991 439.432 137.33C435.994 138.596 432.98 141.1 431.258 144.318L431.272 144.317Z" fill="#C35849"/>
<path d="M435.917 118.543C430.647 121.735 430.029 126.04 436.167 127.362" stroke="#D28F70" stroke-linecap="round" stroke-linejoin="round"/>
<path d="M435.671 86.7819C438.713 102.166 456.54 103.459 467.229 106.292C470.91 113.167 472.936 121.06 476.008 128.283C478.537 127.778 481.003 127.018 483.363 125.991C482.869 110.952 478.242 96.9421 464.647 90.4982C458.689 87.1274 440.935 83.8939 435.672 86.7963L435.671 86.7819Z" fill="#302725"/>
<path d="M487.018 227.146L408.308 260.266C406.546 261.008 405.724 263.024 406.474 264.767L451.914 370.374C452.664 372.117 454.702 372.93 456.465 372.188L539.996 337.039L493.894 229.894C492.761 227.261 489.684 226.034 487.022 227.155L487.018 227.146Z" fill="#9C8CFD"/>
<path d="M487.326 227.011L419.445 255.574C417.799 256.267 417.029 258.156 417.73 259.784L463.342 365.791C464.042 367.418 465.952 368.18 467.598 367.487L539.985 337.028L493.749 229.571C492.689 227.107 489.804 225.957 487.313 227.005L487.326 227.011Z" fill="#7D6BEF"/>
<path d="M408.664 262.554L417.361 258.895L464.626 368.744L455.929 372.404L408.664 262.554Z" fill="white"/>
<path d="M451.597 187.324L450.492 200.519L461.841 198.895L451.597 187.324Z" fill="#CCCCCC"/>
<path d="M445.702 187.031L444.92 200.574L439.104 195.857L445.702 187.031Z" fill="#CCCCCC"/>
<mask id="mask2_2158_11491" style="mask-type:alpha" maskUnits="userSpaceOnUse" x="430" y="182" width="45" height="49">
<path d="M474.5 183C470 193.5 448.5 231 448.5 231C448.5 231 439 214.5 430.5 182.5C436 188 448.5 187.5 448.5 187.5C448.5 187.5 462.5 188.5 474.5 183Z" fill="white"/>
</mask>
<g mask="url(#mask2_2158_11491)">
<path d="M462 199L456.048 192H442L437 198.5L444 205L441.5 216C443.158 220 446.663 228.458 448 232L458 216L452.5 205L462 199Z" fill="#E85743"/>
</g>
<path d="M481 163L451.734 187.577L465 204.5L492 179L481 163Z" fill="white"/>
<path d="M445.585 187.14L434.989 201.882L425 184L433.767 172.824L437.795 170.176L437.14 176.623L445.585 187.14Z" fill="white"/>
<path d="M377.367 158.596C371.913 161.669 369.391 154.023 369.391 154.023L372.157 139.379C372.49 137.639 371.747 135.86 370.271 134.855L356.234 125.266" stroke="#D28F70" stroke-linecap="round" stroke-linejoin="round"/>
<path d="M345.375 129.227L356.01 139.386C357.349 140.662 358.004 142.489 357.779 144.306L356.626 153.654C356.069 158.158 360.418 161.957 364.758 160.488C366.831 159.782 368.649 157.955 369.392 154.021" stroke="#D28F70" stroke-linecap="round" stroke-linejoin="round"/>
<path d="M356.615 153.662C356.615 153.662 354.113 161.425 348.326 159.965C342.53 158.505 343.449 147.94 343.449 147.94L339.656 144.934C339.656 144.934 341.396 150.501 339.773 153.546" stroke="#D28F70" stroke-linecap="round" stroke-linejoin="round"/>
<path d="M361.64 161.329C359.568 161.271 357.75 162.798 356.499 164.277C354.837 166.249 353.762 168.772 353.547 171.334C353.478 172.117 352.227 172.127 352.295 171.334C352.53 168.424 353.723 165.64 355.609 163.407C357.075 161.677 359.235 160.024 361.64 160.092C362.442 160.111 362.442 161.348 361.64 161.329Z" fill="#D28F70"/>
<path d="M364.357 194.865L365.129 184.657C365.207 183.593 364.474 182.637 363.418 182.424L323.254 174.362C322.169 174.14 321.084 174.749 320.703 175.773L317.008 185.846L339.5 194.865H364.357Z" fill="white"/>
<path d="M426.319 320.266C425.977 312.803 448.312 308.685 448.312 308.685C448.312 308.685 438.215 302.934 441.362 295.568C443.669 290.164 473.208 300.933 473.208 300.933L492.592 296.254L509.424 338.883L501.741 344.596C484.166 353.402 464.303 356.727 444.774 354.137C444.774 354.137 436.788 354.978 434.598 350.415C432.409 345.853 438.283 342.653 438.283 342.653C438.283 342.653 431.372 342.556 429.408 338.4C427.443 334.243 431.715 328.627 431.715 328.627C431.715 328.627 426.524 324.896 426.319 320.275V320.266Z" fill="#FBCBB5"/>
<path d="M432 328.5C432 328.5 435.5 324.5 443 324.5" stroke="#D28F70" stroke-linecap="round" stroke-linejoin="round"/>
<path d="M438.5 342.5C438.5 342.5 440 341 447.5 341" stroke="#D28F70" stroke-linecap="round" stroke-linejoin="round"/>
<path d="M524.057 187.943C548.063 189.519 588.364 269.808 584.015 298.836C579.655 327.865 535.043 342.345 508.544 346.115L489.65 290.011L508.437 279.339C508.437 279.339 474.03 184.656 524.066 187.943H524.057Z" fill="white"/>
<path d="M508 279C508 279 514.5 281.5 519 288" stroke="#CCCCCC" stroke-miterlimit="10" stroke-linecap="round"/>
<path d="M489.64 290.012L473.208 300.925L487 351.693L508.544 346.116L489.64 290.012Z" fill="white"/>
<path d="M489.5 290.5C489.5 290.5 501 323.5 507.5 346" stroke="#CCCCCC" stroke-miterlimit="10" stroke-linecap="round"/>
<path d="M317 186.5C317 186.5 338 192 364.5 195" stroke="#CCCCCC" stroke-miterlimit="10" stroke-linecap="round"/>
<path d="M453 432L443.028 395.029L428 385" stroke="#111111" stroke-miterlimit="10" stroke-linecap="round"/>
</g>
</g>
<defs>
<linearGradient id="paint0_linear_2158_11491" x1="160" y1="10" x2="160" y2="373.673" gradientUnits="userSpaceOnUse">
<stop stop-color="#438FF9"/>
<stop offset="1" stop-color="#1AA8F8"/>
</linearGradient>
<linearGradient id="paint1_linear_2158_11491" x1="460" y1="10" x2="460" y2="373.673" gradientUnits="userSpaceOnUse">
<stop stop-color="#438FF9"/>
<stop offset="1" stop-color="#1AA8F8"/>
</linearGradient>
<clipPath id="clip0_2158_11491">
<rect width="620" height="432" fill="white"/>
</clipPath>
</defs>
</svg>
