<svg width="270" height="59" viewBox="0 0 270 59" fill="none" xmlns="http://www.w3.org/2000/svg">
<g clip-path="url(#clip0_2249_6937)">
<path d="M220.569 45.5827H209.159L224.957 12.1787H236.376L220.569 45.5827Z" fill="#0082FF"/>
<path d="M267.819 15.8519C267.177 13.8201 265.501 12.6739 264.278 12.1789C263.491 11.8577 262.901 11.7621 262.901 11.7621C262.259 11.6493 261.609 11.5972 260.942 11.5972C258.247 11.5972 255.801 12.5089 254.039 13.9937C253.167 14.7318 252.38 15.713 251.884 16.6768L252.842 17.3801C252.996 17.111 253.466 16.4771 253.654 16.26C254.655 15.1746 255.656 14.6363 256.836 14.7578C259.154 14.9923 258.051 17.4757 258.051 17.4757L244.759 45.583H256.374L266.39 23.3455C267.648 20.2108 268.623 18.37 267.819 15.8519Z" fill="#0082FF"/>
<path d="M232.416 51.8088C230.851 49.8985 229.987 47.6409 229.55 45.8782V45.8174C228.909 42.5439 229.67 39.6958 230.218 37.9939L230.26 37.9071C230.474 37.3601 230.637 36.9346 230.765 36.7001L231.774 34.3296H231.817L240.764 14.8534C241.483 13.0386 242.851 7.5682 237.18 4.4249C229.114 -0.0382308 219.834 5.37137 215.121 11.7361C211.845 16.1645 211.109 21.1747 211.109 22.4945C211.109 26.8014 213.803 28.3556 213.82 28.3817C214.248 29.1458 213.35 29.5539 213.034 29.3542C212.965 29.3108 210.074 27.7999 209.869 23.2239C209.817 22.043 209.817 20.6276 210.228 19.0213C211.597 12.6826 215.754 7.30771 221.382 3.86918C221.724 3.66079 222.066 3.45239 222.417 3.26136L222.571 3.18321C224.872 1.94153 227.344 1.10794 229.858 0.734569C236.427 -0.22926 243.202 1.7505 247.624 6.99511C249.189 8.8533 250.07 10.6941 250.506 12.4134C251.345 15.6696 250.566 18.37 249.916 19.9938C249.677 20.5842 249.497 21.1226 249.352 21.3657L242.62 35.6147C242.62 35.6147 241.303 38.3933 240.353 40.5468C240.028 41.3283 239.19 43.664 239.31 46.5121C239.644 49.2299 240.918 52.6771 244.707 54.5353C251.499 57.861 262.208 54.8392 266.519 46.5816C267.502 44.6973 268.862 41.2154 268.862 38.0981C268.862 33.6784 266.775 31.6639 266.758 31.6292C266.339 30.8477 267.22 30.4309 267.545 30.648C267.605 30.6914 270.53 33.9997 269.914 40.2081C269.213 45.4441 266.638 51.722 259.83 55.586C259.479 55.7857 259.146 56.0114 258.795 56.2025L258.649 56.2806C256.349 57.557 253.483 58.2951 250.96 58.6424C250.104 58.7553 249.215 58.8161 248.317 58.8161C242.586 58.8161 236.239 56.4369 232.416 51.7914" fill="#0082FF"/>
<path d="M66.8456 22.1818V24.6652C65.7336 22.7549 63.9032 21.8084 61.6108 21.7303C61.4227 21.7216 61.2174 21.7129 61.0121 21.7129C59.0277 21.7129 53.3481 22.4075 53.3481 33.0878C53.3481 39.9996 54.6568 45.4439 61.3029 45.4439C61.3286 45.4439 61.5253 45.4439 61.6108 45.4439C63.6466 45.4439 65.7678 44.4714 66.8456 42.7956V47.3803C66.8456 49.7334 65.3829 51.3311 62.6971 51.3745C60.6101 51.3137 59.1902 50.1241 59.1389 48.0141H54.366C54.0239 52.3036 57.7104 54.2313 61.7905 54.2313H62.0984C67.4871 54.2313 71.1223 52.9982 71.1223 47.7884V22.1818H66.8456ZM57.8216 33.1052C57.8216 30.0227 57.967 24.8649 62.4833 24.8649C62.5432 24.8649 62.603 24.8649 62.6715 24.8649C67.1621 25.2122 66.9397 30.3526 66.9397 33.6869C66.9397 37.0213 67.0851 42.3006 62.2866 42.3006C59.4981 42.1791 57.8216 40.3035 57.8216 33.0965V33.1052Z" fill="black"/>
<path d="M125.822 42.4484C124.992 42.5352 124.377 42.622 124.077 42.6307C120.673 42.5525 120.656 40.7117 120.656 39.279V25.0473H125.993V22.1819H120.656V15.9995L116.405 17.7969V22.1819H112.376V25.056H116.405V41.58C116.405 44.2458 118.098 45.7219 121.879 45.7219C121.913 45.7219 122.093 45.7219 122.161 45.7219C123.478 45.7219 124.787 45.444 126.096 45.3485V42.4136C126.002 42.4136 125.822 42.4484 125.822 42.4484Z" fill="black"/>
<path d="M162.5 12.1787V24.4046C161.285 22.8156 159.78 21.9125 157.812 21.7649C157.538 21.7388 157.265 21.7215 156.965 21.7215C149.053 21.7215 148.865 28.3988 148.865 34.1992C148.865 44.315 152.757 45.8693 156.649 45.904H157.042C159.506 45.904 161.165 44.9228 162.5 42.9344V45.4525H166.734V12.1961H162.5V12.1787ZM162.5 32.8706C162.5 37.5422 162.5 42.7607 158.094 42.8128C153.296 42.6826 153.296 37.7158 153.296 34.2599C153.296 28.0515 153.878 24.8214 158.137 24.8214H158.317C162.303 25.16 162.491 29.8836 162.491 32.8706H162.5Z" fill="black"/>
<path d="M22.8208 21.739C22.5385 21.7217 22.2562 21.7217 21.9911 21.7217C19.8441 21.7217 17.7058 22.1906 16.3372 24.4308C15.3535 22.5987 13.0612 21.7998 10.9913 21.739C10.8031 21.7304 10.6235 21.7217 10.4353 21.7217C7.74948 21.7217 5.74796 22.4858 4.55047 24.6392V22.1906H0C0.14541 23.7969 0.239498 25.412 0.239498 27.0271V45.4527H4.54191V29.797C4.54191 28.92 4.73864 27.5394 5.46569 26.3932C6.04733 25.5162 7.68105 24.8302 8.89565 24.8216C11.8295 24.9605 12.471 27.0531 12.471 29.3194V45.444H16.7734V29.7883C16.7734 28.9113 16.9702 26.6103 18.1334 25.6899C19.1941 24.865 19.6303 24.8129 21.1101 24.8129C24.061 24.9431 24.7025 27.0444 24.7025 29.3107V45.4353H28.9964V27.7478C28.9964 22.616 25.3783 21.8085 22.8122 21.7217L22.8208 21.739Z" fill="black"/>
<path d="M42.1431 21.7389C41.8523 21.7303 41.5614 21.7129 41.245 21.7129C32.7513 21.7129 31.9216 27.3309 31.9216 34.1558C31.9216 44.2804 35.9332 45.852 41.0226 45.8954C41.1936 45.8954 41.3733 45.8954 41.5529 45.8954C46.6935 45.8954 50.038 43.551 50.0893 38.3932H49.7814H45.4105C45.2651 40.7376 43.8623 42.8042 41.1509 42.8129C38.2256 42.7261 36.5063 41.3194 36.5063 35.0415H50.286V33.0531C50.286 25.5856 48.6437 21.9473 42.1431 21.7389ZM45.7612 32.1761H36.5063C36.5576 25.7332 38.6447 24.5783 41.168 24.5783C41.2621 24.5783 41.3647 24.5783 41.4588 24.5783C44.0419 24.7086 45.7612 25.8721 45.7612 32.1674V32.1761Z" fill="black"/>
<path d="M91.1376 28.7289C91.1376 24.9951 89.6321 22.0168 84.021 21.7476C83.6618 21.7216 83.2854 21.7129 82.8834 21.7129C77.6829 21.7129 74.7747 23.519 74.5865 28.7202H79.1969C79.1969 26.3236 80.3687 24.5783 83.0374 24.5783C83.0973 24.5783 83.1486 24.5783 83.217 24.5783C87.0148 24.8215 86.9634 28.0429 86.8694 31.0212C81.2839 30.8823 74.0049 31.2036 74.0049 38.2456C74.0049 42.7174 75.5103 45.8954 80.7023 45.8954H80.9931C83.9013 45.8954 85.7403 44.8621 86.9634 42.4743V45.4352H91.6166C91.3257 43.6378 91.1376 41.7536 91.1376 39.9128V28.7289ZM78.2731 38.5321C78.2731 33.7304 83.1058 33.9127 86.8608 33.8867C87.2372 41.2326 84.3632 42.7521 81.9682 42.8042C79.4021 42.7348 78.2731 40.755 78.2731 38.5321Z" fill="black"/>
<path d="M99.1694 27.7131C99.1694 25.6899 100.812 24.5785 102.95 24.5785C103.027 24.5785 103.095 24.5785 103.164 24.5871C105.371 24.7521 106.542 26.0285 106.5 28.3035H111.204C111.529 23.9185 108.151 21.9301 104.062 21.7391C103.754 21.7217 103.455 21.7043 103.138 21.7043C96.2526 21.7043 94.6959 25.6204 94.6959 28.0604C94.6959 35.0156 106.927 35.1111 106.927 39.2617C106.927 41.6148 105.148 42.761 102.83 42.8044C98.9726 42.7175 98.9128 39.6611 98.9128 38.3499H94.1142C93.9688 43.6814 97.2705 45.8956 102.557 45.8956H102.839C107.697 45.8956 111.384 43.9158 111.384 38.8101C111.384 31.716 99.1608 31.8115 99.1608 27.7044L99.1694 27.7131Z" fill="black"/>
<path d="M145.931 22.1818H141.689V37.6117C141.689 41.441 139.071 42.9692 136.95 42.9953C134.273 42.9084 132.973 41.0502 132.973 38.3064V22.1818H128.722V39.9041C128.722 43.8723 131.057 45.8954 135.325 45.8954H135.599C138.096 45.8954 140.363 44.81 141.689 42.8129V45.4352H146.171C146.025 43.8202 145.931 42.2051 145.931 40.5987V22.1731V22.1818Z" fill="black"/>
<path d="M185.346 22.1819L179.555 40.8593L173.764 22.1819H168.897L177.194 45.444L174.432 54.24H178.802L189.939 22.1819H185.346Z" fill="black"/>
</g>
<defs>
<clipPath id="clip0_2249_6937">
<rect width="270" height="58.3333" fill="white" transform="translate(0 0.5)"/>
</clipPath>
</defs>
</svg>
