<svg width="190" height="158" viewBox="0 0 190 158" fill="none" xmlns="http://www.w3.org/2000/svg">
<g clip-path="url(#clip0_2188_16824)">
<path d="M60.2236 18.8491C60.2236 29.2623 68.6699 37.6982 79.0959 37.6982H88.7725C99.1985 37.6982 107.645 29.2623 107.645 18.8491C107.645 8.43591 99.1985 0 88.7725 0H79.0959C68.6699 0 60.2236 8.43591 60.2236 18.8491Z" fill="#111111"/>
<path d="M16.9658 124.976C12.0257 131.629 13.4041 141.025 20.0649 145.969C26.7257 150.912 39.7975 147.198 48.0772 136.027L83.4349 88.5436C88.3843 81.8909 86.9966 72.4941 80.3358 67.5508C73.675 62.6076 66.1076 65.3518 61.1583 72.0044L16.9565 124.976H16.9658Z" fill="#FFE248"/>
<path d="M143.641 144.047C147.998 151.097 157.258 153.278 164.317 148.917C171.376 144.565 175.289 134.262 170.922 127.212L135.555 75.3127C131.189 68.2628 122.955 65.4539 115.906 69.8151C108.847 74.1762 106.664 83.4252 111.021 90.4659L143.641 144.047Z" fill="#FFE248"/>
<path d="M50.3064 106.924C50.3064 78.5397 71.6117 55.5234 97.8848 55.5234C124.158 55.5234 145.463 78.5397 145.463 106.924V170.466C145.463 198.851 50.3064 192.91 50.3064 164.516V106.924Z" fill="#FFE248"/>
<path d="M106.729 60.2266L90.1233 73.6519L106.451 84.5918L106.729 60.2266Z" fill="white"/>
<path d="M80.9369 168.302C79.7527 160.726 84.9426 153.62 92.5378 152.438L109.939 149.73C117.525 148.548 124.639 153.731 125.823 161.317C127.007 168.894 121.817 175.999 114.222 177.182L96.8118 179.889C89.2259 181.072 82.1118 175.888 80.9276 168.302H80.9369Z" fill="#FBCBB5"/>
<path d="M162.965 151.866C172.216 146.784 175.335 142.755 173.743 132.915C171.467 124.941 163.15 120.33 155.176 122.603L106.524 150.147L114.767 179.003L162.965 151.866Z" fill="#FFE248"/>
<path d="M73.4893 58.332L89.0034 73.6516L73.8038 84.5914L73.4893 58.332Z" fill="white"/>
<path d="M79.373 62.5915C79.373 68.7637 84.3871 73.7716 90.5669 73.7716C96.7466 73.7716 101.761 68.7729 101.761 62.5915V53.1762C101.761 47.004 96.7466 41.9961 90.5669 41.9961C84.3871 41.9961 79.373 46.9948 79.373 53.1762V62.5915Z" fill="#FBCBB5"/>
<path d="M115.369 43.132C115.369 56.2987 104.684 66.9706 91.5016 66.9706C72.0651 66.1298 67.6338 56.2987 67.6338 43.132V29.0691C67.6338 15.9024 78.3188 5.23047 91.5016 5.23047C104.684 5.23047 115.369 15.9024 115.369 29.0691V43.132Z" fill="#FBCBB5"/>
<path d="M66.7284 28.0496C68.7476 16.3174 90.6912 8.12632 96.2877 20.7531C98.2885 25.2633 96.4488 31.4787 104 33.5008C111.228 35.4391 113.5 35.0008 114.313 36.25C114.313 37.3403 120 45.501 120 45.501C120 45.501 142 0.500977 93.5 0.500997C86.3268 0.370536 74.6852 2.83333 70.2504 9.08615C66.9958 13.6709 66.4794 19.9983 66 25.5242" fill="#111111"/>
<path d="M74.563 50.5156H93.0004C93.0004 50.5156 93.0004 59.2842 82.9075 59.2842C82.9075 59.2842 74.5537 58.8499 74.5537 50.5156H74.563Z" fill="#ED5E3C"/>
<path d="M70.2148 39.3809C70.2148 40.3696 71.0104 41.1642 72.0003 41.1642C72.9902 41.1642 73.7858 40.3696 73.7858 39.3809C73.7858 38.3923 72.9902 37.5977 72.0003 37.5977C71.0104 37.5977 70.2148 38.3923 70.2148 39.3809Z" fill="#111111" stroke="#111111" stroke-miterlimit="10"/>
<path d="M92.3994 39.3809C92.3994 40.3696 93.195 41.1642 94.1849 41.1642C95.1747 41.1642 95.9703 40.3696 95.9703 39.3809C95.9703 38.3923 95.1747 37.5977 94.1849 37.5977C93.195 37.5977 92.3994 38.3923 92.3994 39.3809Z" fill="#111111" stroke="#111111" stroke-miterlimit="10"/>
<path d="M110.207 32.7529C111.16 37.2989 93.7492 29.8516 90.2338 26.8857C85.7655 23.1251 83.7673 14.1256 84.3316 8.38766C84.3316 8.38766 103.925 2.76065 110.207 32.7529Z" fill="#111111"/>
<path d="M120.355 43.5735C120.355 47.5743 117.376 50.8267 113.704 50.8267C110.031 50.8267 107.043 47.5836 107.043 43.5735C107.043 39.5635 110.022 36.3203 113.704 36.3203C117.386 36.3203 120.355 39.5635 120.355 43.5735Z" fill="#FBCBB5"/>
<g style="mix-blend-mode:multiply">
<path opacity="0.3" d="M103.288 49.8929C103.288 51.6393 101.872 53.0529 100.124 53.0529H97.9127C96.1735 53.0529 94.7581 51.6393 94.7581 49.8929C94.7581 48.1466 96.1735 46.7422 97.9127 46.7422H100.124C101.872 46.7422 103.288 48.1559 103.288 49.8929Z" fill="#F5976C"/>
</g>
<path d="M49.5572 62.1841C60.2422 67.7926 73.055 63.145 78.1709 51.7801C83.2867 40.4244 78.7722 26.6664 68.0779 21.0486C57.3929 15.4309 44.5801 20.0969 39.455 31.4526C34.3484 42.8083 38.8629 56.5663 49.5572 62.1841ZM43.3775 33.5131C47.4572 24.4489 57.6797 20.7345 66.2092 25.2065C74.7295 29.6878 78.3374 40.6647 74.2669 49.7196C70.1779 58.7838 59.9554 62.4982 51.4352 58.0169C42.9149 53.5449 39.307 42.5681 43.3867 33.5131H43.3775Z" fill="#111111"/>
<g style="mix-blend-mode:multiply" opacity="0.6">
<path d="M66.209 25.2149C74.7293 29.6962 78.3372 40.673 74.2667 49.728C70.1777 58.7922 59.9553 62.5066 51.435 58.0253C42.9148 53.5532 39.3068 42.5764 43.3866 33.5214C47.4663 24.4572 57.6888 20.7428 66.2183 25.2149H66.209Z" fill="#A6D6D2"/>
</g>
<path d="M46.9303 58.1719L36.1343 82.1398C35.8752 82.7219 36.1065 83.4334 36.6616 83.7291L42.2955 86.6858C42.8506 86.9722 43.5074 86.732 43.7664 86.1499L54.5624 62.1819" fill="#111111"/>
<path d="M40.9254 57.7761C36.0408 55.9836 30.6197 58.4784 28.8157 63.357L24.6897 74.5463C22.8858 79.4249 25.3928 84.8394 30.2774 86.6412C35.162 88.4429 40.5831 85.9389 42.3871 81.0603L46.5131 69.871C48.317 64.9924 45.81 59.5779 40.9254 57.7761Z" fill="#FBCBB5"/>
<path d="M10.9427 130.106C10.0916 138.348 16.0956 145.721 24.3475 146.562C32.5995 147.412 39.9819 141.415 40.833 133.173L46.5409 81.8371L16.6599 78.7695L10.9427 130.106Z" fill="#FFE248"/>
<path d="M49.0949 78.1232C52.6714 78.1232 55.5707 75.2274 55.5707 71.6553C55.5707 68.0832 52.6714 65.1875 49.0949 65.1875C45.5184 65.1875 42.6191 68.0832 42.6191 71.6553C42.6191 75.2274 45.5184 78.1232 49.0949 78.1232Z" fill="#FBCBB5"/>
<path d="M79.1606 177.319C78.9386 166.453 69.9465 157.814 59.0672 158.035C48.1787 158.248 39.5381 167.229 39.7509 178.104L40.8518 259.266L80.2615 258.481L79.1699 177.319H79.1606Z" fill="#111111"/>
</g>
<defs>
<clipPath id="clip0_2188_16824">
<rect width="190" height="158" fill="white"/>
</clipPath>
</defs>
</svg>
