<svg width="126" height="32" viewBox="0 0 126 32" fill="none" xmlns="http://www.w3.org/2000/svg">
<g clip-path="url(#clip0_2158_12868)">
<path d="M17.802 4.27171C17.8632 4.36691 17.9448 4.44851 17.9516 4.5437C18.04 4.8225 18.2983 4.99249 18.3323 5.27129C18.3459 5.36648 18.4683 5.40728 18.5295 5.44808C18.5975 5.53648 18.5499 5.63848 18.6859 5.76767C18.7471 5.80847 18.6995 5.91047 18.7131 6.00567C18.7743 6.04647 18.8423 6.08727 18.9035 6.12806C19.4815 7.03244 19.5359 8.07962 18.8695 9.05199C18.7607 9.16079 18.6587 9.31038 18.6179 9.45998C18.5635 9.51438 18.4479 9.56878 18.3935 9.62318C18.4071 9.71837 18.4683 9.75917 18.5363 9.84757C18.244 9.92237 18.21 10.1672 17.9924 10.3304C17.9312 10.3304 17.8156 10.344 17.7544 10.3508C17.5912 10.514 17.4212 10.5752 17.2512 10.684C17.1968 10.7383 17.2104 10.8811 17.2172 10.9287C16.9384 11.1463 16.5372 11.2823 16.1156 11.2687C16.0612 11.2687 16.0136 11.4251 15.9592 11.4251C15.66 11.4523 15.3064 11.4387 15.0072 11.4659C14.8848 11.4319 14.8168 11.3435 14.6876 11.3027C14.572 11.3163 14.4496 11.3231 14.3272 11.2891C14.1369 11.1599 13.8921 11.1395 13.7017 11.0579C13.5793 11.0239 13.3549 11.1395 13.2257 11.0579C12.8313 10.7111 12.4301 10.3644 12.2125 10.004C12.0697 9.77957 11.8181 9.70477 11.7365 9.47358C11.7229 9.37838 11.7705 9.22879 11.6481 9.19479C11.4033 9.11999 11.5053 8.97039 11.4917 8.8276C11.4169 8.6916 11.4033 8.5964 11.2741 8.46721C11.1993 8.33121 11.2945 8.12721 11.2197 7.94362C11.2197 7.89602 11.2673 7.84162 11.2605 7.79402C11.1721 7.51523 11.3149 7.21604 11.2877 6.97804C11.2741 6.83525 11.3081 6.63805 11.3557 6.49526C11.5053 6.19606 11.6413 5.84247 11.9065 5.52968C11.9065 5.48208 11.8929 5.38688 11.8861 5.33928C11.9405 5.28489 12.0017 5.27809 12.0493 5.22369C12.1445 4.97889 12.2397 4.7749 12.3961 4.5709C12.6069 4.31251 12.9401 4.08812 13.2121 3.82292C13.3753 3.66653 13.5997 3.54413 13.7493 3.29254C13.8037 3.23814 13.9941 3.31973 14.0485 3.26534C14.2117 3.10894 14.4496 3.12934 14.6196 3.02054C14.7896 2.91174 14.7556 3.14974 14.9256 3.08854C15.0412 3.07494 15.0956 3.02734 15.2112 2.96614C15.3812 2.90495 15.5784 3.02734 15.762 3.05454C15.9388 3.04094 16.1224 3.06814 16.3128 3.19734C16.5712 3.36733 17.1628 3.30613 17.258 3.63933C17.4008 3.86372 17.6592 4.03372 17.802 4.25811V4.27171Z" fill="#BD1339"/>
<path d="M27.8109 8.02279C27.8109 7.87319 27.8109 7.78479 27.7497 7.6284C27.7361 7.4788 27.8517 7.3156 27.7973 7.11161C27.7633 7.05721 27.6885 6.99601 27.6953 6.94841C27.7973 6.63562 27.8041 6.35003 27.7769 6.01004C27.7497 5.90804 27.7157 5.85364 27.6817 5.79924C27.6885 5.75164 27.7089 5.66325 27.7225 5.56805C27.7293 5.28246 27.6409 5.07166 27.5525 4.81327C27.5253 4.71127 27.4505 4.65007 27.4369 4.50047C27.4029 4.44608 27.3281 4.37808 27.3349 4.33048C27.4097 3.91569 27.2125 3.5893 27.1513 3.19491C27.0561 2.74612 26.6345 2.46053 26.4985 2.00494C26.5053 1.95734 26.6481 1.97774 26.6889 1.98454C27.0221 2.29733 27.3961 2.66452 27.4845 3.11331C27.5457 3.26971 27.5185 3.4057 27.5865 3.5145C27.8721 3.86129 27.9197 4.30328 27.9741 4.74527C27.9673 4.79287 28.0557 4.76567 28.0897 4.82007C28.0829 4.86767 28.0625 4.95606 28.0965 5.01046C28.3141 5.24846 28.1781 5.50685 28.2257 5.75164C28.2529 5.85364 28.2801 5.90804 28.3141 5.96244C28.3073 6.01004 28.1985 6.13243 28.1849 6.17323C28.3617 6.40443 28.4365 6.70362 28.3889 6.98241C28.5929 7.07761 28.4977 7.3428 28.5453 7.54C28.5793 7.5944 28.6201 7.6012 28.6609 7.6148C28.7153 7.5332 28.7765 7.4516 28.7969 7.3564C28.8241 6.98241 28.8377 6.64922 28.7697 6.30243C28.7153 6.14603 28.6949 5.99644 28.8037 5.88084C28.7221 5.86044 28.6949 5.75844 28.6609 5.70405C28.5113 5.09886 28.4501 4.41888 28.2665 3.80009C28.2665 3.80009 28.3141 3.76609 28.3277 3.71849C28.2665 3.17451 27.8517 2.66452 27.6545 2.12053C27.6205 2.02534 27.4641 1.90294 27.3893 1.80094C27.3893 1.80094 27.3893 1.75334 27.4029 1.70574C27.6137 1.73294 27.7769 1.93694 27.8857 2.09333C28.1101 2.40613 28.3617 2.75292 28.4297 3.10651C28.5453 3.4193 28.7221 3.74569 28.7901 4.05169C28.8377 4.25568 28.9805 4.38488 29.0825 4.55487C29.1369 4.71127 29.1097 4.84727 29.1233 4.99686C29.1845 5.35045 29.2864 5.68365 29.3544 6.03724C29.436 6.29563 29.4768 6.58802 29.3884 6.80562C29.2728 7.20681 29.538 7.6488 29.6468 8.00919C29.708 8.16558 29.6332 8.34238 29.5652 8.47158C29.5584 8.51917 29.6332 8.58037 29.6196 8.62797C29.5448 8.80477 29.606 8.96116 29.572 9.14476C29.5244 9.17876 29.6332 9.30116 29.572 9.38275C29.5244 9.42355 29.4836 9.40995 29.4292 9.45075C29.3612 9.57995 29.4224 9.73634 29.3952 9.87234C29.2592 10.1307 29.3272 10.4775 29.0757 10.6611C28.9805 10.6883 28.9737 10.7359 28.9261 10.7699C28.9669 10.7767 29.0009 10.8311 29.0349 10.8923C28.9873 10.9263 28.9397 10.9195 28.8921 10.9535C28.8785 11.0419 29.0553 11.1575 29.0893 11.2119C29.0213 11.5791 28.7493 11.8987 28.7561 12.3339C28.7357 12.4223 28.7153 12.5651 28.6949 12.6535C28.6133 12.8711 28.4501 13.0275 28.3685 13.2519C28.3549 13.3403 28.1781 13.3539 28.1577 13.4423C28.0489 13.5578 28.0557 13.755 27.9809 13.9318C27.9197 14.0134 27.7973 13.9862 27.6953 14.061C27.5797 14.2242 27.5933 14.3738 27.5185 14.5438C27.3893 14.7546 27.2397 14.9858 27.1173 15.1966C26.9745 15.5026 26.7365 15.7882 26.4781 16.0194C26.4373 16.0126 26.3421 16.0398 26.2945 16.0738C26.1585 16.3322 26.0089 16.5226 25.7233 16.6518C25.6825 16.645 25.6213 16.8422 25.5669 16.8762C25.3697 17.019 25.2609 17.189 25.023 17.325C24.9346 17.3522 24.887 17.3862 24.785 17.223C24.4722 17.7737 24.0574 18.2021 23.6086 18.5829C23.3706 18.7189 23.1326 18.7053 22.9762 18.8617C22.4594 19.3649 21.6434 19.9021 21.555 19.9769C21.5142 19.9701 21.3578 20.2013 21.3578 20.2013C21.1946 20.2149 21.2898 20.2285 21.1334 20.2013C21.1334 20.2013 21.1266 20.4597 20.9159 20.5005C20.4739 20.5889 20.3583 21.0989 20.3243 21.3097C20.3039 21.4185 20.2359 21.3437 20.1815 21.3845C20.1339 21.4253 20.1679 21.4932 20.1135 21.534C19.9231 21.6496 19.7531 21.8876 19.5967 22.0712C19.5491 22.112 19.5151 22.0508 19.4607 22.0916C19.4131 22.1324 19.1751 22.4248 19.0935 22.6832C18.8895 23.132 18.6719 23.5332 18.3931 23.846C18.3251 23.9208 18.5495 24.22 18.5359 24.322C18.4747 24.4648 18.3455 24.4852 18.2843 24.628C18.2299 24.9748 18.2095 25.3692 18.1483 25.7431C18.0463 26.1035 18.1755 26.3619 18.2231 26.6883C18.2775 26.9603 18.2095 27.3139 18.2231 27.5791C18.2435 27.7899 18.3863 28.0279 18.3659 28.2319C18.3727 28.5515 18.2979 28.5107 18.3659 28.7759C18.3591 28.9323 18.3047 29.0887 18.3387 29.1907C18.3251 29.4015 18.2911 29.5306 18.2843 29.7346C18.2367 29.7822 18.1483 29.8842 18.1483 29.9318C18.1143 30.4554 17.7743 30.911 17.4207 31.2578C17.1963 31.4006 17.006 31.6182 16.7544 31.5978C16.6252 31.591 16.2036 31.8562 16.0608 31.8902C15.6868 31.9922 15.3876 31.999 15.0272 31.9514C14.6328 31.8426 14.3132 31.7474 14.0412 31.3394C13.878 31.1558 13.5992 31.2238 13.4972 30.945C13.4632 30.8362 13.2388 30.775 13.198 30.7206C12.9873 30.537 12.8785 30.3058 12.7221 30.0746C12.6201 29.7958 12.6949 29.6054 12.5657 29.3403C12.4365 29.1771 12.3821 29.0615 12.2529 28.8915C12.0829 28.6739 12.2937 28.3611 12.1645 28.1435C12.0761 28.0823 11.9877 27.9735 11.9469 27.8647C11.8653 27.6539 11.8857 27.3411 11.7565 27.1167C11.6885 26.8447 11.7293 25.8587 11.7837 25.5935C11.7905 25.5391 11.6409 25.4643 11.6477 25.41C11.6681 25.0292 11.8041 24.6552 11.7701 24.2608C11.8109 24.05 11.7905 23.88 11.9809 23.6964C11.9809 23.6964 11.8925 23.6216 11.8993 23.5672C12.0081 23.2612 12.0081 23.0232 12.0693 22.7036C12.0761 22.6492 12.1917 22.6152 12.1985 22.5676C12.1373 22.3364 12.1305 21.8604 12.1713 21.6496C12.1917 21.5408 12.4637 21.3845 12.5317 21.2893C12.5385 21.2349 12.4909 21.0989 12.5929 20.9153C12.6201 20.8677 12.6881 20.8813 12.7425 20.8405C12.7493 20.7861 12.7153 20.7249 12.7289 20.6705C12.7561 20.5141 13.0213 20.3985 13.0417 20.2897C13.1504 19.9293 13.3272 19.7797 13.5176 19.4873C13.5856 19.3581 13.6128 19.2221 13.7216 19.0997C13.7692 19.0657 13.7964 19.0997 13.8032 19.0521C13.81 19.0045 13.7896 18.9025 13.7964 18.8617C13.9052 18.7393 14.048 18.6305 14.0752 18.4945C14.15 18.3177 14.2112 18.1953 14.32 18.0729C14.5172 17.9233 14.7144 17.7805 14.8368 17.5697C14.9456 17.4474 15.068 17.4746 15.17 17.359C15.3264 17.2026 15.3672 16.9714 15.4828 16.8082C15.7548 16.4886 16.0472 16.2642 16.3396 16.0466C16.5844 15.863 16.8972 15.7882 17.1351 15.6522C17.3799 15.4686 17.5295 15.1218 17.7675 14.9858C17.9103 14.877 18.0871 14.8634 18.2367 14.7546C18.3863 14.6458 18.5087 14.435 18.7263 14.3874C19.2159 14.2582 18.8623 14.3942 19.3247 14.2106C19.6103 14.0338 19.4947 13.9862 19.7803 13.8162C20.2563 13.5374 20.5011 13.3675 20.5419 13.3743C20.5895 13.3403 20.6371 13.2995 20.6575 13.2111C20.7731 13.0479 21.3782 12.6195 21.4666 12.5923C21.555 12.5651 21.6638 12.6807 21.7658 12.5651C21.8202 12.4835 21.7114 12.4087 21.7658 12.3271C21.9222 12.1707 22.0718 11.9599 22.2214 11.8511C22.269 11.8171 22.3914 11.8851 22.4798 11.8579C22.5274 11.8239 22.5478 11.7287 22.5954 11.6947C22.6566 11.6131 22.5478 11.4907 22.6022 11.4091C22.6702 11.2799 22.7382 11.1507 22.8266 11.1235C22.9694 11.0623 23.1598 10.9603 23.1394 10.8583C23.1734 10.6747 23.2482 10.4979 23.4386 10.3959C23.4454 10.3483 23.459 10.3007 23.4658 10.2599C23.5746 10.1375 23.6766 10.0695 23.7854 9.94714C23.901 9.78394 23.8534 9.57995 23.9214 9.45075C24.139 9.21276 24.3498 9.02236 24.4042 8.69597C24.3906 8.54637 24.2954 8.33558 24.3634 8.20638C24.4178 8.12478 24.6014 8.07039 24.6218 7.97519C24.6558 7.79159 24.5606 7.5808 24.5538 7.3904C24.581 7.25441 24.7306 7.13881 24.7102 6.99601C24.6966 6.60842 24.717 6.23443 24.6626 5.84004C24.7918 5.81964 24.8122 5.73124 24.8258 5.63605C24.7918 5.34365 24.6218 5.06486 24.547 4.76567C24.5402 4.57527 24.6966 4.41888 24.6898 4.22848C24.6694 4.07889 24.5334 3.90889 24.377 3.77969C24.2342 3.6029 24.3294 3.3377 24.275 3.14051C24.2342 2.89571 24.0506 2.70532 24.0166 2.41293C24.003 2.26333 23.8262 2.27693 23.765 2.12053C23.7174 1.91654 23.663 1.71934 23.663 1.47455C23.6358 1.37255 23.5066 1.39295 23.4318 1.33175C23.2618 1.05296 23.323 0.495375 22.9558 0.366178C22.9898 0.182583 22.8198 0.141784 22.7654 -0.0078125C22.983 -0.0078125 23.187 0.0805853 23.3094 0.352578C23.3434 0.406977 23.4658 0.434176 23.5066 0.447776C23.6154 0.563373 23.6086 0.848966 23.7242 0.923764C23.8738 1.05296 24.0982 1.00536 24.1594 1.16176C24.241 1.42015 24.4382 1.55615 24.5266 1.76694C24.5198 1.81454 24.5402 1.91654 24.5742 1.97094C24.7238 2.10013 24.7442 2.24293 24.8462 2.36533C25.0978 2.65772 25.3493 2.95691 25.2337 3.3581C25.1589 3.5349 25.3833 3.4873 25.4513 3.5961C25.6213 3.87489 25.5533 4.24208 25.7709 4.48008C25.7301 4.94926 25.9545 5.37765 26.0973 5.79244C25.8525 6.16643 25.9885 6.82602 26.1789 7.20681C26.1789 7.20681 26.3149 7.18641 26.3217 7.14561C26.3625 6.91441 26.7773 6.83962 26.7093 6.73082C26.6277 6.47243 26.4985 5.93524 26.4985 5.69725C26.5257 5.31645 26.5393 4.99006 26.4781 4.59567C26.4441 4.54127 26.4101 4.48688 26.3761 4.43248C26.3285 4.22848 26.2741 4.02449 26.3149 3.80009C26.2877 3.6981 26.2129 3.6369 26.1857 3.5349C26.1925 3.4873 26.2129 3.3989 26.2197 3.3513C26.3149 3.3241 26.4305 3.3989 26.5121 3.4193C26.5869 3.4805 26.5189 3.6097 26.5529 3.6641C26.6889 3.88169 26.8861 3.97689 26.9269 4.22168C26.9201 4.26928 26.8997 4.35768 26.8929 4.40528C26.9269 4.69767 27.1037 4.92886 27.1445 5.17366C27.1649 5.31645 27.0357 5.52725 27.0969 5.69045C27.2873 6.06444 27.2941 6.49963 27.2669 6.92122C27.2329 7.10481 27.4641 7.25441 27.4029 7.3768C27.3349 7.506 27.4233 7.5264 27.3553 7.6556C27.3485 7.7032 27.2533 7.73039 27.2465 7.77799C27.3689 8.04319 27.1853 8.44438 27.1377 8.67557C27.1309 8.72317 27.2805 8.77077 27.3145 8.60077C27.3349 8.49877 27.5049 8.49878 27.6001 8.47158C27.7021 8.39678 27.7769 8.21998 27.7701 8.02959L27.8109 8.02279ZM28.7153 8.94076C28.7221 8.70957 28.8309 8.53957 28.7901 8.28798C28.7085 8.02959 28.5181 8.28798 28.3821 8.30158C28.4569 8.60757 28.3345 8.81157 28.2393 9.08356C28.1849 9.16516 28.1373 9.39635 28.2733 9.37595C28.4841 9.42355 28.7085 9.21956 28.7153 8.94076ZM28.3549 10.1987C28.4093 10.1239 28.3821 9.97434 28.3073 9.91314C28.1917 9.83834 28.0421 9.95394 27.9741 10.0763C27.9061 10.2055 27.9605 10.4095 28.1373 10.3959C28.1781 10.4027 28.3005 10.2803 28.3617 10.1919L28.3549 10.1987Z" fill="#0087CB"/>
<path d="M25.894 2.3672C26.1184 2.5372 26.2067 2.81599 26.3835 3.04718L26.3631 3.14238C26.0572 3.40758 25.7852 2.96559 25.7036 2.70719C25.5812 2.442 25.452 2.17681 25.2276 1.97961C25.2344 1.93201 25.248 1.89121 25.2548 1.84361C25.146 1.72122 25.0032 1.55122 25.146 1.48322C25.2072 1.40163 25.3092 1.56482 25.4248 1.63962C25.6016 1.87081 25.6356 2.16321 25.9008 2.3672H25.894Z" fill="#0087CB"/>
<path d="M27.1583 1.18971C27.1583 1.2373 27.0835 1.3189 27.0767 1.3597C26.9339 1.2237 26.7843 1.08771 26.6619 0.863313C26.6211 0.849714 26.5395 0.829314 26.5055 0.774916C26.4647 0.761316 26.4715 0.720517 26.4851 0.672918C26.6211 0.659319 26.7231 0.781715 26.8387 0.863313C26.8795 0.876913 26.9339 0.842914 26.9747 0.849714C27.0903 0.924512 27.1515 1.04011 27.1651 1.18971H27.1583Z" fill="#0087CB"/>
<path d="M8.2679 9.63493C8.3087 9.66893 8.3699 9.72333 8.3971 9.76413C8.46509 9.81172 8.53309 9.81172 8.60789 9.78453C8.67589 9.78453 8.73709 9.96812 8.81188 9.97492C8.91388 10.0225 8.97508 10.1993 9.07708 10.2877C9.14508 10.3285 9.21307 10.3965 9.28107 10.4373C9.37627 10.5597 9.43747 10.6821 9.53947 10.7637C9.60067 10.8453 9.70946 10.8181 9.78426 10.8249C9.92026 10.8725 9.97466 11.0697 10.0699 11.1921C10.1039 11.1921 10.1651 11.3145 10.1651 11.3553C10.233 11.3961 10.2942 11.4777 10.3962 11.5253C10.4234 11.5661 10.4234 11.6409 10.4506 11.6817C10.7022 12.0897 11.0354 12.3481 11.2462 12.7832C11.2462 12.7832 11.2734 12.8648 11.2734 12.8988C11.5318 13.1504 11.6474 13.5108 11.8718 13.7964C11.933 13.9188 11.9874 14.116 12.0486 14.2724C12.1166 14.354 12.1778 14.4016 12.2458 14.4832C12.341 14.6464 12.4294 14.8436 12.4498 15.0408C12.4498 15.1156 12.3954 15.3468 12.2594 15.2176C12.0962 15.0476 12.1098 14.8232 11.9466 14.694C11.9466 14.6532 11.9058 14.558 11.8718 14.5172C11.8038 14.4356 11.6882 14.4424 11.661 14.3268C11.6678 14.2112 11.5386 14.116 11.4774 14.0412C11.3142 13.8032 11.0694 13.7148 10.8722 13.4768C10.8382 13.4768 10.8042 13.4768 10.7634 13.5108C10.7294 13.5856 10.6206 13.6944 10.7158 13.8168C10.8518 13.8984 10.9198 14.0548 11.0898 14.1432C11.1918 14.2248 11.219 14.456 11.2802 14.6532C11.3482 14.7348 11.4162 14.8096 11.5182 14.8572C11.6202 14.9388 11.5794 15.0612 11.6746 15.1836C11.6746 15.2244 11.6338 15.2584 11.6338 15.2924C11.695 15.4148 11.8378 15.3876 11.933 15.51C12.0078 15.442 12.1098 15.4964 12.171 15.6052C12.0554 15.714 12.0894 15.7888 12.0418 15.9044C11.9262 16.088 12.1914 16.2648 12.3614 16.3532C12.4702 16.36 12.4498 16.5504 12.5518 16.6388C12.613 16.7612 12.7898 16.7748 12.8782 16.9379C12.9054 17.0195 12.8374 17.0535 12.7966 17.1215C12.7898 17.2371 12.9258 17.2847 12.9938 17.3323C13.0618 17.3799 13.089 17.4547 13.1162 17.5363C13.0074 17.5635 12.8034 17.4207 12.6946 17.4139C12.6266 17.3867 12.5042 17.2371 12.3682 17.2031C12.3206 17.1895 12.2866 17.3051 12.239 17.2915C12.1778 17.2779 12.1098 17.2643 12.0418 17.2507C11.967 17.2371 11.7902 17.0399 11.7154 17.0331C11.627 17.0195 11.5182 17.1759 11.4366 17.1623C11.1238 17.1079 11.1102 17.0875 11.0082 17.0467C10.8926 16.9991 10.777 16.9447 10.675 16.8835C10.607 16.8495 10.6274 16.7544 10.5594 16.7136C10.4982 16.6728 10.3554 16.6728 10.2942 16.632C10.0427 16.4756 9.80466 16.1288 9.58707 16.0132C9.44427 15.9384 9.32867 15.8636 9.16548 15.7888C9.09068 15.7412 9.02948 15.6324 8.93428 15.5984C8.63509 15.4964 8.3971 15.3128 8.0639 15.2176C7.42472 15.034 6.89433 15.4012 6.37075 15.6732C6.34355 15.6732 6.28915 15.6732 6.26195 15.6868C6.13955 15.7888 6.00355 15.8432 5.88116 15.9248C5.71796 16.054 5.49357 16.088 5.31677 16.19C5.26237 16.224 5.25557 16.326 5.20118 16.36C5.11958 16.4076 4.96318 16.4212 4.88158 16.4688C4.80679 16.5164 4.79998 16.6048 4.72519 16.666C4.57559 16.7884 4.43279 16.8835 4.2288 16.9787C4.1132 17.0399 3.15443 17.2031 2.99803 17.2031C2.75324 17.2031 2.57644 17.4071 2.20925 17.4071C1.65166 17.4071 1.08728 17.3935 0.62489 17.0467C0.529692 16.9651 0.509293 16.7272 0.441294 16.6864C0.237299 16.5572 0.257699 16.2852 0.2033 16.088C0.135302 16.0472 -0.000694681 16.0336 0.00610515 15.918C0.0809033 15.3468 0.366496 14.83 0.713287 14.4356C0.794885 14.286 0.971681 14.2248 0.992081 14.0344C0.992081 14.0344 1.30487 13.5992 1.49527 13.4224C1.53607 13.3476 1.47487 13.2252 1.51567 13.1572C1.80126 12.5997 2.31805 12.2189 2.74644 11.7157C2.86203 11.6069 2.93683 11.4641 3.11363 11.4369C3.18843 11.4369 3.25642 11.4505 3.29722 11.3757C3.37882 11.1921 3.52842 11.0901 3.63721 11.0153C4.0452 10.7365 4.3852 10.3217 4.84758 10.2469C4.92238 10.2129 4.96318 10.1381 5.03118 10.1041C5.10598 10.0361 5.24197 10.1177 5.31677 10.0905C5.66356 9.93412 5.97636 9.60093 6.32995 9.55333C6.40475 9.51933 6.44554 9.44453 6.47954 9.45133C6.79234 9.47853 7.16633 9.19974 7.45872 9.49213C7.72391 9.43773 8.1251 9.49213 8.2883 9.63493H8.2679ZM10.675 13.0008C10.675 12.96 10.675 12.926 10.675 12.8852C10.539 12.8037 10.4778 12.5657 10.301 12.5181C10.267 12.5181 10.1923 12.5521 10.1923 12.5929C10.1855 12.824 10.2806 12.9804 10.3758 13.1776C10.4166 13.028 10.5186 13.0348 10.5866 13.1504C10.6206 13.1164 10.6614 13.0416 10.6614 13.0008H10.675Z" fill="#2E9647"/>
<path d="M44.2194 23.7579L42.6351 25.4103L38.2288 21.1128C37.6508 22.1396 36.9572 23.0099 36.1548 23.7307C35.3525 24.4447 34.5501 25.0295 33.7545 25.4783L32.2109 23.7171C33.0813 23.2819 33.8225 22.7787 34.4345 22.2008C35.0465 21.6228 35.5497 21.0108 35.944 20.3784C36.3316 19.7392 36.6172 19.0932 36.8008 18.4269C36.9776 17.7605 37.0728 17.1077 37.0728 16.4753V13.4358H39.5072V16.0401C39.5072 16.5501 39.4732 17.0329 39.412 17.4953C39.344 17.9577 39.2624 18.4065 39.1604 18.8416L44.2194 23.7715V23.7579ZM49.2581 31.2241H46.953V19.5828H42.1523V17.3661H46.953V11.457H49.2581V31.2173V31.2241Z" fill="white"/>
<path d="M70.0926 22.5876H61.8648V23.6756H65.9447V28.7755H58.0637V29.7547H66.4683V31.9714H55.6769V26.6743H63.5375V25.804H55.5681V23.6756H59.5392V22.5876H51.4814V20.4185H70.0926V22.5876ZM65.7475 15.5974C65.7475 16.223 65.6115 16.7874 65.3463 17.3042C65.0811 17.821 64.7207 18.2629 64.2719 18.6369C63.8095 18.9973 63.2588 19.2829 62.6332 19.4869C62.0008 19.6909 61.3208 19.7929 60.5796 19.7929C59.886 19.7929 59.2332 19.6977 58.6145 19.5073C57.9957 19.3169 57.4517 19.0449 56.9757 18.6845C56.5133 18.3241 56.1461 17.8821 55.8809 17.3722C55.6157 16.8554 55.4797 16.2774 55.4797 15.6246C55.4797 14.9718 55.6089 14.3802 55.8673 13.8566C56.1257 13.3263 56.4929 12.8775 56.9553 12.4967C57.4041 12.1227 57.9413 11.8303 58.5601 11.6263C59.1789 11.4223 59.852 11.3203 60.5796 11.3203C61.3072 11.3203 61.96 11.4223 62.5856 11.6263C63.218 11.8303 63.7619 12.1159 64.2243 12.4967C64.6867 12.8571 65.0539 13.3059 65.3327 13.8295C65.6047 14.3598 65.7475 14.9514 65.7475 15.5974ZM63.3607 15.577C63.3607 14.897 63.0888 14.3598 62.538 13.9722C61.9872 13.5779 61.3344 13.3875 60.5864 13.3875C59.8384 13.3875 59.1517 13.5779 58.6213 13.9654C58.0909 14.3462 57.8325 14.8902 57.8325 15.5838C57.8325 16.2774 58.0977 16.7738 58.6213 17.1478C59.1517 17.5218 59.8044 17.7122 60.5864 17.7122C61.3684 17.7122 61.9872 17.5422 62.538 17.1954C63.0888 16.8486 63.3607 16.3114 63.3607 15.5906V15.577Z" fill="white"/>
<path d="M89.6425 24.0092H71.0586V21.8197H89.6425V24.0092ZM85.6034 31.9718H83.2779V27.4431H74.9617V25.2264H85.6034V31.9718ZM85.5626 20.6909H75.0501V12.1367H85.4266V14.3263H77.3484V15.2578H85.1682V17.4746H77.3484V18.4946H85.5558V20.6841L85.5626 20.6909Z" fill="white"/>
<path d="M100.066 21.5625H91.2266V12.5323H93.5249V15.1367H97.7408V12.5323H100.066V21.5625ZM97.7408 19.3662V17.3262H93.5249V19.3662H97.7408ZM106.601 31.9595H95.9388V26.506H103.691V25.3772H95.83V23.1809H106.077V28.6343H98.3664V29.7631H106.594V31.9527L106.601 31.9595ZM106.778 22.5553H104.5V20.4473H100.767V18.2714H104.5V16.7074H100.767V14.5111H104.5V11.4512H106.778V22.5485V22.5553Z" fill="white"/>
<path d="M120.942 23.8279L119.358 25.4803L114.972 21.1624C114.407 22.2028 113.721 23.0868 112.918 23.8007C112.116 24.5147 111.3 25.0995 110.477 25.5483L108.934 23.7871C109.818 23.3112 110.566 22.7808 111.178 22.2028C111.79 21.6248 112.293 21.0196 112.687 20.4008C113.061 19.7616 113.34 19.1225 113.523 18.4697C113.707 17.8169 113.795 17.1709 113.795 16.5385V13.431H116.23V16.1033C116.23 16.6133 116.196 17.0893 116.135 17.5449C116.073 18.0005 115.985 18.4357 115.883 18.8573L120.942 23.8279ZM125.695 31.233H123.37V11.4727H125.695V31.233Z" fill="white"/>
</g>
<defs>
<clipPath id="clip0_2158_12868">
<rect width="125.695" height="32" fill="white"/>
</clipPath>
</defs>
</svg>
