<svg width="270" height="186" viewBox="0 0 270 186" fill="none" xmlns="http://www.w3.org/2000/svg">
<g clip-path="url(#clip0_2215_16449)">
<path d="M127.335 39.006C127.335 51.6126 137.543 61.8284 150.14 61.8284H161.836C174.434 61.8284 184.642 51.6126 184.642 39.006C184.642 26.3993 174.434 16.1836 161.836 16.1836H150.14C137.543 16.1836 127.335 26.3993 127.335 39.006Z" fill="#111111"/>
<path d="M71.9587 153.255C65.9858 161.308 67.6582 172.686 75.7053 178.664C83.7525 184.641 95.1228 182.967 101.107 174.914L143.829 117.434C149.802 109.381 148.13 98.0027 140.083 92.0254C132.035 86.0481 122.891 89.3628 116.908 97.4159L71.9587 153.255Z" fill="white"/>
<path d="M216.568 181.712C221.835 190.243 233.02 192.884 241.556 187.613C250.081 182.343 254.816 169.866 249.538 161.335L206.805 98.4974C201.537 89.9662 191.579 86.5646 183.054 91.8463C174.529 97.1281 171.89 108.322 177.157 116.853L216.568 181.723V181.712Z" fill="white"/>
<path d="M36.757 56.0871C28.4166 59.9234 24.7568 69.8131 28.5904 78.1596L37.3868 97.3195C41.2204 105.677 51.092 109.328 59.4432 105.492C67.7945 101.656 71.4434 91.7661 67.6098 83.4196L58.8133 64.2597C54.9798 55.9023 45.0973 52.2508 36.7461 56.0871H36.757Z" fill="#FBCBB5"/>
<path d="M103.789 136.766C103.789 102.402 129.527 74.5371 161.281 74.5371C193.035 74.5371 218.773 102.402 218.773 136.766V213.699C218.773 248.063 103.8 240.869 103.8 206.505V136.777L103.789 136.766Z" fill="white"/>
<path d="M182.033 72.7207L161.964 88.9789L181.697 102.227L182.033 72.7207Z" fill="#FF7D02"/>
<path d="M172.47 67.4244C172.47 76.0398 179.435 83.0285 188.02 83.0285H195.559C204.144 83.0285 211.109 76.0398 211.109 67.4244C211.109 58.8091 204.144 51.8203 195.559 51.8203H188.02C179.435 51.8203 172.47 58.8091 172.47 67.4244Z" fill="#111111"/>
<path d="M187.709 111.47L214.207 189.498L155.104 209.598L128.606 131.571L187.709 111.47Z" fill="#111111"/>
<path d="M183.964 117.963L210.932 197.373L150.782 217.83L123.815 138.419L183.964 117.963Z" fill="#FFE248"/>
<path d="M237.75 189.924C247.607 184.295 252.975 177.121 250.228 167.471C247.48 157.82 237.435 152.234 227.791 154.984L169.007 188.326L178.965 223.266L237.75 189.924Z" fill="white"/>
<path d="M56.8901 59.8991C60.0938 58.8558 63.8187 61.5075 65.2196 65.8112L71.2251 84.0691C72.626 88.3728 71.1708 92.7199 67.978 93.7523C64.7744 94.7956 61.0494 92.1439 59.6485 87.8402L53.643 69.5823C52.2421 65.2787 53.6973 60.9424 56.8901 59.8991Z" fill="#FBCBB5"/>
<path d="M70.2264 171.709C74.3857 180.838 85.1587 184.86 94.281 180.697C103.403 176.535 107.421 165.754 103.262 156.625L72.6156 88.2773L39.5907 103.362L70.2264 171.709Z" fill="white"/>
<path d="M141.852 70.4238L160.607 88.9752L142.243 102.223L141.852 70.4238Z" fill="#FF7D02"/>
<path d="M148.977 75.5909C148.977 83.068 155.026 89.1213 162.498 89.1213C169.97 89.1213 176.019 83.068 176.019 75.5909V64.1906C176.019 56.7135 169.959 50.6602 162.498 50.6602C155.026 50.6602 148.977 56.7135 148.977 64.1906V75.5909Z" fill="#FBCBB5"/>
<path d="M192.47 52.0245C192.47 67.9676 179.558 80.8894 163.626 80.8894C140.137 79.8678 134.783 67.9676 134.783 52.0245V35.0055C134.783 19.0624 147.695 6.14062 163.626 6.14062C179.558 6.14062 192.47 19.0624 192.47 35.0055V52.0245Z" fill="#FBCBB5"/>
<path d="M132.897 36.2551C135.39 20.5285 162.534 9.55875 169.458 26.4745C171.929 32.5176 170.056 39.8712 179.385 42.5894C188.326 45.1862 191.749 45.793 191.749 47.2491C191.749 48.7053 198.541 63 198.541 63C198.541 63 219.591 1.11299 164.617 0.00872965C155.742 -0.173291 142.747 2.45994 137.263 10.845C133.241 16.9852 132.598 25.4673 132 32.8817" fill="#111111"/>
<path d="M143.155 60.9727H165.439C165.439 60.9727 165.439 71.5905 153.244 71.5905C153.244 71.5905 143.155 71.058 143.155 60.9727Z" fill="#E4745A"/>
<path d="M140.832 47.4967C140.832 48.6921 141.799 49.6594 142.993 49.6594C144.188 49.6594 145.154 48.6921 145.154 47.4967C145.154 46.3012 144.188 45.334 142.993 45.334C141.799 45.334 140.832 46.3012 140.832 47.4967Z" fill="#111111" stroke="#111111" stroke-miterlimit="10"/>
<path d="M163.252 47.4967C163.252 48.6921 164.219 49.6594 165.402 49.6594C166.586 49.6594 167.563 48.6921 167.563 47.4967C167.563 46.3012 166.597 45.334 165.402 45.334C164.208 45.334 163.252 46.3012 163.252 47.4967Z" fill="#111111" stroke="#111111" stroke-miterlimit="10"/>
<path d="M186.984 42.2709C188.135 47.77 166.34 38.9135 162.094 35.3272C156.696 30.7735 154.285 19.884 154.969 12.9395C154.969 12.9395 179.393 3.76767 186.984 40.077L186.984 42.2709Z" fill="#111111"/>
<path d="M198.497 52.5683C198.497 57.4153 194.891 61.3495 190.46 61.3495C186.029 61.3495 182.413 57.4153 182.413 52.5683C182.413 47.7213 186.019 43.7871 190.46 43.7871C194.902 43.7871 198.497 47.7213 198.497 52.5683Z" fill="#FBCBB5"/>
<g style="mix-blend-mode:multiply">
<path opacity="0.3" d="M177.864 58.6868C177.864 60.7951 176.159 62.5123 174.042 62.5123H171.37C169.263 62.5123 167.547 60.806 167.547 58.6868C167.547 56.5784 169.252 54.8613 171.37 54.8613H174.042C176.148 54.8613 177.864 56.5676 177.864 58.6868Z" fill="#F9B296"/>
</g>
</g>
<defs>
<clipPath id="clip0_2215_16449">
<rect width="270" height="186" fill="white" transform="matrix(-1 0 0 1 270 0)"/>
</clipPath>
</defs>
</svg>
