<svg width="90" height="90" viewBox="0 0 90 90" fill="none" xmlns="http://www.w3.org/2000/svg">
<circle cx="45" cy="45" r="45" fill="#C9DDFD"/>
<g clip-path="url(#clip0_2209_2773)">
<mask id="mask0_2209_2773" style="mask-type:alpha" maskUnits="userSpaceOnUse" x="0" y="0" width="90" height="90">
<circle cx="45" cy="45" r="45" fill="#C9DDFD"/>
</mask>
<g mask="url(#mask0_2209_2773)">
<path d="M57.4335 69.6504V64.0996H31.766V69.6504C32.7244 78.336 30.2086 84.8602 26.0555 87.9301C21.9273 90.9851 17.1453 92.3727 17.1453 92.3727C20.5496 106.025 47.1705 104.013 47.1705 104.013C64.971 104.423 70.3471 92.3727 70.3471 92.3727C65.9044 91.609 63.5434 89.0582 61.5067 86.9218C56.0757 81.2112 57.4385 69.6504 57.4385 69.6504H57.4335Z" fill="url(#paint0_radial_2209_2773)"/>
<path d="M72.3687 46.5648C74.0459 49.6846 72.6283 55.3153 68.2705 56.6331C64.961 57.5316 63.0342 55.9292 61.357 52.8094C59.6748 49.6846 61.0425 46.6197 64.1124 44.5731C67.6615 42.4566 70.6915 43.4449 72.3687 46.5697V46.5648Z" fill="url(#paint1_radial_2209_2773)"/>
<path d="M17.0754 46.5648C15.3982 49.6846 16.8159 55.3153 21.1737 56.6331C24.4832 57.5316 26.405 55.9292 28.0872 52.8094C29.7694 49.6846 28.4017 46.6197 25.3318 44.5731C21.7826 42.4566 18.7577 43.4449 17.0754 46.5697V46.5648Z" fill="url(#paint2_radial_2209_2773)"/>
<path d="M67.1574 49.0902C67.1574 61.8241 59.2206 75.0622 44.7096 75.0622C30.4732 75.0622 22.2568 61.8241 22.2568 49.0902V43.5195C22.2568 30.7856 32.3102 20.4627 44.7096 20.4627C57.1091 20.4627 67.1574 30.7856 67.1574 43.5195V49.0902Z" fill="url(#paint3_radial_2209_2773)"/>
<path d="M37.7362 32.9417C37.7362 32.9417 44.7496 26.3826 49.5816 26.742C53.4302 26.6871 54.7779 28.2994 55.2771 29.0332C59.3653 34.9634 65.4952 40.01 66.8379 42.0067C67.2023 44.5275 69.2939 43.4443 70.0127 39.8004C70.0127 39.8004 72.6833 22.3842 61.4718 17.5023C56.1207 12.1412 45.718 10.7285 36.658 13.1296C35.3501 13.474 16.3866 15.4208 19.1919 39.8203C19.1919 39.8203 19.716 45.6956 22.5813 41.7471C24.568 41.852 26.9491 41.193 28.806 39.5957C34.9059 36.5058 37.7262 32.9417 37.7262 32.9417H37.7362Z" fill="url(#paint4_linear_2209_2773)"/>
<path d="M39.3733 47.3078C39.3733 48.5658 38.6395 49.5941 37.736 49.5941C36.8325 49.5941 36.0938 48.5708 36.0938 47.3078C36.0938 46.0449 36.8275 45.0216 37.736 45.0216C38.6445 45.0216 39.3733 46.0449 39.3733 47.3078Z" fill="url(#paint5_radial_2209_2773)"/>
<path opacity="0.3" d="M37.7361 46.6387C37.7361 47.0081 37.4965 47.3126 37.2019 47.3126C36.9074 47.3126 36.6628 47.0131 36.6628 46.6387C36.6628 46.2643 36.9024 45.9648 37.2019 45.9648C37.5015 45.9648 37.7361 46.2643 37.7361 46.6387Z" fill="white"/>
<path d="M53.4302 47.3078C53.4302 48.5658 52.6964 49.5941 51.7929 49.5941C50.8894 49.5941 50.1506 48.5708 50.1506 47.3078C50.1506 46.0449 50.8894 45.0216 51.7929 45.0216C52.6964 45.0216 53.4302 46.0449 53.4302 47.3078Z" fill="url(#paint6_radial_2209_2773)"/>
<path opacity="0.3" d="M51.7927 46.6387C51.7927 47.0081 51.5481 47.3126 51.2586 47.3126C50.9691 47.3126 50.7195 47.0131 50.7195 46.6387C50.7195 46.2643 50.9541 45.9648 51.2586 45.9648C51.5631 45.9648 51.7927 46.2643 51.7927 46.6387Z" fill="white"/>
<path d="M46.9806 50.8358C47.2252 52.7676 46.9807 54.3699 44.7294 54.3699C42.9274 54.3699 42.2335 52.7676 42.4781 50.8358C42.7327 48.8491 43.4864 47.3066 44.7294 47.3066C45.9723 47.3066 46.7261 48.8491 46.9806 50.8358Z" fill="url(#paint7_radial_2209_2773)"/>
<path d="M44.9392 59.3585H44.9292C41.5598 59.3585 40.0523 57.7412 39.9924 57.6713C39.8077 57.4667 39.8227 57.1522 40.0274 56.9675C40.232 56.7828 40.5465 56.7978 40.7312 56.9974C40.7861 57.0573 42.044 58.3602 44.9342 58.3602H44.9442C45.7479 58.3602 47.9592 58.1256 48.718 57.0474C48.8777 56.8227 49.1872 56.7678 49.4118 56.9276C49.6364 57.0873 49.6913 57.3968 49.5316 57.6214C48.3286 59.3236 45.1638 59.3535 44.9342 59.3535L44.9392 59.3585Z" fill="#C65750"/>
<path d="M106.637 110.602C100.592 99.2712 90.4587 94.1347 87.7732 92.8768C85.9212 91.7237 68.4202 85.0048 68.4202 85.0048C66.6382 84.1513 64.9161 83.2428 64.1473 82.5938C64.1473 82.5938 55.0574 86.0032 45.0989 86.3925C35.1404 86.0032 26.0505 82.5938 26.0505 82.5938C25.2867 83.2378 23.5646 84.1463 21.7776 85.0048C21.7776 85.0048 4.27657 91.7237 2.42463 92.8768C-0.265907 94.1347 -10.3941 99.2762 -16.4391 110.602C-16.4391 110.602 -34.01 147.267 -34 167.318C-34 167.318 -32.4376 185.967 -13.1246 199.695L-2.5621 190.34V178.355C-3.20104 177.067 -3.80504 175.705 -4.29423 174.322C-4.29423 174.322 -6.29591 171.956 -2.5621 163.115V178.35C-4.34415 182.913 -2.5621 185.823 -2.5621 185.823V216.272H41.7794C43.0673 216.272 44.1655 216.152 45.1039 215.943C46.0423 216.152 47.1405 216.272 48.4284 216.272H92.7699V190.335L103.332 199.69C122.645 185.963 124.208 167.313 124.208 167.313C124.218 147.262 106.647 110.597 106.647 110.597L106.637 110.602ZM94.492 174.322C94.0078 175.705 93.4038 177.067 92.7649 178.355V163.12C96.4987 171.961 94.492 174.327 94.492 174.327V174.322Z" fill="url(#paint8_linear_2209_2773)"/>
<path d="M43.0374 86.8535H46.5516L50.7546 91.965C50.7546 91.965 49.1224 95.4842 48.3337 97.0766H41.3103C41.3103 97.0766 39.1289 93.5574 38.9492 91.965L43.0374 86.8535Z" fill="url(#paint9_linear_2209_2773)"/>
<path d="M44.665 86.5591C44.665 86.5591 48.294 92.4393 49.527 94.5359C49.527 94.5359 51.5686 98.4094 54.938 95.4444C54.938 95.4444 62.82 88.5059 65.211 84.9068L59.4056 77.9434C59.4056 77.9434 47.1659 85.5058 44.665 86.5591Z" fill="url(#paint10_linear_2209_2773)"/>
<path d="M44.665 86.5591C44.665 86.5591 41.041 92.4393 39.808 94.5359C39.808 94.5359 37.7664 98.4094 34.397 95.4444C34.397 95.4444 26.5201 88.5059 24.124 84.9068L29.9294 77.9434C29.9294 77.9434 42.1691 85.5058 44.67 86.5591H44.665Z" fill="url(#paint11_linear_2209_2773)"/>
<path d="M54.4336 53.9231C52.5318 53.9231 50.9794 53.4888 50.9145 53.4738C46.377 51.4572 46.6266 45.7067 46.6316 45.6468C46.4818 43.8448 47.3654 43.146 47.4053 43.116C49.2522 42.1077 51.4935 41.6035 54.1042 41.6035C57.5684 41.6035 60.4936 42.512 60.5236 42.522L60.5685 42.542C62.086 43.3906 61.6916 45.8964 61.6716 46.0012C60.9279 52.1361 58.4869 53.0745 58.1675 53.1693C57.1491 53.6685 55.8962 53.9231 54.4386 53.9231H54.4336ZM51.0842 53.0046C51.0842 53.0046 52.6216 53.4239 54.4336 53.4239C55.8213 53.4239 57.0094 53.1843 57.9628 52.7101L58.0127 52.6901C58.0127 52.6901 60.4387 51.9763 61.1725 45.9263C61.1725 45.8914 61.5269 43.6801 60.3389 42.9862C60.0493 42.9014 57.3139 42.0977 54.0942 42.0977C51.5734 42.0977 49.412 42.5769 47.6699 43.5303C47.6699 43.5303 46.996 44.0894 47.1208 45.6368C47.1208 45.7267 46.8861 51.1377 51.0742 53.0046H51.0842Z" fill="#2A2F38"/>
<path d="M58.5964 42.3105C58.5964 42.3105 66.9476 42.4952 68.5 42.5551C68.5 42.5551 69.1689 42.4254 68.7895 43.0992L61.6264 44.9112C61.6264 44.9112 61.4866 42.3455 58.5964 42.3105Z" fill="#2A2F38"/>
<path d="M30.8023 42.3105C30.8023 42.3105 22.4512 42.4952 20.8987 42.5551C20.8987 42.5551 20.2299 42.4254 20.6142 43.0992L27.7773 44.9112C27.7773 44.9112 27.9221 42.3455 30.8073 42.3105H30.8023Z" fill="#2A2F38"/>
<path d="M34.8213 53.9231C33.3637 53.9231 32.1108 53.6685 31.0925 53.1693C30.773 53.0745 28.332 52.1361 27.5833 45.9912C27.5683 45.8964 27.174 43.3906 28.6914 42.542L28.7364 42.522C28.7663 42.512 31.6915 41.6035 35.1557 41.6035C37.7614 41.6035 40.0027 42.1077 41.8197 43.096C41.8896 43.146 42.7781 43.8448 42.6233 45.6818C42.6233 45.7067 42.8779 51.4572 38.3754 53.4639C38.2756 53.4938 36.7231 53.9281 34.8213 53.9281V53.9231ZM28.9111 42.9912C27.728 43.6801 28.0725 45.8964 28.0775 45.9214C28.8112 51.9763 31.2173 52.6901 31.2422 52.6951L31.2921 52.7151C32.2456 53.1893 33.4336 53.4289 34.8213 53.4289C36.6532 53.4289 38.1907 52.9996 38.2057 52.9996C42.3638 51.1477 42.1292 45.7367 42.1242 45.6818C42.254 44.1044 41.5751 43.5453 41.5451 43.5203C39.838 42.5919 37.6765 42.1127 35.1557 42.1127C31.9361 42.1127 29.2006 42.9113 28.9111 43.0012V42.9912Z" fill="#2A2F38"/>
<path d="M46.8762 44.9113H42.134V43.873H47.1457L46.8762 44.9113Z" fill="#2A2F38"/>
</g>
</g>
<defs>
<radialGradient id="paint0_radial_2209_2773" cx="0" cy="0" r="1" gradientUnits="userSpaceOnUse" gradientTransform="translate(43.8112 89.7759) rotate(-90.15) scale(25.4828 23.9538)">
<stop stop-color="#F6DCDB"/>
<stop offset="0.39" stop-color="#EDBDC7"/>
<stop offset="0.7" stop-color="#E4AEAD"/>
<stop offset="0.87" stop-color="#D598A9"/>
<stop offset="0.97" stop-color="#BA7F8C"/>
</radialGradient>
<radialGradient id="paint1_radial_2209_2773" cx="0" cy="0" r="1" gradientUnits="userSpaceOnUse" gradientTransform="translate(63.7384 52.2702) rotate(-35.03) scale(6.88778 6.18495)">
<stop stop-color="#BA7F8C"/>
<stop offset="0.28" stop-color="#D598A9"/>
<stop offset="0.5" stop-color="#E4AEAD"/>
<stop offset="0.63" stop-color="#EDBDC7"/>
<stop offset="0.82" stop-color="#F6DCDB"/>
<stop offset="1" stop-color="#D598A9"/>
</radialGradient>
<radialGradient id="paint2_radial_2209_2773" cx="0" cy="0" r="1" gradientUnits="userSpaceOnUse" gradientTransform="translate(37.533 61.4898) rotate(-144.97) scale(6.88779 6.18495)">
<stop stop-color="#BA7F8C"/>
<stop offset="0.28" stop-color="#D598A9"/>
<stop offset="0.5" stop-color="#E4AEAD"/>
<stop offset="0.63" stop-color="#EDBDC7"/>
<stop offset="0.82" stop-color="#F6DCDB"/>
<stop offset="1" stop-color="#D598A9"/>
</radialGradient>
<radialGradient id="paint3_radial_2209_2773" cx="0" cy="0" r="1" gradientUnits="userSpaceOnUse" gradientTransform="translate(44.6597 44.7449) scale(23.0381 29.2133)">
<stop offset="0.2" stop-color="#F6DCDB"/>
<stop offset="0.39" stop-color="#EDBDC7"/>
<stop offset="0.7" stop-color="#E4AEAD"/>
<stop offset="0.87" stop-color="#D598A9"/>
<stop offset="0.97" stop-color="#BA7F8C"/>
</radialGradient>
<linearGradient id="paint4_linear_2209_2773" x1="70.2922" y1="27.6904" x2="18.9124" y2="27.6904" gradientUnits="userSpaceOnUse">
<stop stop-color="#482934"/>
<stop offset="0.37" stop-color="#684334"/>
<stop offset="0.6" stop-color="#684334"/>
<stop offset="0.81" stop-color="#4C2C30"/>
<stop offset="0.99" stop-color="#462530"/>
</linearGradient>
<radialGradient id="paint5_radial_2209_2773" cx="0" cy="0" r="1" gradientUnits="userSpaceOnUse" gradientTransform="translate(35.9342 47.5085) scale(2.04701 2.55876)">
<stop stop-color="#584D4E"/>
<stop offset="0.51" stop-color="#362122"/>
<stop offset="1" stop-color="#07070B"/>
</radialGradient>
<radialGradient id="paint6_radial_2209_2773" cx="0" cy="0" r="1" gradientUnits="userSpaceOnUse" gradientTransform="translate(50.0702 239.514) scale(2.047 2.55876)">
<stop stop-color="#584D4E"/>
<stop offset="0.51" stop-color="#362122"/>
<stop offset="1" stop-color="#07070B"/>
</radialGradient>
<radialGradient id="paint7_radial_2209_2773" cx="0" cy="0" r="1" gradientUnits="userSpaceOnUse" gradientTransform="translate(44.7757 50.6265) scale(3.39907 5.29133)">
<stop offset="0.17" stop-color="#F6D9D6"/>
<stop offset="0.48" stop-color="#EDB4B3"/>
<stop offset="0.68" stop-color="#E4A6A5"/>
<stop offset="0.87" stop-color="#D09392"/>
<stop offset="1" stop-color="#C17E70"/>
</radialGradient>
<linearGradient id="paint8_linear_2209_2773" x1="-34.005" y1="149.433" x2="124.198" y2="149.433" gradientUnits="userSpaceOnUse">
<stop stop-color="#F9F3F8"/>
<stop offset="0.28" stop-color="#F5F7F7"/>
<stop offset="0.56" stop-color="#F5F7F7"/>
<stop offset="0.72" stop-color="#E4E2E8"/>
<stop offset="1" stop-color="#D3CFD5"/>
</linearGradient>
<linearGradient id="paint9_linear_2209_2773" x1="38.9492" y1="91.965" x2="50.7497" y2="91.965" gradientUnits="userSpaceOnUse">
<stop stop-color="#E78184"/>
<stop offset="0.51" stop-color="#E26E69"/>
<stop offset="1" stop-color="#D85645"/>
</linearGradient>
<linearGradient id="paint10_linear_2209_2773" x1="52.4921" y1="82.4159" x2="58.8066" y2="91.8952" gradientUnits="userSpaceOnUse">
<stop stop-color="white"/>
<stop offset="1" stop-color="#EAE3EB"/>
</linearGradient>
<linearGradient id="paint11_linear_2209_2773" x1="36.8379" y1="82.4159" x2="30.5184" y2="91.8952" gradientUnits="userSpaceOnUse">
<stop stop-color="white"/>
<stop offset="1" stop-color="#EAE3EB"/>
</linearGradient>
<clipPath id="clip0_2209_2773">
<rect width="90" height="90" fill="white"/>
</clipPath>
</defs>
</svg>
