<svg width="270" height="186" viewBox="0 0 270 186" fill="none" xmlns="http://www.w3.org/2000/svg">
<g clip-path="url(#clip0_2215_16534)">
<path d="M31.1968 188.281C24.521 197.728 26.6304 210.878 35.9369 217.668C45.2433 224.444 58.1979 222.303 64.8862 212.856L128.096 123.387C134.784 113.94 132.65 100.789 123.356 94.0003C114.049 87.211 103.663 91.2417 96.9749 100.676L31.1968 188.281Z" fill="#FFE248"/>
<path d="M212.362 196.287C218.38 206.175 231.161 209.236 240.915 203.127C250.655 197.017 256.065 182.557 250.035 172.669L201.207 99.8394C195.189 89.9516 183.81 86.0091 174.069 92.1307C164.329 98.2524 161.313 111.226 167.331 121.114L212.362 196.299V196.287Z" fill="#FFE248"/>
<path d="M83.4999 144.194C83.4999 104.365 112.908 72.0689 149.191 72.0689C185.474 72.0689 214.882 104.365 214.882 144.194V233.36C214.882 273.189 83.5123 264.85 83.5123 225.022V144.206L83.4999 144.194Z" fill="#FFE248"/>
<path d="M169.103 72.85L147.674 91.8394L168.669 105.4L169.103 72.85Z" fill="white"/>
<path d="M126.245 72.85L147.673 91.8394L126.679 105.4L126.245 72.85Z" fill="white"/>
<path d="M238.234 207.509C249.253 204.31 255.631 192.671 252.492 181.486C249.353 170.301 237.875 163.827 226.856 167.013L159.688 205.658L171.067 246.154L238.234 207.509Z" fill="#FFE248"/>
<path d="M163.244 77.7702C163.244 86.1317 156.403 92.9011 147.954 92.9011C139.504 92.9011 132.664 86.1317 132.664 77.7702V65.0215C132.664 56.66 139.516 49.8906 147.954 49.8906C156.403 49.8906 163.244 56.66 163.244 65.0215V77.7702Z" fill="#FBCBB5"/>
<path d="M168.635 48.1136C168.635 53.7818 172.779 58.3793 177.904 58.3793C183.029 58.3793 187.173 53.7818 187.173 48.1136C187.173 42.4454 183.029 37.8478 177.904 37.8478C172.779 37.8478 168.635 42.4454 168.635 48.1136Z" fill="#FBCBB5"/>
<path d="M108.884 48.1136C108.884 53.7818 113.041 58.3793 118.153 58.3793C123.265 58.3793 127.422 53.7818 127.422 48.1136C127.422 42.4454 123.265 37.8478 118.153 37.8478C113.041 37.8478 108.884 42.4454 108.884 48.1136Z" fill="#FBCBB5"/>
<path d="M178.286 54.2548C178.286 70.5265 164.59 83.7 147.674 83.7C130.757 83.7 117.062 70.5265 117.062 54.2548V29.4452C117.062 13.1735 130.782 0 147.674 0C164.59 0 178.286 13.1735 178.286 29.4452V54.2548Z" fill="#FBCBB5"/>
<path d="M178.175 43.6645C177.969 35.5581 170.239 18.6653 170.239 18.6653C170.239 18.6653 148.441 18.0099 139.644 18.0099C132.257 18.0099 125.53 22.8245 122.623 28.9153C120.915 32.4979 117.503 48.2918 118.113 51.15C116.632 44.2066 117.171 37.0513 117.105 30.0093C117.04 22.583 116.647 13.3284 123.086 8.05557C127.566 4.38922 136.827 3.56134 142.047 6.16819C142.052 6.16326 178.286 0.210369 178.286 18.005C178.286 25.2342 178.175 43.635 178.175 43.6596V43.6645Z" fill="#111111"/>
<path d="M138.092 27.9H160.901C168.813 27.9 175.225 21.6513 175.225 13.9468C175.225 6.24867 168.813 0 160.901 0H120.123C120.123 0 130.18 27.9 138.092 27.9Z" fill="#111111"/>
<path d="M135.429 42.6249C135.429 43.9139 136.463 44.9499 137.724 44.9499C138.985 44.9499 140.02 43.9019 140.02 42.6249C140.02 41.348 138.985 40.2999 137.724 40.2999C136.463 40.2999 135.429 41.348 135.429 42.6249Z" fill="#111111" stroke="#111111" stroke-miterlimit="10"/>
<path d="M155.327 42.6249C155.327 43.9139 156.362 44.9499 157.623 44.9499C158.884 44.9499 159.919 43.9019 159.919 42.6249C159.919 41.348 158.884 40.2999 157.623 40.2999C156.362 40.2999 155.327 41.348 155.327 42.6249Z" fill="#111111" stroke="#111111" stroke-miterlimit="10"/>
<path d="M158.389 58.9H136.96C136.96 58.9 136.96 68.2 148.687 68.2C148.687 68.2 158.389 67.7336 158.389 58.9Z" fill="#E4745A"/>
<g style="mix-blend-mode:multiply">
<path opacity="0.3" d="M170.633 55.0249C170.633 57.1588 168.863 58.8999 166.663 58.8999H163.888C161.702 58.8999 159.918 57.1719 159.918 55.0249C159.918 52.8911 161.688 51.1499 163.888 51.1499H166.663C168.849 51.1499 170.633 52.878 170.633 55.0249Z" fill="#FAB99F"/>
<path opacity="0.3" d="M133.897 55.0249C133.897 57.1588 132.114 58.8999 129.928 58.8999H127.152C124.967 58.8999 123.183 57.1719 123.183 55.0249C123.183 52.8911 124.967 51.1499 127.152 51.1499H129.928C132.114 51.1499 133.897 52.878 133.897 55.0249Z" fill="#FAB99F"/>
</g>
<path d="M61.9235 209.25L18.6986 181.458V97.65L61.9235 125.442V209.25Z" fill="white"/>
<path d="M61.9238 209.247L12.0263 185.085V101.277L61.9238 125.439V209.247Z" fill="#F5F8FF"/>
<path d="M61.9235 209.25L5.86346 188.711V104.903L61.9235 125.442V209.25Z" fill="white"/>
<path d="M61.9235 209.25L105.148 181.458V97.65L61.9235 125.442V209.25Z" fill="white"/>
<path d="M61.9233 209.247L111.826 185.085V101.277L61.9233 125.439V209.247Z" fill="#F5F8FF"/>
<path d="M61.9235 209.25L117.989 188.711V104.903L61.9235 125.442V209.25Z" fill="white"/>
<path d="M61.9235 209.248L0.612244 192.059V108.246L61.9235 125.44V209.248Z" fill="#FF9735"/>
<path d="M61.7504 209.248L123.062 192.059V108.246L61.7504 125.44V209.248Z" fill="#FF9735"/>
<path d="M72.5516 122.45H51.123V209.25H72.5516V122.45Z" fill="#FF7D02"/>
</g>
<defs>
<clipPath id="clip0_2215_16534">
<rect width="270" height="186" fill="white" transform="matrix(-1 0 0 1 270 0)"/>
</clipPath>
</defs>
</svg>
