<svg width="120" height="120" viewBox="0 0 120 120" fill="none" xmlns="http://www.w3.org/2000/svg">
<g clip-path="url(#clip0_2194_37421)">
<path d="M95.215 62.1409C95.215 72.2265 90.8939 81.3115 83.984 87.6494C77.7829 93.3496 69.5048 96.8227 60.4098 96.8227C57.506 96.8227 54.6811 96.4695 51.9939 95.8023C48.4504 94.9193 45.1332 93.5164 42.1114 91.6523C37.2883 88.6698 33.2428 84.5491 30.3686 79.6535C27.8881 75.4544 26.2837 70.6862 25.7817 65.6041C25.6636 64.4562 25.6045 63.3084 25.6045 62.1409C25.6045 51.545 30.3686 42.0676 37.869 35.6904C43.9422 30.5495 51.8069 27.4492 60.4098 27.4492C70.0068 27.4492 78.6786 31.3147 84.9782 37.5742C90.3722 42.9309 94.0043 50.0439 94.9591 57.9614C95.1363 59.3349 95.215 60.7281 95.215 62.1409Z" fill="url(#paint0_linear_2194_37421)"/>
<path d="M94.9625 57.9685C94.9609 57.967 94.9583 57.9674 94.9573 57.9694C94.2985 59.2925 93.6298 60.6157 92.971 61.929C92.8234 62.2233 92.6757 62.5078 92.5379 62.8022C91.0516 65.7553 89.5751 68.6986 87.7738 71.4554C84.9095 75.8311 81.2675 79.6869 77.0645 82.7969C75.2042 84.1803 72.5662 82.7381 72.6745 80.4325C72.9009 75.4289 71.9363 70.3762 69.8692 65.8239C69.0621 64.0383 68.0778 61.9682 69.0227 60.2513C69.7806 58.8483 71.7099 57.9752 71.5524 56.3465C71.4835 55.6892 71.0602 55.1103 70.4992 54.7572C69.4755 54.09 68.2648 54.0802 67.1131 53.9134C63.3531 53.364 59.593 50.6267 59.4946 46.722C59.465 45.7507 59.7111 44.7794 60.2722 44.0043C61.6994 42.0225 64.1405 42.2482 66.306 42.3365C69.2885 42.464 72.2906 42.1795 75.1943 41.5319C77.7732 40.9531 80.2832 40.0897 82.6751 38.9615C84.0952 38.2964 85.8193 38.3703 86.8428 39.5583C91.2145 44.6327 94.1338 50.9832 94.968 57.9658C94.9684 57.9689 94.9647 57.9707 94.9625 57.9685Z" fill="url(#paint1_linear_2194_37421)"/>
<path d="M46.3292 47.0525C46.3306 47.0525 46.3312 47.0544 46.3299 47.0552C45.002 47.8974 43.449 48.4469 42.3969 49.6132C40.5365 51.7029 40.9499 54.8817 40.1723 57.5601C39.4833 59.9932 37.7312 62.0535 35.5854 63.4074C33.4396 64.7515 30.9099 65.4285 28.3803 65.6247C26.8653 65.7476 25.6537 64.5179 25.6154 62.9985C25.6081 62.7104 25.6045 62.4215 25.6045 62.132C25.6045 52.7829 29.3203 44.2909 35.3551 38.048C36.7319 36.6237 38.9033 36.7319 40.3771 38.0556C41.3366 38.9174 42.3807 39.6878 43.7257 40.1554C44.6608 40.4792 45.6451 40.6754 46.531 41.1071C47.4168 41.5388 48.2437 42.2451 48.4799 43.2066C48.8634 44.7257 47.6556 46.2057 46.3284 47.0499C46.3272 47.0507 46.3277 47.0525 46.3292 47.0525Z" fill="url(#paint2_linear_2194_37421)"/>
<path d="M52.0036 95.8069C52.0036 95.806 52.003 95.8053 52.0022 95.8051C48.6744 94.9757 45.5462 93.6791 42.6748 91.9801C42.3204 91.7704 42.0712 91.4155 42.0128 91.0079C41.0876 85.4647 38.9319 80.1275 35.7329 75.4967C34.9947 74.4273 34.1875 73.3481 33.9316 72.0923C33.3804 69.355 35.979 68.4328 37.859 67.2359C40.4674 65.568 43.2137 64.116 46.0583 62.8896C47.4265 62.3108 48.9522 61.7712 50.3499 62.2421C52.1119 62.8307 52.9977 64.7439 53.5686 66.5099C56.6684 76.0238 56.0691 86.6655 52.007 95.8076C52.0062 95.8093 52.0036 95.8088 52.0036 95.8069Z" fill="url(#paint3_linear_2194_37421)"/>
<path d="M60.6665 81.1355C63.3537 80.9981 65.7357 83.029 65.903 85.8349C66.0507 88.2386 64.3183 90.3676 61.9756 90.9563L53.2743 93.1539L58.0974 95.5576L79.2011 90.2303C81.967 89.5337 84.9495 90.9268 85.9141 93.6052C87.0165 96.6761 85.2152 99.9529 82.1147 100.738L59.1408 106.536C55.5875 107.429 51.8274 107.027 48.5496 105.398L26.2451 94.292L32.1018 82.6169L41.7087 82.1264L60.6665 81.1551V81.1355Z" fill="url(#paint4_linear_2194_37421)"/>
<path d="M22.5733 77.3672H15.8111C14.6097 77.3672 13.6357 78.3379 13.6357 79.5354V100.727C13.6357 101.925 14.6097 102.895 15.8111 102.895H22.5733C23.7747 102.895 24.7486 101.925 24.7486 100.727V79.5354C24.7486 78.3379 23.7747 77.3672 22.5733 77.3672Z" fill="url(#paint5_linear_2194_37421)"/>
<path d="M31.6487 100.727H24.7487V79.525H31.6487C32.6527 79.525 33.4697 80.3393 33.4697 81.3401V98.9115C33.4697 99.9123 32.6527 100.727 31.6487 100.727Z" fill="url(#paint6_linear_2194_37421)"/>
<path d="M68.1964 20.8275C65.6175 24.3398 65.7356 29.1668 66.1392 32.1101C66.3459 33.6406 67.783 34.6904 69.3185 34.4255C72.2517 33.9154 76.9075 32.5712 79.4864 29.0491C82.0653 25.5368 81.9472 20.7098 81.5436 17.7665C81.3369 16.236 79.8999 15.1862 78.3643 15.4511C75.4311 15.9613 70.7753 17.3054 68.1964 20.8275Z" fill="url(#paint7_linear_2194_37421)"/>
<path d="M61.9062 13.9798C60.4396 11.2131 57.2799 9.78068 55.2424 9.11354C54.1793 8.77015 53.0572 9.35881 52.7422 10.4282C52.1517 12.4787 51.5611 15.8929 53.0277 18.6596C54.4943 21.4263 57.654 22.8587 59.6915 23.5259C60.7545 23.8693 61.8767 23.2806 62.1916 22.2112C62.7822 20.1607 63.3728 16.7465 61.9062 13.9798Z" fill="url(#paint8_linear_2194_37421)"/>
<path d="M27.2684 58.7068C25.1718 54.8805 20.7326 52.9477 17.8879 52.0549C16.4016 51.5938 14.8464 52.4474 14.433 53.9386C13.6455 56.8034 12.8974 61.5716 14.994 65.3979C17.0906 69.2241 21.5299 71.1569 24.3745 72.0497C25.8608 72.5108 27.416 71.6573 27.8295 70.166C28.6169 67.3012 29.365 62.533 27.2684 58.7068Z" fill="url(#paint9_linear_2194_37421)"/>
<path d="M98.5718 71.7961C102.411 69.7064 104.35 65.2816 105.245 62.4463C105.708 60.9648 104.852 59.4147 103.356 59.0026C100.481 58.2177 95.6977 57.4721 91.8588 59.5618C88.02 61.6516 86.0809 66.0763 85.1852 68.9117C84.7226 70.3932 85.5789 71.9433 87.0751 72.3554C89.9493 73.1402 94.733 73.8859 98.5718 71.7961Z" fill="url(#paint10_linear_2194_37421)"/>
</g>
<defs>
<linearGradient id="paint0_linear_2194_37421" x1="25.6045" y1="27.4492" x2="91.467" y2="90.995" gradientUnits="userSpaceOnUse">
<stop stop-color="#2DA860"/>
<stop offset="1" stop-color="#6FC746"/>
</linearGradient>
<linearGradient id="paint1_linear_2194_37421" x1="59.4922" y1="37.5781" x2="101.154" y2="68.6354" gradientUnits="userSpaceOnUse">
<stop stop-color="#7AD333"/>
<stop offset="1" stop-color="#91DD30"/>
</linearGradient>
<linearGradient id="paint2_linear_2194_37421" x1="25.6045" y1="35.6914" x2="52.7989" y2="55.7051" gradientUnits="userSpaceOnUse">
<stop stop-color="#7AD333"/>
<stop offset="1" stop-color="#91DD30"/>
</linearGradient>
<linearGradient id="paint3_linear_2194_37421" x1="33.8564" y1="62.0625" x2="62.5265" y2="79.7679" gradientUnits="userSpaceOnUse">
<stop stop-color="#7AD333"/>
<stop offset="1" stop-color="#91DD30"/>
</linearGradient>
<linearGradient id="paint4_linear_2194_37421" x1="32.0286" y1="99.9809" x2="70.0134" y2="87.4903" gradientUnits="userSpaceOnUse">
<stop stop-color="#F4B8B3"/>
<stop offset="0.05" stop-color="#F4BAB5"/>
<stop offset="0.59" stop-color="#FCCAC4"/>
<stop offset="1" stop-color="#FFD0CA"/>
</linearGradient>
<linearGradient id="paint5_linear_2194_37421" x1="13.6357" y1="77.3672" x2="32.0416" y2="84.7751" gradientUnits="userSpaceOnUse">
<stop stop-color="#0C82E9"/>
<stop offset="1" stop-color="#4DC3F5"/>
</linearGradient>
<linearGradient id="paint6_linear_2194_37421" x1="28.6625" y1="79.8261" x2="38.9718" y2="89.4937" gradientUnits="userSpaceOnUse">
<stop stop-color="#DDDDDD"/>
<stop offset="1" stop-color="#EEEEEE"/>
</linearGradient>
<linearGradient id="paint7_linear_2194_37421" x1="65.918" y1="15.4102" x2="85.0857" y2="30.1472" gradientUnits="userSpaceOnUse">
<stop stop-color="#FF5C01"/>
<stop offset="1" stop-color="#FFA901"/>
</linearGradient>
<linearGradient id="paint8_linear_2194_37421" x1="52.1094" y1="9.01562" x2="65.1822" y2="18.2358" gradientUnits="userSpaceOnUse">
<stop stop-color="#FFCC48"/>
<stop offset="1" stop-color="#FFE248"/>
</linearGradient>
<linearGradient id="paint9_linear_2194_37421" x1="13.6309" y1="51.9297" x2="33.2796" y2="65.39" gradientUnits="userSpaceOnUse">
<stop stop-color="#FF5C01"/>
<stop offset="1" stop-color="#FFA901"/>
</linearGradient>
<linearGradient id="paint10_linear_2194_37421" x1="85.0596" y1="58.2031" x2="98.7715" y2="76.114" gradientUnits="userSpaceOnUse">
<stop stop-color="#FFCC48"/>
<stop offset="1" stop-color="#FFE248"/>
</linearGradient>
<clipPath id="clip0_2194_37421">
<rect width="120" height="120" fill="white"/>
</clipPath>
</defs>
</svg>
