<svg width="144" height="131" viewBox="0 0 144 131" fill="none" xmlns="http://www.w3.org/2000/svg">
    <g clip-path="url(#e0zysgrw9a)">
        <path d="M121.984 130.583c-22.075-14.265-21.087-44.319-21.087-44.319 5.173.415 6.002-5.18 6.002-5.18 1.955-6.16-3.751-8.878-3.751-8.878l-5.154-13.999-5.588-2.441-21.71-8.809-6.95 3.757-16.15 10.163-3.11 10.143c-4.858.84-6.18 7.553-6.18 7.553-.978 6.85 5.864 7.414 5.864 7.414 1.115 7.83-1.116 24.903-1.116 24.903-3.209 11.191-23.18 18.181-23.18 18.181" fill="#fff"/>
        <path d="M121.984 130.583c-22.075-14.265-21.087-44.319-21.087-44.319 5.173.415 6.002-5.18 6.002-5.18 1.955-6.16-3.751-8.878-3.751-8.878l-5.154-13.999-5.588-2.441-21.71-8.809-6.95 3.757-16.15 10.163-3.11 10.143c-4.858.84-6.18 7.553-6.18 7.553-.978 6.85 5.864 7.414 5.864 7.414 1.115 7.83-1.116 24.903-1.116 24.903-3.209 11.191-23.18 18.181-23.18 18.181" stroke="#222" stroke-miterlimit="10"/>
        <path d="M44.19 85.99s2.408.218 3.978-1.463z" fill="#fff"/>
        <path d="M44.19 85.99s2.408.218 3.978-1.463" stroke="#222" stroke-miterlimit="10" stroke-linecap="round"/>
        <path d="M100.897 86.264s-2.182.02-3.574-1.483z" fill="#fff"/>
        <path d="M100.897 86.264s-2.182.02-3.574-1.483" stroke="#222" stroke-miterlimit="10" stroke-linecap="round"/>
        <path d="M101.914 77.91s.592 1.572-1.017 3.045z" fill="#fff"/>
        <path d="M101.914 77.91s.592 1.572-1.017 3.045" stroke="#222" stroke-miterlimit="10" stroke-linecap="round"/>
        <path d="M43.35 77.91s-.948 1.572.84 2.521z" fill="#fff"/>
        <path d="M43.35 77.91s-.948 1.572.84 2.521" stroke="#222" stroke-miterlimit="10" stroke-linecap="round"/>
        <path d="M40.566 115.953s32.727 18.596 67.834 1.612z" fill="#fff"/>
        <path d="M40.566 115.953s32.727 18.596 67.834 1.612M69.561 85.633s-.276 7.87 4.552 7.87c0 0 5.38 0 4.413-7.87M81.152 74.76s.81-3.174 3.998-2.818c0 0 2.913-.03 2.913 3.252M60.291 74.58s.553-3.232 3.752-3.133c0 0 2.902-.267 3.169 3.005" stroke="#222" stroke-miterlimit="10" stroke-linecap="round"/>
        <path d="M43.646 70.09s5.598 4.232 5.904 6.12c0 0-1.51-14.947 13.792-22.718 0 0 6.091 4.854 3.15 9.313 0 0 7.61-1.582 8.44-13.89 0 0-.395 6.337 8.056 7.246 0 0 18.481 1.483 18.639 18.013 0 0 .731-1.592 1.53-1.958.474-.217 1.047 1.197 1.304.307 2.26-7.968 3.317-28.462-16.99-37.29 0 0-12.055-3.925-16.735 0 0 0-27.939-2.264-27.09 34.878v-.02z" fill="#222"/>
        <path d="M66.491 33.473c4.107 1.404 3.07 4.39 3.07 4.39M70.598 38.508s.217-7.098 3.791-8.176" stroke="#222" stroke-miterlimit="10" stroke-linecap="round"/>
        <path d="M28.739 68.49c1.777-28.808 23.486-50.913 48.513-49.371 25.017 1.542 43.864 26.149 42.087 54.957" stroke="#222" stroke-miterlimit="10" stroke-linecap="round"/>
        <path d="M.494 69.616C2.99 29.084 36.992-1.81 76.443.631c39.45 2.432 69.413 37.27 66.915 77.814" stroke="#222" stroke-miterlimit="10" stroke-linecap="round"/>
        <path d="M13.565 66.928C15.638 33.306 43.28 7.661 75.307 9.638c32.027 1.978 56.313 30.835 54.24 64.448" stroke="#F59B87" stroke-width="9" stroke-linecap="round" stroke-linejoin="round"/>
        <path d="M13.565 66.928C15.638 33.306 43.28 7.661 75.307 9.638c32.027 1.978 56.313 30.835 54.24 64.448" stroke="#222" stroke-miterlimit="10" stroke-linecap="round"/>
        <path d="M103.148 72.207s-1.531.04-1.531 1.958z" fill="#fff"/>
        <path d="M103.148 72.207s-1.531.04-1.531 1.958" stroke="#222" stroke-miterlimit="10" stroke-linecap="round"/>
    </g>
    <defs>
        <clipPath id="e0zysgrw9a">
            <path fill="#fff" d="M0 0h144v131H0z"/>
        </clipPath>
    </defs>
</svg>
