<svg width="178" height="124" viewBox="0 0 178 124" fill="none" xmlns="http://www.w3.org/2000/svg">
    <g clip-path="url(#ezdefow33a)">
        <path d="M36.098 110.528s20.433-1.678 23.61-12.74c0 0 2.214-16.856 1.107-24.596 0 0-6.766-.554-5.802-7.321 0 0 1.312-6.634 6.115-7.464l3.08-10.017 28.92-9.937 19.576 12.838 6.445 8.295s5.65 2.696 3.713 8.776c0 0-.83 5.526-5.945 5.115 0 0-4.142 26.534 17.683 40.622" fill="#fff"/>
        <path d="M36.098 110.528s20.433-1.678 23.61-12.74c0 0 2.214-16.856 1.107-24.596 0 0-6.766-.554-5.802-7.321 0 0 1.312-6.634 6.115-7.464l3.08-10.017 28.92-9.937 19.576 12.838 6.445 8.295s5.65 2.696 3.713 8.776c0 0-.83 5.526-5.945 5.115 0 0-4.142 26.534 17.683 40.622" stroke="#222" stroke-miterlimit="10" stroke-linecap="round"/>
        <path d="m109.58 53.959 7.426-2.84v-6.802c-4.784-18.526-21.039-18.83-21.039-18.83l-.723-1.562c5.865-.785 7.632-6.624 7.632-6.624C108.187 3.114 92.013.597 92.013.597c-16.978-3.438-20.219 9-20.219 9-3.856 11.73 7.561 14.971 7.561 14.971v2.009c-17.13 1.545-18.361 21.802-18.361 21.802l7.748 2.75 2.999 6.25c10.747-3.58 16.023-11.509 16.023-11.509s10.542 10.107 21.816 8.098" fill="#222"/>
        <path d="M60.806 73.2s2.384.215 3.937-1.446z" fill="#fff"/>
        <path d="M60.806 73.2s2.384.215 3.937-1.446" stroke="#222" stroke-miterlimit="10" stroke-linecap="round"/>
        <path d="M116.899 73.476s-2.16.018-3.534-1.464z" fill="#fff"/>
        <path d="M116.899 73.476s-2.16.018-3.534-1.464" stroke="#222" stroke-miterlimit="10" stroke-linecap="round"/>
        <path d="M117.908 65.227s.589 1.553-1 3.008z" fill="#fff"/>
        <path d="M117.908 65.227s.589 1.553-1 3.008" stroke="#222" stroke-miterlimit="10" stroke-linecap="round"/>
        <path d="M59.985 65.227s-.928 1.553.83 2.49z" fill="#fff"/>
        <path d="M59.985 65.227s-.928 1.553.83 2.49" stroke="#222" stroke-miterlimit="10" stroke-linecap="round"/>
        <path d="M57.236 102.797s32.367 18.365 67.09 1.589z" fill="#fff"/>
        <path d="M57.236 102.797s32.367 18.365 67.09 1.589M86.032 80.644s-.179 5.134 2.972 5.134c0 0 3.517 0 2.884-5.134" stroke="#222" stroke-miterlimit="10" stroke-linecap="round"/>
        <path d="M77.168 67.817a1.892 1.892 0 1 0 0-3.785 1.892 1.892 0 0 0 0 3.785zM101.626 67.817a1.893 1.893 0 1 0 0-3.787 1.893 1.893 0 0 0 0 3.787z" fill="#222"/>
        <path d="M32.715 123.552c3.41-5.838 2.437-27.051 2.437-27.051-.848-36.39 26.038-52.818 26.038-52.818 8.882-4.865 11.194 1.545 11.194 1.545 7.462-1.054 5.757 5.758 5.757 5.758 8.677 1.054 8.034 8.928 8.034 8.928-.652 4.464-4.053 1.866-4.053 1.866-.633-3.232-4.382-3.973-4.382-3.973-5.196-1.294-7.222 5.437-7.222 5.437-2.267 9.732 7.06 8.848 7.06 8.848 4.053-.16 4.625-5.598 4.625-5.598.892-3.892 3.24-1.866 3.24-1.866 2.838 2.598.402 9.82.402 9.82-2.437 7.625-15.166 5.599-15.166 5.599-10.873-1.295-12.006 5.026-12.006 5.026-3.892 9.57 2.133 31.944 2.133 31.944" fill="#fff"/>
        <path d="M32.715 123.552c3.41-5.838 2.437-27.051 2.437-27.051-.848-36.39 26.038-52.818 26.038-52.818 8.882-4.865 11.194 1.545 11.194 1.545 7.462-1.054 5.757 5.758 5.757 5.758 8.677 1.054 8.034 8.928 8.034 8.928-.652 4.464-4.053 1.866-4.053 1.866-.633-3.232-4.382-3.973-4.382-3.973-5.196-1.294-7.222 5.437-7.222 5.437-2.267 9.732 7.06 8.848 7.06 8.848 4.053-.16 4.625-5.598 4.625-5.598.892-3.892 3.24-1.866 3.24-1.866 2.838 2.598.402 9.82.402 9.82-2.437 7.625-15.166 5.599-15.166 5.599-10.873-1.295-12.006 5.026-12.006 5.026-3.892 9.57 2.133 31.944 2.133 31.944" stroke="#222" stroke-miterlimit="10" stroke-linecap="round"/>
        <path d="M35.152 96.492s17.719 3.045 22.003 0" stroke="#222" stroke-miterlimit="10" stroke-linecap="round"/>
        <path d="M78.141 50.977s-8.676-1.821-12.818 8.642M72.384 45.219s-10.828 3.687-16.059 15.133" stroke="#222" stroke-linecap="round" stroke-linejoin="round"/>
        <path d="M144.857 123.552c-3.41-5.838-2.437-27.051-2.437-27.051.848-36.39-26.038-52.818-26.038-52.818-8.882-4.865-11.194 1.545-11.194 1.545-7.462-1.054-5.758 5.758-5.758 5.758-8.676 1.054-8.033 8.928-8.033 8.928.651 4.464 4.052 1.866 4.052 1.866.634-3.232 4.383-3.973 4.383-3.973 5.195-1.294 7.222 5.437 7.222 5.437 2.267 9.732-7.061 8.848-7.061 8.848-4.053-.16-4.624-5.598-4.624-5.598-.893-3.892-3.24-1.866-3.24-1.866-2.839 2.598-.402 9.82-.402 9.82 2.437 7.625 15.166 5.599 15.166 5.599 10.872-1.295 12.006 5.026 12.006 5.026 3.892 9.57-2 33.489-2 33.489" fill="#fff"/>
        <path d="M144.857 123.552c-3.41-5.838-2.437-27.051-2.437-27.051.848-36.39-26.038-52.818-26.038-52.818-8.882-4.865-11.194 1.545-11.194 1.545-7.462-1.054-5.758 5.758-5.758 5.758-8.676 1.054-8.033 8.928-8.033 8.928.651 4.464 4.052 1.866 4.052 1.866.634-3.232 4.383-3.973 4.383-3.973 5.195-1.294 7.222 5.437 7.222 5.437 2.267 9.732-7.061 8.848-7.061 8.848-4.053-.16-4.624-5.598-4.624-5.598-.893-3.892-3.24-1.866-3.24-1.866-2.839 2.598-.402 9.82-.402 9.82 2.437 7.625 15.166 5.599 15.166 5.599 10.872-1.295 12.006 5.026 12.006 5.026 3.892 9.57-2 33.489-2 33.489" stroke="#222" stroke-miterlimit="10" stroke-linecap="round"/>
        <path d="M142.429 96.492s-17.719 3.045-22.004 0" stroke="#222" stroke-miterlimit="10" stroke-linecap="round"/>
        <path d="M99.43 50.977s8.677-1.821 12.819 8.642M105.197 45.219s10.827 3.687 16.058 15.133M133.145 46.926s2.758-11.23 6.981-13.48M139.465 52.791s8.435-5.213 14.273-5.865M142.429 62.664s9.533-2.268 12.13 0" stroke="#222" stroke-linecap="round" stroke-linejoin="round"/>
        <path d="M147.9 27.535a3.33 3.33 0 1 0 0-6.66 3.33 3.33 0 0 0 0 6.66z" fill="#FF8F28"/>
        <path d="M174.67 54.191a3.33 3.33 0 1 0 0-6.66 3.33 3.33 0 0 0 0 6.66z" fill="#F8485E"/>
        <path d="M164.62 73.817a3.33 3.33 0 1 0 0-6.66 3.33 3.33 0 0 0 0 6.66z" fill="#F1BE28"/>
        <path d="M44.855 46.782s-2.758-11.231-6.98-13.481M38.535 52.647S30.1 47.433 24.262 46.78M35.571 62.523s-9.533-2.267-12.13 0" stroke="#222" stroke-linecap="round" stroke-linejoin="round"/>
        <path d="M30.09 27.398a3.33 3.33 0 1 0 0-6.66 3.33 3.33 0 0 0 0 6.66z" fill="#F8485E"/>
        <path d="M3.33 54.05a3.33 3.33 0 1 0-.001-6.659 3.33 3.33 0 0 0 0 6.66z" fill="#F1BE28"/>
        <path d="M13.38 73.672a3.33 3.33 0 1 0 0-6.66 3.33 3.33 0 0 0 0 6.66z" fill="#FF8F28"/>
    </g>
    <defs>
        <clipPath id="ezdefow33a">
            <path fill="#fff" d="M0 0h178v124H0z"/>
        </clipPath>
    </defs>
</svg>
