<svg width="102" height="81" viewBox="0 0 102 81" fill="none" xmlns="http://www.w3.org/2000/svg">
    <g clip-path="url(#1974z1ktpa)">
        <path d="m83.514 80.176.499-5.017a1.07 1.07 0 0 1 .298-.604l7.134-7.151c.907-.909.68-2.44-.454-3.044L77.19 57.013 81.9 43.3l19.594 20.456a1.915 1.915 0 0 1-.213 2.817l-14.52 10.163s.46 2.687-2.69 4.063c-.298.13-.583-.292-.538-.617l-.02-.006zM20.43 24.447l-1.192 4.9c-.059.22-.195.415-.376.558l-8.06 6.081a1.917 1.917 0 0 0 .025 3.076l12.642 9.21-1.231 22.48L.35 38.2c-.648-.921-.37-2.2.603-2.758l15.797-8.035s-.085-2.725 3.226-3.647c.318-.09.538.37.448.688h.006z" fill="#275CE1"/>
        <path d="M53.644 0C33.797 0 17.702 16.12 17.702 36v40.963A4.034 4.034 0 0 0 21.732 81H85.55c2.229 0 4.03-1.81 4.03-4.037V36C89.586 16.121 73.497 0 53.644 0z" fill="#275CE1"/>
        <path d="M37.581 32.676c0 1.493.57 2.98 1.717 4.108a5.748 5.748 0 0 0 8.145-.058 5.75 5.75 0 0 0 1.659-4.05h-11.52z" fill="#fff"/>
        <path d="M37.581 32.676c0 1.493.57 2.98 1.717 4.108a5.711 5.711 0 0 0 2.553 1.46 5.748 5.748 0 0 0 5.119-5.568H37.58z" fill="#000"/>
        <path d="M56.469 32.676c0 1.493.57 2.98 1.717 4.108a5.748 5.748 0 0 0 8.145-.058 5.75 5.75 0 0 0 1.658-4.05H56.47z" fill="#fff"/>
        <path d="M56.469 32.676c0 1.493.57 2.98 1.717 4.108a5.711 5.711 0 0 0 2.553 1.46 5.747 5.747 0 0 0 3.466-1.68 5.761 5.761 0 0 0 1.653-3.888h-9.389z" fill="#000"/>
        <path d="M50.611 46.37c1.484-1.59 4.108-1.545 5.858.097" stroke="#000" stroke-width="2" stroke-linecap="round" stroke-linejoin="round"/>
    </g>
    <defs>
        <clipPath id="1974z1ktpa">
            <path fill="#fff" d="M0 0h102v81H0z"/>
        </clipPath>
    </defs>
</svg>
