<svg width="218" height="150" viewBox="0 0 218 150" fill="none" xmlns="http://www.w3.org/2000/svg">
<path d="M2 105.252H54.8999" stroke="#E2E2E2" stroke-width="4" stroke-linecap="round" stroke-linejoin="round"/>
<path d="M123.031 150C164.469 150 198.061 116.421 198.061 75C198.061 33.5786 164.469 0 123.031 0C81.5924 0 48 33.5786 48 75C48 116.421 81.5924 150 123.031 150Z" fill="#2DD5C1"/>
<path d="M133.253 78.0123C136.87 78.0123 139.802 75.0812 139.802 71.4656C139.802 67.85 136.87 64.9189 133.253 64.9189C129.636 64.9189 126.703 67.85 126.703 71.4656C126.703 75.0812 129.636 78.0123 133.253 78.0123Z" fill="white"/>
<path d="M133.253 64.9189C129.64 64.9189 126.703 67.8457 126.703 71.4656C126.703 72.638 127.02 73.742 127.56 74.7004C128.69 75.6161 130.119 76.1638 131.686 76.1638C135.299 76.1638 138.235 73.2371 138.235 69.6171C138.235 68.4447 137.919 67.3408 137.379 66.3823C136.249 65.4666 134.82 64.9189 133.253 64.9189Z" fill="black"/>
<path d="M111.875 78.0123C115.493 78.0123 118.425 75.0812 118.425 71.4656C118.425 67.85 115.493 64.9189 111.875 64.9189C108.258 64.9189 105.326 67.85 105.326 71.4656C105.326 75.0812 108.258 78.0123 111.875 78.0123Z" fill="white"/>
<path d="M111.875 64.9189C108.263 64.9189 105.326 67.8457 105.326 71.4656C105.326 72.638 105.643 73.742 106.182 74.7004C107.312 75.6161 108.742 76.1638 110.309 76.1638C113.922 76.1638 116.858 73.2371 116.858 69.6171C116.858 68.4447 116.541 67.3408 116.002 66.3823C114.872 65.4666 113.442 64.9189 111.875 64.9189Z" fill="black"/>
<path d="M100.532 82.12C105.506 86.7583 113.588 89.7877 122.714 89.7877C131.84 89.7877 139.922 86.7668 144.896 82.12" stroke="black" stroke-width="2" stroke-linecap="round" stroke-linejoin="round"/>
<path d="M212.992 48.257C215.09 48.257 216.793 46.554 216.793 44.4574V26.7429C216.793 24.6462 215.09 22.9432 212.992 22.9432C210.895 22.9432 209.191 24.6462 209.191 26.7429V44.4574C209.191 46.554 210.895 48.257 212.992 48.257Z" fill="#E2E2E2"/>
<path d="M213.62 60.0656C215.753 59.7196 217.202 57.7107 216.855 55.5787C216.509 53.4466 214.499 51.9989 212.367 52.3449C210.234 52.691 208.785 54.6999 209.131 56.8319C209.478 58.9639 211.487 60.4117 213.62 60.0656Z" fill="#E2E2E2"/>
</svg>
