<svg width="140" height="123" viewBox="0 0 140 123" fill="none" xmlns="http://www.w3.org/2000/svg">
<path d="M2.51648 83.2814L36.6374 22.9397" stroke="#E2E2E2" stroke-width="4" stroke-linecap="round" stroke-linejoin="round"/>
<path d="M64.2645 4.12713L1.89719 112.985C-0.653145 117.436 2.53754 123 7.63821 123H132.362C137.462 123 140.653 117.436 138.103 112.985L75.7465 4.12713C73.1962 -0.323789 66.8259 -0.323789 64.2755 4.12713H64.2645Z" fill="#F8485E"/>
<path d="M83.4829 78.0732C88.1598 78.0732 91.9512 74.2539 91.9512 69.5426C91.9512 64.8313 88.1598 61.012 83.4829 61.012C78.806 61.012 75.0146 64.8313 75.0146 69.5426C75.0146 74.2539 78.806 78.0732 83.4829 78.0732Z" fill="white"/>
<path d="M89.4716 63.5098C86.1618 60.1757 80.8041 60.1757 77.4942 63.5098C76.4205 64.5915 75.701 65.8962 75.3246 67.2789C75.5128 69.1634 76.3319 70.9811 77.7599 72.4307C81.0697 75.7649 86.4274 75.7649 89.7373 72.4307C90.811 71.349 91.5305 70.0444 91.9069 68.6616C91.7187 66.7771 90.8996 64.9595 89.4716 63.5098Z" fill="black"/>
<path d="M55.8419 78.0732C60.5188 78.0732 64.3102 74.2539 64.3102 69.5426C64.3102 64.8313 60.5188 61.012 55.8419 61.012C51.165 61.012 47.3737 64.8313 47.3737 69.5426C47.3737 74.2539 51.165 78.0732 55.8419 78.0732Z" fill="white"/>
<path d="M61.8197 63.5098C58.5099 60.1757 53.1522 60.1757 49.8424 63.5098C48.7686 64.5915 48.0491 65.8962 47.6727 67.2789C47.8609 69.1634 48.6801 70.9811 50.1081 72.4307C53.4179 75.7649 58.7756 75.7649 62.0854 72.4307C63.1592 71.349 63.8787 70.0444 64.2551 68.6616C64.0669 66.7771 63.2477 64.9595 61.8197 63.5098Z" fill="black"/>
<path d="M78.0588 87.3174C76.3098 90.2055 72.6015 91.9339 68.5721 91.4098" stroke="black" stroke-width="2" stroke-linecap="round" stroke-linejoin="round"/>
<path d="M124.8 4.38558L129.413 12.4101C129.522 12.6001 129.695 12.7231 129.902 12.7678L138.738 14.8018C139.302 14.936 139.519 15.6289 139.139 16.0759L133.147 23.0722C133.006 23.2287 132.941 23.4411 132.963 23.6646L133.82 32.9409C133.875 33.5332 133.299 33.9579 132.767 33.7232L124.463 30.0239C124.268 29.9345 124.051 29.9345 123.866 30.0239L115.562 33.7232C115.03 33.9579 114.455 33.522 114.509 32.9409L115.367 23.6646C115.389 23.4522 115.323 23.2399 115.182 23.0722L109.19 16.0759C108.81 15.6289 109.027 14.936 109.592 14.8018L118.428 12.7678C118.634 12.7231 118.808 12.5889 118.916 12.4101L123.53 4.38558C123.823 3.87147 124.539 3.87147 124.832 4.38558H124.8Z" fill="#E2E2E2"/>
</svg>
