<svg width="190" height="175" viewBox="0 0 190 175" fill="none" xmlns="http://www.w3.org/2000/svg">
    <g clip-path="url(#z427zh157a)">
        <path d="M94.594 31.813s.45-4.722 4.716-3.631c0 0 6.173 1.27 2.628 11.722 0 0-2.497 6.631-7.353 4.45 0 0-1.948 17.174 2.661 18.124 0 0 27.2 6.952 32.514 22.895l-16.204 48.109-34.036 16.082-5.715.681s-11.57 36.387-50.51 20.173c0 0-31.31-13.575-20.691-62.052 0 0 6.394-29.125 33.218-44.666 0 0 5.715-3 7.213-8.722 1.498-5.722 1.769-11.451 4.495-14.042 0 0-7.762-.68-5.993-8.59 0 0 1.138-8.902 7.852-8.542L65.633 6.451l12.528-.68 11.438 2.45 6.534 15.133-1.54 8.45v.009z" fill="#fff" stroke="#222" stroke-miterlimit="10"/>
        <path d="M50.936 28.091c-.074.28 3.267-7.18 9.072-9.992 0 0 7.443-4 8.982-8.721 0 0 .729 10.172 12.249 9.36 0 0 4.356-.549 5.903-1.729 0 0-4.904-.73-3.995-4.91 0 0 1.179-2.36 3.537-.45 0 0 9.71 6.54 7.893 18.992 0 0 .819-2 2.448-2.631 0 0 3.996-27.715-23.057-27.985 0 0-21.42-1.361-24.596 23.804 0 0 2.178 2 1.54 4.27l.024-.008z" fill="#222"/>
        <path d="M38.884 61.478s31.711 25.944 58.37 1" stroke="#222" stroke-miterlimit="10"/>
        <path d="M94.593 44.355s-2.538-.55-2.538-2.59M47.53 40.944l2.726-1.63M97.262 34.526s3.153 2.517-.302 5.213M47.53 35.862s-3.3-2.311-.016-5.23M70.177 43.06s-.09 5.295 5.805 5.385c0 0 4.627-.09 5.716-5" stroke="#222" stroke-miterlimit="10" stroke-linecap="round"/>
        <path d="M65.911 33.542a1.819 1.819 0 0 0 1.818-1.82 1.819 1.819 0 1 0-1.818 1.82zM85.333 35.067a1.819 1.819 0 1 0-.002-3.641 1.819 1.819 0 0 0 .002 3.641z" fill="#222"/>
        <path d="M73.805 150.253s.728-21.854 13.338-23.124l6.599-1.82-.819-11.787s-10.35-12.263-25.046-5.042c0 0-9.67 6.001-12.658 15.944 0 0-12.045 25.419-15.041 9.271 0 0-1.024-4.295 0-7.156" stroke="#222" stroke-miterlimit="10" stroke-linecap="round"/>
        <path d="M52.737 129.137s2.506 14.829 21.952 14.181M79.16 122.227s6.418-1.639 14.59.549M74.173 114.776s9.948-4.336 19.176 4.738" stroke="#222" stroke-miterlimit="10" stroke-linecap="round"/>
        <path d="M94.38 105.111c-5.117 17.813-22.745 45.24-22.745 45.24s3.627 3.164 6.804 2.943l20.699-15.861-4.766-32.322" fill="#fff"/>
        <path d="M94.38 105.111c-5.117 17.813-22.745 45.24-22.745 45.24s3.627 3.164 6.804 2.943l20.699-15.861-4.766-32.322" stroke="#222" stroke-linecap="round" stroke-linejoin="round"/>
        <path d="M98.77 88.48s-1.68 6.64-4.152 15.73l-1.466 5.352c-5.1 18.395-12.396 42.617-16.162 45.609 0 0 1.998 4 9.62 1.451 0 0 15.066-51.789 12.16-68.15v.008z" fill="#fff" stroke="#222" stroke-linecap="round" stroke-linejoin="round"/>
        <path d="M98.77 88.48s44.835-5.09 49.92-4.722c0 0-13.068 66.151-15.614 68.692 0 0-27.953 7.09-47.743 6.361 0 0 11.438-66.512 13.436-70.332z" fill="#FFB6BF" stroke="#222" stroke-miterlimit="10"/>
        <path d="M100.988 87.963a3.86 3.86 0 0 1 3.856-3.86 3.86 3.86 0 0 1 0 7.721" stroke="#222" stroke-linecap="round" stroke-linejoin="round"/>
        <path d="M108.701 87.176a3.86 3.86 0 0 1 3.856-3.86 3.86 3.86 0 0 1 0 7.721" stroke="#222" stroke-linecap="round" stroke-linejoin="round"/>
        <path d="M116.414 86.25a3.86 3.86 0 0 1 3.856-3.86 3.86 3.86 0 0 1 3.856 3.86 3.86 3.86 0 0 1-3.856 3.86" stroke="#222" stroke-linecap="round" stroke-linejoin="round"/>
        <path d="M123.963 85.397a3.86 3.86 0 0 1 3.856-3.86 3.86 3.86 0 0 1 0 7.721" stroke="#222" stroke-linecap="round" stroke-linejoin="round"/>
        <path d="M131.676 84.102a3.86 3.86 0 0 1 3.856-3.86 3.86 3.86 0 0 1 0 7.721" stroke="#222" stroke-linecap="round" stroke-linejoin="round"/>
        <path d="M139.389 83.733a3.86 3.86 0 0 1 3.856-3.86 3.86 3.86 0 0 1 0 7.721" stroke="#222" stroke-linecap="round" stroke-linejoin="round"/>
        <path d="M143.278 113.382s.409 10.222-12.118 12.952c0 0-11.348 1-9.473 5.861 0 0 .622 1.639 2.8 1.5 0 0-3.742 1.5-2.522 4.295 0 0 1.433 2.385 4.7 1.91 0 0-2.923 1.23-1.228 3.615 0 0 1.023 2.041 6.198 1.295 0 0 19.061-.82 17.898-20.648 0 0 .049-6.747-6.263-10.771l.008-.009z" fill="#fff" stroke="#222" stroke-linecap="round" stroke-linejoin="round"/>
        <path d="M126.665 139.892s6.395 0 10.759-3.205M124.487 133.695s8.851-.271 11.438-3" stroke="#222" stroke-linecap="round" stroke-linejoin="round"/>
        <path d="M91.744 111.251c-.23-.27-15.975-14.894-15.975-14.894a3.675 3.675 0 0 0-3.193 3.107l6.64 6.738" stroke="#222" stroke-miterlimit="10" stroke-linecap="round"/>
        <path d="m75.778 96.357-3.636-3.148c-.556-.483-1.35-.615-2.005-.295a2.84 2.84 0 0 0-.95.721c-.623.722-.532 1.812.13 2.492l3.268 3.345s.204-2.738 3.193-3.107v-.008z" fill="#FFB6BF" stroke="#222" stroke-linejoin="round"/>
    </g>
    <g clip-path="url(#g99gf8gtcb)">
        <path d="m168.58 30.323 19.87.718s1.08 16.717-.83 19.427h-21.53s-.17-15.836 2.49-20.135v-.01z" fill="#fff" stroke="#222" stroke-linejoin="round"/>
        <path d="m176.9 25.871 4.52-.67s.99 6.137-.64 8.071l-5.59.824s1.44-6.731 1.71-8.225z" fill="#FFB6BF" stroke="#222" stroke-linejoin="round"/>
        <path d="M170.07 37.696s11.53.957 14.19.747l-14.19-.747z" fill="#fff"/>
        <path d="M170.07 37.696s11.53.957 14.19.747" stroke="#222" stroke-linecap="round" stroke-linejoin="round"/>
        <path d="M171.19 44.14s9.01.698 11.08.536l-11.08-.537z" fill="#fff"/>
        <path d="M171.19 44.14s9.01.698 11.08.536" stroke="#222" stroke-linecap="round" stroke-linejoin="round"/>
        <path d="M133.27 9.68s21.17.958 24.16 1.169c0 0-1.33 17.09-2.88 19.474 0 0-19.62 2.174-24.05-1.33 0 0 1.11-14.86 2.77-19.312z" fill="#fff" stroke="#222" stroke-linecap="round" stroke-linejoin="round"/>
        <path d="M143.36 5.755h4.21s.89 6.367 0 7.746l-4.88-.421.67-7.325z" fill="#FFB6BF" stroke="#222" stroke-linejoin="round"/>
        <path d="M136.71 18.384s8.31.852 12.75 0h-12.75z" fill="#FCC528"/>
        <path d="M136.71 18.384s8.31.852 12.75 0" stroke="#222" stroke-linecap="round" stroke-linejoin="round"/>
        <path d="M136.71 23.64s6.8.853 10.42 0h-10.42z" fill="#FCC528"/>
        <path d="M136.71 23.64s6.8.853 10.42 0" stroke="#222" stroke-linecap="round" stroke-linejoin="round"/>
    </g>
    <defs>
        <clipPath id="z427zh157a">
            <path fill="#fff" d="M0 0h150v175H0z"/>
        </clipPath>
        <clipPath id="g99gf8gtcb">
            <path fill="#fff" transform="translate(130 5.277)" d="M0 0h59.25v45.661H0z"/>
        </clipPath>
    </defs>
</svg>
