<svg width="276" height="270" viewBox="0 0 276 270" fill="none" xmlns="http://www.w3.org/2000/svg">
<g clip-path="url(#clip0_211_5656)">
<path d="M258.719 111.409C266.98 111.409 273.677 104.735 273.677 96.5038C273.677 88.2721 266.98 81.5991 258.719 81.5991C250.458 81.5991 243.761 88.2721 243.761 96.5038C243.761 104.735 250.458 111.409 258.719 111.409Z" stroke="#111111" stroke-width="4" stroke-miterlimit="10"/>
<path d="M176.321 85.776H219.49" stroke="#111111" stroke-width="4" stroke-linecap="round" stroke-linejoin="round"/>
<path d="M2.32361 173.178L23.6043 135.635" stroke="#111111" stroke-width="4" stroke-linecap="round" stroke-linejoin="round"/>
<path d="M254.527 96.5037H177.41C175.095 96.5037 173.219 98.3738 173.219 100.681V177.522C173.219 179.829 175.095 181.699 177.41 181.699H254.527C256.842 181.699 258.718 179.829 258.718 177.522V100.681C258.718 98.3738 256.842 96.5037 254.527 96.5037Z" fill="#FFA127"/>
<path d="M185.913 173.123C207.969 173.123 225.875 190.965 225.875 212.943V265.823C225.875 268.127 223.996 270 221.683 270H150.149C147.837 270 145.958 268.127 145.958 265.823V212.943C145.958 190.965 163.864 173.123 185.92 173.123H185.913Z" fill="#275CE1"/>
<path d="M133.829 122.178C167.645 122.178 195.058 94.8623 195.058 61.1668C195.058 27.4712 167.645 0.155579 133.829 0.155579C100.013 0.155579 72.5997 27.4712 72.5997 61.1668C72.5997 94.8623 100.013 122.178 133.829 122.178Z" fill="#2DD5C1"/>
<path d="M41.2868 123.549L1.82043 191.654C0.206567 194.439 2.22565 197.92 5.45338 197.92H84.3791C87.6068 197.92 89.6259 194.439 88.0121 191.654L48.5527 123.549C46.9388 120.765 42.9076 120.765 41.2938 123.549H41.2868Z" fill="#F8485E"/>
<path d="M114.029 202.166H106.1V194.265C106.1 185.591 99.0434 178.553 90.3313 178.553C81.6263 178.553 74.563 185.584 74.563 194.265V202.166H66.6334C57.9283 202.166 50.865 209.198 50.865 217.879C50.865 226.553 57.9213 233.591 66.6334 233.591H74.563V241.492C74.563 250.166 81.6193 257.205 90.3313 257.205C99.0364 257.205 106.1 250.173 106.1 241.492V233.591H114.029C122.734 233.591 129.798 226.56 129.798 217.886C129.798 209.212 122.741 202.173 114.029 202.173V202.166Z" fill="#7852EF"/>
<path d="M142.171 63.6173C145.123 63.6173 147.515 61.233 147.515 58.2917C147.515 55.3505 145.123 52.9661 142.171 52.9661C139.219 52.9661 136.826 55.3505 136.826 58.2917C136.826 61.233 139.219 63.6173 142.171 63.6173Z" fill="white"/>
<path d="M142.171 52.9661C139.223 52.9661 136.826 55.347 136.826 58.2917C136.826 59.2455 137.085 60.1435 137.525 60.9232C138.447 61.6681 139.614 62.1136 140.892 62.1136C143.841 62.1136 146.237 59.7328 146.237 56.788C146.237 55.8343 145.978 54.9362 145.538 54.1566C144.616 53.4117 143.449 52.9661 142.171 52.9661Z" fill="black"/>
<path d="M124.726 63.6173C127.677 63.6173 130.07 61.233 130.07 58.2917C130.07 55.3505 127.677 52.9661 124.726 52.9661C121.774 52.9661 119.381 55.3505 119.381 58.2917C119.381 61.233 121.774 63.6173 124.726 63.6173Z" fill="white"/>
<path d="M124.726 52.9661C121.777 52.9661 119.381 55.347 119.381 58.2917C119.381 59.2455 119.64 60.1435 120.08 60.9232C121.002 61.6681 122.169 62.1136 123.447 62.1136C126.395 62.1136 128.792 59.7328 128.792 56.788C128.792 55.8343 128.533 54.9362 128.093 54.1566C127.171 53.4117 126.004 52.9661 124.726 52.9661Z" fill="black"/>
<path d="M115.469 66.9589C119.528 70.732 126.123 73.1964 133.571 73.1964C141.018 73.1964 147.613 70.739 151.672 66.9589" stroke="black" stroke-width="2" stroke-linecap="round" stroke-linejoin="round"/>
<path d="M224.695 154.981C227.647 154.981 230.04 152.597 230.04 149.655C230.04 146.714 227.647 144.33 224.695 144.33C221.743 144.33 219.35 146.714 219.35 149.655C219.35 152.597 221.743 154.981 224.695 154.981Z" fill="white"/>
<path d="M220.915 145.889C218.826 147.971 218.826 151.34 220.915 153.422C221.593 154.097 222.41 154.549 223.277 154.786C224.457 154.668 225.596 154.153 226.504 153.255C228.593 151.173 228.593 147.804 226.504 145.722C225.827 145.047 225.009 144.594 224.143 144.358C222.962 144.476 221.823 144.991 220.915 145.889Z" fill="black"/>
<path d="M207.243 154.981C210.194 154.981 212.587 152.597 212.587 149.655C212.587 146.714 210.194 144.33 207.243 144.33C204.291 144.33 201.898 146.714 201.898 149.655C201.898 152.597 204.291 154.981 207.243 154.981Z" fill="white"/>
<path d="M203.47 145.889C201.381 147.971 201.381 151.34 203.47 153.422C204.147 154.097 204.965 154.549 205.831 154.786C207.012 154.668 208.151 154.153 209.059 153.254C211.148 151.173 211.148 147.804 209.059 145.722C208.381 145.047 207.564 144.594 206.698 144.358C205.517 144.476 204.378 144.991 203.47 145.889Z" fill="black"/>
<path d="M216.52 158.009C215.766 158.009 215.151 158.531 215.151 159.172C215.151 159.812 215.766 160.334 216.52 160.334" stroke="black" stroke-width="2" stroke-linecap="round" stroke-linejoin="round"/>
<path d="M216.52 160.341C215.766 160.341 215.151 160.863 215.151 161.504C215.151 162.144 215.766 162.667 216.52 162.667" stroke="black" stroke-width="2" stroke-linecap="round" stroke-linejoin="round"/>
<path d="M168.3 209.358C168.3 211.14 168.985 212.915 170.361 214.266C173.079 216.939 177.459 216.904 180.142 214.196C181.469 212.852 182.133 211.105 182.133 209.358H168.3Z" fill="white"/>
<path d="M168.3 209.358C168.3 211.14 168.985 212.915 170.361 214.266C171.248 215.136 172.31 215.714 173.428 216.013C174.951 215.846 176.432 215.178 177.592 214.001C178.871 212.706 179.527 211.036 179.576 209.358H168.307H168.3Z" fill="black"/>
<path d="M190.992 209.358C190.992 211.14 191.677 212.915 193.053 214.266C195.771 216.939 200.151 216.904 202.834 214.196C204.161 212.852 204.825 211.105 204.825 209.358H190.992Z" fill="white"/>
<path d="M190.992 209.358C190.992 211.14 191.677 212.915 193.053 214.266C193.94 215.136 195.002 215.714 196.12 216.013C197.643 215.846 199.124 215.178 200.284 214.001C201.562 212.706 202.219 211.035 202.268 209.358H190.999H190.992Z" fill="black"/>
<path d="M183.95 225.717C185.731 223.824 188.882 223.873 190.985 225.836" stroke="black" stroke-width="2" stroke-linecap="round" stroke-linejoin="round"/>
<path d="M53.3104 169.941C56.2622 169.941 58.6551 167.557 58.6551 164.616C58.6551 161.675 56.2622 159.29 53.3104 159.29C50.3587 159.29 47.9658 161.675 47.9658 164.616C47.9658 167.557 50.3587 169.941 53.3104 169.941Z" fill="white"/>
<path d="M57.0902 160.85C55.0012 158.768 51.6198 158.768 49.5308 160.85C48.8532 161.525 48.399 162.339 48.1615 163.203C48.2803 164.379 48.7973 165.514 49.6985 166.419C51.7875 168.5 55.1689 168.5 57.2578 166.419C57.9355 165.744 58.3896 164.929 58.6272 164.066C58.5084 162.889 57.9914 161.755 57.0902 160.85Z" fill="black"/>
<path d="M35.8654 169.941C38.8171 169.941 41.21 167.557 41.21 164.616C41.21 161.675 38.8171 159.29 35.8654 159.29C32.9136 159.29 30.5208 161.675 30.5208 164.616C30.5208 167.557 32.9136 169.941 35.8654 169.941Z" fill="white"/>
<path d="M39.638 160.85C37.5491 158.768 34.1676 158.768 32.0787 160.85C31.401 161.525 30.9469 162.339 30.7094 163.203C30.8281 164.379 31.3451 165.514 32.2464 166.419C34.3353 168.5 37.7167 168.5 39.8057 166.419C40.4834 165.744 40.9375 164.929 41.175 164.066C41.0563 162.889 40.5393 161.755 39.638 160.85Z" fill="black"/>
<path d="M49.8872 175.712C48.7833 177.516 46.4428 178.595 43.8998 178.267" stroke="black" stroke-width="2" stroke-linecap="round" stroke-linejoin="round"/>
<path d="M99.0578 221.666C102.01 221.666 104.402 219.281 104.402 216.34C104.402 213.399 102.01 211.015 99.0578 211.015C96.106 211.015 93.7131 213.399 93.7131 216.34C93.7131 219.281 96.106 221.666 99.0578 221.666Z" fill="white"/>
<path d="M95.2779 212.574C93.1889 214.656 93.1889 218.025 95.2779 220.106C95.9556 220.782 96.773 221.234 97.6393 221.471C98.82 221.353 99.9588 220.837 100.867 219.939C102.956 217.858 102.956 214.489 100.867 212.407C100.189 211.732 99.3719 211.279 98.5056 211.043C97.3249 211.161 96.1861 211.676 95.2779 212.574Z" fill="black"/>
<path d="M81.6124 221.666C84.5642 221.666 86.9571 219.281 86.9571 216.34C86.9571 213.399 84.5642 211.015 81.6124 211.015C78.6607 211.015 76.2678 213.399 76.2678 216.34C76.2678 219.281 78.6607 221.666 81.6124 221.666Z" fill="white"/>
<path d="M77.8327 212.574C75.7438 214.656 75.7438 218.025 77.8327 220.106C78.5104 220.782 79.3278 221.234 80.1941 221.471C81.3748 221.353 82.5136 220.837 83.4218 219.939C85.5108 217.858 85.5108 214.488 83.4218 212.407C82.7442 211.732 81.9267 211.279 81.0604 211.043C79.8797 211.161 78.7409 211.676 77.8327 212.574Z" fill="black"/>
<path d="M93.7898 227.305C92.5671 229.031 90.1568 229.95 87.6487 229.456" stroke="black" stroke-width="2" stroke-linecap="round" stroke-linejoin="round"/>
<path d="M95.1171 227.736C94.1529 227.736 93.3774 226.957 93.3774 225.996" stroke="black" stroke-width="2" stroke-linecap="round" stroke-linejoin="round"/>
<path d="M13.6063 95.2298L16.5756 100.228C16.6454 100.347 16.7572 100.423 16.89 100.451L22.5769 101.718C22.9402 101.802 23.08 102.233 22.8354 102.512L18.9789 106.87C18.8881 106.967 18.8462 107.099 18.8601 107.239L19.4121 113.017C19.447 113.386 19.0767 113.65 18.7344 113.504L13.3898 111.2C13.264 111.144 13.1243 111.144 13.0055 111.2L7.66089 113.504C7.31856 113.65 6.94828 113.379 6.98321 113.017L7.53514 107.239C7.54911 107.106 7.50719 106.974 7.41637 106.87L3.55986 102.512C3.31533 102.233 3.45506 101.802 3.81836 101.718L9.50531 100.451C9.63805 100.423 9.74984 100.34 9.8197 100.228L12.7889 95.2298C12.9776 94.9096 13.4387 94.9096 13.6273 95.2298H13.6063Z" fill="#E2E2E2"/>
<path d="M120.073 250.487L126.319 256.71C126.591 256.982 127.031 256.982 127.304 256.71L133.012 251.023C133.284 250.751 133.724 250.751 133.997 251.023L139.705 256.71C139.977 256.982 140.418 256.982 140.69 256.71L146.398 251.023C146.67 250.751 147.111 250.751 147.383 251.023L153.58 257.198" stroke="#111111" stroke-width="4" stroke-miterlimit="10"/>
<path d="M207.242 39.4119C208.954 39.4119 210.344 38.0266 210.344 36.321V21.9105C210.344 20.2049 208.954 18.8196 207.242 18.8196C205.531 18.8196 204.14 20.2049 204.14 21.9105V36.321C204.14 38.0266 205.531 39.4119 207.242 39.4119Z" fill="#E2E2E2"/>
<path d="M207.755 49.0181C209.496 48.7365 210.678 47.1023 210.395 45.368C210.112 43.6336 208.472 42.4559 206.732 42.7374C204.991 43.0189 203.809 44.6531 204.092 46.3875C204.374 48.1218 206.014 49.2996 207.755 49.0181Z" fill="#E2E2E2"/>
<path d="M119.263 192.197C121.026 192.197 122.455 190.773 122.455 189.016C122.455 187.259 121.026 185.835 119.263 185.835C117.499 185.835 116.07 187.259 116.07 189.016C116.07 190.773 117.499 192.197 119.263 192.197Z" fill="#E2E2E2"/>
<path d="M118.99 162.13C117.181 162.13 115.455 162.708 114.016 163.794C112.786 164.72 112.542 166.468 113.478 167.693C114.407 168.918 116.161 169.162 117.39 168.229C117.851 167.881 118.41 167.693 118.99 167.693C120.457 167.693 121.652 168.883 121.652 170.345C121.652 171.807 120.457 172.998 118.99 172.998C117.446 172.998 116.195 174.244 116.195 175.782V180.405C116.195 181.943 117.446 183.189 118.99 183.189C120.534 183.189 121.785 181.943 121.785 180.405V178.086C124.963 176.945 127.241 173.909 127.241 170.352C127.241 165.82 123.538 162.13 118.99 162.13Z" fill="#E2E2E2"/>
<path d="M42.2301 237.698C44.5104 237.698 46.359 235.856 46.359 233.584C46.359 231.312 44.5104 229.47 42.2301 229.47C39.9497 229.47 38.1011 231.312 38.1011 233.584C38.1011 235.856 39.9497 237.698 42.2301 237.698Z" stroke="#CECECE" stroke-width="4" stroke-miterlimit="10"/>
</g>
<defs>
<clipPath id="clip0_211_5656">
<rect width="276" height="270" fill="white"/>
</clipPath>
</defs>
</svg>
