<svg width="229" height="231" viewBox="0 0 229 231" fill="none" xmlns="http://www.w3.org/2000/svg">
<path d="M189.965 94.0149H170.334V74.3491C170.334 52.76 152.866 35.2427 131.299 35.2427C109.749 35.2427 92.2638 52.7426 92.2638 74.3491V94.0149H72.6337C51.0839 94.0149 33.5984 111.515 33.5984 133.121C33.5984 154.71 51.0666 172.228 72.6337 172.228H92.2638V191.894C92.2638 213.483 109.732 231 131.299 231C152.849 231 170.334 213.5 170.334 191.894V172.228H189.965C211.514 172.228 229 154.728 229 133.139C229 111.55 211.532 94.0322 189.965 94.0322V94.0149Z" fill="#7852EF"/>
<path d="M152.9 142.547C160.208 142.547 166.131 136.613 166.131 129.292C166.131 121.972 160.208 116.037 152.9 116.037C145.593 116.037 139.67 121.972 139.67 129.292C139.67 136.613 145.593 142.547 152.9 142.547Z" fill="white"/>
<path d="M143.544 119.919C138.373 125.099 138.373 133.485 143.544 138.666C145.222 140.347 147.245 141.473 149.39 142.062C152.313 141.768 155.132 140.485 157.38 138.25C162.552 133.07 162.552 124.683 157.38 119.503C155.703 117.822 153.679 116.696 151.534 116.107C148.612 116.401 145.792 117.683 143.544 119.919Z" fill="black"/>
<path d="M109.714 142.547C117.021 142.547 122.945 136.613 122.945 129.292C122.945 121.972 117.021 116.037 109.714 116.037C102.407 116.037 96.4832 121.972 96.4832 129.292C96.4832 136.613 102.407 142.547 109.714 142.547Z" fill="white"/>
<path d="M100.358 119.919C95.1867 125.099 95.1867 133.485 100.358 138.666C102.036 140.347 104.059 141.473 106.204 142.062C109.127 141.768 111.946 140.485 114.194 138.25C119.365 133.07 119.365 124.683 114.194 119.503C112.516 117.822 110.493 116.696 108.348 116.107C105.425 116.401 102.606 117.683 100.358 119.919Z" fill="black"/>
<path d="M139.86 156.582C136.833 160.879 130.867 163.166 124.658 161.936" stroke="black" stroke-width="2" stroke-linecap="round" stroke-linejoin="round"/>
<path d="M143.146 157.657C140.759 157.657 138.84 155.716 138.84 153.324" stroke="black" stroke-width="2" stroke-linecap="round" stroke-linejoin="round"/>
<path d="M201.735 69.2032C205.772 69.2032 209.044 65.9249 209.044 61.8808C209.044 57.8367 205.772 54.5583 201.735 54.5583C197.698 54.5583 194.426 57.8367 194.426 61.8808C194.426 65.9249 197.698 69.2032 201.735 69.2032Z" fill="#E2E2E2"/>
<path d="M201.111 3.05176e-05C196.969 3.05176e-05 193.018 1.32994 189.724 3.82952C186.909 5.96058 186.349 9.98233 188.492 12.8024C190.619 15.6224 194.634 16.1832 197.449 14.0361C198.504 13.235 199.784 12.8024 201.111 12.8024C204.47 12.8024 207.205 15.5423 207.205 18.9071C207.205 22.272 204.47 25.0119 201.111 25.0119C197.577 25.0119 194.714 27.88 194.714 31.4211V42.0603C194.714 45.6014 197.577 48.4695 201.111 48.4695C204.646 48.4695 207.509 45.6014 207.509 42.0603V36.7247C214.786 34.0969 220 27.1109 220 18.9232C220 8.4922 211.523 3.05176e-05 201.111 3.05176e-05Z" fill="#E2E2E2"/>
<path d="M12.2215 182.451C17.8667 182.451 22.443 177.866 22.443 172.211C22.443 166.555 17.8667 161.97 12.2215 161.97C6.57631 161.97 2 166.555 2 172.211C2 177.866 6.57631 182.451 12.2215 182.451Z" stroke="#E2E2E2" stroke-width="4" stroke-miterlimit="10"/>
</svg>
