<svg width="240" height="290" viewBox="0 0 240 290" fill="none" xmlns="http://www.w3.org/2000/svg">
<g clip-path="url(#clip0_2355_23128)">
<path fill-rule="evenodd" clip-rule="evenodd" d="M222.504 188.368C245.697 211.561 245.851 249.009 222.848 272.012C199.845 295.015 162.396 294.861 139.204 271.668L120 252.465L100.796 271.668C77.6035 294.861 40.1547 295.015 17.1519 272.012C-5.85092 249.009 -5.69696 211.561 17.4958 188.368L36.6995 169.164L17.4958 149.96C-5.69693 126.768 -5.85095 89.3187 17.1518 66.3159C40.1546 43.3131 77.6037 43.4671 100.796 66.6599L120 85.8635L139.204 66.6599C162.396 43.4671 199.845 43.3131 222.848 66.3159C245.851 89.3187 245.697 126.768 222.504 149.96L203.3 169.164L222.504 188.368Z" fill="#0175DA"/>
<mask id="mask0_2355_23128" style="mask-type:alpha" maskUnits="userSpaceOnUse" x="0" y="0" width="240" height="290">
<path fill-rule="evenodd" clip-rule="evenodd" d="M240 0H0V216L1.90639 215.555C-3.17382 235.146 1.89653 256.755 17.1519 272.01C40.1547 295.013 77.6035 294.859 100.796 271.666L120 252.463L139.204 271.666C162.396 294.859 199.845 295.013 222.848 272.01C245.851 249.007 245.697 211.559 222.504 188.366L203.3 169.162L204.082 168.381L240 160V0Z" fill="#D9D9D9"/>
</mask>
<g mask="url(#mask0_2355_23128)">
<path d="M152.901 206.376C152.166 182.884 155.767 176.564 156.862 164C156.862 164 184.048 197.7 189.479 204.905C189.674 205.16 189.87 205.416 190.065 205.686C195.451 212.936 200.942 220.081 206.433 227.257L181.318 268.282C178.782 264.904 167.754 256.093 157.447 240.031C153.741 234.162 154.461 223.609 153.531 216.689C153.081 213.296 153.006 209.859 152.901 206.391V206.376Z" fill="#FFE248"/>
<path d="M63.4682 193.221C72.1227 159.118 101.873 137.223 129.944 144.326C158.015 151.429 173.75 184.838 165.096 218.954L139.079 321.568C137.412 328.152 28.77 330.084 37.4112 295.982L63.4682 193.221Z" fill="#FFE248"/>
<path d="M112.983 146.777C110.772 155.524 116.06 164.397 124.789 166.621C133.517 168.834 142.394 163.553 144.605 154.806L147.978 141.473C150.188 132.726 144.901 123.853 136.172 121.629C127.432 119.416 118.567 124.697 116.345 133.444L112.972 146.777H112.983Z" fill="#FBCBB5"/>
<path d="M48.9058 11.7023C57.8804 13.4081 63.8145 21.7371 62.1343 30.2927L58.2938 49.936C56.6269 58.4917 47.9857 64.0621 39.0111 62.3563C30.0365 60.6505 24.1024 52.3215 25.7826 43.7659L29.6098 24.1226C31.2767 15.5536 39.9179 9.99647 48.8925 11.7023H48.9058Z" fill="#FBCBB5"/>
<path d="M105.952 151.79C98.8045 141.156 85.3227 136.065 77.0415 126.31C63.8397 110.758 62.3862 98.3776 61.5727 77.5349C61.1993 68.0198 60.8259 58.5047 60.4525 49.0029L25.3944 41.9531C26.7012 75.2561 19.1668 109.239 36.4759 138.69C45.8505 154.642 54.2517 171.607 64.5865 186.959C70.0939 195.141 78.9484 198.846 87.1363 193.329C95.3374 187.825 111.46 159.986 105.966 151.79H105.952Z" fill="#FFE248"/>
<path d="M58.7598 45.3623C58.7598 45.3623 67.2543 40.898 68.8278 34.6745C70.4014 28.451 65.0673 20.4817 59.3465 25.6524" fill="#FBCBB5"/>
<path d="M115.035 108.503C113.835 113.234 109.355 116.166 105.021 115.073C100.687 113.967 98.1397 109.263 99.3399 104.532C100.54 99.8145 105.021 96.8694 109.355 97.9621C113.689 99.0549 116.236 103.772 115.035 108.503Z" fill="#FBCBB5"/>
<path d="M175.375 124.763C174.175 129.48 169.695 132.426 165.361 131.319C161.027 130.227 158.48 125.509 159.68 120.778C160.88 116.061 165.361 113.115 169.695 114.208C174.028 115.301 176.576 120.019 175.375 124.749V124.763Z" fill="#FBCBB5"/>
<path d="M168.096 122.896C163.869 139.554 146.933 149.642 130.251 145.418C113.582 141.193 103.487 124.268 107.701 107.597C111.928 90.9388 117.543 69.8696 147.427 77.639C170.657 83.6759 172.31 106.224 168.083 122.882L168.096 122.896Z" fill="#FBCBB5"/>
<path d="M153.057 112.726C152.723 114.06 151.353 114.87 150.014 114.52C148.676 114.187 147.864 112.821 148.198 111.487C148.533 110.153 149.903 109.343 151.241 109.677C152.579 110.01 153.392 111.376 153.041 112.71L153.057 112.726Z" fill="#111111" stroke="#111111" stroke-miterlimit="10"/>
<path d="M131.817 107.327C131.484 108.661 130.116 109.471 128.78 109.122C127.445 108.788 126.634 107.423 126.968 106.089C127.302 104.755 128.669 103.945 130.005 104.278C131.34 104.612 132.151 105.977 131.817 107.311V107.327Z" fill="#111111" stroke="#111111" stroke-miterlimit="10"/>
<path d="M144.96 126.44L126.248 122.285C126.248 122.285 124.26 131.197 134.509 133.472C134.509 133.472 143.085 134.909 144.965 126.441L144.96 126.44Z" fill="#E49F7F"/>
<path d="M109.207 103.015C111.487 94.8859 123.436 79.787 123.436 79.787C123.436 79.787 145.119 84.5712 153.8 86.7701C161.094 88.6091 166.508 95.1524 167.815 102.016C168.589 106.054 167.908 122.845 166.575 125.564C169.815 118.927 171.109 111.584 172.976 104.494C174.936 97.0182 177.697 87.7829 172.682 80.8531C169.202 76.0422 160.267 72.8838 154.453 74.2165C154.453 74.2165 120.209 59.1575 115.661 77.1083C113.808 84.3979 109.22 102.988 109.207 103.015Z" fill="#111111"/>
<path d="M174.402 83.7181C172.976 89.3285 167.281 92.7135 161.681 91.3009L134.717 84.4777C129.103 83.0518 125.716 77.3613 127.143 71.7509C128.569 66.1404 134.264 62.7555 139.864 64.1814L166.828 71.0046C172.442 72.4305 175.829 78.1209 174.416 83.7181H174.402Z" fill="#111111"/>
<path d="M8.20639 48.2157C6.48615 48.9087 4.52588 48.0825 3.83245 46.3633L1.24543 39.9933C0.551996 38.2741 1.37878 36.3151 3.08568 35.6088L24.3953 26.9599C26.1155 26.2669 28.0758 27.0932 28.7692 28.8123L31.3563 35.1824C32.063 36.9015 31.2229 38.8605 29.516 39.5535L8.20639 48.2024V48.2157Z" fill="white"/>
<path d="M72.4414 6.18452L102.232 2L77.9488 19.7509L72.4414 6.18452Z" fill="#FBCBB5"/>
<path d="M16.7145 45.4447L10.9004 31.1454L72.5623 5.70508L78.3764 20.0044L16.7145 45.4447Z" fill="#F85851"/>
<path d="M89.1914 3.82573L102.233 2L91.6051 9.76936L89.1914 3.82573Z" fill="#111111"/>
<path d="M25.0341 25.6547C25.0341 25.6547 21.1669 48.3764 38.3693 41.2201C55.5584 34.0638 67.2 24.2155 59.8523 14.5937C52.5179 4.97198 25.4342 8.6501 25.0341 25.6681V25.6547Z" fill="#FBCBB5"/>
<path d="M182.675 235.247C173.221 244.017 171.94 257.987 179.805 266.448C187.669 274.923 207.182 271.311 216.636 262.541L271.982 212.618L244.759 180.883L182.675 235.247Z" fill="#FFE248"/>
<path d="M122.795 79.2135C124.742 89.8081 149.292 94.8188 154.919 95.4452C164.134 96.4713 177.976 96.7112 185.457 90.3011C181.403 89.1551 177.056 86.6763 174.696 82.8783C173.535 81.0259 173.442 79.4667 171.842 77.9341C170.108 76.2816 167.441 75.8152 165.348 75.0156" fill="#111111"/>
</g>
</g>
<defs>
<clipPath id="clip0_2355_23128">
<rect width="240" height="290" fill="white"/>
</clipPath>
</defs>
</svg>
