<svg width="240" height="290" viewBox="0 0 240 290" fill="none" xmlns="http://www.w3.org/2000/svg">
<circle cx="120" cy="170" r="120" fill="#0175DA"/>
<mask id="mask0_2355_23208" style="mask-type:alpha" maskUnits="userSpaceOnUse" x="0" y="50" width="240" height="240">
<circle cx="120" cy="170" r="120" fill="#F85851"/>
</mask>
<g mask="url(#mask0_2355_23208)">
<path d="M207.21 246.048C212.722 254.646 207.279 269.952 198.675 275.453C190.07 280.953 178.625 278.443 173.121 269.845L120.353 181.837C114.849 173.239 111.749 179.376 120.353 173.869C128.958 168.361 159.349 171.052 164.853 179.65L207.203 246.04L207.21 246.048Z" fill="#FFE248"/>
<path d="M77.1846 194.038C77.1846 174.689 97.6959 159 123 159C148.304 159 168.815 174.684 168.815 194.038L180 272.967C180 292.316 148.304 308 123 308C97.6959 308 66 292.316 66 272.967L77.1846 194.038Z" fill="#FFE248"/>
<path d="M11 165.184C11 172.416 22.8718 186 29.877 186L31.3072 178.276C38.3124 178.276 44 172.416 44 165.184V152.092C44 144.86 38.319 139 31.3072 139H23.6928C16.681 139 11 144.86 11 152.092V165.184Z" fill="#FBCBB5"/>
<path d="M35 151.689C35 154.069 37.0176 156 39.4967 156C41.9824 156 44 154.069 44 151.689V132.305C44 129.925 41.9824 128 39.4967 128C37.011 128 35 129.925 35 132.305V151.689Z" fill="#FBCBB5"/>
<path d="M43.2425 209.654C37.4825 215.27 35.8707 231.881 41.0122 237.172C41.0122 237.172 56.2243 241.124 61.9843 235.508L107.115 206.796C112.875 201.18 113.375 175.364 108.233 170.08C103.091 164.789 94.2516 165.052 88.4978 170.668L43.2487 209.661L43.2425 209.654Z" fill="#FFE248"/>
<path d="M33.7024 235.918C37.4684 243.848 46.9621 247.226 54.9042 243.459C62.8464 239.699 66.2297 230.22 62.4568 222.29L43.9616 163L16 173.441L33.6955 235.918H33.7024Z" fill="#FBCBB5"/>
<path d="M136.519 163.565C136.519 171.627 130.037 178.162 122.041 178.162C114.045 178.162 107.562 171.627 107.562 163.565V151.27C107.562 143.207 114.045 136.672 122.041 136.672C130.037 136.672 136.519 143.207 136.519 151.27V163.565Z" fill="#FBCBB5"/>
<path d="M101.557 126.661C101.557 131.691 97.8514 135.763 93.2785 135.763C88.7055 135.763 85 131.685 85 126.661C85 121.636 88.7055 117.559 93.2785 117.559C97.8514 117.559 101.557 121.636 101.557 126.661Z" fill="#FBCBB5"/>
<path d="M161 126.661C161 131.691 157.295 135.763 152.722 135.763C148.149 135.763 144.443 131.685 144.443 126.661C144.443 121.636 148.149 117.559 152.722 117.559C157.295 117.559 161 121.636 161 126.661Z" fill="#FBCBB5"/>
<path d="M152.349 130.893C152.349 147.721 138.82 161.362 122.129 161.362C105.439 161.362 91.9102 147.721 91.9102 130.893V112.922C91.9102 96.0935 105.444 82.4531 122.129 82.4531C138.82 82.4531 152.349 96.0935 152.349 112.922V130.893Z" fill="#FBCBB5"/>
<path d="M112.582 142.992H131.567C131.567 142.992 132.018 152.105 121.625 152.105C121.625 152.105 112.587 151.649 112.587 142.992H112.582Z" fill="#E49F7F"/>
<path d="M136.337 125.124C136.003 126.458 134.636 127.268 133.3 126.919C131.964 126.585 131.153 125.219 131.487 123.885C131.821 122.551 133.189 121.741 134.524 122.075C135.86 122.408 136.671 123.774 136.337 125.108V125.124Z" fill="#111111" stroke="#111111" stroke-miterlimit="10"/>
<path d="M112.337 125.124C112.003 126.458 110.636 127.268 109.3 126.919C107.964 126.585 107.153 125.219 107.487 123.885C107.821 122.551 109.189 121.741 110.524 122.075C111.86 122.408 112.671 123.774 112.337 125.108V125.124Z" fill="#111111" stroke="#111111" stroke-miterlimit="10"/>
<path d="M91.0824 119.601C91.2928 111.089 99.1658 93.35 99.1658 93.35C99.1658 93.35 121.368 92.6618 130.329 92.6618C137.853 92.6618 144.705 97.7174 147.666 104.113C149.406 107.875 152.881 124.46 152.26 127.461C153.769 120.17 153.22 112.657 153.286 105.262C153.353 97.4639 153.753 87.7458 147.194 82.2089C142.632 78.359 133.198 77.4896 127.881 80.227C127.881 80.227 90.9746 73.976 90.9746 92.6618C90.9746 100.253 91.0875 119.575 91.0875 119.601H91.0824Z" fill="#111111"/>
<path d="M133.043 100H111.518C104.051 100 98 94.1782 98 87C98 79.8218 104.051 74 111.518 74H150C150 74 140.509 99.994 133.043 99.994V100Z" fill="#111111"/>
<path d="M144.946 124.801C144.946 129.971 140.789 134.157 135.661 134.157C130.534 134.157 126.377 129.965 126.377 124.801C126.377 119.637 130.534 115.445 135.661 115.445C140.789 115.445 144.946 119.637 144.946 124.801Z" stroke="#111111" stroke-width="2" stroke-miterlimit="10"/>
<path d="M117.101 124.801C117.101 129.971 112.944 134.157 107.816 134.157C102.689 134.157 98.5371 129.965 98.5371 124.801C98.5371 119.637 102.694 115.445 107.816 115.445C112.938 115.445 117.101 119.637 117.101 124.801Z" stroke="#111111" stroke-width="2" stroke-miterlimit="10"/>
<path d="M145.438 124.872L152.561 115.418" stroke="#111111" stroke-width="2" stroke-miterlimit="10"/>
<path d="M117.25 124.179C117.25 124.179 121.084 119.641 126.329 124.806" stroke="#111111" stroke-width="2" stroke-miterlimit="10"/>
<path d="M98.3944 124.56L91.0859 117.941" stroke="#111111" stroke-width="2" stroke-miterlimit="10"/>
<path d="M158.091 313.164L112.906 284.774V199.164L158.091 227.554V313.164Z" fill="white"/>
<path d="M158.09 313.159L105.93 288.477V202.867L158.09 227.549V313.159Z" fill="#F5F8FF"/>
<path d="M158.091 313.161L99.4883 292.18V206.57L158.091 227.551V313.161Z" fill="white"/>
<path d="M158.092 313.164L203.277 284.774V199.164L158.092 227.554V313.164Z" fill="white"/>
<path d="M158.092 313.159L210.258 288.477V202.867L158.092 227.549V313.159Z" fill="#F5F8FF"/>
<path d="M158.092 313.161L216.7 292.18V206.57L158.092 227.551V313.161Z" fill="white"/>
<path d="M158.092 313.162L94 295.604V209.988L158.092 227.552V313.162Z" fill="#C1E7F4"/>
<path d="M157.908 313.162L222 295.604V209.988L157.908 227.552V313.162Z" fill="#C1E7F4"/>
<path d="M169.201 224.5H146.801V313.166H169.201V224.5Z" fill="#A8DBEC"/>
</g>
</svg>
