<svg width="240" height="290" viewBox="0 0 240 290" fill="none" xmlns="http://www.w3.org/2000/svg">
<g clip-path="url(#clip0_2355_23169)">
<path d="M17.1519 272.848C-5.85092 249.845 -5.69696 212.397 17.4958 189.204L139.204 67.4958C162.396 44.303 199.845 44.1491 222.848 67.1519C245.851 90.1547 245.697 127.604 222.504 150.796L100.796 272.504C77.6035 295.697 40.1547 295.851 17.1519 272.848Z" fill="#0175DA"/>
<mask id="mask0_2355_23169" style="mask-type:alpha" maskUnits="userSpaceOnUse" x="-8" y="15" width="249" height="275">
<path d="M17.5127 272.846C-5.49011 249.844 -7.63867 15 -7.63867 15H147.361C147.361 15 200.206 44.1475 223.209 67.1503C246.212 90.1531 246.058 127.602 222.865 150.795L101.157 272.503C77.9644 295.695 40.5155 295.849 17.5127 272.846Z" fill="#0175DA"/>
</mask>
<g mask="url(#mask0_2355_23169)">
<path d="M150.926 118.417C150.926 131.777 154.228 169 116.798 169H83.2199C69.8439 169 59 158.169 59 144.808C59 131.448 69.8439 120.616 83.2199 120.616H116.798C130.174 120.616 150.926 105.056 150.926 118.417Z" fill="#111111"/>
<path d="M107 112C107 124.151 99.6644 134 90.619 134H80.381C71.3356 134 64 124.151 64 112C64 99.8488 71.3356 90 80.381 90H90.619C99.6644 90 107 99.8488 107 112Z" fill="#111111"/>
<path d="M90.0424 107.943C90.0424 113.193 86.1397 117.452 81.3259 117.452C76.5121 117.452 72.6094 113.193 72.6094 107.943C72.6094 102.692 76.5121 98.4336 81.3259 98.4336C86.1397 98.4336 90.0424 102.692 90.0424 107.943Z" fill="#FBCBB5"/>
<path d="M155.626 107.943C155.626 113.193 151.724 117.452 146.91 117.452C142.096 117.452 138.193 113.193 138.193 107.943C138.193 102.692 142.096 98.4336 146.91 98.4336C151.724 98.4336 155.626 102.692 155.626 107.943Z" fill="#FBCBB5"/>
<path d="M146 112.951C146 130.654 131.677 145 114.003 145C96.3288 145 82 130.654 82 112.951V94.0488C82 76.3465 96.3288 62 114.003 62C131.677 62 146 76.3465 146 94.0488V112.951Z" fill="#FBCBB5"/>
<path d="M104.337 109.202C104.003 110.536 102.636 111.346 101.3 110.997C99.9642 110.663 99.1533 109.298 99.4872 107.964C99.8211 106.63 101.189 105.82 102.524 106.153C103.86 106.487 104.671 107.852 104.337 109.186V109.202Z" fill="#111111" stroke="#111111" stroke-miterlimit="10"/>
<path d="M128.337 109.202C128.003 110.536 126.636 111.346 125.3 110.997C123.964 110.663 123.153 109.298 123.487 107.964C123.821 106.63 125.189 105.82 126.524 106.153C127.86 106.487 128.671 107.852 128.337 109.186V109.202Z" fill="#111111" stroke="#111111" stroke-miterlimit="10"/>
<path d="M147.641 107.965C147.641 107.965 139.995 75.791 119.978 75.7856C112.218 75.7856 107.428 77.0347 104.328 83.8722C101.441 90.2413 103.638 97.9994 92.7455 100.864C82.3211 103.604 79.4173 104.239 79.4173 105.774C79.4173 107.308 78.2155 110 78.2155 110C78.2155 110 70.454 56 112.962 56C149.395 56 148 85.7835 148 98.8554L147.641 107.965Z" fill="#111111"/>
<path d="M66.6229 190.022L57.0215 300.183H169.687L160.086 190.022C160.086 167.032 141.449 148.395 118.459 148.395H108.25C85.2598 148.395 66.6229 167.032 66.6229 190.022Z" fill="#F85851"/>
<path d="M128 150.276C128 157.858 121.733 164 113.997 164C106.267 164 100 157.858 100 150.276V138.719C100 131.142 106.267 125 113.997 125C121.733 125 128 131.142 128 138.719V150.276Z" fill="#FBCBB5"/>
<path d="M124.995 122H103C103 122 102.99 132 115.036 132C115.036 132 125 131.5 125 122H124.995Z" fill="#E49F7F"/>
<path d="M64.7632 248.597C59.4657 257.151 48.2071 259.797 39.6253 254.505C31.0435 249.224 26.2859 236.724 31.5947 228.169L74.5934 165.195C79.9022 156.641 89.9124 153.233 98.4829 158.525C107.065 163.816 109.719 175.039 104.422 183.582L64.7632 248.597Z" fill="#F85851"/>
<path d="M128.821 277.665C130.078 269.714 124.57 262.258 116.508 261.017L98.0382 258.176C89.9865 256.935 82.4355 262.375 81.1787 270.335C79.9218 278.286 85.4304 285.742 93.4919 286.983L111.972 289.824C120.023 291.065 127.574 285.625 128.831 277.665H128.821Z" fill="#FBCBB5"/>
<path d="M40.243 259.62C28.9956 253.454 25.2042 248.566 27.1398 236.626C29.9066 226.95 40.018 221.356 49.7133 224.114L102.863 254.535L92.8419 289.548L40.243 259.62Z" fill="#F85851"/>
<path d="M178.866 186.68L193.411 199.171C199.454 203.775 200.615 212.402 196.012 218.44C191.408 224.478 182.781 225.644 176.737 221.04L162.283 209.329" fill="#FBCBB5"/>
<path d="M204.797 160.785H185.449C196.83 160.785 196.261 178.996 196.261 178.996L210.488 175.871L204.797 160.785Z" fill="white"/>
</g>
<path d="M158.834 268.611C158.419 268.651 157.998 268.674 157.571 268.674H155.34C148.728 268.674 143.361 263.632 143.361 257.417V156.789H198.236C201.833 156.789 205.196 157.99 207.796 160.517C211.746 164.358 209.953 165.564 210.386 170.447V268.679H168.759" fill="white"/>
<path d="M163.715 257.167C163.715 251.858 160.153 247.385 155.287 245.996C156.3 245.706 157.37 245.547 158.48 245.547H207.409C213.828 245.547 219.029 250.748 219.029 257.167C219.029 263.587 213.828 268.788 207.409 268.788H158.48C157.37 268.788 156.3 268.629 155.287 268.338C160.153 266.95 163.715 262.477 163.715 257.167Z" fill="#C1E7F4"/>
<path d="M190.535 160.201C190.535 165.886 185.032 170.501 178.249 170.501H170.88C164.097 170.501 158.594 165.892 158.594 160.201C158.594 154.516 164.097 149.906 170.88 149.906H178.249C185.032 149.906 190.535 154.516 190.535 160.201Z" fill="#FBCBB5"/>
</g>
<defs>
<clipPath id="clip0_2355_23169">
<rect width="240" height="290" fill="white"/>
</clipPath>
</defs>
</svg>
