<svg width="417" height="296" viewBox="0 0 417 296" fill="none" xmlns="http://www.w3.org/2000/svg">
    <g clip-path="url(#xrnivtb4ha)">
        <path d="M16.75 0h374.07c4.95 0 8.97 4.02 8.97 8.97v246.32c0 4.95-4.02 8.97-8.97 8.97H16.74c-4.95 0-8.97-4.02-8.97-8.97V8.97C7.77 4.02 11.79 0 16.75 0z" fill="#111"/>
        <path d="M388.51 7.41H19.06v249.44h369.45V7.41z" fill="#FAFAFA"/>
        <path d="m48.39 93.91-4.93-5.46c-2.65-2.94-2.42-7.47.51-10.12 2.94-2.65 7.47-2.42 10.12.51l5.58 6.17M238.21 286.87l5.06 5.95c.51.61.44 1.51-.16 2.03-.6.51-1.51.44-2.02-.17l-5.02-5.9M169.96 36.36c-3.6-5.16-10.07-11.47-26.44-9.43-18.03 2.25-24.7 17.94-26.25 27.32-2.48 14.96 5.5 22.93 11.25 26.6" fill="#111"/>
        <path d="m412.51 105.47.92.09c3.01-3.7 1.05-8.98-3.67-9.74-1.04-.17-2.79-.21-5-.14.9-2.51-.38-7.01-5.88-7.6-5.24-.56-27.13 2.03-44.82 9.84l-.34-.54c2.1-4.78 2.49-9.83-1.83-12.44-4.46-2.69-13.13 4.62-20.28 12.86-6.67 7.55-12.92 19.18-16.62 22.62 1.39 3.83 7.77 11.83 15.12 18.99 13.7 13.34 22.42 16.15 22.42 16.15 6.29-7.06 12.77-12.8 16.41-15.56 6.97-5.28 17.19-9.67 25.24-10.2 7.54-.49 14.58-2.2 14.17-8.14-.11-1.51-1.06-2.64-2.58-3.49l.11-.22c3.96.25 10.16-1.26 10.55-6.14.18-2.22-.47-5.03-3.92-6.34z" fill="#FFE8E0"/>
        <path d="m342.98 149.63-9.11-7.4c-3.58-3.12-7.46-7.3-10.95-10.69-4.32-4.18-7.84-10.75-7.84-10.75l-17.25 23.2-11.66 15.2s-7.17-6.83-12.13-12.58c-4.97-5.75-18.56-16.86-30.33-24.45-11.77-7.58-33.73-14.77-44.06-17.39-10.33-2.62-26.41-2.35-29.55-2.62-3.14-.26-34.78 3.92-34.78 3.92l-6.55 1.28-1.28-2.2c-5.74.6-34.82 6.51-57.21 16.96-17.12 7.99-38.52 26.41-51.81 42.1C5.18 179.9-3.21 206.03 1.83 221.05c5.03 15.02 21.93 19.86 33.43 21.66 6.41 1 14.17.58 22.08-.59l.52 14.82s185.52.1 192.18 0c-.39-2.16-11.08-31.57-11.08-31.57l-7.26-19.61 1.46-.63c14.6 16.65 29.47 24.11 47.32 24.86 17.96.75 39.15-9.46 50.94-28.99 7.53-12.47 14.74-30.64 21.17-45.17-6.7-3.34-3.59-2.13-9.62-6.2h.01z" fill="#fff"/>
        <path d="M340.3 173.56c0 2.2-1.79 3.99-3.99 3.99s-3.99-1.79-3.99-3.99 1.79-3.99 3.99-3.99 3.99 1.79 3.99 3.99zM77.17 230.86c0 2.2-1.79 3.99-3.99 3.99s-3.99-1.79-3.99-3.99 1.79-3.99 3.99-3.99 3.99 1.79 3.99 3.99zM61.19 83.91 46.63 95.44l54.41 60.88 52.38 58.59 57.65 64.51 27.66 10.28-6.54-29.53-91.33-94.13-79.67-82.13z" fill="#0175DA"/>
        <path d="m170.07 207.62 17.04 18.3a3.445 3.445 0 0 1-.17 4.87l-2.21 2.06a3.445 3.445 0 0 1-4.87-.17l-18.85-20.24" fill="#555"/>
        <path d="M100.83 230.07c5.47-2.41 17.15-6.82 28.17-9.17 11.31-2.42 25.75-5.92 32.89-8.81 7.14-2.89 12.79-7.91 16.04-11.74 2.77-3.26 2.7-9.15-1.4-11.24l-.33-.21c.37-.65.63-1.26.74-1.81 1.06-5.39-.19-10.05-4.82-11.7l-.71 1c.71-2.84.46-5.3-.33-6.87-1.74-3.47-4.58-4.77-8.76-4.42l-.23.43c-.1-1.6-.67-3.2-1.65-4.87-3.16-5.37-9.56-1.79-15.64 2.63-1.34.97-2.79 2.03-4.33 3.07-6.58 3.9-8.41 5.07-11.81 5.73-3.4.65-7.64.68-9.34-1.67-1.7-2.35-1.71-4.05-3.93-10.83-1.28-3.92-4.88-7.06-10.39-5.94-5.52 1.13-7.06 6.41-6.93 12.29.13 5.88 1.95 13.81.39 15.04-1.56 1.23-8.76 2.75-10.2 2.88-.52 3.14 1.7 17.78 2.75 21.44s5.8 21.68 9.83 24.76l-.01.01zM176.35 44.33a41.104 41.104 0 0 0-6.21-7.83l-.03.02-.02-.06s-.04.03-.1.08a.7.7 0 0 0 .1-.08l-3 1.67-3.83 1.26-7.7 1.26c-6.61.67-13.6.45-17.06-.82-.64 1.98-1.49 5.76-2.41 10.15-.45 2.14-.92 4.43-1.38 6.72l-.21.14c-1.33-.8-3.11-1.31-4.67-1.44-5-.43-9.4 3.28-9.83 8.28-.43 5 4.15 9.41 9.15 9.84.19.02-1.65 36.73-1.65 36.73.08.07.17.14.25.21h-.36l19.28 32.94 9.81-23.53 15.69 19.02.52-28.5h-.22l-3.86-22.69 3.22-2.31c11.89-7.35 13.9-25.73 4.51-41.06h.01z" fill="#FFE8E0"/>
        <path d="m127.93 110.91 18.83 32.42 9.74-23.79 15.75 19.28.39-28.44s-3.46 3.92-6.67 5.43c-3.2 1.5-7.78 3.27-8.89 3.4-1.11.13-6.93 1.7-14.71-.92-7.78-2.61-14.45-7.39-14.45-7.39l.01.01z" fill="#fff"/>
        <path d="M171.33 102.07c60.21-.23 96.83 36.51 114.62 57.22 8.1-9.58 33.89-45.67 39.31-53.39 7.33-10.44 20.7-24.52 26.62-20.95 4.49 2.71 3.89 8.06 1.58 12.99" stroke="#111" stroke-width=".7" stroke-linecap="round" stroke-linejoin="round"/>
        <path d="M346.48 101.78c18.36-10.82 46.38-14.34 52.4-13.69 5.51.59 6.79 5.11 5.88 7.62M232.85 204.78c14.7 16.9 29.66 24.45 47.62 25.2 17.96.75 39.15-9.46 50.94-28.99 7.3-12.09 14.79-31.03 21.12-45.44 6.29-7.06 12.77-12.8 16.41-15.56 6.97-5.28 17.19-9.67 25.24-10.2 7.54-.49 14.58-2.2 14.17-8.14-.6-8.72-29.41-5.14-34.14-4.42" stroke="#111" stroke-width=".7" stroke-linecap="round" stroke-linejoin="round"/>
        <path d="M315.07 120.73c2.13 7.34 26.84 30.39 37.25 34.89M295.93 147.13c3.14 11.77 27.26 32.36 44.12 36.67M371.82 108.49c7.01-2.42 25.84-3.77 35.9-3.77 7.69 0 8.95 4.09 8.71 7.09-.4 5.02-6.98 6.48-10.9 6.12M366.72 97.05c2.75 4.71 7.06 17.52 7.45 26.02" stroke="#111" stroke-width=".7" stroke-linecap="round" stroke-linejoin="round"/>
        <path d="M368.88 101.04c7.26-3.04 35.06-6.16 40.88-5.22 4.72.76 6.68 6.04 3.67 9.74M46.35 189.25c12.69-1.27 29.75-2.94 37.72-4.64 5.63-1.2 14.09-2.52 15.15-4.59 1.05-2.07-5.72-25.16 6.97-26.44 12.69-1.27 7.94 16.62 16.05 18.46 8.11 1.84 16.47-4.33 22.55-8.74 6.09-4.41 12.48-8 15.64-2.63s2.04 10.04-5.17 16.23c-8.1 6.94-13.73 9.33-17.7 10.5" stroke="#111" stroke-width=".7" stroke-linecap="round" stroke-linejoin="round"/>
        <path d="M162.31 165.11c4.19-.36 7.03.94 8.76 4.42 1.74 3.48.93 11.32-7.44 18.03-8.37 6.72-14.22 8.76-18.6 10.41" stroke="#111" stroke-width=".7" stroke-linecap="round" stroke-linejoin="round"/>
        <path d="M172.11 175.39c4.63 1.65 5.88 6.31 4.82 11.7-1.11 5.62-17.32 17.62-27.2 19.95M90.74 114.18c16.85-5.5 32.68-8.6 36.75-9.03" stroke="#111" stroke-width=".7" stroke-linecap="round" stroke-linejoin="round"/>
        <path d="M176.52 189.11c4.1 2.09 4.17 7.98 1.4 11.24-3.25 3.83-8.9 8.85-16.04 11.74-7.14 2.89-21.58 6.38-32.89 8.81-11.01 2.36-24.41 7.12-28.17 9.17-3.75 2.05-43.03 16.18-65.57 12.65-11.5-1.8-28.4-6.63-33.43-21.66-5.03-15.03 3.35-41.16 16.64-56.84 13.29-15.69 34.69-34.11 51.81-42.1" stroke="#111" stroke-width=".7" stroke-linecap="round" stroke-linejoin="round"/>
        <path d="M88.35 183.7c-.68 7.8 3.04 32.75 12.65 45.99M340.3 173.56c0 2.2-1.79 3.99-3.99 3.99s-3.99-1.79-3.99-3.99 1.79-3.99 3.99-3.99 3.99 1.79 3.99 3.99zM77.17 230.86c0 2.2-1.79 3.99-3.99 3.99s-3.99-1.79-3.99-3.99 1.79-3.99 3.99-3.99 3.99 1.79 3.99 3.99zM58.84 188.11c-4.71 17.52 1.96 45.3 8.76 51.97M57.66 242.3l.21 14.06M250.04 256.95s-31.52-96.47-42.39-115.11M140.86 166.04 61.19 83.91 46.63 95.44l54.34 60.8M153.48 214.99l57.59 64.43 27.66 10.28-6.54-29.53-56.08-57.81M48.39 93.91l-4.93-5.46c-2.65-2.94-2.42-7.47.51-10.12 2.94-2.65 7.47-2.42 10.12.51l5.58 6.17M67.84 91.04l-14.88 11.87" stroke="#111" stroke-width=".7" stroke-linecap="round" stroke-linejoin="round"/>
        <path d="m238.21 286.87 5.06 5.95c.51.61.44 1.51-.16 2.03-.6.51-1.51.44-2.02-.17l-5.02-5.9M173.46 212.52l-5.95 5.33M170.07 207.62l17.04 18.3a3.445 3.445 0 0 1-.17 4.87l-2.21 2.06a3.445 3.445 0 0 1-4.87-.17l-18.85-20.24M232.04 260.55l-20.97 18.87M171.84 85.4c11.89-7.35 13.9-25.73 4.51-41.06a41.104 41.104 0 0 0-6.21-7.83l-.03.02-.02-.06m0 0s-.04.03-.1.08a.7.7 0 0 0 .1-.08zm0 0-3 1.67-3.83 1.26-7.7 1.26c-6.61.67-13.6.45-17.06-.82-.64 1.98-1.49 5.76-2.41 10.15-.45 2.14-.92 4.43-1.38 6.72l-.21.14c-1.33-.8-3.11-1.31-4.67-1.44-5-.43-9.4 3.28-9.83 8.28-.43 5 4.15 9.41 9.15 9.84.19.02-1.65 36.73-1.65 36.73 4.77 4.06 12.39 8.85 23.02 9.57 10.64.72 19.57-6.02 21.95-9.37l-3.87-22.75" stroke="#111" stroke-width=".7" stroke-linecap="round" stroke-linejoin="round"/>
        <path d="m127.42 110.46 19.27 32.94 9.81-23.53 15.69 19.02.52-28.5M158.83 221.06c.15 14.9.14 27.86-.17 35.69" stroke="#111" stroke-width=".7" stroke-linecap="round" stroke-linejoin="round"/>
        <path d="M156.6 119.97c.07 2.63.54 18.26 1.04 38.34M134.03 72.09c9.54 14.51 26.23 20.47 37.82 13.3 11.89-7.35 13.9-25.73 4.51-41.06a41.104 41.104 0 0 0-6.21-7.83" stroke="#111" stroke-width=".7" stroke-linecap="round" stroke-linejoin="round"/>
        <path d="M169.96 36.36c-3.6-5.16-10.07-11.47-26.44-9.43-18.03 2.25-24.7 17.94-26.25 27.32-2.48 14.96 5.5 22.93 11.25 26.6" stroke="#111" stroke-width=".7" stroke-linecap="round" stroke-linejoin="round"/>
        <path d="M155.62 53.66c.37 1.47.03 2.83-.78 3.04-.81.21-1.77-.81-2.15-2.29-.38-1.47-.03-2.83.79-3.04.81-.21 1.77.82 2.15 2.29h-.01zM170.37 49.87c.37 1.47.03 2.84-.78 3.04-.81.21-1.78-.82-2.15-2.29-.38-1.47-.02-2.83.78-3.04.81-.21 1.77.81 2.15 2.29z" fill="#111"/>
        <path d="M162.74 49.65c.5 2.71 2.17 6.26 3.29 7.68s1.63 3.37.92 5.06c-.7 1.69-3.18 3.09-3.18 3.09M165.15 80.46c4.77-.17 6.51-5.31 7.19-11.11-4.91 1.09-10.59 1.75-15.79 1.67.02 3.43 3.22 9.63 8.6 9.44zM156.14 47.56c-2.59-1.23-6.81.05-7.77 2.94M163.72 45.75c1.86-2.19 6.23-2.75 8.29-.51M236.9 72.61h61.19M220.43 81.23h98.05M309.39 50.55l2.82 9.24 10.02.08-8.26 5.28 3.35 9.81-7.93-6.5-7.93 6.5 3.38-9.81-8.28-5.28 10.02-.08 2.81-9.24z" stroke="#111" stroke-width=".7" stroke-linecap="round" stroke-linejoin="round"/>
        <path d="m304.88 65.35 4.51 3.11 4.32-3.31-1.5-5.36h-5.69l-1.68 5.36M288.17 48.97l2.03 6.69 7.25.05-5.97 3.82 2.42 7.09-5.73-4.7-5.74 4.7 2.44-7.09-5.98-3.82 7.24-.05 2.04-6.69z" stroke="#111" stroke-width=".7" stroke-linecap="round" stroke-linejoin="round"/>
        <path d="m284.91 59.67 3.26 2.25 3.12-2.39-1.09-3.87h-4.11l-1.22 3.87M298.89 32.76l2.03 6.69 7.25.05-5.97 3.82 2.42 7.09-5.73-4.7-5.74 4.7 2.45-7.09-5.99-3.82 7.24-.05 2.04-6.69z" stroke="#111" stroke-width=".7" stroke-linecap="round" stroke-linejoin="round"/>
        <path d="m295.63 43.46 3.26 2.25 3.12-2.39-1.09-3.87-4.11-.01-1.21 3.88" stroke="#111" stroke-width=".7" stroke-linecap="round" stroke-linejoin="round"/>
        <path d="M285.96 159.29c8.1-9.58 33.89-45.67 39.31-53.39 1.67-2.38 3.65-4.94 5.79-7.45" fill="#111"/>
    </g>
    <defs>
        <clipPath id="xrnivtb4ha">
            <path fill="#fff" d="M0 0h416.81v295.53H0z"/>
        </clipPath>
    </defs>
</svg>
