<svg width="225" height="207" viewBox="0 0 225 207" fill="none" xmlns="http://www.w3.org/2000/svg">
    <g clip-path="url(#odtsi34dma)">
        <path d="M109.548 24.899s2.584 10.29 23.137 15.448l5.747 6.65s-8.193 14.511-6.326 25.46c1.867 10.95 8.332 14.27 17.104 8.938 8.764-5.331 9.481 8.219 9.775 16.29.294 8.07 10.207 8.357 10.207 8.357s11.21-.72 11.781-11.392c.57-10.671 9.775-10.09 16.24-10.09 6.465 0 7.761-5.618 7.182-8.938-.579-3.32-2.299-14.27-18.971-15.709s-16.525-4.325-15.229-9.085c1.296-4.76 10.925-9.51 5.177-16.575-5.747-7.065-15.661-5.618-15.661-5.618s-5.315.434-7.614-5.331c-2.299-5.765-3.449-19.167-20.838-22.488-17.39-3.32-23.569 4.326-25.289 7.924 0 0-12.213-8.938-22.135 1.586 0 0-5.03 4.76-5.315 12.83 0 0 1.003 6.919-4.313 7.785 0 0-9.057.867-6.032 14.99 0 0 5.747 11.53 2.152 15.274 0 0-2.732 5.046-6.327 6.051 0 0 18.686 3.026 22.852-4.612 0 0 4.745-2.887-.285-18.742 0 0-2.446-11.678 6.18-9.658 0 0 13.94 4.179 16.81-9.371l-.009.026z" fill="#222"/>
        <path d="M129.972 41.898s.864-2.74 5.177-1.873c0 0 4.598.07 4.166 7.135 0 0-.286 11.027-8.479 5.262" fill="#fff"/>
        <path d="M129.972 41.898s.864-2.74 5.177-1.873c0 0 4.598.07 4.166 7.135 0 0-.286 11.027-8.479 5.262" stroke="#222" stroke-miterlimit="10" stroke-linecap="round"/>
        <path d="M133.878 45.27s1.902.866.441 2.366l-.441-2.367z" fill="#fff"/>
        <path d="M133.878 45.27s1.902.866.441 2.366M85.564 62.651s10.06 21.621 25.583 21.049c0 0 16.206 0 19.456-13.264" stroke="#222" stroke-miterlimit="10" stroke-linecap="round"/>
        <path d="M64.225 66.578S11.218 92.056 2.403 133.373c-8.816 41.317 14.753 55.465 14.753 55.465S31.132 202.7 53.37 199.57c6.854-.962 15.522-7.134 18.78-14.295 0 0 9.776-16.827 11.885-32.587 0 0 .432-3.84-1.297-4.612 0 0-2.204-.728-3.785 3.719 0 0 2.108-6.025-.242-9.345 0 0-1.53-1.63-2.636.815 0 0-2.541 6.198-3.207 6.918 0 0 1.772-11.236-.242-12.753 0 0-1.582-.936-2.774 1.223 0 0-4.503 15.344-6.95 18.075 0 0-4.096 7.776-9.982 10.463-2.333 1.067-4.943 1.335-7.692 0 0 0-14.278-5.348 2.394-28.183" stroke="#222" stroke-linecap="round" stroke-linejoin="round"/>
        <path d="M51.468 167.746s-6.784 21.465 2.68 31.712" stroke="#222" stroke-miterlimit="10" stroke-linecap="round"/>
        <path d="M69.8 158.505s2.653-5.123 3.068-8.314M73.88 164.122s4.347-9.12 5.073-12.327M160.775 66.578s53.007 25.478 61.822 66.795c8.816 41.317-14.753 55.465-14.753 55.465S193.868 202.7 171.63 199.57c-6.854-.962-15.522-7.134-18.781-14.295 0 0-9.775-16.827-11.884-32.587 0 0-.432-3.84 1.297-4.612 0 0 2.204-.728 3.785 3.719 0 0-2.109-6.025.242-9.345 0 0 1.53-1.63 2.636.815 0 0 2.541 6.198 3.207 6.918 0 0-1.772-11.236.242-12.753 0 0 1.582-.936 2.774 1.223 0 0 4.503 15.344 6.949 18.075 0 0 4.097 7.776 9.983 10.463 2.333 1.067 4.943 1.335 7.692 0 0 0 14.278-5.348-2.394-28.183" stroke="#222" stroke-linecap="round" stroke-linejoin="round"/>
        <path d="M173.532 167.746s6.784 21.465-2.68 31.712" stroke="#222" stroke-miterlimit="10" stroke-linecap="round"/>
        <path d="M155.2 158.505s-2.653-5.123-3.068-8.314M151.129 164.122s-4.347-9.12-5.073-12.327M90.837 49.249s1.797 2.497 5.272 1.734c0 0 3.258-.53 3.405-3.65M110.931 44.889s1.461 2.704 5.005 2.392c0 0 3.301-.104 3.837-3.181M100.266 61.69s1.772 4.178 6.655 3.172c0 0 3.207-.815 3.639-4.802" stroke="#222" stroke-linecap="round" stroke-linejoin="round"/>
        <path d="M112.798 180.013c17.356 0 31.426-14.112 31.426-31.521 0-17.408-14.07-31.52-31.426-31.52-17.356 0-31.425 14.112-31.425 31.52 0 17.409 14.07 31.521 31.425 31.521z" fill="#FFC42D"/>
        <path d="M94.363 173.598c3.656 1.543 19.153 7.195 37.311.606a1.492 1.492 0 0 1 1.85.711c1.072 2.116 3.267 23.875 4.105 26.302a1.478 1.478 0 0 1-.89 1.864c-4.918 1.838-24.174 7.837-47.821-.104a1.496 1.496 0 0 1-1.003-1.595c.277-2.193 1.27-24.23 4.858-27.498a1.509 1.509 0 0 1 1.599-.295l-.01.009z" fill="#222"/>
        <path d="M107.206 140.733s3.44 4.708 8.133.625c0 0 .078 5.73 6.491 6.909 0 0-6.888.867-4.46 7.377 0 0-3.837-1.803-6.491 2.748 0 0-.622-5.652-6.024-5.574 0 0 2.818-3.216.7-5.574 0 0 3.051-1.691 1.643-6.511h.008z" fill="#fff"/>
        <path d="m122.72 151.683 4.408 3.927a.86.86 0 0 0 1.305-.191l.398-.642a.869.869 0 0 1 1.244-.242l5.212 3.84M125.883 144.981s4.166.867 4.884 0a19.563 19.563 0 0 1 1.4-1.491.857.857 0 0 1 .596-.242h1.919a.865.865 0 0 0 .812-.581l.303-.858M121.83 140.734l.389-.434 1.996-1.733a.871.871 0 0 0 .009-1.301l-.717-.65a.877.877 0 0 1 .06-1.344l3.898-2.904M114.89 136.98s1.936-3.823 2.014-4.179c.077-.355-.07-5.262 0-5.765M108.209 138.064l-1.132-4.205a.859.859 0 0 0-1.271-.52c-.639.381-1.357.771-1.4.615-.069-.286-2.515-5.765-2.515-5.765M95.054 138.063l3.388 2.038a.888.888 0 0 0 .441.121h1.279c.087 0 .173.009.251.035.484.147 2.256.711 2.316.901.069.217.502 1.804.502 1.804M102.6 150.894s-4.313.364-4.382 0c-.044-.234-.329-1.223-.528-1.916a.86.86 0 0 0-.898-.624l-4.754.372M103.248 155.87c-.432.217-5.93 4.465-5.93 4.465M110.361 159.901l-1.34 4.63a.86.86 0 0 0 .605 1.075l.139.034a.87.87 0 0 1 .639.789c.052.893.112 2.462-.043 2.766-.216.433-1.08 1.369-1.08 1.369M118.407 158.098l3.976 5.062s.061.07.095.104l2.161 1.968" stroke="#222" stroke-miterlimit="10" stroke-linecap="round"/>
        <path d="M124.181 89.11s.726 6.345-5.765 7.784c0 0 6.707 2.592 6.24 8.747 0 0 .968-7.204 5.756-7.88 0 0-6.802-3.364-6.231-8.652zM95.097 84.09s.953 4.415 3.432 5.017c0 0-3.382.801-3.776 4.519 0 0 .367-4.669-3.138-5.37 0 0 3.51-1.658 3.482-4.166zM92.707 97.96s-1.21 9.607 5.822 10.603c0 0-6.16 1.216-7.26 6.736 0 0 .218-6.955-4.84-9.277 0 0 5.603-1.993 6.268-8.061h.01z" fill="#FFC42D"/>
        <path d="M106.402 99.443s1.764-1.335 2.697.182c0 0 1.547 2.376 0 3.39 0 0-2.697 1.439-3.483-.971 0 0-1.003-1.517.786-2.592v-.009zM77.025 92.82s1.098 1.456-.147 2.228c0 0-1.953 1.274-2.783 0 0 0-1.184-2.228.796-2.879 0 0 1.244-.832 2.134.65zM142.461 96.46s-1.271 1.657-2.498.512c0 0-1.997-1.777-.839-3.077 0 0 2.092-1.985 3.414.017 0 0 1.288 1.127-.077 2.557v-.008zM138.623 118.81s.803 1.361-.346 1.907c0 0-1.815.91-2.403-.278 0 0-.804-2.037.977-2.41 0 0 1.158-.598 1.772.772v.009zM77.258 107.54s.804 1.361-.346 1.907c0 0-1.815.911-2.402-.277 0 0-.804-2.037.976-2.41 0 0 1.158-.598 1.772.771v.009z" fill="#222"/>
    </g>
    <defs>
        <clipPath id="odtsi34dma">
            <path fill="#fff" d="M0 0h225v207H0z"/>
        </clipPath>
    </defs>
</svg>
