<svg width="237" height="157" viewBox="0 0 237 157" fill="none" xmlns="http://www.w3.org/2000/svg">
    <g clip-path="url(#9a52tlom8a)">
        <path d="m165.7 156.48 3.45-44.07H84.64l4.6 43.5 76.46.57z" fill="#F1F1F1"/>
        <path d="M42.17 117.32c-2.78-7.75-6.14-18.21-8.74-26.81 3.99-1.41 2.16-.94 5.83-2.81l5.63-3.52c2.23-1.51 4.69-3.58 6.89-5.24 2.71-2.05 5.14-5.49 5.14-5.49l6.79 10.48s3.42-7.58 7.25-11.17 8.58-8.75 13.17-11.08c4.58-2.33 11.58-6.42 21.08-7.67 9.5-1.25 16.58-2.08 23.75-1.17 7.17.92 15.67.17 23.92 2.92 8.25 2.75 18.83 9.08 23.42 12.33 4.58 3.25 13.67 11.25 17.33 17.92 3.66 6.67 7.58 12.5 10.08 24.5s2.5 16.25-.42 21.83c-2.92 5.58-5.25 8.17-11.17 9.75s-15.83 2.25-19.75 2.25h-5.58l2.25-32-84.33-.08 2.58 26.5s-5.17 2.83-11.5 3c-6.33.17-12.7-.7-16.83-3.33-5.75-3.67-13.49-11.91-16.79-21.12v.01z" fill="#fff"/>
        <path d="M89.45 87.27c1.1-8.54 2.92-24.09 5.63-30.71 2.99-1.1 6.35-2.04 10.12-2.54 9.5-1.25 16.58-2.08 23.75-1.17 7.17.92 15.67.17 23.92 2.92 1.74.58 3.58 1.32 5.44 2.16 1.48 5.61 2.4 10.82 3.68 19.02 1.5 9.62 3.87 30.5 3.5 32.88-1.91.55-5.88 1.7-8.67 2.52l-69.32-.07c.17-3.41.88-16.64 1.96-25l-.01-.01z" fill="#7D79E7"/>
        <path d="M140.32 57.56 128.2 98.15l-15.7-42.58" fill="#fff"/>
        <path d="M128.85 65.38 131.1 68l-2.35 4.81 3.1 13.2-3.8 11.17-4.54-11.92 1.71-12.45-2.46-4.7 1.82-2.89h4.22" fill="#7D79E7"/>
        <path d="M3.32 58.08H2.8c-1.43-2.29.03-5.12 2.74-5.22.6-.02 1.58.08 2.81.27-.33-1.47.7-3.91 3.83-3.86 2.98.05 15.08 3.03 24.46 8.64l.23-.28c-.85-2.83-.72-5.69 1.89-6.86 2.69-1.2 7.05 3.51 10.48 8.62 3.21 4.7 5.92 11.66 7.75 13.85-1.05 2.05-5.18 6.1-9.8 9.6-8.61 6.53-13.7 7.5-13.7 7.5-3.04-4.4-6.27-8.07-8.12-9.87-3.54-3.45-8.97-6.62-13.45-7.48-4.2-.8-8.03-2.25-7.38-5.55.16-.84.78-1.41 1.69-1.78l-.04-.13C3.95 65.4.58 64.12.7 61.35c.06-1.26.62-2.79 2.64-3.29l-.02.02zM114.7 9.19c-1.44 1.5-4.07 3.91-5.79 7.52-1.71 3.61-3.72 8.51-3.08 11.94.65 3.43 1.69 7.5 4.34 9.36 2.66 1.86 3.94 2.22 3.94 2.22l-1.8 15.43s5.47 5.32 8.36 5.96c2.88.64 9.98.88 13.27-.71 3.29-1.6 6.25-3.77 6.25-3.77l-1.49-23.15s2.8-.44 3.99-1.61c1.19-1.17 1.86-2.53 1.82-4.83-.05-2.3-3.03-4.6-4.57-4.95-1.54-.35-3.25.45-3.94.78-.28-1.34-1.82-11.14-1.82-11.14s-5.23.55-8.36.17c-3.14-.39-8.14-1.62-11.11-3.22h-.01z" fill="#FFE8E0"/>
        <path d="M132.95 11.35c-5.81.8-16.65.53-21.34-.64.51-6.97 9.55-10.76 17.33-10.33 7.78.44 14.13 4.19 16.23 9.06 2.1 4.87.6 11.46-1.99 15.27-2.59 3.81-5.68 6.47-8.43 7.1 1.45-5.69.9-13.97.9-13.97l-4.08 2.26s.48-4.5 1.4-8.74l-.02-.01z" fill="#181334"/>
        <path d="M143.4 24.53c.74.93 1.2 2.11 1.22 3.39.06 3.1-2.4 5.68-5.51 5.74-.12 0-.29.05-.47.12l1.65 23.48c-3.11 2.32-8 4.97-14.6 4.99-6.6.02-11.85-4.51-13.18-6.67l1.43-15.6s-.84-.24-2.27-.98c-7.68-3.99-7.47-16.2-1.06-25.29.73-1.03 1.25-1.65 2.08-2.53" stroke="#000" stroke-width=".7" stroke-linecap="round" stroke-linejoin="round"/>
        <path d="M132.95 11.35c-5.81.8-16.65.53-21.34-.64.51-6.97 9.55-10.76 17.33-10.33 7.78.44 14.13 4.19 16.23 9.06 2.1 4.87.6 11.46-1.99 15.27-2.59 3.81-5.68 6.47-8.43 7.1 1.45-5.69.9-13.97.9-13.97l-4.08 2.26s.48-4.5 1.4-8.74l-.02-.01zM114.11 40.03c4.85 1.44 12.67.14 16.72-2.64" stroke="#000" stroke-width=".7" stroke-linecap="round" stroke-linejoin="round"/>
        <path d="M123.37 20.45c-.41.84-.37 1.71.09 1.94.47.23 1.18-.27 1.59-1.12.41-.85.37-1.72-.09-1.94-.46-.23-1.18.27-1.59 1.12zM114.91 16.31c-.41.85-.37 1.72.09 1.94.47.23 1.18-.27 1.59-1.12.41-.85.37-1.72-.09-1.94-.46-.23-1.18.27-1.59 1.11v.01z" fill="#000"/>
        <path d="M119.56 17.13c-.64 1.58-2.1 3.52-2.96 4.24-.86.72-1.41 1.84-1.19 2.95.21 1.12 1.55 2.27 1.55 2.27M119.58 30.8c-2.38.98-6.61-.7-8.31-2.92M123.82 16.69c1.73-.42 4.12.88 4.35 2.76M119.45 14.64c-.85-1.56-3.43-2.45-4.96-1.35M165.7 156.48l3.45-44.07H84.64l4.6 43.5 76.46.57zM165.87 153.08H89.14" stroke="#000" stroke-width=".7" stroke-linecap="round" stroke-linejoin="round"/>
        <path d="M125.84 135.84a2.78 2.78 0 0 0 2.78 2.78c1.53 0 2.78-1.25 2.78-2.78 0-1.53-1.25-2.78-2.78-2.78a2.78 2.78 0 0 0-2.78 2.78zM140.19 53.57c18.27 1.74 30.99 9.94 41.43 18.86 14.64 12.51 20.58 29.91 22.65 39.69 3.42 16.21-1.75 26.25-10.5 29.38-9.1 3.25-21.05 3.03-27.11 2.79M112.55 53c-13.58.74-25.83 6.16-33.24 12.07-6.55 5.23-12.33 11.17-15.5 18.67M140.32 57.56 128.2 98.15l-15.7-42.58" stroke="#000" stroke-width=".7" stroke-linecap="round" stroke-linejoin="round"/>
        <path d="m135.36 73.18-9.26-10.7-6.84 11.37" stroke="#000" stroke-width=".7" stroke-linecap="round" stroke-linejoin="round"/>
        <path d="m130.83 68.48-2.06 4.06 3 13.56M122.7 68.17l2.5 4.18-1.68 12.88M128.56 65.47h-4.15M128.71 72.51h-3.46M94.83 57.1c-3.25 8-7.56 44.01-7.31 55.14M158.33 58.1c3.87 8.88 7.27 48.22 7.1 51.39M177.31 107.08c-6 1.17-18.46 4.17-22.12 5.33M78.39 105.49c-2.62-4.01-16.73-23.77-21.32-32.17-2.21-4.05-4.02-7.41-4.84-8.94-3.39-6.37-9.91-15.2-13.48-13.6-2.7 1.21-2.74 4.25-1.79 7.18" stroke="#000" stroke-width=".7" stroke-linecap="round" stroke-linejoin="round"/>
        <path d="M40.62 60.6c-9.55-7.35-25.02-11.27-28.45-11.33-3.13-.05-4.16 2.39-3.83 3.87M23.98 67.35c-2.6-.73-18.51-4.75-19.46.1-.64 3.31 3.19 4.75 7.38 5.55 4.48.85 9.91 4.03 13.45 7.48 1.85 1.8 5.08 5.47 8.12 9.87 2.55 8.52 5.7 19.56 8.69 26.96 4.47 11.09 13.64 21.59 22.97 23.93 6.92 1.73 16.4.16 22.27-2.46" stroke="#000" stroke-width=".7" stroke-linecap="round" stroke-linejoin="round"/>
        <path d="M56.92 73.42c-1.71 3.97-17.17 15.19-23.33 16.98M62.67 82.87c-4.33 4.5-19.56 14.2-26.31 16.97M25.94 62.61C22.17 60.76 11.71 58.7 6.06 58 1.75 57.47.75 59.67.68 61.37c-.12 2.85 3.46 4.12 5.69 4.19M29.59 56.55c-1.87 2.45-5.18 9.34-5.99 14.08" stroke="#000" stroke-width=".7" stroke-linecap="round" stroke-linejoin="round"/>
        <path d="M28.1 58.63c-3.86-2.21-19.24-5.89-22.57-5.77-2.7.1-4.17 2.92-2.74 5.21" stroke="#000" stroke-width=".7" stroke-linecap="round" stroke-linejoin="round"/>
        <path d="M5.84 151.47h22.73l2.25-28.23H3.58l2.26 28.23z" fill="#fff"/>
        <path d="M.35 123.47h33.18l-2.26-6.16H2.61l-2.26 6.16z" fill="#fff"/>
        <path d="M5.84 151.47h22.73l2.25-28.23H3.58l2.26 28.23z" stroke="#000" stroke-width=".7" stroke-linecap="round" stroke-linejoin="round"/>
        <path d="M.35 123.47h33.18l-2.26-6.16H2.61l-2.26 6.16z" stroke="#000" stroke-width=".7" stroke-linecap="round" stroke-linejoin="round"/>
        <path d="M.35 123.47h33.18l-2.26-6.16H2.61l-2.26 6.16z" fill="#181334"/>
        <path d="M.35 123.47h33.18l-2.26-6.16H2.61l-2.26 6.16z" stroke="#000" stroke-width=".7" stroke-linecap="round" stroke-linejoin="round"/>
        <path d="m33.39 130.94-1.38 12.83H2.79l-1.18-13.62 31.78.79z" fill="#FFCB81"/>
        <path d="m33.39 130.94-1.38 12.83H2.79l-1.18-13.62 31.78.79z" stroke="#000" stroke-width=".7" stroke-linecap="round" stroke-linejoin="round"/>
    </g>
    <g clip-path="url(#3ykabby4gb)">
        <path d="M158.954 141.16c2.494 2.083 4.271 4.017 4.271 6.772s-.285 4.611-1.566 5.426c-1.281.816-2.779 1.637-2.779 1.637l40.501.297 3.844-6.914-2.278-4.909-3.77-1.856-38.223-.453z" fill="#fff"/>
        <path d="M228.868 140.208H197.86v.036a7.961 7.961 0 0 0-.66-.036h-39.903l-.097 2.565h38.354c.82 0 1.6.196 2.301.535 0 0 3.217 1.518 3.137 5.219-.079 3.701-3.137 5.177-3.137 5.177a5.255 5.255 0 0 1-2.301.535h-38.098l-.159 2.565h39.897c.222 0 .444-.018.661-.036v.036h31.008c4.385 0 7.938-3.713 7.938-8.295s-3.553-8.301-7.933-8.301z" fill="#FFA3A2"/>
        <path d="M220.958 140.196s5.319 2.624 5.82 6.212c.496 3.583.108 5.897-1.879 7.748-1.993 1.85-4.579 2.517-4.579 2.517l4.488.113s1.925-.262 4.02-1.94c2.466-1.97 3.001-5.04 2.779-7.283-.205-2.095-1.247-4.35-3.667-6.099-.786-.571-1.612-.863-2.455-1.262-1.566.084-4.521 0-4.521 0l-.006-.006z" fill="#fff"/>
        <path d="M197.854 140.208h31.008c4.385 0 7.939 3.713 7.939 8.295s-3.554 8.295-7.939 8.295h-31.008" stroke="#000" stroke-width=".7" stroke-linecap="round" stroke-linejoin="round"/>
        <path d="M157.456 154.233h38.098c3.03 0 5.484-2.564 5.484-5.73 0-3.166-2.454-5.73-5.484-5.73H157.2l.097-2.565h39.897c4.385 0 7.939 3.713 7.939 8.295s-3.554 8.295-7.939 8.295h-39.897l.159-2.559v-.006zM163.157 146.153h33.599M163.248 150.342h25.882" stroke="#000" stroke-width=".7" stroke-linecap="round" stroke-linejoin="round"/>
        <path d="M160.497 142.779c1.486.744 2.842 2.838 2.842 5.468s-.518 4.796-3.229 5.944M223.698 140.208c4.385 0 7.938 3.713 7.938 8.295" stroke="#000" stroke-width=".7" stroke-linecap="round" stroke-linejoin="round"/>
        <path d="M223.698 156.774c4.385 0 7.938-3.713 7.938-8.295M218.891 140.208c4.385 0 7.939 3.713 7.939 8.295" stroke="#000" stroke-width=".7" stroke-linecap="round" stroke-linejoin="round"/>
        <path d="M218.891 156.774c4.385 0 7.939-3.713 7.939-8.295" stroke="#000" stroke-width=".7" stroke-linecap="round" stroke-linejoin="round"/>
    </g>
    <defs>
        <clipPath id="9a52tlom8a">
            <path fill="#fff" transform="matrix(-1 0 0 1 205.68 0)" d="M0 0h205.68v156.83H0z"/>
        </clipPath>
        <clipPath id="3ykabby4gb">
            <path fill="#fff" transform="translate(157 140)" d="M0 0h80v17H0z"/>
        </clipPath>
    </defs>
</svg>
