<svg width="240" height="290" viewBox="0 0 240 290" fill="none" xmlns="http://www.w3.org/2000/svg">
<g clip-path="url(#clip0_2355_23250)">
<path fill-rule="evenodd" clip-rule="evenodd" d="M64.7188 235.082C64.7188 265.413 89.343 290 119.719 290C150.094 290 174.719 265.412 174.719 235.082L174.719 225H185.082C215.413 225 240 200.376 240 170C240 139.624 215.412 115 185.082 115L174.719 115L174.719 104.918C174.719 74.5876 150.094 50 119.719 50C89.3432 50 64.7188 74.5877 64.7188 104.918V115L54.9179 115C24.5875 115 -6.87977e-06 139.624 0 170C6.87978e-06 200.376 24.5877 225 54.918 225H64.7188V235.082Z" fill="#0175DA"/>
<mask id="mask0_2355_23250" style="mask-type:alpha" maskUnits="userSpaceOnUse" x="0" y="50" width="240" height="240">
<path fill-rule="evenodd" clip-rule="evenodd" d="M64.7188 235.082C64.7188 265.413 89.343 290 119.719 290C150.094 290 174.719 265.412 174.719 235.082L174.719 225H185.082C215.413 225 240 200.376 240 170C240 139.624 215.412 115 185.082 115L174.719 115L174.719 104.918C174.719 74.5875 150.094 50 119.719 50C89.3432 50 64.7188 74.5877 64.7188 104.918V115L54.9179 115C24.5875 115 -6.87977e-06 139.624 0 170C6.87978e-06 200.376 24.5877 225 54.918 225H64.7188V235.082Z" fill="#0175DA"/>
</mask>
<g mask="url(#mask0_2355_23250)">
<path d="M82.418 97.0332C82.418 109.668 92.6868 119.904 105.363 119.904H117.127C129.803 119.904 140.072 109.668 140.072 97.0332C140.072 84.3981 129.803 74.1621 117.127 74.1621H105.363C92.6868 74.1621 82.418 84.3981 82.418 97.0332Z" fill="#111111"/>
<path d="M32.601 242.122C26.5949 250.194 28.2708 261.596 36.3689 267.594C44.467 273.592 60.3596 269.085 70.426 255.531L107.402 199.539C113.419 191.467 111.732 180.065 103.634 174.067C95.5357 168.069 86.3354 171.398 80.318 179.471L32.5898 242.122H32.601Z" fill="#2DA860"/>
<path d="M168.885 261.597C174.183 270.151 185.441 272.797 194.023 267.505C202.605 262.224 207.363 249.724 202.054 241.169L159.055 178.195C153.746 169.641 143.736 166.233 135.166 171.525C126.584 176.816 123.929 188.039 129.227 196.582L168.885 261.597Z" fill="#2DA860"/>
<path d="M68.3516 219.603C68.3516 185.179 91.6451 157.266 120.37 157.266C149.095 157.266 172.389 185.179 172.389 219.603V296.665C172.389 331.089 68.3516 323.884 68.3516 289.448V219.603Z" fill="#2DA860"/>
<path d="M97.8472 293.333C96.4075 284.139 102.717 275.518 111.951 274.083L133.108 270.798C142.331 269.363 150.98 275.652 152.42 284.857C153.859 294.05 147.549 302.672 138.315 304.107L117.148 307.392C107.925 308.827 99.2756 302.537 97.836 293.333H97.8472Z" fill="#FBCBB5"/>
<path d="M195.411 273.62C206.659 267.454 210.45 262.566 208.515 250.626C205.748 240.95 195.636 235.356 185.941 238.114L126.791 271.535L136.812 306.548L195.411 273.62Z" fill="#2DA860"/>
<path d="M107.365 158.707C107.365 166.254 113.19 172.378 120.37 172.378C127.549 172.378 133.375 166.266 133.375 158.707V147.194C133.375 139.647 127.549 133.523 120.37 133.523C113.19 133.523 107.365 139.636 107.365 147.194V158.707Z" fill="#FBCBB5"/>
<path d="M149.464 126.499C149.464 142.475 136.474 155.424 120.446 155.424C96.8152 154.404 91.4277 142.475 91.4277 126.499V109.435C91.4277 93.4589 104.418 80.5098 120.446 80.5098C136.474 80.5098 149.464 93.4589 149.464 109.435V126.499Z" fill="#FBCBB5"/>
<path d="M90.3253 108.195C92.7802 93.959 119.459 84.0201 126.263 99.3411C128.696 104.814 126.459 112.355 135.64 114.809C144.428 117.161 147.19 116.629 148.178 118.145C148.178 119.468 155.092 129.37 155.092 129.37C155.092 129.37 181.84 74.7676 122.874 74.7677C114.153 74.6094 99.9991 77.5977 94.6073 85.1847C90.6503 90.7478 90.0226 98.4253 89.4397 105.13" fill="#111111"/>
<path d="M100.01 135H120C120 135 120 144 109.057 144C109.057 144 100 143.554 100 135H100.01Z" fill="#E49F7F"/>
<path d="M99.337 122.202C99.0031 123.536 97.6356 124.346 96.2999 123.997C94.9642 123.663 94.1533 122.298 94.4872 120.964C94.8211 119.63 96.1886 118.82 97.5243 119.153C98.86 119.487 99.6709 120.852 99.337 122.186V122.202Z" fill="#111111" stroke="#111111" stroke-miterlimit="10"/>
<path d="M124.337 122.202C124.003 123.536 122.636 124.346 121.3 123.997C119.964 123.663 119.153 122.298 119.487 120.964C119.821 119.63 121.189 118.82 122.524 119.153C123.86 119.487 124.671 120.852 124.337 122.186V122.202Z" fill="#111111" stroke="#111111" stroke-miterlimit="10"/>
<path d="M143.186 113.909C144.344 119.425 123.177 110.388 118.903 106.789C113.47 102.226 111.041 91.3065 111.727 84.3442C111.727 84.3442 135.549 77.5165 143.186 113.909Z" fill="#111111"/>
<path d="M155.527 127.035C155.527 131.89 151.905 135.836 147.44 135.836C142.975 135.836 139.342 131.901 139.342 127.035C139.342 122.17 142.963 118.234 147.44 118.234C151.916 118.234 155.527 122.17 155.527 127.035Z" fill="#FBCBB5"/>
<path d="M61.1436 146.28C64.8472 150.012 66.9763 155.781 65.5569 160.466C63.9712 165.715 54.0135 175.703 49.7444 179.379C44.8542 183.598 31.6475 192.502 31.7806 182.247C31.8139 180.254 31.7362 173.843 33.1113 171.351C20.8804 167.619 31.7252 137.931 53.692 142.471C56.3976 143.025 59.0478 144.176 61.1436 146.291V146.28Z" fill="#FBCBB5"/>
<path d="M44.8944 171.587C42.1524 168.617 42.4152 164.056 45.4999 161.406L59.5756 148.827C62.649 146.177 67.3675 146.442 70.1095 149.413C72.8516 152.394 72.5774 156.955 69.504 159.594L55.4283 172.173C52.355 174.823 47.6364 174.558 44.8944 171.587Z" fill="#FBCBB5"/>
<path d="M66.9853 232.52C67.3708 242.927 60.1366 251.652 50.8274 251.993C41.5181 252.345 32.4584 239.144 32.0615 228.737L29 168.59L62.6198 166L66.9966 232.52H66.9853Z" fill="#2DA860"/>
<path d="M59.1439 142.396C59.1439 142.396 68.0481 153.612 54.4126 160.539C40.777 167.466 32.2672 170.563 30.1534 160.857C28.0396 151.15 48.2903 133.598 59.1439 142.396Z" fill="#FBCBB5"/>
</g>
</g>
<defs>
<clipPath id="clip0_2355_23250">
<rect width="240" height="290" fill="white"/>
</clipPath>
</defs>
</svg>
