<svg width="1040" height="473" viewBox="0 0 1040 473" fill="none" xmlns="http://www.w3.org/2000/svg">
<rect y="233" width="1040" height="240" rx="120" fill="#EFF2F9"/>
<g clip-path="url(#clip0_16_43625)">
<path d="M238.83 68.8522H366.11C367.795 68.8522 369.165 70.2285 369.165 71.9218V156.129C369.165 157.822 367.795 159.199 366.11 159.199H238.83C237.145 159.199 235.775 157.822 235.775 156.129V71.915C235.775 70.2217 237.145 68.8455 238.83 68.8455V68.8522Z" fill="#181334"/>
<path d="M365.318 71.3821H239.616V156.649H365.318V71.3821Z" fill="#F1F1F1"/>
<path d="M365.318 71.3821H239.616V156.649H365.318V71.3821Z" stroke="black" stroke-width="0.7" stroke-linecap="round" stroke-linejoin="round"/>
<path d="M238.83 68.8522H366.11C367.795 68.8522 369.165 70.2285 369.165 71.9218V156.129C369.165 157.822 367.795 159.199 366.11 159.199H238.83C237.145 159.199 235.775 157.822 235.775 156.129V71.915C235.775 70.2217 237.145 68.8455 238.83 68.8455V68.8522Z" stroke="black" stroke-width="0.7" stroke-linecap="round" stroke-linejoin="round"/>
<path d="M217.8 86.9188L217.457 86.939C216.396 85.5088 217.209 83.5591 218.981 83.35C219.371 83.3028 220.029 83.3163 220.848 83.377C220.553 82.419 221.103 80.7594 223.165 80.6245C225.125 80.4963 233.244 81.8186 239.717 85.0298L239.851 84.8342C239.146 83.0127 239.079 81.1102 240.731 80.1995C242.436 79.2617 245.552 82.1424 248.083 85.3401C250.447 88.2748 252.596 92.7341 253.919 94.0766C253.341 95.4866 250.836 98.3875 247.976 100.951C242.658 105.727 239.361 106.638 239.361 106.638C237.125 103.892 234.801 101.639 233.492 100.546C230.974 98.4549 227.234 96.6469 224.246 96.3231C221.439 96.0195 218.847 95.264 219.095 93.0444C219.156 92.4845 219.532 92.073 220.109 91.7761L220.076 91.6952C218.599 91.7289 216.309 91.061 216.242 89.226C216.215 88.3895 216.497 87.3505 217.806 86.912L217.8 86.9188Z" fill="#FFE8E0"/>
<path d="M239.932 85.0433C239.146 83.1544 239.012 81.144 240.731 80.1995C242.994 78.9582 247.754 84.4429 250.326 88.4772L253.892 94.198C252.979 96.9168 243.396 105.154 239.448 106.665" stroke="black" stroke-width="0.7" stroke-linecap="round" stroke-linejoin="round"/>
<path d="M242.483 86.595C235.809 82.2504 225.414 80.4829 223.165 80.6246C221.097 80.7595 220.553 82.4326 220.848 83.3838" stroke="black" stroke-width="0.7" stroke-linecap="round" stroke-linejoin="round"/>
<path d="M239.368 106.645C237.132 103.899 234.808 101.646 233.499 100.553C230.981 98.4617 227.241 96.6537 224.252 96.3299C221.446 96.0263 218.854 95.2707 219.102 93.0512C219.465 89.7927 230.155 91.6007 231.901 91.9448" stroke="black" stroke-width="0.7" stroke-linecap="round" stroke-linejoin="round"/>
<path d="M232.928 88.7066C230.356 87.6879 223.353 86.8784 219.599 86.7165C216.732 86.595 216.195 88.1062 216.235 89.2328C216.309 91.1218 218.733 91.7762 220.203 91.702" stroke="black" stroke-width="0.7" stroke-linecap="round" stroke-linejoin="round"/>
<path d="M235.01 84.5037C233.909 86.224 232.095 90.9531 231.813 94.1306" stroke="black" stroke-width="0.7" stroke-linecap="round" stroke-linejoin="round"/>
<path d="M234.143 85.9608C231.484 84.706 221.17 83.0937 218.981 83.35C217.209 83.5592 216.396 85.5088 217.457 86.939" stroke="black" stroke-width="0.7" stroke-linecap="round" stroke-linejoin="round"/>
<path d="M299.445 53.8889C301.023 53.3357 302.856 52.2428 304.925 52.2361C306.986 52.2361 308.954 52.2968 310.216 52.9107C311.472 53.5246 313.023 54.4286 314.252 55.8858C315.48 57.343 316.528 58.2808 317.334 58.4427C318.139 58.6046 319.543 58.5034 320.805 58.1796C322.061 57.8557 323.901 57.7208 325.257 58.0446C326.614 58.3685 328.098 58.6248 329.481 59.4276C330.871 60.2372 332.321 61.3976 333.772 61.6539C335.222 61.9103 337.606 61.2289 338.929 61.0333C340.251 60.8376 342.863 60.4126 344.475 60.8983C346.087 61.3841 348.893 62.5444 349.927 64.3862C350.962 66.2279 350.868 67.82 350.35 69.0816C349.833 70.3431 348.517 72.3535 346.033 72.9405C343.548 73.5274 341.326 73.3385 340.265 73.0147C339.197 72.6909 336.424 71.2067 334.973 71.1729C333.523 71.146 331.623 71.5372 329.749 72.4412C327.883 73.352 325.271 73.6826 322.88 72.9675C320.49 72.2591 316.877 70.9368 315.588 70.3566C314.299 69.7765 313.17 68.8657 312.425 68.8724C311.68 68.8724 307.651 68.6228 307.651 68.6228L299.445 53.8889Z" fill="#181334"/>
<path d="M335.376 156.527C333.295 152.398 331.052 145.456 329.145 137.381C327.486 130.345 325.331 121.649 323.491 116.812L287.157 118.404C286.593 121.858 285.344 137.476 284.814 142.488C284.162 148.641 283.947 152.034 284.458 156.601" fill="white"/>
<path d="M349.827 112.568C345.341 100.54 339.862 89.4555 334.181 83.8763C329.004 78.7963 320.167 75.7605 310.948 74.6676L311.008 74.9037L298.982 74.5124H298.095L298.27 74.391C289.971 75.0184 284.72 77.2042 278.434 81.225C271.404 85.718 266.751 94.3398 262.178 100.027C258.538 96.4109 254.57 92.6397 252.717 91.4321C249.05 95.3045 240.321 103.872 237.763 106.665C245.76 118.33 251.568 121.736 254.711 124.793C257.853 127.849 263.245 129.434 267.885 127.268C272.411 125.157 279.22 117.581 282.154 113.486L282.356 113.54L282.067 117.925C282.067 117.925 293.905 119.099 302.655 118.768C309.605 118.512 321.752 117.54 324.203 116.211C323.86 113.918 322.967 109.93 322.611 108.372L322.813 108.224C324.277 111.017 325.727 113.864 326.828 116.164C328.561 119.787 338.989 146.819 338.989 146.819L358.945 137.995C358.945 137.995 353.869 123.383 349.833 112.562L349.827 112.568Z" fill="#FFCB81"/>
<path d="M280.953 84.9827L279.281 87.4383" stroke="white" stroke-width="0.7" stroke-linecap="round" stroke-linejoin="round"/>
<path d="M288.749 80.0242L289.783 82.8171" stroke="white" stroke-width="0.7" stroke-linecap="round" stroke-linejoin="round"/>
<path d="M288.487 92.4508L289.527 95.2438" stroke="white" stroke-width="0.7" stroke-linecap="round" stroke-linejoin="round"/>
<path d="M297.283 100.101L295.678 102.611" stroke="white" stroke-width="0.7" stroke-linecap="round" stroke-linejoin="round"/>
<path d="M307.046 104.257L308.114 107.036" stroke="white" stroke-width="0.7" stroke-linecap="round" stroke-linejoin="round"/>
<path d="M310.357 93.6382L311.425 96.4177" stroke="white" stroke-width="0.7" stroke-linecap="round" stroke-linejoin="round"/>
<path d="M317.32 79.9701L315.138 81.9872" stroke="white" stroke-width="0.7" stroke-linecap="round" stroke-linejoin="round"/>
<path d="M326.566 81.8861L327.238 84.7938" stroke="white" stroke-width="0.7" stroke-linecap="round" stroke-linejoin="round"/>
<path d="M321.591 92.7139L318.979 94.1306" stroke="white" stroke-width="0.7" stroke-linecap="round" stroke-linejoin="round"/>
<path d="M337.176 95.0751L334.564 96.4918" stroke="white" stroke-width="0.7" stroke-linecap="round" stroke-linejoin="round"/>
<path d="M329.494 107.077L327.298 105.073" stroke="white" stroke-width="0.7" stroke-linecap="round" stroke-linejoin="round"/>
<path d="M343.481 112.656L341.285 110.652" stroke="white" stroke-width="0.7" stroke-linecap="round" stroke-linejoin="round"/>
<path d="M337.653 121.892L334.732 121.359" stroke="white" stroke-width="0.7" stroke-linecap="round" stroke-linejoin="round"/>
<path d="M346.073 126.654L346.946 123.801" stroke="white" stroke-width="0.7" stroke-linecap="round" stroke-linejoin="round"/>
<path d="M353.258 135.189L352.029 132.47" stroke="white" stroke-width="0.7" stroke-linecap="round" stroke-linejoin="round"/>
<path d="M316.326 108.79L317.199 105.937" stroke="white" stroke-width="0.7" stroke-linecap="round" stroke-linejoin="round"/>
<path d="M311.25 113.83L314.164 114.403" stroke="white" stroke-width="0.7" stroke-linecap="round" stroke-linejoin="round"/>
<path d="M344.697 137.442L341.776 136.909" stroke="white" stroke-width="0.7" stroke-linecap="round" stroke-linejoin="round"/>
<path d="M289.037 106.058L287.432 108.568" stroke="white" stroke-width="0.7" stroke-linecap="round" stroke-linejoin="round"/>
<path d="M296.242 114.201L293.462 113.169" stroke="white" stroke-width="0.7" stroke-linecap="round" stroke-linejoin="round"/>
<path d="M277.669 100.371L274.889 99.332" stroke="white" stroke-width="0.7" stroke-linecap="round" stroke-linejoin="round"/>
<path d="M267.859 102.091L268.04 99.1161" stroke="white" stroke-width="0.7" stroke-linecap="round" stroke-linejoin="round"/>
<path d="M275.44 113.776L275.621 110.801" stroke="white" stroke-width="0.7" stroke-linecap="round" stroke-linejoin="round"/>
<path d="M265.119 112.116L262.245 111.388" stroke="white" stroke-width="0.7" stroke-linecap="round" stroke-linejoin="round"/>
<path d="M254.006 105.748L256.061 103.602" stroke="white" stroke-width="0.7" stroke-linecap="round" stroke-linejoin="round"/>
<path d="M244.8 107.853L246.055 105.147" stroke="white" stroke-width="0.7" stroke-linecap="round" stroke-linejoin="round"/>
<path d="M267.362 124.023L264.481 123.295" stroke="white" stroke-width="0.7" stroke-linecap="round" stroke-linejoin="round"/>
<path d="M253.737 119.861L253.126 116.947" stroke="white" stroke-width="0.7" stroke-linecap="round" stroke-linejoin="round"/>
<path d="M298.216 75.4231L295.859 87.3775L303.662 80.2197L308.886 89.4217L311.068 76.4418" fill="#F1F1F1"/>
<path d="M298.028 85.2525L302.245 98.6641L307.557 87.1684L303.749 79.0526L298.028 85.2525Z" fill="#F1F1F1"/>
<path d="M299.767 53.7676C298.995 54.3815 297.223 55.9736 296.262 58.3753C295.295 60.777 295.302 62.8818 295.591 63.9815C295.886 65.0811 296.336 66.3764 297.27 67.2467C298.21 68.1237 298.881 68.4475 298.881 68.4475L298.243 75.4434C298.243 75.4434 300.184 77.8046 301.507 78.1622C302.829 78.5197 305.025 78.8031 306.12 78.513C307.214 78.2162 310.531 77.1165 311.116 76.4351C310.954 75.1736 310.518 65.4859 310.518 65.4859C310.518 65.4859 311.485 65.6478 312.096 65.1283C312.707 64.6089 313.513 63.7319 313.318 62.531C313.123 61.3302 312.378 60.3924 311.317 60.298C310.256 60.2035 309.316 60.6893 309.316 60.6893L308.631 55.6026C308.631 55.6026 306.375 55.9331 304.085 55.4811C301.795 55.0291 300.795 54.5771 299.761 53.7743L299.767 53.7676Z" fill="#FFE7DF"/>
<path d="M299.667 53.8484C301.621 52.4047 307.523 51.4333 310.968 53.1536C314.413 54.8739 315.594 58.0919 317.474 58.4562C319.355 58.8137 322.571 57.2013 326.311 58.2065C330.051 59.2117 331.153 60.8983 333.308 61.519C335.464 62.1396 339.553 60.4733 343.669 60.8241C346.973 61.1074 350.726 63.8464 350.753 66.6259C350.78 69.4594 349.108 72.5154 344.938 73.1091C339.848 73.831 338.176 71.5844 335.242 71.2201C332.301 70.8558 330.931 72.313 327.668 73.1631C324.397 74.0131 316.38 71.2201 314.144 69.6415C313.311 69.0478 312.029 68.7105 310.619 68.5554" stroke="black" stroke-width="0.7" stroke-linecap="round" stroke-linejoin="round"/>
<path d="M309.289 60.4801L309.35 60.5273C309.746 60.3317 310.269 60.2238 310.719 60.2238C312.156 60.2238 313.325 61.3909 313.331 62.8346C313.331 64.2783 312.17 65.4521 310.726 65.4521" stroke="black" stroke-width="0.7" stroke-linecap="round" stroke-linejoin="round"/>
<path d="M309.188 66.1469C305.388 69.3919 301.07 69.8507 298.001 67.8268C294.657 65.614 294.644 60.109 297.699 55.9331C298.283 55.1302 298.948 54.4286 299.66 53.835" stroke="black" stroke-width="0.7" stroke-linecap="round" stroke-linejoin="round"/>
<path d="M341.158 151.865L335.672 155.542L346.778 173.764L373.765 154.436L363.149 137.806L341.158 151.865Z" fill="white"/>
<path d="M342.071 145.544C341.655 146.023 340.117 147.858 339.902 148.499C339.687 149.14 339.325 149.916 339.707 150.725C340.09 151.528 340.762 152.277 341.48 152.344C342.198 152.412 343.306 152.27 344.408 151.501C345.502 150.725 346.55 149.855 347.235 150.105C347.913 150.347 349.444 151.009 350.303 152.803C351.17 154.591 351.814 157.768 352.157 158.511C352.492 159.253 352.996 160.339 353.567 160.534C354.137 160.73 355.588 160.595 356.38 159.813C356.642 160.305 357.696 160.953 358.408 160.818C359.12 160.69 359.744 160.433 360.275 159.867C361.222 159.725 361.92 159.698 362.457 159.361C363.001 159.023 364.29 158.045 364.505 157.033C365.224 156.932 365.653 156.891 366.123 156.365C366.593 155.839 367.144 155.367 367.151 154.294C367.151 153.215 366.62 149.747 365.418 148.155C364.223 146.556 361.342 141.982 360.161 140.822C358.979 139.661 358.193 138.494 358.193 138.494" fill="#FFE7DF"/>
<path d="M340.929 152.149L335.672 155.542L346.778 173.764L373.765 154.436L363.149 137.806L359.543 140.107" stroke="black" stroke-width="0.7" stroke-linecap="round" stroke-linejoin="round"/>
<path d="M342.024 145.659C340.386 147.366 338.465 149.808 340.298 151.623C343.152 154.449 345.516 149.113 347.866 150.267C350.209 151.42 351.042 154.598 351.66 156.885C352.278 159.178 353.137 161.324 354.97 160.629C356.803 159.934 357.448 158.564 356.904 155.616C356.293 152.304 355.386 150.604 354.648 149.531" stroke="black" stroke-width="0.7" stroke-linecap="round" stroke-linejoin="round"/>
<path d="M356.36 159.88C357.166 160.717 358.207 161.074 359.321 160.561C360.429 160.049 361.779 157.964 361.06 154.652C360.335 151.346 359.308 149.68 358.563 148.405" stroke="black" stroke-width="0.7" stroke-linecap="round" stroke-linejoin="round"/>
<path d="M360.476 159.779C361.873 159.61 363.438 159.124 364.243 157.586C365.076 155.987 363.532 149.592 361.578 147.062" stroke="black" stroke-width="0.7" stroke-linecap="round" stroke-linejoin="round"/>
<path d="M364.626 156.945C365.902 156.918 367.104 155.684 367.07 154.335C367.03 152.749 366.641 150.395 365.466 148.27C364.29 146.145 361.443 142.421 359.154 139.587C358.838 139.196 358.522 138.791 358.207 138.366" stroke="black" stroke-width="0.7" stroke-linecap="round" stroke-linejoin="round"/>
<path d="M298.263 74.391C289.964 75.0184 284.713 77.2042 278.428 81.225C271.377 85.7315 266.724 94.387 262.131 100.074" stroke="black" stroke-width="0.7" stroke-linecap="round" stroke-linejoin="round"/>
<path d="M316.629 96.8291C317.495 98.2728 323.625 109.492 326.822 116.164C328.554 119.787 338.982 146.819 338.982 146.819L358.939 137.995C358.939 137.995 353.862 123.383 349.827 112.561C345.341 100.533 339.862 89.4486 334.181 83.8695C329.004 78.7895 320.167 75.7537 310.948 74.6608" stroke="black" stroke-width="0.7" stroke-linecap="round" stroke-linejoin="round"/>
<path d="M269.752 107.745C269.752 107.745 256.605 93.9619 252.71 91.4253C249.044 95.2977 240.314 103.865 237.756 106.658C245.753 118.323 251.562 121.73 254.704 124.786C257.847 127.842 263.239 129.427 267.879 127.262C272.512 125.096 279.543 117.21 282.349 113.189" stroke="black" stroke-width="0.7" stroke-linecap="round" stroke-linejoin="round"/>
<path d="M283.605 94.0631L282.054 117.918C282.054 117.918 293.892 119.092 302.641 118.761C309.591 118.505 321.738 117.533 324.189 116.204C323.76 113.31 322.45 107.718 322.45 107.718" stroke="black" stroke-width="0.7" stroke-linecap="round" stroke-linejoin="round"/>
<path d="M287.15 118.404C286.586 121.858 285.337 137.476 284.807 142.488C284.155 148.641 283.941 152.034 284.451 156.601" stroke="black" stroke-width="0.7" stroke-linecap="round" stroke-linejoin="round"/>
<path d="M323.484 116.812C325.324 121.642 327.48 130.345 329.138 137.381C331.045 145.45 333.288 152.398 335.37 156.527" stroke="black" stroke-width="0.7" stroke-linecap="round" stroke-linejoin="round"/>
<path d="M303.3 134.683C303.38 136.43 304.542 151.305 305.079 156.601" stroke="black" stroke-width="0.7" stroke-linecap="round" stroke-linejoin="round"/>
<path d="M298.868 68.5622L298.216 75.4164C298.814 76.4351 301.204 78.5805 304.26 78.6344C307.315 78.6816 309.605 77.4943 311.062 76.4419L310.498 65.4994" stroke="black" stroke-width="0.7" stroke-linecap="round" stroke-linejoin="round"/>
<path d="M298.216 75.4231L295.859 87.3775L303.662 80.2197L308.886 89.4217L311.068 76.4418" stroke="black" stroke-width="0.7" stroke-linecap="round" stroke-linejoin="round"/>
<path d="M298.028 85.2524L302.245 98.6641L307.557 87.1684" stroke="black" stroke-width="0.7" stroke-linecap="round" stroke-linejoin="round"/>
<path d="M302.38 98.4819L301.701 118.701" stroke="black" stroke-width="0.7" stroke-linecap="round" stroke-linejoin="round"/>
<path d="M303.89 82.7496C303.877 83.0464 303.629 83.2826 303.326 83.2691C303.031 83.2556 302.796 82.9992 302.809 82.7024C302.823 82.4055 303.071 82.1694 303.373 82.1829C303.669 82.1964 303.904 82.446 303.89 82.7496Z" stroke="black" stroke-width="0.7" stroke-linecap="round" stroke-linejoin="round"/>
<path d="M303.676 87.5193C303.662 87.8161 303.414 88.0522 303.112 88.0387C302.816 88.0252 302.581 87.7756 302.595 87.472C302.608 87.1752 302.856 86.9391 303.159 86.9526C303.454 86.9661 303.689 87.2157 303.676 87.5193Z" stroke="black" stroke-width="0.7" stroke-linecap="round" stroke-linejoin="round"/>
<path d="M303.467 92.2889C303.454 92.5858 303.206 92.8219 302.903 92.8084C302.608 92.7949 302.373 92.5453 302.386 92.2417C302.4 91.9449 302.655 91.7087 302.95 91.7222C303.246 91.7357 303.481 91.9853 303.467 92.2889Z" stroke="black" stroke-width="0.7" stroke-linecap="round" stroke-linejoin="round"/>
<path d="M309.309 60.6353C309.222 59.9134 309.141 59.1916 309.054 58.5237C308.893 57.2419 308.745 56.1355 308.604 55.5553C306.61 56.1085 300.815 55.164 299.667 53.8282" stroke="black" stroke-width="0.7" stroke-linecap="round" stroke-linejoin="round"/>
<path d="M303.555 59.1781C303.36 59.5693 303.367 59.9741 303.582 60.0821C303.796 60.19 304.125 59.9674 304.327 59.5761C304.528 59.1848 304.515 58.78 304.3 58.6721C304.085 58.5641 303.756 58.7935 303.555 59.1781Z" fill="black"/>
<path d="M299.667 57.1812C299.472 57.5725 299.479 57.9772 299.694 58.0852C299.909 58.1931 300.244 57.9705 300.439 57.5792C300.64 57.1879 300.627 56.7831 300.412 56.6752C300.197 56.5605 299.868 56.7899 299.667 57.1812Z" fill="black"/>
<path d="M301.816 57.5994C301.507 58.328 300.815 59.2185 300.412 59.549C300.009 59.8729 299.747 60.3923 299.835 60.9118C299.922 61.4313 300.533 61.9845 300.533 61.9845" stroke="black" stroke-width="0.7" stroke-linecap="round" stroke-linejoin="round"/>
<path d="M301.91 63.6037C300.627 63.8128 298.868 63.5025 298.075 62.4771C298.196 63.8331 298.525 66.2685 299.647 66.4371C300.768 66.6058 302.004 64.6089 301.91 63.6037Z" stroke="black" stroke-width="0.7" stroke-linecap="round" stroke-linejoin="round"/>
<path d="M303.796 57.4308C304.595 57.2486 305.697 57.876 305.784 58.7463" stroke="black" stroke-width="0.7" stroke-linecap="round" stroke-linejoin="round"/>
</g>
<g clip-path="url(#clip1_16_43625)">
<path d="M852.294 1.21204H677.494C673.976 1.21204 671.125 4.05943 671.125 7.57187V272.672C671.125 276.184 673.976 279.031 677.494 279.031H852.294C855.812 279.031 858.663 276.184 858.663 272.672V7.57187C858.663 4.05943 855.812 1.21204 852.294 1.21204Z" fill="#181334"/>
<path d="M853.402 9.20508H676.386V271.03H853.402V9.20508Z" fill="#F1F1F1"/>
<path d="M853.402 9.20508H676.386V271.03H853.402V9.20508Z" stroke="black" stroke-width="0.7" stroke-linecap="round" stroke-linejoin="round"/>
<path d="M852.294 1.21204H677.494C673.976 1.21204 671.125 4.05943 671.125 7.57187V272.672C671.125 276.184 673.976 279.031 677.494 279.031H852.294C855.812 279.031 858.663 276.184 858.663 272.672V7.57187C858.663 4.05943 855.812 1.21204 852.294 1.21204Z" stroke="black" stroke-width="0.7" stroke-linecap="round" stroke-linejoin="round"/>
<path d="M789.917 95.996L803.035 93.1531L797.99 87.8993C795.637 86.3957 791.241 86.3785 789.917 95.996Z" fill="#181334"/>
<path d="M718.793 118.385C719.217 115.292 720.774 106.901 721.795 103.842C723.007 100.17 722.548 98.3982 722.271 96.7564C721.994 95.1146 720.316 94.4492 718.897 94.2591C717.486 94.069 715.799 96.2293 714.951 97.5859C714.389 98.4846 713.419 100.299 712.641 101.837C710.659 97.1884 708.756 92.9025 707.787 91.157C705.45 86.9661 703.763 84.4515 700.89 85.9291C698.026 87.3981 698.398 90.0768 699.575 92.5914C700.752 95.1059 702.906 100.299 702.906 100.299C702.906 100.299 699.67 95.5207 697.914 92.9025C696.149 90.2842 694.548 87.4672 691.321 89.3423C689.192 90.578 689.183 93.8962 690.481 96.2638C691.779 98.6401 693.96 102.442 695.932 105.467C695.932 105.467 691.537 100.256 690.239 98.6488C688.95 97.0415 686.821 94.5961 683.992 96.791C681.154 98.9858 682.841 102.053 684.537 104.283C686.224 106.512 689.408 111.662 689.408 111.662C689.408 111.662 686.06 108.837 684.277 107.636C682.503 106.443 680.436 106.123 678.714 108.344C676.992 110.565 678.965 112.751 680.704 114.367C682.443 115.974 685.194 118.86 687.046 121.28C688.889 123.699 690.325 128.409 690.325 128.409C690.325 128.409 698.58 125.626 704.698 123.094C710.815 120.563 717.702 118.99 718.784 118.394L718.793 118.385Z" fill="#FFE8E0"/>
<path d="M882.432 150.374L881.021 152.569L902.004 173.999C902.004 173.999 903.501 173.057 904.358 172.115C905.223 171.173 906.166 167.795 906.166 167.795L898.154 153.036L888.567 148.404" fill="#FFE8E0"/>
<path d="M888.402 142.165L886.066 136.877L914.845 124.961C914.845 124.961 919.768 138.199 922.995 143.185C926.491 148.586 931.726 154.176 936.796 156.587C927.884 162.705 908.658 174.302 908.658 174.302C908.658 174.302 897.868 163.396 894.71 156.043" fill="white"/>
<path d="M881.618 151.282C883.236 147.125 886.723 142.52 890.539 141.172C894.987 139.608 907.022 139.677 907.689 144.775C908.355 149.865 899.919 150.227 896.328 149.744C896.293 152.198 896.033 155.905 892.771 157.201" fill="#FFE8E0"/>
<path d="M881.618 151.282C883.236 147.125 886.723 142.52 890.539 141.172C894.987 139.608 907.022 139.677 907.689 144.775C908.355 149.865 899.919 150.227 896.328 149.744C896.293 152.198 896.033 155.905 892.771 157.201" stroke="black" stroke-width="0.7" stroke-linecap="round" stroke-linejoin="round"/>
<path d="M718.152 270.667C720.964 258.492 749.51 195.999 754.277 188.862L814.915 202.886C820.504 215.139 826.025 261.766 826.207 271.116" fill="#181334"/>
<path d="M879.23 149.234L852.658 172.288L852.476 171.942C851.594 169.774 847.596 160.355 841.894 153.235C831.943 140.809 828.257 137.819 808.78 131.537L809.317 132.038L806.055 130.75L788.377 127.294L786.318 127.095L786.863 126.905C766.477 125.108 760.827 127.916 751.655 132.772C743.669 136.998 735.484 143.652 733.494 145.302L732.94 145.604L719.424 118.031L689.91 128.72C694.427 148.568 699.065 165.643 708.029 177.343C716.664 188.602 728.83 186.269 738.123 182.476C744.5 179.866 750.349 175.554 751.223 174.898L751.543 174.941L748.48 187.462L820.574 203.819L821.283 187.349L821.673 187.419C826.795 194.772 830.178 198.713 834.531 203.344C841.634 210.879 854.466 215.701 865.715 210.266C878.737 203.966 903.553 173.697 903.553 173.697L879.213 149.242L879.23 149.234Z" fill="#FFA3A2"/>
<path d="M808.045 137.534L796.174 151.766L794.088 137.905L783.61 148.37L785.384 131.39" fill="white"/>
<path d="M813.383 109.554L814.906 99.729L798.293 89.6276C793.863 91.1311 789.935 94.8986 787.841 100.317C784.769 108.249 784.458 115.931 789.796 119.163H789.424C789.424 119.163 786.941 126.611 785.392 131.39C786.811 134.008 789.217 136.41 794.625 137.888C798.492 138.951 805.328 138.139 808.062 137.249C808.252 132.617 809.637 123.276 810.069 120.45C810.762 120.347 811.333 120.234 811.757 120.096L811.895 119.197C813.79 118.61 815.391 117.08 815.789 115.119C816.239 112.881 815.218 110.695 813.392 109.554H813.383Z" fill="#FFE8E0" stroke="black" stroke-width="0.7" stroke-linecap="round" stroke-linejoin="round"/>
<path d="M809.966 121.522C814.595 119.569 817.251 116.614 819.362 111.809C821.828 106.201 821.941 99.5907 818.03 93.6889C815.019 89.1523 804.826 85.765 800.188 85.5576C796 85.3675 799.496 94.4407 801.399 98.0353C803.303 101.63 807.906 106.486 809.836 108.482" fill="#181334"/>
<path d="M820.522 98.1563C821.396 98.6489 822.365 99.0118 823.403 99.2278C828.751 100.308 833.968 96.8602 835.058 91.52C836.14 86.1798 832.688 80.9692 827.34 79.8805C821.993 78.8003 816.775 82.2481 815.694 87.5969C815.503 88.5561 815.391 90.0251 815.469 90.9497" fill="#181334"/>
<path d="M712.606 101.509C710.659 97.0156 708.799 92.963 707.787 91.157C705.45 86.9661 703.763 84.4515 700.89 85.9291C698.026 87.3981 698.398 90.0768 699.575 92.5914C700.752 95.1059 702.906 100.299 702.906 100.299C702.906 100.299 699.67 95.5207 697.914 92.9025C696.149 90.2842 694.548 87.4672 691.321 89.3423C689.192 90.578 689.183 93.8962 690.481 96.2638C691.779 98.6401 693.96 102.442 695.932 105.467C695.932 105.467 691.537 100.256 690.239 98.6488C688.95 97.0415 686.821 94.5961 683.992 96.791C681.154 98.9858 682.841 102.053 684.537 104.283C686.224 106.512 689.408 111.662 689.408 111.662C689.408 111.662 686.06 108.837 684.277 107.636C682.503 106.443 680.436 106.123 678.714 108.344C676.992 110.565 678.965 112.751 680.704 114.367C682.443 115.974 685.194 118.86 687.046 121.28C687.946 122.455 689.183 125.445 690.222 128.21" stroke="black" stroke-width="0.7" stroke-linecap="round" stroke-linejoin="round"/>
<path d="M687.366 114.402C688.681 112.915 698.537 102.382 705.485 98.9686" stroke="black" stroke-width="0.7" stroke-linecap="round" stroke-linejoin="round"/>
<path d="M718.836 118.178C719.052 114.289 722.358 102.174 722.686 99.418C723.05 96.2899 720.653 93.3433 717.642 94.5703C715.297 95.5208 712.035 102.607 710.711 105.588C707.233 103.998 701.228 107.757 699.93 114.885" fill="#FFE8E0"/>
<path d="M718.836 118.178C719.052 114.289 722.358 102.174 722.686 99.418C723.05 96.2899 720.653 93.3433 717.642 94.5703C715.297 95.5208 712.035 102.607 710.711 105.588C707.233 103.998 701.228 107.757 699.93 114.885" stroke="black" stroke-width="0.7" stroke-linecap="round" stroke-linejoin="round"/>
<path d="M736.591 153.036L719.433 118.031L689.919 128.72C694.436 148.568 699.073 165.643 708.038 177.343C716.673 188.602 728.839 186.269 738.131 182.476C745.045 179.65 751.361 174.803 751.361 174.803" stroke="black" stroke-width="0.7" stroke-linecap="round" stroke-linejoin="round"/>
<path d="M696.01 138.726L692.982 127.657" stroke="black" stroke-width="0.7" stroke-linecap="round" stroke-linejoin="round"/>
<path d="M701.816 136.575L698.788 125.505" stroke="black" stroke-width="0.7" stroke-linecap="round" stroke-linejoin="round"/>
<path d="M708.496 134.164L705.468 123.094" stroke="black" stroke-width="0.7" stroke-linecap="round" stroke-linejoin="round"/>
<path d="M714.224 132.176L711.187 121.107" stroke="black" stroke-width="0.7" stroke-linecap="round" stroke-linejoin="round"/>
<path d="M719.355 130.37L716.327 119.301" stroke="black" stroke-width="0.7" stroke-linecap="round" stroke-linejoin="round"/>
<path d="M786.863 126.905C766.478 125.108 760.827 127.916 751.656 132.772C742.484 137.629 733.035 145.691 733.035 145.691" stroke="black" stroke-width="0.7" stroke-linecap="round" stroke-linejoin="round"/>
<path d="M852.667 172.409C852.667 172.409 848.384 161.34 841.903 153.243C831.952 140.817 828.266 137.827 808.789 131.545" stroke="black" stroke-width="0.7" stroke-linecap="round" stroke-linejoin="round"/>
<path d="M849.776 174.794L879.23 149.234L903.57 173.688C903.57 173.688 878.754 203.958 865.732 210.257C854.492 215.692 841.651 210.879 834.548 203.336C830.126 198.643 826.717 194.66 821.465 187.09" stroke="black" stroke-width="0.7" stroke-linecap="round" stroke-linejoin="round"/>
<path d="M873.995 160.502L882.778 153.096" stroke="black" stroke-width="0.7" stroke-linecap="round" stroke-linejoin="round"/>
<path d="M878.399 164.857L887.173 157.451" stroke="black" stroke-width="0.7" stroke-linecap="round" stroke-linejoin="round"/>
<path d="M883.401 169.895L892.175 162.489" stroke="black" stroke-width="0.7" stroke-linecap="round" stroke-linejoin="round"/>
<path d="M887.615 174.241L896.389 166.836" stroke="black" stroke-width="0.7" stroke-linecap="round" stroke-linejoin="round"/>
<path d="M891.422 178.13L900.196 170.724" stroke="black" stroke-width="0.7" stroke-linecap="round" stroke-linejoin="round"/>
<path d="M822.278 164.84L820.6 203.811L748.506 187.462L757.747 149.631" stroke="black" stroke-width="0.7" stroke-linecap="round" stroke-linejoin="round"/>
<path d="M809.966 121.522C814.595 119.569 817.251 116.614 819.362 111.809C821.828 106.201 821.941 99.5907 818.03 93.6889C815.019 89.1523 804.826 85.765 800.188 85.5576C796 85.3675 799.496 94.4407 801.399 98.0353C803.303 101.63 807.906 106.486 809.836 108.482" stroke="black" stroke-width="0.7" stroke-linecap="round" stroke-linejoin="round"/>
<path d="M820.522 98.1563C821.396 98.6489 822.365 99.0118 823.403 99.2278C828.751 100.308 833.968 96.8602 835.058 91.52C836.14 86.1798 832.688 80.9692 827.34 79.8805C821.993 78.8003 816.775 82.2481 815.694 87.5969C815.503 88.5561 815.391 90.0251 815.469 90.9497" stroke="black" stroke-width="0.7" stroke-linecap="round" stroke-linejoin="round"/>
<path d="M881.618 151.282C883.236 147.125 886.723 142.52 890.539 141.172C894.987 139.608 907.022 139.677 907.689 144.775C908.355 149.865 899.919 150.227 896.328 149.744C896.293 152.198 896.033 155.905 892.771 157.201" stroke="black" stroke-width="0.7" stroke-linecap="round" stroke-linejoin="round"/>
<path d="M888.402 142.165L886.066 136.877L914.845 124.961C914.845 124.961 919.768 138.199 922.995 143.185C926.491 148.586 931.726 154.176 936.796 156.587C927.884 162.705 908.658 174.302 908.658 174.302C908.658 174.302 897.868 163.396 894.71 156.043" stroke="black" stroke-width="0.7" stroke-linecap="round" stroke-linejoin="round"/>
<path d="M902.99 172.789C903.864 172.53 904.92 171.45 905.283 170.811" stroke="black" stroke-width="0.7" stroke-linecap="round" stroke-linejoin="round"/>
<path d="M905.508 141.707L914.81 137.81" stroke="black" stroke-width="0.7" stroke-linecap="round" stroke-linejoin="round"/>
<path d="M901.069 153.943L918.695 144.974" stroke="black" stroke-width="0.7" stroke-linecap="round" stroke-linejoin="round"/>
<path d="M905.058 160.355L922.684 151.385" stroke="black" stroke-width="0.7" stroke-linecap="round" stroke-linejoin="round"/>
<path d="M814.924 202.886C820.513 215.139 825.913 261.188 826.103 270.529" stroke="black" stroke-width="0.7" stroke-linecap="round" stroke-linejoin="round"/>
<path d="M754.286 188.862C749.518 195.999 720.973 258.492 718.161 270.667" stroke="black" stroke-width="0.7" stroke-linecap="round" stroke-linejoin="round"/>
<path d="M798.285 89.6276C793.855 91.1311 789.926 94.8986 787.832 100.317C784.501 108.923 784.397 117.244 791.259 119.889C794.322 121.072 797.826 121.176 801.261 120.036" stroke="black" stroke-width="0.7" stroke-linecap="round" stroke-linejoin="round"/>
<path d="M809.126 119.362C812.008 119.949 815.192 118.005 815.78 115.127C816.369 112.25 814.5 109.433 811.61 108.854C810.788 108.69 809.983 108.716 809.222 108.914" fill="#FFE8E0"/>
<path d="M809.126 119.362C812.008 119.949 815.192 118.005 815.78 115.127C816.369 112.25 814.5 109.433 811.61 108.854C810.788 108.69 809.983 108.716 809.222 108.914" stroke="black" stroke-width="0.7" stroke-linecap="round" stroke-linejoin="round"/>
<path d="M810.191 119.629C810.191 119.629 808.279 131.753 808.054 137.249C805.319 138.139 798.493 138.951 794.616 137.888C789.2 136.402 786.794 134.008 785.384 131.39C786.924 126.611 789.416 119.154 789.416 119.154" stroke="black" stroke-width="0.7" stroke-linecap="round" stroke-linejoin="round"/>
<path d="M808.045 137.534L796.174 151.766L794.088 137.905L783.61 148.37L785.384 131.39" stroke="black" stroke-width="0.7" stroke-linecap="round" stroke-linejoin="round"/>
<path d="M800.465 101.639C800.136 102.399 800.214 103.16 800.629 103.341C801.045 103.522 801.65 103.056 801.988 102.287C802.317 101.526 802.247 100.766 801.823 100.585C801.408 100.412 800.802 100.878 800.474 101.639H800.465Z" fill="black"/>
<path d="M792.834 98.3551C792.505 99.1155 792.583 99.8759 792.998 100.057C793.413 100.239 794.019 99.7722 794.348 99.0118C794.677 98.2514 794.599 97.491 794.183 97.3095C793.768 97.1281 793.162 97.6033 792.834 98.3637V98.3551Z" fill="black"/>
<path d="M796.961 98.8822C796.459 100.299 795.265 102.071 794.538 102.736C793.811 103.401 793.379 104.421 793.612 105.389C793.846 106.357 795.066 107.325 795.066 107.325" stroke="black" stroke-width="0.7" stroke-linecap="round" stroke-linejoin="round"/>
<path d="M790.125 108.681C791.795 110.064 795.265 111.014 797.567 110.893C796.693 113.408 795.066 115.49 792.704 114.885C790.35 114.281 789.996 110.885 790.125 108.681Z" stroke="black" stroke-width="0.7" stroke-linecap="round" stroke-linejoin="round"/>
<path d="M800.699 98.3118C802.196 97.8711 804.367 98.9167 804.636 100.55" stroke="black" stroke-width="0.7" stroke-linecap="round" stroke-linejoin="round"/>
<path d="M796.805 96.7651C796.13 95.3479 793.906 94.3974 792.496 95.2788" stroke="black" stroke-width="0.7" stroke-linecap="round" stroke-linejoin="round"/>
<path d="M797.99 87.8993C795.637 86.3957 791.241 86.3785 789.917 95.996" stroke="black" stroke-width="0.7" stroke-linecap="round" stroke-linejoin="round"/>
<path d="M132.308 170.975H326.724C329.294 170.975 331.388 173.057 331.388 175.632V303.486C331.388 306.052 329.303 308.143 326.724 308.143H132.299C129.729 308.143 127.635 306.061 127.635 303.486V175.632C127.635 173.066 129.721 170.975 132.299 170.975H132.308Z" fill="#181334"/>
<path d="M325.521 174.829H133.51V304.289H325.521V174.829Z" fill="#F1F1F1"/>
<path d="M325.521 174.829H133.51V304.289H325.521V174.829Z" stroke="black" stroke-width="0.7" stroke-linecap="round" stroke-linejoin="round"/>
<path d="M132.308 170.975H326.724C329.294 170.975 331.388 173.057 331.388 175.632V303.486C331.388 306.052 329.303 308.143 326.724 308.143H132.299C129.729 308.143 127.635 306.061 127.635 303.486V175.632C127.635 173.066 129.721 170.975 132.299 170.975H132.308Z" stroke="black" stroke-width="0.7" stroke-linecap="round" stroke-linejoin="round"/>
<path d="M184.171 189.769C182.285 187.306 178.971 184.334 170.95 185.69C162.116 187.177 159.165 195.031 158.594 199.68C157.686 207.094 161.787 210.845 164.694 212.53" fill="#181334"/>
<path d="M305.11 218.656L305.568 218.682C306.97 216.798 305.897 214.249 303.552 213.973C303.033 213.912 302.168 213.929 301.086 214.007C301.475 212.754 300.749 210.568 298.023 210.395C295.436 210.231 284.707 211.968 276.149 216.176L275.967 215.917C276.902 213.523 276.988 211.026 274.808 209.834C272.558 208.607 268.44 212.383 265.091 216.582C261.967 220.436 259.129 226.286 257.382 228.058C258.152 229.915 261.457 233.718 265.23 237.079C272.256 243.352 276.616 244.553 276.616 244.553C279.567 240.941 282.639 237.986 284.369 236.552C287.692 233.804 292.632 231.428 296.587 231.004C300.29 230.598 303.725 229.613 303.396 226.701C303.31 225.958 302.817 225.422 302.055 225.042L302.098 224.93C304.054 224.973 307.074 224.1 307.169 221.689C307.212 220.592 306.831 219.226 305.101 218.647L305.11 218.656Z" fill="#FFE8E0"/>
<path d="M271.788 241.849L267.142 238.401C265.316 236.941 263.309 234.962 261.526 233.372C259.311 231.402 257.433 228.248 257.433 228.248L249.43 240.026L244.005 247.742C244.005 247.742 240.327 244.536 237.766 241.806C235.196 239.084 228.265 233.899 222.312 230.417C216.359 226.934 205.388 223.858 200.239 222.795C195.1 221.724 187.183 222.199 185.634 222.13C184.085 222.069 168.588 224.791 168.588 224.791L165.395 225.56L164.712 224.506C161.9 224.921 147.701 228.446 136.893 234.055C128.63 238.349 118.481 247.863 112.259 255.856C106.047 263.858 102.465 276.888 105.259 284.173C108.054 291.457 116.482 293.479 122.184 294.119C125.359 294.473 129.175 294.101 133.043 293.358L133.83 304.108C133.83 304.108 228.785 304.246 232.064 304.056C231.822 303.002 223.775 282.125 223.775 282.125L218.877 271.444C226.422 279.325 233.907 282.687 242.707 282.678C251.567 282.678 261.794 277.199 267.185 267.349C270.637 261.058 273.796 251.967 276.66 244.683C273.294 243.18 274.843 243.715 271.788 241.84V241.849Z" fill="#AEB7EF"/>
<path d="M270.975 253.678C271.018 254.759 270.179 255.675 269.089 255.726C268.007 255.77 267.09 254.931 267.038 253.851C266.995 252.771 267.834 251.855 268.916 251.803C270.006 251.76 270.923 252.598 270.966 253.678H270.975Z" fill="#7D79E7"/>
<path d="M142.57 287.413C142.613 288.493 141.774 289.409 140.692 289.461C139.602 289.504 138.693 288.666 138.641 287.586C138.598 286.506 139.437 285.581 140.519 285.538C141.609 285.495 142.526 286.333 142.57 287.413Z" fill="#7D79E7"/>
<path d="M154.208 286.523C156.847 285.227 162.514 282.807 167.887 281.416C173.408 279.982 180.451 277.96 183.903 276.387C187.356 274.814 190.038 272.222 191.552 270.278C192.85 268.619 192.686 265.715 190.627 264.774L190.462 264.678C190.635 264.35 190.748 264.048 190.791 263.771C191.198 261.092 190.488 258.828 188.169 258.12L187.84 258.63C188.135 257.221 187.953 256.011 187.538 255.26C186.612 253.583 185.184 253.004 183.125 253.272L183.021 253.488C182.934 252.702 182.623 251.933 182.104 251.129C180.434 248.554 177.362 250.455 174.455 252.754C173.814 253.264 173.122 253.808 172.387 254.352C169.229 256.409 168.355 257.022 166.693 257.42C165.032 257.809 162.947 257.921 162.055 256.798C161.173 255.674 161.13 254.836 159.892 251.553C159.174 249.652 157.34 248.183 154.649 248.848C151.958 249.522 151.309 252.149 151.499 255.035C151.69 257.93 152.754 261.784 152.01 262.423C151.266 263.063 147.753 263.961 147.052 264.056C146.861 265.612 148.263 272.767 148.86 274.547C149.457 276.327 152.174 285.089 154.225 286.523H154.208Z" fill="#FFE8E0"/>
<path d="M187.485 193.563C186.534 192.145 185.435 190.901 184.258 189.838H184.249L184.241 189.821C184.241 189.821 184.223 189.838 184.197 189.864C184.215 189.855 184.232 189.838 184.241 189.821L182.796 190.702L180.935 191.402L177.171 192.189C173.927 192.655 170.483 192.698 168.752 192.145C168.476 193.13 168.138 195.014 167.775 197.183C167.602 198.246 167.42 199.387 167.238 200.519L167.134 200.588C166.46 200.225 165.577 200.009 164.807 199.974C162.332 199.87 160.247 201.789 160.134 204.252C160.031 206.723 162.375 208.797 164.85 208.9C164.945 208.9 164.816 227.003 164.816 227.003C164.859 227.038 164.902 227.073 164.945 227.099H164.772L174.965 242.903L179.3 231.117L187.425 240.147L187.079 226.113H186.966L184.587 215.036L186.127 213.834C191.829 209.972 192.435 200.882 187.477 193.545L187.485 193.563Z" fill="#FFE8E0"/>
<path d="M165.041 227.332L175 242.886L179.291 230.978L187.46 240.129L187.053 226.131C187.053 226.131 185.435 228.135 183.886 228.939C182.337 229.743 180.122 230.711 179.577 230.797C179.032 230.883 176.202 231.782 172.309 230.659C168.424 229.535 165.041 227.332 165.041 227.332Z" fill="#7D79E7"/>
<path d="M186.24 222.069C215.892 220.687 234.703 237.986 243.909 247.803C247.699 242.92 259.64 224.619 262.149 220.713C265.541 215.424 271.831 208.209 274.825 209.842C277.092 211.078 276.911 213.722 275.881 216.202" stroke="black" stroke-width="0.7" stroke-linecap="round" stroke-linejoin="round"/>
<path d="M272.506 218.233C281.323 212.521 295.055 210.205 298.032 210.395C300.757 210.568 301.484 212.763 301.086 214.016" stroke="black" stroke-width="0.7" stroke-linecap="round" stroke-linejoin="round"/>
<path d="M219.379 272.006C226.976 280.008 233.829 282.704 242.698 282.695C251.558 282.695 261.786 277.217 267.176 267.366C270.516 261.265 273.804 251.786 276.616 244.571C279.567 240.959 282.639 238.004 284.369 236.569C287.692 233.821 292.632 231.445 296.587 231.022C300.29 230.615 303.725 229.63 303.396 226.718C302.912 222.441 288.799 224.809 286.489 225.267" stroke="black" stroke-width="0.7" stroke-linecap="round" stroke-linejoin="round"/>
<path d="M257.434 228.222C258.636 231.791 271.295 242.609 276.521 244.597" stroke="black" stroke-width="0.7" stroke-linecap="round" stroke-linejoin="round"/>
<path d="M248.564 241.607C250.356 247.327 262.677 256.953 271.07 258.716" stroke="black" stroke-width="0.7" stroke-linecap="round" stroke-linejoin="round"/>
<path d="M285.131 221.007C288.531 219.667 297.781 218.604 302.739 218.397C306.529 218.233 307.238 220.22 307.178 221.698C307.082 224.178 303.881 225.033 301.934 224.938" stroke="black" stroke-width="0.7" stroke-linecap="round" stroke-linejoin="round"/>
<path d="M282.379 215.485C283.833 217.74 286.23 223.953 286.602 228.127" stroke="black" stroke-width="0.7" stroke-linecap="round" stroke-linejoin="round"/>
<path d="M283.521 217.395C287.034 215.744 300.662 213.627 303.552 213.964C305.897 214.241 306.97 216.798 305.568 218.673" stroke="black" stroke-width="0.7" stroke-linecap="round" stroke-linejoin="round"/>
<path d="M126.441 267.184C132.662 266.294 141.038 265.111 144.923 264.108C147.675 263.4 151.811 262.57 152.287 261.533C152.763 260.496 148.938 249.28 155.159 248.381C161.381 247.491 159.416 256.392 163.457 257.126C167.489 257.861 171.478 254.646 174.377 252.348C177.284 250.049 180.356 248.148 182.026 250.723C183.696 253.298 183.246 255.623 179.819 258.82C175.978 262.406 173.252 263.702 171.322 264.359" stroke="black" stroke-width="0.7" stroke-linecap="round" stroke-linejoin="round"/>
<path d="M183.047 252.866C185.106 252.607 186.525 253.186 187.459 254.854C188.385 256.53 188.16 260.401 184.171 263.884C180.191 267.366 177.353 268.498 175.225 269.397" stroke="black" stroke-width="0.7" stroke-linecap="round" stroke-linejoin="round"/>
<path d="M188.091 257.722C190.41 258.44 191.12 260.704 190.713 263.374C190.28 266.156 182.553 272.404 177.734 273.76" stroke="black" stroke-width="0.7" stroke-linecap="round" stroke-linejoin="round"/>
<path d="M190.548 264.376C192.608 265.318 192.772 268.213 191.474 269.88C189.951 271.833 187.278 274.417 183.825 275.99C180.373 277.562 173.33 279.584 167.809 281.019C162.436 282.41 155.938 285.037 154.129 286.126C152.321 287.214 133.277 294.991 122.097 293.73C116.395 293.09 107.968 291.068 105.173 283.784C102.378 276.5 105.952 263.469 112.173 255.467C118.394 247.474 128.544 237.952 136.807 233.666C136.807 233.666 139.325 232.318 141.505 231.402C143.686 230.477 146.714 229.337 146.714 229.337C154.9 226.278 162.626 224.411 164.625 224.117" stroke="black" stroke-width="0.7" stroke-linecap="round" stroke-linejoin="round"/>
<path d="M147.008 263.573C146.835 267.426 149.197 279.619 154.207 285.927" stroke="black" stroke-width="0.7" stroke-linecap="round" stroke-linejoin="round"/>
<path d="M270.897 253.272C270.94 254.352 270.101 255.268 269.011 255.32C267.929 255.363 267.012 254.525 266.96 253.445C266.917 252.365 267.756 251.449 268.838 251.397C269.928 251.354 270.845 252.192 270.888 253.272H270.897Z" stroke="black" stroke-width="0.7" stroke-linecap="round" stroke-linejoin="round"/>
<path d="M142.5 287.007C142.544 288.087 141.704 289.003 140.623 289.055C139.533 289.098 138.624 288.26 138.572 287.18C138.529 286.1 139.368 285.175 140.45 285.132C141.54 285.089 142.457 285.927 142.5 287.007Z" stroke="black" stroke-width="0.7" stroke-linecap="round" stroke-linejoin="round"/>
<path d="M132.559 266.364C130.612 275.082 134.479 288.606 137.967 291.742" stroke="black" stroke-width="0.7" stroke-linecap="round" stroke-linejoin="round"/>
<path d="M133.13 293.047L133.597 303.762" stroke="black" stroke-width="0.7" stroke-linecap="round" stroke-linejoin="round"/>
<path d="M231.259 300.375C231.259 300.375 210.64 249.401 204.886 240.466" stroke="black" stroke-width="0.7" stroke-linecap="round" stroke-linejoin="round"/>
<path d="M186.136 213.852C191.838 209.989 192.443 200.899 187.485 193.563C186.534 192.145 185.435 190.901 184.258 189.838H184.249L184.241 189.821M184.241 189.821C184.241 189.821 184.223 189.838 184.197 189.864C184.215 189.855 184.232 189.838 184.241 189.821ZM184.241 189.821L182.796 190.702L180.935 191.402L177.171 192.189C173.927 192.655 170.483 192.698 168.752 192.145C168.476 193.13 168.138 195.014 167.775 197.183C167.602 198.246 167.42 199.387 167.238 200.519L167.134 200.588C166.46 200.225 165.577 200.009 164.807 199.974C162.332 199.87 160.247 201.789 160.134 204.252C160.031 206.723 162.375 208.797 164.85 208.9C164.945 208.9 164.816 227.003 164.816 227.003C167.256 228.905 171.106 231.091 176.358 231.229C181.61 231.359 185.876 227.85 186.975 226.157L184.587 215.044" stroke="black" stroke-width="0.7" stroke-linecap="round" stroke-linejoin="round"/>
<path d="M164.781 227.124L174.974 242.92L179.3 231.134L187.434 240.164L187.088 226.131" stroke="black" stroke-width="0.7" stroke-linecap="round" stroke-linejoin="round"/>
<path d="M182.337 277.113C182.727 284.441 183.246 300.211 183.263 304.065" stroke="black" stroke-width="0.7" stroke-linecap="round" stroke-linejoin="round"/>
<path d="M179.352 231.186C179.447 232.482 180.001 240.155 180.676 250.023" stroke="black" stroke-width="0.7" stroke-linecap="round" stroke-linejoin="round"/>
<path d="M167.23 208.105C172.24 215.044 180.581 217.619 186.136 213.852C191.838 209.989 192.444 200.899 187.486 193.562C186.534 192.145 185.435 190.901 184.258 189.838" stroke="black" stroke-width="0.7" stroke-linecap="round" stroke-linejoin="round"/>
<path d="M184.171 189.769C182.285 187.306 178.971 184.334 170.95 185.69C162.116 187.177 159.165 195.031 158.594 199.68C157.686 207.094 161.787 210.845 164.694 212.53" stroke="black" stroke-width="0.7" stroke-linecap="round" stroke-linejoin="round"/>
<path d="M177.474 198.583C177.691 199.3 177.544 199.974 177.154 200.095C176.756 200.216 176.263 199.732 176.047 199.015C175.83 198.298 175.978 197.624 176.367 197.503C176.756 197.382 177.258 197.866 177.474 198.583Z" fill="black"/>
<path d="M184.656 196.414C184.872 197.131 184.725 197.805 184.336 197.926C183.938 198.047 183.445 197.563 183.228 196.846C183.012 196.129 183.159 195.455 183.549 195.334C183.947 195.213 184.44 195.697 184.656 196.414Z" fill="black"/>
<path d="M180.892 196.466C181.195 197.788 182.095 199.499 182.675 200.173C183.254 200.847 183.548 201.797 183.237 202.644C182.925 203.491 181.731 204.234 181.731 204.234" stroke="black" stroke-width="0.7" stroke-linecap="round" stroke-linejoin="round"/>
<path d="M182.735 211.57C185.08 211.389 185.824 208.814 186.041 205.954C183.644 206.593 180.866 207.034 178.296 207.103C178.374 208.788 180.087 211.769 182.735 211.562V211.57Z" stroke="black" stroke-width="0.7" stroke-linecap="round" stroke-linejoin="round"/>
<path d="M177.604 195.567C176.298 195.014 174.247 195.731 173.84 197.174" stroke="black" stroke-width="0.7" stroke-linecap="round" stroke-linejoin="round"/>
<path d="M181.299 194.522C182.164 193.407 184.31 193.035 185.374 194.098" stroke="black" stroke-width="0.7" stroke-linecap="round" stroke-linejoin="round"/>
<path d="M260.739 326.315L279.282 349.681C280.9 351.712 283.85 352.057 285.884 350.441L313.667 328.441L318.539 324.587L383.797 272.914L399.692 235.498L358.358 243.041L294.155 293.877L289.284 297.731L261.5 319.731C259.467 321.338 259.121 324.293 260.739 326.315Z" fill="#FFA3A2"/>
<path d="M260.739 326.315L279.281 349.681C280.899 351.711 283.85 352.057 285.883 350.441L302.168 337.549L277.785 306.83L261.509 319.722C259.476 321.329 259.129 324.285 260.747 326.307L260.739 326.315Z" fill="#181334"/>
<path d="M282.467 303.116L274.548 309.387L298.933 340.1L306.852 333.83L282.467 303.116Z" fill="#E7E7E7"/>
<path d="M399.7 235.506L358.739 242.981L362.382 254.352L371.579 257.074L372.574 266.752C372.574 266.752 380.344 270.84 383.857 272.801L399.7 235.498V235.506Z" fill="white"/>
<path d="M381.089 238.902L391.965 253.713L399.7 235.506L381.089 238.902Z" fill="#181334"/>
<path d="M260.739 326.315L279.282 349.681C280.9 351.712 283.85 352.057 285.884 350.441L313.667 328.441L318.539 324.587L383.797 272.914L399.692 235.498L358.358 243.041L294.155 293.877L289.284 297.731L261.5 319.731C259.467 321.338 259.121 324.293 260.739 326.315Z" stroke="black" stroke-width="0.7" stroke-linecap="round" stroke-linejoin="round"/>
<path d="M298.594 339.925L274.488 309.552" stroke="black" stroke-width="0.7" stroke-linecap="round" stroke-linejoin="round"/>
<path d="M306.659 333.539L282.552 303.166" stroke="black" stroke-width="0.7" stroke-linecap="round" stroke-linejoin="round"/>
<path d="M300.039 324.293L372.635 266.822" stroke="black" stroke-width="0.7" stroke-linecap="round" stroke-linejoin="round"/>
<path d="M289.864 311.651L362.26 254.335" stroke="black" stroke-width="0.7" stroke-linecap="round" stroke-linejoin="round"/>
<path d="M383.806 272.913L372.574 266.752L371.579 257.074L362.382 254.352L358.817 243.033" stroke="black" stroke-width="0.7" stroke-linecap="round" stroke-linejoin="round"/>
<path d="M392.112 253.35L380.786 239.092" stroke="black" stroke-width="0.7" stroke-linecap="round" stroke-linejoin="round"/>
<path d="M702.863 155.827C705.58 155.265 706.584 153.433 707.207 152.077L734.454 92.7988C735.986 89.4634 734.523 85.5144 731.183 83.9849L637.345 40.7363C634.006 39.2069 630.051 40.6672 628.52 44.0027L601.273 103.28C599.741 106.625 601.203 110.565 604.543 112.094L662.404 138.622C662.404 138.622 698.598 156.708 702.863 155.818V155.827Z" fill="#AEB7EF"/>
<path d="M663.642 66.6432L645.725 105.351L656.061 110.123L673.978 71.4148L663.642 66.6432Z" fill="white"/>
<path d="M617.401 115.896L614.641 116.735L604.543 112.103C601.203 110.574 599.741 106.625 601.273 103.289L628.52 44.0113C630.051 40.6759 634.006 39.2155 637.345 40.745L651.423 47.1999L620.213 115.093L617.401 115.905V115.896Z" fill="white"/>
<path d="M631.375 40.9437C630.164 41.6091 629.143 42.646 628.52 44.0027L601.273 103.28C599.741 106.625 601.203 110.565 604.543 112.094L698.381 155.343C701.721 156.872 705.675 155.412 707.207 152.068L734.454 92.7902C735.986 89.4547 734.523 85.5058 731.183 83.9763L651.397 47.1653" stroke="black" stroke-width="0.7" stroke-linecap="round" stroke-linejoin="round"/>
<path d="M605.582 112.578L612.547 115.775C615.887 117.305 619.841 115.845 621.373 112.509L651.242 47.5369" stroke="black" stroke-width="0.7" stroke-linecap="round" stroke-linejoin="round"/>
<path d="M709.093 146.771L624.081 107.705" stroke="black" stroke-width="0.7" stroke-linecap="round" stroke-linejoin="round"/>
<path d="M704.36 155.144C705.58 154.479 706.592 153.433 707.215 152.077L734.463 92.7988C735.994 89.4634 734.532 85.5144 731.192 83.9849L637.354 40.7363C634.014 39.2069 630.06 40.6672 628.528 44.0027L601.281 103.28C599.75 106.625 601.212 110.565 604.552 112.094L662.412 138.622" stroke="black" stroke-width="0.7" stroke-linecap="round" stroke-linejoin="round"/>
<path d="M613.628 110.375L644.034 44.2273" stroke="black" stroke-width="0.7" stroke-linecap="round" stroke-linejoin="round"/>
<path d="M607.528 107.575L637.934 41.4276" stroke="black" stroke-width="0.7" stroke-linecap="round" stroke-linejoin="round"/>
<path d="M493.772 452.639C493.175 458.04 489.913 465.42 487.066 471.719C490.216 472.566 645.635 471.719 645.635 471.719C645.635 471.719 641.118 455.37 636.125 444.456C634.654 441.242 632.197 435.288 629.099 429.265C624.072 419.501 617.946 409.287 615.921 408.259" fill="#181334"/>
<path d="M480.109 274.478L479.486 306.078L516.113 293.35L510.411 273.415" fill="#FFE7DF"/>
<path d="M476.51 306.804L479.833 296.288L513.578 285.607L520.786 290.662" fill="white"/>
<path d="M513.439 232.767C524.099 242.117 531.264 255.225 520.171 267.841C509.078 280.457 483.648 280.474 472.988 271.125C462.328 261.775 470.479 246.61 481.572 233.994C492.664 221.378 502.779 223.417 513.439 232.758V232.767Z" fill="#FFE7DF"/>
<path d="M498.133 233.934L494.239 241.469C494.239 241.469 495.667 245.081 496.117 248.494C496.567 251.907 494.49 253.894 489.307 257.904C494.767 260.177 498.868 252.253 498.868 252.253C498.868 252.253 491.332 271.185 495.26 277.761C503.696 277.554 508.923 275.808 513.232 273.337C516.667 271.375 522.594 266.199 525.882 259.01" fill="#181334"/>
<path d="M525.371 241.477C527.569 233.147 521.279 207.302 504.242 205.746C489.844 204.424 486.287 217.498 489.705 223.357C493.123 229.216 516.909 253.989 525.778 259.261C530.399 258.275 534.162 254.793 534.128 249.09C534.102 244.061 528.01 239.905 525.371 241.477Z" fill="#181334"/>
<path d="M479.573 236.37C477.834 237.995 474.84 239.593 473.334 240C471.829 240.397 470.47 241.503 470.09 243.033C469.7 244.571 471.5 248.044 471.5 248.044" fill="#FFE7DF"/>
<path d="M356.48 309.163C357.623 307.988 361.88 303.486 362.529 301.852C363.186 300.219 364.233 298.275 363.351 296.149C362.477 294.024 360.833 291.993 358.99 291.716C357.147 291.44 354.239 291.63 351.28 293.471C348.33 295.311 345.492 297.402 343.761 296.676C342.031 295.951 338.163 294.032 336.181 289.288C334.2 284.553 332.971 276.266 332.201 274.296C331.431 272.326 330.289 269.457 328.835 268.869C327.382 268.282 323.609 268.42 321.437 270.33C320.84 269.025 318.192 267.21 316.332 267.452C314.463 267.686 312.811 268.247 311.348 269.63C308.882 269.863 307.065 269.837 305.612 270.615C304.158 271.401 300.662 273.743 299.961 276.327C298.084 276.482 296.968 276.534 295.67 277.822C294.363 279.1 292.875 280.241 292.71 283.015C292.546 285.789 293.437 294.801 296.31 299.087C299.183 303.373 306.001 315.592 308.908 318.746C311.815 321.908 314.005 325.676 314.005 325.676" fill="#FFE7DF"/>
<path d="M675.746 155.352C675.746 155.352 677.425 152.128 680.141 148.793C682.858 145.466 688.941 132.876 691.554 128.426C694.176 123.984 694.531 114.929 694.202 112.172C693.873 109.416 692.316 108.361 690.94 107.16C689.564 105.951 688.457 105.959 686.57 105.916C685.722 103.376 682.088 101.25 680.591 100.55C679.094 99.85 677.286 99.9796 674.811 99.9018C673.271 98.597 671.584 98.139 669.706 98.018C667.829 97.8884 665.302 99.8586 664.783 101.198C662.507 99.4093 658.726 99.4957 657.307 100.17C655.888 100.844 654.919 103.773 654.261 105.786C653.612 107.8 652.868 116.138 651.164 120.986C649.459 125.834 645.721 127.977 644.034 128.806C642.347 129.636 639.396 127.717 636.333 126.058C633.279 124.399 630.363 124.373 628.537 124.762C626.711 125.16 625.188 127.277 624.444 129.446C623.692 131.623 624.851 133.507 625.604 135.097C626.348 136.687 630.856 140.938 632.076 142.044C634.525 144.265 636.03 148.145 636.454 149.467C636.878 150.789 637.025 153.226 637.025 153.226" fill="#FFE7DF"/>
<path d="M675.331 271.738C685.221 246.869 686.172 175.831 683.265 157.814C671.878 152.811 644.994 151.264 629.117 154.384C623.622 192.534 617.946 224.541 602.536 244.13C594.757 254.024 580.991 262.44 566.61 269.993C546.103 280.76 524.238 289.176 515.75 292.658L497.121 299.303C489.87 301.973 481.018 305.136 472.253 308.472C457.535 314.071 443.016 320.172 429.388 325.987C407.661 335.268 390.208 347.702 378.951 354.243C374.175 343.088 363.524 318.962 358.367 309.56C352.82 309.241 346.72 309.604 337.514 312.974C329.692 315.842 320.615 320.128 311.989 327.378C313.641 336.019 341.935 410.592 353.469 416.459C365.003 422.326 388.997 415.232 401.829 412.605C412.273 410.471 453.018 400.43 467.857 396.757L466.724 397.181L468.593 461.885L629.247 407.058L603.254 370.886C630.579 351.245 665.449 296.547 675.313 271.73L675.331 271.738Z" fill="white"/>
<path d="M539.008 283.058C528.893 287.43 520.353 290.775 515.75 292.667L497.121 299.312C489.87 301.982 473.499 307.858 464.353 311.712C466.196 327.318 473.36 373.427 473.248 395.28L466.733 397.189L468.601 461.894L629.03 407.291L603.263 370.895C582.886 342.751 547.237 294.335 538.999 283.058H539.008Z" fill="#7D79E9"/>
<path d="M495.078 277.77C486.46 277.908 478.05 275.575 472.988 271.133C462.328 261.784 470.479 246.619 481.572 234.003C484.436 230.754 487.724 228.161 491.219 226.269" stroke="black" stroke-width="0.7" stroke-linecap="round" stroke-linejoin="round"/>
<path d="M480.135 275.402L479.789 296.21" stroke="black" stroke-width="0.7" stroke-linecap="round" stroke-linejoin="round"/>
<path d="M476.51 306.804L479.833 296.288L513.578 285.607L520.786 290.662" stroke="black" stroke-width="0.7" stroke-linecap="round" stroke-linejoin="round"/>
<path d="M525.371 241.477C527.569 233.147 521.279 207.302 504.242 205.746C489.844 204.424 486.287 217.498 489.705 223.357C493.123 229.216 516.909 253.989 525.778 259.261C530.399 258.275 534.162 254.793 534.128 249.09C534.102 244.061 528.01 239.905 525.371 241.477Z" stroke="black" stroke-width="0.7" stroke-linecap="round" stroke-linejoin="round"/>
<path d="M498.133 233.934L494.239 241.469C494.239 241.469 495.667 245.081 496.117 248.494C496.567 251.907 494.49 253.894 489.307 257.904C494.767 260.177 498.868 252.253 498.868 252.253C498.868 252.253 491.332 271.185 495.26 277.761C503.696 277.554 508.923 275.808 513.232 273.337C516.667 271.375 522.594 266.199 525.882 259.01" stroke="black" stroke-width="0.7" stroke-linecap="round" stroke-linejoin="round"/>
<path d="M497.622 254.664C499.483 254.715 501.343 255.372 502.883 256.651C506.552 259.693 507.062 265.128 504.017 268.792C500.971 272.456 495.528 272.965 491.86 269.915" fill="#FFE7DF"/>
<path d="M497.622 254.664C499.483 254.715 501.343 255.372 502.883 256.651C506.552 259.693 507.062 265.128 504.017 268.792C500.971 272.456 495.528 272.965 491.86 269.915" stroke="black" stroke-width="0.7" stroke-linecap="round" stroke-linejoin="round"/>
<path d="M510.697 274.737L513.647 285.59" stroke="black" stroke-width="0.7" stroke-linecap="round" stroke-linejoin="round"/>
<path d="M539.38 283.093L602.934 370.471L629.489 407.507L468.61 461.894L466.741 397.189" stroke="black" stroke-width="0.7" stroke-linecap="round" stroke-linejoin="round"/>
<path d="M356.134 309.327C360.625 305.171 366.448 298.699 361.94 293.739C354.949 286.039 348.044 299.468 342.126 296.149C336.207 292.831 334.511 284.536 333.239 278.547C331.967 272.551 330.046 266.891 325.192 268.412C320.338 269.932 318.469 273.38 319.456 281.053C320.563 289.677 322.683 294.197 324.44 297.065" stroke="black" stroke-width="0.7" stroke-linecap="round" stroke-linejoin="round"/>
<path d="M321.48 270.14C319.508 267.867 316.86 266.804 313.901 267.962C310.95 269.12 307.16 274.305 308.553 282.937C309.964 291.57 312.386 296.011 314.134 299.398" stroke="black" stroke-width="0.7" stroke-linecap="round" stroke-linejoin="round"/>
<path d="M310.794 269.82C307.143 270.053 303.016 271.082 300.714 274.927C298.317 278.928 301.415 295.64 306.122 302.44" stroke="black" stroke-width="0.7" stroke-linecap="round" stroke-linejoin="round"/>
<path d="M299.615 276.517C296.31 276.405 293.013 279.403 292.909 282.885C292.788 286.973 293.463 293.099 296.215 298.742C298.966 304.393 305.802 314.391 311.331 322.029C312.084 323.075 313.226 324.751 313.97 325.883" stroke="black" stroke-width="0.7" stroke-linecap="round" stroke-linejoin="round"/>
<path d="M493.711 453.478C492.907 459.137 488.468 468.072 487.127 471.719" stroke="black" stroke-width="0.7" stroke-linecap="round" stroke-linejoin="round"/>
<path d="M618.076 411.456C623.899 417.15 640.893 449.909 645.643 471.71" stroke="black" stroke-width="0.7" stroke-linecap="round" stroke-linejoin="round"/>
<path d="M485.059 240.613C484.263 241.788 482.991 242.307 482.212 241.771C481.442 241.235 481.459 239.853 482.255 238.677C483.051 237.502 484.323 236.984 485.093 237.52C485.864 238.055 485.846 239.438 485.05 240.613H485.059Z" fill="black"/>
<path d="M469.917 256.037C472.106 258.63 476.345 259.191 478.76 256.997" stroke="black" stroke-width="0.7" stroke-linecap="round" stroke-linejoin="round"/>
<path d="M479.573 236.37C477.834 237.995 474.84 239.593 473.335 240C471.829 240.397 470.471 241.503 470.09 243.033C469.7 244.571 471.483 248.053 471.483 248.053" stroke="black" stroke-width="0.7" stroke-linecap="round" stroke-linejoin="round"/>
<path d="M663.347 128.089C664.939 125.116 666.773 120.476 667.379 111.809C667.915 104.084 665.847 100.757 660.907 99.5216C655.966 98.2859 654.391 104.049 653.465 110.116C652.548 116.164 651.345 124.546 645.635 128.21C639.915 131.865 632.232 118.869 625.708 126.966C621.502 132.176 627.516 137.499 631.912 141.759C633.028 142.839 634.931 145.509 635.554 146.866C636.177 148.223 636.991 150.711 637.017 153.096" stroke="black" stroke-width="0.7" stroke-linecap="round" stroke-linejoin="round"/>
<path d="M664.714 101.017C666.548 98.6316 669.126 97.4132 672.146 98.3983C675.157 99.3834 679.25 104.335 678.367 113.036C677.476 121.738 675.313 126.318 673.764 129.8" stroke="black" stroke-width="0.7" stroke-linecap="round" stroke-linejoin="round"/>
<path d="M675.365 100.066C679.025 100.083 683.205 100.861 685.731 104.568C688.353 108.422 686.25 125.289 681.95 132.349" stroke="black" stroke-width="0.7" stroke-linecap="round" stroke-linejoin="round"/>
<path d="M686.916 106.097C690.213 105.795 693.674 108.595 693.986 112.06C694.349 116.138 694.038 122.291 691.624 128.08C689.209 133.879 682.971 144.265 677.9 152.224C677.208 153.312 676.559 154.28 675.876 155.455" stroke="black" stroke-width="0.7" stroke-linecap="round" stroke-linejoin="round"/>
<path d="M486.409 232.758C487.473 232.81 490.069 235.558 490.199 236.828" stroke="black" stroke-width="0.7" stroke-linecap="round" stroke-linejoin="round"/>
<path d="M464.241 312.014C465.841 318.694 473.153 371.413 473.317 395.418C473.317 395.418 414.678 409.987 401.846 412.614C389.014 415.241 365.021 422.344 353.487 416.468C341.953 410.592 313.65 336.028 312.006 327.387C320.633 320.128 329.709 315.851 337.531 312.982C346.746 309.604 352.838 309.249 358.384 309.569C363.541 318.97 374.192 343.096 378.969 354.252C390.226 347.711 407.67 335.276 429.405 325.996C451.106 316.732 479.443 305.473 491.756 301.334C515.404 293.384 583.673 268.135 602.545 244.139C617.955 224.549 623.631 192.543 629.125 154.392C645.003 151.273 671.887 152.82 683.274 157.823C686.172 175.831 685.221 246.878 675.339 271.747C665.449 296.616 630.683 351.34 603.323 370.869" stroke="black" stroke-width="0.7" stroke-linecap="round" stroke-linejoin="round"/>
<path d="M626.893 170.43C633.486 170.076 670.918 170.966 684.468 174.794" stroke="black" stroke-width="0.7" stroke-linecap="round" stroke-linejoin="round"/>
<path d="M316.92 342.301C320.485 340.253 347.577 326.194 364.337 322.099" stroke="black" stroke-width="0.7" stroke-linecap="round" stroke-linejoin="round"/>
<path d="M369.953 359.125L378.969 354.243" stroke="black" stroke-width="0.7" stroke-linecap="round" stroke-linejoin="round"/>
<path d="M717.449 323.216C720.115 330.612 716.017 338.663 708.308 341.219C700.598 343.776 692.205 339.846 689.54 332.45C686.896 325.055 690.993 316.983 698.703 314.447C706.413 311.891 714.806 315.821 717.471 323.216H717.449Z" fill="white" stroke="black" stroke-width="0.7" stroke-linecap="round" stroke-linejoin="round"/>
<path d="M719.112 349.516L711.316 339.88" stroke="black" stroke-width="0.7" stroke-linecap="round" stroke-linejoin="round"/>
<path d="M242.888 295L212.84 305.687L219.1 312.211L209.606 322.431L215.849 327.846L225.35 317.904L232.158 324.146L242.888 295Z" fill="white" stroke="black" stroke-width="0.7" stroke-linecap="round" stroke-linejoin="round"/>
</g>
<g clip-path="url(#clip2_16_43625)">
<path d="M709.35 472.38L734.86 439.21L752.72 453.24L773.77 423.9" stroke="black" stroke-width="0.7" stroke-linecap="round" stroke-linejoin="round"/>
<path d="M762.29 427.09L775.05 421.35L776.32 436.66" stroke="black" stroke-width="0.7" stroke-linecap="round" stroke-linejoin="round"/>
</g>
<defs>
<clipPath id="clip0_16_43625">
<rect width="158" height="122" fill="white" transform="translate(216 52)"/>
</clipPath>
<clipPath id="clip1_16_43625">
<rect width="835" height="473" fill="white" transform="translate(103)"/>
</clipPath>
<clipPath id="clip2_16_43625">
<rect width="67.67" height="51.73" fill="white" transform="translate(709 421)"/>
</clipPath>
</defs>
</svg>
