<svg width="101" height="74" viewBox="0 0 101 74" fill="none" xmlns="http://www.w3.org/2000/svg">
    <g clip-path="url(#0bmjbhg7ka)">
        <path d="M2.553 43.802 25.664 3.18h.004l.576-1.011a.308.308 0 0 1 .549 0l23.686 41.633a.367.367 0 0 1 0 .38.36.36 0 0 1-.121.13.282.282 0 0 1-.155.04H2.83a.282.282 0 0 1-.155-.04.36.36 0 0 1-.122-.13.367.367 0 0 1 0-.38z" fill="#fff" stroke="#F1F1F1" stroke-width="4"/>
        <path d="M72.42 35.78H37.523c-1.14 0-2.064.905-2.064 2.021V71.98c0 1.116.924 2.021 2.064 2.021H72.42c1.14 0 2.064-.905 2.064-2.021V37.8c0-1.116-.924-2.02-2.064-2.02z" fill="#E1E1E1"/>
        <path d="M98.5 29.681c0 5.408-4.383 9.792-9.788 9.792-5.406 0-9.79-4.384-9.79-9.792 0-5.408 4.384-9.79 9.79-9.79 5.405 0 9.788 4.382 9.788 9.79z" fill="#fff" stroke="#F1F1F1" stroke-width="4"/>
        <g clip-path="url(#6xohsfrk0b)">
            <path d="M42.776 51.23c0 1.177.473 2.348 1.423 3.238 1.88 1.765 4.904 1.744 6.751-.046a4.418 4.418 0 0 0 1.375-3.191h-9.549z" fill="#fff"/>
            <path d="M42.776 51.23c0 1.177.473 2.348 1.423 3.238a4.798 4.798 0 0 0 2.117 1.15 4.865 4.865 0 0 0 2.873-1.324 4.433 4.433 0 0 0 1.37-3.063h-7.783z" fill="#000"/>
            <path d="M58.431 51.23c0 1.177.473 2.348 1.423 3.238 1.88 1.765 4.903 1.744 6.75-.046a4.418 4.418 0 0 0 1.376-3.191H58.43z" fill="#fff"/>
            <path d="M58.431 51.23c0 1.177.473 2.348 1.423 3.238a4.799 4.799 0 0 0 2.116 1.15 4.865 4.865 0 0 0 2.873-1.324 4.433 4.433 0 0 0 1.37-3.063H58.43z" fill="#000"/>
            <path d="M52.763 62.022c1.23-1.253 3.405-1.217 4.855.077" stroke="#000" stroke-width="2" stroke-linecap="round" stroke-linejoin="round"/>
        </g>
    </g>
    <defs>
        <clipPath id="0bmjbhg7ka">
            <path fill="#fff" transform="translate(.5)" d="M0 0h100v74H0z"/>
        </clipPath>
        <clipPath id="6xohsfrk0b">
            <path fill="#fff" transform="translate(42 51)" d="M0 0h26v13H0z"/>
        </clipPath>
    </defs>
</svg>
