<svg width="84" height="64" viewBox="0 0 84 64" fill="none" xmlns="http://www.w3.org/2000/svg">
    <g clip-path="url(#qd3jijpvfa)">
        <path d="M11.08 39.3s11.86 9.87 17.62 13.08c0 0 13.19 13.63 21.84 10.31 0 0 5.15-3.13-1-7.54 0 0-5.94-4.49-2.33-5.43 0 0 8.65-2.22 15.3.55 0 0 7.77 9.7 12.08 10.42 0 0 6.98 1.22 7.87-2.55 0 0 1.37-2.24-1.88-5.1 0 0-5.97-4.45-6.65-6.21 0 0-2.55-5.87-2.77-11.64 0 0 1.93-17.12-5.15-27.91-.2-.3-.63-.34-.88-.08-1.54 1.57-6.22 6.51-7.05 9.37l-16.52-.55S35.97 6.44 33.6 5.08a.563.563 0 0 0-.62.06c-1.29 1.02-7.01 5.92-10.05 14.54 0 0-3.88 14.24-6.21 16.71 0 0-4.43.36-5.65 2.91h.01z" fill="#fff" stroke="#222" stroke-miterlimit="10"/>
        <path d="m63.6 16.16.83-2.16c.11-.29.5-.34.68-.08.52.75 1.32 2.09 1.32 3.16M30.59 15.42l1.23-1.79c.21-.3.66-.31.87-.01l1.55 2.13" stroke="#222" stroke-miterlimit="10" stroke-linecap="round"/>
        <path d="M40.71 31.51a5.34 5.34 0 1 0 0-10.68 5.34 5.34 0 0 0 0 10.68zM57.35 30.9a5.14 5.14 0 1 0 0-10.28 5.14 5.14 0 0 0 0 10.28zM47.7 28.19c.88-.29 2.31-.58 3.25.13.15.11.23.29.25.48.06.59-.84 2.11-1.98 2.19 0 0-.67.12-1.89-1.75a.706.706 0 0 1 .38-1.05h-.01z" fill="#222"/>
        <path d="m49.21 30.27.23 2.55s.72 1.94 2.44.78c0 0 .68-.43.67-1.48M49.44 32.82s-.68 1.66-2.52 1.15c0 0-1.28-.24-1.26-1.28M67.51 28.77s7.42-.98 12.64-3.46M67.51 32.12s9.68 1.42 15.65-2.68M67.51 35.76s5.43 1.55 11.53 1.22M26.71 25.52s-7.26-1.82-12.16-4.88M26.33 28.85s-9.78.3-15.24-4.45M25.91 32.46s-5.57.92-11.59-.11" stroke="#222" stroke-miterlimit="10" stroke-linecap="round"/>
        <path d="M44.39 25.31s4.24-2.91 10.39 0" stroke="#222" stroke-miterlimit="10"/>
        <path d="M6.18.5S6.4 6.01.84 7.13c0 0 5.24 2.39 5.35 6.63 0 0 .11-5.62 4.9-6.63 0 0-4.9-.39-4.9-6.63h-.01z" fill="#fff" stroke="#222" stroke-linecap="round" stroke-linejoin="round"/>
    </g>
    <defs>
        <clipPath id="qd3jijpvfa">
            <path fill="#fff" transform="translate(.34)" d="M0 0h83.32v63.72H0z"/>
        </clipPath>
    </defs>
</svg>
