<svg width="72" height="72" viewBox="0 0 72 72" fill="none" xmlns="http://www.w3.org/2000/svg">
<circle cx="50.6263" cy="22.5" r="16.5" fill="url(#paint0_linear_2047_70766)"/>
<mask id="path-2-inside-1_2047_70766" fill="white">
<path fill-rule="evenodd" clip-rule="evenodd" d="M4.12677 39.002V38.7578L4.12871 38.7579C4.25905 30.5862 10.924 24.002 19.1268 24.002H43.1268C51.411 24.002 58.1268 30.7177 58.1268 39.002C58.1268 47.2862 51.411 54.002 43.1268 54.002H23.9024L7.33774 66.6044C6.02106 67.6062 4.12677 66.6672 4.12677 65.0127V39.002Z"/>
</mask>
<path d="M4.12677 38.7578L4.31618 35.7638L1.12677 35.562V38.7578H4.12677ZM4.12871 38.7579L3.93931 41.752L7.07818 41.9505L7.12833 38.8058L4.12871 38.7579ZM23.9024 54.002V51.002H22.8909L22.0859 51.6144L23.9024 54.002ZM7.33774 66.6044L5.52128 64.2169H5.52128L7.33774 66.6044ZM7.12677 39.002V38.7578H1.12677V39.002H7.12677ZM3.93736 41.7518L3.93931 41.752L4.31812 35.7639L4.31618 35.7638L3.93736 41.7518ZM7.12833 38.8058C7.23258 32.2694 12.5648 27.002 19.1268 27.002V21.002C9.28316 21.002 1.28551 28.903 1.1291 38.7101L7.12833 38.8058ZM19.1268 27.002H43.1268V21.002H19.1268V27.002ZM43.1268 27.002C49.7542 27.002 55.1268 32.3745 55.1268 39.002H61.1268C61.1268 29.0608 53.0679 21.002 43.1268 21.002V27.002ZM55.1268 39.002C55.1268 45.6294 49.7542 51.002 43.1268 51.002V57.002C53.0679 57.002 61.1268 48.9431 61.1268 39.002H55.1268ZM43.1268 51.002H23.9024V57.002H43.1268V51.002ZM22.0859 51.6144L5.52128 64.2169L9.15421 68.992L25.7189 56.3895L22.0859 51.6144ZM5.52128 64.2169C6.17963 63.716 7.12677 64.1855 7.12677 65.0127H1.12677C1.12677 69.1488 5.86248 71.4964 9.15421 68.992L5.52128 64.2169ZM7.12677 65.0127V39.002H1.12677V65.0127H7.12677Z" fill="#111111" mask="url(#path-2-inside-1_2047_70766)"/>
<defs>
<linearGradient id="paint0_linear_2047_70766" x1="50.6263" y1="6" x2="50.6263" y2="39" gradientUnits="userSpaceOnUse">
<stop stop-color="#2699FE"/>
<stop offset="1" stop-color="#3DEB82"/>
</linearGradient>
</defs>
</svg>
