<svg width="68" height="68" viewBox="0 0 68 68" fill="none" xmlns="http://www.w3.org/2000/svg">
<path d="M60.0977 53.8993C65.0197 47.5007 67.6652 39.2719 66.8808 30.4124C65.4503 14.6006 52.7609 1.7574 36.9646 0.173154C15.7541 -1.94944 -1.94957 15.7388 0.173023 36.9647C1.74189 52.638 14.4159 65.2813 30.0892 66.8348C38.9334 67.7115 47.1622 65.1428 53.5915 60.3132C53.9914 60.0056 54.5144 59.944 54.9912 60.0825C57.1753 60.7439 59.5286 60.7439 61.5743 60.4824C63.0047 60.2978 63.4508 58.4213 62.2203 57.6523C61.2667 57.0678 60.5592 56.3756 60.0516 55.7142C59.6363 55.1759 59.6824 54.4222 60.0977 53.8685V53.8993Z" fill="#FFB73E"/>
</svg>
