<svg width="71" height="64" viewBox="0 0 71 64" fill="none" xmlns="http://www.w3.org/2000/svg">
<g clip-path="url(#clip0_132_3060)">
<path d="M50.8575 61.03V19.2744C50.8575 9.26408 43.2309 0.727075 33.2434 0.0454919C22.2441 -0.711823 13 8.0868 13 18.9302V63.9973H47.884C49.5221 63.9973 50.8575 65.6359 50.8575 63.9973V61.03Z" fill="#D5D5D5"/>
<path d="M24.2011 28.0688C26.3945 28.0688 28.1727 26.2903 28.1727 24.0964C28.1727 21.9024 26.3945 20.1239 24.2011 20.1239C22.0076 20.1239 20.2295 21.9024 20.2295 24.0964C20.2295 26.2903 22.0076 28.0688 24.2011 28.0688Z" fill="white"/>
<path d="M24.6485 20.1515C23.9878 22.7677 24.0153 25.4527 24.6761 28.0413C26.6447 27.8073 28.1796 26.1343 28.1796 24.0964C28.1796 22.0585 26.6378 20.3718 24.6554 20.1515H24.6485Z" fill="#111111"/>
<path d="M38.2294 28.0688C40.4229 28.0688 42.201 26.2903 42.201 24.0964C42.201 21.9024 40.4229 20.1239 38.2294 20.1239C36.036 20.1239 34.2578 21.9024 34.2578 24.0964C34.2578 26.2903 36.036 28.0688 38.2294 28.0688Z" fill="white"/>
<path d="M38.6764 20.1515C38.0156 22.7677 38.0431 25.4527 38.7039 28.0413C40.6725 27.8073 42.2074 26.1343 42.2074 24.0964C42.2074 22.0585 40.6656 20.3718 38.6833 20.1515H38.6764Z" fill="#111111"/>
<path d="M32.1376 29.914C32.1376 30.5818 31.6971 31.1257 31.1465 31.1257C30.5958 31.1257 30.1553 30.5818 30.1553 29.914C30.1553 29.2462 30.5958 28.7023 31.1465 28.7023C31.6971 28.7023 32.1376 29.2462 32.1376 29.914Z" fill="#111111"/>
<path d="M69.1623 32.9776C64.1789 26.9535 56.752 24.0413 49.621 21.3356C49.2011 24.2203 48.7055 27.2013 48.2856 30.0791C49.8757 30.6781 51.8787 31.518 53.3585 32.3717C53.9987 32.7435 56.0361 33.6936 56.4766 34.3063C56.9172 34.919 56.9447 36.3511 55.4373 35.9586C55.4304 35.9586 55.4166 35.9655 55.4029 35.9724V44.2203C59.2643 45.1428 63.4906 44.5369 67.0492 42.4991C69.0797 41.3356 71.0759 39.3321 70.9933 36.9018C70.9382 35.3941 70.0778 34.086 69.1554 32.9707L69.1623 32.9776Z" fill="#D5D5D5"/>
<path d="M25.1648 39.9725L24.5109 39.9862C25.0272 39.8967 25.4677 39.346 25.3438 38.8158C25.2336 38.3408 24.5591 38.0172 24.0153 38.0447C24.2356 37.8451 24.4008 37.494 24.4352 37.2117C24.4903 36.7573 24.1805 36.3098 23.7606 36.1308C23.3752 35.9725 23.0517 36.0413 22.7213 36.1515C22.9553 36.062 23.1687 35.9518 23.3477 35.7797C23.4991 35.6351 23.6161 35.4355 23.6092 35.2289C23.6023 34.9466 23.3614 34.7057 23.093 34.6162C22.4391 34.389 21.5374 34.6437 20.9041 34.8227C20.4636 34.9466 19.1489 35.2151 18.8805 35.5938C19.4105 34.8571 19.734 33.9759 19.8166 33.074C19.8441 32.7711 19.8304 32.42 19.5963 32.2203C19.1902 31.8761 18.4399 32.1652 18.2197 32.6472C17.6002 33.9966 16.0721 35.821 13.3877 36.7435C12.5892 37.0189 11.4879 37.2805 10.6 36.9776C9.84286 36.716 9.3748 36.1859 9.4987 35.3253C9.6226 34.4647 10.951 33.3563 11.5774 32.8881C11.7495 32.7573 13.8626 31.5181 13.8764 31.6145C13.5322 28.9225 12.7544 25.7281 12.9403 23.7246C8.28037 26.0447 2.98721 30.4785 0.867191 35.3184C0.220172 36.7986 -0.151519 38.4372 0.0618592 40.0344C0.62628 44.2616 4.99022 45.673 8.71402 45.6041C14.3307 45.5009 19.7409 43.6076 25.034 41.7418C25.4883 41.5835 26.0183 41.3356 26.0803 40.8537C26.1422 40.3787 25.6466 39.9793 25.1717 39.9518L25.1648 39.9725Z" fill="#D5D5D5"/>
<path d="M56.5042 36.2203C53.7853 35.9518 51.0183 36.1927 48.3889 36.9294C48.1411 36.9982 47.8933 37.074 47.7006 37.2392C47.5079 37.4044 47.3909 37.6798 47.4804 37.9208C47.5836 38.1824 47.8865 38.2926 48.1687 38.327C48.444 38.3614 48.74 38.3476 48.9878 38.4785C48.4233 38.5817 48.0861 38.8502 47.6387 39.2082C47.4872 39.3322 47.3427 39.4698 47.2876 39.6626C47.1775 40.055 47.563 40.4475 47.9691 40.4957C48.3752 40.5507 48.7675 40.3717 49.1392 40.1996C48.5128 40.3511 47.8452 40.8468 47.7419 41.4802C47.6868 41.8244 47.8727 42.1893 48.1824 42.3476C48.4922 42.506 48.8983 42.4371 49.1392 42.1893C48.678 42.2099 48.2788 42.7814 48.4165 43.222C48.5541 43.6626 48.9947 43.9449 49.4421 44.0482C49.8895 44.1445 50.3575 44.0895 50.8118 44.0619C52.45 43.9518 54.8522 44.592 56.6763 44.4681L56.5042 36.2272V36.2203Z" fill="#D4D4D4"/>
<path d="M26.0941 40.1858C25.8738 39.9242 25.5228 39.7452 25.1786 39.7315C25.4539 39.4492 25.6604 39.1049 25.5847 38.7607C25.4746 38.2994 24.9859 37.9621 24.4765 37.845C24.5798 37.6592 24.6555 37.4457 24.6761 37.2461C24.745 36.7022 24.3939 36.1445 23.8502 35.9173C23.7744 35.8829 23.6987 35.8623 23.623 35.8416C23.7744 35.6488 23.8502 35.4423 23.8433 35.2289C23.8295 34.8089 23.4922 34.506 23.1618 34.3958C22.4391 34.1411 21.5168 34.4027 20.8284 34.5955C20.7527 34.6161 20.6564 34.6437 20.5462 34.6712C20.1883 34.7607 19.8373 34.8571 19.5413 34.9604C19.8235 34.3821 19.9956 33.7555 20.0575 33.1084C20.0713 32.9225 20.1264 32.3648 19.7547 32.0481C19.5344 31.8554 19.2315 31.7934 18.9011 31.8623C18.5088 31.9518 18.1509 32.2203 17.9995 32.5576C17.6897 33.2323 16.437 35.5043 13.1881 36.5714C13.1675 36.5783 13.1468 36.592 13.1262 36.6058C12.2589 36.8605 11.1163 37.0051 10.3041 36.5576C8.72093 35.6833 10.4004 33.9414 11.2264 33.2392C11.4673 33.0395 11.1232 32.6953 10.8822 32.895C9.88418 33.7418 8.38365 35.3872 9.65016 36.6747C10.5587 37.5903 12.2795 37.3907 13.3877 37.0395C13.429 37.0258 13.4566 37.0051 13.4841 36.9845C16.8087 35.8416 18.1165 33.4733 18.44 32.7642C18.5295 32.5645 18.7566 32.3993 19.0044 32.3442C19.1076 32.3235 19.3004 32.3029 19.438 32.4199C19.5619 32.5232 19.6032 32.7366 19.5757 33.0671C19.4931 33.9277 19.1834 34.7607 18.6809 35.4629C18.6052 35.5731 18.6258 35.7246 18.736 35.8003C18.8461 35.876 18.9975 35.8554 19.0732 35.7452C19.2453 35.5043 20.2434 35.2495 20.6632 35.1463C20.7803 35.1187 20.8835 35.0912 20.9799 35.0636C21.4135 34.9397 23.2789 34.3614 23.3614 35.222C23.3683 35.3184 23.327 35.4148 23.272 35.4905C23.0104 35.8691 22.5561 35.9449 22.1431 36.0757C21.6613 36.234 21.1932 36.4199 20.6839 36.4888C20.381 36.5301 20.3741 37.0189 20.6839 36.9776C21.5581 36.8605 22.3772 36.3373 23.2513 36.296C23.9121 36.2616 24.3733 36.9913 24.0842 37.5834C23.9052 37.9483 23.5611 37.9896 23.21 38.086C22.5974 38.265 21.9848 38.4922 21.4066 38.7745C21.1244 38.9122 21.3722 39.3321 21.6544 39.1944C22.1294 38.9604 22.6249 38.7814 23.1343 38.623C23.7056 38.444 24.3113 38.1273 24.862 38.5404C24.9377 38.5955 25.0065 38.6643 25.0478 38.7538C25.2268 39.1463 24.7519 39.5662 24.4628 39.7521C24.1324 39.9655 23.74 40.0481 23.3683 40.1721C22.9691 40.3098 22.563 40.4543 22.1362 40.5094C21.8334 40.5507 21.8265 41.0395 22.1362 40.9982C22.9966 40.8812 23.8433 40.5232 24.683 40.2891C25.0341 40.1927 25.4539 40.1858 25.7155 40.5025C25.7774 40.5783 25.8463 40.7022 25.8325 40.8468C25.7843 41.1979 25.3094 41.4044 24.9446 41.5352C21.0487 42.9122 17.022 44.3304 12.844 44.9982C12.7132 45.0189 12.6237 45.1428 12.6443 45.2805C12.665 45.3975 12.7682 45.487 12.8852 45.487C12.899 45.487 12.9128 45.487 12.9265 45.487C17.1459 44.8123 21.3791 43.3184 25.1098 42.0034C25.4126 41.8932 26.2249 41.611 26.3143 40.9156C26.3487 40.6678 26.2662 40.4061 26.0872 40.1996L26.0941 40.1858Z" fill="#111111"/>
<path d="M56.6623 44.2204C55.7468 44.2823 54.673 44.1446 53.6337 44.0138C52.9316 43.9243 52.2295 43.8486 51.5274 43.8211C50.8666 43.8004 50.1508 43.9519 49.4969 43.8073C49.1803 43.7384 48.7673 43.525 48.6503 43.1464C48.3681 42.2445 50.9492 41.8589 51.4242 41.735C51.727 41.6524 51.5963 41.1842 51.2934 41.2668C50.4192 41.5009 49.5933 41.7281 48.7604 42.0792C47.9138 42.4372 47.8449 41.3839 48.313 40.9295C48.6365 40.6128 49.1803 40.4407 49.607 40.3168C50.1233 40.1653 50.667 40.1859 51.197 40.2066C51.5137 40.2135 51.5137 39.7316 51.197 39.7178C50.3504 39.6902 49.2285 39.7797 48.4644 40.2135C48.1822 40.3787 47.4044 40.1859 47.5283 39.7316C47.666 39.2359 48.5745 38.809 49.0357 38.7195C49.0426 38.7195 49.0495 38.7126 49.0564 38.7057C49.724 38.6094 50.3986 38.513 51.08 38.4923C51.3898 38.4854 51.3966 37.9966 51.08 38.0035C50.5913 38.0173 50.1026 38.0723 49.6208 38.1343C49.0908 38.2032 48.6571 38.1343 48.1271 38.0517C48.0101 38.031 47.8931 38.0104 47.7967 37.9346C47.6178 37.7901 47.721 37.5422 47.8656 37.4183C48.017 37.2875 48.2235 37.2255 48.4644 37.1567C51.0869 36.4269 53.7851 36.1859 56.4902 36.4544C56.6279 36.4682 56.7449 36.3718 56.7586 36.2341C56.7724 36.1033 56.676 35.9794 56.5384 35.9656C53.7713 35.6902 51.0112 35.9312 48.3336 36.6816C48.0514 36.7643 47.7761 36.8469 47.5558 37.0396C47.2667 37.2875 47.1428 37.6799 47.2667 37.9897C47.3838 38.2927 47.6866 38.4854 48.1203 38.5474C47.9138 38.6782 47.721 38.8297 47.5008 39.0087C47.3356 39.1395 47.1428 39.3254 47.0671 39.587C47.0052 39.8073 47.0465 40.0414 47.1841 40.2479C47.3356 40.4751 47.5834 40.6472 47.8518 40.7092C47.6797 40.9157 47.5558 41.1636 47.5077 41.4252C47.4319 41.8727 47.6728 42.3477 48.079 42.5474C48.1271 42.5749 48.1822 42.5956 48.2373 42.6093C48.1409 42.8297 48.1271 43.0637 48.1891 43.2703C48.3681 43.8417 48.9256 44.1584 49.3936 44.2617C50.0957 44.4131 50.8047 44.2686 51.5137 44.2686C52.202 44.2686 52.8972 44.3856 53.5717 44.4682C54.4528 44.5784 55.3614 44.6954 56.1873 44.6954C56.3594 44.6954 56.5315 44.6954 56.6898 44.6816C56.8275 44.6748 56.9238 44.5577 56.917 44.42C56.9101 44.2823 56.7999 44.1722 56.6554 44.1928L56.6623 44.2204Z" fill="#111111"/>
</g>
<defs>
<clipPath id="clip0_132_3060">
<rect width="71" height="64" fill="white"/>
</clipPath>
</defs>
</svg>
