<svg width="28" height="22" viewBox="0 0 28 22" fill="none" xmlns="http://www.w3.org/2000/svg">
    <g clip-path="url(#nzqw3pa8ha)" fill="#101820">
        <path d="M14 19.614a.686.686 0 0 1-.488-.199l-7.927-7.927a.687.687 0 0 1 0-.976L6.63 9.474a4.166 4.166 0 0 1 4.38-.983l3.719-3.72-.646-.646a.687.687 0 0 1 0-.97L16.345.888a.687.687 0 0 1 .969 0l6.8 6.8a.687.687 0 0 1 0 .969l-2.27 2.261a.688.688 0 0 1-.969 0l-.646-.646-3.72 3.72a4.18 4.18 0 0 1-.983 4.379l-1.038 1.045a.687.687 0 0 1-.488.2zM7.043 11 14 17.957l.557-.556a2.833 2.833 0 0 0 .53-3.266.688.688 0 0 1 .123-.79l4.53-4.531a.687.687 0 0 1 .977 0l.646.646 1.293-1.293-5.823-5.823-1.293 1.293.646.646a.686.686 0 0 1 0 .976l-4.53 4.531a.687.687 0 0 1-.79.124 2.832 2.832 0 0 0-3.266.53L7.043 11z"/>
        <path d="M4.375 21.313a.686.686 0 0 1-.488-1.176l5.665-5.658a.688.688 0 0 1 .97.97l-5.659 5.664a.688.688 0 0 1-.488.2zM20.23 9.99a.688.688 0 0 1-.489-.2l-1.698-1.698a.69.69 0 0 1 .976-.976l1.698 1.698a.688.688 0 0 1-.488 1.175z"/>
    </g>
    <defs>
        <clipPath id="nzqw3pa8ha">
            <path fill="#fff" transform="translate(3)" d="M0 0h22v22H0z"/>
        </clipPath>
    </defs>
</svg>
