<svg width="64" height="64" viewBox="0 0 64 64" fill="none" xmlns="http://www.w3.org/2000/svg">
<path fill-rule="evenodd" clip-rule="evenodd" d="M32 62C48.5685 62 62 48.5685 62 32C62 15.4315 48.5685 2 32 2C15.4315 2 2 15.4315 2 32C2 48.5685 15.4315 62 32 62ZM32 64C49.6731 64 64 49.6731 64 32C64 14.3269 49.6731 0 32 0C14.3269 0 0 14.3269 0 32C0 49.6731 14.3269 64 32 64Z" fill="black"/>
<path fill-rule="evenodd" clip-rule="evenodd" d="M32 57C45.8071 57 57 45.8071 57 32C57 18.1929 45.8071 7 32 7C18.1929 7 7 18.1929 7 32C7 45.8071 18.1929 57 32 57ZM32 59C46.9117 59 59 46.9117 59 32C59 17.0883 46.9117 5 32 5C17.0883 5 5 17.0883 5 32C5 46.9117 17.0883 59 32 59Z" fill="black"/>
<path d="M19.7256 35.98V37.254H24.4996V38.052H20.9996V39.298H27.9436V39.956H21.0276V43.092H29.9876V41.804H22.7356V41.104H29.6656V38.052H26.2216V37.254H31.0236V35.98H19.7256ZM20.1596 34.356L20.6496 35.63C22.9596 35.518 24.5696 34.93 25.3676 34.006C26.1516 34.93 27.7616 35.518 30.0716 35.63L30.5476 34.356C28.0276 34.244 26.7536 33.628 26.4316 32.886H29.9456V31.612H26.2216V30.604H24.4996V31.612H20.7896V32.886H24.3036C23.9676 33.628 22.6936 34.244 20.1596 34.356Z" fill="#111111"/>
<path d="M37.1699 34.104V35.49H38.5139V38.262H40.1379V30.856H38.5139V34.104H37.1699ZM31.9479 36.848L32.7319 38.15C33.8799 37.716 34.6359 36.904 35.0699 35.91C35.5179 36.82 36.2599 37.548 37.3799 37.94L38.1499 36.652C36.5819 36.092 35.8539 34.86 35.8539 33.6V33.404H37.7999V32.06H35.8539V30.744H34.2159V32.06H32.2839V33.404H34.2159V33.6C34.2159 34.944 33.5159 36.246 31.9479 36.848ZM34.0199 40.25H40.8939V43.19H42.6159V38.85H34.0199V40.25ZM40.9779 38.346H42.6159V30.632H40.9779V38.346Z" fill="#111111"/>
<path fill-rule="evenodd" clip-rule="evenodd" d="M38.8051 17.2909C39.1967 17.6803 39.1985 18.3135 38.8091 18.7051L31.6496 25.9051C31.4622 26.0935 31.2076 26.1996 30.9419 26.2C30.6762 26.2004 30.4212 26.095 30.2334 25.9071L26.2929 21.9666C25.9024 21.5761 25.9024 20.9429 26.2929 20.5524C26.6834 20.1619 27.3166 20.1619 27.7071 20.5524L30.9385 23.7838L37.3909 17.2949C37.7803 16.9033 38.4135 16.9015 38.8051 17.2909Z" fill="black"/>
</svg>
