<svg width="69" height="53" viewBox="0 0 69 53" fill="none" xmlns="http://www.w3.org/2000/svg">
<g clip-path="url(#clip0_56_2204)">
<path d="M30.2811 2.04784L0.816787 45.67C-1.28896 48.7851 0.924223 53 4.65763 53H63.5863C67.3197 53 69.5329 48.7851 67.4272 45.67L37.9682 2.04784C36.1203 -0.682613 32.129 -0.682613 30.2811 2.04784Z" fill="#F24C5C"/>
<path d="M41.8892 33.6214C39.719 33.6214 37.9624 31.8499 37.9624 29.6612C37.9624 27.4725 39.719 25.7009 41.8892 25.7009C44.0594 25.7009 45.816 27.4725 45.816 29.6612C45.816 31.8499 44.0594 33.6214 41.8892 33.6214Z" fill="white"/>
<path d="M44.6664 26.909C44.6664 26.909 44.6664 26.8765 44.6664 26.8603C43.9573 26.1452 42.9743 25.7009 41.8892 25.7009C39.719 25.7009 37.9624 27.4725 37.9624 29.6612C37.9624 30.7555 38.4029 31.7415 39.112 32.462C39.1281 32.462 39.1442 32.462 39.1603 32.462C42.2008 32.462 44.6664 29.9754 44.6664 26.909Z" fill="black"/>
<path d="M26.3594 33.6214C24.1892 33.6214 22.4326 31.8499 22.4326 29.6612C22.4326 27.4725 24.1892 25.7009 26.3594 25.7009C28.5296 25.7009 30.2862 27.4725 30.2862 29.6612C30.2862 31.8499 28.5296 33.6214 26.3594 33.6214Z" fill="white"/>
<path d="M29.1366 26.909C29.1366 26.909 29.1366 26.8765 29.1366 26.8603C28.4276 26.1452 27.4445 25.7009 26.3594 25.7009C24.1892 25.7009 22.4326 27.4725 22.4326 29.6612C22.4326 30.7555 22.8731 31.7415 23.5822 32.462C23.5983 32.462 23.6144 32.462 23.6305 32.462C26.671 32.462 29.1366 29.9754 29.1366 26.909Z" fill="black"/>
<path d="M36.378 33.0526C36.2867 32.305 35.1103 32.2941 35.2016 33.0526C35.3198 34.0494 35.5776 36.2381 34.095 36.3952C32.5049 36.5632 32.4781 34.2228 32.5264 33.1934C32.564 32.4296 31.3876 32.4296 31.35 33.1934C31.2587 34.9867 31.7529 37.6467 34.0681 37.5925C36.378 37.5383 36.5821 34.7537 36.378 33.0526Z" fill="black"/>
</g>
<defs>
<clipPath id="clip0_56_2204">
<rect width="69" height="53" fill="white"/>
</clipPath>
</defs>
</svg>
