<svg width="67" height="63" viewBox="0 0 67 63" fill="none" xmlns="http://www.w3.org/2000/svg">
<g clip-path="url(#clip0_56_2195)">
<path d="M33.5377 62.0635C51.5549 62.0635 66.1608 48.1701 66.1608 31.0318C66.1608 13.8934 51.5549 0 33.5377 0C15.5204 0 0.914551 13.8934 0.914551 31.0318C0.914551 48.1701 15.5204 62.0635 33.5377 62.0635Z" fill="#FFA61D"/>
<path d="M26.0021 22.7798C28.3987 22.7798 30.3352 24.6307 30.3352 26.9058C30.3352 29.1809 28.3987 31.0318 26.0021 31.0318C23.6054 31.0318 21.6689 29.1809 21.6689 26.9058C21.6689 24.6307 23.6054 22.7798 26.0021 22.7798Z" fill="white"/>
<path d="M21.6595 26.9059C21.6595 27.9953 22.1101 28.9882 22.8291 29.7208C23.0495 29.7498 23.27 29.7787 23.5001 29.7787C25.9543 29.7787 27.9483 27.8796 27.9483 25.5466C27.9483 24.5441 27.5744 23.6186 26.9609 22.8956C26.6445 22.8281 26.3186 22.7896 25.983 22.7896C23.5864 22.7896 21.6499 24.6405 21.6499 26.9156L21.6595 26.9059Z" fill="black"/>
<path d="M41.1393 22.7798C43.5359 22.7798 45.4724 24.6307 45.4724 26.9058C45.4724 29.1809 43.5359 31.0318 41.1393 31.0318C38.7426 31.0318 36.8062 29.1809 36.8062 26.9058C36.8062 24.6307 38.7426 22.7798 41.1393 22.7798Z" fill="white"/>
<path d="M36.7967 26.9059C36.7967 27.9953 37.2473 28.9882 37.9663 29.7208C38.1867 29.7498 38.4072 29.7787 38.6373 29.7787C41.0915 29.7787 43.0855 27.8796 43.0855 25.5466C43.0855 24.5441 42.7116 23.6186 42.0981 22.8956C41.7817 22.8281 41.4558 22.7896 41.1202 22.7896C38.7236 22.7896 36.7871 24.6405 36.7871 26.9156L36.7967 26.9059Z" fill="black"/>
<path d="M34.9465 27.4553C34.007 28.0048 32.8183 28.0048 31.8884 27.4553C31.3132 27.0408 30.4504 27.6867 31.3324 28.3133C32.6074 29.0652 34.2371 29.0652 35.5121 28.3133C36.3941 27.6867 35.5313 27.0408 34.9561 27.4553H34.9465Z" fill="black"/>
</g>
<defs>
<clipPath id="clip0_56_2195">
<rect width="67" height="63" fill="white"/>
</clipPath>
</defs>
</svg>
