<svg width="150" height="145" viewBox="0 0 150 145" fill="none" xmlns="http://www.w3.org/2000/svg">
<g clip-path="url(#clip0_846_38171)">
<path d="M0.760742 144.239V97.6299C0.760742 93.4606 4.13802 90.0977 8.29117 90.0977H141.694C145.862 90.0977 149.224 93.4758 149.224 97.6299V144.239" fill="white"/>
<path d="M0.760742 144.239V97.6299C0.760742 93.4606 4.13802 90.0977 8.29117 90.0977H141.694C145.862 90.0977 149.224 93.4758 149.224 97.6299V144.239" stroke="#222222" stroke-miterlimit="10" stroke-linecap="round"/>
<path d="M0.760742 100.217H149.239" stroke="#222222" stroke-miterlimit="10" stroke-linecap="round"/>
<path d="M8.65622 96.6421C9.24435 96.6421 9.72113 96.1652 9.72113 95.5769C9.72113 94.9886 9.24435 94.5117 8.65622 94.5117C8.06808 94.5117 7.59131 94.9886 7.59131 95.5769C7.59131 96.1652 8.06808 96.6421 8.65622 96.6421Z" fill="#222222"/>
<path d="M12.2768 96.6421C12.865 96.6421 13.3417 96.1652 13.3417 95.5769C13.3417 94.9886 12.865 94.5117 12.2768 94.5117C11.6887 94.5117 11.2119 94.9886 11.2119 95.5769C11.2119 96.1652 11.6887 96.6421 12.2768 96.6421Z" fill="#222222"/>
<path d="M16.2475 96.6421C16.8357 96.6421 17.3124 96.1652 17.3124 95.5769C17.3124 94.9886 16.8357 94.5117 16.2475 94.5117C15.6594 94.5117 15.1826 94.9886 15.1826 95.5769C15.1826 96.1652 15.6594 96.6421 16.2475 96.6421Z" fill="#222222"/>
<path d="M24.7212 111.127H53.5194C54.706 111.127 55.6644 112.086 55.6644 113.273V144.239H22.5762V113.273C22.5762 112.086 23.5346 111.127 24.7212 111.127Z" fill="#FDC728"/>
<path d="M35.1572 123.758H43.2505" stroke="#222222" stroke-miterlimit="10" stroke-linecap="round"/>
<path d="M30.4868 130.453H47.9361" stroke="#222222" stroke-miterlimit="10" stroke-linecap="round"/>
<path d="M63.4229 126.115H92.2211C93.4077 126.115 94.3661 127.074 94.3661 128.261V144.238H61.2627V128.261C61.2627 127.074 62.2211 126.115 63.4077 126.115H63.4229Z" fill="#FDC728"/>
<path d="M73.3569 135.186H82.4695" stroke="#222222" stroke-miterlimit="10" stroke-linecap="round"/>
<path d="M102.003 115.342H130.801C131.988 115.342 132.946 116.3 132.946 117.487V144.238H99.8428V117.487C99.8428 116.3 100.801 115.342 101.988 115.342H102.003Z" fill="#FDC728"/>
<path d="M112.439 133.633H120.533" stroke="#222222" stroke-miterlimit="10" stroke-linecap="round"/>
<path d="M107.754 127.684H125.218" stroke="#222222" stroke-miterlimit="10" stroke-linecap="round"/>
<path d="M69.0974 21.1817C69.0974 21.1817 80.7353 16.3732 83.8996 10.4235C83.8996 10.4235 83.3976 15.232 89.0872 14.9733C89.0872 14.9733 93.1339 15.7341 95.2789 11.8082C95.2789 11.8082 97.1805 17.3775 100.71 19.2644C100.71 19.2644 102.733 23.1903 102.231 24.6968L104.635 23.6773C104.635 23.6773 109.823 2.17604 92.7536 3.18035C92.7536 3.18035 86.425 -3.53022 77.4493 2.41951C77.4493 2.41951 67.0893 9.8757 69.1126 21.1361L69.0974 21.1817Z" fill="#222222"/>
<path d="M100.969 24.7263C100.969 24.7263 103.753 22.4438 106.4 24.7263C106.4 24.7263 109.944 28.1349 106.4 33.5824C106.4 33.5824 103.616 37.7518 100.969 35.2258C100.969 35.2258 99.706 50.5338 82.7587 52.5577C82.7587 52.5577 70.1167 55.601 62.2668 33.9629C62.2668 33.9629 65.0508 32.9433 67.4545 32.9433L67.8348 31.2999C67.8348 31.2999 63.1492 29.3978 63.9098 24.7263C63.9098 24.7263 65.0508 17.5136 70.7405 21.4395" fill="white"/>
<path d="M100.969 24.7263C100.969 24.7263 103.753 22.4438 106.4 24.7263C106.4 24.7263 109.944 28.1349 106.4 33.5824C106.4 33.5824 103.616 37.7518 100.969 35.2258C100.969 35.2258 99.706 50.5338 82.7587 52.5577C82.7587 52.5577 70.1167 55.601 62.2668 33.9629C62.2668 33.9629 65.0508 32.9433 67.4545 32.9433L67.8348 31.2999C67.8348 31.2999 63.1492 29.3978 63.9098 24.7263C63.9098 24.7263 65.0508 17.5136 70.7405 21.4395" stroke="#222222" stroke-miterlimit="10" stroke-linecap="round"/>
<path d="M103.327 27.9375C103.327 27.9375 103.965 29.7483 103.007 31.0721" stroke="#222222" stroke-miterlimit="10" stroke-linecap="round"/>
<path d="M68.3519 27.8764C68.3519 27.8764 67.6521 26.0961 68.5344 24.7266" stroke="#222222" stroke-miterlimit="10" stroke-linecap="round"/>
<path d="M81.5719 26.7208C82.3953 26.7208 83.0628 26.0531 83.0628 25.2295C83.0628 24.4059 82.3953 23.7383 81.5719 23.7383C80.7485 23.7383 80.0811 24.4059 80.0811 25.2295C80.0811 26.0531 80.7485 26.7208 81.5719 26.7208Z" fill="#222222"/>
<path d="M94.3205 27.7852C95.1438 27.7852 95.8113 27.1176 95.8113 26.294C95.8113 25.4704 95.1438 24.8027 94.3205 24.8027C93.4971 24.8027 92.8296 25.4704 92.8296 26.294C92.8296 27.1176 93.4971 27.7852 94.3205 27.7852Z" fill="#222222"/>
<path d="M83.3367 36.9453C83.3367 36.9453 86.0598 39.38 88.6156 37.6148" stroke="#222222" stroke-miterlimit="10" stroke-linecap="round"/>
<path d="M62.2667 33.9629C62.2667 33.9629 22.1805 39.1518 12.6876 69.3874C12.6876 69.3874 4.59427 94.5558 34.3204 95.834H47.0993C47.0993 95.834 58.2352 96.5949 61.1409 102.925C61.1409 102.925 62.4036 107.231 62.2819 109.118C62.2819 109.118 62.9208 111.355 65.1876 111.02C65.1876 111.02 67.1196 110.686 67.1196 109.499C67.1196 109.499 67.287 111.69 69.3103 111.614C69.3103 111.614 70.9077 111.949 71.075 109.331C71.075 109.331 71.6075 110.746 73.5243 111.264C73.5243 111.264 75.289 112.025 75.6389 108.312C75.6389 108.312 78.2555 90.7669 66.6176 84.9541C66.6176 84.9541 52.287 75.3371 36.1764 72.2177" fill="white"/>
<path d="M62.2667 33.9629C62.2667 33.9629 22.1805 39.1518 12.6876 69.3874C12.6876 69.3874 4.59427 94.5558 34.3204 95.834H47.0993C47.0993 95.834 58.2352 96.5949 61.1409 102.925C61.1409 102.925 62.4036 107.231 62.2819 109.118C62.2819 109.118 62.9208 111.355 65.1876 111.02C65.1876 111.02 67.1196 110.686 67.1196 109.499C67.1196 109.499 67.287 111.69 69.3103 111.614C69.3103 111.614 70.9077 111.949 71.075 109.331C71.075 109.331 71.6075 110.746 73.5243 111.264C73.5243 111.264 75.289 112.025 75.6389 108.312C75.6389 108.312 78.2555 90.7669 66.6176 84.9541C66.6176 84.9541 52.287 75.3371 36.1764 72.2177" stroke="#222222" stroke-linecap="round" stroke-linejoin="round"/>
<path d="M71.0901 109.318C71.0901 109.318 72.6875 100.964 69.5688 97.9355" stroke="#222222" stroke-linecap="round" stroke-linejoin="round"/>
<path d="M67.1196 109.483C67.1196 109.483 68.1388 104.766 65.5222 101.221" stroke="#222222" stroke-linecap="round" stroke-linejoin="round"/>
<path d="M55.7556 78.9297C55.7556 78.9297 48.3164 83.1752 47.0994 95.8202" stroke="#222222" stroke-linecap="round" stroke-linejoin="round"/>
<path d="M104.696 35.3477C104.696 35.3477 134.239 43.8234 138.803 64.0616C138.803 64.0616 145.132 84.802 129.189 90.8734C129.189 90.8734 119.072 94.4189 108.697 96.8232C108.697 96.8232 98.5802 98.9383 96.1765 105.345C96.1765 105.345 95.2942 108.662 95.5376 111.599C95.5376 111.599 95.9179 114.916 92.3733 113.775C92.3733 113.775 91.2323 117.822 88.068 113.394C88.068 113.394 85.0254 118.081 82.5001 112.375C82.5001 112.375 78.5903 104.401 83.3216 94.6624C83.3216 94.6624 89.4524 81.8803 113.474 73.7851" fill="white"/>
<path d="M104.696 35.3477C104.696 35.3477 134.239 43.8234 138.803 64.0616C138.803 64.0616 145.132 84.802 129.189 90.8734C129.189 90.8734 119.072 94.4189 108.697 96.8232C108.697 96.8232 98.5802 98.9383 96.1765 105.345C96.1765 105.345 95.2942 108.662 95.5376 111.599C95.5376 111.599 95.9179 114.916 92.3733 113.775C92.3733 113.775 91.2323 117.822 88.068 113.394C88.068 113.394 85.0254 118.081 82.5001 112.375C82.5001 112.375 78.5903 104.401 83.3216 94.6624C83.3216 94.6624 89.4524 81.8803 113.474 73.7851" stroke="#222222" stroke-linecap="round" stroke-linejoin="round"/>
<path d="M97.2566 81.334C97.2566 81.334 105.015 84.0578 108.682 96.8398" stroke="#222222" stroke-linejoin="round"/>
<path d="M88.0679 113.41C88.0679 113.41 84.6297 109.864 87.1094 102.91" stroke="#222222" stroke-linecap="round" stroke-linejoin="round"/>
<path d="M92.3733 113.791C92.3733 113.791 90.4716 111.767 91.6126 106.578" stroke="#222222" stroke-linecap="round" stroke-linejoin="round"/>
<path d="M56.7595 35.0293C56.7595 35.0293 57.4745 48.7548 72.1398 59.6347C72.1398 59.6347 75.8214 63.8497 81.5719 52.6959" stroke="#222222" stroke-linecap="round" stroke-linejoin="round"/>
<path d="M82.7585 52.5583C82.7585 52.5583 83.7778 60.6535 89.2088 61.1557C89.2088 61.1557 107.023 52.4974 107.982 36.459" stroke="#222222" stroke-linecap="round" stroke-linejoin="round"/>
</g>
<defs>
<clipPath id="clip0_846_38171">
<rect width="150" height="145" fill="white"/>
</clipPath>
</defs>
</svg>
