<svg width="59" height="59" viewBox="0 0 59 59" fill="none" xmlns="http://www.w3.org/2000/svg">
<g clip-path="url(#clip0_56_2214)">
<path d="M28.1009 0H30.8991C46.4124 0 59 12.5183 59 27.9461V53.4583C59 56.5185 56.5048 59 53.4276 59H5.57235C2.4952 59 0 56.5106 0 53.4583V27.9461C0 12.5183 12.5876 0 28.1009 0Z" fill="#35C5C0"/>
<path d="M34.8848 26.6616C34.8848 34.3676 46.444 33.6937 46.3962 26.6616H34.8848Z" fill="white"/>
<path d="M12.6035 26.6616C12.6035 34.3676 24.1628 33.6937 24.1149 26.6616H12.6035Z" fill="white"/>
<path d="M40.6645 32.1875C40.7602 31.9735 40.8399 31.7594 40.9197 31.5454C41.2624 30.9983 41.4936 30.3324 41.6531 29.8805C41.948 29.0401 42.1473 27.6924 41.8205 26.6538H34.877C34.877 30.5068 37.7708 32.2668 40.6566 32.1796L40.6645 32.1875Z" fill="black"/>
<path d="M18.6939 32.1638C19.9295 30.7922 19.499 28.509 18.7178 26.741C18.7178 26.7093 18.7019 26.6855 18.7019 26.6538H12.6113C12.6113 30.6495 15.7204 32.3857 18.7019 32.1638H18.6939Z" fill="black"/>
<path d="M32.0391 28.4137C30.4288 29.2383 28.6032 29.2779 26.969 28.493C26.108 28.0808 25.3507 29.3572 26.2196 29.7774C28.3561 30.8001 30.6839 30.7763 32.7964 29.6981C33.6494 29.262 32.9001 27.9777 32.0471 28.4137H32.0391Z" fill="black"/>
</g>
<defs>
<clipPath id="clip0_56_2214">
<rect width="59" height="59" fill="white"/>
</clipPath>
</defs>
</svg>
