<svg width="24" height="24" viewBox="0 0 24 24" fill="none" xmlns="http://www.w3.org/2000/svg">
    <rect width="24" height="24" rx="4" fill="#535353"/>
    <path d="M8.22 12.424c-.084-.804-.636-1.368-1.584-1.368-.888 0-1.596.432-1.728 1.368H8.22zm-4.656.54c0-1.74 1.104-3.204 3.06-3.204 2.016 0 2.616 1.632 2.652 1.716.384.972.3 2.112.3 2.112H4.908c.18.78.744 1.284 1.728 1.284 1.14 0 1.368-.684 1.368-.684l1.26.552s-.576 1.416-2.64 1.416c-1.956 0-3.06-1.464-3.06-3.192zm11.059 2.544c-.384.36-.864.612-1.428.612-1.044 0-1.992-.96-1.992-2.052V11.08H10.11V9.76h1.092V7.48h1.488v2.28h1.668v1.32H12.69v2.988c0 .384.18.564.504.564.168 0 .228-.036.396-.204l1.032 1.08zm3.248-.756c.504 0 .948-.216 1.284-.552l1.044.996c-.588.6-1.392.972-2.28.972-2.04 0-3.228-1.5-3.228-3.324 0-1.824 1.188-3.324 3.228-3.324.888 0 1.692.372 2.28.972l-1.044.996a1.806 1.806 0 0 0-1.284-.552c-1.236 0-1.824.84-1.824 1.908s.588 1.908 1.824 1.908z" fill="#fff"/>
</svg>
