<svg width="55" height="55" viewBox="0 0 55 55" fill="none" xmlns="http://www.w3.org/2000/svg">
    <path d="M47.926 32.605C46.334 26.584 41.94 19.25 41.94 19.25c-.921-1.307-2.556-1.884-3.934-1.073-1.377.81-1.83 2.531-1.103 3.922l2.665 4.709-3.79-6.694c-.784-1.385-2.512-1.929-3.892-1.167-1.395.77-1.907 2.528-1.188 3.937.02.038 2.657 4.697 2.678 4.734L29.69 21.11c-.783-1.384-2.512-1.928-3.892-1.167-1.408.777-1.916 2.561-1.165 3.978l2.657 4.693-6.511-11.5c-.784-1.384-2.512-1.928-3.893-1.166-1.432.79-1.934 2.623-1.126 4.05l5.778 10.205a69.736 69.736 0 0 0 4.003 6.264l-5.566-1.518c-1.515-.413-3.116.448-3.563 1.981-.465 1.59.32 2.83 2.014 3.674l8.867 4.46c4.668 2.2 5.988 2.049 7.96 4.657.32.448.922.577 1.392.3l14.052-8.273c.524-.308.69-.997.369-1.52-.834-1.35-1.582-2.781-2.998-7.195-.047-.145-.102-.285-.14-.43l-.002.003zM38.498 53.406a1.888 1.888 0 0 1-2.593-.708 1.953 1.953 0 0 1-.187-1.468c.132-.5.445-.918.882-1.176l14.242-8.385a1.888 1.888 0 0 1 2.593.708c.253.446.32.967.187 1.468a1.918 1.918 0 0 1-.882 1.176l-14.242 8.385z" fill="#fff"/>
    <path d="M26.592 13.897a1.628 1.628 0 0 1 .579-2.201l5.477-3.225a1.563 1.563 0 0 1 2.16.59 1.629 1.629 0 0 1-.58 2.2l-5.477 3.225a1.563 1.563 0 0 1-2.16-.589zM1.944 28.408a1.628 1.628 0 0 1 .58-2.202L8 22.982a1.563 1.563 0 0 1 2.16.589 1.628 1.628 0 0 1-.58 2.201l-5.476 3.225a1.563 1.563 0 0 1-2.16-.59zM20.834 9.394c-.844-.23-1.344-1.113-1.117-1.972l1.638-6.227a1.578 1.578 0 0 1 1.936-1.14c.843.23 1.343 1.113 1.117 1.973l-1.639 6.227a1.578 1.578 0 0 1-1.935 1.14zM13.635 10.363a1.563 1.563 0 0 1-2.16-.59l-3.16-5.58a1.628 1.628 0 0 1 .58-2.202 1.563 1.563 0 0 1 2.16.589l3.16 5.581a1.628 1.628 0 0 1-.58 2.202zM9.215 16.235a1.578 1.578 0 0 1-1.936 1.14L1.17 15.708c-.843-.23-1.343-1.113-1.117-1.973a1.578 1.578 0 0 1 1.936-1.14l6.108 1.667c.843.23 1.343 1.113 1.117 1.973zM43.047 18.449l-.005-.008c-1.394-1.975-3.796-2.59-5.712-1.462a4.315 4.315 0 0 0-1.356 1.26c-1.342-1.14-3.246-1.328-4.827-.454l-.007.004a4.263 4.263 0 0 0-1.397 1.332 4.28 4.28 0 0 0-2.913-.89c-.443.031-.88.136-1.297.313a4.238 4.238 0 0 0-1.663 1.268l-1.919-3.39a4.268 4.268 0 0 0-5.808-1.636l-.007.004a4.29 4.29 0 0 0-1.961 2.567 4.36 4.36 0 0 0 .407 3.334l6.04 10.66a72.355 72.355 0 0 0 1.705 2.81l-2.001-.546c-1.065-.29-2.256-.114-3.267.48-.962.566-1.653 1.433-1.949 2.442-.642 2.194.348 4.128 2.715 5.307l8.891 4.472c1.414.667 2.498 1.115 3.37 1.475 2.164.893 2.894 1.194 4.08 2.762.087.117.184.229.292.33a3.338 3.338 0 0 0 .316 2.484c.883 1.56 2.849 2.097 4.38 1.195l14.242-8.384c1.532-.902 2.06-2.906 1.176-4.467a3.208 3.208 0 0 0-2.07-1.551 2.507 2.507 0 0 0-.29-.67c-.735-1.191-1.463-2.542-2.9-7.018l-.024-.07-.053-.164c-1.679-6.345-6.138-13.709-6.183-13.782l-.004-.008h-.001zm-6.063 33.128a.621.621 0 0 1 .134-.252c.068-.03.136-.066.203-.106l14.052-8.273c.089-.052.175-.111.26-.176a.577.577 0 0 1 .308.001.585.585 0 0 1 .416.731l-.008.03a.59.59 0 0 1-.262.335l-14.242 8.385a.59.59 0 0 1-.86-.674v-.001zm9.633-18.613c.032.126.073.245.107.345l.054.16c1.446 4.506 2.27 6.064 3.017 7.213l-13.598 8.026c-1.615-2.068-3.004-2.638-5.266-3.565a60.877 60.877 0 0 1-3.049-1.322l-8.86-4.458c-1.663-.83-1.425-1.646-1.311-2.038.106-.363.351-.674.69-.873.373-.22.807-.278 1.222-.166l5.565 1.519a1.361 1.361 0 0 0 1.47-.555 1.408 1.408 0 0 0-.021-1.597 67.047 67.047 0 0 1-3.545-5.481l-6.157-10.865a1.566 1.566 0 0 1-.146-1.2c.11-.396.368-.723.748-.947.713-.394 1.642-.105 2.067.645l6.511 11.5c.08.143.185.267.32.382a1.326 1.326 0 0 0 1.533.124 1.4 1.4 0 0 0 .497-1.889l-2.64-4.663a1.303 1.303 0 0 1-.116-.29 1.565 1.565 0 0 1 .56-1.697c.034-.024.062-.042.138-.089l.044-.025c.162-.09.337-.146.52-.166.612-.07 1.234.255 1.547.809l3.685 6.509c.374.66 1.206.887 1.853.505.648-.381.87-1.23.496-1.892-.11-.193-2.52-4.453-2.652-4.689a1.492 1.492 0 0 1-.16-.605 1.565 1.565 0 0 1 .078-.6c.12-.362.37-.663.72-.87.713-.393 1.642-.105 2.067.645l3.79 6.694c.373.66 1.205.887 1.853.506.648-.382.871-1.231.497-1.892L38.1 21.439a1.562 1.562 0 0 1 .588-2.067c.756-.445 1.65-.015 2.111.619.031.054.193.327.455.79 1.21 2.138 4.156 7.604 5.366 12.181l-.003.002z" fill="#000"/>
</svg>
