<svg width="70" height="54" viewBox="0 0 70 54" fill="none" xmlns="http://www.w3.org/2000/svg">
    <mask id="n8gt58m7ta" style="mask-type:alpha" maskUnits="userSpaceOnUse" x="0" y="0" width="70" height="54">
        <path fill="#D9D9D9" d="M0 0h70v54H0z"/>
    </mask>
    <g mask="url(#n8gt58m7ta)">
        <path style="mix-blend-mode:multiply" d="M.687 49.7c0 4.032 11.227 7.297 25.073 7.297 13.848 0 25.074-3.265 25.074-7.297 0-4.033-11.226-7.298-25.074-7.298-13.847 0-25.073 3.27-25.073 7.297z" fill="url(#1a7ipbyoob)"/>
        <path d="m45.798 40.077-6.68-.253-7.821-6.922 6.448.02 8.053 7.155z" fill="#2094CE"/>
        <mask id="edmb6dw9gc" style="mask-type:luminance" maskUnits="userSpaceOnUse" x="31" y="24" width="9" height="9">
            <path d="m37.745 32.923-6.448-.019a10.9 10.9 0 0 0 1.816-4.535c.088-.56.135-1.131.135-1.718 0-.162 0-.323-.012-.48a9.875 9.875 0 0 0-.035-.476c-.015-.157-.03-.314-.05-.468a9.616 9.616 0 0 0-.069-.46l6.502-.257c.027.157.05.318.073.48.024.16.039.322.054.483a10.166 10.166 0 0 1 .047.99c0 .606-.047 1.197-.139 1.776a11.438 11.438 0 0 1-1.027 3.25c-.247.502-.531.982-.843 1.434h-.004z" fill="#fff"/>
        </mask>
        <g mask="url(#edmb6dw9gc)">
            <path d="m37.745 32.923-6.448-.019a10.9 10.9 0 0 0 1.816-4.535c.088-.56.135-1.131.135-1.718 0-.162 0-.323-.012-.48a9.875 9.875 0 0 0-.035-.476c-.015-.157-.03-.314-.05-.468a9.616 9.616 0 0 0-.069-.46l6.502-.257c.027.157.05.318.073.48.024.16.039.322.054.483a10.166 10.166 0 0 1 .047.99c0 .606-.047 1.197-.139 1.776a11.438 11.438 0 0 1-1.027 3.25c-.247.502-.531.982-.843 1.434" fill="#48A9E5"/>
        </g>
        <path d="m50.11 24.561.035.48c.012.161.02.322.027.483.008.162.012.323.016.488 0 .16.008.326.008.487 0 1.281-.104 2.532-.3 3.752a22.812 22.812 0 0 1-2.251 6.837 22.562 22.562 0 0 1-1.851 2.989l-8.053-7.156c.316-.452.597-.936.843-1.434.246-.503.458-1.029.63-1.57.174-.544.305-1.105.397-1.68a11.692 11.692 0 0 0 .127-2.275c-.008-.165-.02-.33-.035-.491-.015-.161-.03-.323-.053-.484a20.801 20.801 0 0 0-.073-.48l10.53.054h.004z" fill="#7DD5ED"/>
        <path d="M37.264 33.831c.12-.153.234-.314.346-.476l-6.783.254c-.108.157-.223.31-.339.46-.076.1-.157.196-.238.292-.042.05-.08.103-.127.153-.062.073-.13.142-.196.215-.066.069-.127.142-.197.211-.061.065-.127.123-.192.188-.07.069-.138.142-.212.207-.192.177-.396.35-.6.51l-.138.108a9.359 9.359 0 0 1-.647.456c-.219.142-.446.269-.677.392-.058.03-.111.061-.169.088-.23.119-.466.226-.704.326l-.092.035c-.208.08-.42.157-.631.222-.066.02-.127.042-.193.058a9.451 9.451 0 0 1-.796.2 8.77 8.77 0 0 1-.72.11l-.196.023a8.934 8.934 0 0 1-.793.05c2.186-.034 4.371-.073 6.553-.107.277-.004.546-.027.815-.054.035 0 .066 0 .1-.008.035 0 .07-.011.104-.015a11.06 11.06 0 0 0 .781-.123h.012c.204-.042.4-.092.6-.145.054-.016.104-.035.158-.05l.092-.023.108-.039c.22-.069.438-.145.65-.23.023-.011.05-.015.073-.027.008 0 .012-.007.02-.007.25-.104.492-.22.73-.338.027-.015.054-.023.081-.038.031-.016.058-.035.085-.05.065-.035.135-.066.2-.104.408-.23.796-.49 1.17-.775.026-.019.053-.034.08-.057l.07-.058c.204-.161.404-.326.592-.502l.02-.02c.003-.004.011-.007.015-.011.088-.08.173-.169.258-.253l.142-.139.015-.015c.089-.092.173-.188.258-.28.042-.046.085-.092.127-.142 0 0 .008-.008.008-.011.096-.116.192-.23.285-.35.026-.034.053-.065.08-.096 0 0 0-.003.004-.007l.008-.008z" fill="#C8D4DB"/>
        <path d="M23.16 47.996a19.883 19.883 0 0 1-2.467-.982c-.8-.38-1.57-.814-2.316-1.293l4.167-10.643-6.353.2-4.043 10.293a20.41 20.41 0 0 0 2.247 1.25 18.92 18.92 0 0 0 2.393.949 19.208 19.208 0 0 0 5.144.913c2.174.084 4.348.168 6.521.257a19.64 19.64 0 0 1-5.298-.94l.004-.004z" fill="#C8D4DB"/>
        <path d="m37.61 33.355 7.926 7.14a21.578 21.578 0 0 1-3.17 3.465 20.47 20.47 0 0 1-3.836 2.658 19.84 19.84 0 0 1-4.382 1.715 19.514 19.514 0 0 1-4.813.622c-1 .004-1.982-.065-2.944-.203a19.337 19.337 0 0 1-2.827-.626 20.501 20.501 0 0 1-2.682-1.017 20.971 20.971 0 0 1-2.509-1.38l4.167-10.643a10.442 10.442 0 0 0 3.113 1.999 9.795 9.795 0 0 0 3.682.732c.854 0 1.681-.107 2.474-.314a9.693 9.693 0 0 0 2.247-.902 10.209 10.209 0 0 0 1.954-1.404 10.722 10.722 0 0 0 1.597-1.834l.004-.008z" fill="#FEFEFB"/>
        <path d="M38.545 21.065a10.804 10.804 0 0 0-2.243-2.839 10.076 10.076 0 0 0-3.035-1.887 9.714 9.714 0 0 0-3.602-.687l-6.49-.035c1.23 0 2.408.234 3.497.664a9.873 9.873 0 0 1 2.947 1.826 10.509 10.509 0 0 1 2.182 2.747c.573 1.04.985 2.195 1.192 3.422l6.776.326a11.29 11.29 0 0 0-1.228-3.537h.004zM17.423 17.538l6.317.1-5.267-9.79s.015-.008.023-.016l-6.187.242 5.114 9.464z" fill="#28B28A"/>
        <path d="M22.059 4.857c-.25.012-.496.03-.743.054l-.253.027c-.162.015-.32.034-.478.053a1.701 1.701 0 0 0-.138.016c-.054.007-.108.019-.162.027-.154.023-.304.046-.457.073l-.27.046c-.038.007-.077.011-.115.019-.043.007-.085.019-.127.027-.146.03-.296.057-.443.088-.204.046-.404.096-.604.146-.042.011-.088.019-.13.03-.27.07-.535.146-.8.227l-.278.092c-.042.015-.088.023-.13.038-.04.012-.078.03-.116.042-.323.112-.646.227-.966.353a.34.34 0 0 0-.065.031c-.093.038-.185.08-.277.119-.193.08-.389.161-.577.25-.077.034-.15.076-.227.11-.054.027-.108.047-.158.07l-.196.103-.32.158c-.138.072-.277.153-.411.23-.104.057-.212.115-.316.176-.046.027-.096.054-.146.08-.289.17-.57.346-.85.53l6.186-.238c.327-.215.662-.418 1-.614.108-.06.22-.122.328-.184a20.319 20.319 0 0 1 1.954-.955c.093-.038.181-.08.273-.119.35-.142.708-.272 1.07-.399.08-.027.162-.054.246-.08.37-.123.743-.235 1.12-.334.038-.008.077-.02.111-.027.358-.092.72-.173 1.085-.246.089-.019.178-.038.266-.053l.258-.046c.169-.031.338-.058.512-.081l.261-.035c.177-.023.354-.042.531-.06.08-.009.162-.02.242-.028.254-.023.512-.042.766-.053-2.15.11-4.305.218-6.456.33v.007z" fill="#45C9A6"/>
        <path d="M29.666 4.5c2.72.02 5.313.588 7.68 1.604a20.536 20.536 0 0 1 6.325 4.282 21.919 21.919 0 0 1 4.447 6.338 22.8 22.8 0 0 1 2.05 7.811l-10.395.07a11.292 11.292 0 0 0-1.227-3.538 10.804 10.804 0 0 0-2.243-2.84 10.075 10.075 0 0 0-3.036-1.887 9.713 9.713 0 0 0-3.601-.687 9.925 9.925 0 0 0-4.594 1.143 10.9 10.9 0 0 0-1.331.837l-5.268-9.79a21.062 21.062 0 0 1 2.551-1.436 20.133 20.133 0 0 1 2.736-1.055 20.203 20.203 0 0 1 2.89-.648 20.678 20.678 0 0 1 3.016-.203z" fill="#91E4D0"/>
        <path d="M13.364 42.226a21.909 21.909 0 0 1-3.14-4.4 22.655 22.655 0 0 1-2.027-5.191 23.322 23.322 0 0 1-.72-5.774c0-.376.012-.745.031-1.117 0-.069.008-.134.008-.203.02-.353.046-.702.08-1.051l.024-.211c.038-.357.085-.71.138-1.06 0-.022.008-.045.012-.068a21.092 21.092 0 0 1 .223-1.194c.066-.314.142-.625.223-.932.089-.349.189-.69.293-1.032.023-.073.042-.146.061-.215.131-.41.273-.817.427-1.216.043-.111.089-.219.135-.33.115-.287.235-.571.362-.855.061-.138.127-.273.192-.41.12-.254.242-.5.37-.745.072-.138.146-.276.219-.41.134-.242.273-.48.411-.718l.227-.38c.166-.265.339-.522.512-.779.062-.088.115-.176.177-.264.239-.338.489-.668.743-.99.057-.073.119-.142.177-.215a18.827 18.827 0 0 1 .915-1.044c.185-.2.373-.391.562-.583.108-.107.215-.21.327-.314.227-.22.458-.43.696-.637.047-.039.089-.08.135-.12.289-.245.585-.483.885-.713l.212-.16c.311-.231.627-.457.95-.672l-6.69.61c-.224.145-.447.299-.666.456-.085.062-.17.127-.258.192-.07.05-.139.104-.208.157-.058.046-.123.089-.18.135-.212.165-.424.337-.628.51a2.697 2.697 0 0 1-.17.15c-.145.126-.295.253-.438.387-.084.077-.165.161-.25.238-.108.1-.212.203-.315.307-.189.184-.37.376-.55.571-.066.07-.131.13-.197.2-.027.03-.054.065-.08.096-.216.238-.424.483-.628.733-.05.061-.1.119-.15.176-.238.296-.47.599-.689.91-.011.019-.023.038-.038.057-.058.08-.108.161-.165.242-.174.253-.343.506-.508.763-.077.119-.146.242-.223.365-.135.226-.27.456-.397.686-.034.066-.077.13-.115.196-.039.07-.07.142-.108.215-.123.234-.238.468-.35.706-.065.134-.13.268-.192.406-.027.062-.058.123-.085.185-.092.207-.173.422-.262.637-.042.107-.088.21-.13.322-.15.387-.289.779-.416 1.178-.02.065-.038.13-.058.2-.104.333-.2.667-.288 1.008l-.035.119c-.027.1-.042.203-.07.307-.041.18-.092.36-.13.54-.02.093-.035.185-.05.277-.03.157-.062.319-.088.48a27.547 27.547 0 0 0-.189 1.293c-.035.295-.062.59-.08.886l-.035.418a22.403 22.403 0 0 0 .658 6.91 21.63 21.63 0 0 0 1.97 5.022 21.143 21.143 0 0 0 3.047 4.255 20.04 20.04 0 0 0 3.936 3.299l6.694.61a20.751 20.751 0 0 1-4.047-3.41l.011.003z" fill="#F2C357"/>
        <path d="m17.215 8.223 5.145 9.714a10.438 10.438 0 0 0-1.801 1.695c-.535.641-1 1.347-1.385 2.107-.385.763-.685 1.58-.889 2.436-.204.86-.315 1.757-.315 2.682 0 .82.084 1.619.25 2.386a11.156 11.156 0 0 0 1.816 4.159c.43.606.92 1.162 1.454 1.657l-4.078 10.57a20.754 20.754 0 0 1-4.048-3.41 21.911 21.911 0 0 1-3.14-4.401 22.655 22.655 0 0 1-2.027-5.191 23.323 23.323 0 0 1-.72-5.774c0-1.999.247-3.89.705-5.713A22.589 22.589 0 0 1 10.167 16a21.923 21.923 0 0 1 3.074-4.374 20.713 20.713 0 0 1 3.974-3.411v.008z" fill="#FFEA94"/>
        <path style="mix-blend-mode:multiply" d="M53.863 55.423c10.468 0 18.955-2.184 18.955-4.878 0-2.695-8.487-4.879-18.955-4.879-10.469 0-18.955 2.184-18.955 4.879 0 2.694 8.486 4.878 18.955 4.878z" fill="url(#tafw98m38d)"/>
        <path d="m42.47 50.314-3.023-1.32V23.808l3.023-1.32v27.825z" fill="#CFDDE5"/>
        <path d="M67.625 23.45v25.905l-25.155.959V22.488l25.155.962z" fill="#FEFEFB"/>
        <path d="m62.594 33.277-1.44-.005-.973-.889 1.424-.01.989.904z" fill="#F96B6B"/>
        <path d="m60.23 31.109-1.4.037-.962-.88 1.382-.053.98.896z" fill="#F25151"/>
        <path d="m61.929 28.75-2.022.756-2.04.76 1.383-.052 2.077-.776 2.055-.77-1.453.081zM57.582 34.094l-1.356-.024 2.604-2.924 1.401-.037-2.649 2.985zM57.532 36.985l-1.356-.08-3.796-4.552 1.288-.013 3.864 4.645zM48.41 35.997l-1.197-.063 5.118-6.558 1.285-.073-5.207 6.694z" fill="#F96B6B"/>
        <path d="m49.873 37.241-1.222-.09-1.438-1.217 1.196.063 1.464 1.244z" fill="#F25151"/>
        <path d="m61.327 29.438 2.056-.77-.395 2.303-.394 2.306-.988-.904-4.074 4.611-3.863-4.645-3.796 4.902-1.464-1.245 5.207-6.694 3.966 4.792 2.65-2.984-.981-.896 2.076-.776z" fill="#FF9292"/>
        <path d="M53.027 21.145c.042-.091.092-.18.142-.267l.024-.04c.029-.046.063-.086.094-.13.042-.055.084-.115.129-.168.032-.037.068-.073.103-.107.055-.055.107-.11.168-.16l.06-.05.06-.047c.035-.026.069-.05.106-.073.02-.014.042-.03.063-.042l.11-.063.066-.034c.047-.024.092-.042.14-.063.012-.008.028-.013.041-.018.032-.014.063-.024.095-.035a.963.963 0 0 1 .079-.028l.108-.03.07-.018.105-.018c.027-.005.053-.01.08-.013a4.1 4.1 0 0 1 .189-.018c-.334.015-.668.031-1.002.05-.323.015-.649.03-.972.047-.063.002-.124.01-.184.015-.019.003-.04.008-.058.01-.042.009-.082.014-.12.022-.014 0-.03.008-.043.01-.045.01-.09.021-.131.034l-.042.016-.119.04s-.005 0-.008.002h-.002a3.785 3.785 0 0 0-.173.079c-.006 0-.011.005-.016.007a.61.61 0 0 0-.042.024l-.11.063-.03.016a.387.387 0 0 0-.034.023l-.1.068c-.01.01-.023.016-.034.027-.008.007-.016.015-.026.02a.27.27 0 0 0-.032.027c-.01.008-.016.015-.023.023a.94.94 0 0 0-.077.066c-.031.029-.057.063-.086.091-.035.035-.066.069-.098.103a.49.49 0 0 0-.036.039c-.032.04-.06.084-.09.126-.02.028-.044.055-.063.08-.01.014-.016.03-.026.043-.003.005-.008.01-.01.016-.006.007-.009.015-.014.023-.05.084-.097.17-.14.26 0 .002-.004.005-.004.01a2.6 2.6 0 0 0-.118.314l1.918-.044a2.93 2.93 0 0 1 .126-.335l-.013.007zM50.811 26.336l-1.863-.097v-4.72l1.863-.046v4.863z" fill="#48A9E5"/>
        <path d="M57.487 19.736c.263 0 .518.05.755.136.236.087.457.212.651.367.197.157.368.346.51.558.142.212.255.448.331.702l1.864.005v4.761l-10.79.07v-4.862l2.09.008a2.522 2.522 0 0 1 .862-1.268 2.283 2.283 0 0 1 1.43-.49l2.295.015.002-.002z" fill="#7DD5ED"/>
        <path d="m47.442 41.932-1.201.003-.014-1.357 1.202-.021.013 1.375z" fill="#57CEAE"/>
        <path d="m63.934 40.41.013 1.347-16.505.175-.013-1.375 16.505-.147z" fill="#91E4D0"/>
        <path d="m47.492 45.568-1.201.002-.013-1.36 1.2-.02.014 1.378z" fill="#57CEAE"/>
        <path d="m63.984 44.043.013 1.347-16.505.178-.013-1.378 16.505-.147z" fill="#91E4D0"/>
    </g>
    <defs>
        <radialGradient id="1a7ipbyoob" cx="0" cy="0" r="1" gradientUnits="userSpaceOnUse" gradientTransform="matrix(-25.2312 0 0 -6.33792 25.73 17.76)">
            <stop stop-color="#C7C7C7"/>
            <stop offset="1" stop-color="#fff"/>
        </radialGradient>
        <radialGradient id="tafw98m38d" cx="0" cy="0" r="1" gradientUnits="userSpaceOnUse" gradientTransform="matrix(-19.0639 0 0 -4.23758 54.236 28.733)">
            <stop stop-color="gray"/>
            <stop offset="1" stop-color="#fff"/>
        </radialGradient>
    </defs>
</svg>
