<svg width="24" height="24" viewBox="0 0 24 24" fill="none" xmlns="http://www.w3.org/2000/svg">
<path d="M11.9718 11C12.237 11 12.4914 11.1054 12.6789 11.2929C12.8665 11.4804 12.9718 11.7348 12.9718 12V15C12.9718 15.2652 12.8665 15.5196 12.6789 15.7071C12.4914 15.8946 12.237 16 11.9718 16C11.7066 16 11.4522 15.8946 11.2647 15.7071C11.0772 15.5196 10.9718 15.2652 10.9718 15V12C10.9718 11.7348 11.0772 11.4804 11.2647 11.2929C11.4522 11.1054 11.7066 11 11.9718 11ZM11.9718 8C12.1696 8 12.3629 8.05865 12.5274 8.16853C12.6918 8.27841 12.82 8.43459 12.8957 8.61732C12.9714 8.80004 12.9912 9.00111 12.9526 9.19509C12.914 9.38907 12.8188 9.56725 12.6789 9.70711C12.5391 9.84696 12.3609 9.9422 12.1669 9.98079C11.9729 10.0194 11.7719 9.99957 11.5891 9.92388C11.4064 9.84819 11.2502 9.72002 11.1403 9.55557C11.0305 9.39112 10.9718 9.19778 10.9718 9C10.9718 8.73478 11.0772 8.48043 11.2647 8.29289C11.4522 8.10536 11.7066 8 11.9718 8ZM11.9718 2C13.285 2 14.5854 2.25866 15.7986 2.7612C17.0119 3.26375 18.1143 4.00035 19.0429 4.92893C20.9182 6.8043 21.9718 9.34784 21.9718 12C21.9806 14.3091 21.181 16.5485 19.7118 18.33L21.7118 20.33C21.8506 20.4706 21.9446 20.6492 21.9819 20.8432C22.0193 21.0372 21.9984 21.2379 21.9218 21.42C21.8388 21.5999 21.7041 21.7511 21.535 21.8544C21.3658 21.9577 21.1698 22.0083 20.9718 22H11.9718C9.31965 22 6.77611 20.9464 4.90075 19.0711C3.02538 17.1957 1.97181 14.6522 1.97181 12C1.97181 9.34784 3.02538 6.8043 4.90075 4.92893C6.77611 3.05357 9.31965 2 11.9718 2ZM11.9718 20H18.5618L17.6318 19.07C17.5373 18.9774 17.4622 18.8669 17.4107 18.7451C17.3592 18.6232 17.3324 18.4923 17.3318 18.36C17.3356 18.0962 17.4434 17.8446 17.6318 17.66C18.9412 16.352 19.7566 14.6305 19.9391 12.7888C20.1216 10.947 19.6599 9.09901 18.6326 7.55952C17.6053 6.02004 16.076 4.88436 14.3053 4.34597C12.5346 3.80759 10.632 3.8998 8.9216 4.60691C7.21124 5.31402 5.79896 6.59227 4.92537 8.22389C4.05179 9.85551 3.77094 11.7395 4.13069 13.555C4.49043 15.3705 5.46851 17.005 6.89828 18.1802C8.32804 19.3554 10.1211 19.9985 11.9718 20Z" fill="#535353"/>
</svg>
