<svg width="80" height="80" viewBox="0 0 80 80" fill="none" xmlns="http://www.w3.org/2000/svg">
<path d="M22.6089 54.1738C22.6089 53.0693 23.5043 52.1738 24.6089 52.1738H55.3915C56.4961 52.1738 57.3915 53.0693 57.3915 54.1738V77.0459C57.3915 78.4608 55.9624 79.4283 54.6487 78.9028L40.743 73.3405C40.2661 73.1498 39.7342 73.1498 39.2574 73.3405L25.3517 78.9028C24.0379 79.4283 22.6089 78.4608 22.6089 77.0458V54.1738Z" fill="url(#paint0_linear_2471_34672)"/>
<path d="M35.6164 4.69017C37.9879 2.15273 42.0119 2.15273 44.3834 4.69017L48.1214 8.68967C49.3043 9.95524 50.9763 10.6478 52.7076 10.5893L58.1788 10.4044C61.65 10.2871 64.4954 13.1325 64.3781 16.6037L64.1932 22.0749C64.1347 23.8062 64.8273 25.4783 66.0928 26.6611L70.0923 30.3991C72.6298 32.7706 72.6298 36.7946 70.0923 39.1661L66.0928 42.9041C64.8273 44.087 64.1347 45.759 64.1932 47.4903L64.3781 52.9616C64.4954 56.4327 61.65 59.2781 58.1788 59.1608L52.7076 58.9759C50.9763 58.9174 49.3042 59.61 48.1214 60.8755L44.3834 64.8751C42.0119 67.4125 37.9879 67.4125 35.6164 64.8751L31.8784 60.8755C30.6955 59.61 29.0235 58.9174 27.2922 58.9759L21.8209 59.1608C18.3498 59.2781 15.5044 56.4327 15.6217 52.9616L15.8066 47.4903C15.8651 45.759 15.1725 44.087 13.907 42.9041L9.90745 39.1661C7.37001 36.7946 7.37001 32.7706 9.90745 30.3991L13.907 26.6611C15.1725 25.4783 15.8651 23.8062 15.8066 22.0749L15.6217 16.6037C15.5044 13.1325 18.3498 10.2871 21.8209 10.4044L27.2922 10.5893C29.0235 10.6478 30.6955 9.95524 31.8784 8.68967L35.6164 4.69017Z" fill="url(#paint1_linear_2471_34672)"/>
<path d="M19.1304 34.7827C19.1304 23.2567 28.474 13.9131 39.9999 13.9131C51.5259 13.9131 60.8695 23.2567 60.8695 34.7827C60.8695 46.3086 51.5259 55.6522 39.9999 55.6522C28.474 55.6522 19.1304 46.3086 19.1304 34.7827Z" fill="url(#paint2_linear_2471_34672)"/>
<path d="M38.2065 25.3732C38.9402 23.8867 41.0599 23.8867 41.7935 25.3732L43.3681 28.5637C43.6594 29.1539 44.2225 29.5631 44.8739 29.6577L48.3948 30.1693C50.0352 30.4077 50.6902 32.4237 49.5032 33.5807L46.9555 36.0641C46.4841 36.5236 46.269 37.1856 46.3803 37.8344L46.9817 41.341C47.262 42.9748 45.5471 44.2207 44.0798 43.4494L40.9307 41.7938C40.3481 41.4874 39.652 41.4874 39.0693 41.7938L35.9202 43.4494C34.4529 44.2207 32.7381 42.9748 33.0183 41.341L33.6197 37.8344C33.731 37.1856 33.5159 36.5236 33.0445 36.0641L30.4968 33.5807C29.3098 32.4237 29.9648 30.4077 31.6053 30.1693L35.1261 29.6577C35.7775 29.5631 36.3407 29.1539 36.632 28.5637L38.2065 25.3732Z" fill="url(#paint3_linear_2471_34672)"/>
<defs>
<linearGradient id="paint0_linear_2471_34672" x1="22.6089" y1="52.1738" x2="51.2697" y2="85.297" gradientUnits="userSpaceOnUse">
<stop stop-color="#0C82E9"/>
<stop offset="1" stop-color="#4DC3F5"/>
</linearGradient>
<linearGradient id="paint1_linear_2471_34672" x1="5.21729" y1="0" x2="71.2534" y2="63.4963" gradientUnits="userSpaceOnUse">
<stop stop-color="#FFCC48"/>
<stop offset="1" stop-color="#FFE248"/>
</linearGradient>
<linearGradient id="paint2_linear_2471_34672" x1="19.1304" y1="13.9131" x2="62.4391" y2="53.9545" gradientUnits="userSpaceOnUse">
<stop stop-color="#FF5C01"/>
<stop offset="1" stop-color="#FFA901"/>
</linearGradient>
<linearGradient id="paint3_linear_2471_34672" x1="41.3362" y1="61.9345" x2="26.6583" y2="28.4721" gradientUnits="userSpaceOnUse">
<stop stop-color="#DDDDDD"/>
<stop offset="1" stop-color="#F8F8F8"/>
</linearGradient>
</defs>
</svg>
