<svg width="80" height="80" viewBox="0 0 80 80" fill="none" xmlns="http://www.w3.org/2000/svg">
<path d="M4.34766 21.9131C4.34766 17.4948 7.92938 13.9131 12.3477 13.9131H65.9129C70.3311 13.9131 73.9129 17.4948 73.9129 21.9131V63.3044C73.9129 67.7227 70.3311 71.3044 65.9129 71.3044H12.3477C7.92938 71.3044 4.34766 67.7227 4.34766 63.3044V21.9131Z" fill="url(#paint0_linear_2471_34837)"/>
<path d="M8.69531 24.2607C8.69531 20.947 11.3816 18.2607 14.6953 18.2607H63.5649C66.8786 18.2607 69.5649 20.947 69.5649 24.2607V61.826C69.5649 65.1397 66.8786 67.826 63.5649 67.826H14.6953C11.3816 67.826 8.69531 65.1397 8.69531 61.826V24.2607Z" fill="url(#paint1_linear_2471_34837)"/>
<path d="M0 64.348C0 63.3875 0.778635 62.6089 1.73913 62.6089H76.5217C77.4822 62.6089 78.2609 63.3875 78.2609 64.348C78.2609 68.19 75.1463 71.3045 71.3044 71.3045H6.95651C3.11453 71.3045 0 68.19 0 64.348Z" fill="url(#paint2_linear_2471_34837)"/>
<circle cx="28.6956" cy="39.9998" r="2.1087" fill="#111111" stroke="black"/>
<circle cx="39.1302" cy="39.9998" r="2.1087" fill="#111111" stroke="black"/>
<circle cx="49.5648" cy="39.9998" r="2.1087" fill="#111111" stroke="black"/>
<circle cx="64.3475" cy="64.348" r="15.6522" fill="url(#paint3_linear_2471_34837)"/>
<circle cx="62.608" cy="62.609" r="5.21739" stroke="white" stroke-width="2.5"/>
<path d="M69.5499 71.3191C70.038 71.8073 70.8295 71.8073 71.3176 71.3191C71.8058 70.831 71.8058 70.0395 71.3176 69.5513L69.5499 71.3191ZM65.2021 66.9713L69.5499 71.3191L71.3176 69.5513L66.9698 65.2035L65.2021 66.9713Z" fill="white"/>
<defs>
<linearGradient id="paint0_linear_2471_34837" x1="4.34766" y1="13.9131" x2="63.6949" y2="80.4221" gradientUnits="userSpaceOnUse">
<stop stop-color="#0C82E9"/>
<stop offset="1" stop-color="#4DC3F5"/>
</linearGradient>
<linearGradient id="paint1_linear_2471_34837" x1="42.2478" y1="94.6316" x2="18.2333" y2="27.3978" gradientUnits="userSpaceOnUse">
<stop stop-color="#DDDDDD"/>
<stop offset="1" stop-color="#F8F8F8"/>
</linearGradient>
<linearGradient id="paint2_linear_2471_34837" x1="0" y1="62.6089" x2="2.14435" y2="80.4521" gradientUnits="userSpaceOnUse">
<stop stop-color="#0C82E9"/>
<stop offset="1" stop-color="#4DC3F5"/>
</linearGradient>
<linearGradient id="paint3_linear_2471_34837" x1="48.6953" y1="48.6958" x2="81.1769" y2="78.7268" gradientUnits="userSpaceOnUse">
<stop stop-color="#FF5C01"/>
<stop offset="1" stop-color="#FFA901"/>
</linearGradient>
</defs>
</svg>
