<svg width="19" height="18" viewBox="0 0 19 18" fill="none" xmlns="http://www.w3.org/2000/svg">
<path d="M7.75 7C7.75 6.58579 7.41421 6.25 7 6.25C6.58579 6.25 6.25 6.58579 6.25 7H7.75ZM6.25 17C6.25 17.4142 6.58579 17.75 7 17.75C7.41421 17.75 7.75 17.4142 7.75 17H6.25ZM4.5 1.75H14.5V0.25H4.5V1.75ZM16.75 4V14H18.25V4H16.75ZM14.5 16.25H4.5V17.75H14.5V16.25ZM2.25 14V4H0.75V14H2.25ZM4.5 16.25C3.25736 16.25 2.25 15.2426 2.25 14H0.75C0.75 16.0711 2.42893 17.75 4.5 17.75V16.25ZM16.75 14C16.75 15.2426 15.7426 16.25 14.5 16.25V17.75C16.5711 17.75 18.25 16.0711 18.25 14H16.75ZM14.5 1.75C15.7426 1.75 16.75 2.75736 16.75 4H18.25C18.25 1.92893 16.5711 0.25 14.5 0.25V1.75ZM4.5 0.25C2.42893 0.25 0.75 1.92893 0.75 4H2.25C2.25 2.75736 3.25736 1.75 4.5 1.75V0.25ZM6.25 7V17H7.75V7H6.25ZM2 7.25H17V5.75H2V7.25Z" fill="#777777"/>
</svg>
