<svg width="16" height="16" viewBox="0 0 16 16" fill="none" xmlns="http://www.w3.org/2000/svg">
    <g clip-path="url(#wiesdedvxa)">
        <path d="M12.5 5.5h-.75V4.071C11.75 2.1 10.07.5 8 .5 5.93.5 4.25 2.1 4.25 4.071V5.5H3.5c-.829 0-1.5.64-1.5 1.429v7.142c0 .79.671 1.429 1.5 1.429h9c.829 0 1.5-.64 1.5-1.429V6.93c0-.79-.671-1.429-1.5-1.429zM8 11.929c-.829 0-1.5-.64-1.5-1.429 0-.79.671-1.429 1.5-1.429s1.5.64 1.5 1.429c0 .79-.671 1.429-1.5 1.429zM10.325 5.5h-4.65V4.071C5.675 2.85 6.718 1.857 8 1.857c1.283 0 2.325.993 2.325 2.214V5.5z" fill="#111"/>
    </g>
    <defs>
        <clipPath id="wiesdedvxa">
            <path fill="#fff" d="M0 0h16v16H0z"/>
        </clipPath>
    </defs>
</svg>
