<svg width="29" height="39" viewBox="0 0 29 39" fill="none" xmlns="http://www.w3.org/2000/svg">
    <g clip-path="url(#0v0ynkb2ga)">
        <path d="M26.408 17.366v-5.614c0-6.48-5.338-11.76-11.908-11.76-6.57 0-11.9 5.28-11.9 11.768v5.614H0v21.634h29V17.373h-2.6l.008-.008zm-10.483 10.24c0 .04.024.08.024.12v3.252a1.43 1.43 0 0 1-1.44 1.423 1.43 1.43 0 0 1-1.442-1.423v-3.252c0-.04.024-.08.024-.12a2.666 2.666 0 0 1-1.296-2.274c0-1.478 1.216-2.679 2.713-2.679 1.498 0 2.713 1.2 2.713 2.68 0 .962-.523 1.804-1.296 2.274zm6.787-10.24H6.296v-5.614c0-4.468 3.68-8.102 8.204-8.102 4.525 0 8.204 3.634 8.204 8.102v5.614h.008z" fill="#FF8401"/>
    </g>
    <defs>
        <clipPath id="0v0ynkb2ga">
            <path fill="#fff" d="M0 0h29v39H0z"/>
        </clipPath>
    </defs>
</svg>
