<svg width="14" height="14" viewBox="0 0 14 14" fill="none" xmlns="http://www.w3.org/2000/svg">
<path d="M5.28915 2.35328L5.88938 1.44758C6.07462 1.16807 6.38762 1 6.72295 1H7.27851C7.61263 1 7.92468 1.16687 8.1102 1.44476L8.70266 2.33219M5.28915 2.35328C5.09095 2.65019 4.7615 2.79567 4.41182 2.76973M5.28915 2.35328C5.08999 2.64947 4.7615 2.79688 4.41182 2.76973M4.41182 2.76973L3.36258 2.70057C3.0323 2.6788 2.71265 2.82186 2.50885 3.08267L2.12089 3.57914C1.91928 3.83714 1.85675 4.17749 1.95348 4.49031L2.27037 5.51503M2.27037 5.51503C2.32118 5.68803 2.32769 5.87336 2.29132 6.0484M2.27037 5.51503C2.32191 5.68772 2.32817 5.87268 2.29108 6.0502M2.29132 6.0484C2.25448 6.22137 2.17548 6.3847 2.0582 6.51695M2.29132 6.0484L2.29108 6.0502M2.0582 6.51695L1.34121 7.32665C1.12708 7.56846 1.04294 7.8988 1.11528 8.21358L1.25465 8.82C1.32912 9.14404 1.55978 9.40988 1.87009 9.52929L2.82765 9.89779C2.99045 9.96395 3.13109 10.0715 3.23754 10.2069M2.0582 6.51695C2.17621 6.38578 2.25448 6.22298 2.29108 6.0502M3.23754 10.2069C3.34326 10.3428 3.41527 10.5067 3.4432 10.6842M3.23754 10.2069C3.34422 10.3428 3.41647 10.5063 3.4432 10.6842M3.23754 10.2069L3.23585 10.205C3.22887 10.1961 3.2214 10.1868 3.21418 10.1782M3.4432 10.6842L3.61044 11.7628C3.66062 12.0865 3.86606 12.365 4.16043 12.5085L4.67813 12.7609C4.97929 12.9077 5.33396 12.8939 5.62284 12.7242L6.50871 12.2038M6.50871 12.2038C6.66019 12.1145 6.82925 12.0697 6.99831 12.0695M6.50871 12.2038C6.56868 12.168 6.63153 12.1394 6.69607 12.118C6.79409 12.0853 6.8962 12.0693 6.99831 12.0695M6.99831 12.0695C7.08622 12.0697 7.17412 12.0819 7.25985 12.106C7.33957 12.1284 7.41712 12.1611 7.49057 12.2038M6.99831 12.0695C7.1681 12.0692 7.33812 12.114 7.49057 12.2038M7.49057 12.2038L8.42656 12.7359C8.7169 12.9009 9.07047 12.9101 9.369 12.7604L9.88567 12.5013C10.1786 12.3544 10.381 12.0733 10.4273 11.7489L10.5763 10.7068M10.5763 10.7068C10.603 10.5283 10.6741 10.3631 10.7796 10.2261M10.5763 10.7068C10.6021 10.5279 10.6736 10.3629 10.7796 10.2261M10.7796 10.2261C10.8843 10.0905 11.0233 9.98241 11.1851 9.9156M10.7796 10.2261C10.8841 10.0899 11.0226 9.98157 11.1851 9.9156M11.1851 9.9156L12.1602 9.51436C12.4639 9.38935 12.6869 9.12314 12.7568 8.80216L12.8926 8.17769C12.9601 7.86726 12.8762 7.54322 12.6663 7.30468L11.9413 6.48038M11.9413 6.48038C11.8219 6.34766 11.7385 6.18913 11.6981 6.02064M11.9413 6.48038C11.8852 6.41839 11.837 6.35063 11.7978 6.27878C11.753 6.1972 11.7195 6.11036 11.6981 6.02064M11.6981 6.02064C11.6583 5.85336 11.6608 5.67609 11.7111 5.50451L12.0255 4.44639C12.1177 4.13594 12.0539 3.80005 11.8542 3.54506L11.483 3.07092C11.2767 2.80755 10.9525 2.66473 10.6189 2.69038L9.58722 2.76973M9.58722 2.76973C9.41334 2.78263 9.24235 2.74785 9.09015 2.67303M9.58722 2.76973C9.4131 2.78337 9.24235 2.74831 9.09015 2.67303M9.09015 2.67303C8.93698 2.59726 8.8026 2.48074 8.70266 2.33219M9.09015 2.67303C8.93674 2.59754 8.80212 2.48133 8.70266 2.33219M2.29108 6.0502L2.29156 6.04757M8.93482 7.00637C8.93482 8.12534 8.05146 9.03242 6.96195 9.03242C5.87244 9.03242 4.98908 8.12534 4.98908 7.00637C4.98908 5.8874 5.87244 4.98032 6.96195 4.98032C8.05146 4.98032 8.93482 5.8874 8.93482 7.00637Z" stroke="white" stroke-width="1.2"/>
</svg>
