<svg width="40" height="40" viewBox="0 0 40 40" fill="none" xmlns="http://www.w3.org/2000/svg">
<rect x="0.5" y="0.5" width="39" height="39" rx="19.5" fill="white"/>
<path d="M26.328 22.808H22.704C22.4918 22.808 22.2883 22.8923 22.1383 23.0423C21.9883 23.1923 21.904 23.3958 21.904 23.608C21.904 23.8202 21.9883 24.0237 22.1383 24.1737C22.2883 24.3237 22.4918 24.408 22.704 24.408H24.624C23.7416 25.3302 22.6035 25.9675 21.3561 26.2379C20.1087 26.5084 18.809 26.3997 17.6238 25.9258C16.4387 25.4519 15.4223 24.6345 14.7053 23.5785C13.9883 22.5226 13.6033 21.2764 13.6 20C13.6 19.7878 13.5157 19.5843 13.3657 19.4343C13.2157 19.2843 13.0122 19.2 12.8 19.2C12.5878 19.2 12.3843 19.2843 12.2343 19.4343C12.0843 19.5843 12 19.7878 12 20C12.0042 21.5622 12.4658 23.0891 13.3277 24.392C14.1896 25.695 15.4141 26.7171 16.8502 27.3322C18.2863 27.9473 19.871 28.1284 21.4088 27.8533C22.9466 27.5782 24.3703 26.8588 25.504 25.784V27.2C25.504 27.4122 25.5883 27.6157 25.7383 27.7657C25.8883 27.9157 26.0918 28 26.304 28C26.5162 28 26.7197 27.9157 26.8697 27.7657C27.0197 27.6157 27.104 27.4122 27.104 27.2V23.6C27.102 23.3933 27.0201 23.1954 26.8755 23.0478C26.7308 22.9001 26.5346 22.8142 26.328 22.808ZM20 12C17.9491 12.0058 15.9788 12.7991 14.496 14.216V12.8C14.496 12.5878 14.4117 12.3843 14.2617 12.2343C14.1117 12.0843 13.9082 12 13.696 12C13.4838 12 13.2803 12.0843 13.1303 12.2343C12.9803 12.3843 12.896 12.5878 12.896 12.8V16.4C12.896 16.6122 12.9803 16.8157 13.1303 16.9657C13.2803 17.1157 13.4838 17.2 13.696 17.2H17.296C17.5082 17.2 17.7117 17.1157 17.8617 16.9657C18.0117 16.8157 18.096 16.6122 18.096 16.4C18.096 16.1878 18.0117 15.9843 17.8617 15.8343C17.7117 15.6843 17.5082 15.6 17.296 15.6H15.376C16.258 14.6783 17.3953 14.0412 18.6419 13.7705C19.8886 13.4998 21.1877 13.6078 22.3725 14.0807C23.5573 14.5536 24.5738 15.3698 25.2914 16.4245C26.009 17.4792 26.3951 18.7243 26.4 20C26.4 20.2122 26.4843 20.4157 26.6343 20.5657C26.7843 20.7157 26.9878 20.8 27.2 20.8C27.4122 20.8 27.6157 20.7157 27.7657 20.5657C27.9157 20.4157 28 20.2122 28 20C28 18.9494 27.7931 17.9091 27.391 16.9385C26.989 15.9679 26.3997 15.086 25.6569 14.3431C24.914 13.6003 24.0321 13.011 23.0615 12.609C22.0909 12.2069 21.0506 12 20 12Z" fill="black"/>
<rect x="0.5" y="0.5" width="39" height="39" rx="19.5" stroke="#DEDEDE"/>
</svg>
