<svg width="72" height="72" viewBox="0 0 72 72" fill="none" xmlns="http://www.w3.org/2000/svg">
<path d="M43.2133 7H6.78672C3.5908 7 1 9.47162 1 12.5205V59.4795C1 62.5284 3.5908 65 6.78672 65H43.2133C46.4092 65 49 62.5284 49 59.4795V12.5205C49 9.47162 46.4092 7 43.2133 7Z" fill="url(#paint0_linear_2543_69122)"/>
<path opacity="0.5" d="M48.9906 43V58.6578L41.4785 60.7096L31.3183 60.8947L25.4307 60.9993C23.5057 61.0315 21.7873 59.9855 21.2051 58.4165C20.6229 56.8475 21.3084 55.1336 22.9047 54.2083L27.7876 51.3761L36.2012 46.492L49 43H48.9906Z" fill="#A89F9D"/>
<path d="M63.4481 29.1065L52.8809 18.541L28.0266 43.3912L38.5938 53.9567L63.4481 29.1065Z" fill="url(#paint1_linear_2543_69122)"/>
<path d="M63.1843 13.751L68.2486 18.8145C69.7696 20.3352 69.7639 22.8014 68.2486 24.3165L66.0212 26.5435L55.454 15.978L57.6814 13.751C59.2024 12.2303 61.669 12.236 63.1843 13.751Z" fill="url(#paint2_linear_2543_69122)"/>
<path d="M66.0174 26.5362L55.4502 15.9707L52.8867 18.5338L63.4539 29.0992L66.0174 26.5362Z" fill="#F1F1F1"/>
<path d="M38.5989 53.9604L30.9375 58.1247L26.4985 60.5412C25.0484 61.3306 23.2518 61.0728 22.0917 59.9049C20.9316 58.7369 20.6577 56.9407 21.4553 55.4988L23.8722 51.0606L28.0372 43.4004L38.607 53.9684L38.5989 53.9604Z" fill="white"/>
<path d="M30.9375 58.1266L26.4985 60.5431C25.0484 61.3325 23.2518 61.0747 22.0917 59.9068C20.9316 58.7388 20.6577 56.9426 21.4553 55.5007L23.8722 51.0625L30.9455 58.1347L30.9375 58.1266Z" fill="#111111"/>
<defs>
<linearGradient id="paint0_linear_2543_69122" x1="27.4586" y1="64.1764" x2="4.07094" y2="20.0508" gradientUnits="userSpaceOnUse">
<stop stop-color="#EDEDED"/>
<stop offset="1" stop-color="white"/>
</linearGradient>
<linearGradient id="paint1_linear_2543_69122" x1="52.8809" y1="18.541" x2="63.5688" y2="43.0779" gradientUnits="userSpaceOnUse">
<stop stop-color="#FF5C01"/>
<stop offset="1" stop-color="#FFA901"/>
</linearGradient>
<linearGradient id="paint2_linear_2543_69122" x1="60.4329" y1="11" x2="56.5437" y2="22.3646" gradientUnits="userSpaceOnUse">
<stop stop-color="#FFCC48"/>
<stop offset="1" stop-color="#FFE248"/>
</linearGradient>
</defs>
</svg>
