<svg width="72" height="72" viewBox="0 0 72 72" fill="none" xmlns="http://www.w3.org/2000/svg">
<g clip-path="url(#clip0_2543_69139)">
<path d="M23.8352 32.8967V26.999C23.8352 21.9154 27.8563 17.787 32.8261 17.787H54.6588V15.212C54.6588 10.1284 50.6376 6 45.6679 6H8.99089C4.02928 6 0 10.1201 0 15.212V34.3254C0 39.409 4.02117 43.5374 8.99089 43.5374H10.5556V51.9769C10.5556 54.2944 13.5877 55.0752 14.6497 53.0318L19.6032 43.5374H23.8271V32.8967H23.8352Z" fill="#F1F1F1"/>
<path d="M63.0092 17.7871H54.6507V21.1097V34.3255C54.6507 39.4091 50.6295 43.5375 45.6598 43.5375H26.9646H23.8352V46.1125C23.8352 51.1962 27.8564 55.3245 32.8261 55.3245H45.0355H52.3969L57.3504 64.8189C58.4205 66.8624 61.4445 66.0898 61.4445 63.764V55.3245H63.0092C67.9708 55.3245 72.0001 51.2045 72.0001 46.1125V26.9991C72.0001 21.9155 67.9789 17.7871 63.0092 17.7871Z" fill="#FDDF7B"/>
<path d="M26.9644 43.5375H45.6596C50.6212 43.5375 54.6505 39.4174 54.6505 34.3255V21.1097V17.7871H32.8178C27.8562 17.7871 23.8269 21.9072 23.8269 26.9991V32.8968V43.5375H26.9563H26.9644Z" fill="#FD978A"/>
<path d="M23.8352 32.8967V26.999C23.8352 21.9154 27.8563 17.787 32.8261 17.787H54.6588V15.212C54.6588 10.1284 50.6376 6 45.6679 6H8.99089C4.02928 6 0 10.1201 0 15.212V34.3254C0 39.409 4.02117 43.5374 8.99089 43.5374H10.5556V51.9769C10.5556 54.2944 13.5877 55.0752 14.6497 53.0318L19.6032 43.5374H23.8271V32.8967H23.8352Z" fill="#F1F1F1"/>
<path d="M63.0092 17.7871H54.6507V21.1097V34.3255C54.6507 39.4091 50.6295 43.5375 45.6598 43.5375H26.9646H23.8352V46.1125C23.8352 51.1962 27.8564 55.3245 32.8261 55.3245H45.0355H52.3969L57.3504 64.8189C58.4205 66.8624 61.4445 66.0898 61.4445 63.764V55.3245H63.0092C67.9708 55.3245 72.0001 51.2045 72.0001 46.1125V26.9991C72.0001 21.9155 67.9789 17.7871 63.0092 17.7871Z" fill="#FDDF7B"/>
<path d="M26.9644 43.5375H45.6596C50.6212 43.5375 54.6505 39.4174 54.6505 34.3255V21.1097V17.7871H32.8178C27.8562 17.7871 23.8269 21.9072 23.8269 26.9991V32.8968V43.5375H26.9563H26.9644Z" fill="#FD978A"/>
<path d="M23.8352 32.8967V26.999C23.8352 21.9154 27.8563 17.787 32.8261 17.787H54.6588V15.212C54.6588 10.1284 50.6376 6 45.6679 6H8.99089C4.02928 6 0 10.1201 0 15.212V34.3254C0 39.409 4.02117 43.5374 8.99089 43.5374H10.5556V51.9769C10.5556 54.2944 13.5877 55.0752 14.6497 53.0318L19.6032 43.5374H23.8271V32.8967H23.8352Z" fill="#F1F1F1"/>
<path d="M63.0092 17.7871H54.6507V21.1097V34.3255C54.6507 39.4091 50.6295 43.5375 45.6598 43.5375H26.9646H23.8352V46.1125C23.8352 51.1962 27.8564 55.3245 32.8261 55.3245H45.0355H52.3969L57.3504 64.8189C58.4205 66.8624 61.4445 66.0898 61.4445 63.764V55.3245H63.0092C67.9708 55.3245 72.0001 51.2045 72.0001 46.1125V26.9991C72.0001 21.9155 67.9789 17.7871 63.0092 17.7871Z" fill="#FDDF7B"/>
<path d="M26.9644 43.5375H45.6596C50.6212 43.5375 54.6505 39.4174 54.6505 34.3255V21.1097V17.7871H32.8178C27.8562 17.7871 23.8269 21.9072 23.8269 26.9991V32.8968V43.5375H26.9563H26.9644Z" fill="#FD978A"/>
<path d="M23.8352 32.8967V26.999C23.8352 21.9154 27.8563 17.787 32.8261 17.787H54.6588V15.212C54.6588 10.1284 50.6376 6 45.6679 6H8.99089C4.02928 6 0 10.1201 0 15.212V34.3254C0 39.409 4.02117 43.5374 8.99089 43.5374H10.5556V51.9769C10.5556 54.2944 13.5877 55.0752 14.6497 53.0318L19.6032 43.5374H23.8271V32.8967H23.8352Z" fill="#F1F1F1"/>
<path d="M63.0092 17.7871H54.6507V21.1097V34.3255C54.6507 39.4091 50.6295 43.5375 45.6598 43.5375H26.9646H23.8352V46.1125C23.8352 51.1962 27.8564 55.3245 32.8261 55.3245H45.0355H52.3969L57.3504 64.8189C58.4205 66.8624 61.4445 66.0898 61.4445 63.764V55.3245H63.0092C67.9708 55.3245 72.0001 51.2045 72.0001 46.1125V26.9991C72.0001 21.9155 67.9789 17.7871 63.0092 17.7871Z" fill="#FDDF7B"/>
<path d="M26.9644 43.5375H45.6596C50.6212 43.5375 54.6505 39.4174 54.6505 34.3255V21.1097V17.7871H32.8178C27.8562 17.7871 23.8269 21.9072 23.8269 26.9991V32.8968V43.5375H26.9563H26.9644Z" fill="#FD978A"/>
<path d="M23.8352 32.8967V26.999C23.8352 21.9154 27.8563 17.787 32.8261 17.787H54.6588V15.212C54.6588 10.1284 50.6376 6 45.6679 6H8.99089C4.02928 6 0 10.1201 0 15.212V34.3254C0 39.409 4.02117 43.5374 8.99089 43.5374H10.5556V51.9769C10.5556 54.2944 13.5877 55.0752 14.6497 53.0318L19.6032 43.5374H23.8271V32.8967H23.8352Z" fill="#F1F1F1"/>
<path d="M63.0092 17.7871H54.6507V21.1097V34.3255C54.6507 39.4091 50.6295 43.5375 45.6598 43.5375H26.9646H23.8352V46.1125C23.8352 51.1962 27.8564 55.3245 32.8261 55.3245H45.0355H52.3969L57.3504 64.8189C58.4205 66.8624 61.4445 66.0898 61.4445 63.764V55.3245H63.0092C67.9708 55.3245 72.0001 51.2045 72.0001 46.1125V26.9991C72.0001 21.9155 67.9789 17.7871 63.0092 17.7871Z" fill="#FDDF7B"/>
<path d="M26.9644 43.5375H45.6596C50.6212 43.5375 54.6505 39.4174 54.6505 34.3255V21.1097V17.7871H32.8178C27.8562 17.7871 23.8269 21.9072 23.8269 26.9991V32.8968V43.5375H26.9563H26.9644Z" fill="#FD978A"/>
<path d="M23.8352 32.8967V26.999C23.8352 21.9154 27.8563 17.787 32.8261 17.787H54.6588V15.212C54.6588 10.1284 50.6376 6 45.6679 6H8.99089C4.02928 6 0 10.1201 0 15.212V34.3254C0 39.409 4.02117 43.5374 8.99089 43.5374H10.5556V51.9769C10.5556 54.2944 13.5877 55.0752 14.6497 53.0318L19.6032 43.5374H23.8271V32.8967H23.8352Z" fill="url(#paint0_linear_2543_69139)"/>
<path d="M63.0092 17.7871H54.6507V21.1097V34.3255C54.6507 39.4091 50.6295 43.5375 45.6598 43.5375H26.9646H23.8352V46.1125C23.8352 51.1962 27.8564 55.3245 32.8261 55.3245H45.0355H52.3969L57.3504 64.8189C58.4205 66.8624 61.4445 66.0898 61.4445 63.764V55.3245H63.0092C67.9708 55.3245 72.0001 51.2045 72.0001 46.1125V26.9991C72.0001 21.9155 67.9789 17.7871 63.0092 17.7871Z" fill="url(#paint1_linear_2543_69139)"/>
<path d="M26.9644 43.5375H45.6596C50.6212 43.5375 54.6505 39.4174 54.6505 34.3255V21.1097V17.7871H32.8178C27.8562 17.7871 23.8269 21.9072 23.8269 26.9991V32.8968V43.5375H26.9563H26.9644Z" fill="url(#paint2_linear_2543_69139)"/>
</g>
<defs>
<linearGradient id="paint0_linear_2543_69139" x1="30.129" y1="53.5261" x2="14.3186" y2="12.6613" gradientUnits="userSpaceOnUse">
<stop stop-color="#EFEFEF"/>
<stop offset="1" stop-color="#F5F5F5"/>
</linearGradient>
<linearGradient id="paint1_linear_2543_69139" x1="23.8352" y1="17.7871" x2="69.6006" y2="61.7483" gradientUnits="userSpaceOnUse">
<stop stop-color="#FFCC48"/>
<stop offset="1" stop-color="#FFE257"/>
</linearGradient>
<linearGradient id="paint2_linear_2543_69139" x1="23.8269" y1="17.7871" x2="50.4907" y2="47.2962" gradientUnits="userSpaceOnUse">
<stop stop-color="#FF5C01"/>
<stop offset="1" stop-color="#FFA901"/>
</linearGradient>
<clipPath id="clip0_2543_69139">
<rect width="72" height="72" fill="white"/>
</clipPath>
</defs>
</svg>
