<svg width="32" height="32" viewBox="0 0 32 32" fill="none" xmlns="http://www.w3.org/2000/svg">
<path fill-rule="evenodd" clip-rule="evenodd" d="M22.8502 6.35885L30.6801 15.1422C30.7815 15.2549 30.8619 15.3891 30.9168 15.537C30.9687 15.6767 30.9968 15.8261 30.9997 15.9774C30.9999 15.9849 31 15.9924 31 16C31 16.0005 31 16.0011 31 16.0016C31 16.0023 31 16.0029 31 16.0035C31 16.1637 30.9717 16.3222 30.9168 16.4701C30.8619 16.6179 30.7815 16.7521 30.6801 16.8649L22.8502 25.6482C22.7491 25.7606 22.6293 25.8496 22.4975 25.9099C22.3658 25.9703 22.2247 26.0009 22.0823 26C21.94 26.0009 21.7989 25.9703 21.6672 25.9099C21.5354 25.8496 21.4155 25.7606 21.3145 25.6482C21.1131 25.4209 21 25.1134 21 24.7929C21 24.4724 21.1131 24.1649 21.3145 23.9376L27.499 17H2C1.44772 17 1 16.5523 1 16C1 15.4477 1.44772 15 2 15H27.4928L21.3145 8.06941C21.1131 7.84211 21 7.53463 21 7.21413C21 6.89363 21.1131 6.58615 21.3145 6.35885C21.415 6.24514 21.5346 6.15489 21.6664 6.0933C21.7982 6.03171 21.9396 6 22.0823 6C22.2251 6 22.3665 6.03171 22.4982 6.0933C22.63 6.15489 22.7496 6.24514 22.8502 6.35885Z" fill="white"/>
</svg>
