<svg width="8" height="17" viewBox="0 0 8 17" fill="none" xmlns="http://www.w3.org/2000/svg">
<g clip-path="url(#clip0_38_16121)">
<path d="M8 0H0V17H8V0Z" fill="#676767"/>
<path fill-rule="evenodd" clip-rule="evenodd" d="M-518 -152C-522.418 -152 -526 -148.418 -526 -144V1.0164C-522.091 1.2737 -519 4.52588 -519 8.5C-519 12.4741 -522.091 15.7263 -526 15.9836V59C-526 63.4183 -522.418 67 -518 67H0C4.41827 67 8 63.4183 8 59V15.9836C4.09094 15.7263 1 12.4741 1 8.5C1 4.52588 4.09094 1.2737 8 1.0164V-144C8 -148.418 4.41827 -152 0 -152H-518Z" fill="#F6F6F6"/>
<mask id="mask0_38_16121" style="mask-type:luminance" maskUnits="userSpaceOnUse" x="-526" y="-152" width="534" height="219">
<path fill-rule="evenodd" clip-rule="evenodd" d="M-518 -152C-522.418 -152 -526 -148.418 -526 -144V1.0164C-522.091 1.2737 -519 4.52588 -519 8.5C-519 12.4741 -522.091 15.7263 -526 15.9836V59C-526 63.4183 -522.418 67 -518 67H0C4.41827 67 8 63.4183 8 59V15.9836C4.09094 15.7263 1 12.4741 1 8.5C1 4.52588 4.09094 1.2737 8 1.0164V-144C8 -148.418 4.41827 -152 0 -152H-518Z" fill="#F6F6F6"/>
</mask>
<g mask="url(#mask0_38_16121)">
<path d="M-526 1.0164H-527V1.95274L-526.066 2.01424L-526 1.0164ZM-526 15.9836L-526.066 14.9858L-527 15.0473V15.9836H-526ZM8 15.9836H9V15.0473L8.06567 14.9858L8 15.9836ZM8 1.0164L8.06567 2.01424L9 1.95274V1.0164H8ZM-525 -144C-525 -147.866 -521.866 -151 -518 -151V-153C-522.971 -153 -527 -148.971 -527 -144H-525ZM-525 1.0164V-144H-527V1.0164H-525ZM-518 8.5C-518 3.9956 -521.503 0.310233 -525.934 0.0185699L-526.066 2.01424C-522.679 2.23717 -520 5.05616 -520 8.5H-518ZM-525.934 16.9814C-521.503 16.6898 -518 13.0044 -518 8.5H-520C-520 11.9438 -522.679 14.7628 -526.066 14.9858L-525.934 16.9814ZM-525 59V15.9836H-527V59H-525ZM-518 66C-521.866 66 -525 62.866 -525 59H-527C-527 63.9706 -522.971 68 -518 68V66ZM0 66H-518V68H0V66ZM7 59C7 62.866 3.86599 66 0 66V68C4.97056 68 9 63.9706 9 59H7ZM7 15.9836V59H9V15.9836H7ZM0 8.5C0 13.0044 3.50311 16.6898 7.93433 16.9814L8.06567 14.9858C4.67878 14.7628 2 11.9438 2 8.5H0ZM7.93433 0.0185547C3.50311 0.310217 0 3.9956 0 8.5H2C2 5.05615 4.67878 2.23717 8.06567 2.01424L7.93433 0.0185547ZM7 -144V1.0164H9V-144H7ZM0 -151C3.86599 -151 7 -147.866 7 -144H9C9 -148.971 4.97056 -153 0 -153V-151ZM-518 -151H0V-153H-518V-151Z" fill="#DEDEDE"/>
</g>
<path d="M16 8.5C16 4.35786 12.6421 1 8.5 1C4.35786 1 1 4.35786 1 8.5C1 12.6421 4.35786 16 8.5 16C12.6421 16 16 12.6421 16 8.5Z" fill="white"/>
</g>
<defs>
<clipPath id="clip0_38_16121">
<rect width="8" height="17" fill="white"/>
</clipPath>
</defs>
</svg>
