<svg width="290" height="48" viewBox="0 0 290 48" fill="none" xmlns="http://www.w3.org/2000/svg">
    <g clip-path="url(#h837c2ursa)">
        <mask id="bs6ivh2g8b" style="mask-type:luminance" maskUnits="userSpaceOnUse" x="0" y="0" width="290" height="48">
            <path d="M290 0H0v48h290V0z" fill="#fff"/>
        </mask>
        <g mask="url(#bs6ivh2g8b)">
            <path d="M10.854 6.14V.088c-1.425 0-2.837.28-4.153.822A10.857 10.857 0 0 0 3.179 3.25 10.796 10.796 0 0 0 .827 6.754a10.753 10.753 0 0 0 2.352 11.77 10.856 10.856 0 0 0 3.522 2.34c1.316.543 2.728.822 4.153.822v-6.054a10.819 10.819 0 0 0 3.998 4.412 10.894 10.894 0 0 0 5.737 1.641V.087C18.56.09 16.573.66 14.852 1.73a10.819 10.819 0 0 0-3.998 4.412z" fill="#FA6432"/>
            <path d="M36.094 47.419c-2.161 0-4.274-.637-6.072-1.831a10.884 10.884 0 0 1-4.025-4.88 10.822 10.822 0 0 1-.623-6.282 10.855 10.855 0 0 1 2.99-5.568 10.944 10.944 0 0 1 5.595-2.976c2.12-.42 4.317-.204 6.314.619a10.916 10.916 0 0 1 4.904 4.004 10.834 10.834 0 0 1-1.357 13.729 10.93 10.93 0 0 1-3.545 2.357 10.975 10.975 0 0 1-4.181.828z" fill="#FAB400"/>
            <path d="M25.172 12.787h6.554l-4.634 4.61 2.612 2.598 4.632-4.61v6.52h3.692v-6.52l4.633 4.611 2.612-2.599-4.633-4.61h6.55V9.115h-6.55l4.632-4.61-2.612-2.598-4.632 4.611V0h-3.692v6.518l-4.633-4.61-2.612 2.599 4.634 4.609h-6.553v3.67z" fill="#148CE6"/>
            <path d="M17.555 36.526a5.32 5.32 0 0 0 2.157-1.528 5.283 5.283 0 0 0 1.008-5.003 5.29 5.29 0 0 0-1.399-2.237 5.347 5.347 0 0 0-7.287-.063 5.292 5.292 0 0 0-1.437 2.212 5.293 5.293 0 0 0-1.437-2.213 5.348 5.348 0 0 0-7.289.062 5.27 5.27 0 0 0-.39 7.242 5.321 5.321 0 0 0 2.157 1.528c-.837.32-1.58.846-2.158 1.528A5.285 5.285 0 0 0 .472 43.06c.27.851.75 1.621 1.4 2.238a5.348 5.348 0 0 0 7.29.06 5.292 5.292 0 0 0 1.435-2.215 5.292 5.292 0 0 0 1.437 2.213 5.347 5.347 0 0 0 7.287-.062 5.27 5.27 0 0 0 .391-7.24 5.318 5.318 0 0 0-2.157-1.528z" fill="#0ABE5A"/>
            <path d="M61.154 7.048h-3.667v9.986h3.667V7.048zM72.655 8.395h-8.917v3.112h8.917V8.395zM158.174 6.345A4.73 4.73 0 0 0 154.622 5a4.597 4.597 0 0 0-2.338.618 4.823 4.823 0 0 0-1.694 1.6 4.153 4.153 0 0 0-1.663-1.643 4.978 4.978 0 0 0-2.412-.575 4.62 4.62 0 0 0-2.038.436 3.913 3.913 0 0 0-1.462 1.185V5.128h-3.656v11.906h3.667V10.57a2.457 2.457 0 0 1 .612-1.78 2.562 2.562 0 0 1 3.367 0c.432.49.651 1.13.61 1.78v6.465h3.645V10.57a2.437 2.437 0 0 1 .61-1.78 2.563 2.563 0 0 1 3.367 0c.433.49.652 1.13.611 1.78v6.465h3.644V10.08a5.107 5.107 0 0 0-1.319-3.735M59.32.086c-.49 0-.97.145-1.38.416a2.458 2.458 0 0 0-.377 3.8 2.486 2.486 0 0 0 2.706.536 2.48 2.48 0 0 0 1.114-.91A2.461 2.461 0 0 0 61.075.81 2.489 2.489 0 0 0 59.32.086zM133.775 6.707a5.024 5.024 0 0 0-1.132-1.033 4.498 4.498 0 0 0-2.538-.673 6.025 6.025 0 0 0-2.999.748 5.476 5.476 0 0 0-2.112 2.115 6.453 6.453 0 0 0-.779 3.239 6.4 6.4 0 0 0 .779 3.215 5.533 5.533 0 0 0 2.112 2.126 5.942 5.942 0 0 0 2.999.762 4.356 4.356 0 0 0 2.624-.686c.398-.293.752-.64 1.052-1.031l.105 1.54 3.12.037V5.216l-3.114-.037-.117 1.528zm-3.227 7.548a3.133 3.133 0 0 1-2.31-.889 3.098 3.098 0 0 1-.929-2.284 3.084 3.084 0 0 1 .22-1.242 3.086 3.086 0 0 1 1.768-1.731c.399-.152.824-.22 1.251-.2a2.909 2.909 0 0 1 2.219.91 2.874 2.874 0 0 1 .767 2.263 2.827 2.827 0 0 1-.751 2.277 2.862 2.862 0 0 1-2.235.896zM105.825 6.781V5.204h-3.351v11.834h3.507v-5.587a3.229 3.229 0 0 1 .873-2.495 3.25 3.25 0 0 1 2.287-.803c.134 0 .26 0 .378.012.118.011.249.017.397.032v-3.17a5.813 5.813 0 0 0-2.852.65c-.49.272-.913.65-1.239 1.104zM94.694 8.033c.459-.051.922.062 1.305.32.382.257.66.642.784 1.085h3.674a5.534 5.534 0 0 0-1.985-3.307 5.953 5.953 0 0 0-3.762-1.173 6.375 6.375 0 0 0-3.12.747 5.276 5.276 0 0 0-2.123 2.133 6.634 6.634 0 0 0-.762 3.242 6.637 6.637 0 0 0 .762 3.244 5.276 5.276 0 0 0 2.123 2.133c.959.51 2.033.768 3.12.748a5.893 5.893 0 0 0 3.751-1.196 5.588 5.588 0 0 0 1.995-3.284h-3.667a1.935 1.935 0 0 1-.785 1.085c-.382.258-.845.37-1.304.32-1.88 0-2.679-1.516-2.679-3.05 0-1.533.8-3.047 2.679-3.047M116.884 5.001c-3.553 0-5.939 2.446-5.939 6.092a5.733 5.733 0 0 0 1.614 4.36 5.781 5.781 0 0 0 4.325 1.753 5.516 5.516 0 0 0 3.354-.945 5.472 5.472 0 0 0 2.109-2.763h-3.283a2.408 2.408 0 0 1-2.176 1.086 2.725 2.725 0 0 1-1.843-.609 2.704 2.704 0 0 1-.964-1.678h8.473l.044-.285c.06-.39.088-.786.084-1.182a5.535 5.535 0 0 0-1.606-4.188 5.6 5.6 0 0 0-4.192-1.64zm-2.766 4.762c.122-.611.456-1.16.943-1.551a2.68 2.68 0 0 1 1.722-.59 2.614 2.614 0 0 1 1.799.538c.511.396.855.967.966 1.603h-5.43zM85.675 8.957a5.28 5.28 0 0 0-1.254-.839 7.445 7.445 0 0 0-1.538-.514l-2.174-.52c-1.214-.264-1.802-.781-1.802-1.578a1.515 1.515 0 0 1 .57-1.258 2.531 2.531 0 0 1 1.622-.475 2.458 2.458 0 0 1 1.707.552 1.937 1.937 0 0 1 .662 1.351l.013.176h3.205V5.66A4.428 4.428 0 0 0 85.12 2.2 5.953 5.953 0 0 0 81.104.877a6.988 6.988 0 0 0-2.826.55 4.591 4.591 0 0 0-2.063 1.735 4.557 4.557 0 0 0-.727 2.59 4.945 4.945 0 0 0 .301 1.767c.184.499.475.951.853 1.327a4.87 4.87 0 0 0 1.209.86c.47.23.966.403 1.478.514l2.151.528a4.044 4.044 0 0 1 1.581.664 1.28 1.28 0 0 1 .455 1.051 1.58 1.58 0 0 1-.606 1.31 2.822 2.822 0 0 1-1.795.501 2.495 2.495 0 0 1-1.76-.554 1.906 1.906 0 0 1-.684-1.417l-.013-.175H75.15v.19c.007.465.073.927.196 1.375.288.98.89 1.84 1.713 2.45a5.216 5.216 0 0 0 1.66.772c.732.2 1.488.297 2.247.288a6.5 6.5 0 0 0 4.326-1.352 4.635 4.635 0 0 0 1.604-3.706 5.087 5.087 0 0 0-.313-1.848 3.451 3.451 0 0 0-.911-1.343M72.263 33.854h-9.17v-7.561h-5.829v20.502h5.829v-7.558h9.17v7.557h5.829V26.293h-5.829v7.56zM91.976 25.677c-2.161 0-4.274.639-6.071 1.834a10.885 10.885 0 0 0-4.024 4.88 10.823 10.823 0 0 0-.62 6.283 10.856 10.856 0 0 0 2.991 5.566 10.944 10.944 0 0 0 5.596 2.975c2.12.419 4.317.203 6.314-.62a10.915 10.915 0 0 0 4.903-4.007 10.834 10.834 0 0 0 1.839-6.042 10.85 10.85 0 0 0-3.205-7.683 10.965 10.965 0 0 0-7.723-3.186zm0 16.243a5.417 5.417 0 0 1-2.998-.906 5.376 5.376 0 0 1-1.988-2.41 5.345 5.345 0 0 1 1.17-5.852 5.422 5.422 0 0 1 5.882-1.164 5.392 5.392 0 0 1 2.422 1.977c.593.884.91 1.922.91 2.984a5.362 5.362 0 0 1-1.584 3.793 5.416 5.416 0 0 1-3.814 1.573M188.787 26.292h-5.828v20.501h17.912v-5.01h-12.084V26.291zM258.527 29.023v-2.688h-5.693v20.453h5.955v-9.656a5.597 5.597 0 0 1 1.51-4.315 5.607 5.607 0 0 1 3.954-1.387c.229 0 .444.006.65.019.206.012.433.031.688.056v-5.473a10.055 10.055 0 0 0-4.929 1.12 6.536 6.536 0 0 0-2.138 1.872M288.894 29.967a7.064 7.064 0 0 0-3.04-2.965 9.608 9.608 0 0 0-4.373-.97 9.817 9.817 0 0 0-4.702 1.102 7.699 7.699 0 0 0-2.102 1.637v-2.435h-5.692v20.452h5.956V36.677a6.777 6.777 0 0 1 .626-3.119 4.095 4.095 0 0 1 1.758-1.804 5.393 5.393 0 0 1 2.541-.59 3.984 3.984 0 0 1 3.075 1.178 5.232 5.232 0 0 1 1.089 3.65v10.796h5.961V35.08c.069-1.77-.312-3.53-1.108-5.114M212.704 25.803c-6.341 0-10.602 4.366-10.602 10.875 0 6.425 4.36 10.916 10.602 10.916 4.693 0 8.439-2.558 9.774-6.675l.037-.116h-5.808a4.312 4.312 0 0 1-4.004 2.112 4.869 4.869 0 0 1-3.291-1.083 4.823 4.823 0 0 1-1.724-2.992h15.132l.081-.508c.108-.702.159-1.41.153-2.12 0-6.127-4.256-10.405-10.35-10.405m-4.938 8.499a4.74 4.74 0 0 1 1.683-2.768 4.783 4.783 0 0 1 3.073-1.053 4.664 4.664 0 0 1 3.212.96 4.624 4.624 0 0 1 1.727 2.86h-9.695zM242.117 28.476a6.931 6.931 0 0 0-1.604-1.304 8.85 8.85 0 0 0-4.546-1.143 10.606 10.606 0 0 0-5.235 1.292 9.504 9.504 0 0 0-3.686 3.649 11.02 11.02 0 0 0-1.358 5.589 10.925 10.925 0 0 0 1.358 5.549 9.623 9.623 0 0 0 3.686 3.668 10.488 10.488 0 0 0 5.235 1.313 8.947 8.947 0 0 0 4.64-1.143 6.703 6.703 0 0 0 1.776-1.53v2.367h5.689V26.335h-5.955v2.14zm-5.375 13.434a5.391 5.391 0 0 1-2.985-.901 5.355 5.355 0 0 1-1.98-2.4 5.324 5.324 0 0 1 1.165-5.828 5.397 5.397 0 0 1 5.857-1.16 5.366 5.366 0 0 1 2.412 1.97c.591.88.906 1.914.906 2.972a5.344 5.344 0 0 1-1.576 3.78 5.396 5.396 0 0 1-3.799 1.567zM159.291 42.01a6.426 6.426 0 0 1-5.557.312c.614-.455 1.22-.947 1.817-1.477 2.806-2.488 4.388-5.432 4.459-8.285a7.945 7.945 0 0 0-2.311-5.977 8.816 8.816 0 0 0-3.378-1.86 8.844 8.844 0 0 0-3.853-.241c-1.56.194-3.057.731-4.382 1.572a10.58 10.58 0 0 0-3.283 3.289 10.812 10.812 0 0 0 .019 11.514c-3.948.034-5.152-3.29-5.89-6.668a19.807 19.807 0 0 0-1.179-3.71 6.89 6.89 0 0 0-2.507-2.953 7.292 7.292 0 0 0-4.016-1.144 8.703 8.703 0 0 0-4.891 1.314 8.226 8.226 0 0 0-1.581 1.341 5.755 5.755 0 0 0-1.288-1.331 7.323 7.323 0 0 0-4.461-1.408 7.679 7.679 0 0 0-4.049 1.07 6.593 6.593 0 0 0-1.436 1.174v-1.944h-5.472v20.196h5.433V36.657a7.153 7.153 0 0 1 .46-2.963 3.814 3.814 0 0 1 1.446-1.748c.63-.39 1.36-.592 2.102-.581a3.12 3.12 0 0 1 2.599 1.165 5.81 5.81 0 0 1 .913 3.604v10.66h5.375V36.657s.035-1.217.035-1.443a4.112 4.112 0 0 1 1.191-2.85 3.466 3.466 0 0 1 2.538-.998 2.804 2.804 0 0 1 2.515 1.321c1.019 1.523 1.283 3.704 1.823 5.605a10.22 10.22 0 0 0 2.381 4.556 10.293 10.293 0 0 0 4.306 2.833c2.71.85 5.623.82 8.315-.087a15.47 15.47 0 0 0 8.338 2.407c7.285 0 11.062-4.656 13.822-9.395l-4.569-2.98c-1.638 2.73-2.943 4.731-5.785 6.385m-7.392-5.247a19.73 19.73 0 0 1-3.482 2.495c-2.705-3.137-1.768-5.741-.962-7.022a5.537 5.537 0 0 1 3.656-2.336 3.19 3.19 0 0 1 2.668.665 2.398 2.398 0 0 1 .747 1.856 6.829 6.829 0 0 1-2.625 4.341M171.798 25.794c-.899-.143-1.82 0-2.632.41a4.3 4.3 0 0 0-1.885 1.873 4.267 4.267 0 0 0 .791 4.98 4.326 4.326 0 0 0 5.004.787 4.294 4.294 0 0 0 1.882-1.876 4.268 4.268 0 0 0-.795-4.972 4.32 4.32 0 0 0-2.365-1.202z" fill="#FA6432"/>
        </g>
    </g>
    <defs>
        <clipPath id="h837c2ursa">
            <path fill="#fff" d="M0 0h290v48H0z"/>
        </clipPath>
    </defs>
</svg>
