<svg width="651" height="296" viewBox="0 0 651 296" fill="none" xmlns="http://www.w3.org/2000/svg">
<rect y="146" width="651" height="150" rx="75" fill="#EFF2F9"/>
<g clip-path="url(#clip0_1956_67591)">
<path d="M149.305 43.4981H229.056C230.112 43.4981 230.971 44.3554 230.971 45.4103V97.8673C230.971 98.9221 230.112 99.7795 229.056 99.7795H149.305C148.249 99.7795 147.391 98.9221 147.391 97.8673V45.4061C147.391 44.3512 148.249 43.4939 149.305 43.4939V43.4981Z" fill="#181334"/>
<path d="M228.56 45.0742H149.798V98.191H228.56V45.0742Z" fill="#FAFAFA"/>
<path d="M228.56 45.0742H149.798V98.191H228.56V45.0742Z" stroke="#111111" stroke-width="0.7" stroke-linecap="round" stroke-linejoin="round"/>
<path d="M149.305 43.4981H229.056C230.112 43.4981 230.971 44.3554 230.971 45.4103V97.8673C230.971 98.9221 230.112 99.7795 229.056 99.7795H149.305C148.249 99.7795 147.391 98.9221 147.391 97.8673V45.4061C147.391 44.3512 148.249 43.4939 149.305 43.4939V43.4981Z" stroke="#111111" stroke-width="0.7" stroke-linecap="round" stroke-linejoin="round"/>
<path d="M136.128 54.7527L135.913 54.7653C135.248 53.8743 135.757 52.6598 136.868 52.5295C137.112 52.5001 137.524 52.5085 138.038 52.5463C137.853 51.9495 138.198 50.9157 139.489 50.8316C140.718 50.7518 145.805 51.5755 149.861 53.5759L149.945 53.454C149.503 52.3193 149.461 51.1342 150.496 50.5669C151.565 49.9827 153.517 51.7772 155.103 53.7692C156.584 55.5974 157.93 58.3753 158.759 59.2116C158.397 60.09 156.828 61.8971 155.036 63.4941C151.703 66.4695 149.638 67.0369 149.638 67.0369C148.236 65.3264 146.781 63.9227 145.96 63.2419C144.382 61.9391 142.039 60.8128 140.167 60.6111C138.408 60.422 136.784 59.9513 136.94 58.5686C136.977 58.2198 137.213 57.9634 137.575 57.7785L137.554 57.7281C136.628 57.7491 135.194 57.3331 135.151 56.1899C135.135 55.6688 135.311 55.0216 136.132 54.7485L136.128 54.7527Z" fill="#FFE8E0"/>
<path d="M149.995 53.5845C149.503 52.4077 149.419 51.1553 150.496 50.567C151.914 49.7937 154.897 53.2104 156.508 55.7236L158.742 59.2874C158.17 60.9811 152.166 66.1124 149.692 67.0538" stroke="#111111" stroke-width="0.7" stroke-linecap="round" stroke-linejoin="round"/>
<path d="M151.594 54.5509C147.412 51.8444 140.899 50.7433 139.49 50.8316C138.194 50.9156 137.853 51.9579 138.038 52.5504" stroke="#111111" stroke-width="0.7" stroke-linecap="round" stroke-linejoin="round"/>
<path d="M149.642 67.0412C148.241 65.3307 146.785 63.927 145.965 63.2462C144.387 61.9434 142.043 60.8171 140.171 60.6154C138.412 60.4263 136.788 59.9556 136.944 58.5729C137.171 56.543 143.869 57.6693 144.963 57.8837" stroke="#111111" stroke-width="0.7" stroke-linecap="round" stroke-linejoin="round"/>
<path d="M145.606 55.8664C143.995 55.2318 139.607 54.7275 137.255 54.6266C135.458 54.551 135.122 55.4923 135.147 56.1942C135.193 57.3709 136.712 57.7786 137.633 57.7323" stroke="#111111" stroke-width="0.7" stroke-linecap="round" stroke-linejoin="round"/>
<path d="M146.911 53.2483C146.221 54.32 145.085 57.266 144.908 59.2454" stroke="#111111" stroke-width="0.7" stroke-linecap="round" stroke-linejoin="round"/>
<path d="M146.368 54.156C144.702 53.3743 138.24 52.3699 136.868 52.5296C135.757 52.6599 135.248 53.8744 135.913 54.7654" stroke="#111111" stroke-width="0.7" stroke-linecap="round" stroke-linejoin="round"/>
<path d="M187.285 34.1766C188.274 33.832 189.423 33.1512 190.718 33.147C192.01 33.147 193.243 33.1848 194.034 33.5672C194.821 33.9497 195.793 34.5128 196.562 35.4206C197.332 36.3283 197.989 36.9125 198.494 37.0134C198.999 37.1142 199.878 37.0512 200.669 36.8495C201.456 36.6477 202.608 36.5637 203.458 36.7654C204.308 36.9671 205.238 37.1268 206.105 37.627C206.976 38.1313 207.885 38.8541 208.793 39.0138C209.702 39.1735 211.196 38.7491 212.025 38.6272C212.854 38.5053 214.49 38.2405 215.5 38.5431C216.51 38.8457 218.268 39.5686 218.916 40.7159C219.564 41.8632 219.505 42.855 219.181 43.6409C218.857 44.4268 218.033 45.6792 216.476 46.0448C214.919 46.4104 213.527 46.2927 212.862 46.091C212.193 45.8893 210.455 44.9647 209.546 44.9437C208.638 44.9269 207.447 45.1706 206.273 45.7338C205.103 46.3011 203.467 46.5071 201.969 46.0616C200.471 45.6203 198.208 44.7966 197.4 44.4352C196.592 44.0738 195.885 43.5064 195.418 43.5106C194.951 43.5106 192.427 43.3551 192.427 43.3551L187.285 34.1766Z" fill="#181334"/>
<path d="M209.799 98.1153C208.495 95.5433 207.09 91.2188 205.895 86.1883C204.855 81.8049 203.505 76.3878 202.352 73.3745L179.586 74.3663C179.232 76.5181 178.45 86.2471 178.117 89.3696C177.709 93.2024 177.575 95.3163 177.894 98.1615" fill="white"/>
<path d="M218.853 70.7311C216.042 63.2378 212.609 56.3329 209.05 52.8574C205.806 49.6928 200.269 47.8016 194.492 47.1208L194.53 47.2679L186.995 47.0241H186.439L186.549 46.9485C181.348 47.3393 178.058 48.701 174.12 51.2057C169.715 54.0047 166.799 59.3756 163.934 62.9184C161.653 60.6658 159.167 58.3165 158.006 57.5643C155.708 59.9766 150.239 65.3139 148.636 67.0538C153.647 74.3201 157.286 76.4424 159.255 78.3462C161.224 80.25 164.603 81.2376 167.51 79.8885C170.346 78.5731 174.612 73.8536 176.451 71.3026L176.577 71.3362L176.396 74.0679C176.396 74.0679 183.814 74.7992 189.296 74.5933C193.651 74.4336 201.262 73.8284 202.798 73.0005C202.583 71.5716 202.023 69.0878 201.8 68.117L201.927 68.0246C202.844 69.7645 203.753 71.538 204.443 72.971C205.528 75.2278 212.062 92.0677 212.062 92.0677L224.567 86.5707C224.567 86.5707 221.386 77.4678 218.857 70.7269L218.853 70.7311Z" fill="#FFB73E"/>
<path d="M175.698 53.5466L174.65 55.0764" stroke="white" stroke-width="0.7" stroke-linecap="round" stroke-linejoin="round"/>
<path d="M180.583 50.4578L181.231 52.1976" stroke="white" stroke-width="0.7" stroke-linecap="round" stroke-linejoin="round"/>
<path d="M180.419 58.1987L181.071 59.9386" stroke="white" stroke-width="0.7" stroke-linecap="round" stroke-linejoin="round"/>
<path d="M185.93 62.9646L184.925 64.528" stroke="white" stroke-width="0.7" stroke-linecap="round" stroke-linejoin="round"/>
<path d="M192.048 65.5535L192.717 67.2849" stroke="white" stroke-width="0.7" stroke-linecap="round" stroke-linejoin="round"/>
<path d="M194.122 58.9385L194.791 60.6699" stroke="white" stroke-width="0.7" stroke-linecap="round" stroke-linejoin="round"/>
<path d="M198.486 50.4241L197.118 51.6807" stroke="white" stroke-width="0.7" stroke-linecap="round" stroke-linejoin="round"/>
<path d="M204.279 51.6177L204.7 53.429" stroke="white" stroke-width="0.7" stroke-linecap="round" stroke-linejoin="round"/>
<path d="M201.161 58.3628L199.524 59.2453" stroke="white" stroke-width="0.7" stroke-linecap="round" stroke-linejoin="round"/>
<path d="M210.927 59.8337L209.29 60.7163" stroke="white" stroke-width="0.7" stroke-linecap="round" stroke-linejoin="round"/>
<path d="M206.113 67.3102L204.737 66.062" stroke="white" stroke-width="0.7" stroke-linecap="round" stroke-linejoin="round"/>
<path d="M214.878 70.7858L213.502 69.5376" stroke="white" stroke-width="0.7" stroke-linecap="round" stroke-linejoin="round"/>
<path d="M211.226 76.539L209.396 76.207" stroke="white" stroke-width="0.7" stroke-linecap="round" stroke-linejoin="round"/>
<path d="M216.501 79.506L217.048 77.7283" stroke="white" stroke-width="0.7" stroke-linecap="round" stroke-linejoin="round"/>
<path d="M221.003 84.8223L220.233 83.1287" stroke="white" stroke-width="0.7" stroke-linecap="round" stroke-linejoin="round"/>
<path d="M197.862 68.3776L198.409 66.5999" stroke="white" stroke-width="0.7" stroke-linecap="round" stroke-linejoin="round"/>
<path d="M194.682 71.5168L196.508 71.8741" stroke="white" stroke-width="0.7" stroke-linecap="round" stroke-linejoin="round"/>
<path d="M215.639 86.226L213.809 85.894" stroke="white" stroke-width="0.7" stroke-linecap="round" stroke-linejoin="round"/>
<path d="M180.763 66.6755L179.758 68.2389" stroke="white" stroke-width="0.7" stroke-linecap="round" stroke-linejoin="round"/>
<path d="M185.278 71.748L183.536 71.105" stroke="white" stroke-width="0.7" stroke-linecap="round" stroke-linejoin="round"/>
<path d="M173.64 63.1328L171.898 62.4856" stroke="white" stroke-width="0.7" stroke-linecap="round" stroke-linejoin="round"/>
<path d="M167.494 64.2044L167.608 62.3511" stroke="white" stroke-width="0.7" stroke-linecap="round" stroke-linejoin="round"/>
<path d="M172.244 71.4832L172.358 69.6299" stroke="white" stroke-width="0.7" stroke-linecap="round" stroke-linejoin="round"/>
<path d="M165.777 70.4495L163.977 69.9956" stroke="white" stroke-width="0.7" stroke-linecap="round" stroke-linejoin="round"/>
<path d="M158.813 66.4822L160.101 65.1458" stroke="white" stroke-width="0.7" stroke-linecap="round" stroke-linejoin="round"/>
<path d="M153.046 67.7934L153.833 66.1082" stroke="white" stroke-width="0.7" stroke-linecap="round" stroke-linejoin="round"/>
<path d="M167.182 77.867L165.377 77.4131" stroke="white" stroke-width="0.7" stroke-linecap="round" stroke-linejoin="round"/>
<path d="M158.646 75.274L158.263 73.4585" stroke="white" stroke-width="0.7" stroke-linecap="round" stroke-linejoin="round"/>
<path d="M186.515 47.5916L185.038 55.0386L189.927 50.5796L193.2 56.312L194.568 48.2261" fill="#FAFAFA"/>
<path d="M186.397 53.7147L189.04 62.0695L192.368 54.9083L189.982 49.8525L186.397 53.7147Z" fill="#FAFAFA"/>
<path d="M187.487 34.1011C187.003 34.4835 185.893 35.4753 185.291 36.9715C184.685 38.4676 184.689 39.7788 184.87 40.4638C185.055 41.1489 185.337 41.9558 185.922 42.4979C186.511 43.0442 186.932 43.246 186.932 43.246L186.532 47.6041C186.532 47.6041 187.748 49.075 188.577 49.2977C189.406 49.5205 190.782 49.697 191.467 49.5162C192.153 49.3313 194.232 48.6463 194.598 48.2218C194.497 47.436 194.223 41.401 194.223 41.401C194.223 41.401 194.829 41.5019 195.212 41.1783C195.595 40.8547 196.1 40.3083 195.978 39.5603C195.856 38.8122 195.389 38.228 194.724 38.1692C194.059 38.1104 193.47 38.413 193.47 38.413L193.041 35.2442C193.041 35.2442 191.627 35.4501 190.193 35.1685C188.758 34.887 188.131 34.6054 187.483 34.1053L187.487 34.1011Z" fill="#FFE7DF"/>
<path d="M187.424 34.1515C188.648 33.2521 192.346 32.647 194.505 33.7186C196.663 34.7903 197.404 36.7949 198.582 37.0219C199.76 37.2446 201.775 36.2402 204.119 36.8664C206.462 37.4926 207.152 38.5432 208.503 38.9299C209.853 39.3165 212.416 38.2785 214.995 38.497C217.065 38.6735 219.417 40.3798 219.434 42.1112C219.451 43.8763 218.403 45.7801 215.79 46.1499C212.601 46.5996 211.553 45.2002 209.715 44.9732C207.872 44.7463 207.013 45.654 204.969 46.1836C202.92 46.7131 197.896 44.9732 196.495 43.9898C195.973 43.62 195.17 43.4098 194.286 43.3132" stroke="#111111" stroke-width="0.7" stroke-linecap="round" stroke-linejoin="round"/>
<path d="M193.453 38.2827L193.491 38.3122C193.739 38.1903 194.067 38.123 194.349 38.123C195.25 38.123 195.982 38.8501 195.986 39.7495C195.986 40.6488 195.258 41.3801 194.354 41.3801" stroke="#111111" stroke-width="0.7" stroke-linecap="round" stroke-linejoin="round"/>
<path d="M193.39 41.8128C191.009 43.8343 188.303 44.1201 186.38 42.8593C184.285 41.4808 184.277 38.0515 186.191 35.4501C186.557 34.95 186.974 34.5129 187.42 34.1431" stroke="#111111" stroke-width="0.7" stroke-linecap="round" stroke-linejoin="round"/>
<path d="M213.422 95.2114L209.984 97.5018L216.943 108.853L233.853 96.8126L227.201 86.4531L213.422 95.2114Z" fill="white"/>
<path d="M213.994 91.2733C213.733 91.5717 212.77 92.7148 212.635 93.1141C212.501 93.5133 212.273 93.9966 212.513 94.5009C212.753 95.001 213.174 95.4675 213.624 95.5095C214.074 95.5516 214.768 95.4633 215.458 94.9842C216.144 94.5009 216.801 93.9588 217.23 94.1143C217.655 94.2656 218.614 94.6774 219.153 95.7953C219.695 96.909 220.099 98.8884 220.314 99.3507C220.524 99.813 220.84 100.49 221.197 100.612C221.555 100.733 222.464 100.649 222.96 100.162C223.124 100.469 223.785 100.872 224.231 100.788C224.677 100.708 225.068 100.548 225.401 100.195C225.994 100.107 226.431 100.09 226.768 99.8803C227.109 99.6701 227.917 99.0608 228.051 98.4304C228.501 98.3673 228.771 98.3421 229.065 98.0143C229.36 97.6865 229.705 97.3923 229.709 96.7241C229.709 96.0517 229.377 93.8915 228.623 92.8997C227.875 91.9037 226.07 89.0543 225.329 88.3315C224.589 87.6086 224.096 86.8816 224.096 86.8816" fill="#FFE7DF"/>
<path d="M213.279 95.3879L209.984 97.5018L216.943 108.853L233.853 96.8126L227.201 86.4531L224.942 87.8862" stroke="#111111" stroke-width="0.7" stroke-linecap="round" stroke-linejoin="round"/>
<path d="M213.964 91.3447C212.937 92.408 211.734 93.9293 212.883 95.0598C214.671 96.8207 216.152 93.4965 217.624 94.2151C219.093 94.9338 219.614 96.9132 220.002 98.3379C220.389 99.7668 220.927 101.103 222.076 100.67C223.224 100.237 223.628 99.3843 223.288 97.5478C222.905 95.4843 222.337 94.4252 221.874 93.757" stroke="#111111" stroke-width="0.7" stroke-linecap="round" stroke-linejoin="round"/>
<path d="M222.947 100.204C223.452 100.725 224.104 100.948 224.803 100.628C225.497 100.309 226.343 99.0103 225.892 96.9468C225.438 94.8875 224.794 93.8495 224.327 93.0552" stroke="#111111" stroke-width="0.7" stroke-linecap="round" stroke-linejoin="round"/>
<path d="M225.526 100.141C226.402 100.036 227.382 99.7333 227.887 98.7751C228.408 97.779 227.441 93.795 226.216 92.219" stroke="#111111" stroke-width="0.7" stroke-linecap="round" stroke-linejoin="round"/>
<path d="M228.127 98.3757C228.926 98.3589 229.679 97.5899 229.658 96.7493C229.633 95.7617 229.389 94.295 228.653 92.9712C227.916 91.6474 226.132 89.3275 224.698 87.5624C224.5 87.3187 224.302 87.0665 224.104 86.8018" stroke="#111111" stroke-width="0.7" stroke-linecap="round" stroke-linejoin="round"/>
<path d="M186.545 46.9485C181.345 47.3393 178.055 48.701 174.117 51.2057C169.699 54.0131 166.783 59.405 163.905 62.9478" stroke="#111111" stroke-width="0.7" stroke-linecap="round" stroke-linejoin="round"/>
<path d="M198.052 60.9262C198.594 61.8256 202.436 68.8145 204.438 72.9709C205.524 75.2277 212.058 92.0676 212.058 92.0676L224.562 86.5706C224.562 86.5706 221.382 77.4677 218.853 70.7267C216.042 63.2335 212.609 56.3286 209.05 52.853C205.806 49.6885 200.269 47.7973 194.492 47.1165" stroke="#111111" stroke-width="0.7" stroke-linecap="round" stroke-linejoin="round"/>
<path d="M168.68 67.7262C168.68 67.7262 160.442 59.1402 158.002 57.5601C155.704 59.9724 150.235 65.3097 148.632 67.0496C153.643 74.3159 157.282 76.4382 159.251 78.342C161.22 80.2457 164.599 81.2334 167.506 79.8843C170.409 78.5353 174.814 73.6224 176.573 71.1177" stroke="#111111" stroke-width="0.7" stroke-linecap="round" stroke-linejoin="round"/>
<path d="M177.36 59.2034L176.388 74.0638C176.388 74.0638 183.805 74.7951 189.288 74.5891C193.642 74.4294 201.253 73.8242 202.789 72.9963C202.52 71.1934 201.699 67.7095 201.699 67.7095" stroke="#111111" stroke-width="0.7" stroke-linecap="round" stroke-linejoin="round"/>
<path d="M179.582 74.3662C179.228 76.5179 178.446 86.247 178.113 89.3695C177.705 93.2023 177.571 95.3162 177.891 98.1614" stroke="#111111" stroke-width="0.7" stroke-linecap="round" stroke-linejoin="round"/>
<path d="M202.348 73.3745C203.5 76.3836 204.851 81.8049 205.89 86.1883C207.085 91.2146 208.49 95.5433 209.795 98.1153" stroke="#111111" stroke-width="0.7" stroke-linecap="round" stroke-linejoin="round"/>
<path d="M189.7 84.5071C189.751 85.5956 190.479 94.8623 190.815 98.1614" stroke="#111111" stroke-width="0.7" stroke-linecap="round" stroke-linejoin="round"/>
<path d="M186.924 43.3174L186.516 47.5873C186.89 48.2219 188.388 49.5583 190.302 49.5919C192.217 49.6213 193.651 48.8817 194.564 48.2261L194.211 41.4094" stroke="#111111" stroke-width="0.7" stroke-linecap="round" stroke-linejoin="round"/>
<path d="M186.515 47.5916L185.038 55.0386L189.927 50.5796L193.2 56.312L194.568 48.2261" stroke="#111111" stroke-width="0.7" stroke-linecap="round" stroke-linejoin="round"/>
<path d="M186.397 53.7146L189.04 62.0694L192.368 54.9081" stroke="#111111" stroke-width="0.7" stroke-linecap="round" stroke-linejoin="round"/>
<path d="M189.124 61.9561L188.699 74.5513" stroke="#111111" stroke-width="0.7" stroke-linecap="round" stroke-linejoin="round"/>
<path d="M190.07 52.1556C190.062 52.3405 189.906 52.4876 189.717 52.4792C189.532 52.4708 189.385 52.3111 189.393 52.1262C189.401 51.9413 189.557 51.7942 189.746 51.8026C189.931 51.811 190.079 51.9665 190.07 52.1556Z" stroke="#111111" stroke-width="0.7" stroke-linecap="round" stroke-linejoin="round"/>
<path d="M189.936 55.1268C189.927 55.3117 189.771 55.4588 189.582 55.4504C189.397 55.442 189.25 55.2865 189.258 55.0974C189.267 54.9125 189.422 54.7654 189.612 54.7738C189.797 54.7822 189.944 54.9377 189.936 55.1268Z" stroke="#111111" stroke-width="0.7" stroke-linecap="round" stroke-linejoin="round"/>
<path d="M189.806 58.098C189.797 58.2829 189.642 58.43 189.452 58.4216C189.267 58.4132 189.12 58.2577 189.128 58.0686C189.137 57.8837 189.297 57.7366 189.482 57.745C189.667 57.7534 189.814 57.9089 189.806 58.098Z" stroke="#111111" stroke-width="0.7" stroke-linecap="round" stroke-linejoin="round"/>
<path d="M193.466 38.3793C193.411 37.9297 193.36 37.48 193.306 37.0639C193.205 36.2654 193.112 35.5762 193.024 35.2148C191.774 35.5594 188.143 34.971 187.424 34.1389" stroke="#111111" stroke-width="0.7" stroke-linecap="round" stroke-linejoin="round"/>
<path d="M189.86 37.4715C189.738 37.7152 189.743 37.9674 189.877 38.0346C190.012 38.1019 190.218 37.9632 190.344 37.7194C190.471 37.4757 190.462 37.2235 190.327 37.1563C190.193 37.089 189.987 37.2319 189.86 37.4715Z" fill="#111111"/>
<path d="M187.424 36.2277C187.302 36.4714 187.306 36.7236 187.441 36.7908C187.575 36.8581 187.786 36.7194 187.908 36.4756C188.034 36.2319 188.026 35.9797 187.891 35.9125C187.756 35.841 187.55 35.9839 187.424 36.2277Z" fill="#111111"/>
<path d="M188.77 36.4883C188.577 36.9422 188.143 37.4969 187.891 37.7028C187.638 37.9046 187.474 38.2282 187.529 38.5518C187.584 38.8754 187.967 39.22 187.967 39.22" stroke="#111111" stroke-width="0.7" stroke-linecap="round" stroke-linejoin="round"/>
<path d="M188.829 40.2284C188.026 40.3587 186.923 40.1654 186.427 39.5266C186.502 40.3713 186.709 41.8885 187.411 41.9935C188.114 42.0986 188.888 40.8546 188.829 40.2284Z" stroke="#111111" stroke-width="0.7" stroke-linecap="round" stroke-linejoin="round"/>
<path d="M190.012 36.3832C190.512 36.2697 191.202 36.6606 191.257 37.2027" stroke="#111111" stroke-width="0.7" stroke-linecap="round" stroke-linejoin="round"/>
</g>
<g clip-path="url(#clip1_1956_67591)">
<path d="M533.319 0.758545H423.833C421.63 0.758545 419.844 2.54042 419.844 4.73848V170.636C419.844 172.834 421.63 174.616 423.833 174.616H533.319C535.522 174.616 537.307 172.834 537.307 170.636V4.73848C537.307 2.54042 535.522 0.758545 533.319 0.758545Z" fill="#181334"/>
<path d="M534.012 5.7605H423.139V169.608H534.012V5.7605Z" fill="#FAFAFA"/>
<path d="M534.012 5.7605H423.139V169.608H534.012V5.7605Z" stroke="#111111" stroke-width="0.7" stroke-linecap="round" stroke-linejoin="round"/>
<path d="M533.319 0.758545H423.833C421.63 0.758545 419.844 2.54042 419.844 4.73848V170.636C419.844 172.834 421.63 174.616 423.833 174.616H533.319C535.522 174.616 537.307 172.834 537.307 170.636V4.73848C537.307 2.54042 535.522 0.758545 533.319 0.758545Z" stroke="#111111" stroke-width="0.7" stroke-linecap="round" stroke-linejoin="round"/>
<path d="M494.249 60.0735L502.465 58.2944L499.305 55.0067C497.831 54.0658 495.078 54.0549 494.249 60.0735Z" fill="#181334"/>
<path d="M449.7 74.0845C449.966 72.1486 450.941 66.8979 451.581 64.9836C452.339 62.6854 452.052 61.5768 451.879 60.5494C451.705 59.522 450.654 59.1056 449.765 58.9866C448.882 58.8677 447.825 60.2196 447.294 61.0685C446.941 61.6309 446.334 62.7665 445.847 63.729C444.606 60.8198 443.413 58.1377 442.806 57.0453C441.343 54.4227 440.286 52.8491 438.487 53.7738C436.693 54.6931 436.926 56.3694 437.663 57.943C438.4 59.5166 439.75 62.7665 439.75 62.7665C439.75 62.7665 437.723 59.7761 436.623 58.1377C435.517 56.4992 434.514 54.7363 432.493 55.9098C431.16 56.683 431.154 58.7595 431.967 60.2412C432.78 61.7283 434.146 64.1076 435.382 66.0002C435.382 66.0002 432.628 62.7395 431.815 61.7337C431.008 60.7279 429.675 59.1975 427.903 60.571C426.125 61.9446 427.182 63.8642 428.244 65.2594C429.301 66.6545 431.295 69.8774 431.295 69.8774C431.295 69.8774 429.198 68.1091 428.081 67.3575C426.97 66.6113 425.675 66.4112 424.597 67.8009C423.518 69.1906 424.754 70.5587 425.843 71.57C426.932 72.5758 428.656 74.3819 429.816 75.896C430.97 77.4101 431.87 80.3572 431.87 80.3572C431.87 80.3572 437.04 78.616 440.872 77.0315C444.703 75.4471 449.017 74.463 449.695 74.0899L449.7 74.0845Z" fill="#FFE8E0"/>
<path d="M552.195 94.1033L551.312 95.4768L564.454 108.887C564.454 108.887 565.392 108.298 565.928 107.709C566.47 107.119 567.061 105.005 567.061 105.005L562.042 95.7688L556.037 92.8704" fill="#FFE8E0"/>
<path d="M555.934 88.9661L554.471 85.6567L572.496 78.1997C572.496 78.1997 575.58 86.484 577.601 89.6042C579.791 92.9839 583.07 96.4826 586.246 97.9913C580.663 101.82 568.621 109.077 568.621 109.077C568.621 109.077 561.863 102.252 559.885 97.6506" fill="white"/>
<path d="M551.686 94.671C552.699 92.07 554.883 89.1878 557.273 88.3442C560.059 87.3654 567.597 87.4087 568.015 90.5991C568.432 93.7842 563.148 94.0113 560.899 93.7085C560.877 95.2442 560.715 97.564 558.671 98.3752" fill="#FFE8E0"/>
<path d="M551.686 94.671C552.699 92.07 554.883 89.1878 557.273 88.3442C560.059 87.3654 567.597 87.4087 568.015 90.5991C568.432 93.7842 563.148 94.0113 560.899 93.7085C560.877 95.2442 560.715 97.564 558.671 98.3752" stroke="#111111" stroke-width="0.7" stroke-linecap="round" stroke-linejoin="round"/>
<path d="M449.299 169.381C451.06 161.762 468.939 122.655 471.926 118.188L509.906 126.965C513.407 134.633 516.865 163.812 516.978 169.662" fill="#181334"/>
<path d="M550.189 93.3894L533.546 107.817L533.432 107.6C532.879 106.243 530.375 100.349 526.804 95.8931C520.572 88.117 518.263 86.246 506.063 82.3148L506.399 82.6284L504.356 81.8227L493.284 79.6597L491.994 79.5353L492.336 79.4163C479.567 78.2916 476.028 80.049 470.283 83.088C465.281 85.7323 460.154 89.8961 458.908 90.9289L458.561 91.1182L450.095 73.8628L431.609 80.5519C434.438 92.973 437.343 103.658 442.958 110.98C448.367 118.026 455.987 116.566 461.807 114.192C465.801 112.559 469.465 109.861 470.012 109.45L470.213 109.477L468.294 117.312L513.45 127.549L513.895 117.242L514.138 117.285C517.347 121.887 519.466 124.353 522.192 127.251C526.641 131.967 534.679 134.984 541.724 131.583C549.88 127.641 565.424 108.698 565.424 108.698L550.179 93.3948L550.189 93.3894Z" fill="#FFB73E"/>
<path d="M505.603 86.0677L498.167 94.9738L496.861 86.3002L490.298 92.8487L491.409 82.2229" fill="white"/>
<path d="M508.946 68.5581L509.9 62.4098L499.495 56.0884C496.72 57.0293 494.259 59.387 492.948 62.7775C491.024 67.7416 490.829 72.5489 494.173 74.5713H493.94C493.94 74.5713 492.384 79.2326 491.414 82.2229C492.303 83.8614 493.81 85.3647 497.197 86.2894C499.619 86.9545 503.901 86.4462 505.613 85.8892C505.733 82.9908 506.6 77.1453 506.871 75.377C507.304 75.3121 507.662 75.2418 507.927 75.1553L508.014 74.5929C509.201 74.2252 510.204 73.2681 510.453 72.0406C510.735 70.64 510.095 69.2719 508.952 68.5581H508.946Z" fill="#FFE8E0" stroke="#111111" stroke-width="0.7" stroke-linecap="round" stroke-linejoin="round"/>
<path d="M506.806 76.0475C509.706 74.8254 511.37 72.976 512.692 69.9695C514.237 66.46 514.307 62.3232 511.857 58.6299C509.971 55.7909 503.587 53.6712 500.682 53.5414C498.059 53.4224 500.249 59.1003 501.441 61.3499C502.633 63.5994 505.517 66.6384 506.725 67.8876" fill="#181334"/>
<path d="M513.418 61.4255C513.965 61.7338 514.572 61.9609 515.223 62.0961C518.572 62.772 521.84 60.6144 522.523 57.2726C523.2 53.9307 521.038 50.67 517.689 49.9886C514.339 49.3127 511.071 51.4703 510.394 54.8175C510.275 55.4178 510.204 56.3371 510.253 56.9157" fill="#181334"/>
<path d="M445.825 63.5236C444.606 60.7116 443.44 58.1755 442.806 57.0453C441.343 54.4227 440.286 52.8491 438.487 53.7738C436.693 54.6931 436.926 56.3694 437.663 57.943C438.4 59.5166 439.75 62.7665 439.75 62.7665C439.75 62.7665 437.723 59.7761 436.623 58.1377C435.517 56.4992 434.514 54.7363 432.493 55.9098C431.16 56.683 431.154 58.7595 431.967 60.2412C432.78 61.7283 434.146 64.1076 435.382 66.0002C435.382 66.0002 432.628 62.7395 431.815 61.7337C431.008 60.7279 429.675 59.1975 427.903 60.571C426.125 61.9446 427.182 63.8642 428.244 65.2594C429.301 66.6545 431.295 69.8774 431.295 69.8774C431.295 69.8774 429.198 68.1091 428.081 67.3575C426.97 66.6113 425.675 66.4112 424.597 67.8009C423.518 69.1906 424.754 70.5587 425.843 71.57C426.932 72.5758 428.656 74.3819 429.816 75.896C430.379 76.6314 431.154 78.5024 431.805 80.2328" stroke="#111111" stroke-width="0.7" stroke-linecap="round" stroke-linejoin="round"/>
<path d="M430.017 71.5917C430.84 70.6616 437.013 64.0698 441.365 61.9338" stroke="#111111" stroke-width="0.7" stroke-linecap="round" stroke-linejoin="round"/>
<path d="M449.727 73.9548C449.863 71.5214 451.933 63.94 452.139 62.215C452.367 60.2575 450.866 58.4135 448.98 59.1814C447.511 59.7762 445.468 64.2104 444.638 66.076C442.46 65.081 438.699 67.4333 437.886 71.8945" fill="#FFE8E0"/>
<path d="M449.727 73.9548C449.863 71.5214 451.933 63.94 452.139 62.215C452.367 60.2575 450.866 58.4135 448.98 59.1814C447.511 59.7762 445.468 64.2104 444.638 66.076C442.46 65.081 438.699 67.4333 437.886 71.8945" stroke="#111111" stroke-width="0.7" stroke-linecap="round" stroke-linejoin="round"/>
<path d="M460.848 95.7687L450.101 73.8628L431.615 80.5519C434.444 92.973 437.349 103.658 442.964 110.98C448.373 118.026 455.992 116.566 461.813 114.192C466.143 112.424 470.1 109.39 470.1 109.39" stroke="#111111" stroke-width="0.7" stroke-linecap="round" stroke-linejoin="round"/>
<path d="M435.43 86.8138L433.533 79.8867" stroke="#111111" stroke-width="0.7" stroke-linecap="round" stroke-linejoin="round"/>
<path d="M439.067 85.4673L437.17 78.5403" stroke="#111111" stroke-width="0.7" stroke-linecap="round" stroke-linejoin="round"/>
<path d="M443.25 83.9588L441.354 77.0317" stroke="#111111" stroke-width="0.7" stroke-linecap="round" stroke-linejoin="round"/>
<path d="M446.839 82.7149L444.937 75.7878" stroke="#111111" stroke-width="0.7" stroke-linecap="round" stroke-linejoin="round"/>
<path d="M450.052 81.5848L448.155 74.6577" stroke="#111111" stroke-width="0.7" stroke-linecap="round" stroke-linejoin="round"/>
<path d="M492.336 79.4164C479.568 78.2916 476.029 80.0491 470.284 83.0881C464.539 86.1271 458.621 91.1724 458.621 91.1724" stroke="#111111" stroke-width="0.7" stroke-linecap="round" stroke-linejoin="round"/>
<path d="M533.552 107.893C533.552 107.893 530.869 100.965 526.81 95.8986C520.577 88.1226 518.269 86.2516 506.069 82.3203" stroke="#111111" stroke-width="0.7" stroke-linecap="round" stroke-linejoin="round"/>
<path d="M531.742 109.385L550.19 93.3894L565.435 108.693C565.435 108.693 549.892 127.635 541.735 131.577C534.695 134.979 526.653 131.967 522.203 127.246C519.434 124.31 517.298 121.817 514.009 117.08" stroke="#111111" stroke-width="0.7" stroke-linecap="round" stroke-linejoin="round"/>
<path d="M546.911 100.441L552.412 95.8066" stroke="#111111" stroke-width="0.7" stroke-linecap="round" stroke-linejoin="round"/>
<path d="M549.669 103.166L555.164 98.532" stroke="#111111" stroke-width="0.7" stroke-linecap="round" stroke-linejoin="round"/>
<path d="M552.802 106.319L558.297 101.685" stroke="#111111" stroke-width="0.7" stroke-linecap="round" stroke-linejoin="round"/>
<path d="M555.441 109.039L560.937 104.405" stroke="#111111" stroke-width="0.7" stroke-linecap="round" stroke-linejoin="round"/>
<path d="M557.826 111.472L563.322 106.838" stroke="#111111" stroke-width="0.7" stroke-linecap="round" stroke-linejoin="round"/>
<path d="M514.518 103.155L513.466 127.543L468.311 117.312L474.099 93.6382" stroke="#111111" stroke-width="0.7" stroke-linecap="round" stroke-linejoin="round"/>
<path d="M506.806 76.0475C509.706 74.8254 511.37 72.976 512.692 69.9695C514.237 66.46 514.307 62.3232 511.857 58.6299C509.971 55.7909 503.587 53.6712 500.682 53.5414C498.059 53.4224 500.249 59.1003 501.441 61.3499C502.633 63.5994 505.517 66.6384 506.725 67.8876" stroke="#111111" stroke-width="0.7" stroke-linecap="round" stroke-linejoin="round"/>
<path d="M513.418 61.4255C513.965 61.7338 514.572 61.9609 515.223 62.0961C518.572 62.772 521.84 60.6144 522.523 57.2726C523.2 53.9307 521.038 50.67 517.689 49.9886C514.339 49.3127 511.071 51.4703 510.394 54.8175C510.275 55.4178 510.204 56.3371 510.253 56.9157" stroke="#111111" stroke-width="0.7" stroke-linecap="round" stroke-linejoin="round"/>
<path d="M551.686 94.671C552.699 92.07 554.883 89.1878 557.273 88.3442C560.059 87.3654 567.597 87.4087 568.015 90.5991C568.432 93.7842 563.148 94.0113 560.899 93.7085C560.877 95.2442 560.715 97.564 558.671 98.3752" stroke="#111111" stroke-width="0.7" stroke-linecap="round" stroke-linejoin="round"/>
<path d="M555.934 88.9661L554.471 85.6567L572.496 78.1997C572.496 78.1997 575.58 86.484 577.601 89.6042C579.791 92.9839 583.07 96.4826 586.246 97.9913C580.663 101.82 568.621 109.077 568.621 109.077C568.621 109.077 561.863 102.252 559.885 97.6506" stroke="#111111" stroke-width="0.7" stroke-linecap="round" stroke-linejoin="round"/>
<path d="M565.072 108.13C565.62 107.968 566.281 107.292 566.508 106.892" stroke="#111111" stroke-width="0.7" stroke-linecap="round" stroke-linejoin="round"/>
<path d="M566.648 88.6795L572.474 86.2407" stroke="#111111" stroke-width="0.7" stroke-linecap="round" stroke-linejoin="round"/>
<path d="M563.869 96.3364L574.909 90.7234" stroke="#111111" stroke-width="0.7" stroke-linecap="round" stroke-linejoin="round"/>
<path d="M566.367 100.349L577.407 94.7358" stroke="#111111" stroke-width="0.7" stroke-linecap="round" stroke-linejoin="round"/>
<path d="M509.911 126.965C513.412 134.632 516.794 163.449 516.913 169.295" stroke="#111111" stroke-width="0.7" stroke-linecap="round" stroke-linejoin="round"/>
<path d="M471.931 118.188C468.945 122.655 451.066 161.762 449.305 169.381" stroke="#111111" stroke-width="0.7" stroke-linecap="round" stroke-linejoin="round"/>
<path d="M499.489 56.0884C496.715 57.0293 494.254 59.387 492.943 62.7775C490.856 68.1634 490.791 73.3708 495.089 75.0255C497.007 75.7664 499.202 75.8313 501.354 75.1175" stroke="#111111" stroke-width="0.7" stroke-linecap="round" stroke-linejoin="round"/>
<path d="M506.28 74.6955C508.085 75.0632 510.079 73.8465 510.448 72.0458C510.816 70.2451 509.646 68.4822 507.836 68.1199C507.321 68.0172 506.817 68.0334 506.34 68.1578" fill="#FFE8E0"/>
<path d="M506.28 74.6955C508.085 75.0632 510.079 73.8465 510.448 72.0458C510.816 70.2451 509.646 68.4822 507.836 68.1199C507.321 68.0172 506.817 68.0334 506.34 68.1578" stroke="#111111" stroke-width="0.7" stroke-linecap="round" stroke-linejoin="round"/>
<path d="M506.947 74.8633C506.947 74.8633 505.749 82.4501 505.608 85.8893C503.896 86.4463 499.62 86.9546 497.192 86.2894C493.799 85.3593 492.293 83.8615 491.409 82.223C492.374 79.2326 493.935 74.5659 493.935 74.5659" stroke="#111111" stroke-width="0.7" stroke-linecap="round" stroke-linejoin="round"/>
<path d="M505.603 86.0677L498.167 94.9738L496.861 86.3002L490.298 92.8487L491.409 82.2229" stroke="#111111" stroke-width="0.7" stroke-linecap="round" stroke-linejoin="round"/>
<path d="M500.855 63.6048C500.649 64.0807 500.698 64.5565 500.958 64.6701C501.219 64.7837 501.598 64.4916 501.809 64.0104C502.015 63.5345 501.972 63.0587 501.706 62.9451C501.446 62.8369 501.067 63.129 500.861 63.6048H500.855Z" fill="#111111"/>
<path d="M496.075 61.5498C495.869 62.0257 495.918 62.5016 496.178 62.6151C496.438 62.7287 496.818 62.4367 497.024 61.9608C497.23 61.4849 497.181 61.0091 496.921 60.8955C496.66 60.782 496.281 61.0794 496.075 61.5552V61.5498Z" fill="#111111"/>
<path d="M498.661 61.8799C498.346 62.7667 497.598 63.8753 497.143 64.2916C496.688 64.708 496.417 65.3461 496.563 65.9518C496.71 66.5574 497.474 67.163 497.474 67.163" stroke="#111111" stroke-width="0.7" stroke-linecap="round" stroke-linejoin="round"/>
<path d="M494.379 68.012C495.425 68.8772 497.598 69.472 499.04 69.3963C498.492 70.9699 497.473 72.2731 495.994 71.8946C494.52 71.516 494.298 69.3909 494.379 68.012Z" stroke="#111111" stroke-width="0.7" stroke-linecap="round" stroke-linejoin="round"/>
<path d="M501.002 61.5228C501.94 61.247 503.3 61.9013 503.468 62.9233" stroke="#111111" stroke-width="0.7" stroke-linecap="round" stroke-linejoin="round"/>
<path d="M498.563 60.5549C498.14 59.668 496.748 59.0732 495.864 59.6248" stroke="#111111" stroke-width="0.7" stroke-linecap="round" stroke-linejoin="round"/>
<path d="M499.305 55.0067C497.831 54.0658 495.078 54.0549 494.249 60.0735" stroke="#111111" stroke-width="0.7" stroke-linecap="round" stroke-linejoin="round"/>
<path d="M82.3563 106.995H204.128C205.738 106.995 207.05 108.298 207.05 109.909V189.919C207.05 191.525 205.743 192.834 204.128 192.834H82.3508C80.7412 192.834 79.4297 191.53 79.4297 189.919V109.909C79.4297 108.303 80.7358 106.995 82.3508 106.995H82.3563Z" fill="#181334"/>
<path d="M203.376 109.406H83.1104V190.422H203.376V109.406Z" fill="#FAFAFA"/>
<path d="M203.376 109.406H83.1104V190.422H203.376V109.406Z" stroke="#111111" stroke-width="0.7" stroke-linecap="round" stroke-linejoin="round"/>
<path d="M82.3563 106.995H204.128C205.738 106.995 207.05 108.298 207.05 109.909V189.919C207.05 191.525 205.743 192.834 204.128 192.834H82.3508C80.7412 192.834 79.4297 191.53 79.4297 189.919V109.909C79.4297 108.303 80.7358 106.995 82.3508 106.995H82.3563Z" stroke="#111111" stroke-width="0.7" stroke-linecap="round" stroke-linejoin="round"/>
<path d="M114.842 118.756C113.661 117.215 111.585 115.355 106.561 116.204C101.028 117.134 99.1795 122.049 98.8218 124.959C98.2527 129.598 100.822 131.945 102.643 133" fill="#181334"/>
<path d="M190.591 136.833L190.878 136.85C191.756 135.671 191.084 134.076 189.615 133.903C189.29 133.865 188.748 133.875 188.071 133.924C188.314 133.14 187.859 131.772 186.152 131.664C184.532 131.561 177.811 132.648 172.451 135.281L172.338 135.119C172.923 133.621 172.977 132.059 171.611 131.312C170.202 130.544 167.622 132.908 165.525 135.536C163.569 137.947 161.791 141.608 160.696 142.717C161.179 143.879 163.249 146.259 165.612 148.362C170.013 152.288 172.744 153.04 172.744 153.04C174.592 150.779 176.516 148.93 177.6 148.032C179.681 146.313 182.776 144.826 185.252 144.561C187.572 144.307 189.723 143.69 189.518 141.868C189.463 141.403 189.154 141.067 188.677 140.83L188.705 140.759C189.929 140.786 191.821 140.24 191.88 138.731C191.908 138.045 191.669 137.19 190.585 136.828L190.591 136.833Z" fill="#FFE8E0"/>
<path d="M169.72 151.347L166.81 149.19C165.666 148.276 164.409 147.038 163.293 146.043C161.905 144.81 160.729 142.836 160.729 142.836L155.716 150.206L152.318 155.035C152.318 155.035 150.015 153.029 148.411 151.32C146.801 149.617 142.46 146.372 138.731 144.193C135.003 142.014 128.131 140.089 124.906 139.424C121.687 138.753 116.728 139.051 115.758 139.007C114.788 138.969 105.081 140.673 105.081 140.673L103.081 141.154L102.653 140.494C100.892 140.754 91.9983 142.96 85.2293 146.47C80.0536 149.157 73.6964 155.111 69.7998 160.113C65.9085 165.12 63.6648 173.275 65.4153 177.833C67.1658 182.392 72.4445 183.657 76.016 184.057C78.005 184.279 80.395 184.047 82.8175 183.582L83.3107 190.309C83.3107 190.309 142.785 190.395 144.839 190.276C144.687 189.616 139.647 176.552 139.647 176.552L136.58 169.868C141.305 174.8 145.993 176.903 151.505 176.898C157.055 176.898 163.461 173.469 166.837 167.305C168.999 163.368 170.978 157.68 172.771 153.121C170.663 152.18 171.633 152.515 169.72 151.342V151.347Z" fill="#0175DA"/>
<path d="M169.21 158.75C169.237 159.426 168.711 159.999 168.029 160.032C167.351 160.059 166.777 159.534 166.744 158.858C166.717 158.182 167.243 157.609 167.92 157.577C168.603 157.55 169.178 158.074 169.205 158.75H169.21Z" fill="#0175DA"/>
<path d="M88.7847 179.861C88.8118 180.537 88.2861 181.11 87.6087 181.143C86.9258 181.17 86.3568 180.645 86.3242 179.969C86.2971 179.293 86.8228 178.715 87.5003 178.688C88.1832 178.661 88.7576 179.185 88.7847 179.861Z" fill="#0175DA"/>
<path d="M96.0741 179.304C97.727 178.493 101.277 176.979 104.642 176.108C108.1 175.211 112.512 173.945 114.674 172.961C116.836 171.977 118.516 170.355 119.465 169.138C120.278 168.1 120.175 166.283 118.885 165.693L118.782 165.634C118.89 165.428 118.961 165.239 118.988 165.066C119.243 163.39 118.798 161.973 117.346 161.53L117.14 161.849C117.324 160.967 117.21 160.21 116.95 159.74C116.37 158.691 115.476 158.328 114.186 158.496L114.121 158.631C114.067 158.139 113.872 157.658 113.547 157.155C112.501 155.543 110.577 156.733 108.756 158.172C108.355 158.491 107.921 158.831 107.461 159.172C105.482 160.459 104.935 160.843 103.894 161.092C102.854 161.335 101.548 161.405 100.99 160.702C100.437 159.999 100.41 159.475 99.6347 157.42C99.1849 156.23 98.036 155.311 96.3505 155.727C94.665 156.149 94.2585 157.793 94.3777 159.599C94.497 161.411 95.1636 163.822 94.6975 164.223C94.2314 164.623 92.0311 165.185 91.5921 165.245C91.4729 166.218 92.3508 170.695 92.7248 171.809C93.0987 172.923 94.8005 178.406 96.0849 179.304H96.0741Z" fill="#FFE8E0"/>
<path d="M116.917 121.13C116.321 120.243 115.633 119.465 114.896 118.799H114.891L114.885 118.789C114.885 118.789 114.874 118.799 114.858 118.816C114.869 118.81 114.88 118.799 114.885 118.789L113.98 119.34L112.815 119.778L110.457 120.27C108.425 120.562 106.268 120.589 105.184 120.243C105.011 120.86 104.799 122.038 104.572 123.396C104.463 124.061 104.35 124.775 104.236 125.483L104.171 125.526C103.748 125.299 103.195 125.164 102.713 125.142C101.163 125.078 99.8567 126.278 99.7863 127.819C99.7212 129.366 101.19 130.663 102.74 130.728C102.8 130.728 102.718 142.057 102.718 142.057C102.745 142.079 102.772 142.1 102.8 142.117H102.691L109.075 152.007L111.791 144.631L116.88 150.282L116.663 141.5H116.592L115.102 134.568L116.067 133.816C119.638 131.399 120.017 125.71 116.912 121.119L116.917 121.13Z" fill="#FFE8E0"/>
<path d="M102.859 142.263L109.097 151.996L111.785 144.545L116.901 150.271L116.647 141.511C116.647 141.511 115.633 142.766 114.663 143.268C113.693 143.771 112.306 144.377 111.964 144.431C111.623 144.485 109.851 145.048 107.412 144.345C104.978 143.642 102.859 142.263 102.859 142.263Z" fill="#0175DA"/>
<path d="M116.137 138.969C134.71 138.104 146.492 148.93 152.258 155.073C154.632 152.018 162.111 140.565 163.683 138.12C165.807 134.811 169.747 130.296 171.622 131.318C173.042 132.091 172.928 133.746 172.283 135.298" stroke="#111111" stroke-width="0.7" stroke-linecap="round" stroke-linejoin="round"/>
<path d="M170.17 136.569C175.692 132.994 184.293 131.545 186.158 131.664C187.865 131.772 188.32 133.146 188.071 133.93" stroke="#111111" stroke-width="0.7" stroke-linecap="round" stroke-linejoin="round"/>
<path d="M136.894 170.219C141.652 175.227 145.944 176.914 151.499 176.909C157.049 176.909 163.455 173.48 166.831 167.316C168.923 163.498 170.983 157.566 172.744 153.051C174.592 150.79 176.516 148.941 177.6 148.043C179.681 146.324 182.776 144.836 185.252 144.571C187.572 144.317 189.723 143.701 189.518 141.879C189.214 139.202 180.375 140.683 178.928 140.97" stroke="#111111" stroke-width="0.7" stroke-linecap="round" stroke-linejoin="round"/>
<path d="M160.729 142.82C161.483 145.053 169.412 151.823 172.685 153.067" stroke="#111111" stroke-width="0.7" stroke-linecap="round" stroke-linejoin="round"/>
<path d="M155.174 151.196C156.296 154.776 164.013 160.8 169.27 161.903" stroke="#111111" stroke-width="0.7" stroke-linecap="round" stroke-linejoin="round"/>
<path d="M178.077 138.304C180.207 137.466 186.001 136.801 189.106 136.671C191.48 136.569 191.924 137.812 191.886 138.737C191.827 140.289 189.821 140.824 188.602 140.765" stroke="#111111" stroke-width="0.7" stroke-linecap="round" stroke-linejoin="round"/>
<path d="M176.354 134.849C177.264 136.26 178.765 140.148 178.998 142.76" stroke="#111111" stroke-width="0.7" stroke-linecap="round" stroke-linejoin="round"/>
<path d="M177.069 136.044C179.27 135.011 187.805 133.686 189.616 133.897C191.084 134.07 191.756 135.671 190.878 136.844" stroke="#111111" stroke-width="0.7" stroke-linecap="round" stroke-linejoin="round"/>
<path d="M78.6826 167.202C82.5793 166.645 87.8254 165.904 90.2588 165.277C91.9822 164.834 94.5728 164.314 94.8709 163.666C95.1689 163.017 92.7735 155.998 96.6701 155.435C100.567 154.878 99.3366 160.448 101.868 160.908C104.393 161.367 106.891 159.356 108.707 157.917C110.528 156.479 112.452 155.289 113.498 156.901C114.544 158.512 114.262 159.967 112.116 161.968C109.71 164.212 108.002 165.023 106.794 165.434" stroke="#111111" stroke-width="0.7" stroke-linecap="round" stroke-linejoin="round"/>
<path d="M114.137 158.242C115.426 158.08 116.315 158.442 116.901 159.486C117.48 160.535 117.34 162.957 114.841 165.136C112.348 167.316 110.571 168.024 109.237 168.587" stroke="#111111" stroke-width="0.7" stroke-linecap="round" stroke-linejoin="round"/>
<path d="M117.297 161.281C118.749 161.73 119.194 163.146 118.939 164.817C118.668 166.558 113.828 170.468 110.81 171.317" stroke="#111111" stroke-width="0.7" stroke-linecap="round" stroke-linejoin="round"/>
<path d="M118.836 165.445C120.126 166.034 120.229 167.846 119.416 168.889C118.462 170.111 116.788 171.728 114.625 172.712C112.463 173.697 108.051 174.962 104.594 175.86C101.228 176.73 97.1579 178.374 96.0252 179.055C94.8925 179.737 82.9641 184.603 75.962 183.814C72.3905 183.414 67.1119 182.148 65.3613 177.59C63.6108 173.031 65.8491 164.877 69.7458 159.869C73.6424 154.868 79.9996 148.908 85.1753 146.226C85.1753 146.226 86.7523 145.383 88.1181 144.81C89.4838 144.231 91.3807 143.517 91.3807 143.517C96.5076 141.603 101.347 140.435 102.599 140.251" stroke="#111111" stroke-width="0.7" stroke-linecap="round" stroke-linejoin="round"/>
<path d="M91.5641 164.942C91.4557 167.354 92.9353 174.984 96.0732 178.931" stroke="#111111" stroke-width="0.7" stroke-linecap="round" stroke-linejoin="round"/>
<path d="M169.162 158.496C169.189 159.172 168.664 159.745 167.981 159.778C167.303 159.805 166.729 159.28 166.696 158.604C166.669 157.928 167.195 157.355 167.872 157.323C168.555 157.295 169.13 157.82 169.157 158.496H169.162Z" stroke="#111111" stroke-width="0.7" stroke-linecap="round" stroke-linejoin="round"/>
<path d="M88.7408 179.607C88.7679 180.283 88.2422 180.856 87.5647 180.889C86.8819 180.916 86.3128 180.391 86.2803 179.715C86.2532 179.039 86.7789 178.461 87.4563 178.434C88.1392 178.407 88.7137 178.931 88.7408 179.607Z" stroke="#111111" stroke-width="0.7" stroke-linecap="round" stroke-linejoin="round"/>
<path d="M82.5139 166.688C81.2945 172.145 83.7171 180.607 85.9012 182.57" stroke="#111111" stroke-width="0.7" stroke-linecap="round" stroke-linejoin="round"/>
<path d="M82.8711 183.387L83.1638 190.092" stroke="#111111" stroke-width="0.7" stroke-linecap="round" stroke-linejoin="round"/>
<path d="M144.335 187.972C144.335 187.972 131.42 156.073 127.816 150.482" stroke="#111111" stroke-width="0.7" stroke-linecap="round" stroke-linejoin="round"/>
<path d="M116.072 133.827C119.644 131.41 120.023 125.721 116.917 121.13C116.321 120.243 115.633 119.465 114.896 118.799H114.891L114.885 118.789M114.885 118.789C114.885 118.789 114.874 118.799 114.858 118.816C114.869 118.81 114.88 118.799 114.885 118.789ZM114.885 118.789L113.98 119.34L112.815 119.778L110.457 120.27C108.425 120.562 106.268 120.589 105.184 120.243C105.011 120.86 104.799 122.038 104.572 123.396C104.463 124.061 104.35 124.775 104.236 125.483L104.171 125.526C103.748 125.299 103.195 125.164 102.713 125.142C101.163 125.078 99.8567 126.278 99.7863 127.819C99.7212 129.366 101.19 130.664 102.74 130.728C102.8 130.728 102.718 142.057 102.718 142.057C104.247 143.247 106.658 144.615 109.948 144.701C113.238 144.783 115.909 142.587 116.598 141.527L115.102 134.573" stroke="#111111" stroke-width="0.7" stroke-linecap="round" stroke-linejoin="round"/>
<path d="M102.696 142.133L109.081 152.018L111.79 144.642L116.885 150.293L116.668 141.511" stroke="#111111" stroke-width="0.7" stroke-linecap="round" stroke-linejoin="round"/>
<path d="M113.692 173.415C113.936 178.001 114.261 187.87 114.272 190.281" stroke="#111111" stroke-width="0.7" stroke-linecap="round" stroke-linejoin="round"/>
<path d="M111.823 144.674C111.883 145.485 112.23 150.287 112.652 156.463" stroke="#111111" stroke-width="0.7" stroke-linecap="round" stroke-linejoin="round"/>
<path d="M104.23 130.231C107.368 134.573 112.593 136.185 116.072 133.827C119.644 131.41 120.023 125.721 116.918 121.13C116.322 120.243 115.633 119.464 114.896 118.799" stroke="#111111" stroke-width="0.7" stroke-linecap="round" stroke-linejoin="round"/>
<path d="M114.842 118.756C113.661 117.215 111.585 115.355 106.561 116.204C101.028 117.134 99.1795 122.049 98.8218 124.959C98.2527 129.598 100.822 131.945 102.643 133" stroke="#111111" stroke-width="0.7" stroke-linecap="round" stroke-linejoin="round"/>
<path d="M110.647 124.272C110.783 124.721 110.691 125.142 110.447 125.218C110.197 125.294 109.889 124.991 109.753 124.542C109.618 124.093 109.71 123.672 109.954 123.596C110.197 123.52 110.512 123.823 110.647 124.272Z" fill="#111111"/>
<path d="M115.145 122.915C115.281 123.363 115.189 123.785 114.945 123.861C114.696 123.937 114.387 123.634 114.251 123.185C114.116 122.736 114.208 122.314 114.452 122.239C114.701 122.163 115.01 122.466 115.145 122.915Z" fill="#111111"/>
<path d="M112.787 122.947C112.977 123.774 113.54 124.845 113.904 125.267C114.267 125.689 114.451 126.283 114.256 126.813C114.061 127.343 113.313 127.808 113.313 127.808" stroke="#111111" stroke-width="0.7" stroke-linecap="round" stroke-linejoin="round"/>
<path d="M113.942 132.399C115.411 132.286 115.877 130.674 116.013 128.884C114.511 129.284 112.772 129.56 111.162 129.603C111.211 130.658 112.284 132.524 113.942 132.394V132.399Z" stroke="#111111" stroke-width="0.7" stroke-linecap="round" stroke-linejoin="round"/>
<path d="M110.729 122.385C109.91 122.039 108.626 122.487 108.371 123.39" stroke="#111111" stroke-width="0.7" stroke-linecap="round" stroke-linejoin="round"/>
<path d="M113.042 121.73C113.584 121.033 114.928 120.8 115.595 121.465" stroke="#111111" stroke-width="0.7" stroke-linecap="round" stroke-linejoin="round"/>
<path d="M162.799 204.206L174.413 218.828C175.427 220.099 177.275 220.315 178.548 219.304L195.95 205.536L199.002 203.124L239.876 170.787L249.832 147.373L223.943 152.094L183.729 183.906L180.678 186.318L163.276 200.085C162.002 201.091 161.786 202.941 162.799 204.206Z" fill="#FFB73E"/>
<path d="M162.799 204.206L174.414 218.828C175.427 220.098 177.275 220.315 178.549 219.303L188.748 211.235L173.476 192.012L163.282 200.08C162.008 201.086 161.791 202.935 162.805 204.2L162.799 204.206Z" fill="#181334"/>
<path d="M176.409 189.688L171.449 193.612L186.722 212.832L191.682 208.908L176.409 189.688Z" fill="#E7E7E7"/>
<path d="M249.838 147.378L224.182 152.056L226.463 159.172L232.224 160.875L232.848 166.932C232.848 166.932 237.714 169.49 239.915 170.717L249.838 147.373V147.378Z" fill="white"/>
<path d="M238.18 149.503L244.992 158.772L249.837 147.378L238.18 149.503Z" fill="#181334"/>
<path d="M162.799 204.206L174.413 218.828C175.427 220.099 177.275 220.315 178.548 219.304L195.95 205.536L199.002 203.124L239.876 170.787L249.832 147.373L223.943 152.094L183.729 183.906L180.678 186.318L163.276 200.085C162.002 201.091 161.786 202.941 162.799 204.206Z" stroke="#111111" stroke-width="0.7" stroke-linecap="round" stroke-linejoin="round"/>
<path d="M186.51 212.723L171.411 193.715" stroke="#111111" stroke-width="0.7" stroke-linecap="round" stroke-linejoin="round"/>
<path d="M191.561 208.726L176.462 189.719" stroke="#111111" stroke-width="0.7" stroke-linecap="round" stroke-linejoin="round"/>
<path d="M187.415 202.941L232.885 166.975" stroke="#111111" stroke-width="0.7" stroke-linecap="round" stroke-linejoin="round"/>
<path d="M181.042 195.029L226.387 159.161" stroke="#111111" stroke-width="0.7" stroke-linecap="round" stroke-linejoin="round"/>
<path d="M239.882 170.787L232.848 166.932L232.224 160.875L226.463 159.172L224.23 152.088" stroke="#111111" stroke-width="0.7" stroke-linecap="round" stroke-linejoin="round"/>
<path d="M245.084 158.545L237.99 149.622" stroke="#111111" stroke-width="0.7" stroke-linecap="round" stroke-linejoin="round"/>
<path d="M439.723 97.5154C441.424 97.1639 442.053 96.0176 442.443 95.1686L459.51 58.0729C460.469 55.9856 459.553 53.5144 457.461 52.5573L398.686 25.4926C396.594 24.5355 394.117 25.4494 393.158 27.5367L376.092 64.6323C375.132 66.725 376.048 69.1908 378.14 70.148L414.381 86.7491C414.381 86.7491 437.051 98.067 439.723 97.51V97.5154Z" fill="#0175DA"/>
<path d="M415.156 41.7048L403.934 65.928L410.407 68.9141L421.63 44.6909L415.156 41.7048Z" fill="white"/>
<path d="M386.194 72.5272L384.465 73.0518L378.14 70.1533C376.048 69.1962 375.132 66.725 376.092 64.6377L393.158 27.542C394.117 25.4547 396.594 24.5409 398.686 25.498L407.503 29.5374L387.955 72.0243L386.194 72.5326V72.5272Z" fill="white"/>
<path d="M394.946 25.6223C394.188 26.0387 393.548 26.6876 393.158 27.5366L376.092 64.6322C375.132 66.7249 376.048 69.1907 378.14 70.1479L436.915 97.2125C439.007 98.1697 441.484 97.2558 442.443 95.1631L459.51 58.0675C460.469 55.9802 459.553 53.5089 457.461 52.5518L407.487 29.5157" stroke="#111111" stroke-width="0.7" stroke-linecap="round" stroke-linejoin="round"/>
<path d="M378.791 70.4507L383.154 72.4515C385.246 73.4086 387.722 72.4948 388.682 70.4075L407.39 29.7483" stroke="#111111" stroke-width="0.7" stroke-linecap="round" stroke-linejoin="round"/>
<path d="M443.625 91.8483L390.378 67.4009" stroke="#111111" stroke-width="0.7" stroke-linecap="round" stroke-linejoin="round"/>
<path d="M440.661 97.0882C441.425 96.6719 442.059 96.0176 442.449 95.1686L459.515 58.0729C460.475 55.9856 459.559 53.5144 457.467 52.5573L398.692 25.4926C396.6 24.5355 394.123 25.4494 393.164 27.5367L376.097 64.6323C375.138 66.725 376.054 69.1908 378.146 70.148L414.387 86.7491" stroke="#111111" stroke-width="0.7" stroke-linecap="round" stroke-linejoin="round"/>
<path d="M383.831 69.0718L402.875 27.6772" stroke="#111111" stroke-width="0.7" stroke-linecap="round" stroke-linejoin="round"/>
<path d="M380.01 67.3197L399.054 25.925" stroke="#111111" stroke-width="0.7" stroke-linecap="round" stroke-linejoin="round"/>
<path d="M308.759 283.258C308.385 286.638 306.342 291.256 304.559 295.198C306.531 295.728 403.878 295.198 403.878 295.198C403.878 295.198 401.049 284.967 397.921 278.137C397 276.126 395.461 272.4 393.521 268.631C390.372 262.521 386.535 256.129 385.267 255.485" fill="#181334"/>
<path d="M300.202 171.766L299.812 191.541L322.753 183.576L319.181 171.101" fill="#FFE7DF"/>
<path d="M297.947 191.996L300.028 185.415L321.165 178.731L325.679 181.894" fill="white"/>
<path d="M321.078 145.664C327.755 151.515 332.242 159.718 325.294 167.613C318.346 175.508 302.418 175.519 295.741 169.668C289.064 163.817 294.17 154.327 301.117 146.432C308.065 138.537 314.401 139.813 321.078 145.659V145.664Z" fill="#FFE7DF"/>
<path d="M311.491 146.394L309.052 151.109C309.052 151.109 309.946 153.37 310.228 155.506C310.51 157.642 309.209 158.885 305.963 161.395C309.383 162.817 311.952 157.858 311.952 157.858C311.952 157.858 307.231 169.706 309.692 173.821C314.976 173.691 318.249 172.599 320.948 171.052C323.1 169.825 326.812 166.586 328.871 162.087" fill="#181334"/>
<path d="M328.551 151.115C329.927 145.902 325.987 129.728 315.316 128.755C306.298 127.927 304.071 136.109 306.211 139.775C308.352 143.441 323.251 158.945 328.806 162.243C331.7 161.627 334.057 159.448 334.035 155.879C334.019 152.732 330.204 150.131 328.551 151.115Z" fill="#181334"/>
<path d="M299.865 147.919C298.776 148.936 296.901 149.936 295.958 150.19C295.015 150.439 294.164 151.131 293.925 152.088C293.681 153.051 294.809 155.225 294.809 155.225" fill="#FFE7DF"/>
<path d="M222.766 193.472C223.482 192.736 226.148 189.919 226.555 188.897C226.967 187.875 227.622 186.658 227.07 185.328C226.522 183.998 225.492 182.727 224.338 182.554C223.184 182.381 221.363 182.5 219.509 183.652C217.661 184.804 215.884 186.112 214.8 185.658C213.716 185.204 211.293 184.003 210.052 181.034C208.811 178.071 208.041 172.885 207.559 171.652C207.077 170.42 206.361 168.624 205.451 168.257C204.54 167.889 202.178 167.975 200.817 169.17C200.443 168.354 198.785 167.218 197.62 167.37C196.449 167.516 195.414 167.867 194.498 168.732C192.953 168.878 191.815 168.862 190.905 169.349C189.994 169.841 187.805 171.306 187.366 172.923C186.19 173.021 185.491 173.053 184.678 173.859C183.859 174.659 182.927 175.373 182.824 177.109C182.721 178.844 183.28 184.484 185.079 187.167C186.878 189.849 191.149 197.495 192.97 199.469C194.791 201.448 196.162 203.806 196.162 203.806" fill="#FFE7DF"/>
<path d="M422.738 97.2179C422.738 97.2179 423.789 95.2009 425.491 93.1136C427.193 91.0317 431.003 83.153 432.639 80.3681C434.281 77.5886 434.504 71.9215 434.298 70.1965C434.092 68.4715 433.116 67.8118 432.254 67.0602C431.393 66.3031 430.699 66.3085 429.518 66.2815C428.986 64.6917 426.71 63.3614 425.773 62.9234C424.835 62.4854 423.702 62.5665 422.152 62.5179C421.188 61.7013 420.131 61.4147 418.955 61.339C417.779 61.2579 416.196 62.4908 415.871 63.329C414.446 62.2096 412.077 62.2637 411.189 62.6855C410.3 63.1073 409.693 64.9404 409.281 66.2004C408.874 67.4603 408.408 72.6786 407.341 75.7122C406.273 78.7458 403.932 80.0869 402.875 80.606C401.818 81.1251 399.97 79.9247 398.052 78.8864C396.138 77.8482 394.312 77.832 393.169 78.0753C392.025 78.3241 391.071 79.6489 390.605 81.0062C390.134 82.3689 390.86 83.5477 391.331 84.5427C391.797 85.5377 394.621 88.1982 395.385 88.8904C396.919 90.2801 397.862 92.7081 398.127 93.5354C398.393 94.3628 398.485 95.8877 398.485 95.8877" fill="#FFE7DF"/>
<path d="M422.478 170.052C428.672 154.489 429.268 110.034 427.447 98.7591C420.315 95.6282 403.477 94.6602 393.532 96.6123C390.09 120.487 386.535 140.516 376.883 152.775C372.011 158.966 363.388 164.233 354.381 168.96C341.537 175.697 327.841 180.964 322.525 183.144L310.856 187.302C306.315 188.973 300.771 190.952 295.281 193.039C286.062 196.543 276.968 200.361 268.432 204C254.824 209.808 243.892 217.589 236.841 221.683C233.85 214.702 227.178 199.604 223.948 193.721C220.474 193.521 216.654 193.748 210.887 195.857C205.988 197.652 200.303 200.334 194.899 204.871C195.935 210.278 213.657 256.945 220.881 260.617C228.105 264.289 243.134 259.849 251.171 258.205C257.712 256.87 283.233 250.586 292.527 248.288L291.817 248.553L292.988 289.044L393.613 254.734L377.333 232.098C394.448 219.807 416.289 185.577 422.467 170.047L422.478 170.052Z" fill="white"/>
<path d="M337.092 177.136C330.757 179.872 325.407 181.965 322.524 183.149L310.856 187.307C306.314 188.978 296.061 192.655 290.332 195.067C291.486 204.833 295.974 233.688 295.903 247.363L291.822 248.558L292.993 289.05L393.477 254.88L377.338 232.103C364.575 214.491 342.246 184.193 337.087 177.136H337.092Z" fill="#0175DA"/>
<path d="M309.577 173.826C304.179 173.913 298.912 172.453 295.741 169.673C289.064 163.822 294.17 154.332 301.117 146.437C302.911 144.404 304.971 142.782 307.16 141.597" stroke="#111111" stroke-width="0.7" stroke-linecap="round" stroke-linejoin="round"/>
<path d="M300.218 172.345L300.001 185.366" stroke="#111111" stroke-width="0.7" stroke-linecap="round" stroke-linejoin="round"/>
<path d="M297.947 191.996L300.028 185.415L321.165 178.731L325.679 181.894" stroke="#111111" stroke-width="0.7" stroke-linecap="round" stroke-linejoin="round"/>
<path d="M328.551 151.115C329.927 145.902 325.987 129.728 315.316 128.755C306.298 127.927 304.071 136.109 306.211 139.775C308.352 143.441 323.251 158.945 328.806 162.243C331.7 161.627 334.057 159.448 334.035 155.879C334.019 152.732 330.204 150.131 328.551 151.115Z" stroke="#111111" stroke-width="0.7" stroke-linecap="round" stroke-linejoin="round"/>
<path d="M311.491 146.394L309.052 151.109C309.052 151.109 309.946 153.37 310.228 155.506C310.51 157.642 309.209 158.885 305.963 161.395C309.383 162.817 311.952 157.858 311.952 157.858C311.952 157.858 307.231 169.706 309.692 173.821C314.976 173.691 318.249 172.599 320.948 171.052C323.1 169.825 326.812 166.586 328.871 162.087" stroke="#111111" stroke-width="0.7" stroke-linecap="round" stroke-linejoin="round"/>
<path d="M311.171 159.367C312.336 159.399 313.501 159.81 314.466 160.61C316.764 162.514 317.084 165.915 315.176 168.208C313.268 170.501 309.859 170.82 307.562 168.911" fill="#FFE7DF"/>
<path d="M311.171 159.367C312.336 159.399 313.501 159.81 314.466 160.61C316.764 162.514 317.084 165.915 315.176 168.208C313.268 170.501 309.859 170.82 307.562 168.911" stroke="#111111" stroke-width="0.7" stroke-linecap="round" stroke-linejoin="round"/>
<path d="M319.359 171.928L321.207 178.72" stroke="#111111" stroke-width="0.7" stroke-linecap="round" stroke-linejoin="round"/>
<path d="M337.325 177.157L377.132 231.838L393.765 255.015L292.999 289.05L291.828 248.558" stroke="#111111" stroke-width="0.7" stroke-linecap="round" stroke-linejoin="round"/>
<path d="M222.55 193.575C225.363 190.974 229.01 186.923 226.187 183.819C221.808 179.001 217.483 187.405 213.776 185.328C210.069 183.252 209.007 178.06 208.21 174.313C207.413 170.56 206.21 167.018 203.17 167.97C200.129 168.922 198.959 171.079 199.577 175.881C200.27 181.278 201.598 184.106 202.698 185.901" stroke="#111111" stroke-width="0.7" stroke-linecap="round" stroke-linejoin="round"/>
<path d="M200.845 169.051C199.609 167.629 197.951 166.964 196.097 167.689C194.249 168.413 191.875 171.658 192.748 177.06C193.631 182.462 195.149 185.242 196.243 187.361" stroke="#111111" stroke-width="0.7" stroke-linecap="round" stroke-linejoin="round"/>
<path d="M194.151 168.851C191.864 168.997 189.279 169.641 187.837 172.047C186.336 174.551 188.276 185.009 191.224 189.265" stroke="#111111" stroke-width="0.7" stroke-linecap="round" stroke-linejoin="round"/>
<path d="M187.149 173.042C185.079 172.972 183.014 174.848 182.949 177.028C182.873 179.585 183.296 183.419 185.019 186.95C186.742 190.487 191.024 196.743 194.487 201.524C194.959 202.178 195.674 203.227 196.14 203.935" stroke="#111111" stroke-width="0.7" stroke-linecap="round" stroke-linejoin="round"/>
<path d="M308.721 283.783C308.217 287.325 305.437 292.916 304.597 295.198" stroke="#111111" stroke-width="0.7" stroke-linecap="round" stroke-linejoin="round"/>
<path d="M386.616 257.486C390.264 261.05 400.908 281.55 403.883 295.193" stroke="#111111" stroke-width="0.7" stroke-linecap="round" stroke-linejoin="round"/>
<path d="M303.302 150.574C302.803 151.309 302.006 151.634 301.518 151.299C301.036 150.963 301.047 150.098 301.546 149.363C302.044 148.627 302.841 148.303 303.323 148.638C303.806 148.973 303.795 149.839 303.296 150.574H303.302Z" fill="#111111"/>
<path d="M293.817 160.226C295.189 161.849 297.844 162.2 299.356 160.827" stroke="#111111" stroke-width="0.7" stroke-linecap="round" stroke-linejoin="round"/>
<path d="M299.865 147.919C298.776 148.936 296.901 149.936 295.958 150.19C295.015 150.439 294.164 151.131 293.925 152.088C293.682 153.051 294.798 155.23 294.798 155.23" stroke="#111111" stroke-width="0.7" stroke-linecap="round" stroke-linejoin="round"/>
<path d="M414.972 80.1571C415.969 78.2969 417.118 75.393 417.497 69.9693C417.833 65.135 416.538 63.0531 413.444 62.2798C410.349 61.5065 409.363 65.1133 408.783 68.9094C408.208 72.6947 407.455 77.94 403.878 80.2328C400.296 82.5202 395.483 74.3872 391.397 79.4541C388.763 82.7148 392.53 86.0459 395.283 88.7118C395.982 89.3877 397.174 91.0586 397.564 91.9076C397.955 92.7566 398.464 94.314 398.48 95.8064" stroke="#111111" stroke-width="0.7" stroke-linecap="round" stroke-linejoin="round"/>
<path d="M415.828 63.2154C416.977 61.7229 418.592 60.9604 420.484 61.5769C422.37 62.1933 424.933 65.2919 424.38 70.7372C423.822 76.1826 422.467 79.0486 421.497 81.2278" stroke="#111111" stroke-width="0.7" stroke-linecap="round" stroke-linejoin="round"/>
<path d="M422.499 62.6206C424.791 62.6314 427.409 63.1181 428.992 65.4379C430.634 67.8497 429.317 78.4052 426.623 82.8231" stroke="#111111" stroke-width="0.7" stroke-linecap="round" stroke-linejoin="round"/>
<path d="M429.735 66.3951C431.8 66.2059 433.967 67.9579 434.162 70.1263C434.39 72.6787 434.195 76.5288 432.683 80.1519C431.171 83.7803 427.263 90.2802 424.087 95.2605C423.654 95.9418 423.247 96.5475 422.819 97.2829" stroke="#111111" stroke-width="0.7" stroke-linecap="round" stroke-linejoin="round"/>
<path d="M304.146 145.658C304.813 145.691 306.439 147.41 306.52 148.205" stroke="#111111" stroke-width="0.7" stroke-linecap="round" stroke-linejoin="round"/>
<path d="M290.262 195.256C291.265 199.436 295.844 232.428 295.947 247.45C295.947 247.45 259.219 256.567 251.181 258.211C243.144 259.855 228.116 264.3 220.892 260.623C213.667 256.945 195.94 210.284 194.91 204.876C200.313 200.334 205.999 197.657 210.898 195.862C216.67 193.748 220.485 193.526 223.959 193.726C227.189 199.609 233.861 214.707 236.852 221.688C243.903 217.595 254.829 209.813 268.443 204.006C282.035 198.209 299.784 191.163 307.496 188.573C322.308 183.598 365.068 167.797 376.888 152.78C386.541 140.521 390.096 120.492 393.537 96.6177C403.482 94.6656 420.321 95.6335 427.453 98.7645C429.268 110.034 428.672 154.494 422.483 170.057C416.288 185.62 394.513 219.866 377.376 232.087" stroke="#111111" stroke-width="0.7" stroke-linecap="round" stroke-linejoin="round"/>
<path d="M392.139 106.654C396.268 106.432 419.713 106.989 428.2 109.385" stroke="#111111" stroke-width="0.7" stroke-linecap="round" stroke-linejoin="round"/>
<path d="M197.988 214.21C200.221 212.928 217.19 204.13 227.687 201.567" stroke="#111111" stroke-width="0.7" stroke-linecap="round" stroke-linejoin="round"/>
<path d="M231.205 224.738L236.852 221.683" stroke="#111111" stroke-width="0.7" stroke-linecap="round" stroke-linejoin="round"/>
<g clip-path="url(#clip2_1956_67591)">
<path d="M448.859 202.266C450.528 206.895 447.962 211.933 443.133 213.533C438.304 215.133 433.047 212.673 431.378 208.045C429.722 203.417 432.288 198.366 437.118 196.779C441.947 195.179 447.203 197.638 448.873 202.266H448.859Z" fill="white" stroke="#111111" stroke-width="0.7" stroke-linecap="round" stroke-linejoin="round"/>
<path d="M449.901 218.725L445.018 212.695" stroke="#111111" stroke-width="0.7" stroke-linecap="round" stroke-linejoin="round"/>
</g>
<path d="M151.618 184.609L132.798 191.297L136.719 195.38L130.772 201.775L134.682 205.164L140.633 198.942L144.898 202.848L151.618 184.609Z" fill="white" stroke="#111111" stroke-width="0.7" stroke-linecap="round" stroke-linejoin="round"/>
</g>
<g clip-path="url(#clip3_1956_67591)">
<path d="M444.217 295.784L460.05 275.265L471.135 283.944L484.2 265.794" stroke="#111111" stroke-width="0.7" stroke-linecap="round" stroke-linejoin="round"/>
<path d="M477.075 267.767L484.995 264.217L485.783 273.687" stroke="#111111" stroke-width="0.7" stroke-linecap="round" stroke-linejoin="round"/>
</g>
<defs>
<clipPath id="clip0_1956_67591">
<rect width="99" height="76" fill="white" transform="translate(135 33)"/>
</clipPath>
<clipPath id="clip1_1956_67591">
<rect width="523" height="296" fill="white" transform="translate(64)"/>
</clipPath>
<clipPath id="clip2_1956_67591">
<rect width="20.6695" height="25.0317" fill="white" transform="translate(429.787 195.247)"/>
</clipPath>
<clipPath id="clip3_1956_67591">
<rect width="42" height="32" fill="white" transform="translate(444 264)"/>
</clipPath>
</defs>
</svg>
