<svg width="568" height="408" viewBox="0 0 568 408" fill="none" xmlns="http://www.w3.org/2000/svg">
<g clip-path="url(#clip0_2487_56877)">
<g filter="url(#filter0_d_2487_56877)">
<path d="M256 16C256 7.16344 263.163 0 272 0H552C560.837 0 568 7.16344 568 16V160C568 168.837 560.837 176 552 176H365.793C362.05 176 358.425 177.312 355.55 179.708L338.561 193.866C337.077 195.102 334.923 195.102 333.439 193.866L316.45 179.708C313.575 177.312 309.95 176 306.207 176H272C263.163 176 256 168.837 256 160V16Z" fill="white"/>
<path d="M257 16C257 7.71572 263.716 1 272 1H552C560.284 1 567 7.71573 567 16V160C567 168.284 560.284 175 552 175H365.793C361.816 175 357.965 176.394 354.91 178.94L337.921 193.098C336.808 194.025 335.192 194.025 334.079 193.098L317.09 178.94C314.035 176.394 310.184 175 306.207 175H272C263.716 175 257 168.284 257 160V16Z" stroke="#111111" stroke-width="2"/>
</g>
<path d="M322.928 55.264H326.232V73.912H322.928V55.264ZM305.792 69.488V57.672H315.676V62.012H317.944V55.656H321.192V73.184H317.944V64.784H315.676V69.488H305.792ZM308.984 66.8H312.456V60.304H308.984V66.8ZM309.376 79.876V71.7H312.876V77.104H326.876V79.876H309.376ZM332.029 56.972H349.445V59.744H335.557V62.292H348.857V64.98H335.557V67.696H349.641V70.468H342.445V74.724H352.077V77.524H329.369V74.724H338.973V70.468H332.029V56.972ZM370.081 55.236H373.553V62.152H376.941V64.98H373.553V73.38H370.081V55.236ZM354.793 69.264V57.252H366.021V60.024H358.265V66.464C362.801 66.436 365.293 66.268 368.065 65.708L368.401 68.424C365.293 69.096 362.437 69.264 356.865 69.264H354.793ZM357.453 79.876V71.476H360.925V77.104H374.477V79.876H357.453ZM385.523 57.672H399.579V60.528H394.315V62.124C394.315 66.212 396.471 70.524 400.587 72.26L398.683 75.004C395.799 73.744 393.755 71.224 392.635 68.2C391.515 71.504 389.443 74.276 386.503 75.62L384.543 72.876C388.659 71 390.815 66.38 390.815 62.124V60.528H385.523V57.672ZM402.015 80.352V55.264H405.487V80.352H402.015ZM426.796 55.236H430.24V74.248H426.796V72.204H422.036V69.852H426.796V55.236ZM409.1 66.38C413.692 66.38 419.796 66.324 425.088 65.652L425.312 68.116C423.324 68.452 421.28 68.676 419.264 68.844V73.576H415.792V69.04C413.552 69.124 411.424 69.152 409.548 69.152L409.1 66.38ZM410.92 60.584C410.92 57.924 413.496 56.104 417.164 56.104C420.832 56.104 423.408 57.924 423.408 60.584C423.408 63.272 420.832 65.036 417.164 65.036C413.496 65.036 410.92 63.272 410.92 60.584ZM412.292 79.876V72.456H415.736V77.104H430.828V79.876H412.292ZM414.224 60.584C414.224 61.844 415.456 62.516 417.164 62.516C418.928 62.516 420.132 61.844 420.132 60.584C420.132 59.324 418.928 58.652 417.164 58.652C415.456 58.652 414.224 59.324 414.224 60.584ZM449.686 55.88H453.27V56.748C453.27 59.548 456.238 62.656 461.642 63.412L460.354 66.1C456.182 65.484 453.102 63.552 451.506 60.976C449.91 63.58 446.802 65.54 442.602 66.184L441.286 63.468C446.746 62.712 449.686 59.632 449.686 56.748V55.88ZM440.138 70.384V67.64H462.846V70.384H453.522V74.724H450.022V70.384H440.138ZM442.77 79.904V72.568H446.242V77.104H460.326V79.904H442.77ZM477.21 63.16H482.138V55.208H485.582V80.38H482.138V65.96H477.21V63.16ZM464.274 72.484C468.474 70.524 470.49 65.68 470.49 60.92V57.196H473.962V60.92C473.962 65.652 475.866 70.244 479.982 72.092L477.91 74.864C475.166 73.52 473.29 71 472.254 67.892C471.162 71.168 469.23 73.856 466.43 75.256L464.274 72.484ZM489.111 66.548H511.819V69.068H489.111V66.548ZM491.659 72.764V70.412H509.103V76.292H495.131V77.776H509.803V80.128H491.687V74.108H505.687V72.764H491.659ZM491.883 58.064V55.712H509.019V61.564H495.327V62.964H509.495V65.316H491.939V59.38H505.603V58.064H491.883ZM321.108 95.264H324.58V100.108H327.94V102.936H324.58V107.808H321.108V95.264ZM305.092 101.676C305.092 98.372 307.92 95.992 311.728 95.992C315.592 95.992 318.42 98.372 318.42 101.676C318.42 104.98 315.592 107.332 311.728 107.332C307.92 107.332 305.092 104.98 305.092 101.676ZM308.116 111.476V108.816H324.58V115.62H311.588V117.356H325.336V120.072H308.144V113.1H321.164V111.476H308.116ZM308.424 101.676C308.424 103.468 309.824 104.56 311.728 104.56C313.688 104.56 315.06 103.468 315.06 101.676C315.06 99.884 313.688 98.764 311.728 98.764C309.824 98.764 308.424 99.884 308.424 101.676ZM346.813 95.208H350.285V120.38H346.813V110.216H342.557V107.444H346.813V103.384H342.613V100.612H346.813V95.208ZM330.153 100.136V97.364H341.325V106.996H333.625V111.924C336.733 111.896 339.477 111.756 342.641 111.308L342.893 114.136C339.197 114.696 336.005 114.78 332.169 114.78H330.181V104.252H337.909V100.136H330.153ZM353.841 109.152H376.521V111.952H366.833V120.38H363.361V111.952H353.841V109.152ZM354.961 104.924C360.001 104.308 362.801 101.788 363.165 99.324H355.857V96.58H374.449V99.324H367.197C367.561 101.788 370.361 104.308 375.401 104.924L374.141 107.668C369.801 107.052 366.693 105.148 365.181 102.544C363.669 105.148 360.561 107.052 356.221 107.668L354.961 104.924ZM388.142 103.748H391.39V95.656H394.61V119.176H391.39V106.576H388.142V103.748ZM377.81 112.708C381.478 110.468 382.878 105.988 382.878 101.704V97.448H386.21V101.564C386.21 105.652 387.358 109.824 390.774 112.036L388.87 114.752C386.742 113.436 385.37 111.252 384.558 108.676C383.69 111.504 382.178 113.884 379.91 115.284L377.81 112.708ZM396.486 120.324V95.236H399.79V120.324H396.486ZM402.787 114.556H407.827V108.368C405.923 107.192 404.747 105.4 404.747 103.188C404.747 99.128 408.723 96.496 414.099 96.496C419.503 96.496 423.451 99.128 423.451 103.188C423.451 105.372 422.303 107.164 420.427 108.34V114.556H425.495V117.384H402.787V114.556ZM408.191 103.188C408.191 105.708 410.571 107.192 414.099 107.192C417.655 107.192 420.035 105.708 420.035 103.188C420.035 100.668 417.655 99.184 414.099 99.184C410.571 99.184 408.191 100.668 408.191 103.188ZM411.299 114.556H416.955V109.628C416.059 109.824 415.107 109.908 414.099 109.908C413.119 109.908 412.167 109.824 411.299 109.656V114.556ZM433.503 96.468L432.999 112.288H429.751L429.163 96.468H433.503ZM429.499 116.88C429.499 115.788 430.283 115.004 431.375 115.004C432.495 115.004 433.251 115.788 433.251 116.88C433.251 118 432.495 118.784 431.375 118.784C430.283 118.784 429.499 118 429.499 116.88Z" fill="#111111"/>
<g filter="url(#filter1_d_2487_56877)">
<path d="M207 228C207 219.163 214.163 212 223 212H512C520.837 212 528 219.163 528 228V372C528 380.837 520.837 388 512 388H356.793C353.05 388 349.425 389.312 346.55 391.708L329.561 405.866C328.077 407.102 325.923 407.102 324.439 405.866L307.45 391.708C304.575 389.312 300.95 388 297.207 388H223C214.163 388 207 380.837 207 372V228Z" fill="#2DA860"/>
</g>
<path d="M273.928 267.264H277.204V285.912H273.928V267.264ZM256.764 281.488V269.7H266.648V274.012H268.916V267.684H272.164V285.184H268.916V276.784H266.648V281.488H256.764ZM260.012 278.828H263.428V272.36H260.012V278.828ZM260.376 291.904V283.756H263.876V289.104H277.876V291.904H260.376ZM283.029 269H300.445V271.772H286.557V274.32H299.857V277.036H286.557V279.724H300.641V282.496H293.417V286.78H303.077V289.552H280.341V286.78H289.973V282.496H283.029V269ZM321.025 267.264H324.525V274.152H327.885V277.008H324.525V285.408H321.025V267.264ZM305.765 281.292V269.252H316.965V272.052H309.209V278.464C313.717 278.436 316.265 278.268 319.009 277.708L319.345 280.424C316.293 281.124 313.381 281.292 307.837 281.292H305.765ZM308.369 291.904V283.476H311.869V289.104H325.421V291.904H308.369ZM346.618 267.208H350.09V292.408H346.618V267.208ZM330.042 277.932C330.042 272.444 332.842 269 336.622 269C340.402 269 343.202 272.444 343.202 277.932C343.202 283.448 340.402 286.92 336.622 286.92C332.842 286.92 330.042 283.448 330.042 277.932ZM333.402 277.932C333.402 281.712 334.69 283.756 336.622 283.756C338.554 283.756 339.842 281.712 339.842 277.932C339.842 274.18 338.554 272.164 336.622 272.164C334.69 272.164 333.402 274.18 333.402 277.932ZM361.976 269.476H374.94V272.248H365.448V277.456H375.052V280.256H370.208V284.456C372.28 284.344 374.324 284.204 376.256 283.98L376.508 286.528C371.104 287.368 365.476 287.424 360.772 287.424L360.352 284.596C362.34 284.596 364.496 284.596 366.736 284.54V280.256H361.976V269.476ZM377.656 292.408V267.208H381.128V292.408H377.656ZM385.72 269.28H397.536V271.268H402.156V267.264H405.656V285.548H402.156V279.388H397.536V281.516H385.72V269.28ZM389.108 291.904V283.84H392.58V289.104H406.216V291.904H389.108ZM389.136 278.8H394.148V272.024H389.136V278.8ZM397.536 276.644H402.156V274.04H397.536V276.644ZM262.756 309C266.116 309 268.664 311.772 269.14 316.336H273.452V307.208H276.924V332.408H273.452V319.136H269.168C268.804 323.952 266.2 326.92 262.756 326.92C259.004 326.92 256.288 323.448 256.288 317.932C256.288 312.444 259.004 309 262.756 309ZM259.592 317.932C259.592 321.712 260.88 323.756 262.756 323.756C264.604 323.756 265.864 321.712 265.864 317.932C265.864 314.18 264.604 312.164 262.756 312.164C260.88 312.164 259.592 314.18 259.592 317.932ZM284.233 323.896H287.733V329.104H302.181V331.904H284.233V323.896ZM280.733 321.88V309.168H287.285V311.94H284.177V319.08C285.269 319.024 286.305 318.94 287.453 318.688L287.733 321.46C285.745 321.88 284.177 321.88 281.965 321.88H280.733ZM288.489 321.88V309.168H295.461V311.94H291.905V319.08C293.697 319.052 294.789 318.94 296.077 318.66L296.357 321.404C294.593 321.852 293.081 321.88 289.833 321.88H288.489ZM294.677 316.672V313.9H298.093V307.264H301.565V325.436H298.093V316.672H294.677ZM329.522 307.264H332.826V332.38H329.522V307.264ZM311.266 313.844V311.072H315.466V307.88H318.91V311.072H323.138V313.844H311.266ZM311.798 321.04C311.798 317.512 314.094 315.048 317.146 315.048C320.254 315.048 322.494 317.512 322.494 321.04V321.264H324.706V318.156H321.962V315.412H324.706V307.684H327.982V331.232H324.706V324.008H321.878C321.01 325.912 319.274 327.088 317.146 327.088C314.094 327.088 311.798 324.596 311.798 321.04ZM314.85 321.04C314.85 323 315.802 324.148 317.146 324.148C318.49 324.148 319.47 323 319.47 321.04C319.47 319.108 318.49 317.96 317.146 317.96C315.802 317.96 314.85 319.108 314.85 321.04ZM336.607 308.944H346.491V311.716H339.967V313.872H346.211V316.504H339.967V318.744C342.739 318.716 344.755 318.604 347.079 318.212L347.387 320.984C344.531 321.488 342.095 321.544 338.343 321.544H336.607V308.944ZM339.883 326.444V323.644H357.103V332.38H353.631V326.444H339.883ZM348.423 322.412V307.712H351.671V313.452H353.799V307.236H357.103V322.552H353.799V316.224H351.671V322.412H348.423ZM377.544 307.208H381.016V332.408H377.544V307.208ZM360.968 317.932C360.968 312.444 363.768 309 367.548 309C371.328 309 374.128 312.444 374.128 317.932C374.128 323.448 371.328 326.92 367.548 326.92C363.768 326.92 360.968 323.448 360.968 317.932ZM364.328 317.932C364.328 321.712 365.616 323.756 367.548 323.756C369.48 323.756 370.768 321.712 370.768 317.932C370.768 314.18 369.48 312.164 367.548 312.164C365.616 312.164 364.328 314.18 364.328 317.932ZM396.85 322.524H400.21V323.42C400.21 325.408 401.05 327.508 403.038 328.88C405.11 327.424 405.978 325.24 405.978 323.42V322.524H409.422V323.42C409.422 325.996 410.822 328.432 414.126 329.44L412.39 331.988C410.038 331.176 408.498 329.636 407.63 327.704C406.818 329.636 405.362 331.316 403.094 332.24C400.77 331.372 399.314 329.748 398.502 327.816C397.634 329.664 396.122 331.176 393.826 331.988L392.146 329.44C395.394 328.32 396.85 325.828 396.85 323.42V322.524ZM391.502 314.572C391.502 311.072 394.442 308.552 398.306 308.552C402.198 308.552 405.138 311.072 405.138 314.572C405.138 318.044 402.198 320.536 398.306 320.536C394.442 320.536 391.502 318.044 391.502 314.572ZM394.918 314.572C394.918 316.532 396.374 317.68 398.306 317.68C400.294 317.68 401.722 316.532 401.722 314.572C401.722 312.612 400.294 311.436 398.306 311.436C396.374 311.436 394.918 312.612 394.918 314.572ZM408.47 321.488V307.264H411.942V321.488H408.47ZM431.71 307.208H435.21V316.784H438.766V319.64H435.21V332.352H431.71V307.208ZM416.366 326.192V309.644H419.838V323.308C423.058 323.224 426.474 322.916 430.03 322.216L430.394 325.1C426.25 325.94 422.218 326.192 418.522 326.192H416.366ZM440.083 326.612H445.151V320.396C443.219 319.22 442.071 317.456 442.071 315.244C442.071 311.156 446.019 308.524 451.423 308.524C456.827 308.524 460.803 311.156 460.803 315.244C460.803 317.428 459.655 319.22 457.723 320.396V326.612H462.819V329.44H440.083V326.612ZM445.515 315.244C445.515 317.736 447.895 319.248 451.423 319.248C454.979 319.248 457.331 317.736 457.331 315.244C457.331 312.724 454.979 311.24 451.423 311.24C447.895 311.24 445.515 312.724 445.515 315.244ZM448.595 326.612H454.279V321.656C453.383 321.852 452.431 321.936 451.423 321.936C450.415 321.936 449.491 321.852 448.595 321.684V326.612ZM469.26 324.344C469.26 320.676 470.632 319.332 472.256 318.128C473.488 317.232 474.664 316.14 474.664 314.768C474.664 312.64 473.236 311.52 471.136 311.52C469.68 311.52 468.532 312.388 468.028 314.376L464.668 313.536C465.508 310.176 468.308 308.048 471.136 308.048C474.692 308.048 478.136 310.708 478.136 314.768C478.136 317.736 475.784 319.864 474.328 320.928C473.012 321.908 472.732 322.188 472.732 324.344H469.26ZM469.204 328.74C469.204 327.704 469.848 326.892 471.052 326.892C472.228 326.892 472.872 327.704 472.872 328.74C472.872 329.748 472.228 330.56 471.052 330.56C469.848 330.56 469.204 329.748 469.204 328.74Z" fill="white"/>
<g filter="url(#filter2_d_2487_56877)">
<path d="M0 104C0 95.1634 7.16344 88 16 88H216C224.837 88 232 95.1634 232 104V248C232 256.837 224.837 264 216 264H111.793C108.05 264 104.425 265.312 101.55 267.708L84.5607 281.866C83.0774 283.102 80.9226 283.102 79.4393 281.866L62.4501 267.708C59.5747 265.312 55.9502 264 52.2072 264H16C7.16345 264 0 256.837 0 248V104Z" fill="white"/>
<path d="M1 104C1 95.7157 7.71573 89 16 89H216C224.284 89 231 95.7157 231 104V248C231 256.284 224.284 263 216 263H111.793C107.816 263 103.965 264.394 100.91 266.94L83.9206 281.098C82.808 282.025 81.192 282.025 80.0794 281.098L63.0903 266.94C60.0352 264.394 56.1841 263 52.2072 263H16C7.71573 263 1 256.284 1 248V104Z" stroke="#111111" stroke-width="2"/>
</g>
<path d="M66.928 143.264H70.232V161.912H66.928V143.264ZM49.792 157.488V145.672H59.676V150.012H61.944V143.656H65.192V161.184H61.944V152.784H59.676V157.488H49.792ZM52.984 154.8H56.456V148.304H52.984V154.8ZM53.376 167.876V159.7H56.876V165.104H70.876V167.876H53.376ZM76.0287 144.972H93.4447V147.744H79.5567V150.292H92.8567V152.98H79.5567V155.696H93.6407V158.468H86.4447V162.724H96.0767V165.524H73.3687V162.724H82.9727V158.468H76.0287V144.972ZM114.081 143.236H117.553V150.152H120.941V152.98H117.553V161.38H114.081V143.236ZM98.7933 157.264V145.252H110.021V148.024H102.265V154.464C106.801 154.436 109.293 154.268 112.065 153.708L112.401 156.424C109.293 157.096 106.437 157.264 100.865 157.264H98.7933ZM101.453 167.876V159.476H104.925V165.104H118.477V167.876H101.453ZM129.523 145.672H143.579V148.528H138.315V150.124C138.315 154.212 140.471 158.524 144.587 160.26L142.683 163.004C139.799 161.744 137.755 159.224 136.635 156.2C135.515 159.504 133.443 162.276 130.503 163.62L128.543 160.876C132.659 159 134.815 154.38 134.815 150.124V148.528H129.523V145.672ZM146.015 168.352V143.264H149.487V168.352H146.015ZM170.796 143.236H174.24V162.248H170.796V160.204H166.036V157.852H170.796V143.236ZM153.1 154.38C157.692 154.38 163.796 154.324 169.088 153.652L169.312 156.116C167.324 156.452 165.28 156.676 163.264 156.844V161.576H159.792V157.04C157.552 157.124 155.424 157.152 153.548 157.152L153.1 154.38ZM154.92 148.584C154.92 145.924 157.496 144.104 161.164 144.104C164.832 144.104 167.408 145.924 167.408 148.584C167.408 151.272 164.832 153.036 161.164 153.036C157.496 153.036 154.92 151.272 154.92 148.584ZM156.292 167.876V160.456H159.736V165.104H174.828V167.876H156.292ZM158.224 148.584C158.224 149.844 159.456 150.516 161.164 150.516C162.928 150.516 164.132 149.844 164.132 148.584C164.132 147.324 162.928 146.652 161.164 146.652C159.456 146.652 158.224 147.324 158.224 148.584ZM49.288 185.672H63.064V188.528H58.024V190.124C58.024 193.932 60.068 198.384 64.128 200.26L62.224 203.004C59.424 201.688 57.436 199.14 56.344 196.116C55.224 199.42 53.18 202.248 50.296 203.62L48.336 200.876C52.396 198.944 54.552 194.24 54.552 190.124V188.528H49.288V185.672ZM64.996 208.352V183.264H68.468V192.896H72.164V195.752H68.468V208.352H64.996ZM86.6127 184.832C86.6127 185.7 86.5287 186.54 86.3887 187.324H90.8127V183.236H94.2847V198.132H90.8127V195.444H85.1847V192.672H90.8127V190.068H85.5767C83.9247 193.96 80.2287 196.676 74.9087 198.104L73.5927 195.388C79.2207 193.932 82.3567 191.048 82.8887 187.604H74.9927V184.832H86.6127ZM77.2327 201.94V199.196H94.2847V208.268H90.8127V201.94H77.2327ZM97.8133 196.088H120.493V198.832H97.8133V196.088ZM100.081 189.144C100.081 185.98 103.693 183.992 109.153 183.992C114.613 183.992 118.225 185.98 118.225 189.144C118.225 192.364 114.613 194.324 109.153 194.324C103.693 194.324 100.081 192.364 100.081 189.144ZM100.585 207.904V200.596H104.029V205.132H117.945V207.904H100.585ZM103.665 189.144C103.665 190.74 105.709 191.552 109.153 191.552C112.597 191.552 114.641 190.74 114.641 189.144C114.641 187.576 112.597 186.764 109.153 186.764C105.709 186.764 103.665 187.576 103.665 189.144ZM122.314 202.556H127.354V196.368C125.45 195.192 124.274 193.4 124.274 191.188C124.274 187.128 128.25 184.496 133.626 184.496C139.03 184.496 142.978 187.128 142.978 191.188C142.978 193.372 141.83 195.164 139.954 196.34V202.556H145.022V205.384H122.314V202.556ZM127.718 191.188C127.718 193.708 130.098 195.192 133.626 195.192C137.182 195.192 139.562 193.708 139.562 191.188C139.562 188.668 137.182 187.184 133.626 187.184C130.098 187.184 127.718 188.668 127.718 191.188ZM130.826 202.556H136.482V197.628C135.586 197.824 134.634 197.908 133.626 197.908C132.646 197.908 131.694 197.824 130.826 197.656V202.556ZM153.255 206.784C152.163 206.784 151.351 206 151.351 204.88C151.351 203.788 152.163 203.004 153.255 203.004C154.347 203.004 155.131 203.788 155.131 204.88C155.131 206 154.347 206.784 153.255 206.784ZM146.955 188.864C148.019 186.008 150.791 184.02 153.675 184.02C157.819 184.02 160.563 186.764 160.395 190.684C160.283 192.7 159.247 194.66 156.503 196.732C155.159 197.74 154.879 198.272 154.907 200.288L151.519 200.344C151.491 197.376 152.359 195.584 154.487 193.988C156.503 192.504 156.951 191.664 157.007 190.516C157.091 188.668 155.719 187.38 153.675 187.38C152.163 187.38 150.707 188.472 150.119 190.04L146.955 188.864Z" fill="#111111"/>
</g>
<defs>
<filter id="filter0_d_2487_56877" x="244" y="-8" width="344" height="226.793" filterUnits="userSpaceOnUse" color-interpolation-filters="sRGB">
<feFlood flood-opacity="0" result="BackgroundImageFix"/>
<feColorMatrix in="SourceAlpha" type="matrix" values="0 0 0 0 0 0 0 0 0 0 0 0 0 0 0 0 0 0 127 0" result="hardAlpha"/>
<feOffset dx="4" dy="8"/>
<feGaussianBlur stdDeviation="8"/>
<feComposite in2="hardAlpha" operator="out"/>
<feColorMatrix type="matrix" values="0 0 0 0 0.0666667 0 0 0 0 0.0666667 0 0 0 0 0.0666667 0 0 0 0.04 0"/>
<feBlend mode="normal" in2="BackgroundImageFix" result="effect1_dropShadow_2487_56877"/>
<feBlend mode="normal" in="SourceGraphic" in2="effect1_dropShadow_2487_56877" result="shape"/>
</filter>
<filter id="filter1_d_2487_56877" x="195" y="204" width="353" height="226.793" filterUnits="userSpaceOnUse" color-interpolation-filters="sRGB">
<feFlood flood-opacity="0" result="BackgroundImageFix"/>
<feColorMatrix in="SourceAlpha" type="matrix" values="0 0 0 0 0 0 0 0 0 0 0 0 0 0 0 0 0 0 127 0" result="hardAlpha"/>
<feOffset dx="4" dy="8"/>
<feGaussianBlur stdDeviation="8"/>
<feComposite in2="hardAlpha" operator="out"/>
<feColorMatrix type="matrix" values="0 0 0 0 0.0666667 0 0 0 0 0.0666667 0 0 0 0 0.0666667 0 0 0 0.04 0"/>
<feBlend mode="normal" in2="BackgroundImageFix" result="effect1_dropShadow_2487_56877"/>
<feBlend mode="normal" in="SourceGraphic" in2="effect1_dropShadow_2487_56877" result="shape"/>
</filter>
<filter id="filter2_d_2487_56877" x="-12" y="80" width="264" height="226.793" filterUnits="userSpaceOnUse" color-interpolation-filters="sRGB">
<feFlood flood-opacity="0" result="BackgroundImageFix"/>
<feColorMatrix in="SourceAlpha" type="matrix" values="0 0 0 0 0 0 0 0 0 0 0 0 0 0 0 0 0 0 127 0" result="hardAlpha"/>
<feOffset dx="4" dy="8"/>
<feGaussianBlur stdDeviation="8"/>
<feComposite in2="hardAlpha" operator="out"/>
<feColorMatrix type="matrix" values="0 0 0 0 0.0666667 0 0 0 0 0.0666667 0 0 0 0 0.0666667 0 0 0 0.04 0"/>
<feBlend mode="normal" in2="BackgroundImageFix" result="effect1_dropShadow_2487_56877"/>
<feBlend mode="normal" in="SourceGraphic" in2="effect1_dropShadow_2487_56877" result="shape"/>
</filter>
<clipPath id="clip0_2487_56877">
<rect width="568" height="408" fill="white"/>
</clipPath>
</defs>
</svg>
