<svg width="166" height="165" viewBox="0 0 166 165" fill="none" xmlns="http://www.w3.org/2000/svg">
    <g clip-path="url(#f59nfrttna)">
        <path d="M148.796 157.831c35.057-25.166 2.313-61.668 2.313-61.668-11.594-15.706-30.429-22.398-30.429-22.398-11.163-3.345-16.523-7.701-16.523-7.701l2.458-12.793c1.163-4.068-1.882-5.091-1.882-5.091l.287-7.702c2.026 1.312 4.497-1.024 4.497-1.024 3.764-4.211.287-8.725.287-8.725-2.457-2.467-4.784.144-4.784.144l.876-7.269-2.902-6.547L90.394 14l-12.902 6.547-5.503 4.068v7.124s-1.738-2.913-4.196 0c0 0-1.882 3.635 0 8.148 0 0 1.595 2.467 4.196.722v15.273s.575 10.759-8.98 12.36c0 0-51.435 12.504-59.84 61.667 0 0-5.79 33.445 50.416 34.036h38.834s18.98.722 19.124-3.057c0 0 21.005 7.085 37.24-3.057h.013z" fill="#fff" stroke="#222" stroke-miterlimit="10" stroke-linecap="round"/>
        <path d="M41.356 112s-11.235 5.948-5.936 20.93c0 0 .974 11.233 32.822 12.439 0 0 34.548.887 38.003.662 0 0 5.507-.556 5.728 2.53 0 0 .545 3.087-3.234 3.193 0 0 2.701.993 2.701 2.649 0 0 .65 2.861-3.883 2.967 0 0 4.026.438 3.74 3.63M91 152h18" stroke="#222" stroke-linecap="round" stroke-linejoin="round"/>
        <path d="M89 157.989s15.545.188 19-.989M58 145s-5.995 6.833-1.035 19M105 48.057s-4.148-1.525-6.074 11.227c0 0-.147-2.261-2.676-2.774 0 0-2.823-.802-3.412 2.774 0 0 .442-3.063-1.78-3.352 0 0-3.705-.802-6.89 8.966 0 0-17.941 46.434 7.372 81.102" stroke="#222" stroke-linecap="round" stroke-linejoin="round"/>
        <path d="M103.662 66s-10.565 26.334-2.832 45.25c0 0 14.579 34.342 31.399 22.12 0 0 8.484-6.117 0-15.569" stroke="#222" stroke-linecap="round" stroke-linejoin="round"/>
        <path d="M79 110.952s14.5 3.756 21-2.952M67 67s4.403 6.326 14 8M101 75s8.139-2.068 10-5M86 46s4.382-.107 5-3" stroke="#222" stroke-linecap="round" stroke-linejoin="round"/>
        <path d="M78.5 34c.828 0 1.5-.448 1.5-1s-.672-1-1.5-1-1.5.448-1.5 1 .672 1 1.5 1zM92.5 36a1.5 1.5 0 1 0 0-3 1.5 1.5 0 0 0 0 3z" fill="#222"/>
        <path d="M107 35v2M71 37s-1.054-.783-.998-2" stroke="#222" stroke-miterlimit="10" stroke-linecap="round"/>
        <path d="M79.656.85c-2.029-.984-7.127-2.438-12.174 4.338 0 0-11.16 16.566 6.477 21.14 0 0 7.48 1.678 11.472-6.238 0 0 7.791-8.86 14.815 0 0 0 4.968 6.291 2.809 12.91l3.239-2.897s8.87-22.95-13.84-26.121c0 0-4.617-.55-8.96 2.83-4.11 3.199-8.312-1.624-3.76-4.927.378-.275.339-.852-.078-1.049V.85z" fill="#222"/>
        <path d="M17.484 99.103c9.103 0 16.483-7.39 16.483-16.505 0-9.116-7.38-16.505-16.483-16.505C8.38 66.093 1 73.483 1 82.597c0 9.116 7.38 16.505 16.484 16.505z" fill="#FCC528"/>
        <path d="m14.658 53.57 4.536.398c.384.037.719.273.868.633l4.908 11.79c.26.632-.15 1.34-.83 1.427-2.541.285-8.267.77-13.733.012-.632-.087-1.016-.745-.818-1.34l4.003-12.2c.149-.459.595-.744 1.066-.707v-.012z" fill="#222"/>
        <path d="M17.298 54.737s.867-15.066 0-20.116M12.923 66.912s-2.677 9.494-2.479 14.954c0 0-1.648 8.973 5.044 6.391 0 0 5.255-1.551 4.016-6.602 0 0-.21-1.96-2.219-1.44 0 0-4.375.621-.768 6.081 0 0 3.916 5.71 6.804 1.465 0 0 4.635-2.073-2.987-21.68M23.123 103.025s4.734 9.593 4.734 10.933M17 103v9.605M8.425 101S.902 113.001 1 115.793" stroke="#222" stroke-miterlimit="10" stroke-linecap="round"/>
    </g>
    <defs>
        <clipPath id="f59nfrttna">
            <path fill="#fff" d="M0 0h166v165H0z"/>
        </clipPath>
    </defs>
</svg>
