<svg width="412" height="392" viewBox="0 0 412 392" fill="none" xmlns="http://www.w3.org/2000/svg">
<g filter="url(#filter0_d_2_17642)">
<rect x="12" y="8" width="380" height="360" rx="16" fill="#2DA860"/>
</g>
<g clip-path="url(#clip0_2_17642)">
<path d="M228.535 145.97C228.535 145.97 229.321 112.858 263.05 108.462C296.778 104.051 308.474 132.341 311.996 145.461C315.518 158.582 312.291 181.526 339.287 189.332C366.283 197.139 370.312 238.058 362.712 258.279C362.712 258.279 211.614 266.611 211.417 265.807C211.22 265.003 212.416 235.253 224.817 224.905C237.217 214.556 238.97 205.06 237.299 199.402C235.628 193.744 228.535 145.986 228.535 145.986V145.97Z" fill="#111111"/>
<path d="M222.595 225.285C208.516 228.056 191.559 279.483 191.559 279.483L217.1 306.491L222.595 225.285Z" fill="#F85851"/>
<path d="M162.325 255.882C162.325 255.882 161.462 237.851 150.909 236.11C146.64 235.399 123.522 230.024 122.008 231.796C120.494 233.567 120.237 239.244 125.308 243.634L95.3473 240.425C89.7911 239.834 85.9457 246.072 89.1855 250.644C89.2309 250.704 89.2612 250.765 89.3066 250.825C87.2779 254.126 90.321 259.954 93.1067 260.969C95.8923 261.983 139.252 272.626 139.252 272.626L162.325 255.897V255.882Z" fill="#FBCBB5"/>
<path d="M187.426 342.855C193.33 350.651 203.247 354.648 212.77 352.392C230.271 348.244 234.207 326.822 225.411 310.73L158.933 249.371L132.303 270.959" fill="#FBCBB5"/>
<path d="M89.3066 250.811L112.955 253.112" stroke="#E49F7F" stroke-width="1.6" stroke-linecap="round" stroke-linejoin="round"/>
<path d="M330.449 223.014L325.189 339.797L341.261 368H205.491L222.701 326.459C222.701 326.459 204.11 292.972 205.972 268.008C207.819 243.043 222.595 225.285 222.595 225.285L297.748 206.482L330.464 223.014H330.449Z" fill="#F85851"/>
<path d="M212.043 243.512C209.182 250.294 206.668 258.636 205.972 267.992C205.503 274.229 205.351 276 206.835 282.661" stroke="#D0140C" stroke-width="1.6" stroke-miterlimit="10"/>
<path d="M314.401 275.805L315.824 323.508" stroke="#D0140C" stroke-width="1.6" stroke-miterlimit="10"/>
<path d="M239.385 223.119C237.689 234.019 284.047 223.891 294.236 204.589C294.236 204.589 285.682 190.676 281.882 167.695C281.882 167.695 271.117 195.657 244.956 196.399C244.971 197.519 247.924 217.351 239.4 223.119H239.385Z" fill="#FBCBB5"/>
<mask id="mask0_2_17642" style="mask-type:luminance" maskUnits="userSpaceOnUse" x="239" y="167" width="56" height="61">
<path d="M239.385 223.121C237.689 234.021 284.047 223.893 294.236 204.591C294.236 204.591 285.682 190.678 281.882 167.697C281.882 167.697 271.117 195.659 244.956 196.401C244.971 197.521 247.924 217.353 239.4 223.121H239.385Z" fill="white"/>
</mask>
<g mask="url(#mask0_2_17642)">
<path d="M244.956 196.398C244.956 196.398 264.077 208.343 290.783 196.065C295.568 159.565 290.889 158.066 290.889 158.066L244.956 196.398Z" fill="#E49F7F"/>
</g>
<path d="M284.758 181.595C284.94 180.308 285.152 179.006 285.394 177.674C285.394 177.674 287.089 178.067 289.224 177.931C289.285 177.931 289.345 177.946 289.406 177.961C294.962 178.43 299.822 174.358 300.291 168.863C300.76 163.367 296.627 158.538 291.086 158.084C291.026 158.084 290.965 158.084 290.889 158.084C290.36 157.993 288.558 158.099 288.558 158.099L290.329 147.289C287.786 138.615 274.448 122.31 254.1 123.551C250.3 123.778 246.773 124.127 243.594 124.884C235.312 126.882 229.62 135.678 228.106 144.065C225.169 160.264 221.157 189.845 244.154 197.702C269.346 204.833 284.773 181.61 284.773 181.61L284.758 181.595Z" fill="#FBCBB5"/>
<path d="M260.732 162.19C262.471 162.19 263.881 160.781 263.881 159.042C263.881 157.302 262.471 155.893 260.732 155.893C258.993 155.893 257.583 157.302 257.583 159.042C257.583 160.781 258.993 162.19 260.732 162.19Z" fill="#111111"/>
<path d="M234.873 158.21C236.613 158.21 238.022 156.8 238.022 155.061C238.022 153.322 236.613 151.912 234.873 151.912C233.134 151.912 231.724 153.322 231.724 155.061C231.724 156.8 233.134 158.21 234.873 158.21Z" fill="#111111"/>
<path d="M245.955 158.057C245.955 158.057 240.899 161.781 241.247 163.234C241.595 164.688 244.335 167.064 244.774 167.049" stroke="#E49F7F" stroke-width="1.6" stroke-linecap="round" stroke-linejoin="round"/>
<path d="M258.733 148.401C258.733 148.401 263.336 147.871 266.182 150.702" stroke="#111111" stroke-width="1.6" stroke-linecap="round" stroke-linejoin="round"/>
<path d="M233.057 145.157C233.057 145.157 237.493 143.84 240.793 146.126" stroke="#111111" stroke-width="1.6" stroke-linecap="round" stroke-linejoin="round"/>
<path d="M236.795 174.645C236.747 178.657 240.735 181.962 245.705 182.023C250.675 182.084 254.747 178.877 254.795 174.865C254.795 174.658 254.795 174.462 254.771 174.255C252.016 174.609 248.986 174.792 245.789 174.743C242.603 174.706 239.573 174.45 236.831 174.023C236.807 174.231 236.795 174.426 236.795 174.633V174.645Z" fill="#E49F7F"/>
<path d="M251.663 118.994C247.696 124.005 242.609 139.613 257.582 141.218C257.582 141.218 257.764 134.527 263.774 127.139C263.774 127.139 269.467 157.795 288.573 158.083L291.904 139.341C291.904 139.341 258.127 110.834 251.663 118.994Z" fill="#111111"/>
<path d="M330.464 223.014C354.915 244.98 367.45 308.958 367.45 308.958L319.292 323.809L330.449 223.014" fill="#F85851"/>
<path d="M388.343 252.84L355.717 242.303L315.825 323.509C313.417 341.691 324.802 360.251 342.637 357.814C352.326 356.481 360.138 349.184 362.833 339.783L388.328 252.84H388.343Z" fill="#FBCBB5"/>
<path d="M353.112 247.719C353.112 247.719 355.974 229.9 366.647 229.34C370.977 229.113 394.534 226.343 395.851 228.265C397.168 230.188 396.79 235.865 391.264 239.665L421.392 239.801C426.978 239.831 430.097 246.462 426.388 250.641C426.342 250.701 426.297 250.747 426.236 250.807C427.886 254.304 424.208 259.77 421.331 260.466C418.455 261.162 374.187 266.93 374.187 266.93L353.127 247.734L353.112 247.719Z" fill="#FBCBB5"/>
<path d="M271.996 239.516L258.173 226.496C258.173 226.496 272.586 215.793 286.605 196.37C287.605 194.992 289.618 194.841 290.799 196.067L301.745 207.361L272.011 239.516H271.996Z" fill="white"/>
<path d="M258.173 226.495C258.173 226.495 246.924 221.302 244.85 212.764L232.617 225.284L249.574 241.437L258.173 226.495Z" fill="white"/>
<path d="M48 314C48 311.791 49.7909 310 52 310H98C100.209 310 102 311.791 102 314V356C102 362.627 96.6274 368 90 368H60C53.3726 368 48 362.627 48 356V314Z" fill="#FFE248"/>
<path d="M49.7576 326H40.2424C37.8994 326 36 327.937 36 330.326V347.674C36 350.063 37.8994 352 40.2424 352H49.7576C52.1006 352 54 350.063 54 347.674V330.326C54 327.937 52.1006 326 49.7576 326Z" stroke="#FFE248" stroke-width="2.83" stroke-miterlimit="10"/>
<path d="M196 314C196 311.791 194.209 310 192 310H146C143.791 310 142 311.791 142 314V356C142 362.627 147.373 368 154 368H184C190.627 368 196 362.627 196 356V314Z" fill="white"/>
<path d="M194.242 326H203.758C206.101 326 208 327.937 208 330.326V347.674C208 350.063 206.101 352 203.758 352H194.242C191.899 352 190 350.063 190 347.674V330.326C190 327.937 191.899 326 194.242 326Z" stroke="white" stroke-width="2.83" stroke-miterlimit="10"/>
<rect width="72" height="36" rx="18" transform="matrix(-1 0 0 1 228 48)" fill="white"/>
<path d="M214 100C209.907 98.1037 206.496 88.5432 206.837 84H192C196.093 93.0074 208.372 98.4198 214 100Z" fill="white"/>
<circle cx="3" cy="3" r="3" transform="matrix(-1 0 0 1 207 63)" fill="#111111"/>
<circle cx="3" cy="3" r="3" transform="matrix(-1 0 0 1 195 63)" fill="#111111"/>
<circle cx="3" cy="3" r="3" transform="matrix(-1 0 0 1 183 63)" fill="#111111"/>
<rect x="36" y="148" width="72" height="36" rx="18" fill="white"/>
<path d="M50 200C54.093 198.104 57.5039 188.543 57.1628 184H72C67.907 193.007 55.6279 198.42 50 200Z" fill="white"/>
<circle cx="60" cy="166" r="3" fill="#111111"/>
<circle cx="72" cy="166" r="3" fill="#111111"/>
<circle cx="84" cy="166" r="3" fill="#111111"/>
</g>
<defs>
<filter id="filter0_d_2_17642" x="0" y="0" width="412" height="392" filterUnits="userSpaceOnUse" color-interpolation-filters="sRGB">
<feFlood flood-opacity="0" result="BackgroundImageFix"/>
<feColorMatrix in="SourceAlpha" type="matrix" values="0 0 0 0 0 0 0 0 0 0 0 0 0 0 0 0 0 0 127 0" result="hardAlpha"/>
<feOffset dx="4" dy="8"/>
<feGaussianBlur stdDeviation="8"/>
<feComposite in2="hardAlpha" operator="out"/>
<feColorMatrix type="matrix" values="0 0 0 0 0 0 0 0 0 0 0 0 0 0 0 0 0 0 0.04 0"/>
<feBlend mode="normal" in2="BackgroundImageFix" result="effect1_dropShadow_2_17642"/>
<feBlend mode="normal" in="SourceGraphic" in2="effect1_dropShadow_2_17642" result="shape"/>
</filter>
<clipPath id="clip0_2_17642">
<rect width="360" height="360" fill="white" transform="translate(32 8)"/>
</clipPath>
</defs>
</svg>
