<svg width="328" height="105" viewBox="0 0 328 105" fill="none" xmlns="http://www.w3.org/2000/svg">
    <g clip-path="url(#82yo1z66ra)" stroke="#000" stroke-width=".7" stroke-linecap="round" stroke-linejoin="round">
        <path d="m96.71 39.229-4.744 2.318 3.008 6.181 4.744-2.318-3.009-6.181zM272.268 18.443l-3.971-3.483-4.52 5.174 3.97 3.483 4.521-5.174z" fill="#7D79E6"/>
        <path d="m92.492.288-5.037 1.577 2.047 6.564 5.037-1.577L92.492.288z" fill="#fff"/>
        <path d="m244.963 45.746-5.649-5.469 4.549-1.175 5.649 5.468-4.549 1.176zM58.8 42.612s-9.412-5.416-12.316-14.311c1.613-1.616 4.033-3.719 6.132-4.851 2.42 10.995 10.732 17.987 10.732 17.987L58.8 42.612z" fill="#FFA2A1"/>
        <path d="M326.308 64.522s3.172-8.946.061-16.476c-1.984-.146-4.778-.154-6.81.296 4.62 8.64 3.069 18 3.069 18l3.68-1.82z" fill="#FFCB81"/>
        <path d="m277.376 30.626.641-6.36 3.034 2.315-.641 6.359-3.034-2.314zM7.023 75.942l-6.75-4.025 4.155-2.19 6.751 4.025-4.156 2.19z" fill="#fff"/>
    </g>
    <defs>
        <clipPath id="82yo1z66ra">
            <path fill="#fff" d="M0 0h328v105H0z"/>
        </clipPath>
    </defs>
</svg>
