<svg width="80" height="80" viewBox="0 0 80 80" fill="none" xmlns="http://www.w3.org/2000/svg">
    <path d="M45.72 2.527a7.729 7.729 0 0 0 8.068 2.163c4.34-1.38 8.927 1.268 9.897 5.72a7.74 7.74 0 0 0 5.906 5.905c4.45.97 7.099 5.558 5.719 9.897a7.729 7.729 0 0 0 2.163 8.069c3.37 3.07 3.37 8.367 0 11.438a7.729 7.729 0 0 0-2.163 8.07c1.38 4.338-1.269 8.926-5.72 9.896a7.74 7.74 0 0 0-5.905 5.906c-.97 4.45-5.558 7.099-9.897 5.719a7.729 7.729 0 0 0-8.069 2.163c-3.07 3.37-8.367 3.37-11.438 0a7.729 7.729 0 0 0-8.07-2.163c-4.338 1.38-8.926-1.269-9.896-5.72a7.74 7.74 0 0 0-5.906-5.905c-4.45-.97-7.099-5.558-5.719-9.897a7.729 7.729 0 0 0-2.163-8.069c-3.37-3.07-3.37-8.367 0-11.438a7.729 7.729 0 0 0 2.163-8.07c-1.38-4.338 1.268-8.926 5.72-9.896a7.74 7.74 0 0 0 5.905-5.906c.97-4.45 5.558-7.099 9.897-5.719 2.884.92 6.03.075 8.069-2.163 3.07-3.37 8.367-3.37 11.438 0z" fill="#121856"/>
</svg>
