<svg width="1040" height="395" viewBox="0 0 1040 395" fill="none" xmlns="http://www.w3.org/2000/svg">
<rect width="1040" height="390" rx="12" fill="white"/>
<path opacity="0.5" d="M260.387 5L516.5 166L522.5 213.5L309.507 395H0V5H260.387Z" fill="url(#paint0_linear_2974_49369)"/>
<g filter="url(#filter0_d_2974_49369)">
<path d="M484.665 251.228C494.926 239.841 502.926 240.594 508.917 245.817C514.908 251.039 516.63 258.767 506.37 270.154C496.11 281.54 482.931 286.539 476.94 281.305C470.949 276.082 474.405 262.614 484.665 251.228Z" fill="#F0F0F0"/>
<path d="M587.288 227.449H503.475C493.696 227.449 485.775 219.457 485.775 209.589C485.775 176.366 512.462 149.438 545.388 149.438C578.314 149.438 605 176.366 605 209.589C605 219.457 597.079 227.449 587.3 227.449H587.288Z" fill="white"/>
<path d="M580.056 236.281H510.72C502.63 236.281 496.079 244.122 496.079 253.804C496.079 286.401 518.157 312.82 545.388 312.82C572.618 312.82 594.697 286.401 594.697 253.804C594.697 244.122 588.146 236.281 580.056 236.281Z" fill="white"/>
<path d="M543.18 131.775H547.596V158.27H543.18V131.775Z" fill="white"/>
<path d="M535.82 218.618C517.936 218.618 503.438 206.427 503.438 191.388C503.438 176.349 517.936 164.157 535.82 164.157C553.704 164.157 568.202 176.349 568.202 191.388C568.202 206.427 553.704 218.618 535.82 218.618Z" fill="#33373F"/>
<path d="M535.82 220.09C554.489 220.09 569.674 207.212 569.674 191.388C569.674 175.563 554.489 162.685 535.82 162.685C517.152 162.685 501.966 175.563 501.966 191.388C501.966 207.212 517.152 220.09 535.82 220.09ZM535.82 166.261C552.542 166.261 566.156 177.536 566.156 191.4C566.156 205.264 552.554 216.538 535.82 216.538C519.087 216.538 505.484 205.264 505.484 191.4C505.484 177.536 519.087 166.261 535.82 166.261Z" fill="#33373F"/>
<path d="M516.685 187.708C514.247 187.708 512.27 185.731 512.27 183.292C512.27 180.853 514.247 178.876 516.685 178.876C519.124 178.876 521.101 180.853 521.101 183.292C521.101 185.731 519.124 187.708 516.685 187.708Z" fill="#7A90CE"/>
<path d="M547.595 187.708C545.157 187.708 543.18 185.731 543.18 183.292C543.18 180.853 545.157 178.876 547.595 178.876C550.034 178.876 552.011 180.853 552.011 183.292C552.011 185.731 550.034 187.708 547.595 187.708Z" fill="#7A90CE"/>
<path d="M538.516 190.652C539.837 190.652 540.648 192.176 540.018 193.413C537.632 198.129 534.785 200.955 531.404 200.955C528.024 200.955 525.177 198.142 522.79 193.413C522.16 192.176 522.972 190.652 524.293 190.652H538.504H538.516Z" fill="white"/>
<path d="M531.404 200.955C535.182 200.955 538.515 198.568 541.284 193.858C541.87 192.864 541.847 191.686 541.225 190.714C540.603 189.752 539.5 189.18 538.292 189.18H524.528C523.308 189.18 522.217 189.752 521.595 190.714C520.961 191.686 520.938 192.864 521.524 193.858C524.305 198.568 527.626 200.955 531.404 200.955ZM538.174 192.41C536.062 195.91 533.786 197.714 531.404 197.714C529.022 197.714 526.769 195.932 524.669 192.41H538.162H538.174Z" fill="white"/>
<path d="M546.124 137.663C541.246 137.663 537.292 133.709 537.292 128.831C537.292 123.954 541.246 120 546.124 120C551.001 120 554.955 123.954 554.955 128.831C554.955 133.709 551.001 137.663 546.124 137.663Z" fill="white"/>
<path d="M564.262 244.108C570.85 237.56 580.144 236.173 593.106 248.963C593.522 249.375 593.925 249.774 594.317 250.186C594.554 251.432 594.697 252.725 594.697 254.065C594.697 265.339 592.014 275.884 587.373 284.854C581.486 282.573 575.088 278.4 569.271 272.651C556.309 259.861 557.674 250.644 564.262 244.096V244.108Z" fill="#F0F0F0"/>
<path d="M592.662 251.77C581.568 241.09 573.608 242.252 567.971 247.719C562.335 253.186 561.167 260.874 572.261 271.554C583.355 282.234 596.916 286.458 602.553 280.991C608.19 275.524 603.757 262.45 592.662 251.77Z" fill="white"/>
</g>
<path d="M536.612 80.162H531.134C531.09 80.514 531.024 80.844 530.936 81.174C534.896 80.91 538.394 82.538 538.812 86.96H534.478C533.928 84.738 531.486 83.836 528.934 84.32C526.954 86.146 523.984 86.982 521.344 86.982C520.134 86.982 519.21 86.366 519.122 85.332C519.012 84.364 519.65 83.484 520.728 83.44C523.676 83.33 526.052 82.384 526.624 80.162H521.388C520.068 80.162 519.54 79.282 519.54 78.38C519.54 77.5 520.046 76.598 521.388 76.598H526.646C526.734 75.322 527.636 74.618 529 74.618C530.342 74.618 531.244 75.344 531.332 76.598H536.612C537.954 76.598 538.46 77.5 538.46 78.38C538.46 79.282 537.932 80.162 536.612 80.162ZM537.448 91.25H531.244V95.782H526.756V91.25H520.552C519.232 91.25 518.704 90.37 518.704 89.468C518.704 88.588 519.21 87.664 520.552 87.664H537.448C538.79 87.664 539.296 88.588 539.296 89.468C539.296 90.37 538.768 91.25 537.448 91.25ZM552.32 80.558H549.438V80.954C549.438 81.35 549.394 81.702 549.35 82.054C552.584 82.186 554.146 83.902 554.102 87.73H550.032C550.12 86.036 549.35 85.09 548.228 85.068C546.952 86.894 544.862 87.818 542.794 87.862C541.716 87.884 540.858 87.246 540.858 86.256C540.858 85.222 541.408 84.672 542.288 84.54C544.246 84.232 545.324 82.89 545.324 80.954V80.558H542.574C541.54 80.558 540.968 79.634 540.968 78.842C540.968 78.05 541.452 77.06 542.574 77.06H545.258V76.928C545.258 75.608 546.028 74.992 547.392 74.992C548.756 74.992 549.548 75.63 549.548 76.928V77.06H552.32C553.442 77.06 553.926 78.05 553.926 78.842C553.926 79.634 553.354 80.558 552.32 80.558ZM559.426 95.672H545.544C543.08 95.672 542.42 94.814 542.42 92.46V90.832C542.42 89.336 543.454 88.742 544.686 88.742C545.918 88.742 546.886 89.358 546.886 90.832V91.712C546.886 92.196 546.996 92.262 547.48 92.262H559.426C560.768 92.262 561.274 93.076 561.274 93.956C561.274 94.858 560.746 95.672 559.426 95.672ZM556.324 90.568V83.814H555.07C553.75 83.814 553.31 82.978 553.31 82.076C553.31 81.196 553.728 80.338 555.07 80.338H556.324V77.148C556.324 75.74 557.358 75.014 558.502 75.014C559.624 75.014 560.702 75.762 560.702 77.148V90.568H556.324Z" fill="#FF5C01"/>
<path d="M515.58 125.672H501.17C499.168 125.672 498.046 124.264 498.046 122.68V122.416C498.046 120.832 499.168 119.82 501.17 119.82H511.796V119.248C511.796 118.984 511.73 118.896 511.444 118.896H499.498C498.64 118.896 498.288 118.258 498.288 117.598C498.288 116.982 498.662 116.322 499.498 116.322H513.578C515.536 116.322 516.262 116.894 516.262 118.632V122.152H503.172C502.842 122.152 502.688 122.35 502.688 122.57V122.636C502.688 122.856 502.842 123.054 503.172 123.054H515.58C516.46 123.054 516.834 123.736 516.834 124.396C516.834 125.012 516.482 125.672 515.58 125.672ZM497.188 110.69V110.096C497.188 106.598 499.674 105.256 503.37 105.256C507.066 105.256 509.552 106.598 509.552 110.096V110.69C509.552 114.188 507.066 115.53 503.37 115.53C499.674 115.53 497.188 114.188 497.188 110.69ZM511.752 115.618V107.192C511.752 105.762 512.764 105.014 513.93 105.014C515.074 105.014 516.108 105.784 516.108 107.192V108.556H516.79C518.132 108.556 518.528 109.546 518.528 110.426C518.528 111.328 518.11 112.296 516.79 112.296H516.108V115.618H511.752ZM501.522 109.942V110.844C501.522 111.944 502.226 112.428 503.37 112.428C504.514 112.428 505.218 111.944 505.218 110.844V109.942C505.218 108.864 504.514 108.358 503.37 108.358C502.226 108.358 501.522 108.864 501.522 109.942ZM532.872 117.862C533.532 116.344 533.862 114.342 533.862 111.394V110.008C533.862 109.7 533.664 109.458 533.312 109.458H521.366C520.046 109.458 519.43 108.468 519.43 107.566C519.43 106.686 520.024 105.674 521.366 105.674H534.808C537.404 105.674 538.196 106.664 538.196 108.82V111.416C538.196 114.958 537.756 117.554 536.92 119.226C536.326 120.392 534.874 120.898 533.686 120.392C532.718 119.974 532.432 118.874 532.872 117.862ZM520.552 121.668H525.062V115.068C525.062 113.638 526.14 113.044 527.306 113.044C528.45 113.044 529.55 113.66 529.55 115.068V121.668H537.448C538.79 121.668 539.296 122.57 539.296 123.45C539.296 124.352 538.768 125.232 537.448 125.232H520.552C519.232 125.232 518.704 124.352 518.704 123.45C518.704 122.57 519.21 121.668 520.552 121.668ZM545.72 117.84V120.194C545.72 120.964 545.962 121.14 546.732 121.14H553.222C554.564 121.14 555.092 122.064 555.092 122.944C555.092 123.846 554.542 124.748 553.222 124.748H545.104C542.354 124.748 541.298 123.758 541.298 121.008V117.004C541.298 114.254 542.354 113.308 545.104 113.308H549.042V110.118C549.042 109.832 548.954 109.502 548.448 109.502H543.388C542.068 109.502 541.518 108.578 541.518 107.676C541.518 106.796 542.046 105.828 543.388 105.828H549.614C552.65 105.828 553.464 106.686 553.464 109.194V116.894H546.732C545.962 116.894 545.72 117.07 545.72 117.84ZM560.702 125.672H556.302V107.192C556.302 105.762 557.336 105.014 558.502 105.014C559.668 105.014 560.702 105.762 560.702 107.192V125.672ZM582.394 125.672H566.73C564.068 125.672 563.584 124.902 563.584 122.35V121.734C563.584 119.182 564.068 118.434 566.73 118.434H579.248C581.91 118.434 582.394 119.182 582.394 121.734V125.672ZM565.322 105.322H580.678C581.932 105.322 582.416 106.114 582.416 106.95C582.416 107.786 581.91 108.578 580.678 108.578H575.266C575.2 108.864 575.112 109.15 575.002 109.392C575.684 109.326 576.366 109.326 577.026 109.348C579.93 109.458 582.284 110.36 583.142 113.462H578.698C577.994 112.186 576.322 111.724 574.694 111.702C574.122 111.702 573.484 111.746 572.846 111.878C570.756 113.242 567.676 113.77 564.882 113.462C563.694 113.352 563.078 112.604 563.188 111.504C563.276 110.668 564.024 110.096 565.036 110.162C567.852 110.36 570.294 109.964 571.086 108.578H565.322C564.09 108.578 563.584 107.786 563.584 106.95C563.584 106.114 564.068 105.322 565.322 105.322ZM564.42 114.166H581.58C582.834 114.166 583.296 115.002 583.296 115.816C583.296 116.652 582.812 117.422 581.58 117.422H564.42C563.188 117.422 562.704 116.652 562.704 115.816C562.704 115.002 563.166 114.166 564.42 114.166ZM567.984 122.152C567.984 122.592 568.072 122.724 568.512 122.724H578.016V121.866C578.016 121.47 577.906 121.316 577.466 121.316H568.512C568.072 121.316 567.984 121.47 567.984 121.866V122.152Z" fill="#111111"/>
<path fill-rule="evenodd" clip-rule="evenodd" d="M706 40C697.163 40 690 47.1634 690 56L690 170.233L690 150C677.615 155.581 670.173 172.326 668 180C670.607 174.419 683.753 169.767 690 170.233L690 334C690 342.837 697.163 350 706 350H974C982.837 350 990 342.837 990 334V56C990 47.1634 982.837 40 974 40H706Z" fill="#33373F"/>
<rect x="715" y="60" width="250" height="77" rx="8" fill="white"/>
<path d="M820.293 81.366H822.417V97.494H820.293V89.412H818.763V96.72H816.693V81.672H818.763V87.594H820.293V81.366ZM809.061 93.84V83.256H815.001V85.056H811.257V92.004C812.823 91.968 814.209 91.878 815.757 91.59L815.937 93.39C813.975 93.768 812.283 93.84 810.177 93.84H809.061ZM828.268 82.644H830.518V85.02C830.518 88.008 831.868 90.978 834.568 92.148L833.272 93.948C831.418 93.102 830.14 91.482 829.42 89.466C828.7 91.644 827.386 93.408 825.442 94.308L824.11 92.472C826.882 91.266 828.268 88.17 828.268 85.02V82.644ZM835.432 97.53V81.348H837.664V97.53H835.432ZM840.076 93.786H846.232V90.78H841.624V82.392H843.838V84.912H850.858V82.392H853.072V90.78H848.464V93.786H854.674V95.604H840.076V93.786ZM843.838 88.998H850.858V86.676H843.838V88.998ZM857.518 82.698H868.696V84.516H859.732V88.836H868.822V90.6H857.518V82.698ZM855.808 95.532V93.714H870.406V95.532H855.808Z" fill="#111111"/>
<path d="M810.096 106.758H811.146V111.686H813.12V112.568H811.146V119.022H810.096V106.758ZM802.256 115.9V107.976H803.292V115.032C805.07 115.032 806.918 114.892 808.92 114.472L809.046 115.354C806.946 115.774 805.084 115.9 803.222 115.9H802.256ZM817.936 107.668C819.84 107.668 821.198 108.844 821.198 110.538C821.198 112.246 819.84 113.408 817.936 113.408C816.018 113.408 814.66 112.246 814.66 110.538C814.66 108.844 816.018 107.668 817.936 107.668ZM814.03 115.438C816.27 115.438 819.378 115.438 822.052 115.018L822.136 115.788C819.378 116.32 816.368 116.334 814.17 116.334L814.03 115.438ZM815.682 110.538C815.682 111.686 816.634 112.498 817.936 112.498C819.224 112.498 820.176 111.686 820.176 110.538C820.176 109.376 819.224 108.578 817.936 108.578C816.634 108.578 815.682 109.376 815.682 110.538ZM822.864 119.036V106.758H823.914V119.036H822.864ZM829.479 108.088H832.573V106.702H833.623V108.088H836.717V108.942H829.479V108.088ZM830.179 111.812C830.179 110.468 831.341 109.6 833.091 109.6C834.841 109.6 836.017 110.468 836.017 111.812C836.017 113.156 834.841 114.01 833.091 114.01C831.341 114.01 830.179 113.156 830.179 111.812ZM831.005 115.97V115.102H838.929V119.022H837.879V115.97H831.005ZM831.173 111.812C831.173 112.638 831.943 113.198 833.091 113.198C834.239 113.198 835.009 112.638 835.009 111.812C835.009 110.972 834.239 110.426 833.091 110.426C831.943 110.426 831.173 110.972 831.173 111.812ZM837.879 114.43V106.772H838.929V110.174H840.763V111.056H838.929V114.43H837.879ZM843.087 114.108H844.123V115.578H850.241V114.108H851.277V118.854H843.087V114.108ZM841.673 113.24V112.386H852.733V113.24H841.673ZM842.317 110.65C844.459 110.356 846.671 109.054 846.671 107.472V106.912H847.749V107.472C847.749 109.012 849.989 110.37 852.103 110.65L851.711 111.476C849.863 111.196 847.987 110.23 847.217 108.858C846.447 110.244 844.571 111.196 842.709 111.476L842.317 110.65ZM844.123 118H850.241V116.404H844.123V118ZM853.896 113.268H864.998V114.122H860.056V116.544H858.992V114.122H853.896V113.268ZM855.324 118.756V115.424H856.36V117.874H863.766V118.756H855.324ZM855.394 112.05V107.15H856.43V108.746H862.478V107.15H863.528V112.05H855.394ZM856.43 111.196H862.478V109.572H856.43V111.196ZM872.418 109.362H875.134V106.772H876.184V114.01H875.134V110.244H872.418V109.362ZM866.174 112.89C867.98 112.232 869.226 110.58 869.226 108.69V107.388H870.262V108.732C870.262 110.44 871.522 112.008 873.272 112.638L872.698 113.464C871.354 112.946 870.29 111.896 869.758 110.58C869.254 112.036 868.148 113.17 866.706 113.73L866.174 112.89ZM868.036 115.55V114.696H876.184V119.022H875.134V115.55H868.036Z" fill="#535353"/>
<rect x="715" y="145" width="250" height="77" rx="8" fill="white"/>
<path d="M800.745 174.214H806.901V172.756H802.527V167.032H813.579V168.796H804.723V170.992H813.723V172.756H809.133V174.214H815.325V175.978H800.745V174.214ZM802.347 178.876V177.112H813.597V182.566H811.365V178.876H802.347ZM827.691 166.348H829.923V182.53H827.691V175.996H824.955V174.214H827.691V171.604H824.991V169.822H827.691V166.348ZM816.981 169.516V167.734H824.163V173.926H819.213V177.094C821.211 177.076 822.975 176.986 825.009 176.698L825.171 178.516C822.795 178.876 820.743 178.93 818.277 178.93H816.999V172.162H821.967V169.516H816.981ZM832.66 168.04H838.996V172.252H840.634V166.636H842.722V181.756H840.634V174.052H838.996V178.444H832.66V168.04ZM834.73 176.698H836.926V169.786H834.73V176.698ZM843.91 182.494V166.366H846.016V182.494H843.91ZM851.866 167.644H854.116V170.02C854.116 173.008 855.466 175.978 858.166 177.148L856.87 178.948C855.016 178.102 853.738 176.482 853.018 174.466C852.298 176.644 850.984 178.408 849.04 179.308L847.708 177.472C850.48 176.266 851.866 173.17 851.866 170.02V167.644ZM859.03 182.53V166.348H861.262V182.53H859.03ZM864.161 167.932H873.197V169.768H869.813V170.794C869.813 173.422 871.199 176.194 873.845 177.31L872.621 179.074C870.767 178.264 869.453 176.644 868.733 174.7C868.013 176.824 866.681 178.606 864.791 179.47L863.531 177.706C866.177 176.5 867.563 173.53 867.563 170.794V169.768H864.161V167.932ZM874.763 182.512V166.384H876.995V182.512H874.763Z" fill="#111111"/>
<path d="M798.226 191.772H799.248V204.022H798.226V197.596H796.518V203.406H795.51V192.094H796.518V196.728H798.226V191.772ZM788.902 200.62C791.758 199.038 792.906 196.784 793.074 194.236H789.35V193.368H794.11C794.11 196.476 793.018 199.416 789.518 201.39L788.902 200.62ZM810.084 191.786H811.148V200.732H810.084V191.786ZM801.404 195.65C801.404 193.872 802.776 192.64 804.582 192.64C806.402 192.64 807.76 193.872 807.76 195.65C807.76 197.4 806.402 198.646 804.582 198.646C802.776 198.646 801.404 197.4 801.404 195.65ZM802.426 195.65C802.426 196.854 803.364 197.722 804.582 197.722C805.814 197.722 806.752 196.854 806.752 195.65C806.752 194.418 805.814 193.55 804.582 193.55C803.364 193.55 802.426 194.418 802.426 195.65ZM803.322 203.742V199.822H804.358V202.874H811.526V203.742H803.322ZM822.377 191.772H823.413V198.17H822.377V196.588H819.479V197.666H813.977V192.346H815.027V194.124H818.443V192.346H819.479V193.536H822.377V191.772ZM815.027 196.812H818.443V194.95H815.027V196.812ZM815.545 199.626V198.786H823.413V201.642H816.609V203.014H823.875V203.854H815.587V200.844H822.377V199.626H815.545ZM819.479 195.762H822.377V194.362H819.479V195.762ZM829.37 192.612H834.97V197.848H829.37V192.612ZM830.07 203.168C832.072 202.846 833.906 201.712 834.004 200.354H830.546V199.5H838.54V200.354H835.082C835.18 201.684 837.042 202.846 839.002 203.182L838.61 203.98C836.86 203.672 835.236 202.776 834.536 201.558C833.864 202.79 832.254 203.672 830.476 203.98L830.07 203.168ZM830.392 196.994H833.948V193.466H830.392V196.994ZM837.28 198.772V191.772H838.33V194.74H840.15V195.622H838.33V198.772H837.28ZM841.06 197.834H852.12V198.688H847.122V200.074H850.762V203.854H842.432V200.074H846.072V198.688H841.06V197.834ZM841.718 196.28C843.972 196.084 845.946 195.174 846.03 193.774H842.208V192.934H846.072V191.688H847.122V192.934H851V193.774H847.164C847.248 195.174 849.222 196.084 851.462 196.28L851.154 197.092C849.152 196.882 847.346 196.168 846.59 194.95C845.848 196.168 844.028 196.882 842.054 197.092L841.718 196.28ZM843.454 203H849.74V200.914H843.454V203ZM856.985 193.2H861.619V196.406H863.495V192.052H864.489V203.392H863.495V197.274H861.619V200.704H856.985V193.2ZM857.965 199.878H860.639V194.04H857.965V199.878ZM865.903 204.022V191.772H866.911V204.022H865.903ZM871.993 192.85H873.043V195.076C873.043 197.316 874.569 199.57 876.333 200.396L875.703 201.236C874.317 200.55 873.113 199.08 872.539 197.316C871.979 199.178 870.761 200.746 869.333 201.46L868.689 200.592C870.467 199.738 871.993 197.4 871.993 195.076V192.85ZM877.691 204.036V191.758H878.741V204.036H877.691ZM881.374 193.032H888.22V193.914H885.308V195.566C885.308 197.652 886.848 199.752 888.612 200.522L888.01 201.362C886.61 200.704 885.364 199.276 884.79 197.582C884.23 199.388 882.998 200.956 881.598 201.656L880.996 200.83C882.718 199.99 884.258 197.68 884.258 195.566V193.914H881.374V193.032ZM889.928 204.022V191.772H890.978V204.022H889.928Z" fill="#535353"/>
<rect x="715" y="230" width="250" height="100" rx="8" fill="white"/>
<path d="M762.929 277.758H763.979V282.686H765.953V283.568H763.979V290.022H762.929V277.758ZM755.089 286.9V278.976H756.125V286.032C757.903 286.032 759.751 285.892 761.753 285.472L761.879 286.354C759.779 286.774 757.917 286.9 756.055 286.9H755.089ZM770.475 278.57C772.351 278.57 773.695 279.746 773.695 281.44C773.695 282.98 772.603 284.072 771.007 284.282V286.382C772.141 286.326 773.289 286.242 774.353 286.102L774.437 286.886C771.861 287.32 768.977 287.348 766.835 287.348L766.667 286.466C767.647 286.466 768.781 286.466 769.957 286.424V284.282C768.347 284.086 767.241 282.994 767.241 281.44C767.241 279.746 768.585 278.57 770.475 278.57ZM768.263 281.44C768.263 282.602 769.187 283.414 770.475 283.414C771.749 283.414 772.673 282.602 772.673 281.44C772.673 280.278 771.749 279.466 770.475 279.466C769.187 279.466 768.263 280.278 768.263 281.44ZM775.137 290.022V277.772H776.173V282.854H778.161V283.736H776.173V290.022H775.137ZM782.27 284.758H793.372V285.64H790.432V290.022H789.368V285.64H786.232V290.022H785.154V285.64H782.27V284.758ZM783.516 280.936C783.516 279.298 785.238 278.29 787.786 278.29C790.348 278.29 792.056 279.298 792.056 280.936C792.056 282.574 790.348 283.596 787.786 283.596C785.238 283.596 783.516 282.574 783.516 280.936ZM784.594 280.936C784.594 282.042 785.882 282.742 787.786 282.742C789.69 282.742 790.992 282.042 790.992 280.936C790.992 279.844 789.69 279.13 787.786 279.13C785.882 279.13 784.594 279.844 784.594 280.936ZM797.544 278.85H798.566V281.076C798.566 283.232 799.994 285.472 801.716 286.326L801.072 287.152C799.742 286.452 798.608 284.996 798.076 283.274C797.53 285.094 796.368 286.662 794.996 287.404L794.352 286.55C796.102 285.668 797.544 283.316 797.544 281.076V278.85ZM802.85 290.022V277.772H803.9V282.756H805.944V283.652H803.9V290.022H802.85ZM815.185 277.786H816.235V281.832H818.069V282.714H816.235V286.97H815.185V277.786ZM806.785 280.138V279.284H809.879V277.786H810.929V279.284H814.023V280.138H806.785ZM807.485 283.12C807.485 281.734 808.661 280.838 810.397 280.838C812.133 280.838 813.323 281.734 813.323 283.12C813.323 284.492 812.133 285.388 810.397 285.388C808.661 285.388 807.485 284.492 807.485 283.12ZM808.479 283.12C808.479 283.988 809.249 284.562 810.397 284.562C811.545 284.562 812.315 283.988 812.315 283.12C812.315 282.238 811.545 281.664 810.397 281.664C809.249 281.664 808.479 282.238 808.479 283.12ZM808.647 289.742V286.228H809.683V288.874H816.809V289.742H808.647ZM822.248 279.088H825.342V277.702H826.392V279.088H829.486V279.942H822.248V279.088ZM822.948 282.812C822.948 281.468 824.11 280.6 825.86 280.6C827.61 280.6 828.786 281.468 828.786 282.812C828.786 284.156 827.61 285.01 825.86 285.01C824.11 285.01 822.948 284.156 822.948 282.812ZM823.774 286.97V286.102H831.698V290.022H830.648V286.97H823.774ZM823.942 282.812C823.942 283.638 824.712 284.198 825.86 284.198C827.008 284.198 827.778 283.638 827.778 282.812C827.778 281.972 827.008 281.426 825.86 281.426C824.712 281.426 823.942 281.972 823.942 282.812ZM830.648 285.43V277.772H831.698V281.174H833.532V282.056H831.698V285.43H830.648ZM835.856 285.108H836.892V286.578H843.01V285.108H844.046V289.854H835.856V285.108ZM834.442 284.24V283.386H845.502V284.24H834.442ZM835.086 281.65C837.228 281.356 839.44 280.054 839.44 278.472V277.912H840.518V278.472C840.518 280.012 842.758 281.37 844.872 281.65L844.48 282.476C842.632 282.196 840.756 281.23 839.986 279.858C839.216 281.244 837.34 282.196 835.478 282.476L835.086 281.65ZM836.892 289H843.01V287.404H836.892V289ZM846.916 279.032H853.51V279.914H850.766V281.566C850.766 283.512 852.194 285.696 853.944 286.522L853.342 287.362C851.97 286.676 850.808 285.22 850.262 283.582C849.702 285.36 848.47 286.942 847.112 287.656L846.496 286.83C848.204 285.976 849.744 283.652 849.744 281.566V279.914H846.916V279.032ZM855.022 290.022V277.772H856.072V282.756H858.102V283.638H856.072V290.022H855.022ZM867.258 277.758H868.322V282.77H870.296V283.652H868.322V290.022H867.258V277.758ZM859.012 286.858C862.162 285.276 863.87 282.868 864.108 279.956H859.572V279.088H865.172C865.172 282.546 863.548 285.696 859.6 287.67L859.012 286.858ZM882.833 277.772H883.883V280.558H885.703V281.426H883.883V284.03H882.833V277.772ZM874.923 283.568V278.584H880.523V283.568H874.923ZM875.693 289.7V285.178H876.715V288.818C877.415 288.79 878.367 288.692 879.235 288.398L879.403 289.252C878.213 289.644 877.065 289.7 876.281 289.7H875.693ZM875.945 282.728H879.501V279.424H875.945V282.728ZM878.955 286.088V285.29H881.531V284.198H882.553V285.29H885.101V286.088H878.955ZM879.781 288.272C879.781 287.222 880.705 286.55 882.035 286.55C883.365 286.55 884.303 287.222 884.303 288.272C884.303 289.336 883.365 290.008 882.035 290.008C880.705 290.008 879.781 289.336 879.781 288.272ZM880.719 288.272C880.719 288.86 881.265 289.252 882.035 289.252C882.805 289.252 883.365 288.86 883.365 288.272C883.365 287.684 882.805 287.306 882.035 287.306C881.265 287.306 880.719 287.684 880.719 288.272ZM895.56 277.758H896.61V290.036H895.56V277.758ZM887.062 282.98C887.062 280.376 888.35 278.724 890.17 278.724C891.976 278.724 893.264 280.376 893.264 282.98C893.264 285.584 891.976 287.25 890.17 287.25C888.35 287.25 887.062 285.584 887.062 282.98ZM888.084 282.98C888.084 284.982 888.938 286.312 890.17 286.312C891.388 286.312 892.256 284.982 892.256 282.98C892.256 280.978 891.388 279.662 890.17 279.662C888.938 279.662 888.084 280.978 888.084 282.98ZM902.091 283.554H913.151V284.436H902.091V283.554ZM903.477 289.84V285.794H911.807V286.648H904.527V288.986H911.919V289.84H903.477ZM903.533 282.196V278.178H911.723V279.032H904.569V281.342H911.863V282.196H903.533ZM915.825 278.22H916.861V281.496H924.127V282.35H915.825V278.22ZM914.313 284.898V284.03H925.415V284.898H914.313ZM915.755 289.728V286.144H916.791V288.86H924.197V289.728H915.755ZM800.05 299.116H806.21V299.746C806.21 300.726 806.21 302.336 805.86 304.632L804.824 304.548C805.16 302.476 805.188 300.964 805.188 299.984H800.05V299.116ZM799.364 306.438C800.162 306.438 801.058 306.424 801.996 306.41V302.63H803.032V306.382C804.39 306.326 805.776 306.242 807.036 306.088L807.092 306.858C804.544 307.264 801.674 307.32 799.504 307.32L799.364 306.438ZM807.806 310.022V297.772H808.842V302.924H810.844V303.806H808.842V310.022H807.806ZM813.154 298.304H821.372V302.434H817.774V304.016H822.786V304.87H811.726V304.016H816.738V302.434H813.154V298.304ZM812.958 307.04V306.172H821.414V310.022H820.378V307.04H812.958ZM814.176 301.58H820.336V299.144H814.176V301.58ZM827.98 298.304L825.054 309.672H824.046L826.986 298.304H827.98ZM837.9 297.772H838.95V300.978H840.784V301.86H838.95V305.122H837.9V297.772ZM829.486 304.282C832.44 303.414 834.302 301.706 834.512 299.55H830.018V298.682H835.646C835.646 301.804 833.462 304.086 829.934 305.136L829.486 304.282ZM831.152 307.642C831.152 306.172 832.692 305.276 835.128 305.276C837.55 305.276 839.09 306.172 839.09 307.642C839.09 309.112 837.55 309.994 835.128 309.994C832.692 309.994 831.152 309.112 831.152 307.642ZM832.188 307.642C832.188 308.566 833.35 309.154 835.128 309.154C836.92 309.154 838.068 308.566 838.068 307.642C838.068 306.69 836.92 306.116 835.128 306.116C833.35 306.116 832.188 306.69 832.188 307.642ZM842.129 298.92H848.681V299.802H845.951V299.956C845.951 301.552 847.211 302.938 848.989 303.484L848.471 304.296C847.071 303.848 845.965 302.896 845.433 301.664C844.901 303.008 843.753 304.016 842.297 304.506L841.779 303.694C843.571 303.106 844.887 301.664 844.887 299.956V299.802H842.129V298.92ZM841.555 306.564C842.535 306.564 843.697 306.564 844.901 306.536V304.002H845.951V306.494C847.071 306.438 848.191 306.354 849.241 306.2L849.325 306.97C846.707 307.432 843.823 307.446 841.695 307.432L841.555 306.564ZM850.025 310.022V297.772H851.061V302.882H853.049V303.778H851.061V310.022H850.025ZM857.158 305.178H868.232V306.06H863.22V310.036H862.17V306.06H857.158V305.178ZM857.872 303.386C860.014 303.078 862.17 301.748 862.17 300.18V300.152H858.236V299.298H862.17V297.772H863.22V299.298H867.154V300.152H863.22V300.18C863.22 301.734 865.362 303.078 867.504 303.386L867.126 304.226C865.25 303.946 863.472 302.98 862.702 301.636C861.918 302.98 860.126 303.932 858.25 304.226L857.872 303.386ZM869.73 299.438H872.488V297.856H873.524V299.438H876.268V300.278H873.524V300.684C873.524 302.336 874.812 303.778 876.604 304.352L876.086 305.178C874.686 304.716 873.566 303.736 873.02 302.462C872.502 303.834 871.396 304.884 869.954 305.402L869.422 304.576C871.228 303.96 872.488 302.434 872.488 300.684V300.278H869.73V299.438ZM871.648 309.742V306.102H872.698V308.874H879.796V309.742H871.648ZM875.834 302.434V301.552H878.396V297.786H879.446V306.928H878.396V302.434H875.834Z" fill="#535353"/>
<path d="M789.511 252.986H797.809V254.264C797.809 255.812 797.809 257.756 797.359 260.474L795.181 260.294C795.559 257.954 795.613 256.19 795.613 254.768H789.511V252.986ZM788.683 262.418C789.583 262.418 790.591 262.4 791.635 262.382V257.612H793.831V262.328C795.415 262.256 797.017 262.148 798.493 261.968L798.601 263.588C795.343 264.146 791.707 264.218 788.899 264.218L788.683 262.418ZM799.249 267.494V251.366H801.463V257.882H803.677V259.718H801.463V267.494H799.249ZM806.359 252.032H817.303V257.702H812.947V259.286H819.139V261.032H804.559V259.286H810.715V257.702H806.359V252.032ZM806.179 264.02V262.256H817.375V267.512H815.161V264.02H806.179ZM808.537 255.956H815.107V253.778H808.537V255.956ZM826.609 252.032L822.739 267.08H820.561L824.449 252.032H826.609ZM838.8 251.366H841.032V255.182H843.21V257.018H841.032V260.726H838.8V251.366ZM828.252 259.304C831.816 258.332 833.832 256.478 834.156 254.228H829.008V252.428H836.604C836.604 256.766 833.904 259.754 829.17 261.086L828.252 259.304ZM830.412 264.236C830.412 262.22 832.572 260.96 835.83 260.96C839.07 260.96 841.212 262.22 841.212 264.236C841.212 266.252 839.07 267.512 835.83 267.512C832.572 267.512 830.412 266.252 830.412 264.236ZM832.644 264.236C832.644 265.244 833.832 265.784 835.83 265.784C837.828 265.784 839.034 265.244 839.034 264.236C839.034 263.21 837.828 262.688 835.83 262.688C833.832 262.688 832.644 263.21 832.644 264.236ZM844.578 252.662H853.29V254.48H850.086C850.212 256.154 851.364 257.756 853.758 258.458L852.714 260.168C850.932 259.664 849.672 258.602 848.97 257.234C848.25 258.746 846.972 259.916 845.1 260.474L844.002 258.764C846.45 258.008 847.674 256.298 847.782 254.48H844.578V252.662ZM843.93 262.616C845.082 262.616 846.414 262.616 847.818 262.598V259.772H850.05V262.508C851.292 262.454 852.534 262.346 853.704 262.184L853.884 263.786C850.5 264.434 846.9 264.416 844.182 264.398L843.93 262.616ZM854.568 267.494V251.366H856.782V257.774H858.96V259.628H856.782V267.494H854.568ZM859.843 261.032H874.423V262.85H868.231V267.53H865.981V262.85H859.843V261.032ZM860.599 258.422C863.911 258.044 865.711 256.442 865.945 254.984H861.157V253.238H865.981V251.42H868.231V253.238H873.091V254.984H868.267C868.519 256.424 870.337 258.044 873.613 258.422L872.839 260.168C870.121 259.844 868.159 258.728 867.115 257.234C866.071 258.728 864.109 259.844 861.373 260.168L860.599 258.422ZM875.989 253.31H879.211V251.492H881.425V253.31H884.647V255.038H881.425V255.146C881.425 257 882.613 258.872 885.205 259.646L884.143 261.392C882.343 260.852 881.083 259.754 880.363 258.35C879.643 259.862 878.383 261.068 876.529 261.662L875.449 259.916C878.041 259.106 879.211 257.144 879.211 255.146V255.038H875.989V253.31ZM878.401 267.206V262.328H880.633V265.424H889.399V267.206H878.401ZM884.125 257.9V256.082H886.789V251.384H889.021V263.318H886.789V257.9H884.125Z" fill="#111111"/>
<rect x="30" y="110" width="160" height="62" rx="16" fill="#B0BFF4"/>
<path d="M96 185C92.2791 183.341 89.1783 174.975 89.4884 171H76C79.7209 178.881 90.8837 183.617 96 185Z" fill="#B0BFF4"/>
<path d="M78.6112 134.806H82.2292V133.276H84.4612V134.806H88.0972V136.57H78.6112V134.806ZM79.4032 140.08C79.4032 138.298 81.0232 137.11 83.3632 137.11C85.6852 137.11 87.3052 138.298 87.3052 140.08C87.3052 141.862 85.6852 143.05 83.3632 143.05C81.0232 143.05 79.4032 141.862 79.4032 140.08ZM80.5372 145.948V144.166H91.2652V149.512H89.0332V145.948H80.5372ZM81.5452 140.08C81.5452 140.908 82.2652 141.376 83.3632 141.376C84.4252 141.376 85.1632 140.908 85.1632 140.08C85.1632 139.234 84.4252 138.802 83.3632 138.802C82.2652 138.802 81.5452 139.234 81.5452 140.08ZM89.0332 143.482V133.384H91.2652V137.56H93.4432V139.378H91.2652V143.482H89.0332ZM96.0536 143.032H98.2496V144.436H104.856V143.032H107.052V149.332H96.0536V143.032ZM94.3256 142.204V140.44H108.906V142.204H94.3256ZM95.0636 137.956C98.6276 137.524 100.464 135.742 100.464 134.05V133.546H102.768V134.05C102.768 135.724 104.622 137.524 108.186 137.956L107.376 139.684C104.658 139.342 102.642 138.19 101.616 136.624C100.59 138.19 98.5916 139.342 95.8556 139.684L95.0636 137.956ZM98.2496 147.586H104.856V146.128H98.2496V147.586ZM121.164 133.348H123.414V149.53H121.164V133.348ZM110.508 140.242C110.508 136.714 112.308 134.5 114.756 134.5C117.186 134.5 118.968 136.714 118.968 140.242C118.968 143.788 117.186 146.002 114.756 146.002C112.308 146.002 110.508 143.788 110.508 140.242ZM112.668 140.242C112.668 142.654 113.514 143.986 114.756 143.986C115.98 143.986 116.826 142.654 116.826 140.242C116.826 137.83 115.98 136.516 114.756 136.516C113.514 136.516 112.668 137.83 112.668 140.242ZM126.366 134.302H133.458V139.324H128.616V141.088C131.01 141.07 132.414 140.998 134.052 140.71L134.286 142.474C132.378 142.816 130.722 142.87 127.626 142.87H126.402V137.668H131.244V136.084H126.366V134.302ZM128.238 145.84V144.076H139.272V149.53H137.022V145.84H128.238ZM134.376 140.818V139.054H137.022V137.416H134.376V135.616H137.022V133.384H139.272V143.32H137.022V140.818H134.376Z" fill="#111111"/>
<g style="mix-blend-mode:multiply">
<rect x="200" y="123" width="160" height="62" rx="16" fill="#41C4D4"/>
</g>
<path d="M286 198C289.721 196.341 292.822 187.975 292.512 184H306C302.279 191.881 291.116 196.617 286 198Z" fill="#41C4D4"/>
<path d="M259.771 146.366H262.003V162.494H259.771V146.366ZM248.647 157.976C252.787 156.014 254.587 153.422 254.929 149.822H249.475V148.04H257.215C257.215 152.954 255.505 156.986 249.799 159.74L248.647 157.976ZM266.198 146.96H268.394V148.58H274.838V146.96H277.052V153.53H272.714V154.934H278.906V156.698H264.326V154.934H270.482V153.53H266.198V146.96ZM266.108 162.224V157.688H268.322V160.442H277.268V162.224H266.108ZM268.394 151.784H274.838V150.308H268.394V151.784ZM288.77 150.308H291.29V146.384H293.522V155.96H291.29V152.108H288.77V150.308ZM279.986 154.196C282.56 153.314 283.784 151.208 283.82 149.156H280.58V147.374H289.256V149.156H286.07C286.106 151.028 287.276 152.936 289.76 153.782L288.644 155.528C286.88 154.934 285.674 153.764 284.99 152.306C284.288 153.962 282.992 155.294 281.102 155.942L279.986 154.196ZM282.56 159.416C282.56 157.49 284.666 156.32 288.068 156.32C291.47 156.32 293.576 157.49 293.576 159.416C293.576 161.396 291.47 162.53 288.068 162.53C284.666 162.53 282.56 161.396 282.56 159.416ZM284.792 159.416C284.792 160.352 285.926 160.838 288.068 160.838C290.192 160.838 291.362 160.352 291.362 159.416C291.362 158.498 290.192 158.012 288.068 158.012C285.926 158.012 284.792 158.498 284.792 159.416ZM295.808 158.786H301.964V155.78H297.356V147.392H299.57V149.912H306.59V147.392H308.804V155.78H304.196V158.786H310.406V160.604H295.808V158.786ZM299.57 153.998H306.59V151.676H299.57V153.998Z" fill="#111111"/>
<g style="mix-blend-mode:multiply">
<rect x="145" y="40" width="160" height="62" rx="16" fill="#FF8581"/>
</g>
<path d="M231 115C234.721 113.341 237.822 104.975 237.512 101H251C247.279 108.881 236.116 113.617 231 115Z" fill="#FF8581"/>
<path d="M185.745 64.806H189.363V63.276H191.595V64.806H195.231V66.57H185.745V64.806ZM186.537 70.08C186.537 68.298 188.157 67.11 190.497 67.11C192.819 67.11 194.439 68.298 194.439 70.08C194.439 71.862 192.819 73.05 190.497 73.05C188.157 73.05 186.537 71.862 186.537 70.08ZM187.671 75.948V74.166H198.399V79.512H196.167V75.948H187.671ZM188.679 70.08C188.679 70.908 189.399 71.376 190.497 71.376C191.559 71.376 192.297 70.908 192.297 70.08C192.297 69.234 191.559 68.802 190.497 68.802C189.399 68.802 188.679 69.234 188.679 70.08ZM196.167 73.482V63.384H198.399V67.56H200.577V69.378H198.399V73.482H196.167ZM203.187 73.032H205.383V74.436H211.989V73.032H214.185V79.332H203.187V73.032ZM201.459 72.204V70.44H216.039V72.204H201.459ZM202.197 67.956C205.761 67.524 207.597 65.742 207.597 64.05V63.546H209.901V64.05C209.901 65.724 211.755 67.524 215.319 67.956L214.509 69.684C211.791 69.342 209.775 68.19 208.749 66.624C207.723 68.19 205.725 69.342 202.989 69.684L202.197 67.956ZM205.383 77.586H211.989V76.128H205.383V77.586ZM217.462 64.932H226.318V66.768H223.078V67.794C223.078 70.242 224.392 73.104 227.002 74.31L225.778 76.074C223.978 75.228 222.7 73.59 221.998 71.646C221.278 73.77 219.964 75.588 218.11 76.47L216.85 74.706C219.46 73.464 220.846 70.44 220.846 67.794V66.768H217.462V64.932ZM227.56 79.512V63.384H229.792V69.576H232.168V71.412H229.792V79.512H227.56ZM232.942 72.366H247.54V74.184H244.102V79.494H241.852V74.184H238.54V79.494H236.272V74.184H232.942V72.366ZM234.382 67.542C234.382 65.328 236.758 63.942 240.196 63.942C243.634 63.942 246.01 65.328 246.01 67.542C246.01 69.72 243.634 71.124 240.196 71.124C236.758 71.124 234.382 69.72 234.382 67.542ZM236.668 67.542C236.668 68.712 238.036 69.36 240.196 69.36C242.338 69.36 243.724 68.712 243.724 67.542C243.724 66.372 242.338 65.706 240.196 65.706C238.036 65.706 236.668 66.372 236.668 67.542ZM257.747 66.948H259.871V63.366H262.121V73.662H259.871V71.934H257.711V70.152H259.871V68.712H257.747V66.948ZM248.693 66.606V64.86H252.113V63.24H254.363V64.86H257.567V66.606H248.693ZM249.449 70.206C249.449 68.424 251.015 67.2 253.211 67.2C255.425 67.2 256.991 68.424 256.991 70.206C256.991 72.006 255.425 73.23 253.211 73.23C251.015 73.23 249.449 72.006 249.449 70.206ZM251.177 76.686C251.177 74.922 253.283 73.86 256.685 73.86C260.069 73.86 262.175 74.922 262.175 76.686C262.175 78.468 260.069 79.512 256.685 79.512C253.283 79.512 251.177 78.468 251.177 76.686ZM251.537 70.206C251.537 71.088 252.203 71.556 253.211 71.556C254.237 71.556 254.921 71.088 254.921 70.206C254.921 69.342 254.237 68.874 253.211 68.874C252.203 68.874 251.537 69.342 251.537 70.206ZM253.535 76.686C253.535 77.442 254.651 77.82 256.685 77.82C258.701 77.82 259.835 77.442 259.835 76.686C259.835 75.912 258.701 75.552 256.685 75.552C254.651 75.552 253.535 75.912 253.535 76.686Z" fill="#111111"/>
<rect x="88" y="193" width="160" height="62" rx="16" fill="#F4E191"/>
<path d="M184 268C180.279 266.341 177.178 257.975 177.488 254H164C167.721 261.881 178.884 266.617 184 268Z" fill="#F4E191"/>
<path d="M136.611 217.806H140.229V216.276H142.461V217.806H146.097V219.57H136.611V217.806ZM137.403 223.08C137.403 221.298 139.023 220.11 141.363 220.11C143.685 220.11 145.305 221.298 145.305 223.08C145.305 224.862 143.685 226.05 141.363 226.05C139.023 226.05 137.403 224.862 137.403 223.08ZM138.537 228.948V227.166H149.265V232.512H147.033V228.948H138.537ZM139.545 223.08C139.545 223.908 140.265 224.376 141.363 224.376C142.425 224.376 143.163 223.908 143.163 223.08C143.163 222.234 142.425 221.802 141.363 221.802C140.265 221.802 139.545 222.234 139.545 223.08ZM147.033 226.482V216.384H149.265V220.56H151.443V222.378H149.265V226.482H147.033ZM154.054 226.032H156.25V227.436H162.856V226.032H165.052V232.332H154.054V226.032ZM152.326 225.204V223.44H166.906V225.204H152.326ZM153.064 220.956C156.628 220.524 158.464 218.742 158.464 217.05V216.546H160.768V217.05C160.768 218.724 162.622 220.524 166.186 220.956L165.376 222.684C162.658 222.342 160.642 221.19 159.616 219.624C158.59 221.19 156.592 222.342 153.856 222.684L153.064 220.956ZM156.25 230.586H162.856V229.128H156.25V230.586ZM169.858 217.032H180.802V222.702H176.446V224.286H182.638V226.032H168.058V224.286H174.214V222.702H169.858V217.032ZM169.678 229.02V227.256H180.874V232.512H178.66V229.02H169.678ZM172.036 220.956H178.606V218.778H172.036V220.956ZM183.808 228.912H187.444V225.798H185.014V224.052H187.156V219.444H184.942V217.662H197.182V219.444H194.968V224.052H197.146V225.798H194.698V228.912H198.406V230.712H183.808V228.912ZM189.406 224.052H192.754V219.444H189.406V224.052ZM189.658 228.912H192.502V225.798H189.658V228.912Z" fill="#111111"/>
<g clip-path="url(#clip0_2974_49369)">
<path d="M358.557 316.539C357.292 315.655 355.582 315.742 354.416 316.752L346.52 323.571L330.078 330.531C330.078 330.531 321.293 338.628 311.319 346.368L326.137 325.547C327.203 324.047 326.88 321.967 325.406 320.862C323.882 319.715 321.714 320.051 320.603 321.6C316.966 326.675 309.813 337.083 308.806 338.814C306.733 342.385 307.663 346.594 308.334 348.647C301.603 353.686 294.686 358.199 289.802 359.712L295.335 397.312C295.335 397.312 336.124 383.673 358.58 322.987L359.655 320.789C360.385 319.294 359.918 317.495 358.553 316.539H358.557Z" fill="#FBCBB5"/>
<path d="M357.169 306.114C356.861 305.747 356.403 305.502 355.849 305.502H337.371C335.87 305.502 334.45 306.209 333.547 307.41L307.753 341.666C307.263 342.318 307.322 343.129 307.731 343.705C307.835 343.854 307.966 343.986 308.112 344.094L309.626 345.63L309.93 344.43H329.139C329.683 344.43 330.191 344.176 330.518 343.741L357.233 308.266L358.893 307.868L357.169 306.114Z" fill="#A2D8EB"/>
<path d="M330.75 347.038H310.748C309.323 347.038 308.512 345.412 309.369 344.274L335.163 310.019C336.066 308.818 337.481 308.111 338.987 308.111H357.465C358.889 308.111 359.701 309.738 358.844 310.875L332.129 346.35C331.802 346.785 331.29 347.038 330.75 347.038Z" fill="#096FB8"/>
<path d="M334.138 319.253L347.305 334.482" stroke="#FBCBB5" stroke-width="8" stroke-linecap="round" stroke-linejoin="round"/>
<path d="M327.801 325.429L340.968 340.658" stroke="#FBCBB5" stroke-width="8" stroke-linecap="round" stroke-linejoin="round"/>
<path d="M321.465 331.61L334.632 346.834" stroke="#FBCBB5" stroke-width="8" stroke-linecap="round" stroke-linejoin="round"/>
<path d="M316.952 339.893L328.296 353.015" stroke="#FBCBB5" stroke-width="8" stroke-linecap="round" stroke-linejoin="round"/>
<path d="M297.517 392.568H180.828V313.707C191.106 296.656 205.556 287.041 227.863 282.36C252.478 277.195 280.385 297.377 288.191 326.557L297.517 392.572V392.568Z" fill="#3CA54E"/>
<path d="M228.044 326.866L225.595 346.572V392.568H258.002C276.938 379.858 280.381 353.373 280.381 353.373L235.197 355.91L228.04 326.866H228.044Z" fill="#2C8D3C"/>
<path d="M272.258 237.561C273.75 235.907 273.669 228.788 273.669 228.788C273.669 228.788 273.088 229.532 263.645 231.439C254.202 233.342 258.343 228.005 258.343 228.005C250.909 229.038 240.277 231.24 236.367 233.061C235.238 233.542 234.19 234.094 233.215 234.706C229.705 236.759 226.344 238.046 226.344 238.046C226.344 238.046 228.344 238.499 228.544 238.594C227.387 239.849 226.394 241.195 225.545 242.586C220.534 250.769 220.153 260.982 224.167 269.7L228.267 278.6C228.267 278.6 274.027 262.822 277.751 256.424C278.15 255.74 278.463 254.915 278.667 253.995C281.855 249.179 277.116 239.985 272.263 237.561H272.258Z" fill="#111111"/>
<path d="M276.834 251.73C277.81 252.568 278.399 253.764 278.463 255.047C278.712 259.827 280.445 273.864 273.088 284.889C267.341 293.498 256.977 292.266 256.977 292.266L253.811 301.169C240.418 302.171 227.523 291.296 224.108 283.588L244.613 253.166C244.613 253.166 266.997 243.266 276.834 251.73Z" fill="#FBCBB5"/>
<path d="M256.978 292.266C256.978 292.266 247.988 291.772 244.613 287.123C246.641 293.077 253.812 301.169 253.812 301.169L256.978 292.266Z" fill="#E49F7F"/>
<path d="M232.489 265.359C232.489 265.359 255.616 260.42 261.753 246.251L236.44 244.729L232.489 265.355V265.359Z" fill="#111111"/>
<path d="M241.987 271.06C237.471 271.06 233.81 267.402 233.81 262.89C233.81 258.378 237.471 254.72 241.987 254.72C246.504 254.72 250.165 258.378 250.165 262.89C250.165 267.402 246.504 271.06 241.987 271.06Z" fill="#FBCBB5"/>
<path d="M264.189 267.054C263.98 268.549 263.123 269.669 262.275 269.551C261.427 269.433 260.91 268.124 261.118 266.628C261.327 265.133 262.184 264.014 263.033 264.132C263.881 264.249 264.398 265.559 264.189 267.054Z" fill="#111111"/>
<path d="M261.319 261.57C261.567 261.496 261.815 261.438 262.064 261.394L261.874 261.423C262.253 261.379 262.633 261.379 262.998 261.423L262.809 261.394C263.013 261.423 263.217 261.467 263.422 261.526C263.787 261.628 264.24 261.394 264.328 261.013C264.415 260.632 264.211 260.222 263.816 260.105C262.882 259.826 261.859 259.841 260.924 260.149C260.559 260.266 260.282 260.661 260.413 261.057C260.53 261.423 260.924 261.702 261.319 261.57Z" fill="#111111"/>
<path d="M278.409 263.57C278.161 263.496 277.912 263.438 277.664 263.394L277.854 263.423C277.474 263.379 277.094 263.379 276.729 263.423L276.919 263.394C276.715 263.423 276.51 263.467 276.306 263.526C275.94 263.628 275.488 263.394 275.4 263.013C275.312 262.632 275.517 262.222 275.911 262.105C276.846 261.826 277.868 261.841 278.803 262.149C279.168 262.266 279.446 262.661 279.314 263.057C279.198 263.423 278.803 263.702 278.409 263.57Z" fill="#111111"/>
<path d="M277.587 268.926C277.378 270.421 276.68 271.563 276.027 271.472C275.374 271.381 275.015 270.095 275.224 268.599C275.433 267.104 276.131 265.962 276.784 266.053C277.437 266.143 277.796 267.43 277.587 268.926Z" fill="#111111"/>
<path d="M273.129 272.174C273.859 273.076 274.018 274.313 273.528 275.242C273.038 276.171 271.918 276.742 270.752 276.665" stroke="#E49F7F" stroke-width="1.6" stroke-linecap="round" stroke-linejoin="round"/>
<path d="M262 278C262 278 264.376 283.093 272 281.785" stroke="#E49F7F" stroke-width="1.6" stroke-linecap="round" stroke-linejoin="round"/>
<path d="M180.829 313.707C180.829 313.707 166.841 340.196 176.266 369.681C187.863 405.962 218.452 405.962 239.474 393.46C260.497 380.959 284.459 348.031 284.459 348.031L277.896 318.759C277.896 318.759 261.105 320.893 248.75 330.649C236.39 340.405 225.6 346.567 225.6 346.567L226.992 334.061L180.833 313.703L180.829 313.707Z" fill="#FBCBB5"/>
<path d="M256.224 325.828C256.224 325.828 269.201 316.956 284.454 318.129C295.031 318.94 304.96 323.458 310.058 326.15C310.08 326.159 310.099 326.172 310.121 326.181C313.636 328.107 311.713 333.517 307.749 332.915C307.54 332.883 307.323 332.842 307.091 332.797L298.115 331.274C300.442 331.669 301.032 335.103 298.392 336.363C299.735 336.481 301.88 340.337 298.183 342.027C300.07 343.993 299.707 345.706 297.326 347.034C296.319 353.93 280.381 353.368 280.381 353.368L269.378 350.097L256.22 325.823L256.224 325.828Z" fill="#FBCBB5"/>
<path d="M226.988 334.061L180.828 313.703C180.828 313.703 168.614 336.834 174.705 363.926L225.6 346.572L226.992 334.066L226.988 334.061Z" fill="#3CA54E"/>
</g>
<defs>
<filter id="filter0_d_2974_49369" x="470" y="116" width="155" height="216.82" filterUnits="userSpaceOnUse" color-interpolation-filters="sRGB">
<feFlood flood-opacity="0" result="BackgroundImageFix"/>
<feColorMatrix in="SourceAlpha" type="matrix" values="0 0 0 0 0 0 0 0 0 0 0 0 0 0 0 0 0 0 127 0" result="hardAlpha"/>
<feOffset dx="8" dy="8"/>
<feGaussianBlur stdDeviation="6"/>
<feComposite in2="hardAlpha" operator="out"/>
<feColorMatrix type="matrix" values="0 0 0 0 0.0666667 0 0 0 0 0.0666667 0 0 0 0 0.0666667 0 0 0 0.04 0"/>
<feBlend mode="normal" in2="BackgroundImageFix" result="effect1_dropShadow_2974_49369"/>
<feBlend mode="normal" in="SourceGraphic" in2="effect1_dropShadow_2974_49369" result="shape"/>
</filter>
<linearGradient id="paint0_linear_2974_49369" x1="518.134" y1="133.628" x2="234.51" y2="137.423" gradientUnits="userSpaceOnUse">
<stop stop-color="#E0EDFE"/>
<stop offset="1" stop-color="white" stop-opacity="0"/>
</linearGradient>
<clipPath id="clip0_2974_49369">
<rect width="187" height="162" fill="white" transform="matrix(-1 0 0 1 360 228)"/>
</clipPath>
</defs>
</svg>
