<svg width="128" height="144" viewBox="0 0 128 144" fill="none" xmlns="http://www.w3.org/2000/svg">
<g clip-path="url(#clip0_1940_67274)">
<path d="M101.929 12.3916C101.929 12.3916 38.6069 19.6465 15.3797 23.8433C15.3797 23.8433 13.5626 34.0108 18.4081 37.4397C35.8944 34.2623 72.3944 28.1724 102.666 26.7691C101.349 20.5997 101.942 12.3916 101.942 12.3916H101.929Z" fill="#FF8401"/>
<path d="M7.86082 24.9025C7.86082 24.9025 0.658264 26.7162 0.684599 31.9589C0.684599 31.9589 -0.158113 40.0214 7.86082 38.8431C7.86082 38.8431 60.9912 28.1328 102.442 26.2264C102.442 26.2264 113.331 20.6925 116.518 18.4154C116.926 18.1242 116.86 17.5019 116.399 17.3034C113.358 15.9397 103.785 11.7298 101.705 11.8489C101.705 11.8489 18.5132 21.3942 7.86082 24.9158V24.9025Z" stroke="#222222" stroke-miterlimit="10"/>
<path d="M101.718 11.8489C101.718 11.8489 101.139 20.0703 102.442 26.2264" stroke="#222222" stroke-miterlimit="10"/>
<path d="M15.1687 23.3005C15.1687 23.3005 13.3516 33.468 18.1972 36.8969" stroke="#222222" stroke-miterlimit="10"/>
<path d="M15.0635 30.7938C15.0635 30.7938 73.7241 19.3289 101.586 19.0376" stroke="#222222" stroke-miterlimit="10"/>
<path d="M113.477 16.0059C113.477 16.0059 112.792 18.6007 114.148 19.9113L116.795 17.6475L113.477 16.0059Z" fill="#222222"/>
<path d="M50.7078 76.6005C50.7078 76.6005 59.4641 72.3111 60.8861 64.8179C60.8861 64.8179 64.9417 73.9527 74.4617 73.7277L75.3439 75.2634L76.8187 74.2175C76.8187 74.2175 78.6753 65.4136 73.4215 61.4552L73.9087 60.3034C73.9087 60.3034 82.2304 61.9583 81.6774 52.9293C81.6774 52.9293 80.2553 46.76 72.1574 46.76C72.1574 46.76 63.7303 45.6611 67.009 56.0007L66.2058 56.9937C66.2058 56.9937 62.4531 55.9345 60.6623 57.3246C60.6623 57.3246 48.0743 57.0334 49.6807 74.6412" fill="#222222"/>
<path d="M52.7618 76.6005C52.7618 76.6005 48.3771 73.5953 46.9287 76.9712C46.9287 76.9712 44.1504 82.7699 51.3792 82.7699C51.3792 82.7699 53.9337 90.1043 52.7618 97.293L50.1415 99.6363C50.1415 99.6363 37.2902 108.003 32.9186 95.2277C32.9186 95.2277 24.452 71.9007 36.1314 36.3806C36.1314 36.3806 37.6588 32.5678 39.6339 31.9721C39.6339 31.9721 43.3603 29.5493 39.713 27.9342C39.713 27.9342 34.8937 27.0472 29.3502 36.3012L20.4491 36.6719C20.4491 36.6719 -5.04294 116.662 37.5798 139.115C37.5798 139.115 84.2845 157.61 107.196 117.098C107.196 117.098 124.708 85.6957 101.363 26.2661C101.363 26.2661 97.1359 25.0878 94.3575 26.9942C94.3575 26.9942 93.844 28.0268 91.9479 25.6041C91.9479 25.6041 84.2845 17.0253 83.1916 22.2282C83.1916 22.2282 82.3094 22.9563 84.4293 24.9422C84.4293 24.9422 88.5112 26.9942 90.2625 34.0373C90.2625 34.0373 101.942 92.4476 88.0767 98.3124C88.0767 98.3124 81.7959 96.9885 79.4652 97.2798C79.4652 97.2798 74.0666 92.6991 76.1076 81.9226C76.1076 81.9226 80.4923 83.2994 80.703 77.2492C80.9137 71.199 75.12 74.0587 74.3563 75.1575" fill="white"/>
<path d="M52.7618 76.6005C52.7618 76.6005 48.3771 73.5953 46.9287 76.9712C46.9287 76.9712 44.1504 82.7699 51.3792 82.7699C51.3792 82.7699 53.9337 90.1043 52.7618 97.293L50.1415 99.6363C50.1415 99.6363 37.2902 108.003 32.9186 95.2277C32.9186 95.2277 24.452 71.9007 36.1314 36.3806C36.1314 36.3806 37.6588 32.5678 39.6339 31.9721C39.6339 31.9721 43.3603 29.5493 39.713 27.9342C39.713 27.9342 34.8937 27.0472 29.3502 36.3012L20.4491 36.6719C20.4491 36.6719 -5.04294 116.662 37.5798 139.115C37.5798 139.115 84.2845 157.61 107.196 117.098C107.196 117.098 124.708 85.6957 101.363 26.2661C101.363 26.2661 97.1359 25.0878 94.3575 26.9942C94.3575 26.9942 93.844 28.0268 91.9479 25.6041C91.9479 25.6041 84.2845 17.0253 83.1916 22.2282C83.1916 22.2282 82.3094 22.9563 84.4293 24.9422C84.4293 24.9422 88.5112 26.9942 90.2625 34.0373C90.2625 34.0373 101.942 92.4476 88.0767 98.3124C88.0767 98.3124 81.7959 96.9885 79.4652 97.2798C79.4652 97.2798 74.0666 92.6991 76.1076 81.9226C76.1076 81.9226 80.4923 83.2994 80.703 77.2492C80.9137 71.199 75.12 74.0587 74.3563 75.1575" stroke="#222222" stroke-miterlimit="10"/>
<path d="M92.2773 45.8995C92.2773 45.8995 103.996 45.6082 107.222 43.3444" stroke="#222222" stroke-miterlimit="10"/>
<path d="M16.6562 51.7113C16.6562 51.7113 26.7556 52.7837 32.0884 51.7113" stroke="#222222" stroke-miterlimit="10"/>
<path d="M50.1416 99.6496L64.731 107.13L79.4653 97.293" stroke="#222222" stroke-miterlimit="10"/>
<path d="M64.7305 107.13C64.7305 107.13 69.9843 115.351 75.6726 110.505C75.6726 110.505 86.6146 103.899 88.0762 98.3256" stroke="#222222" stroke-miterlimit="10"/>
<path d="M42.1094 102.324C42.1094 102.324 52.3273 110.625 56.2643 112.041C60.2013 113.458 63.6775 108.811 64.5071 107.262" stroke="#222222" stroke-miterlimit="10"/>
<path d="M57.6465 54.4121C59.5821 54.5974 60.675 57.3511 60.675 57.3511C60.675 57.3511 61.228 54.7431 61.8732 53.9752" stroke="#222222" stroke-miterlimit="10"/>
<path d="M64.6254 76.7991C64.6254 76.7991 64.3226 75.1972 65.9685 74.8794C65.9685 74.8794 67.8119 74.6544 67.9568 76.3887" stroke="#222222" stroke-miterlimit="10" stroke-linecap="round"/>
<path d="M55.8823 77.3948C55.8823 77.3948 55.7506 75.7664 57.4229 75.6341C57.4229 75.6341 59.2795 75.6076 59.24 77.3551" stroke="#222222" stroke-miterlimit="10" stroke-linecap="round"/>
<path d="M59.3193 83.4318C59.3193 83.4318 60.0962 85.7486 63.1642 85.5765C63.1642 85.5765 66.3244 85.5235 66.9037 82.8757" stroke="#222222" stroke-miterlimit="10" stroke-linecap="round"/>
<path d="M95.7534 12.6564C95.7534 12.6564 90.4996 5.00429 81.717 8.69795C81.717 8.69795 75.1201 11.915 75.7258 16.4163C75.7258 16.4163 75.9497 18.7198 78.8992 17.2238L79.7814 16.072C79.7814 16.072 79.4522 18.0579 82.2963 17.7269C82.2963 17.7269 84.1003 17.3959 84.4821 16.072C84.4821 16.072 84.0476 17.8063 85.9042 17.7666C85.9042 17.7666 87.4316 18.2962 87.932 16.4163C87.932 16.4163 89.9597 12.1533 92.5801 12.7623L95.7534 12.6564Z" fill="white" stroke="#222222" stroke-linejoin="round"/>
<path d="M84.4814 16.0721C84.4814 16.0721 85.4163 13.6493 87.0491 12.4976" stroke="#222222" stroke-linecap="round" stroke-linejoin="round"/>
<path d="M79.7812 16.072C79.7812 16.072 79.7812 13.3183 83.5603 11.2795" stroke="#222222" stroke-linecap="round" stroke-linejoin="round"/>
<path d="M25.7944 21.7251C25.7944 21.7251 28.8887 15.1189 36.1571 16.8399C36.1571 16.8399 41.6743 18.4816 41.7796 22.0428C41.7796 22.0428 41.8981 23.8566 39.4226 23.0755L38.5931 22.2944C38.5931 22.2944 39.1066 23.7904 36.855 23.8963C36.855 23.8963 35.4198 23.8698 34.9457 22.8901C34.9457 22.8901 35.5119 24.1743 34.0635 24.3861C34.0635 24.3861 32.9443 24.9951 32.3254 23.605C32.3254 23.605 30.2187 20.5601 28.2567 21.3809L25.7812 21.7119L25.7944 21.7251Z" fill="white" stroke="#222222" stroke-linejoin="round"/>
<path d="M34.9589 22.9166C34.9589 22.9166 33.9318 21.1558 32.5098 20.4806" stroke="#222222" stroke-linecap="round" stroke-linejoin="round"/>
<path d="M38.6065 22.3076C38.6065 22.3076 38.251 20.1762 35.0645 19.0906" stroke="#222222" stroke-linecap="round" stroke-linejoin="round"/>
<path d="M109.276 8.5126C109.421 8.07572 109.527 3.37589 110.843 1.76074L109.276 8.5126Z" fill="white"/>
<path d="M109.276 8.5126C109.421 8.07572 109.527 3.37589 110.843 1.76074" stroke="#222222" stroke-miterlimit="10" stroke-linecap="round"/>
<path d="M113.885 9.78362C114.03 9.34674 117.163 2.27714 118.48 0.661987L113.885 9.78362Z" fill="white"/>
<path d="M113.885 9.78362C114.03 9.34674 117.163 2.27714 118.48 0.661987" stroke="#222222" stroke-miterlimit="10" stroke-linecap="round"/>
<path d="M119.375 11.0678C119.52 10.6309 126.025 4.03788 127.341 2.42273L119.375 11.0678Z" fill="white"/>
<path d="M119.375 11.0678C119.52 10.6309 126.025 4.03788 127.341 2.42273" stroke="#222222" stroke-miterlimit="10" stroke-linecap="round"/>
</g>
<defs>
<clipPath id="clip0_1940_67274">
<rect width="128" height="144" fill="white"/>
</clipPath>
</defs>
</svg>
