<svg width="282" height="260" viewBox="0 0 282 260" fill="none" xmlns="http://www.w3.org/2000/svg">
<path d="M178.552 41.3281C178.552 41.3281 185.595 64.3145 190.604 71.3004C195.613 78.2863 205.526 91.8005 205.586 106.199C205.647 118.509 200.532 121.559 200.532 121.559L157.452 119.378L171.189 43.311L178.552 41.3281Z" fill="#111111"/>
<path d="M226.549 129.083C169.611 101.155 121.021 102.329 58.5873 128.549L73.844 215.099V260H217.472L226.549 129.083Z" fill="#FFE248"/>
<path d="M138.504 141.003C137.958 140.927 137.411 140.835 136.849 140.729C124.266 138.242 116.205 125.704 118.3 112.983C120.395 100.262 120.683 86.5649 119.423 72.4863H162.973C162.351 86.2141 163.08 99.8808 164.992 113.487C167.178 129.075 154.018 143.047 138.489 140.988L138.504 141.003Z" fill="#FBCBB5"/>
<mask id="mask0_2504_57216" style="mask-type:luminance" maskUnits="userSpaceOnUse" x="117" y="72" width="49" height="70">
<path d="M138.504 141.009C137.957 140.933 137.411 140.841 136.849 140.734C124.265 138.248 116.205 125.71 118.3 112.989C120.394 100.268 120.683 86.5708 119.423 72.4922H162.973C162.351 86.2199 163.079 99.8867 164.992 113.492C167.178 129.081 154.017 143.053 138.488 140.994L138.504 141.009Z" fill="white"/>
</mask>
<g mask="url(#mask0_2504_57216)">
<path d="M116.448 114.893C116.448 114.893 145.744 118.035 156.977 101.18L114.823 96.9551L116.448 114.893Z" fill="#E49F7F"/>
</g>
<path d="M114.129 2.96844C87.0187 12.1813 80.2075 40.796 85.2927 61.6012C90.3778 82.4216 98.9802 83.6724 98.9802 83.6724L123.541 35.793L179.022 49.3682C180.464 26.6412 154.72 -10.8203 114.129 2.96844Z" fill="#111111"/>
<path d="M183.575 53.1059C181.845 47.1724 175.682 43.7405 169.716 45.3268C165.299 34.1463 155.539 20.5253 142.94 18.3442C133.741 16.7426 123.571 26.1232 123.571 26.1232C97.3859 31.3092 97.1885 51.6721 102.425 69.6402L104.505 76.7939C110.061 95.8602 131.236 110.579 150.211 105.012C165.679 100.467 174.893 83.8408 174.771 67.52C175.105 67.459 175.424 67.3827 175.743 67.2912C181.815 65.5066 185.306 59.1613 183.56 53.1211L183.575 53.1059Z" fill="#FBCBB5"/>
<path d="M122.706 71.8791C124.684 71.8791 126.288 70.2675 126.288 68.2794C126.288 66.2913 124.684 64.6797 122.706 64.6797C120.727 64.6797 119.124 66.2913 119.124 68.2794C119.124 70.2675 120.727 71.8791 122.706 71.8791Z" fill="#111111"/>
<path d="M148.681 62.1565C150.66 62.1565 152.263 60.5448 152.263 58.5568C152.263 56.5687 150.66 54.957 148.681 54.957C146.703 54.957 145.099 56.5687 145.099 58.5568C145.099 60.5448 146.703 62.1565 148.681 62.1565Z" fill="#111111"/>
<path d="M152.224 79.0985C153.694 83.0197 150.965 87.683 146.123 89.5118C141.282 91.3405 136.16 89.6416 134.69 85.7205C134.617 85.517 134.548 85.3254 134.497 85.1134C137.318 84.4802 140.347 83.5814 143.459 82.3954C146.563 81.2257 149.436 79.8959 151.968 78.5009C152.065 78.6958 152.146 78.8831 152.22 79.0866L152.224 79.0985Z" fill="#E49F7F"/>
<path d="M136.691 64.7344C136.691 64.7344 134.657 71.461 135.841 72.666C137.025 73.871 141.093 74.5726 141.503 74.2828" stroke="#E49F7F" stroke-width="1.6" stroke-linecap="round" stroke-linejoin="round"/>
<path d="M123.04 58.5625C123.04 58.5625 117.788 58.5168 114.919 62.0555" stroke="#111111" stroke-width="1.6" stroke-linecap="round" stroke-linejoin="round"/>
<path d="M142.587 51.348C142.587 51.348 146.822 48.2364 151.209 49.4414" stroke="#111111" stroke-width="1.6" stroke-linecap="round" stroke-linejoin="round"/>
<path d="M108.471 87.054C114.546 85.2689 118.046 78.9256 116.288 72.8858C114.531 66.846 108.181 63.3968 102.106 65.1819C96.0307 66.967 92.5307 73.3103 94.2884 79.3501C96.046 85.3899 102.396 88.8391 108.471 87.054Z" fill="#FBCBB5"/>
<path d="M100.088 71.3027C98.722 72.9653 98.3274 75.36 99.1015 77.3735C99.8757 79.3869 101.758 80.9122 103.868 81.2325" stroke="#111111" stroke-width="0.99" stroke-linecap="round" stroke-linejoin="round"/>
<path d="M138.796 24.2929C139.616 31.0195 115.647 53.228 110.41 58.292C105.173 63.356 107.344 82.4833 110.699 89.1947C110.699 89.1947 92.6046 66.1626 95.3369 43.3135C98.0692 20.4797 134.303 9.46696 142.545 13.8293C142.545 13.8293 145.566 36.7547 135.957 41.7882C135.957 41.7882 141.179 33.3075 138.781 24.2929H138.796Z" fill="#111111"/>
<path d="M85.2926 61.5998C85.2926 61.5998 87.6371 86.4922 85.0262 97.7947C82.4153 109.097 76.0855 127.157 88.8363 141.19C101.602 155.222 121.355 152.431 121.355 152.431C121.355 152.431 115.298 149.945 115.496 146.666C115.496 146.666 121.901 146.772 127.138 145.796C127.138 145.796 121.689 142.181 121.689 140.869C121.689 140.869 128.778 142.181 132.588 139.878C132.588 139.878 116.452 127.386 120.596 112.804L122.235 100.083C116.376 97.2151 99.5722 79.3843 108.999 60.3027L89.1742 61.7975L85.2926 61.5998Z" fill="#111111"/>
<path d="M15.7505 190.412L4.54798 206.977C-0.491632 214.436 -1.6125 226.503 2.55057 232.19C11.6279 244.591 21.7312 248.862 31.2033 249.426C44.6827 250.235 57.4488 243.386 65.0537 232.19C71.9149 222.093 79.4591 209.707 79.4591 209.707L63.1107 123.299L15.7657 190.428L15.7505 190.412Z" fill="#FFE248"/>
<path d="M101.227 105.349C101.227 105.349 81.3565 103.488 79.2314 103.9C77.1063 104.311 74.4954 106.508 74.4954 106.508C74.4954 106.508 76.4384 93.8174 71.6416 88.3263C66.8601 82.8352 61.0615 85.84 61.0615 85.84C61.0615 85.84 60.5757 98.4238 58.8604 109.955C57.3728 119.992 43.9541 148.53 43.9541 148.53C54.3066 182.605 69.1218 185.29 69.1218 185.29L77.425 163.28C86.1077 161.571 95.7619 154.433 96.6879 150.894L97.4924 150.986C98.2818 151.169 99.147 151.26 100.043 151.291L106.13 152.008C109.332 152.389 112.232 150.086 112.596 146.867C112.869 144.473 111.685 142.261 109.742 141.117C111.078 140.049 112.019 138.463 112.232 136.617C112.626 133.216 110.441 130.12 107.223 129.296C108.771 128.228 109.864 126.535 110.107 124.507C110.516 121.029 108.209 117.856 104.87 117.124C106.084 116.056 106.919 114.562 107.116 112.838C107.541 109.131 104.915 105.776 101.227 105.349Z" fill="#FBCBB5"/>
<path d="M76.7876 163.446L43.9087 148.559L15.5603 190.559C15.5603 190.559 60.4392 216.175 60.6366 214.955L76.7876 163.446Z" fill="#FBCBB5"/>
<path d="M106.039 117.152L87.6257 117.717" stroke="#E49F7F" stroke-width="1.6" stroke-miterlimit="10" stroke-linecap="round"/>
<path d="M108.801 129.189L90.3733 129.739" stroke="#E49F7F" stroke-width="1.6" stroke-miterlimit="10" stroke-linecap="round"/>
<path d="M110.911 141.146L94.1833 140.963" stroke="#E49F7F" stroke-width="1.6" stroke-miterlimit="10" stroke-linecap="round"/>
<path d="M226.549 129.08C261.158 160.944 282 259.997 282 259.997H217.897L207.043 233.167L226.549 129.08Z" fill="#FFE248"/>
</svg>
