<svg width="1202" height="384" viewBox="0 0 1202 384" fill="none" xmlns="http://www.w3.org/2000/svg">
    <g clip-path="url(#96kff29uqa)" stroke="#000" stroke-width=".7" stroke-linecap="round" stroke-linejoin="round">
        <path d="m354.402 143.465-17.382 8.478 11.025 22.605 17.382-8.478-11.025-22.605zM997.763 67.449 983.211 54.71l-16.565 18.924 14.552 12.739 16.565-18.924z" fill="#7D79E6"/>
        <path d="M338.95 1.054 320.49 6.82l7.5 24.006 18.46-5.768-7.5-24.005z" fill="#fff"/>
        <path d="m897.7 167.3-20.7-20 16.67-4.3 20.7 20-16.67 4.3zM215.48 155.84s-34.49-19.81-45.13-52.34c5.91-5.91 14.78-13.6 22.47-17.74 8.87 40.21 39.33 65.78 39.33 65.78l-16.67 4.3z" fill="#FFA2A1"/>
        <path d="M1195.8 235.967s11.62-32.719.22-60.254c-7.27-.537-17.51-.564-24.95 1.082 16.93 31.598 11.24 65.825 11.24 65.825l13.49-6.653z" fill="#FFCB81"/>
        <path d="m1016.48 112.003 2.35-23.256 11.12 8.462-2.35 23.256-11.12-8.462zM25.74 277.73 1 263.01 16.23 255l24.74 14.72-15.23 8.01z" fill="#fff"/>
    </g>
    <defs>
        <clipPath id="96kff29uqa">
            <path fill="#fff" d="M0 0h1202v384H0z"/>
        </clipPath>
    </defs>
</svg>
