<svg width="384" height="364" viewBox="0 0 384 364" fill="none" xmlns="http://www.w3.org/2000/svg">
<g clip-path="url(#clip0_2543_69044)">
<path d="M358.992 184.814C358.113 164.151 344.783 146.107 325.322 139.227L320.499 137.513L289.466 132.133L204.947 135.537C197.343 142.369 191.807 150.796 187.886 160.533L101.395 241.353L135.35 297.486L182.278 257.993C183.704 272.204 185.534 287.035 187.435 302.271L320.475 302.057V300.985C343.001 299.557 362.984 280.655 361.962 254.993L358.945 184.791L358.992 184.814Z" fill="#FFE248"/>
<path d="M319.93 107.023C326.603 104.454 328.295 95.6898 323.076 90.7675L322.981 90.6714C309.755 78.2817 306.919 71.1024 306.038 45.8668C305.156 20.6312 283.304 -2.22739 254.351 0.173721C220.894 4.92791 212.339 25.5054 210.576 41.0406C208.836 49.7326 204.642 65.6039 196.349 70.9584C192.441 73.4795 189.487 77.5854 187.389 82.2195C181.79 94.5612 189.034 108.992 202.069 112.329C205.5 113.218 208.383 113.914 209.48 114.082C240.768 119.197 282.828 121.286 319.954 107.047L319.93 107.023Z" fill="#111111"/>
<path d="M212.65 47.3189C209.216 66.2515 207.852 98.0991 234.427 107.328C234.051 108.588 230.406 131.731 219 135.179C213.332 146.739 257.733 165.41 285.907 133.8C285.907 133.8 275.654 117.912 281.157 88.4426C281.157 88.4426 296.467 85.1603 296.373 74.5999C296.255 60.8761 287.53 60.9951 287.53 60.9951L287.859 44.0604C281.933 39.8505 266.952 24.0813 243.435 25.4846C239.037 25.7462 234.992 26.4122 231.347 27.2922C221.775 29.5993 214.437 37.5196 212.674 47.3189H212.65Z" fill="#FBCBB5"/>
<path d="M249.34 60.6576C249.948 58.5794 252.153 57.3882 254.231 58.0218C256.309 58.6554 257.5 60.835 256.867 62.9132C256.258 64.9914 254.053 66.1825 251.975 65.549C249.897 64.9407 248.706 62.7358 249.34 60.6576Z" fill="#111111"/>
<path d="M216.866 57.3557C217.398 55.5372 219.327 54.495 221.145 55.0494C222.964 55.6038 224.006 57.5109 223.451 59.3293C222.897 61.1477 220.99 62.19 219.172 61.6356C217.353 61.1034 216.311 59.1741 216.866 57.3557Z" fill="#111111"/>
<path d="M234.23 107.787C234.23 107.787 253.017 111.896 264.251 102.086C264.37 113.678 239.645 122.965 227.366 123.345L234.206 107.787H234.23Z" fill="#E49F7F"/>
<path d="M233.435 61.7891C233.435 61.7891 227.954 66.4626 228.565 67.9837C229.177 69.5048 232.823 71.7092 233.337 71.6211" stroke="#E49F7F" stroke-width="1.6" stroke-linecap="round" stroke-linejoin="round"/>
<path d="M224.744 77.6745C224.697 81.5977 228.589 84.8292 233.439 84.8888C238.29 84.9484 242.263 81.8123 242.31 77.8892C242.31 77.6865 242.31 77.4957 242.287 77.293C239.599 77.6388 236.642 77.8176 233.521 77.7699C230.412 77.7342 227.456 77.4838 224.779 77.0664C224.756 77.2691 224.744 77.4599 224.744 77.6626V77.6745Z" fill="#E49F7F"/>
<path d="M215.733 48.72C215.733 48.72 219.51 46.9659 222.617 49.0016" stroke="#111111" stroke-width="1.6" stroke-linecap="round" stroke-linejoin="round"/>
<path d="M248.186 49.4828C248.186 49.4828 253.3 47.7114 257.037 50.9685" stroke="#111111" stroke-width="1.6" stroke-linecap="round" stroke-linejoin="round"/>
<path d="M249.185 19.498C248.286 37.6967 287.652 60.8736 287.652 60.8736L293.423 35.5978L249.208 19.5219L249.185 19.498Z" fill="#111111"/>
<path d="M236.514 15.5625C230.346 19.4027 233.585 38.9079 244.968 41.1324C244.968 41.1324 238.8 24.1795 251.136 23.5472L236.514 15.5625Z" fill="#111111"/>
<path d="M296.373 136.312L288.909 113.255C288.577 112.076 287.06 111.557 285.994 112.265L245.852 135.251C244.24 136.17 243.269 137.797 243.269 139.541L245.283 165.05L296.373 136.312Z" fill="#FFE248"/>
<path d="M170.496 306.668H73.6552L32.8176 185.703H129.682L170.496 306.668Z" fill="white"/>
<path d="M164.596 306.668H67.7311L26.9172 185.703H123.782L164.596 306.668Z" fill="#0C82E9"/>
<path d="M43.6057 193.817C42.8637 194.909 41.9627 195.536 40.9823 195.536C38.5443 195.536 36.5569 191.564 36.5569 186.685C36.5569 181.807 38.5443 177.834 40.9823 177.834C43.4202 177.834 45.4076 181.807 45.4076 186.685" stroke="#111111" stroke-width="1.6" stroke-miterlimit="10"/>
<path d="M58.8542 193.817C58.2771 194.909 57.5764 195.536 56.8138 195.536C54.9176 195.536 53.3718 191.564 53.3718 186.685C53.3718 181.807 54.9176 177.834 56.8138 177.834C58.71 177.834 60.2557 181.807 60.2557 186.685" stroke="#111111" stroke-width="1.6" stroke-miterlimit="10"/>
<path d="M75.4697 193.817C74.8102 194.909 74.0093 195.536 73.1378 195.536C70.9707 195.536 69.2041 191.564 69.2041 186.685C69.2041 181.807 70.9707 177.834 73.1378 177.834C75.3048 177.834 77.0714 181.807 77.0714 186.685" stroke="#111111" stroke-width="1.6" stroke-miterlimit="10"/>
<path d="M92.2851 193.817C91.6256 194.909 90.8247 195.536 89.9532 195.536C87.7861 195.536 86.0195 191.564 86.0195 186.685C86.0195 181.807 87.7861 177.834 89.9532 177.834C92.1203 177.834 93.8869 181.807 93.8869 186.685" stroke="#111111" stroke-width="1.6" stroke-miterlimit="10"/>
<path d="M108.117 193.817C107.457 194.909 106.656 195.536 105.785 195.536C103.618 195.536 101.851 191.564 101.851 186.685C101.851 181.807 103.618 177.834 105.785 177.834C107.952 177.834 109.718 181.807 109.718 186.685" stroke="#111111" stroke-width="1.6" stroke-miterlimit="10"/>
<path d="M25.6882 222.311C33.1324 219.935 41.1244 224.042 43.5074 231.509L48.6055 247.485L31.4091 252.974L23.177 227.177C22.5271 225.14 23.6518 222.961 25.6882 222.311Z" fill="#FBCBB5"/>
<path d="M58.2354 243.727H32.9686C27.997 243.727 23.9668 247.684 23.9668 252.566V252.589C23.9668 257.471 27.997 261.429 32.9686 261.429H58.2354C63.2069 261.429 67.2371 257.471 67.2371 252.589V252.566C67.2371 247.684 63.2069 243.727 58.2354 243.727Z" fill="#FBCBB5"/>
<path d="M64.136 259.461H38.8692C33.8977 259.461 29.8674 263.638 29.8674 268.791V268.816C29.8674 273.969 33.8977 278.147 38.8692 278.147H64.136C69.1076 278.147 73.1378 273.969 73.1378 268.816V268.791C73.1378 263.638 69.1076 259.461 64.136 259.461Z" fill="#FBCBB5"/>
<path d="M71.2244 275.199H46.5318C41.6732 275.199 37.7346 279.157 37.7346 284.039V284.062C37.7346 288.944 41.6732 292.901 46.5318 292.901H71.2244C76.0829 292.901 80.0215 288.944 80.0215 284.062V284.039C80.0215 279.157 76.0829 275.199 71.2244 275.199Z" fill="#FBCBB5"/>
<path d="M76.1411 288.965H51.4485C46.59 288.965 42.6514 292.922 42.6514 297.804V297.828C42.6514 302.71 46.59 306.667 51.4485 306.667H76.1411C80.9997 306.667 84.9383 302.71 84.9383 297.828V297.804C84.9383 292.922 80.9997 288.965 76.1411 288.965Z" fill="#FBCBB5"/>
<path d="M34.8503 260.447L62.386 259.463" stroke="#E49F7F" stroke-width="1.6" stroke-miterlimit="10" stroke-linecap="round"/>
<path d="M42.7178 276.213L69.27 275.229" stroke="#E49F7F" stroke-width="1.6" stroke-miterlimit="10" stroke-linecap="round"/>
<path d="M50.5188 289.98H77.0711" stroke="#E49F7F" stroke-width="1.6" stroke-miterlimit="10" stroke-linecap="round"/>
<path d="M275.722 287.982L223.601 218.156" stroke="#F9CB32" stroke-width="1.6" stroke-linecap="round" stroke-linejoin="round"/>
<path d="M264.904 173.9L327.842 241.759" stroke="#F9CB32" stroke-width="1.6" stroke-linecap="round" stroke-linejoin="round"/>
<path d="M305.224 216.192L304.241 191.605" stroke="#F9CB32" stroke-width="1.6" stroke-linecap="round" stroke-linejoin="round"/>
<path d="M182.297 258.478L179.346 218.156" stroke="#F9CB32" stroke-width="1.6" stroke-linecap="round" stroke-linejoin="round"/>
<path d="M193.471 209.38L178.495 224.786L182.057 203.76L229.036 106.771L240.451 112.415L193.471 209.38Z" fill="#2DA860"/>
<path d="M178.495 224.788L193.471 209.381L182.057 203.762L178.495 224.788Z" fill="white"/>
<mask id="mask0_2543_69044" style="mask-type:alpha" maskUnits="userSpaceOnUse" x="178" y="203" width="16" height="22">
<path d="M178.495 224.788L193.471 209.381L182.057 203.762L178.495 224.788Z" fill="white"/>
</mask>
<g mask="url(#mask0_2543_69044)">
<path d="M178.495 224.788L184.528 220.197L178.825 217.344L178.495 224.788Z" fill="#111111"/>
</g>
<path d="M242.267 109.093L230.766 103.471L229.16 106.757L240.661 112.379L242.267 109.093Z" fill="white"/>
<path d="M242.112 94.8236C245.27 96.3675 246.579 100.18 245.035 103.338L242.24 109.058L230.781 103.456L233.576 97.7367C235.12 94.5784 238.932 93.2693 242.09 94.8132L242.112 94.8236Z" fill="#111111"/>
<path d="M264.904 174.037L227.399 213.239C199.229 208.783 182.565 188.016 178.602 182.547L172.109 176.159C168.647 172.717 168.647 167.154 172.109 163.712C174.902 160.954 179.056 160.459 182.398 162.109L182.112 161.826C178.65 158.408 178.65 152.821 182.112 149.403C184.332 147.211 187.412 146.433 190.276 147.022C187.889 143.604 188.223 138.866 191.303 135.825C194.788 132.384 200.423 132.384 203.908 135.825L204.935 136.839C203.001 133.492 203.454 129.178 206.343 126.325C209.829 122.884 215.463 122.884 218.948 126.325L231.243 138.442C231.625 138.843 231.959 139.267 232.269 139.691L264.904 174.037Z" fill="#FBCBB5"/>
<path d="M182.297 162.1L192.131 171.934" stroke="#E49F7F" stroke-width="1.6" stroke-linecap="round" stroke-linejoin="round"/>
<path d="M190.23 146.479L199.081 156.313" stroke="#E49F7F" stroke-width="1.6" stroke-linecap="round" stroke-linejoin="round"/>
<path d="M204.487 136.967L213.338 146.801" stroke="#E49F7F" stroke-width="1.6" stroke-linecap="round" stroke-linejoin="round"/>
<path d="M322.925 308.636H187.214V301.752H320.709C320.709 301.752 321.567 304.221 322.925 308.636Z" fill="#A54952"/>
<path d="M340.627 409.835C340.627 430.327 336.517 512.009 332.74 542.699H178.363L187.344 302.395V301.752H320.409C320.409 301.752 321.265 304.111 322.619 308.328C327.869 324.603 340.627 368.375 340.627 409.835Z" fill="#F85851"/>
</g>
<defs>
<clipPath id="clip0_2543_69044">
<rect width="384" height="364" fill="white"/>
</clipPath>
</defs>
</svg>
