<svg width="332" height="255" viewBox="0 0 332 255" fill="none" xmlns="http://www.w3.org/2000/svg">
<path d="M323.982 179.643V182.051" stroke="#CED3F4" stroke-width="2.83" stroke-linecap="round" stroke-linejoin="round"/>
<path d="M40.3539 209.196C40.3539 200.849 61.8537 179.159 85.1346 180.819L91.2835 202.738L54.2631 222.887L40.3455 209.196H40.3539Z" fill="#67BDDB"/>
<path d="M169.562 127L105.167 191.429L145.393 241.786L201.802 171.331L169.562 127Z" fill="#C1E7F4"/>
<path d="M145.394 241.783C75.6273 304.75 40.3625 207.194 40.3625 207.194C45.2477 208.564 49.9717 209.304 54.4413 209.432C61.0312 209.61 67.0783 208.428 72.2772 205.96C74.5332 204.896 76.6281 203.577 78.5364 202.012H113.64L145.402 241.783H145.394Z" fill="#C1E7F4"/>
<path d="M260.905 100L243.435 113.5L210.991 106.5L203.503 110L169.561 127C169.561 127 143.825 243.223 144.495 296.898L121.63 366H303.907L301.889 280.127L331.158 163.349C334.041 151.836 329.368 139.762 319.487 133.142C296.345 115.5 260.905 100 260.905 100Z" fill="#C1E7F4"/>
<path d="M260.839 100.203L243.435 120.5L211.989 115.5C211.989 108.752 209.493 101 209.493 101C209.493 101 238.169 94.0765 246.337 64.2949L260.848 100.203H260.839Z" fill="#FBCBB5"/>
<path d="M181.676 52.8964C190.88 52.8964 198.342 45.5096 198.342 36.3974C198.342 27.2853 190.88 19.8984 181.676 19.8984C172.472 19.8984 165.011 27.2853 165.011 36.3974C165.011 45.5096 172.472 52.8964 181.676 52.8964Z" fill="#111111"/>
<path d="M206.051 2.31661C189.979 -2.976 176.859 3.31217 176.859 13.7187C176.859 24.1252 184.136 32.5662 193.117 32.5662C198.223 32.5662 202.769 29.8348 205.754 25.5718L208.307 44.8617L255.742 61.4373L264.257 23.0786C250.094 -9.17056 217.501 1.5508 206.06 2.30811L206.051 2.31661Z" fill="#111111"/>
<path d="M198.553 21.0363C206.356 20.0408 213.845 19.343 220.078 19.794C223.819 20.0663 226.88 22.8913 227.466 26.6012L229.204 37.5353C229.925 42.0706 234.259 45.0998 238.746 44.1979L242.927 43.3555L239.763 11.1914L198.553 21.0193V21.0363Z" fill="#111111"/>
<path d="M252.494 65.037C256.819 62.0844 258.685 56.2727 256.675 50.9291C254.495 45.1344 248.533 41.952 242.936 43.3645L236.549 13.4043L196.018 21.7686C186.129 23.8108 179.327 32.9665 180.209 43.0582L185.128 75.7754C185.128 75.7754 190.386 106.365 214.354 100.418C214.354 100.418 243.894 94.6909 252.494 65.037Z" fill="#FBCBB5"/>
<path d="M214.159 63.2509C215.883 63.2509 217.28 61.849 217.28 60.1196C217.28 58.3902 215.883 56.9883 214.159 56.9883C212.435 56.9883 211.038 58.3902 211.038 60.1196C211.038 61.849 212.435 63.2509 214.159 63.2509Z" fill="#111111"/>
<path d="M188.681 66.4535C190.311 66.4535 191.633 65.1278 191.633 63.4924C191.633 61.857 190.311 60.5312 188.681 60.5312C187.051 60.5312 185.73 61.857 185.73 63.4924C185.73 65.1278 187.051 66.4535 188.681 66.4535Z" fill="#111111"/>
<path d="M207.959 52.9535C207.959 52.9535 212.302 50.0264 216.619 51.3963" stroke="#111111" stroke-width="1.6" stroke-linecap="round" stroke-linejoin="round"/>
<path d="M182.592 56.3669C184.195 55.6175 186.477 54.9447 188.843 55.4982" stroke="#111111" stroke-width="1.6" stroke-linecap="round" stroke-linejoin="round"/>
<path d="M198.765 62.4922L193.448 72.7285C193.448 72.7285 196.213 76.1832 199.622 76.1662" stroke="#E49F7F" stroke-width="1.6" stroke-linecap="round" stroke-linejoin="round"/>
<path d="M213.796 77.754C215.206 81.5092 212.587 85.9751 207.944 87.7265C203.3 89.4779 198.388 87.8508 196.977 84.0957C196.907 83.9008 196.841 83.7174 196.792 83.5143C199.498 82.9079 202.404 82.0471 205.388 80.9113C208.365 79.7911 211.122 78.5176 213.55 77.1816C213.643 77.3683 213.721 77.5477 213.791 77.7425L213.796 77.754Z" fill="#E49F7F"/>
<path d="M176.282 28.2952C184.339 31.8689 201.785 25.1128 201.785 25.1128C201.785 25.1128 215.957 56.0175 242.935 43.3561C256.845 36.8297 237.592 7.05664 237.592 7.05664C237.592 7.05664 178.529 16.8165 176.282 28.2952Z" fill="#111111"/>
<path d="M178.402 34.6931C184.923 34.6931 190.208 29.4968 190.208 23.0868C190.208 16.6768 184.923 11.4805 178.402 11.4805C171.882 11.4805 166.597 16.6768 166.597 23.0868C166.597 29.4968 171.882 34.6931 178.402 34.6931Z" fill="#111111"/>
<path d="M224.967 115.499C210.955 115.499 210.991 106.499 210.991 106.499C208.495 107.5 203.504 110 203.504 110C185.669 149.35 186.533 192 186.533 192C186.533 192 202.438 171.805 216.981 154C225.965 143 265.398 102 265.398 102L260.906 100C255.507 104.299 241.439 115.499 224.967 115.499Z" fill="white"/>
<path d="M214.914 215.918L201.523 213.034L197.85 207.784C192.21 199.726 182.381 195.752 172.746 197.633L161.347 199.862L164.316 248.627C164.723 255.29 169.973 260.633 176.605 261.135L195.959 258.846L208.613 262.182L214.906 215.918H214.914Z" fill="#FBCBB5"/>
<path d="M172.574 210.759C176.081 210.494 178.711 207.428 178.447 203.911C178.182 200.394 175.125 197.758 171.617 198.023L152.038 199.504C148.531 199.769 145.901 202.835 146.165 206.352C146.43 209.869 149.487 212.505 152.995 212.24L172.574 210.759Z" fill="#FBCBB5"/>
<path d="M173.061 223.154C176.569 222.888 179.198 219.822 178.934 216.305C178.67 212.789 175.612 210.153 172.104 210.418L152.526 211.898C149.018 212.163 146.389 215.229 146.653 218.746C146.917 222.263 149.975 224.899 153.483 224.634L173.061 223.154Z" fill="#FBCBB5"/>
<path d="M174.025 235.872C177.533 235.607 180.162 232.541 179.898 229.024C179.634 225.507 176.576 222.871 173.069 223.136L153.49 224.617C149.982 224.882 147.353 227.948 147.617 231.465C147.881 234.982 150.939 237.618 154.447 237.353L174.025 235.872Z" fill="#FBCBB5"/>
<path d="M174.797 248.183C178.304 247.918 180.934 244.852 180.67 241.335C180.405 237.818 177.348 235.182 173.84 235.447L154.261 236.927C150.754 237.193 148.124 240.259 148.388 243.776C148.653 247.293 151.71 249.929 155.218 249.663L174.797 248.183Z" fill="#FBCBB5"/>
<path d="M161.076 210.998L151.592 211.999" stroke="#E49F7F" stroke-width="1.6" stroke-miterlimit="10" stroke-linecap="round"/>
<path d="M161.575 224L152.591 225.001" stroke="#E49F7F" stroke-width="1.6" stroke-miterlimit="10" stroke-linecap="round"/>
<path d="M162.075 236L152.591 237.001" stroke="#E49F7F" stroke-width="1.6" stroke-miterlimit="10" stroke-linecap="round"/>
<path d="M139.652 204.016H65.4839C63.7028 204.016 62.0575 203.063 61.167 201.514L4.63138 103.252C2.72312 99.9168 5.11481 95.7559 8.94831 95.7559H83.1078C84.8888 95.7559 86.5342 96.7089 87.4247 98.2575L143.977 196.52C145.894 199.855 143.502 204.016 139.66 204.016H139.652Z" fill="#111111"/>
<path d="M135.691 204.016H61.5229C59.7419 204.016 58.0965 203.063 57.206 201.514L0.670446 103.252C-1.23782 99.9168 1.15387 95.7559 4.98737 95.7559H79.1469C80.9279 95.7559 82.5732 96.7089 83.4638 98.2575L140.016 196.52C141.933 199.855 139.541 204.016 135.699 204.016H135.691Z" fill="white"/>
<path d="M72.2685 205.963C67.0695 208.431 61.0309 209.605 54.4326 209.435C53.7965 208.839 53.2113 208.167 52.7024 207.418L27.7762 170.668C25.5033 167.324 26.504 162.746 29.9644 160.661L30.0322 160.619L32.2882 159.266L40.0061 154.637L47.0285 163.52L47.2575 163.809L54.9245 173.518H54.9415L62.5745 183.184L62.8374 183.525L70.2585 192.919C70.3348 193.012 70.4111 193.115 70.4705 193.2C73.2693 196.952 73.846 201.785 72.26 205.963H72.2685Z" fill="#FBCBB5"/>
<path d="M54.4751 158.254C57.2617 156.1 57.7816 152.089 55.6362 149.295C53.4909 146.501 49.4927 145.982 46.706 148.136L31.1523 160.158C28.3657 162.312 27.8458 166.323 29.9912 169.117C32.1365 171.911 36.1347 172.429 38.9214 170.276L54.4751 158.254Z" fill="#FBCBB5"/>
<path d="M62.3655 167.803C65.1521 165.649 65.672 161.638 63.5266 158.844C61.3813 156.05 57.3831 155.531 54.5964 157.685L39.0427 169.707C36.2561 171.86 35.7362 175.871 37.8815 178.665C40.0269 181.459 44.0251 181.978 46.8118 179.824L62.3655 167.803Z" fill="#FBCBB5"/>
<path d="M70.1159 177.918C72.9026 175.764 73.4225 171.753 71.2771 168.959C69.1317 166.165 65.1335 165.646 62.3469 167.8L46.7932 179.822C44.0065 181.976 43.4866 185.987 45.632 188.781C47.7774 191.575 51.7756 192.093 54.5623 189.94L70.1159 177.918Z" fill="#FBCBB5"/>
<path d="M77.7426 187.598C80.5293 185.444 81.0492 181.433 78.9038 178.639C76.7585 175.845 72.7602 175.326 69.9736 177.48L54.4199 189.502C51.6332 191.655 51.1134 195.666 53.2587 198.46C55.4041 201.254 59.4023 201.773 62.189 199.619L77.7426 187.598Z" fill="#FBCBB5"/>
<path d="M55.2571 157.5L49.2673 162M63.2434 167L57.2537 171.5M71.2298 176.5L65.24 181" stroke="#E49F7F" stroke-width="1.6" stroke-miterlimit="10" stroke-linecap="round"/>
</svg>
