<svg width="120" height="120" viewBox="0 0 120 120" fill="none" xmlns="http://www.w3.org/2000/svg">
<g filter="url(#filter0_d_2194_37455)">
<path d="M60.0096 74.7391C67.3478 74.7391 73.2967 68.7766 73.2967 61.4213C73.2967 54.0661 67.3478 48.1035 60.0096 48.1035C52.6713 48.1035 46.7224 54.0661 46.7224 61.4213C46.7224 68.7766 52.6713 74.7391 60.0096 74.7391Z" fill="url(#paint0_linear_2194_37455)"/>
</g>
<g style="mix-blend-mode:multiply" opacity="0.2">
<path d="M60.0095 108.998C71.3726 108.998 80.5843 87.6972 80.5843 61.4217C80.5843 35.1462 71.3726 13.8457 60.0095 13.8457C48.6463 13.8457 39.4346 35.1462 39.4346 61.4217C39.4346 87.6972 48.6463 108.998 60.0095 108.998Z" stroke="#999999" stroke-width="5" stroke-miterlimit="10"/>
</g>
<g style="mix-blend-mode:multiply" opacity="0.2">
<path d="M70.3026 79.2747C93.0055 66.137 106.804 47.4908 101.122 37.6272C95.4407 27.7637 72.4306 30.418 49.7278 43.5557C27.0249 56.6935 13.2264 75.3397 18.908 85.2033C24.5896 95.0668 47.5998 92.4125 70.3026 79.2747Z" stroke="#999999" stroke-width="5" stroke-miterlimit="10"/>
</g>
<g style="mix-blend-mode:multiply" opacity="0.2">
<path d="M101.121 85.2048C106.802 75.3413 93.0038 56.695 70.3009 43.5573C47.5981 30.4195 24.5879 27.7652 18.9063 37.6288C13.2247 47.4923 27.0232 66.1385 49.726 79.2763C72.4289 92.414 95.439 95.0683 101.121 85.2048Z" stroke="#999999" stroke-width="5" stroke-miterlimit="10"/>
</g>
<g filter="url(#filter1_d_2194_37455)">
<path d="M52.6163 24.1187C56.1633 24.1187 59.0387 21.2366 59.0387 17.6814C59.0387 14.1262 56.1633 11.2441 52.6163 11.2441C49.0693 11.2441 46.1938 14.1262 46.1938 17.6814C46.1938 21.2366 49.0693 24.1187 52.6163 24.1187Z" fill="url(#paint1_linear_2194_37455)"/>
</g>
<g filter="url(#filter2_d_2194_37455)">
<path d="M91.2276 96.982C94.7746 96.982 97.6501 94.0999 97.6501 90.5447C97.6501 86.9895 94.7746 84.1074 91.2276 84.1074C87.6806 84.1074 84.8052 86.9895 84.8052 90.5447C84.8052 94.0999 87.6806 96.982 91.2276 96.982Z" fill="url(#paint2_linear_2194_37455)"/>
</g>
<g filter="url(#filter3_d_2194_37455)">
<path d="M21.5135 94.2456C25.0605 94.2456 27.9359 91.3636 27.9359 87.8084C27.9359 84.2532 25.0605 81.3711 21.5135 81.3711C17.9665 81.3711 15.0911 84.2532 15.0911 87.8084C15.0911 91.3636 17.9665 94.2456 21.5135 94.2456Z" fill="url(#paint3_linear_2194_37455)"/>
</g>
<defs>
<filter id="filter0_d_2194_37455" x="40.7224" y="44.1035" width="42.5742" height="42.6357" filterUnits="userSpaceOnUse" color-interpolation-filters="sRGB">
<feFlood flood-opacity="0" result="BackgroundImageFix"/>
<feColorMatrix in="SourceAlpha" type="matrix" values="0 0 0 0 0 0 0 0 0 0 0 0 0 0 0 0 0 0 127 0" result="hardAlpha"/>
<feOffset dx="2" dy="4"/>
<feGaussianBlur stdDeviation="4"/>
<feComposite in2="hardAlpha" operator="out"/>
<feColorMatrix type="matrix" values="0 0 0 0 0 0 0 0 0 0 0 0 0 0 0 0 0 0 0.04 0"/>
<feBlend mode="normal" in2="BackgroundImageFix" result="effect1_dropShadow_2194_37455"/>
<feBlend mode="normal" in="SourceGraphic" in2="effect1_dropShadow_2194_37455" result="shape"/>
</filter>
<filter id="filter1_d_2194_37455" x="40.1938" y="7.24414" width="28.845" height="28.8745" filterUnits="userSpaceOnUse" color-interpolation-filters="sRGB">
<feFlood flood-opacity="0" result="BackgroundImageFix"/>
<feColorMatrix in="SourceAlpha" type="matrix" values="0 0 0 0 0 0 0 0 0 0 0 0 0 0 0 0 0 0 127 0" result="hardAlpha"/>
<feOffset dx="2" dy="4"/>
<feGaussianBlur stdDeviation="4"/>
<feComposite in2="hardAlpha" operator="out"/>
<feColorMatrix type="matrix" values="0 0 0 0 0 0 0 0 0 0 0 0 0 0 0 0 0 0 0.04 0"/>
<feBlend mode="normal" in2="BackgroundImageFix" result="effect1_dropShadow_2194_37455"/>
<feBlend mode="normal" in="SourceGraphic" in2="effect1_dropShadow_2194_37455" result="shape"/>
</filter>
<filter id="filter2_d_2194_37455" x="78.8052" y="80.1074" width="28.845" height="28.8745" filterUnits="userSpaceOnUse" color-interpolation-filters="sRGB">
<feFlood flood-opacity="0" result="BackgroundImageFix"/>
<feColorMatrix in="SourceAlpha" type="matrix" values="0 0 0 0 0 0 0 0 0 0 0 0 0 0 0 0 0 0 127 0" result="hardAlpha"/>
<feOffset dx="2" dy="4"/>
<feGaussianBlur stdDeviation="4"/>
<feComposite in2="hardAlpha" operator="out"/>
<feColorMatrix type="matrix" values="0 0 0 0 0 0 0 0 0 0 0 0 0 0 0 0 0 0 0.04 0"/>
<feBlend mode="normal" in2="BackgroundImageFix" result="effect1_dropShadow_2194_37455"/>
<feBlend mode="normal" in="SourceGraphic" in2="effect1_dropShadow_2194_37455" result="shape"/>
</filter>
<filter id="filter3_d_2194_37455" x="9.09106" y="77.3711" width="28.845" height="28.8745" filterUnits="userSpaceOnUse" color-interpolation-filters="sRGB">
<feFlood flood-opacity="0" result="BackgroundImageFix"/>
<feColorMatrix in="SourceAlpha" type="matrix" values="0 0 0 0 0 0 0 0 0 0 0 0 0 0 0 0 0 0 127 0" result="hardAlpha"/>
<feOffset dx="2" dy="4"/>
<feGaussianBlur stdDeviation="4"/>
<feComposite in2="hardAlpha" operator="out"/>
<feColorMatrix type="matrix" values="0 0 0 0 0 0 0 0 0 0 0 0 0 0 0 0 0 0 0.04 0"/>
<feBlend mode="normal" in2="BackgroundImageFix" result="effect1_dropShadow_2194_37455"/>
<feBlend mode="normal" in="SourceGraphic" in2="effect1_dropShadow_2194_37455" result="shape"/>
</filter>
<linearGradient id="paint0_linear_2194_37455" x1="46.7224" y1="48.1035" x2="74.3546" y2="73.5922" gradientUnits="userSpaceOnUse">
<stop stop-color="#FF5C01"/>
<stop offset="1" stop-color="#FFA901"/>
</linearGradient>
<linearGradient id="paint1_linear_2194_37455" x1="46.1938" y1="11.2441" x2="58.4141" y2="22.9673" gradientUnits="userSpaceOnUse">
<stop stop-color="#FFCC48"/>
<stop offset="1" stop-color="#FFE248"/>
</linearGradient>
<linearGradient id="paint2_linear_2194_37455" x1="84.8052" y1="84.1074" x2="98.1614" y2="96.4276" gradientUnits="userSpaceOnUse">
<stop stop-color="#0C82E9"/>
<stop offset="1" stop-color="#4DC3F5"/>
</linearGradient>
<linearGradient id="paint3_linear_2194_37455" x1="15.0911" y1="81.3711" x2="27.3113" y2="93.0943" gradientUnits="userSpaceOnUse">
<stop stop-color="#2DA860"/>
<stop offset="1" stop-color="#6FC746"/>
</linearGradient>
</defs>
</svg>
