<svg width="120" height="120" viewBox="0 0 120 120" fill="none" xmlns="http://www.w3.org/2000/svg">
<path d="M57.9567 97.9655L58.1233 97.7669L30.508 68.4492L18.0817 69.1503L6 103.209L6.38769 104.001L56.4404 101.015L58.511 98.5585L57.9567 97.9655Z" fill="url(#paint0_linear_2194_37282)"/>
<path d="M58.1233 97.7669L56.0527 100.224L6 103.209L18.0817 69.1503L30.508 68.4492L58.1233 97.7669Z" fill="url(#paint1_linear_2194_37282)"/>
<path d="M14.748 94.5108L21.7408 67.9946L23.8229 64.086L29.6871 63.0781C29.6871 63.0781 24.0928 91.017 24.156 91.3412C24.2192 91.6655 14.7451 94.5108 14.7451 94.5108H14.748Z" fill="url(#paint2_linear_2194_37282)"/>
<path d="M59.485 95.3317L60.246 98.2325L55.588 99.1031L9.56152 100.844C9.56152 100.844 10.5121 96.1029 15.2678 93.0093C20.0235 89.9128 55.3036 89.8164 55.3036 89.8164L59.4879 95.3288L59.485 95.3317Z" fill="url(#paint3_linear_2194_37282)"/>
<path d="M18.498 89.9127C18.4033 90.2048 15.2644 93.0092 15.2644 93.0092L9.55811 100.844L20.3044 68.9235L23.8224 64.0859L16.8812 88.9458L18.498 89.9127Z" fill="url(#paint4_linear_2194_37282)"/>
<path d="M60.2429 98.2343C60.2429 98.2343 45.028 87.8843 15.2646 93.0111C15.2646 93.0111 25.1551 62.7353 25.1551 62.8317C25.1551 62.9281 35.8067 58.5754 42.3659 62.5425C48.928 66.5096 60.2429 98.2372 60.2429 98.2372V98.2343Z" fill="url(#paint5_linear_2194_37282)"/>
<path d="M60.243 98.2333V65.6351C60.243 65.6351 46.7397 56.6405 28.1017 61.3788L20.0176 89.4316C20.0176 89.4316 49.2124 87.4013 60.243 98.2333Z" fill="url(#paint6_linear_2194_37282)"/>
<path d="M62.0435 97.9655L61.8769 97.7669L89.4893 68.4492L101.918 69.1503L114 103.209L113.61 104.001L63.5569 101.015L61.4863 98.5585L62.0435 97.9655Z" fill="#1F76F5"/>
<path d="M61.8765 97.7669L63.947 100.224L114 103.209L101.918 69.1503L89.4889 68.4492L61.8765 97.7669Z" fill="url(#paint7_linear_2194_37282)"/>
<path d="M105.253 94.5108L98.2598 67.9946L96.1777 64.086L90.3135 63.0781C90.3135 63.0781 95.9078 91.017 95.8446 91.3412C95.7814 91.6655 105.253 94.5108 105.253 94.5108Z" fill="url(#paint8_linear_2194_37282)"/>
<path d="M60.5149 95.3317L59.7539 98.2325L64.4149 99.1031L110.441 100.844C110.441 100.844 109.491 96.1029 104.735 93.0093C99.9822 89.9128 64.702 89.8164 64.702 89.8164L60.5178 95.3288L60.5149 95.3317Z" fill="url(#paint9_linear_2194_37282)"/>
<path d="M101.502 89.9127C101.596 90.2048 104.735 93.0092 104.735 93.0092L110.442 100.844L99.6952 68.9235L96.1772 64.0859L103.118 88.9458L101.502 89.9127Z" fill="url(#paint10_linear_2194_37282)"/>
<path d="M59.7539 98.2343C59.7539 98.2343 74.9687 87.8843 104.732 93.0111C104.732 93.0111 94.8416 62.7353 94.8416 62.8317C94.8416 62.9281 84.1901 58.5754 77.6309 62.5425C71.0688 66.5096 59.7539 98.2372 59.7539 98.2372V98.2343Z" fill="url(#paint11_linear_2194_37282)"/>
<path d="M59.7544 98.2333V65.6351C59.7544 65.6351 73.2576 56.6405 91.8956 61.3788L99.9798 89.4316C99.9798 89.4316 70.785 87.4013 59.7544 98.2333Z" fill="url(#paint12_linear_2194_37282)"/>
<path d="M63.7515 99.959C63.7515 101.633 62.0715 102.988 59.9981 102.988C57.9246 102.988 56.2446 101.633 56.2446 99.959C56.2446 98.2851 57.9246 96.9297 59.9981 96.9297C62.0715 96.9297 63.7515 98.2851 63.7515 99.959Z" fill="url(#paint13_linear_2194_37282)"/>
<path d="M59.9984 102.109C58.4303 102.109 57.1064 101.124 57.1064 99.9586C57.1064 98.7931 58.4303 97.8086 59.9984 97.8086C61.5664 97.8086 62.8903 98.7931 62.8903 99.9586C62.8903 101.124 61.5664 102.109 59.9984 102.109Z" fill="url(#paint14_linear_2194_37282)"/>
<g style="mix-blend-mode:multiply" opacity="0.5">
<path d="M70.8243 74.3495C70.8243 76.3296 78.2393 77.9335 87.3853 77.9335C96.5312 77.9335 103.946 76.3296 103.946 74.3495C103.946 72.3695 96.5312 70.7656 87.3853 70.7656C78.2393 70.7656 70.8243 72.3695 70.8243 74.3495Z" fill="white"/>
<path d="M70.8352 74.35C70.8352 76.3139 78.2043 77.9071 87.2936 77.9071C96.3828 77.9071 103.752 76.3139 103.752 74.35C103.752 72.3861 96.3828 70.793 87.2936 70.793C78.2043 70.793 70.8352 72.3861 70.8352 74.35Z" fill="#FFFEFE"/>
<path d="M70.8426 74.3556C70.8426 76.3034 78.1632 77.8831 87.1957 77.8831C96.2283 77.8831 103.549 76.3034 103.549 74.3556C103.549 72.4078 96.2256 70.8281 87.1957 70.8281C78.1659 70.8281 70.8426 72.4078 70.8426 74.3556Z" fill="#FEFEFD"/>
<path d="M70.8535 74.3534C70.8535 76.2851 78.1282 77.8513 87.104 77.8513C96.0799 77.8513 103.354 76.2851 103.354 74.3534C103.354 72.4217 96.0799 70.8555 87.104 70.8555C78.1282 70.8555 70.8535 72.4217 70.8535 74.3534Z" fill="#FEFDFC"/>
<path d="M70.8644 74.3578C70.8644 76.2733 78.0932 77.8289 87.0123 77.8289C95.9314 77.8289 103.16 76.276 103.16 74.3578C103.16 72.4396 95.9314 70.8867 87.0123 70.8867C78.0932 70.8867 70.8644 72.4396 70.8644 74.3578Z" fill="#FDFCFB"/>
<path d="M70.8729 74.3595C70.8729 76.2589 78.0557 77.801 86.9181 77.801C95.7805 77.801 102.963 76.2616 102.963 74.3595C102.963 72.4574 95.7805 70.918 86.9181 70.918C78.0557 70.918 70.8729 72.4574 70.8729 74.3595Z" fill="#FDFCFA"/>
<path d="M70.8833 74.3639C70.8833 76.2472 78.0202 77.7758 86.8259 77.7758C95.6316 77.7758 102.769 76.2472 102.769 74.3639C102.769 72.4806 95.6316 70.9492 86.8259 70.9492C78.0202 70.9492 70.8833 72.4779 70.8833 74.3639Z" fill="#FDFBFA"/>
<path d="M70.8912 74.3656C70.8912 76.2354 77.9822 77.748 86.7313 77.748C95.4803 77.748 102.571 76.2328 102.571 74.3656C102.571 72.4984 95.4803 70.9805 86.7313 70.9805C77.9822 70.9805 70.8912 72.4957 70.8912 74.3656Z" fill="#FCFAF9"/>
<path d="M70.9026 74.3673C70.9026 76.221 77.9477 77.7228 86.6374 77.7228C95.327 77.7228 102.372 76.221 102.372 74.3673C102.372 72.5135 95.327 71.0117 86.6374 71.0117C77.9477 71.0117 70.9026 72.5135 70.9026 74.3673Z" fill="#FCFAF8"/>
<path d="M70.913 74.3717C70.913 76.2093 77.9122 77.6977 86.5451 77.6977C95.178 77.6977 102.177 76.2093 102.177 74.3717C102.177 72.534 95.178 71.043 86.5451 71.043C77.9122 71.043 70.913 72.5313 70.913 74.3717Z" fill="#FBF9F7"/>
<path d="M70.9215 74.3736C70.9215 76.1951 77.8748 77.67 86.451 77.67C95.0272 77.67 101.98 76.1924 101.98 74.3736C101.98 72.5548 95.0272 71.0745 86.451 71.0745C77.8748 71.0745 70.9215 72.5521 70.9215 74.3736Z" fill="#FBF9F6"/>
<path d="M70.9324 74.375C70.9324 76.1804 77.8398 77.6446 86.3593 77.6446C94.8787 77.6446 101.786 76.1804 101.786 74.375C101.786 72.5697 94.8787 71.1055 86.3593 71.1055C77.8398 71.1055 70.9324 72.5697 70.9324 74.375Z" fill="#FBF8F5"/>
<path d="M70.9403 74.3794C70.9403 76.1687 77.8018 77.6195 86.2646 77.6195C94.7274 77.6195 101.589 76.1687 101.589 74.3794C101.589 72.5902 94.7274 71.1367 86.2646 71.1367C77.8018 71.1367 70.9403 72.5875 70.9403 74.3794Z" fill="#FAF7F4"/>
<path d="M70.9512 74.3772C70.9512 76.1504 77.7668 77.5877 86.1729 77.5877C94.5789 77.5877 101.395 76.1504 101.395 74.3772C101.395 72.6041 94.5789 71.1641 86.1729 71.1641C77.7668 71.1641 70.9512 72.6014 70.9512 74.3772Z" fill="#FAF7F3"/>
<path d="M70.9587 74.3828C70.9587 76.1399 77.7257 77.5664 86.0751 77.5664C94.4244 77.5664 101.191 76.1399 101.191 74.3828C101.191 72.6258 94.4244 71.1992 86.0751 71.1992C77.7257 71.1992 70.9587 72.6258 70.9587 74.3828Z" fill="#F9F6F2"/>
<path d="M70.9696 74.3833C70.9696 76.1242 77.6907 77.5374 85.9833 77.5374C94.276 77.5374 100.997 76.1242 100.997 74.3833C100.997 72.6424 94.276 71.2266 85.9833 71.2266C77.6907 71.2266 70.9696 72.6397 70.9696 74.3833Z" fill="#F9F5F1"/>
<path d="M70.9815 74.385C70.9815 76.1098 77.6566 77.5095 85.8926 77.5095C94.1285 77.5095 100.804 76.1098 100.804 74.385C100.804 72.6602 94.1285 71.2578 85.8926 71.2578C77.6566 71.2578 70.9815 72.6575 70.9815 74.385Z" fill="#F9F5F0"/>
<path d="M70.9884 74.3906C70.9884 76.102 77.6177 77.4882 85.797 77.4882C93.9762 77.4882 100.605 76.102 100.605 74.3906C100.605 72.6792 93.9762 71.293 85.797 71.293C77.6177 71.293 70.9884 72.6792 70.9884 74.3906Z" fill="#F8F4F0"/>
<path d="M70.9993 74.3911C70.9993 76.0863 77.5827 77.4592 85.7052 77.4592C93.8278 77.4592 100.411 76.0863 100.411 74.3911C100.411 72.6958 93.8278 71.3203 85.7052 71.3203C77.5827 71.3203 70.9993 72.6932 70.9993 74.3911Z" fill="#F8F3EF"/>
<path d="M71.0078 74.3967C71.0078 76.0758 77.5452 77.4352 85.6111 77.4352C93.6769 77.4352 100.214 76.0731 100.214 74.3967C100.214 72.7203 93.6769 71.3555 85.6111 71.3555C77.5452 71.3555 71.0078 72.7176 71.0078 74.3967Z" fill="#F7F3EE"/>
<path d="M71.0182 74.3984C71.0182 76.0614 77.5098 77.4101 85.5162 77.4101C93.5226 77.4101 100.014 76.0614 100.014 74.3984C100.014 72.7354 93.5226 71.3867 85.5162 71.3867C77.5098 71.3867 71.0182 72.7354 71.0182 74.3984Z" fill="#F7F2ED"/>
<path d="M71.0296 74.3989C71.0296 76.0457 77.4752 77.381 85.4249 77.381C93.3747 77.381 99.8203 76.0457 99.8203 74.3989C99.8203 72.752 93.3747 71.4141 85.4249 71.4141C77.4752 71.4141 71.0296 72.7493 71.0296 74.3989Z" fill="#F6F1EC"/>
<path d="M71.0371 74.4045C71.0371 76.0352 77.4368 77.357 85.3298 77.357C93.2228 77.357 99.6226 76.0352 99.6226 74.4045C99.6226 72.7737 93.2228 71.4492 85.3298 71.4492C77.4368 71.4492 71.0371 72.771 71.0371 74.4045Z" fill="#F6F1EB"/>
<path d="M71.0484 74.4062C71.0484 76.0208 77.4023 77.3319 85.2386 77.3319C93.0749 77.3319 99.4287 76.0208 99.4287 74.4062C99.4287 72.7915 93.0749 71.4805 85.2386 71.4805C77.4023 71.4805 71.0484 72.7915 71.0484 74.4062Z" fill="#F6F0EA"/>
<path d="M71.0564 74.4066C71.0564 76.0052 77.3643 77.3028 85.1439 77.3028C92.9235 77.3028 99.2314 76.0052 99.2314 74.4066C99.2314 72.8081 92.9235 71.5078 85.1439 71.5078C77.3643 71.5078 71.0564 72.8054 71.0564 74.4066Z" fill="#F5F0E9"/>
<path d="M71.0673 74.4083C71.0673 75.9907 77.3266 77.2749 85.0522 77.2749C92.7778 77.2749 99.0371 75.9907 99.0371 74.4083C99.0371 72.8259 92.7751 71.5391 85.0522 71.5391C77.3293 71.5391 71.0673 72.8233 71.0673 74.4083Z" fill="#F5EFE8"/>
<path d="M71.0777 74.41C71.0777 75.9763 77.2911 77.2498 84.9573 77.2498C92.6235 77.2498 98.8369 75.979 98.8369 74.41C98.8369 72.8411 92.6235 71.5703 84.9573 71.5703C77.2911 71.5703 71.0777 72.8411 71.0777 74.41Z" fill="#F4EEE7"/>
<path d="M71.0861 74.4144C71.0861 75.9673 77.2537 77.2246 84.8631 77.2246C92.4726 77.2246 98.6401 75.9646 98.6401 74.4144C98.6401 72.8643 92.4726 71.6016 84.8631 71.6016C77.2537 71.6016 71.0861 72.8616 71.0861 74.4144Z" fill="#F4EEE6"/>
<path d="M71.097 74.4164C71.097 75.9531 77.2186 77.197 84.7714 77.197C92.3242 77.197 98.4458 75.9504 98.4458 74.4164C98.4458 72.8823 92.3242 71.6331 84.7714 71.6331C77.2186 71.6331 71.097 72.8796 71.097 74.4164Z" fill="#F4EDE5"/>
<path d="M71.1045 74.4178C71.1045 75.9384 77.1802 77.1716 84.6763 77.1716C92.1723 77.1716 98.248 75.9384 98.248 74.4178C98.248 72.8972 92.1723 71.6641 84.6763 71.6641C77.1802 71.6641 71.1045 72.8972 71.1045 74.4178Z" fill="#F3ECE5"/>
<path d="M71.1154 74.4222C71.1154 75.9267 77.1452 77.1464 84.5846 77.1464C92.0239 77.1464 98.0537 75.9267 98.0537 74.4222C98.0537 72.9177 92.0239 71.6953 84.5846 71.6953C77.1452 71.6953 71.1154 72.915 71.1154 74.4222Z" fill="#F3ECE4"/>
<path d="M71.1263 74.4239C71.1263 75.9123 77.1102 77.1186 84.4928 77.1186C91.8755 77.1186 97.8594 75.9123 97.8594 74.4239C97.8594 72.9355 91.8755 71.7266 84.4928 71.7266C77.1102 71.7266 71.1263 72.9328 71.1263 74.4239Z" fill="#F2EBE3"/>
<path d="M71.1348 74.4256C71.1348 75.8978 77.0727 77.0934 84.396 77.0934C91.7192 77.0934 97.6572 75.8978 97.6572 74.4256C97.6572 72.9533 91.7192 71.7578 84.396 71.7578C77.0727 71.7578 71.1348 72.9533 71.1348 74.4256Z" fill="#F2EAE2"/>
<path d="M71.1456 74.43C71.1456 75.8861 77.0377 77.0682 84.3043 77.0682C91.5708 77.0682 97.4629 75.8861 97.4629 74.43C97.4629 72.9738 91.5708 71.7891 84.3043 71.7891C77.0377 71.7891 71.1456 72.9712 71.1456 74.43Z" fill="#F2EAE1"/>
<path d="M71.1536 74.4317C71.1536 75.8717 76.9998 77.0404 84.2096 77.0404C91.4195 77.0404 97.2656 75.8717 97.2656 74.4317C97.2656 72.9917 91.4195 71.8203 84.2096 71.8203C76.9998 71.8203 71.1536 72.989 71.1536 74.4317Z" fill="#F1E9E0"/>
<path d="M71.1645 74.4334C71.1645 75.8573 76.9648 77.0152 84.1179 77.0152C91.271 77.0152 97.0713 75.86 97.0713 74.4334C97.0713 73.0068 91.271 71.8516 84.1179 71.8516C76.9648 71.8516 71.1645 73.0068 71.1645 74.4334Z" fill="#F1E8DF"/>
<path d="M71.1754 74.4339C71.1754 75.8416 76.927 76.9861 84.0262 76.9861C91.1253 76.9861 96.877 75.8416 96.877 74.4339C96.877 73.0261 91.1226 71.8789 84.0262 71.8789C76.9297 71.8789 71.1754 73.0234 71.1754 74.4339Z" fill="#F0E8DE"/>
<path d="M71.1833 74.4395C71.1833 75.8338 76.8891 76.9622 83.9315 76.9622C90.9739 76.9622 96.6797 75.8311 96.6797 74.4395C96.6797 73.0478 90.9739 71.9141 83.9315 71.9141C76.8891 71.9141 71.1833 73.0451 71.1833 74.4395Z" fill="#F0E7DD"/>
<path d="M71.1938 74.4412C71.1938 75.8194 76.8536 76.937 83.8366 76.937C90.8196 76.937 96.4795 75.8194 96.4795 74.4412C96.4795 73.0629 90.8196 71.9453 83.8366 71.9453C76.8536 71.9453 71.1938 73.0629 71.1938 74.4412Z" fill="#F0E7DC"/>
<path d="M71.2017 74.4416C71.2017 75.8037 76.8157 76.9079 83.742 76.9079C90.6683 76.9079 96.2822 75.8037 96.2822 74.4416C96.2822 73.0795 90.6683 71.9727 83.742 71.9727C76.8157 71.9727 71.2017 73.0768 71.2017 74.4416Z" fill="#EFE6DB"/>
<path d="M71.2126 74.4472C71.2126 75.7932 76.7807 76.884 83.6503 76.884C90.5198 76.884 96.0879 75.7905 96.0879 74.4472C96.0879 73.1039 90.5198 72.0078 83.6503 72.0078C76.7807 72.0078 71.2126 73.1013 71.2126 74.4472Z" fill="#EFE5DB"/>
<path d="M71.224 74.4489C71.224 75.7788 76.7461 76.8588 83.559 76.8588C90.3719 76.8588 95.894 75.7788 95.894 74.4489C95.894 73.1191 90.3719 72.0391 83.559 72.0391C76.7461 72.0391 71.224 73.1191 71.224 74.4489Z" fill="#EEE5DA"/>
<path d="M71.232 74.4494C71.232 75.7632 76.7082 76.8297 83.4644 76.8297C90.2205 76.8297 95.6968 75.7632 95.6968 74.4494C95.6968 73.1357 90.2205 72.0664 83.4644 72.0664C76.7082 72.0664 71.232 73.133 71.232 74.4494Z" fill="#EEE4D9"/>
<path d="M71.2431 74.455C71.2431 75.7526 76.6734 76.8058 83.3702 76.8058C90.067 76.8058 95.5 75.7526 95.5 74.455C95.5 73.1574 90.0697 72.1016 83.3702 72.1016C76.6707 72.1016 71.2431 73.1547 71.2431 74.455Z" fill="#EEE3D8"/>
<path d="M71.2508 74.4567C71.2508 75.7382 76.6352 76.7806 83.2753 76.7806C89.9154 76.7806 95.2998 75.7409 95.2998 74.4567C95.2998 73.1725 89.9154 72.1328 83.2753 72.1328C76.6352 72.1328 71.2508 73.1725 71.2508 74.4567Z" fill="#EDE3D7"/>
<path d="M71.2612 74.4572C71.2612 75.7226 76.5997 76.7515 83.1831 76.7515C89.7665 76.7515 95.105 75.7226 95.105 74.4572C95.105 73.1918 89.7665 72.1602 83.1831 72.1602C76.5997 72.1602 71.2612 73.1891 71.2612 74.4572Z" fill="#EDE2D6"/>
<path d="M71.2726 74.4591C71.2726 75.7084 76.5652 76.7239 83.0919 76.7239C89.6185 76.7239 94.9111 75.7084 94.9111 74.4591C94.9111 73.2099 89.6185 72.1917 83.0919 72.1917C76.5652 72.1917 71.2726 73.2072 71.2726 74.4591Z" fill="#ECE1D5"/>
<path d="M71.2806 74.4606C71.2806 75.6964 76.5246 76.6985 82.9972 76.6985C89.4699 76.6985 94.7139 75.6964 94.7139 74.4606C94.7139 73.2248 89.4672 72.2227 82.9972 72.2227C76.5273 72.2227 71.2806 73.2248 71.2806 74.4606Z" fill="#ECE1D4"/>
<path d="M71.291 74.4652C71.291 75.6849 76.4891 76.6736 82.905 76.6736C89.3209 76.6736 94.519 75.6849 94.519 74.4652C94.519 73.2455 89.3209 72.2542 82.905 72.2542C76.4891 72.2542 71.291 73.2428 71.291 74.4652Z" fill="#ECE0D3"/>
<path d="M71.2997 74.4667C71.2997 75.6703 76.4519 76.6455 82.8084 76.6455C89.1649 76.6455 94.3198 75.6676 94.3198 74.4667C94.3198 73.2658 89.1676 72.2852 82.8084 72.2852C76.4492 72.2852 71.2997 73.2631 71.2997 74.4667Z" fill="#EBDFD2"/>
<path d="M71.3103 74.4684C71.3103 75.6558 76.4166 76.6203 82.7164 76.6203C89.0163 76.6203 94.1226 75.6558 94.1226 74.4684C94.1226 73.2809 89.0163 72.3164 82.7164 72.3164C76.4166 72.3164 71.3103 73.2809 71.3103 74.4684Z" fill="#EBDFD1"/>
<path d="M71.3212 74.4728C71.3212 75.6441 76.3816 76.5952 82.6247 76.5952C88.8678 76.5952 93.9282 75.6441 93.9282 74.4728C93.9282 73.3014 88.8678 72.3477 82.6247 72.3477C76.3816 72.3477 71.3212 73.2987 71.3212 74.4728Z" fill="#EADED1"/>
<path d="M71.3287 74.4744C71.3287 75.6297 76.3432 76.5673 82.5296 76.5673C88.716 76.5673 93.7305 75.6297 93.7305 74.4744C93.7305 73.3192 88.716 72.3789 82.5296 72.3789C76.3432 72.3789 71.3287 73.3165 71.3287 74.4744Z" fill="#EADED0"/>
<path d="M71.3396 74.4801C71.3396 75.6192 76.3081 76.546 82.4378 76.546C88.5676 76.546 93.5361 75.6192 93.5361 74.4801C93.5361 73.3409 88.5676 72.4141 82.4378 72.4141C76.3081 72.4141 71.3396 73.3409 71.3396 74.4801Z" fill="#E9DDCF"/>
<path d="M71.348 74.4805C71.348 75.6035 76.2707 76.517 82.3437 76.517C88.4167 76.517 93.3394 75.6035 93.3394 74.4805C93.3394 73.3575 88.4167 72.4414 82.3437 72.4414C76.2707 72.4414 71.348 73.3548 71.348 74.4805Z" fill="#E9DCCE"/>
<path d="M71.3587 74.4822C71.3587 75.5891 76.2354 76.4891 82.249 76.4891C88.2626 76.4891 93.1421 75.5891 93.1421 74.4822C93.1421 73.3753 88.2653 72.4727 82.249 72.4727C76.2327 72.4727 71.3587 73.3727 71.3587 74.4822Z" fill="#E9DCCD"/>
<path d="M71.3693 74.4839C71.3693 75.5747 76.2002 76.4639 82.1571 76.4639C88.114 76.4639 92.9448 75.5774 92.9448 74.4839C92.9448 73.3905 88.114 72.5039 82.1571 72.5039C76.2002 72.5039 71.3693 73.3905 71.3693 74.4839Z" fill="#E8DBCC"/>
<path d="M71.3778 74.4883C71.3778 75.5656 76.1627 76.4388 82.0629 76.4388C87.9631 76.4388 92.748 75.5656 92.748 74.4883C92.748 73.411 87.9631 72.5352 82.0629 72.5352C76.1627 72.5352 71.3778 73.4083 71.3778 74.4883Z" fill="#E8DACB"/>
<path d="M71.3887 74.49C71.3887 75.5512 76.125 76.4109 81.9712 76.4109C87.8174 76.4109 92.5537 75.5485 92.5537 74.49C92.5537 73.4315 87.8147 72.5664 81.9712 72.5664C76.1277 72.5664 71.3887 73.4288 71.3887 74.49Z" fill="#E7DACA"/>
<path d="M71.3966 74.4917C71.3966 75.5368 76.0871 76.3857 81.8765 76.3857C87.666 76.3857 92.3564 75.5368 92.3564 74.4917C92.3564 73.4466 87.666 72.5977 81.8765 72.5977C76.0871 72.5977 71.3966 73.4466 71.3966 74.4917Z" fill="#E7D9C9"/>
<path d="M71.4075 74.4961C71.4075 75.5251 76.052 76.3606 81.7848 76.3606C87.5176 76.3606 92.1621 75.5251 92.1621 74.4961C92.1621 73.4671 87.5176 72.6289 81.7848 72.6289C76.052 72.6289 71.4075 73.4644 71.4075 74.4961Z" fill="#E7D8C8"/>
<path d="M71.4172 74.4978C71.4172 75.5106 76.0158 76.3327 81.6892 76.3327C87.3625 76.3327 91.9639 75.5106 91.9639 74.4978C91.9639 73.4849 87.3652 72.6602 81.6892 72.6602C76.0131 72.6602 71.4172 73.4823 71.4172 74.4978Z" fill="#E6D8C7"/>
<path d="M71.4259 74.4995C71.4259 75.4962 75.9786 76.3076 81.5953 76.3076C87.2119 76.3076 91.7646 75.4962 91.7646 74.4995C91.7646 73.5028 87.2119 72.6914 81.5953 72.6914C75.9786 72.6914 71.4259 73.5028 71.4259 74.4995Z" fill="#E6D7C7"/>
<path d="M71.4368 74.5039C71.4368 75.4845 75.9436 76.2824 81.5035 76.2824C87.0635 76.2824 91.5703 75.4845 91.5703 74.5039C91.5703 73.5233 87.0635 72.7227 81.5035 72.7227C75.9436 72.7227 71.4368 73.5206 71.4368 74.5039Z" fill="#E5D6C6"/>
<path d="M71.4447 74.5056C71.4447 75.47 75.9057 76.2545 81.4089 76.2545C86.9121 76.2545 91.373 75.47 91.373 74.5056C91.373 73.5411 86.9121 72.7539 81.4089 72.7539C75.9057 72.7539 71.4447 73.5384 71.4447 74.5056Z" fill="#E5D6C5"/>
<path d="M71.4566 74.5034C71.4566 75.4517 75.8716 76.2255 81.3181 76.2255C86.7647 76.2255 91.1797 75.4544 91.1797 74.5034C91.1797 73.5523 86.7647 72.7812 81.3181 72.7812C75.8716 72.7812 71.4566 73.5523 71.4566 74.5034Z" fill="#E5D5C4"/>
<path d="M71.4665 74.5077C71.4665 75.44 75.8356 76.2003 81.2254 76.2003C86.6153 76.2003 90.9844 75.44 90.9844 74.5077C90.9844 73.5755 86.6153 72.8125 81.2254 72.8125C75.8356 72.8125 71.4665 73.5728 71.4665 74.5077Z" fill="#E4D5C3"/>
<path d="M71.4747 74.5094C71.4747 75.4282 75.7979 76.1724 81.1284 76.1724C86.4588 76.1724 90.7847 75.4256 90.7847 74.5094C90.7847 73.5933 86.4615 72.8438 81.1284 72.8438C75.7952 72.8438 71.4747 73.5906 71.4747 74.5094Z" fill="#E4D4C2"/>
<path d="M71.4859 74.5111C71.4859 75.4138 75.7632 76.1473 81.0369 76.1473C86.3106 76.1473 90.5879 75.4138 90.5879 74.5111C90.5879 73.6084 86.3106 72.875 81.0369 72.875C75.7632 72.875 71.4859 73.6084 71.4859 74.5111Z" fill="#E3D3C1"/>
<path d="M71.4938 74.5155C71.4938 75.4021 75.7225 76.1221 80.9422 76.1221C86.1619 76.1221 90.3906 75.4021 90.3906 74.5155C90.3906 73.6289 86.1592 72.9062 80.9422 72.9062C75.7252 72.9062 71.4938 73.6263 71.4938 74.5155Z" fill="#E3D3C0"/>
<path d="M71.5042 74.5172C71.5042 75.3877 75.687 76.0942 80.85 76.0942C86.013 76.0942 90.1958 75.3877 90.1958 74.5172C90.1958 73.6468 86.0103 72.9375 80.85 72.9375C75.6897 72.9375 71.5042 73.6441 71.5042 74.5172Z" fill="#E3D2BF"/>
<path d="M71.5156 74.5228C71.5156 75.3772 75.6525 76.073 80.7588 76.073C85.8651 76.073 90.002 75.3772 90.002 74.5228C90.002 73.6685 85.8651 72.9727 80.7588 72.9727C75.6525 72.9727 71.5156 73.6685 71.5156 74.5228Z" fill="#E2D1BE"/>
<path d="M71.5236 74.5233C71.5236 75.3615 75.6146 76.0439 80.6641 76.0439C85.7137 76.0439 89.8047 75.3615 89.8047 74.5233C89.8047 73.6851 85.7137 73 80.6641 73C75.6146 73 71.5236 73.6824 71.5236 74.5233Z" fill="#E2D1BD"/>
<path d="M71.5342 74.525C71.5342 75.3471 75.5793 76.0161 80.5695 76.0161C85.5597 76.0161 89.6074 75.3471 89.6074 74.525C89.6074 73.7029 85.5624 73.0312 80.5695 73.0312C75.5766 73.0312 71.5342 73.7002 71.5342 74.525Z" fill="#E1D0BD"/>
<path d="M71.5424 74.5291C71.5424 75.3351 75.5416 75.9933 80.4751 75.9933C85.4086 75.9933 89.4077 75.3378 89.4077 74.5291C89.4077 73.7205 85.4086 73.0623 80.4751 73.0623C75.5416 73.0623 71.5424 73.7178 71.5424 74.5291Z" fill="#E1CFBC"/>
<path d="M71.5528 74.5311C71.5528 75.3209 75.5061 75.9657 80.3829 75.9657C85.2596 75.9657 89.2129 75.3209 89.2129 74.5311C89.2129 73.7412 85.2596 73.0938 80.3829 73.0938C75.5061 73.0938 71.5528 73.7385 71.5528 74.5311Z" fill="#E1CFBB"/>
<path d="M71.5642 74.5328C71.5642 75.3065 75.4716 75.9379 80.2916 75.9379C85.1117 75.9379 89.019 75.3065 89.019 74.5328C89.019 73.759 85.1117 73.125 80.2916 73.125C75.4716 73.125 71.5642 73.7564 71.5642 74.5328Z" fill="#E0CEBA"/>
<path d="M71.5717 74.5333C71.5717 75.2936 75.4331 75.9115 80.1965 75.9115C84.9598 75.9115 88.8213 75.2936 88.8213 74.5333C88.8213 73.7729 84.9598 73.1523 80.1965 73.1523C75.4331 73.1523 71.5717 73.7703 71.5717 74.5333Z" fill="#E0CDB9"/>
<path d="M71.5826 74.5389C71.5826 75.283 75.3981 75.8875 80.1048 75.8875C84.8114 75.8875 88.627 75.283 88.627 74.5389C88.627 73.7947 84.8114 73.1875 80.1048 73.1875C75.3981 73.1875 71.5826 73.792 71.5826 74.5389Z" fill="#DFCDB8"/>
<path d="M71.5913 74.5406C71.5913 75.2686 75.3609 75.8597 80.0082 75.8597C84.6554 75.8597 88.4277 75.2659 88.4277 74.5406C88.4277 73.8152 84.6581 73.2188 80.0082 73.2188C75.3582 73.2188 71.5913 73.8125 71.5913 74.5406Z" fill="#DFCCB7"/>
<path d="M71.6019 74.541C71.6019 75.253 75.323 75.8333 79.9162 75.8333C84.5094 75.8333 88.2305 75.253 88.2305 74.541C88.2305 73.8291 84.5067 73.2461 79.9162 73.2461C75.3257 73.2461 71.6019 73.8264 71.6019 74.541Z" fill="#DFCCB6"/>
<path d="M71.6128 74.5466C71.6128 75.2425 75.288 75.8093 79.8245 75.8093C84.361 75.8093 88.0361 75.2425 88.0361 74.5466C88.0361 73.8508 84.3583 73.2812 79.8245 73.2812C75.2907 73.2812 71.6128 73.8481 71.6128 74.5466Z" fill="#DECBB5"/>
<path d="M71.6208 74.5483C71.6208 75.228 75.25 75.7815 79.7298 75.7815C84.2096 75.7815 87.8389 75.228 87.8389 74.5483C87.8389 73.8686 84.2096 73.3125 79.7298 73.3125C75.25 73.3125 71.6208 73.8659 71.6208 74.5483Z" fill="#DECAB4"/>
<path d="M71.6317 74.5527C71.6317 75.2163 75.215 75.759 79.6381 75.759C84.0612 75.759 87.6445 75.219 87.6445 74.5527C87.6445 73.8864 84.0612 73.3438 79.6381 73.3438C75.215 73.3438 71.6317 73.8838 71.6317 74.5527Z" fill="#DDCAB3"/>
<path d="M71.6396 74.5544C71.6396 75.2019 75.177 75.7311 79.5435 75.7311C83.9099 75.7311 87.4473 75.2019 87.4473 74.5544C87.4473 73.9069 83.9099 73.375 79.5435 73.375C75.177 73.375 71.6396 73.9043 71.6396 74.5544Z" fill="#DDC9B2"/>
<path d="M71.6503 74.5559C71.6503 75.1872 75.1418 75.703 79.4488 75.703C83.7558 75.703 87.25 75.1872 87.25 74.5559C87.25 73.9245 83.7585 73.406 79.4488 73.406C75.1391 73.406 71.6503 73.9218 71.6503 74.5559Z" fill="#DCC8B2"/>
<path d="M71.661 74.5566C71.661 75.1718 75.1066 75.6769 79.3568 75.6769C83.6071 75.6769 87.0527 75.1745 87.0527 74.5566C87.0527 73.9387 83.6071 73.4336 79.3568 73.4336C75.1066 73.4336 71.661 73.936 71.661 74.5566Z" fill="#DCC8B1"/>
<path d="M71.6689 74.5583C71.6689 75.1601 75.0686 75.649 79.2622 75.649C83.4558 75.649 86.8555 75.1601 86.8555 74.5583C86.8555 73.9565 83.4558 73.4648 79.2622 73.4648C75.0686 73.4648 71.6689 73.9538 71.6689 74.5583Z" fill="#DCC7B0"/>
<path d="M71.6803 74.56C71.6803 75.1457 75.0341 75.6212 79.171 75.6212C83.3078 75.6212 86.6616 75.143 86.6616 74.56C86.6616 73.977 83.3078 73.4961 79.171 73.4961C75.0341 73.4961 71.6803 73.9743 71.6803 74.56Z" fill="#DBC6AF"/>
<path d="M71.6887 74.5644C71.6887 75.1339 74.9966 75.5987 79.0768 75.5987C83.157 75.5987 86.4648 75.1339 86.4648 74.5644C86.4648 73.9948 83.157 73.5273 79.0768 73.5273C74.9966 73.5273 71.6887 73.9921 71.6887 74.5644Z" fill="#DBC6AE"/>
<path d="M71.6991 74.5661C71.6991 75.1195 74.9611 75.5708 78.9846 75.5708C83.008 75.5708 86.27 75.1195 86.27 74.5661C86.27 74.0126 83.008 73.5586 78.9846 73.5586C74.9611 73.5586 71.6991 74.0099 71.6991 74.5661Z" fill="#DAC5AD"/>
<path d="M71.7098 74.5678C71.7098 75.1051 74.9259 75.543 78.8899 75.543C82.854 75.543 86.0728 75.1051 86.0728 74.5678C86.0728 74.0304 82.8567 73.5898 78.8899 73.5898C74.9232 73.5898 71.7098 74.0278 71.7098 74.5678Z" fill="#DAC4AC"/>
<path d="M71.718 74.5721C71.718 75.0933 74.8855 75.5205 78.7955 75.5205C82.7056 75.5205 85.873 75.0933 85.873 74.5721C85.873 74.0509 82.7029 73.6211 78.7955 73.6211C74.8882 73.6211 71.718 74.0483 71.718 74.5721Z" fill="#DAC4AB"/>
<path d="M71.7289 74.5738C71.7289 75.0789 74.8505 75.4927 78.7038 75.4927C82.5571 75.4927 85.6787 75.0789 85.6787 74.5738C85.6787 74.0688 82.5571 73.6523 78.7038 73.6523C74.8505 73.6523 71.7289 74.0661 71.7289 74.5738Z" fill="#D9C3AA"/>
<path d="M71.7369 74.5755C71.7369 75.0645 74.8125 75.4648 78.6091 75.4648C82.4058 75.4648 85.4814 75.0645 85.4814 74.5755C85.4814 74.0866 82.4058 73.6836 78.6091 73.6836C74.8125 73.6836 71.7369 74.0839 71.7369 74.5755Z" fill="#D9C3A9"/>
<path d="M71.7477 74.5799C71.7477 75.0528 74.7775 75.4423 78.5174 75.4423C82.2574 75.4423 85.2871 75.0555 85.2871 74.5799C85.2871 74.1044 82.2574 73.7148 78.5174 73.7148C74.7775 73.7148 71.7477 74.1017 71.7477 74.5799Z" fill="#D8C2A8"/>
<path d="M71.7586 74.5816C71.7586 75.0383 74.7425 75.4145 78.4257 75.4145C82.1089 75.4145 85.0928 75.041 85.0928 74.5816C85.0928 74.1222 82.1089 73.7461 78.4257 73.7461C74.7425 73.7461 71.7586 74.1195 71.7586 74.5816Z" fill="#D8C1A8"/>
<path d="M71.7664 74.5833C71.7664 75.0266 74.7043 75.3866 78.3281 75.3866C81.9519 75.3866 84.8926 75.0239 84.8926 74.5833C84.8926 74.1427 81.9546 73.7773 78.3281 73.7773C74.7016 73.7773 71.7664 74.14 71.7664 74.5833Z" fill="#D8C1A7"/>
<path d="M71.777 74.5838C71.777 75.011 74.6691 75.3602 78.2362 75.3602C81.8033 75.3602 84.6953 75.011 84.6953 74.5838C84.6953 74.1566 81.8033 73.8047 78.2362 73.8047C74.6691 73.8047 71.777 74.1539 71.777 74.5838Z" fill="#D7C0A6"/>
<path d="M71.7855 74.5894C71.7855 75.0005 74.6316 75.3363 78.142 75.3363C81.6524 75.3363 84.4985 75.0005 84.4985 74.5894C84.4985 74.1784 81.6524 73.8398 78.142 73.8398C74.6316 73.8398 71.7855 74.1757 71.7855 74.5894Z" fill="#D7BFA5"/>
<path d="M71.7959 74.5911C71.7959 74.986 74.5961 75.3084 78.0498 75.3084C81.5035 75.3084 84.3037 74.986 84.3037 74.5911C84.3037 74.1962 81.5035 73.8711 78.0498 73.8711C74.5961 73.8711 71.7959 74.1935 71.7959 74.5911Z" fill="#D6BFA4"/>
<path d="M71.8068 74.5955C71.8068 74.9743 74.5611 75.2859 77.9581 75.2859C81.3551 75.2859 84.1094 74.9743 84.1094 74.5955C84.1094 74.2167 81.3551 73.9023 77.9581 73.9023C74.5611 73.9023 71.8068 74.214 71.8068 74.5955Z" fill="#D6BEA3"/>
</g>
<path d="M90.7517 19.4589C91.8613 17.5486 94.314 16.8914 96.23 17.991L108.531 25.0502C110.447 26.1498 111.101 28.5898 109.991 30.5001L103.756 41.2352C102.646 43.1455 100.193 43.8027 98.2774 42.7031L85.9766 35.6439C84.0606 34.5443 83.4068 32.1043 84.5163 30.194L90.7517 19.4589Z" fill="url(#paint15_linear_2194_37282)"/>
<rect width="22.1825" height="25.5183" transform="matrix(0.867324 0.497744 -0.502259 0.864717 83.3618 32.1836)" fill="url(#paint16_linear_2194_37282)"/>
<path d="M70.5439 54.25L89.7834 65.2912L77.1424 71.7668L71.2226 68.3695L70.5439 54.25Z" fill="url(#paint17_linear_2194_37282)"/>
<path d="M71.2231 68.3672L77.143 71.7645L71.6197 74.4791L71.2231 68.3672Z" fill="url(#paint18_linear_2194_37282)"/>
<rect width="22.1825" height="7.65549" transform="matrix(0.867324 0.497744 -0.502259 0.864717 87.2065 25.5625)" fill="url(#paint19_linear_2194_37282)"/>
<path d="M60 19.9282V32.1507C60 32.367 59.9826 32.5833 59.942 32.7879C59.646 34.6526 58.0386 36.0789 56.1003 36.0789H46.4279L43.5596 39.2087C42.3271 40.5536 40.0851 39.6816 40.0851 37.8575V36.0789H35.8997C33.7467 36.0789 32 34.3194 32 32.1507V19.9282C32 17.7595 33.7467 16 35.8997 16H56.1003C58.2533 16 60 17.7595 60 19.9282Z" fill="url(#paint20_linear_2194_37282)"/>
<path d="M10 28.1194V41.1062C10 41.3881 10.0229 41.67 10.0764 41.9366C10.4659 44.3668 12.5814 46.2257 15.1322 46.2257H23.473C24.3909 46.2257 25.2809 46.5413 25.9936 47.1197L31.6093 51.6771C32.2629 52.2075 33.2394 51.7424 33.2394 50.9006V46.2257H37.8678C40.7012 46.2257 43 43.9326 43 41.1062V28.1194C43 25.2931 40.7012 23 37.8678 23H15.1322C12.2988 23 10 25.2931 10 28.1194Z" fill="url(#paint21_linear_2194_37282)"/>
<circle cx="20.5" cy="34.0078" r="1.5" fill="white"/>
<circle cx="26.5" cy="34.0078" r="1.5" fill="white"/>
<circle cx="32.5" cy="34.0078" r="1.5" fill="white"/>
<defs>
<linearGradient id="paint0_linear_2194_37282" x1="32.2555" y1="68.4492" x2="32.2555" y2="104.001" gradientUnits="userSpaceOnUse">
<stop stop-color="#1F76F5"/>
<stop offset="1" stop-color="#1F8EF5"/>
</linearGradient>
<linearGradient id="paint1_linear_2194_37282" x1="6" y1="68.4492" x2="40.3297" y2="116.044" gradientUnits="userSpaceOnUse">
<stop stop-color="#0C82E9"/>
<stop offset="1" stop-color="#4DC3F5"/>
</linearGradient>
<linearGradient id="paint2_linear_2194_37282" x1="3.33543" y1="72.0084" x2="26.8195" y2="80.1668" gradientUnits="userSpaceOnUse">
<stop stop-color="white"/>
<stop offset="0.35" stop-color="#E3D1C1"/>
<stop offset="1" stop-color="#F2E9E4"/>
</linearGradient>
<linearGradient id="paint3_linear_2194_37282" x1="34.9023" y1="118.205" x2="34.9023" y2="85.3177" gradientUnits="userSpaceOnUse">
<stop stop-color="#E3D1C1"/>
<stop offset="1" stop-color="#F2E9E4"/>
</linearGradient>
<linearGradient id="paint4_linear_2194_37282" x1="11.5856" y1="81.3447" x2="46.9733" y2="88.8628" gradientUnits="userSpaceOnUse">
<stop stop-color="white"/>
<stop offset="0.35" stop-color="#E3D1C1"/>
<stop offset="1" stop-color="#F2E9E4"/>
</linearGradient>
<linearGradient id="paint5_linear_2194_37282" x1="8.41826" y1="68.7239" x2="47.2826" y2="85.3138" gradientUnits="userSpaceOnUse">
<stop stop-color="white"/>
<stop offset="1" stop-color="#F2E9E4"/>
</linearGradient>
<linearGradient id="paint6_linear_2194_37282" x1="42.567" y1="78.4243" x2="93.3212" y2="82.6686" gradientUnits="userSpaceOnUse">
<stop stop-color="white"/>
<stop offset="0.28" stop-color="#F2E9E4"/>
<stop offset="0.53" stop-color="white"/>
<stop offset="1" stop-color="#EFE3DD"/>
</linearGradient>
<linearGradient id="paint7_linear_2194_37282" x1="61.8765" y1="68.4492" x2="96.2062" y2="116.044" gradientUnits="userSpaceOnUse">
<stop stop-color="#0C82E9"/>
<stop offset="1" stop-color="#4DC3F5"/>
</linearGradient>
<linearGradient id="paint8_linear_2194_37282" x1="116.665" y1="72.0084" x2="93.1811" y2="80.1668" gradientUnits="userSpaceOnUse">
<stop stop-color="white"/>
<stop offset="0.35" stop-color="#E3D1C1"/>
<stop offset="1" stop-color="#F2E9E4"/>
</linearGradient>
<linearGradient id="paint9_linear_2194_37282" x1="81.3355" y1="112.561" x2="89.7045" y2="84.293" gradientUnits="userSpaceOnUse">
<stop stop-color="#E3D1C1"/>
<stop offset="0.13" stop-color="#ECE0D6"/>
<stop offset="1" stop-color="#F2E9E4"/>
</linearGradient>
<linearGradient id="paint10_linear_2194_37282" x1="115.642" y1="84.1695" x2="98.7861" y2="81.9209" gradientUnits="userSpaceOnUse">
<stop stop-color="white"/>
<stop offset="0.35" stop-color="#E3D1C1"/>
<stop offset="1" stop-color="#F2E9E4"/>
</linearGradient>
<linearGradient id="paint11_linear_2194_37282" x1="111.581" y1="68.7239" x2="72.7171" y2="85.3138" gradientUnits="userSpaceOnUse">
<stop stop-color="white"/>
<stop offset="1" stop-color="#F2E9E4"/>
</linearGradient>
<linearGradient id="paint12_linear_2194_37282" x1="52.1499" y1="80.7525" x2="121.292" y2="74.39" gradientUnits="userSpaceOnUse">
<stop stop-color="white"/>
<stop offset="0.2" stop-color="white"/>
<stop offset="0.42" stop-color="white"/>
<stop offset="0.74" stop-color="#F2E9E4"/>
<stop offset="1" stop-color="#EFE3DD"/>
</linearGradient>
<linearGradient id="paint13_linear_2194_37282" x1="56.2446" y1="96.9297" x2="62.4927" y2="104.087" gradientUnits="userSpaceOnUse">
<stop stop-color="#0C82E9"/>
<stop offset="1" stop-color="#4DC3F5"/>
</linearGradient>
<linearGradient id="paint14_linear_2194_37282" x1="59.9984" y1="97.8086" x2="59.9984" y2="102.109" gradientUnits="userSpaceOnUse">
<stop stop-color="#1F76F5"/>
<stop offset="1" stop-color="#1F8EF5"/>
</linearGradient>
<linearGradient id="paint15_linear_2194_37282" x1="92.7607" y1="16" x2="99.4041" y2="43.1473" gradientUnits="userSpaceOnUse">
<stop stop-color="#2DA860"/>
<stop offset="1" stop-color="#6FC746"/>
</linearGradient>
<linearGradient id="paint16_linear_2194_37282" x1="0" y1="0" x2="25.9376" y2="20.846" gradientUnits="userSpaceOnUse">
<stop stop-color="#FF5C01"/>
<stop offset="1" stop-color="#FFA901"/>
</linearGradient>
<linearGradient id="paint17_linear_2194_37282" x1="69.0333" y1="62.9836" x2="83.5632" y2="66.9678" gradientUnits="userSpaceOnUse">
<stop stop-color="#F4B8B3"/>
<stop offset="0.05" stop-color="#F4BAB5"/>
<stop offset="0.59" stop-color="#FCCAC4"/>
<stop offset="1" stop-color="#FFD0CA"/>
</linearGradient>
<linearGradient id="paint18_linear_2194_37282" x1="79.9158" y1="74.3221" x2="68.0511" y2="77.3631" gradientUnits="userSpaceOnUse">
<stop/>
<stop offset="1" stop-color="#828282"/>
</linearGradient>
<linearGradient id="paint19_linear_2194_37282" x1="0" y1="0" x2="4.62483" y2="12.8855" gradientUnits="userSpaceOnUse">
<stop stop-color="#FFCC48"/>
<stop offset="1" stop-color="#FFE248"/>
</linearGradient>
<linearGradient id="paint20_linear_2194_37282" x1="32" y1="15" x2="60.762" y2="39.4488" gradientUnits="userSpaceOnUse">
<stop stop-color="#0C82E9"/>
<stop offset="1" stop-color="#4DC3F5"/>
</linearGradient>
<linearGradient id="paint21_linear_2194_37282" x1="43" y1="18.7544" x2="8.66929" y2="48.6065" gradientUnits="userSpaceOnUse">
<stop stop-color="#7AD333"/>
<stop offset="1" stop-color="#91DD30"/>
</linearGradient>
</defs>
</svg>
