<svg width="63" height="50" viewBox="0 0 63 50" fill="none" xmlns="http://www.w3.org/2000/svg">
<g clip-path="url(#clip0_2047_70269)">
<path d="M24.5716 19.9961C21.2752 19.9961 19.3095 21.7691 19.3095 24.7381V26.3041C19.3095 29.2591 21.2752 31.0241 24.5716 31.0241C27.8669 31.0241 29.8337 29.2591 29.8337 26.3041V24.7381C29.8337 21.7681 27.8669 19.9961 24.5716 19.9961ZM22.3085 24.9561C22.3085 23.4761 23.0484 22.7581 24.5716 22.7581C26.0937 22.7581 26.8347 23.4761 26.8347 24.9551V26.1091C26.8347 27.5721 26.0937 28.2851 24.5716 28.2851C23.0494 28.2851 22.3085 27.5741 22.3085 26.1091V24.9561ZM36.756 20.0931H33.7419C32.0635 20.0931 31.2117 20.8851 31.2117 22.4491V28.5691C31.2117 30.1321 32.0635 30.9261 33.7419 30.9261H36.756C40 30.9261 41.7157 29.3601 41.7157 26.4001V24.6181C41.7157 21.7001 39.9536 20.0931 36.756 20.0931ZM38.7147 24.9211V26.0971C38.7147 27.5421 38.0837 28.1861 36.6683 28.1861H34.6089C34.3367 28.1861 34.1885 28.0371 34.1885 27.7661V23.2731C34.1885 23.0031 34.3377 22.8531 34.6089 22.8531H36.6683C38.0655 22.8541 38.7147 23.5111 38.7147 24.9211ZM48.3538 19.9961C45.0585 19.9961 43.0917 21.7691 43.0917 24.7381V26.3041C43.0917 29.2591 45.0585 31.0241 48.3538 31.0241C51.6502 31.0241 53.6159 29.2591 53.6159 26.3041V24.7381C53.6159 21.7681 51.6502 19.9961 48.3538 19.9961ZM46.0917 24.9561C46.0917 23.4761 46.8326 22.7581 48.3548 22.7581C49.877 22.7581 50.6189 23.4761 50.6189 24.9551V26.1091C50.6189 27.5721 49.878 28.2851 48.3558 28.2851C46.8326 28.2851 46.0917 27.5741 46.0917 26.1091V24.9561ZM15.9214 32.8341C13.7419 32.8341 11.9506 33.4101 10.7399 34.4981C9.53325 35.5841 8.89615 37.1881 8.89615 39.1381V41.2701C8.89615 43.2181 9.53325 44.8171 10.7399 45.8941C11.9486 46.9741 13.7399 47.5441 15.9214 47.5441C18.1028 47.5441 19.88 46.9741 21.0927 45.8941C22.3044 44.8141 22.9466 43.2141 22.9466 41.2701V39.1381C22.9466 35.1911 20.3216 32.8341 15.9214 32.8341ZM19.3034 41.0001C19.3034 43.1641 18.1663 44.2621 15.9214 44.2621C13.6764 44.2621 12.5393 43.1651 12.5393 41.0001V39.4381C12.5393 37.2231 13.6451 36.1461 15.9214 36.1461C18.1976 36.1461 19.3034 37.2531 19.3034 39.4381V41.0001ZM17.3962 20.0931H10.2389C9.4768 20.0931 8.85886 20.7111 8.85886 21.4731C8.85886 22.2361 9.4768 22.8541 10.2399 22.8541H12.2208V29.4261C12.2208 30.2541 12.8921 30.9261 13.7197 30.9261C14.5484 30.9261 15.2197 30.2541 15.2197 29.4261V22.8541H17.3951C18.1572 22.8541 18.7762 22.2361 18.7762 21.4741C18.7762 20.7111 18.1583 20.0931 17.3962 20.0931ZM36.9193 32.9351C36.685 32.936 36.4532 32.9827 36.2371 33.0725C36.0209 33.1623 35.8248 33.2934 35.6597 33.4585C35.4947 33.6235 35.364 33.8191 35.2752 34.0342C35.1864 34.2493 35.1412 34.4797 35.1421 34.7121V37.1261L35.2248 41.2181C35.2242 41.2336 35.2219 41.2491 35.2177 41.2641L35.2379 41.7391C35.2397 41.7777 35.2283 41.8157 35.2056 41.8471C35.1829 41.8785 35.1503 41.9014 35.1129 41.9121C35.0756 41.9231 35.0355 41.9212 34.9994 41.9067C34.9633 41.8922 34.9333 41.8658 34.9143 41.8321L31.003 34.9691C30.1865 33.5311 29.2591 32.9401 27.9123 32.9981C26.872 33.1351 25.7611 33.9131 25.5524 35.3131L25.5464 35.3491C25.5413 35.3791 25.5393 35.4091 25.5363 35.4411C25.5281 35.5088 25.5231 35.5769 25.5212 35.6451L25.5181 35.7941V45.6681C25.5181 46.6481 26.3125 47.4441 27.2943 47.4441C28.2752 47.4441 29.0705 46.6501 29.0705 45.6681V43.2541L28.9889 39.1621C28.9889 39.1461 28.9919 39.1321 28.9949 39.1161L28.9758 38.6411C28.9728 38.6021 28.9834 38.5633 29.0059 38.5311C29.0284 38.499 29.0614 38.4756 29.0993 38.4648C29.1372 38.454 29.1777 38.4565 29.214 38.4718C29.2502 38.4872 29.28 38.5145 29.2984 38.5491L33.2097 45.4111C34.0262 46.8491 34.9536 47.4401 36.3004 47.3821C37.3407 47.2451 38.4516 46.4681 38.6613 45.0671L38.6663 45.0311C38.6714 45.0011 38.6734 44.9711 38.6764 44.9391C38.6819 44.8902 38.6855 44.8412 38.6875 44.7921L38.6915 44.7351C38.6945 44.6851 38.6956 44.6351 38.6956 44.5861V34.7121C38.6974 34.2428 38.5114 33.792 38.1783 33.4588C37.8452 33.1256 37.3924 32.9372 36.9193 32.9351ZM44.876 42.4161V42.0221C44.876 41.9261 44.9536 41.8491 45.0494 41.8491H51.9466C52.8609 41.8491 53.6038 41.1071 53.6038 40.1911C53.6047 39.9743 53.5626 39.7595 53.4798 39.5589C53.397 39.3583 53.2752 39.1758 53.1213 39.022C52.9674 38.8681 52.7844 38.7458 52.5829 38.6621C52.3813 38.5784 52.1651 38.5349 51.9466 38.5341H45.0494C45.0034 38.5341 44.9593 38.516 44.9268 38.4837C44.8943 38.4515 44.876 38.4077 44.876 38.3621V37.2651C44.876 36.7521 45.1955 36.4321 45.7097 36.4321H51.9476C52.3885 36.4302 52.8107 36.2548 53.1213 35.9442C53.4319 35.6337 53.6054 35.2135 53.6038 34.7761C53.6047 34.5594 53.5626 34.3447 53.4799 34.1441C53.3972 33.9436 53.2754 33.7612 53.1216 33.6073C52.9678 33.4534 52.785 33.3311 52.5836 33.2474C52.3821 33.1636 52.166 33.12 51.9476 33.1191H44.5101C42.3246 33.1191 41.2641 34.1021 41.2641 36.1251V44.2551C41.2641 46.2771 42.3246 47.2601 44.5101 47.2601H51.9476C52.3885 47.2582 52.8107 47.0828 53.1213 46.7722C53.4319 46.4617 53.6054 46.0415 53.6038 45.6041C53.6047 45.3874 53.5626 45.1727 53.4799 44.9721C53.3972 44.7716 53.2754 44.5892 53.1216 44.4353C52.9678 44.2814 52.785 44.1591 52.5836 44.0754C52.3821 43.9916 52.166 43.948 51.9476 43.9471H45.7097C45.1955 43.9471 44.876 43.6271 44.876 43.1141V42.4161Z" fill="#41403E"/>
<path d="M31.2501 13.8765C31.0315 13.8758 30.8152 13.8325 30.6135 13.7488C30.4118 13.6651 30.2287 13.5429 30.0747 13.389C29.9207 13.2351 29.7988 13.0526 29.7159 12.8519C29.6331 12.6513 29.5909 12.4363 29.5918 12.2195V3.3435C29.591 3.12673 29.6333 2.91194 29.7162 2.71138C29.7991 2.51083 29.9211 2.32845 30.0751 2.17466C30.2291 2.02087 30.4121 1.89869 30.6137 1.81511C30.8153 1.73152 31.0316 1.68816 31.2501 1.6875C31.4685 1.68829 31.6846 1.73174 31.8861 1.81539C32.0876 1.89904 32.2706 2.02124 32.4244 2.17501C32.5783 2.32879 32.7002 2.51112 32.783 2.71161C32.8659 2.9121 32.9081 3.12682 32.9073 3.3435V12.2195C32.9073 13.1345 32.1644 13.8765 31.2501 13.8765Z" fill="#FF501B"/>
<path d="M31.25 9.311C33.8206 9.311 35.9062 7.227 35.9062 4.656C35.9062 2.084 33.8206 0 31.25 0C28.6794 0 26.5948 2.084 26.5948 4.656C26.5948 7.226 28.6784 9.311 31.25 9.311Z" fill="#FF501B"/>
<path d="M60.8428 49.4589C60.6242 49.4582 60.408 49.4147 60.2065 49.331C60.0049 49.2472 59.8219 49.125 59.668 48.9711C59.5141 48.8172 59.3923 48.6347 59.3095 48.4341C59.2267 48.2335 59.1846 48.0187 59.1855 47.8019V21.5199C59.1855 17.6639 56.0484 14.5259 52.1905 14.5259H10.3095C6.45364 14.5259 3.31554 17.6639 3.31554 21.5199V47.8019C3.31554 48.7159 2.5736 49.4589 1.65828 49.4589C1.43972 49.4582 1.22345 49.4147 1.02183 49.331C0.82021 49.2473 0.637182 49.125 0.483197 48.9711C0.329213 48.8173 0.207287 48.6348 0.124382 48.4342C0.0414766 48.2336 -0.000784699 48.0187 1.10312e-05 47.8019V21.5199C1.10312e-05 15.8349 4.624 11.2109 10.3085 11.2109H52.1905C57.876 11.2109 62.5 15.8349 62.5 21.5199V47.8019C62.5 48.7179 61.7571 49.4589 60.8428 49.4589Z" fill="#41403E"/>
</g>
<defs>
<clipPath id="clip0_2047_70269">
<rect width="62.5" height="50" fill="white"/>
</clipPath>
</defs>
</svg>
